<?xml version="1.0" encoding="UTF-8"?>
<svg id="Layer_1" data-name="Layer 1" xmlns="http://www.w3.org/2000/svg" viewBox="0 0 644.64 643.97">
  <path d="M569.52,525.52c-66.61,79.25-177.49,129.73-281.95,116.29C86.06,615.88-50.33,413.28,17.67,217.16,70.69,64.23,236.79-30.21,395.57,8.81c230.15,56.56,329.36,331.82,173.95,516.71Z" style="fill: #050608;"/>
  <path d="M57.94,413.94c-4.96-1.61-32.77-5.58-34.49-8.01-4.43-16.53-8.6-33.43-10.49-50.51C-11.54,134.28,205.16-43.13,416.9,26.47c83.18,27.34,162.1,95.73,193.51,178.49,4.23,11.14,3.28,14.28,1.07,26-4.59,24.34-16.14,49.45-31.07,68.94l-17.45-18.49c-72.18-54.81-156.1,23.93-123.5,103.5,36.07,88.01,162.6,58.75,155.53-42.53-.81-11.55-5.27-20.97-7.9-31.74,15.98-20.63,28.71-44.93,33.86-70.72,2.6-.28,1.59,0,2.02,1.47,13.26,44.96,13.14,103.09,2.5,148.57-28.72,122.87-132.37,217.3-256.29,238.71-135.02,23.33-274.63-58.69-330.42-181.07-2.62-5.74-10.1-21.92-10.82-27.2-.22-1.62-.18-1.63,1.33-1.33,11.2,2.25,22.19,5.86,33.66,6.85,4.13-4.82,9.95,5.2,11.69,9.29,1.56,3.67,4.59,11.85-.69,12.71-2.8,1.12-6.26,1.28-10.4.49,9.58,18.42,20.49,36.3,34.33,52.24l2.06,5.27c1.01-.49,1.67.51,2,3,2.9-.57,7.43,2.68,6,6,2.6-.52,2.66-.01,1,2,6.36,2.93,12.54,9.95,16,16,13.27,9.36,25.93,19.36,38,30,1.01.53,1.83.43,2.58-.68,12.94,9.21,26.71,16.7,41.3,22.47l1.12,2.22c4.13,1.92,8.31,2.63,12.53,2.13l1.47,1.87c4.11-.37,14.46-.86,13.12,4.55,2.45.72,2.69.9,2.88,3.45.37-2.88,3.21-2.81,4,0,3.34-2.17,10.26.53,12,4,3.54-1.58,10.09.7,13,3l4.37-1.09c2.57-.07,12.32,2.08,13.63,4.09l7.5.79c3.42-1.05,9.76-.11,12.5,2.21.19-.89.52-.85,1,0,16.2,1.62,32.06-.31,47.87-3.42,1.8.95,3.84,1.1,6.13.42.19-.89.53-.85,1,0,2.56-1.06,5.56-1.72,9-2l3.2-2.31c14.19-2.33,27.97-6.27,41.34-11.81,1.79.67,3.65.78,5.46.12.03-3.17,5.12-4.33,7-2,3.78-4.7,11.98-8.49,18-8,1.82-3.92,5.48-5.92,11-6,1.04-2.01,2.66-3.31,4.57-4.42,34.1-19.81,65.23-45.22,89.16-76.8l5.27-3.77c.25-3.72,3.28-10.27,7-11,13.53-21.99,23.14-45.23,32.69-69.47.71-1.81,1.73-3.35,3.31-4.53-1.24-5.51.73-12.82,5-17l-.19-3.37c4.65-21.91,8.46-43.82,7.72-66.3l-1.53.68c-2.98,7.75-3.47,16.41-1.48,25.95l-2.52,21.05c1.18,4.26.38,8.3-2,12-2.82,12.94-6.62,26.96-18,35l.1,3.06c-5.35,6.39-11.36,12.25-18.05,17.23l-3.05-.29c1.38,2.6-1.65,4.91-4,3l-1.36,3.01c-10.56,5.32-22.13,8.54-33.87,9.78l-2.77-1.78c-5.86,4.02-17.69,1.85-24.72,0-4.72-.39-8.15-2.05-10.28-4.99l-3.43.97c-6.32-1.49-18.03-6.21-20.57-11.97l-2.31.82c-6.55-4.89-12.61-10.49-18.22-16.42l.52-2.4c-1.18-.07-2.53-.15-3.46-.97-8.88-7.76-23.52-41.23-22.31-52.88l1.77-3.15c-2.83-.93-2.25-1.55,0-3-3.3-2.69-2.68-14.81,1-17-2.57-1.79-2.02-4.3,1-5l-1.3-3.46c9.5-41.82,45.33-79.05,89.66-80.87,7.38-.3,18.39-.7,23.65,4.34l1.55-1.66c11.75,4.02,23.31,9.33,32.77,17.73,2.82-3.1,5.11-6.78,6.87-11.04,1.19.2,2.16-.09,2.81-1.03-1.89-1.93-1.68-2.36,1-2,.66-6.63,3.73-14.91,9-19l.31-2.2c-.79-4.64,1.69-9.34,4.69-11.8-1.61-1.42-2.63-3.69-3.07-6.79-6.01-9.07-9.99-18.81-11.93-29.21-4.11-1.35-8.01-8.82-7-13-2.49,1.14-5.7-1.51-4-4l-2.99-.95c-5.06-8.02-10.54-15.7-16.44-23.12l-1.57-4.93c-3.33.88-8.07-5.96-7-9-1.93-.74-3.94-1.53-5.47-2.97-22.61-21.33-40.94-38.32-68.22-54.19C271.32-38.45,33.8,104.6,33.87,324.02l-1.92,5.92c2.07,2.93,2.37,5.59.9,7.99,1.11,17.03,3.93,33.66,8.47,49.88,2.36-.09,3.9.62,4.63,2.12l3.01,2.05,9.35,18.27-.36,3.69Z" style="fill: #f1fdfd;"/>
  <path d="M510.74,276.23c47.15-4.01,80.03,41.67,72.92,85.92-7.74,48.22-57.99,78.34-102.03,51.58-56.43-34.29-38.81-131.73,29.1-137.5Z" style="fill: #f1fdfc;"/>
  <path d="M95.94,306.94c2.92-.55,5.12,2.74,3,5l-1.63,2.48c-19.09,5.34-38.98,12.08-55.03,23.69l-2.33-.16c.43,3.19,1.18,7.46,2.09,11.37,1.06,4.58,2.17,9.16,3.45,13.66l-1.54,1.97c12.82,29.55,26.07,59.3,45.71,84.95.17,4.64-4.46,3.68-6.48.79,4.4,22.68,17.79,44.16,36.73,57.05,11.87-3.72,24.58-6.32,37.37-4.18l1.68,2.38c2.73-.85,3.11.06,1,2l-3.08,1.72c-13.63-.64-26.74,3.38-39.61,7.37l-3.32-1.09c-.1,3.89-2.43,2.84-5,1-.64-.69-.76-1.74-1-2-1.53-1.7-1.33-2.35.64-3.04l-2.66-3.87c-.55,2.74-1.95,2.6-3.98.91-.14-5.19-1.47-9.19-4-12-3.78-.31-9.09-7.62-11.41-11.26-2.14-3.35-6.22-12.77-7.6-16.7l1.01-2.05-1.02-.5c.27-2.68-.06-4.51-.98-5.5-3.64-2.36-4.97-6.7-4-13,3.38-5.48-3.3-17.78-7.47-21.08-.99-.78-2.56,0-3.53-.92,2.21-.65-.29-2.79-.79-3.71-1.5-2.72-2.82-5.53-4.21-8.29-3.9-7.78-8.87-15.95-12-24-.66-.31-1.29-.66-1.84-1.1-4.08-3.32-13.18-44.88-10.24-54.65,3.44-1.46,6.8-3.2,10.08-5.25l2.09-3.22c13.11-7.68,27.71-14.78,42.06-19.77l3.86.99c.05-3.05,3.3-2.72,4,0Z" style="fill: #178077;"/>
  <path d="M537.94,130.94l-1.91,1.87c-11.48-.3-19.58,8.18-25.86,16.8-1.42,1.19-2.72.65-4.06-.55-4.09-5.75-12.03-11.95-18.32-5.72-2.32,3.16-4.42,5.99-7.65,2.03-5.06-8.1-14.27-19.65-22.24-7.73-.49,6.07-4.82,7.1-13,3.08-18.51-4.05-17.66.69-8.68,15.66,6.37,13.93-10.27,24.38-20.63,30.68-15.22,8-30.62,15.64-46.19,22.92-21.83,11.06-37,29.48-44.52,52.68l-2.94,2.27-.98,2.32c-.46,13.83-6,.84-8.29-5.38l-2.73-2.94-2.31-.07c-4.43-11.22-11.3-18.51-20.6-21.87-17.8,3.37-35.07,9.24-51.8,17.6-4.76,2.02-9.65,3.48-14.73,4.32-3.39.56-9.41,1.54-11.56-.98-3.82.29-5.23-.67-4.25-2.89,24.88-35.35,49.02-76.04,53.11-119.92,4.2-45.08-22.8-64.82-63.02-40.52-48.34,29.21-94.73,104.52-104.69,159.08-3.59,19.69-1.41,34.15,3.98,52.19l-2.12,1.06c-18.35,4.79-31.48,14.23-48,22-3.48,2.15-7.03,4.05-10.62,5.7l-1.38-4.7c-3.26-144.12,98.03-265.81,238.79-292.71,99.37-18.99,200.36,19.94,267.21,93.71Z" style="fill: #f19b9e;"/>
  <path d="M418.94,357.94l-.89,3.33c-16.09,7.98-20.79,17.35-18.78,35.29,1.79,15.98,29.08,19.25,41.75,17.14l1.92,1.25c4.76,5.36,14.15,14.03,20,18l.83,2.28c-8.3,13.61,13.69,17.66,20.62,8.82l2.54-.1c12.23,3.97,21.9,5.82,35,5,.58.45,1.21.99,1.27,1.71,3.24,38-8.53,82.42-39.32,107.26-9.13,7.37-23.53,17.24-34.95,17.02l-1.53-.25c-1.76-5.12-5.77-5.58-10.47-3.94-2.97-.78-5.92-2.38-8.85-4.81-8.93,2.1-12.31.77-10.14-3.99.33-1.3.03-1.68-1-1-5.5,4.59-6.95-1.72-6.82-7.17.38-15.87,13.02-31.85,26.82-38.83l.09-2.81c7.76-7.72,16.75-13.71,27.05-17.42-5.76-.66-11.56-.84-17.39-.54l-.76-2.23-.64-2.6c11.57-15.27-14.47-29.77-27-23.42l-2.36-.98c-.83-.17-1.78-.64-1.72-1.35.54-6.09.83-17.21-3.33-22.33-14.62-17.99-14.56,29.55-10.44,39.66,3.65,8.95,8.25,13,7.39-.78l2.1-1.2c3.47,2.18,1.76,8.65,0,12l2.05,1.19c-.1,5.25.1,9.9,4.43,13.48l-.48,2.33c6.95.09,1.31,11.35-3,11-6.97-2.98-12.21-13.3-15.39-20.47-4.04-9.11-6.12-18.86-6.59-28.79l1.52,13.99-1.54,2.26c1.86,10.09,5.78,19.54,11.75,28.33-.89,19.66-14.59,38.12-29.01,51.07l-3.74.59-2.17-.98c-1.51-8.97-22.83-15.33-30.23-13.8-11.32,2.33-29.14,27.07-14.78,36.23l.18,2.55c-.26,1.03-.67,2.05-1.56,2.69-2.98,2.16-15.31,2.6-19.54,2.53-7.09-.11-17.34-2.31-22.91-6.23-.8.27-1.88.49-2.33-.07-1.09-1.36-2.93-16.37-1.82-18.87-6.51-9.18-2.15-11.09,6.38-14.76,2.95-1.27,10.59-3.86,12.27-1.29,0-.67.05-1.22.29-1.33,2.94-1.34,14.09.45,17.21,1.33-3.24-1.05-7.1-1.53-11.58-1.45-4.94-3.41,6.11-21.17,8.78-24.7,7.48-9.87,17.29-20.56,28.8-24.86-1.12-2.03-1.22-3.78-.32-5.26,14-17.64,26.72-36.31,36.32-56.74-.56-6.96,1.44-13.62,6-20l-1.61-1.94,2.45-12.77c.04-4.64,1.09-8.41,3.16-11.29l-2.01-1.21-1.75-15.17,1.76-1.62c6.57-5.7,27.94-23.76,35.83-22.62.74.11,1.46.35,2.17.62,0,.99-.05,2.01,0,3Z" style="fill: #9ad5d3;"/>
  <path d="M486.94,152.94c6.72-10.04,11.47-5.17,16.77,2.63,2.81,6.44,5.97,12.69,9.48,18.73l1.75.64,1.45-.3c-4.41-7.75,11.86-16.19,18.12-17.05,3.62-.5,11.26-.46,9.42,4.35.86,3.75.39,7.52-1.43,11.32-19.04,17.21-23.75,27.92-16.53,52.94l8.35,24.19-1.38,2.55c-54.02-13.12-101.85,29.08-112,80-1.68,2.34-5.94,3.41-8,1-19.95,5.05-39.37-10.48-47.62-27.8-6.34-13.31-9.18-34.12.62-46.2l-1.12-2.31c11.95-17.75,33.89-30.63,52.95-39.91l37.3-16.52c20.89-11.43,29.39-23.69,29.59-46.87l2.28-1.39Z" style="fill: #a4e0bb;"/>
  <path d="M321.94,264.94c9.16-26.07,19.39-40.9,43.49-55.01,18.99-11.12,54.29-22.34,67.48-39.52,9.07-11.82-6.58-19.9-4.79-28.73,1.91-9.42,20.99-1.71,26.81.26.51-7.88,5.41-12.21,13.45-10.95,6.6,1.03,10.47,10.95,15.07,14.94,7.15-12.8,18.67-6.54,25,2.98,6.66-10.02,16.44-19.38,29.5-17.98,2.93,3.23,4.57,6.1,7,9,2.55,4.44,2.65,8.78.67,13.5,7.54,3.89,8.74,11.49,8.51,18.81l9.69-4.52,2.13,1.21c.48.74,3.03,2.41,4,4l.03,2.41c-8.34,2.44-15.56,5.96-21.67,10.56l-2.36.03c-1.56,4.26-.42,10.01,1.11,14.35,5.71,16.24,14.67,27.86,25.73,40.88,5.09,4.68,6.81,9.27,5.16,13.77-.35.66-.63,1.33-1,2-1.42,2.53-2.73,3.03-3.95,1.5-14.74-17.05-42.58-49.95-35.69-73.55,4.94-7.4,7.16-15.05,6.64-22.95-5.65-6.38-17.5.2-22.91,4.59-7.29,5.91-1.71,6.5-2.1,14.4l-3.99-6-1.39.13c-3.69-6.15-6.74-12.77-9.75-19.33-5.13-8.32-11.11-13.88-16.86-2.8-2.55,13.12.2,20.67-9.02,32.48-14.27,18.27-36.48,23.21-56.33,32.67-15.25,7.26-49.14,26.3-55.64,41.86-9.6,14.28-18.26,30.32-19.89,47.89l-2.11,2.11c1.2,4.66-7.35.07-8.11-1.8-.54-1.34,1.3-4.07,3.11-3.2-.43-.66-.81-1.32-1.08-2.04-1.93-5.29,5.82-24.04,8.75-29.87,5.21-10.35,12.97-22.92,23.32-28.09.12-.82.27-1.63.56-2.39,4.04-10.75,57.87-37.06,70.97-42.59l4.47-.02c7.62-4.97,14.91-10.29,21.85-15.98,5.61-6.53-6.06-25.94-10.85-32.02l-2.7.29c-1.34-2.94-16.35-8.76-17.65-7.18-.24.29,3.59,6.6,3.96,6.53,8.24-3.88,6.3,5.05,5.03,10.31-4.42,18.25-23.93,29.16-39.72,37.2-18.01,7.3-34.8,16.44-50.38,27.41l-3.55.45-3.27,6.07c-13.75,15.16-24.27,36.39-18.55,57.13l-1.18,2.8c-4.31,5.63-12.67-8.41-8-12-2.01-4.98-1.67-10.32,1-16Z" style="fill: #26804d;"/>
  <path d="M159.94,507.94c3.68,1.4.26,4.49-2.52,5.56-8.89,1.84-10.86,3.45-5.9,4.85,16.46-2.04,27.83,10.22,37.7,21.31,14.88,1.2,9.67-8.59,1.1-14.32-2.95-2.94-3.34-7.11,1.63-6.4.27-.86.6-.85,1,0,2.77.57,3.77,1.57,3,3,7.13,5.52,14.54,12.74,15.35,22.08-5.12.26-10.24.56-15.35.92,8.02.1,15.67,1.79,22.94,5.07l1.06,2.93c2.93-2.74,11.34,5.94,9.06,9.04-6.61,2.47-6.33,5.87-3.39,11.89-1.05,1.87-2.77,3.64-5.16,5.32,1.49,10.2-2.68,12.78-12.52,7.74-9.49-.99-35.97-17.96-45-24,.47-.73.8-1.4,1-2-.6-.53-1.2-1.29-.92-1.91,2.45-5.3,1.43-7.89-1.04-13.53-7.09-16.22-17.62-26.75-33.84-13.55l-2.2-1c-.54.29-.99.48-1.13.34-1.61-1.52-12.01-12.17-12.2-13.15-.16-.8.63-1.59,1.34-2.19,15.09-4.49,29.54-9.69,46-8Z" style="fill: #9ad5d3;"/>
  <path d="M559.94,437.94l2.46,2.55c2.31,17.48-2.38,35.19-7.46,51.45-25.95,36.08-60.28,63.76-99,85-6.37,2.23-8.7,1.56-7-2,51.39-14.75,76.33-70.35,72.25-120.83-.16-1.92-.57-3.44.75-5.17,12.29-.76,27.28-4.9,38-11Z" style="fill: #5da1a8;"/>
  <path d="M576.94,256.94c-2.45,4.48-4.75,9.61-7.74,13.74-.5.69.2,1.7-1.74,1.24-3.96-3.8-9.07-7.51-13.86-10.15s-15.53-7.58-20.67-8.83c-5.24-20.44-19.21-40.71-8.48-61.98,3.81-7.55,11.1-12.23,16.33-18.66l3.15-10.35c7.16,8.09-5.5,20.09-6.07,28.51-1.33,19.38,22.63,51.66,35.56,65.53,1.15,1.23,1.78,2.41,3.51.96Z" style="fill: #5da387;"/>
  <path d="M309.94,258.94c4.84,6.51,8.84,14.26,11,22,.45,4.38,2.31,12.2,8,12l2.24.27c2.7,3.97,5.28,7.88,7.76,11.73-.12.96-1.54,2.45-1.01,4,4.33-1.4,3.52,3.2,6.01,1,8.78,10.06,17.61,20.75,26.49,32.05l4.1,7.43c9.47-4.93,19.15-9.7,29.03-14.31l9.37-1.17c2.45-.74,5.06-1.06,7.55-1.66l.45.66c-.33,1.64-.75,3.37-1,5l-2.66,2.56c-14.01,4.2-27.24,10.23-39.68,18.07,2.64,5.32,5.87,12.86,3.34,18.38.83,4.93,2.04,13.2,2,18-.59,5.59-4.96,4.81-6,0l-2.04-2.89c-.9-24.2-8.78-48.18-28.16-63.12-15.47-24.59-35.49-41.14-59.8-55.99-.9,1.86-12.53-3.51-12.99-4.06-1.98-2.4-2.13-3.16.62-4.96,2.59-1.69,32.9,8.77,34.37,15.02.93-1.13,2.01-1.4,2.96-.32-4.41-10.99-9.73-21.55-15.96-31.68-2.74,1.04-4.61-2.54-4-5-15.67,1.96-31.08,6.35-46.24,13.15l12.35,1.15c2.35,1.36,2.84,2.76.89,4.7.39,2.38-.76,2.7-2.81,2.8-17.37-2.7-35.1-1.77-53.2,2.8l-2.99-1.59c-1.73-2.28-.4-4.28,4-6,.16-2.14,1.83-2.47,5-1,4.5-.8,9.63-.48,14.05-1.45,12.16-2.67,27.87-11.84,41.16-15.84,5.16-1.55,18.61-5.85,23.22-5.64,10.22.47,18.22,15.87,22.57,23.93Z" style="fill: #158073;"/>
  <path d="M336.94,502.94c-12.54,7.12-25.68,21.23-32.52,33.98-1.76,3.27-7.87,13.92-1.98,15.02,2.56.48,9.25-1.7,8.5,2h-17.5c-3.25,0-14.63,3.5-17.43,5.57-6.15,4.54-.15,5.21.75,10.19.55,3.02-1.08,5.09-.82,7.65.19,1.84,1.87,3.31,1.98,5.13.27,4.17-1.71,1.69,1.02,6.46,2.67,1.08,4.26,3.58,4.78,7.5,31.87,17.01,78.69,9.93,105.12-14.93l3.1-.57c1.77-.17,1.36,1.27,0,2,2.43.76,1.51,2.37,0,4-1.4,1.96-3.69,3.32-6,4,1.74,2.3.56,3-2,2-1.85,1.63-3.85,2.96-6,4l-3.02,2.25c-2.26.41-3.92.99-4.98,1.75l-.48,2.53c-.87.95-14.05,5.58-15.52,3.47-.01.51-.07,1.01-.27,1.43-.32.66-13.48,3.08-13.73.57-10.12,1.7-24.29,2.92-34.68,1.39-.5-.07-.92-.66-1.32-1.39-1.2,2.53-10.07,1.14-10-2-4.25,1.44-9.14.03-14.67-4.22-4.84,2.29-7.95,2.37-9.33.22-8.62,3.77-17.17-.74-15.04-11.7-1.63-.87-3.28-1.64-4.96-2.3l-1.63,1.67c-4.11-2.48-4.64,3.72-4.56,6.81l-1.81,1.53c-.97-.3-2.82.21-4,0l-2.44-1.72c4.21-5.9-9.03-7.16-13.56-6.28-5.91.62-8.95.04-14-4,.13.01.81-.99,1.5-.89,2.68.38,6.13,2.96,8.54,1.43,2.09-1.33-2.6-7.27,2.57-11.43.98-.79,3.28-.98,3.39-1.12.34-.42-3.52-4.6-1.8-10.3.99-3.29,6.67-2.97,5.79-5.18-.7-1.76-6.1-5.35-7.99-6.51-2.35-1.81.46-5.24,3-4l2.14-.39,8.6,9.88c9.05,3.84,19.55,11.34,11.47,21.27,4.68,4.46,6.13,4.54,7.66-1.9-5.8-13.61,2.43-19.7,15.82-18.93,6.51-6.51,17.21-10.72,26.18-9.28.21-15.56,24.62-44.86,38.85-48.91,2.66-.76,4.12-.94,3.27,2.26Z" style="fill: #1d7b74;"/>
  <path d="M442.94,414.94c-7.35,4.43-21.89.02-30-2.5-6.68-2.08-11.65-3.37-14.5-10.5-2.62-6.56-1.41-21.88,1.6-28.39,3.37-7.29,13.23-10.33,18.89-15.61,1.08,20.18,10.68,42,24,57Z" style="fill: #22928a;"/>
  <path d="M586.94,235.94c-2.55,6.74-5.68,12.65-9,19,.49-2.38-.32-3.26-1.46-5.04-9.96-15.55-22.48-25.18-29.73-44.27-2.5-6.6-4.28-13.33-.81-19.69.98.26,2.03.65,1.88,1.68,6.96-5.69,21.25-12.04,23.25,1.33l.34,17.42c.29,9.45,6.17,16.07,13.73,21.21,3.12,2.3,2.66,4.93,1.79,8.37Z" style="fill: #5da288;"/>
  <path d="M412.94,518.94c2.4,0,4.97,1.27,7.72,3.83,3.81-4.3,10.77-11.35,16.28-7.83-8.01,7.4-17.01,14.75-21.48,25.02-2.55,5.86-8.82,21.17,1.48,20.98,1.4-.99,1.85-.47,1,1,1.09,5.8,6.21,1.52,10.4,2.02s4.07,3.96,6.54,4.6c4.42,1.15,8.34-3.1,12.55,2.42,1.1,1.44.98,3.03,1.51,3.96,2.24,3.91,3.99.36,7,2-3.68,2.02-7.21,4.14-11,6-1.76.91-2.92.82-3.48-.28,8.46-18.92-15.26-3.79-13.18,6.32l-1.35,1.97c-2.38.92-4.79,1.2-7,2-3.4,1.34-8.43.86-4-2-1.98-.44-3.27-1.98-4-4-2.11-3-6.07-3.97-11.86-2.91-2.86-3.67-4.46-2.55-7.16.28l-.99-1.37v-2l-.77-2.34c3.11-7.87,7.84-15.82,15.5-19.85-.78-11.9,2.71-20.61,8.67-30.66-12.6-10.1-21.64-26.33-24.4-42.15-3-12.29-2.97-33.59,2.22-45.28.83-1.88,1.63-3.95,3.77-4.72-8.19,28.3-4.81,60.89,16.01,83Z" style="fill: #1d7b73;"/>
  <path d="M419.94,337.94c-.73,4.85-1,12.01-1,17-14.14,5.05-25.49,12.93-36.01,23.38-1.43,1.42-1.03-.78-1.99-1.38-1.09-6.45-2.9-12.75-4.97-18.92,13.5-8.63,27.92-17.33,43.97-20.08Z" style="fill: #bde4e6;"/>
  <path d="M576.94,185.94c.51,10.4,2.65,17.17,7.54,26.25,2.15,3.99,5.21,9.61,5.91,9.55.5-.04,1.02.06,1.54.2-.29,2.97-3.72,10.62-5,14,.61-6.35-6.97-9.03-10.52-12.98-10.55-11.74-5.68-21.53-7.43-34.57-1.59-11.89-19.62-1.32-23.55,4.54l.5-7c4.8-8.79,16.74-7.56,24-13,2.44,3.99,4.84,8.8,7,13Z" style="fill: #a5e0bd;"/>
  <path d="M391.94,586.94c2.33-5.24,4.24-6.68,8.74-2.83,6.51-1.25,10.26-.3,11.26,2.83,1.37,1.41,2.7,2.74,4,4,.24.18-1.13,3.11,4,2-15.81,5.69-32.86,12.77-50,14-3.54.27-6.54.94-9,2-.33.02-.67,0-1,0-3.04.57-10.87,1.28-6-2,4.99-1.18,11.56-3.49,16-6,2.69-.88,5.36-2.22,8-4,1.94-1.57,3.94-2.91,6-4,.75-.93,1.5-1.41,2-2,2.27-.92,4.45-2.02,6-4Z" style="fill: #ef425a;"/>
  <path d="M597.94,406.94c-8.06,25.62-18.08,48.15-32.82,70.68-.9,1.38-1.47,2.7-3.18,3.32l-1.39-2.19,2.55-15.85c.24-3.28,1.52-4.93,3.84-4.96l.21-3.42c7.6-11.74,14.34-24.11,20.23-37.12,1.42-2.42,3.35-4.78,5.56-6.46-1.94-4.5,6.45-11.51,5-4Z" style="fill: #1c4d42;"/>
  <path d="M73.94,447.94c3.69,1.68,1.31,5.17,2.02,8.31.18.79,1.56-.28,1.98,4.69l1.02.78c-.35,2.6-.03,4.34.98,5.22,2.06,2.36,6.3,14.42,8.29,17.7,2.28,3.76,7.51,8.38,9.71,12.3,3.65.27,4.13,7.34,2,9-5.78-6.87-11.6-13.11-16.82-20.68-2.59-3.76-24.19-37.51-22.18-39.31,3.65.47,9.8.54,13,1.99Z" style="fill: #e34a5c;"/>
  <path d="M592.94,410.94c-5.25,9.61-9.39,20.06-14.83,29.67-3.28,5.79-8.31,11.85-11.17,17.33l-2.3-.36c-.2-7.07-.79-13.96-1.77-20.69l1.07-1.95c7.44-5.08,15.44-12.94,21-20,2.29-1.23,4.25-3.13,5.88-5.69,1.88-1.44,2.67-.55,2.12,1.69Z" style="fill: #5da288;"/>
  <path d="M565.94,168.94l-14.99,7c2.29-9.1,1.36-17.65-8.07-21.56,2.82-4.59,2.06-9.29,2.06-14.44,9.25,11.06,13.4,17.17,21,29Z" style="fill: #ea9ea0;"/>
  <path d="M566.94,457.94c-3.55,6.8-2.26,15.43-5,23-1.55,4.28-4.42,7.41-7,11-1.96-1.01-.66-3.32-.29-4.78,4.03-15.95,8.54-32.67,5.29-49.22,1.08-.61,2.7-2.11,4-3,4.82,6.07-.25,16.2,3,23Z" style="fill: #168176;"/>
  <path d="M486.94,443.94c-8.59,13.47-36.52,5.48-24-11,7.36,5,15.65,8.29,24,11Z" style="fill: #249189;"/>
  <path d="M43.94,328.94c-1.83,3.47-10.38,6.03-10.51,9.44-.21,5.56,3.34,11.91,2.74,17.83,3.88,10.92,5.57,22.95,9.77,33.73-3.43-.1-5.74,1.19-7.01-2.49-5.39-15.63-6.62-40.83-6.99-57.51l2,3c2.09.79,5.97-3.7,6.75-3.96,1.08-.35,2.75.19,3.24-.04Z" style="fill: #d5aaac;"/>
  <path d="M426.94,590.94c-4.39-7.81,10.88-23.86,17.53-18.01,2.46,2.17.46,5.35-.34,7.71-.58,1.7-2.66,2.55.82,2.31-5.88,2.89-11.61,5.53-18,8Z" style="fill: #dff3f5;"/>
  <path d="M591.94,221.94c-.78.44-.83,2.98-2.02,1.45-7.85-10.06-17.14-24.13-12.98-37.45,3.4,6.63,5.23,11.76,8.14,18.36s7.6,9.98,6.86,17.64Z" style="fill: #2d7e4d;"/>
  <path d="M608.94,320.94c.18-1.7.59-4.82,2.99-3.99.09,25.04-3.09,48.78-8.99,72.99-4.79,6.31-1.74-4.63,0-10,.67-3.99,1.32-8.01,2-12,2.77-13.97,2.62-27.82,1.8-41.88.31-1.87,1.01-3.64,2.2-5.12Z" style="fill: #2d5249;"/>
  <path d="M249.94,588.94c.95.94,2.58,1.27,4.88.99,0,4,.22,7.92,1.05,11.83l-1.93,1.18c-4.27-1.09-8.15-2.81-12-4-.65-3.18.07-9.8,3.64-10.89,1.42-.43,3.03.79,4.36.89Z" style="fill: #e6465b;"/>
  <path d="M602.94,379.94c-.65,3.84-1.4,7.64-2.01,11.49l2.01-1.49c-1.46,5.99-3.15,11.13-5,17-.01-1.35.44-2.31-.99-1.99-.76,2.33-2.71,3.61-4.01,5.99l-.5-.98c-2.39,1.96-4.89,5.15-6.99,5.97l-.51-.99c8.37-10.63,13.48-22.35,18-35Z" style="fill: #347f5a;"/>
  <path d="M604.94,367.94c.25-7.55,1.36-14.93,1.04-22.54-.35-8.23-5.5-19.3,2.96-24.46-.77,7.39.68,17.18,0,25.49-.62,7.53-2.76,14.33-3.99,21.51Z" style="fill: #689e8e;"/>
  <path d="M269.94,602.94c6.02-.2,5.44-1.68,6.69-1.98,6.11-1.51,8.64,3.94,12.59,5.2,1.96.63,3.18.46,4.73.79.53.29,1.02.61,1.35,1.05,2.12,2.86-8.74,1.43-10.35.95-7.26-.11-11.25-1.64-18-3,.23-1.37,1.23-2.37,3-3Z" style="fill: #de4a62;"/>
  <path d="M125.94,531.94l1.94-1.03s12.11,9.24,36.32,27.72l-.27,2.31c-.16.62,2.72,2.49-1,2-13.42-8.99-26.12-19.07-38-30-1.42-1.75-.82-2.32,1-1Z" style="fill: #216264;"/>
  <path d="M353.94,606.94c-.89,3.09,3.22,1.99,6,2-17.51,3.34-36.21,5.45-54,3l1.25-1.29c11.21.66,22.13.09,32.75-1.71,3.91-.27,10.29-1.12,14-2Z" style="fill: #b25a69;"/>
  <path d="M339.94,608.94c-.72,2.34-2.62,1.91-4.45,2.06-9.1.75-20.79,1.3-29.55.94-.33-.01-.67.02-1,0-2.56-.74-3.42-1.23-1-3,10.89.5,25.22.73,36,0Z" style="fill: #556a6c;"/>
  <path d="M249.94,588.94c1.98.15,4.02-.12,6.01,0-1.13,12.44,2.22,14.4,13.99,14.01.55,2.25-1.29,2.28-3,3-4.49-.9-8.58-1.88-13-3-.31-1.94.43-11.57,0-12.01-.62-.64-4.87,1.6-4.01-1.99Z" style="fill: #99616b;"/>
  <path d="M125.94,530.94c.91.33.91.66,0,1,0,.08-1.25.21-1,1-5.64-5.19-10.77-10.41-16-16,1.97.44,3.37-.51,5-1,.67,4.55,11.36,12.32,12,15Z" style="fill: #6da1a2;"/>
  <path d="M237.94,598.94c-1.16-.89-7.03-2.55-6.98-3.5.06-1.11,3.31-.93,2.97-2.49l-11.99-2.01c.09,0-.14-.79,1.48-.97,3.64-.39,14.64-.14,15.41,4.61.22,1.35-2.61,2.6-.89,4.36Z" style="fill: #b7d5dd;"/>
  <path d="M101.94,508.94c3.81,1.25.49-5.24,3.49-3.99,1.98.83,3.49,4.4,4.73,5.68.26.27,1.52-.63,2.28.28,2.44,2.9-4.36,1.98-4.51,4.03-1.83-2-3.93-3.6-6-6Z" style="fill: #5aa4a6;"/>
  <path d="M293.94,606.94c3.91.82,5.56,1.8,10,2l1,3c-6.33-.3-13.85-1.4-20-3,3.05.05,10.07,1.22,9-2Z" style="fill: #af5b6e;"/>
  <path d="M97.94,496.94h4s0,12,0,12c-1.21-1.4-1.59-2.51-2-3,.64-4.41-.12-5.64-2-9Z" style="fill: #676a6b;"/>
  <path d="M369.94,606.94c-2.42,1.98-6.01,1.84-9,2-.95-3.45,5.79-1.77,9-2Z" style="fill: #b25a69;"/>
  <path d="M514.74,290.23c71.59-5.23,80.34,111.87,10.69,117.69-73.25,6.12-82.6-112.44-10.69-117.69Z" style="fill: #050609;"/>
  <path d="M291.94,241.94c2.1,1.01,3.13,3.87,4,5,6.27,9.63,11.19,19.79,14.76,30.46l-1.76,1.54c-9.65-5.36-20.74-11-31.76-12.75-1.06-.17-3.48-1.06-3.24.74,4.87.95,8.76,3.81,12.99,6.01.18.48.77,1.38,1.61,1.91,21.34,13.4,26.5,18.64,35.39,42.65.38,8.5,2.94,14.99,7.69,19.48,25.44,4.4,35.56,35.05,39.98,57.45l-1.67,2.51c-.78,1.95-2.41,3.79-4.88,5.51l-5.91,9.42c-3.12,1.25-4.17,3.86-3.14,7.86-2.94,2.82-3,5.36-.19,7.62-.87,6.31,2.72,7.7,10.76,4.16l2.36,1.44c2.14.92,1.26,3.29.47,5.22-7.35,17.85-23.45,38.56-37.9,51.37-5.44,4.82-24.33,20.1-30.1,20.53-.82.06-1.64-.01-2.47-.12-23.25,11.33-48.38,18.94-73.88,15.7-5.59-4.63-10.78-9.75-15.56-15.34-.55,2.18-1.74,3.06-3.55,2.65l-2.07-1.07c3.23-11.06-8.98-13.89-17.68-12.7-3.45.07-6.04-2.95-2.25-4.23.28-.58.6-1.07,1.05-1.27,11.77-5.17,9.86-2.68-.58.22-.82.23-1.65.24-2.48.05.4,3.17-2.82,4.01-4,1-1.22-.2-2.3-.43-1.27-1l-27.39,1.68c-20.02-11.21-32.13-31.27-40.77-51.87-2.26-5.41-6.12-14.84-3.57-19.8l2.32-1.91c35.4.83,50.82-44.2,19.9-63.64s-63.94,12.44-51.19,43.91l-1.02,2.63-3.45-.42c-12.98-10.64-21.14-24.37-27.55-39.58-1.53-5.8-5.78-20.32-4.99-25.47.14-.93.81-1.17.99-1.53,2.49,1.23,5.17.76,8.05-1.4,7.19-6.09,17.03-10.65,25.91-14.26,10.16-4.13,22.41-9.1,33.04-6.34l2.74-1.15c30.54,7.8,65.89-22.69,83.23-45.5.44-.58-.32-1.69-.97-2.34-1.99-4.32,6.73-5.64,8-2,13.73-1.85,30.87-5.98,44.48-4.98,4.88.36,10,3.21,14.52.98l-.07-2.31c8.96-7.82,20.68-16.8,33.07-16.69Z" style="fill: #9ad5d3;"/>
  <path d="M91.94,306.94c.88-4.98-2.66-10.31-3.93-15.57-10.51-43.76,24.56-110.97,50.51-145.34,19.12-25.32,61.47-71.39,96.62-62.79,16.98,4.16,23.87,21.15,24.84,37.16,2.77,45.78-27.31,99.65-53.55,135.54-1.27,1.74,2.04.73,2.51,2-1.71.31-3.34.69-5,1l-4.39,2.9c-30.91,6.28-61.62,18.8-84.28,40.25-4.59,3.67-14.47,7.91-19.34,4.85-1.09.28-2.91-.28-4,0Z" style="fill: #f3cdd4;"/>
  <path d="M74.94,404.94c2.65-1.65,7.13,3.4,6,6,5.69,6.33,14,9.38,22.07,11.4l1.93,1.6c1.32,4.06,1.69,8.88,3.24,13.26,7.68,21.64,21.25,44.76,41.51,56.52,8.25-.63,16.49-1.06,24.79-.78,1.92.06,4.01-1.02,3.45,2l-1.29,2.12c-4.54-.1-8.81.65-12.81,2.25-.2,2.69-2.95,5.17-4.9,6.62-7.91-1.88-18.17-1.06-26.25.25-3.54.58-10.36,3.78-13.13,3.48-1.44-.16-8.07-5.8-9.64-7.22-16.16-14.59-26.93-36.01-29.98-57.51l7.49,6.99.49-1.48c-4.65-5.33-8.78-11.55-12.41-17.6-12.79-21.35-25.19-43.75-31.59-67.91,5.72,6.98,9.62,16.34,15,23.5,4.5,5.99,10.43,11.5,16,16.5Z" style="fill: #5da1a8;"/>
  <path d="M183.94,494.94c.19.28-.57,1.75.63,2.04,2.5.62,6.76-.5,9.81.02,2.01.34,11.15,4.77,11.52,6.66.55,2.78-.28,6.36.04,9.28,1.95,5.62-5.72,6.45-10,6-.13,1.52-1.13,1.52-3,0-.31-.08-.69.08-1,0l-2.55,1.35c-9.02-3.97-18.24-7.33-27.64-10.08l-1.81-2.27c-.01-.98-1-1.87-1-2-.01-4.21,1.16-3.41,2.64-5.4.52-.7.13-2.03.98-2.67,3.63-2.72,11.22-2.45,15.38-2.93,2.17-.25,1.93-.04,4-1,1.88-.49,2.55-.16,2,1Z" style="fill: #c4b0d5;"/>
  <path d="M203.94,258.94l-4,6c-2.66.36-6.17-.86-8,2l-3.27,2.69c-13.59,2.98-26.27,8.86-38.51,15.34l-4.21-.03c-7.34,5.14-14.47,10.54-21.38,16.19,3.54-.24,5.67.69,6.38,2.81,4.15-1.07,2.91,4.27-.7,4.9-8.07.29-16.09,1.44-24.07,3.44l-3.23-1.34c-2.11,2.54-3.45,2.87-4,1l-3-5c3.9-1.02,10.17-1.93,13.25-3.25,4.67-1.99,16.26-13.39,21.97-17.08,21.95-14.21,47.2-22.89,72.77-27.67Z" style="fill: #5ac2c1;"/>
  <path d="M102.94,310.94c2.06,1.61,3.39,3.27,4,5-19.51,1.41-37.54,9.69-54.32,19.18-1.5.85-2.39,2.46-3.77,3.23-1.84,1.04-10.39,5.51-8.91-.41,3.04-5.98,32.53-17.88,40.04-20.46,5.74-1.97,13.07-4.08,18.96-5.54,1.35-.33,2.61-.69,4-1Z" style="fill: #b4e8e7;"/>
  <path d="M77.94,460.94c3.4-.81,1.63,3.24,2,6-.13-.15-1.74.56-2.05-.64-.35-1.37.19-3.69.05-5.36Z" style="fill: #865f69;"/>
  <path d="M309.94,258.94c1.09-.35,3.25,1.69,3.66,2.33.73,1.12,1.96,6.2,2.63,7.38.34.6,3.34,1.57,2.72,4.29,1.85-.49.74-4.07,1.43-6.09.33-.97,1.45-1.59,1.56-1.9-.67,5.26-1.54,10.66-1,16-4.6-6.8-7.1-14.79-11-22Z" style="fill: #afaea2;"/>
  <path d="M372.94,440.94c-7.86,22.47-21.3,41-36,59.5l4.99.48c-1.78.28-3.45,1.14-4.99,2.01-.55-1.95-3.07-.06-4.03.47-16.67,9.25-33.69,28.25-37.01,47.49-7.07-.14-14.31,1.68-20.48,5.01-1.95,1.05-5.79,4.92-6.18,5-4.71.97-10.02-1.45-14.32,3.5-5.04,5.78.4,10.28-.14,13.77-.15.94-2.76,7.7-3.32,7.73-2.94-1.78-8.62-3.09-8.57-7.43,0-.33,3.2-.74,3.1-5.05-.22-9.36-9.11-9.92-13.57-13.46-1.62-1.28-8.5-9.28-9.47-11.03-4.51.32-7.21-11.19-.97-11.14,62.75-5.33,119.89-42.08,148.5-96.67l2.47-.19Z" style="fill: #5da1a8;"/>
  <path d="M390.94,485.94c3.32,13.62,15.21,33.83,27.07,41.57-2.48,5.76-7.39,12.11-8.63,18.37-.61,3.09-.1,12.79-1.04,14.07-1.46,2-6.26,3.39-8.41,6.48-2.75,3.95-4.77,10.47-7.99,14.51-16.78,21.03-57.81,29.72-83.34,25.84-5.73-.87-22.74-5.14-26.41-9.09-.89-.96-1.62-5.9-3.25-8.76,6.82.23,12.52,3.48,19.46,4.04,8.06.64,17.02-.03,24.54-3.04,1.42-1.4,2.27-.98,2,1l4.45-.25c20.73,8.32,34.62,1.33,38.41-20.87l2.14-2.88c-.91-.1-.86-.45,0-1,9.75-8.25,18.43-17.84,24.14-29.36,2.41-4.85,7.73-16.81,6.69-21.91-.46-2.26-5.48-10.23-6.85-14.22-1.63-4.73-3.63-9.38-2.98-14.52Z" style="fill: #5da1a8;"/>
  <path d="M369.94,565.94c.04.32-.01.67,0,1-3.76,6.05-12.61,11.7-19.17,15.16-7.53,3.96-17.53,8.38-25.83,8.84-.65-.33-1.39-.61-2-1-13.24-8.46-7.1-20.73.57-30.93,10.81-14.38,21.31-11.1,36.42-4.55,5.94,2.57,9.15,4.42,10.02,11.48Z" style="fill: #22928b;"/>
  <path d="M378.94,420.94c-1.54,6.78-3.71,13.46-6,20l-16.69,26.75c-32.44,41.8-83.34,68.34-136.31,72.25.05,3.15,1.5,6.3,3,9l-3,4c-7.94-4.87-17.57-7.63-26.99-7.01-.25-1.81,1.91-.75,2.99-.99,6.45-.52,12.63-.93,18.56-1.24-4.29-8.59-11.14-15.75-18.56-21.76-.95-1.03-2.35-1.66-3-3,.83.21,2.09-.17,3,0,4.98-1.37,7.62.35,11.21,3.66,3.75,5.28,8.13,8.72,13.15,10.34,27.76-1.58,53.36-12,78.65-23,32.06-18.14,50.85-38.12,67.85-70.64,1.1-2.1,1.33-4.8,2.15-6.36-2.72-1.63.15-5.84,3-5l4.05-7.6c1.7-2.03,2.86-2.01,2.95.6Z" style="fill: #158079;"/>
  <path d="M445.94,491.94c1.8,2.42-.49,4.45-3,3-1.57-.63-10.57,5.15-14.86,8.11-2.32,2.71-5.04,4.67-8.14,5.89-.84,2.35-2.63,2.27-1.95-.29l-2.05-.71c-6.62-6.3-5.59-8.25-6-17,2.79-8.17,4.79-16.5,6-25-.89-.19-.85-.52,0-1,7.63-4.48,12.7-3.25,20.36.14,12.4,5.49,18.76,14.35,9.64,26.86Z" style="fill: #22928a;"/>
  <path d="M456.24,548.65c-5.32-6.51,2.24-35.58,14.94-33.54,5.38.86,19.15,9.48,18.58,16.07-1.08,12.37-25.19,27.66-33.52,17.47Z" style="fill: #22928a;"/>
  <path d="M415.94,464.94c0,.33,0,.67,0,1-1.34,3.91-2.63,7.9-3.87,11.97l-2.13,1.03-1.01,13c-8.62-.48-12.32-14.39-12.99-21.5-.62-6.61-1.02-33.14,7.55-34.5,11.84-1.89,13.15,16.24,13.53,24.54.09,1.99-1.08,3.72-1.08,4.47Z" style="fill: #bce4e5;"/>
  <path d="M445.94,491.94c3.45,1.08,7.56-.13,11.49.02,2.6.1,6.03.76,9.01,1,.93.07,3.53-.46,2.49,1.47-.7,1.3-10.53,4.65-13.01,6-8.28,4.48-12.56,8.59-18.98,14.52l-7.92,2.58c-8.09,5.66-5.91,12.22-16.08,1.42,1.14-1.59,5.35-8.83,4.91-9.89-.04-.1-1.34-.57-1.91-1.11,1.4-.41,3.12.93,4,1,8.23-3.42,14.96-8.69,21.8-14.23l1.2.23c.86-.95,2.47-2.27,3-3Z" style="fill: #5da1a9;"/>
  <path d="M417.94,561.94c-.98-.32-.65-.54-1-1-.13-.17.15-1.04-.31-1.68-.33-.46-1.58-.48-2.01-1.53-1.82-4.45,1.31-13.81,3.47-18.14,2.52-5.05,16.8-23.63,22.96-16.23,3.02,3.63-7.31,16.52-9.48,20.7-2.36,4.53-4.22,14.11-8.27,16.79-.65.43-5.03,1.18-5.36,1.08Z" style="fill: #bde3e6;"/>
  <path d="M385.66,527.64c-7.09,5.7-28.1,1.16-22.96-11.45.56-1.39,6.69-8.51,7.96-9.24,15.09-8.61,21.78,15.24,14.99,20.69Z" style="fill: #22938a;"/>
  <path d="M303.58,568.58c-10.22,11.62-32.67-.86-16.91-9.41,9.79-5.31,24.72.52,16.91,9.41Z" style="fill: #bae4e5;"/>
  <path d="M319.59,522.59c2.82-3.29,5.46-6.89,8.82-9.68,2.17-1.8,6.81-6.51,9.58-4.53,4.9,3.49-5.73,8.13-7.95,10.17-3.29,3.02-10.54,11.34-12.95,15.05-2.54,3.92-4.37,11.06-6.27,13.73-3.29,4.62-5.77.17-4.11-5.12,2.26-7.19,8.21-14.18,12.87-19.62Z" style="fill: #b8e5e6;"/>
  <path d="M376.94,394.94c2.72,1.23,4.5,3.62,6,0-.06,7.18-2.41,19.02-4,26l-.99-1c.28,4.12-4.54,5.94-6.01,8l-1.75-1.3c2.59-8.86,4.14-17.93,4.67-27.19l2.08-2.51c-1.9-.56-1.91-1.44,0-2Z" style="fill: #a6a9c3;"/>
  <path d="M409.94,490.94c-.17-3.63-.33-8.46,0-12,.45-4.77,2.12-9.95,6-13,0,.4,1.04,1.67.91,3.34-.5,6.5-1.44,17.74-6.91,21.66Z" style="fill: #61b8b5;"/>
  <path d="M412.94,333.94c-14.18,4.27-26.4,11.51-38.99,19-2.1-4.87-5.38-10.55-8.6-14.91-5.9-7.99-12.39-12.56-17.76-20.86-1.58-2.44-3.81-1.02-3.66-7.23.33-13.7,7.43-31.13,15.03-42.47,1.8-2.69,3.87-6.64,6.97-7.53-14.23,34.04,8.69,75.09,47,74Z" style="fill: #5da387;"/>
  <path d="M481.65,209.22c2.61,3.21,1.32,9.04-.5,12.42-5.13,9.48-39.58,26.23-46.65,14.25-5.65-9.57,6.93-21.14,14.76-25.14,7.26-3.7,26.66-8.57,32.39-1.53Z" style="fill: #c7efdd;"/>
  <path d="M399.3,261.29c9.82-10.93,23.49.8,12.08,13.58s-20.82-3.85-12.08-13.58Z" style="fill: #c8efdc;"/>
  <path d="M514.94,174.94c-1.1,2.31-2.81.75-3.88-.63-2.34-3.03-5.17-10.44-7.54-14.5-.59-1.01-.29-2.64-.9-3.57-.26-.4-6.27-6.64-6.71-6.83-3.25-1.45-5.56,3.35-8.98,3.53,1.1-5.64,3.38-11.18,10.55-7.05,5.39,3.1,14.87,22.61,17.45,29.05Z" style="fill: #c0f2d4;"/>
  <path d="M456.94,151.94c13.35,14.5,5.1,39.19-11,48-26.08,13.35-54.64,24.04-76,45-14.07,9.34-29.22-3.34-18-18,24.39-22.26,65.46-28.03,86.02-53.48,3.16-3.9,7.64-15.27,6.77-19.93-.11-.6-1.34-1.92-1.78-1.59l-3,5c-.25-5.52-4.9-9.22-7.01-13.99,10.63,0,16.38,2.12,24,8.99Z" style="fill: #a5e0bb;"/>
  <path d="M369.94,244.94c-16.77,16.46-28.15,36.62-31,60-2.26.09-2.67-1.39-3.82-2.68-3.28-3.7-4.52-4.77-6.18-9.32-8.47-23.21,6.13-50.61,23-66-1.7,4.15-2.97,13.65.47,17.03,2.33,2.29,14.16,2.52,17.53.97Z" style="fill: #5da287;"/>
  <path d="M445.94,199.94c14.02-12.9,20.83-30.27,11-48,7,6.31,10.05,10.05,12.71,19.79,2.57,9.41,3.78,10.18-3.7,16.73-6.22,5.44-12.93,7.86-20.01,11.49Z" style="fill: #5ca384;"/>
  <path d="M535.94,136.94c2.16.52,2.8,3.55,3.02,5.48,1.53,13.52-6.02,10.56-14.91,15.13-2.64,1.36-7.18,5.79-8.63,6.38-1.69.69-2.21-2.88-2.49-3.99,2.34-10.82,11.81-20.78,23-23Z" style="fill: #5ca386;"/>
  <path d="M472.94,141.94c2.76,3.53,8.23,13.57,8.79,17.72.19,1.42-3.27,14.7-3.8,15.28-2.2,2.4-2.15-4.1-2.48-5.01-2.69-7.66-6.25-12.41-10.51-18.99-2.66-4.25,4.22-11.96,8-9Z" style="fill: #5ca387;"/>
  <path d="M535.94,136.94l-12.04,7.46-10.96,15.54c-.48-1.9-1.09-2.85-.58-4.99,1.85-7.81,15.19-20.03,23.58-18.01Z" style="fill: #b1eacc;"/>
  <path d="M472.94,141.94c-4.45,2.11-6.43,4.35-8,9-2.37-3.65-6.15-7.43-3.06-12.56,3.68-6.1,8.36.12,11.06,3.56Z" style="fill: #aee8c6;"/>
  <path d="M191.94,518.94c-5.85,3.12,4.13,7.44,6.45,11.05,2.53,3.92,4.1,8.53-1.22,10.69-11.89,4.81-12.53-4.25-19.71-10.76-4.1-3.71-13.89-9.28-19.25-9.77-2.73-.25-8.35,1.73-10.82-2.17-3.97-6.28,12.64-3.72,12.54-10.04,11.11,1.14,21.93,8.38,32,11Z" style="fill: #bde3e5;"/>
  <path d="M163.94,560.94l-38-29c.03-.28.06-.74,0-1,6.83-4.06,11.29-8.63,20.07-6.56,10.12,2.38,20.37,21.63,20.61,31.23.09,3.5-2.6,5.03-2.68,5.34Z" style="fill: #22928a;"/>
  <path d="M195.94,521.94c10.06,5.16,18.39,14.24,22,24.99-7.27-2.52-14.41-2.07-22-1.99,5.2-1.17,8.96-.8,14.01-1.51-2.99-8.16-8.16-15.18-14.01-21.49Z" style="fill: #56a3a5;"/>
  <path d="M545.68,464.09c9.05-1.77,5.74,16.22-3.3,10.9-4.37-2.57-1.29-10.01,3.3-10.9Z" style="fill: #165966;"/>
  <path d="M376.94,394.94c0,.67.02,1.33,0,2-.56,3.17-5.57,2.65-7,0-2.12-16.99-10.93-40.81-24.5-52-6.54-5.39-9.13-3.93-15.53-6.47-5.97-2.37-6.46-16.12-8.26-21.74-5.98-18.65-16.49-31.21-33.22-40.78-.31-.18-3.51-2.65-1.49-3.01,15.42,8.04,30.24,16.42,41.97,29.53,7.41,8.28,13.11,18.16,20.5,26.5,2.61,2.95,6.07,4.65,8.94,8.06,12.76,15.17,18.57,38.44,18.59,57.91Z" style="fill: #bce4e5;"/>
  <path d="M291.94,241.94c-10.22,2.77-19.36,8.59-27.94,14.56-1.84,1.28-2.98,3.41-5.06,4.44-.8-1.51-.27-2.82-2.47-3.07-4.38-.48-9.62-.36-13.94-1.02-1.03-.16-3.74-.4-3.58-1.9,11.92-2.92,22.81-8.88,34.78-11.72,5.56-1.32,13.12-3.75,18.21-1.29Z" style="fill: #5da2a7;"/>
  <path d="M295.94,246.94c6.36,8.33,16.47,24.54,18.98,34.52.14.55.29,1.63-.47,1.47-1.96-.87-3.9-3.1-5.51-3.99l-.96-5.53-12.04-26.47Z" style="fill: #aceaea;"/>
  <path d="M264.73,577.15c5.35-.44,10.63,1.78,8.79,7.85-2.28.17-14.85,2.83-15.56,2.49-5.57-2.74,1.19-9.88,6.77-10.34Z" style="fill: #d4e8ee;"/>
  <path d="M241.94,571.94c-.69,6.6-12.71.59-16-2-3.24-9.74,13.07-6.53,16,2Z" style="fill: #dff6f8;"/>
  <path d="M274.94,590.94c2.84,7.95-15.08,11.28-16,3,3.01-5.57,11.15-5.7,16-3Z" style="fill: #e4f4f8;"/>
  <path d="M240.94,583.94c-.25,4.91-17.47.05-18.74-1.55-.27-.34-.3-.87-.26-1.45.36-1.57-.43-1.88,1.91-2.55,5.74-1.64,14.66-.51,17.09,5.55Z" style="fill: #dff6f5;"/>
  <path d="M274.94,590.94c.33.18,1.24-.43,2.05.65,2.08,2.74-1.34,5.92-3.69,7.22-5.24,2.9-18.11,2.07-14.37-4.87,4.27,5.42,13.8,3.11,16-3Z" style="fill: #bad1df;"/>
  <path d="M271.94,568.94c-.67,3.88-11.8,4.07-15,3-3.01-7.99,11.52-10.14,15-3Z" style="fill: #dff7f8;"/>
  <path d="M240.94,583.94c3.29,8.19-7.35,3.02-10.75,2.26-3.89-.86-9.76,1.36-8.25-5.26,5.77,2.15,12.93,4.47,19,3Z" style="fill: #b5d5e0;"/>
  <path d="M271.94,568.94c3.81,7.82-2.18,4.76-6.52,4.91-4.96.17-6.59,3.12-8.48-1.91,4.77-2.68,10.05-1.29,15-3Z" style="fill: #bbd4de;"/>
  <path d="M391.94,582.94c2.01.69,1.83-1.77,2.69-1.97,5.37-1.27,5.35,1.8,6,1.95,2.11.5,10.8-.49,11.32.02.17.17-.05,3.06,0,4-1.72-.88-2.48-2.01-2.66-2.04-2.37-.39-7.05,1.11-10.66.03-.85-.26-.56-3.28-2.66-1.96-.25.16-.89,2.34-4.02,3.98.19-1.12,0-2.75,0-4Z" style="fill: #806268;"/>
  <path d="M241.94,571.94c.78,2.28.29,4.97-2.46,5.01-.6,0-10.99-3.25-11.51-3.55-1.76-1.01-1.53-1.93-2.03-3.46,4.84-.59,12.69,6.62,16,2Z" style="fill: #b4d5dd;"/>
  <path d="M377.94,596.94c-2.38,3.56-1.7,4.84-8,4,.09-.05-.34-1.46.17-1.81.8-.56,6.46-1.95,7.83-2.19Z" style="fill: #945e65;"/>
  <path d="M383.94,592.94c-.24.29-1.15,3.26-2.3,3.68-1.58.58-2.54.12-3.7.32,1.61-2.4,1.6-4.99,6-4Z" style="fill: #7a6169;"/>
  <path d="M391.94,586.94c-.48,2.81-3.21,4.83-6,4,2.73-3.18,2.17-2,6-4Z" style="fill: #8c5e61;"/>
  <path d="M429.94,568.94c.49.83.47,1.52-.05,2.2-4.12,5.38-7.39,9.97-10.41,16.08l-2.54-.28c-6.48-4.07,3.2-24.53,13-18Z" style="fill: #e2f4f8;"/>
  <path d="M415.94,566.94c-6.32,13.03-11.32,15.7-15,8,1.14-8.47,11.8-16.89,15-8Z" style="fill: #e8f7f7;"/>
  <path d="M415.94,566.94c1.59,4.41-6.07,8.51-3.99,13.99-6.09.08-12.17,2.6-11.01-5.99,7.05,8.36,8.69-5.42,15-8Z" style="fill: #b5d6e0;"/>
  <path d="M429.94,568.94c4.25,2.83-2.06,5.81-4.19,9.31-.94,1.54-2.02,3.74-2.58,5.45-.97,2.95.43,7.43-6.23,3.25,5.43-4.99,7.04-12.93,13-18Z" style="fill: #b3d7dc;"/>
  <path d="M411.94,586.94c1.68.85,4.23,1.54,4,4-2.2-1.59-3.64,3.49-4-4Z" style="fill: #816061;"/>
  <path d="M513.7,299.19c59.09-8.05,72.87,83.38,19.02,98.02-63.53,17.28-79.75-89.75-19.02-98.02Z" style="fill: #f1fefd;"/>
  <path d="M175.3,372.58c-22.59-25.25-.15-54.18,23.34-67.45,42.37-23.95,58.66,28.55,60.35,61.26.64,12.48-.29,22.17-13.82,26.26-18.05,5.45-57-5.69-69.87-20.07Z" style="fill: #22928a;"/>
  <path d="M104.94,423.94l-2.49-1.68c-7.8-2.17-16.04-5.03-21.51-11.32-2.41-1.72-3.65-3.89-6-6-15.53-33.01,19.98-67.81,52.32-48.82,33.82,19.86,18.25,70.37-22.32,67.82Z" style="fill: #c8eded;"/>
  <path d="M278.76,298.2c6.83-.39,20.33.99,26.44,3.98,24.91,12.2-4.41,47.3-28.31,42.31-19.63-4.1-29.76-44.48,1.88-46.29Z" style="fill: #22928a;"/>
  <path d="M191.94,266.94c1.75-.32,4.52-1.36,5.99-.51-4.24,4.96-8.98,10.9-13.48,15.52-18.1,18.6-50.19,44.57-77.51,33.99-2.79-1.08-8.57-3.07-4-5,6.42-1.44,14.09-2.84,20.62-3.88,2.2-.35,4.75.28,6.74-.27,2.54-.7.58-2.68.65-2.85l-1.35-1.88c4.28-6.54,9.79-12.79,16.35-17.12,14.8-7.89,29.16-14.96,46-18Z" style="fill: #c9eded;"/>
  <path d="M282.67,353.17c11.02-2.27,24.91,11.18,18.28,21.27-4.57,6.95-20.63,13.28-27.93,8.91-9.91-5.93-.18-28.16,9.65-30.19Z" style="fill: #22928b;"/>
  <path d="M205.94,512.94c1.16-1.67,2.03-5.58,3.49-4.99,4.13,1.67,12.53,14.69,16.22,15.79,2.9.86,17,.52,20.83.24,17.83-1.3,35.75-8.3,52.46-14.04-21.84,12.36-52.13,24.03-77.52,25-8.37.32-10.54-7.22-17-11.98-3.97-2.92-3.64-3.1-8.47-4.03,4.74-2.19,6.76-1.36,10-6Z" style="fill: #5da1a9;"/>
  <path d="M376.94,396.94c-.13,5.24-.38,10.03-1.29,15.21l-3.71,15.79c-.74,1.03-2.39,3.83-3,5-4.13.9-8.63,3.63-13,1.5-2.89-1.4-1.5-4.63-2.03-6.8-.2-.8-2.84-.24-2.05-5.25.3-1.91,1.89-1.35,2.06-2.13.49-2.26-.66-4.99.5-7.35.6-1.22,2.62-1.45,3.19-2.29,3.14-4.65,5.74-12.3,12.33-13.67,1.97-.41,4.86.28,7,0Z" style="fill: #cfc7e0;"/>
  <path d="M181.94,493.94c10.51-4.89,16.96-8.44,28.98-10.51,5.57-.96,33.45-3.26,35.93.61,2.94,4.58-4.14,1.93-6.36,1.86-6.35-.21-14.75-.46-20.94.15-11.66,1.16-23.96,7.17-35.61,8.89-.23-.34-1.51-.63-2-1Z" style="fill: #177e72;"/>
  <path d="M361.94,395.95c-16.33,12.46-28.93,28.29-37.5,46.97-3.17-2.33-.4-6.46.79-9.19,3.56-8.12,23.52-35.56,31.42-37.58,1.7-.44,3.56-.19,5.29-.2Z" style="fill: #1a7d72;"/>
  <path d="M319.93,435.93c-5.52,4.11-.46-18.76,3.5-17.99,2.2,1.57,1.29,1.83.72,3.69-.72,2.36-3.62,13.86-4.22,14.3Z" style="fill: #247f76;"/>
  <path d="M290.6,489.09c2.99-.96,7.89-.11,5.86,3.86-2.99,5.85-11.28-2.12-5.86-3.86Z" style="fill: #1d8074;"/>
  <path d="M313.84,485.83c-2.57,1.64-6.61-1.41-4.42-4.91,3.24-5.2,7.64,2.86,4.42,4.91Z" style="fill: #208176;"/>
  <path d="M234.94,477.93h-3.99c.02-3.98,3.99-3.93,3.99,0Z" style="fill: #34766f;"/>
  <path d="M80.94,410.94c5.52,3.95,15.76,7.69,22.25,10,1,.55,1.4,1.95,1.75,3-8.44-.53-20.28-4.86-24-13Z" style="fill: #acd5db;"/>
  <path d="M145.94,284.94c-3.03,5.81-12.87,13.35-15,19l-11.99-1.49c7.5-5.81,15.79-12.36,24.08-16.96,1.07-.6,2.48-.32,2.91-.55Z" style="fill: #b0d5df;"/>
  <path d="M369.94,566.94c.34,8.55-6.48,23.15-14.3,27.2-7.59,3.92-23.22.61-30.7-3.2,8.03-4.09,16.9-6.38,24.89-10.61,7.08-3.75,13.22-9.37,20.11-13.39Z" style="fill: #165967;"/>
  <path d="M442.94,494.94c-5.54,6.14-14.35,14.67-23,14,5.59-7.66,11.85-11.86,20.71-14.79,1.66-.55,2.53-2.73,2.29.79Z" style="fill: #125b63;"/>
  <path d="M449.61,159.08c9.07-3.11,8.48,16.91-.17,16.96-7.7.05-3.62-15.66.17-16.96Z" style="fill: #c7f0db;"/>
</svg>