<svg id="Layer_1" data-name="Layer 1" xmlns="http://www.w3.org/2000/svg" viewBox="0 0 730.616 729.493"><defs><style>.cls-1{fill:#11161c;}.cls-2{fill:#7cbeb3;}.cls-3{fill:#67ae45;}.cls-4{fill:#69a198;}.cls-5{fill:#7dbeb4;}.cls-6{fill:#589441;}.cls-7{fill:#046459;}.cls-8{fill:#fcfcfc;}.cls-9{fill:#fff;}.cls-10{fill:#fefefe;}.cls-11{fill:#fffefe;}.cls-12{fill:#fffffe;}.cls-13{fill:#dbdcdc;}.cls-14{fill:#67ad45;}.cls-15{fill:#d61f43;}.cls-16{fill:#db4f57;}.cls-17{fill:#f4c0d0;}</style></defs><title>16</title><path class="cls-1" d="M1926.726,1220.09a33.119,33.119,0,0,1-15.638-8.656,13.965,13.965,0,0,1-3.207-4.256c-.691-1.5-1.588-1.832-3.242-1.889-2.278-.079-3.327.634-4.161,2.747a37.607,37.607,0,0,1-4.958,8.94c-2.485,3.277-4.57,3.881-7.8,1.439-6.064-4.591-11.47-9.86-14.625-17a3.05,3.05,0,0,0-1.916-2.039c-13.628-4.367-22.345-14.244-29.134-26.21-.782-1.377-1.047-1.511-2.5-.562-2.856,1.869-3.425,3.784-2.329,7.1a23.976,23.976,0,0,1,1.216,11.587,3.523,3.523,0,0,1-2.958,3.161,23.832,23.832,0,0,1-13.305-.251c-4.245-1.377-8.631-2.426-12.588-4.615-1.677-.927-3.131.439-4.721.507-1.97.084-2.773.955-2.706,3.171.17,5.53-2.216,7.383-7.592,6.353-5.67-1.086-10.765-3.615-15.794-6.3a5.542,5.542,0,0,0-2.813-.746c-3.5.046-7,.034-10.5-.09-1.023-.035-1.245.171-1.347,1.182-.327,3.239-1.1,3.965-4.333,3.985-6.3.041-12-2.071-17.424-5.076a44.748,44.748,0,0,1-9.152-6.273,6.964,6.964,0,0,0-2.846-1.4c-14.722-4.679-24.125-15.125-30.906-28.428-6.55-12.85-10.315-26.606-13.3-40.628-1.707-8.011-3.426-16.007-4.386-24.157a204.072,204.072,0,0,1-1.354-32.041,178.311,178.311,0,0,1,6.448-42.8c4.815-16.582,12.643-31.829,22.132-46.225a191.629,191.629,0,0,1,13.654-18.115c-4.233-.966-8.3-1.878-12.256-3.2-15.588-5.212-28.509-14.551-39.764-26.244-18.322-19.034-28.7-42.05-32.958-67.923-4.049-24.618-1.138-48.74,5.813-72.5,8.012-27.387,20.661-52.628,35.677-76.767a430.792,430.792,0,0,0,37.022-75.1,100.857,100.857,0,0,0,6.1-22.15,82.3,82.3,0,0,0-1.611-30.353,47.8,47.8,0,0,1-.966-5.675c-.149-1.326.263-2.151,1.981-2.2,4.129-.109,8.11.3,12.094,2.472a50.1,50.1,0,0,0-3.313-11.254,55.609,55.609,0,0,0-8.3-13.4,26.819,26.819,0,0,1-3.711-5.729c-1.39-3.123-.453-5.14,2.839-5.989a53.44,53.44,0,0,1,10.371-1.35,88.527,88.527,0,0,1,36.672,5.733,130.09,130.09,0,0,1,15.891,6.926,7.7,7.7,0,0,0-.505-3.5,20.309,20.309,0,0,1,.682-11.148c.935-3.021,2.384-3.668,5.394-2.67a26.01,26.01,0,0,1,4.094,1.8c1.325.712,1.918.409,2.163-1.051a74.83,74.83,0,0,1,2.854-12.451,55.077,55.077,0,0,1,15.7-23.567,19.129,19.129,0,0,1,7.331-4.274c2.73-.785,4-.33,5.188,2.255,1.007,2.191,1.786,4.49,2.609,6.762a56.968,56.968,0,0,0,25.325,30.445c4.916,2.906,10.56,3.764,15.98,5.13a271.937,271.937,0,0,0,70.777,7.892,179.071,179.071,0,0,1,66.315,11.771,8.47,8.47,0,0,0,2.9.575c33.2.616,63.076,10.989,89.392,31.153,12.686,9.721,22.257,21.916,26.332,37.812A70.925,70.925,0,0,1,2129,642.286c0,1.517.346,1.806,1.882,1.75a317.67,317.67,0,0,1,52.961,2.591c2.191.288,4.381.582,6.567.9a4.656,4.656,0,0,0,3.406-.8,168.306,168.306,0,0,1,40.252-18.935c5-1.61,9.731-3.956,14.873-5.226a74.44,74.44,0,0,1,32.873-.662c2.674.536,4.714,2.322,6.627,4.16,6.207,5.966,10.014,13.454,13.144,21.3a242.856,242.856,0,0,1,15.808,71.659,4.655,4.655,0,0,0,.807,2.156,344.638,344.638,0,0,1,39.665,98.313c2.335,9.907,5,19.721,6.463,29.815a212.317,212.317,0,0,1,2.056,35,205.532,205.532,0,0,1-1.554,21.12c-.884,7.078-3.965,13.323-7.8,19.213-6.624,10.178-15.334,18.386-24.772,25.877a270.428,270.428,0,0,1-38.529,24.981c-1.41.773-1.741,1.259-.85,2.8a301.921,301.921,0,0,1,34.247,89.923,294.191,294.191,0,0,1,5.866,45.56,281.892,281.892,0,0,1-.1,33.168,5.526,5.526,0,0,0,1.183,3.911,54.988,54.988,0,0,1,9.238,19.777,8.862,8.862,0,0,1,.235,1.691c.071,1.787-.323,2.819-2.605,2.756-7.475-.2-15.007.469-22.313-1.78-1.363-.42-2.229.469-2.985,1.215-.665.656.238,1.4.529,2.043a40.665,40.665,0,0,1,3.451,9.378c.726,3.985-.306,5.481-4.348,5.766a152.474,152.474,0,0,1-15.418.121,22.768,22.768,0,0,1-11.824-3.17,2.28,2.28,0,0,0-2.581.289c-.725.417.064,1.139.268,1.669,2.6,6.734,1.034,9.2-6.181,9.268-9.291.089-18.533-.371-27.469-3.334a6.639,6.639,0,0,0-2.328-.127c-10.51.49-20.789-.366-30.545-4.788-6.744-3.058-11.777-8.216-16.775-13.4a130.538,130.538,0,0,1-22.522-32.6c-2.986-5.967-6.694-11.573-9.294-17.764a109.778,109.778,0,0,1-7.128-23.639c-.247-1.414-.49-1.943-2.059-1.03a237.159,237.159,0,0,1-39.27,18.135,4.675,4.675,0,0,0-2.488,1.843,148.311,148.311,0,0,1-29.671,32.153c-1.581,1.277-2.09,2.272-1.243,4.359a48.3,48.3,0,0,1,3.281,13.43c.412,4.162-.723,5.717-4.872,5.452a65.488,65.488,0,0,1-24.468-6.126,2.751,2.751,0,0,0-2.2-.414c-1.045.332-1.546.652-1.382,2.008a25.286,25.286,0,0,1-.836,10.17A2.968,2.968,0,0,1,2055,1186.6a22.062,22.062,0,0,1-5.266-.839,65.681,65.681,0,0,1-15.716-5.92,15.5,15.5,0,0,1-4.961-4,1.911,1.911,0,0,0-1.59-.807c-1.475-.112-2.107.094-1.914,1.935a22.647,22.647,0,0,1-.8,8.89c-.972,3.234-2.377,3.988-5.631,3.064-5.678-1.612-10.694-4.626-15.681-7.661a25.468,25.468,0,0,1-7.5-6.291,3.663,3.663,0,0,0-2.211-1.151c-5.836-1.752-11.4-4.013-16.076-8.406-2.859,5.195-5.642,10.287-8.86,15.118-1.3,1.947-3.371,3.772-3.685,5.864s1.216,4.429,1.777,6.7c.989,4.009,2.075,8.009,1.875,12.212-.138,2.888-.547,3.452-3.4,3.124-6.192-.712-12.582.046-18.535-2.5a27.569,27.569,0,0,1-7.272-3.977c-.8-.682-1.46-1.563-2.771-.925-1.229.6-.84,1.688-.912,2.575a37.372,37.372,0,0,1-2.867,11.769,7.938,7.938,0,0,1-4.568,4.72Z" transform="translate(-1635.821 -490.597)"/><path class="cls-2" d="M1986.735,1003.7c-1.833-.938-2.68-.513-2.96,1.594a30.8,30.8,0,0,0,.653,10.181c2.237,11.106,4.383,22.228,5.236,33.542a218.714,218.714,0,0,1,.214,31.006,246.56,246.56,0,0,1-5.689,39.306A177.509,177.509,0,0,1,1960.5,1175.3c-.3.464-.629.9-.978,1.4-.434-.394-.792-.739-1.171-1.06-4.406-3.729-9.313-3.737-13.432.295-4.588,4.491-7.783,9.8-8.337,16.392-.048.575-.04,1.2-.789,1.306-.841.112-.763-.617-.925-1.118a28.325,28.325,0,0,0-3.772-7.373c-6.192-9-16.113-5.9-20.685.655-.4.577-.791,1.166-1.185,1.749-1,.5-1.813-.084-2.605-.516a111.093,111.093,0,0,1-22.522-16.214c-10.328-9.58-17.531-21.343-24.256-33.5a218.886,218.886,0,0,1-15.486-35.245,212.512,212.512,0,0,1-9.324-39.32,11.168,11.168,0,0,1-.144-4.446,156.932,156.932,0,0,1,4.092-28.3c3.331-15.064,8.638-29.435,14.938-43.519,2.175-4.861,4.984-9.434,6.676-14.508a24.453,24.453,0,0,0,.909-3.276c.134-.727.361-1.611-.51-2.125a2.051,2.051,0,0,0-2.221.273,19.644,19.644,0,0,0-5.119,5.117c-7.644,10.1-12.689,21.566-17.406,33.2-.187.461-.376.922-.584,1.435-.886-.33-1.162-1.189-1.64-1.827a132.664,132.664,0,0,0-19.058-21.1,15.9,15.9,0,0,0-4.627-3.037c-1.569-.6-2.2.074-2.031,1.585.223,1.975,1.345,3.584,2.388,5.2,3.655,5.647,8.378,10.475,12.27,15.944,2.9,4.069,5.669,8.214,8.223,12.508a3.086,3.086,0,0,1,.388,2.767,199.994,199.994,0,0,0-8.771,53.821c-.219,9.514.491,18.947,1.2,28.409.617,8.187,1.8,16.291,2.865,24.417a3.91,3.91,0,0,1-2.39,1.3,103.015,103.015,0,0,1-24.078,4.945c-4.556.363-9.123.6-13.673.707-14.107.344-27.883-1.98-41.423-5.84a84.059,84.059,0,0,1-39.521-24.2,78.488,78.488,0,0,1-13.554-19.97c-.429-.917-.5-1.93-.957-2.821a153.882,153.882,0,0,1,.074-27.58,157.8,157.8,0,0,1,5.8-32.78c4.16-13.922,10.537-26.879,17.992-39.322,8.635-14.412,19.335-27.168,31-39.2a565.037,565.037,0,0,1,44.862-41.662,9.408,9.408,0,0,1,1.755-1.194,49.711,49.711,0,0,0-3.889,11.2,7.514,7.514,0,0,0,2.256,7.363,43.333,43.333,0,0,0,12.189,8.2c10.431,5.059,20.747,10.422,32.119,13.216,3.882.954,7.8,1.694,11.746,2.295,2.84.432,5.149-.873,7.287-2.489a49.564,49.564,0,0,0,10.612-11.694c11.452-16.562,21.549-33.9,29.27-52.538a42.983,42.983,0,0,0,3.7-14.625,7.058,7.058,0,0,0-4.009-7.159,47.934,47.934,0,0,0-19.42-5.292c-4.973-.351-9.955-.588-15.511-.909,18.753-15.376,37.814-29.756,52.144-49.3-.343,3.914-.769,7.823-1.012,11.743-.615,9.955-1.948,19.887-1.109,29.9a15.116,15.116,0,0,0,1.374,5.568c.591,1.183,1.444,1.985,2.894,1.168,1.474.9,1.678,2.59,2.412,3.935a11.308,11.308,0,0,0,16.825,4,42.892,42.892,0,0,0,15.905-19.975,105.735,105.735,0,0,0,6.64-28.055,121.116,121.116,0,0,0-.515-22.414c-.721-7.742-1.268-15.5-1.983-23.24-.67-7.243-1.107-14.5-1.576-21.762-.253-3.909-.538-7.831-.555-11.752-.051-11.64.053-23.281-.043-34.92-.067-8.072.74-16.1.941-24.158a22.49,22.49,0,0,1,.943-4.816,58.524,58.524,0,0,1,6.818-12.043c3.409-4.908,8.2-4.795,13.374-4.447,10.03.675,18.73,5.232,27.656,9.1,12.5,5.414,23.876,12.743,34.671,21.016a26.119,26.119,0,0,0,8.167,4.581c.912.278,1.925.632,2.616-.16.783-.9.193-1.927-.319-2.77a27.1,27.1,0,0,0-4.053-4.966c-1.306-1.314-2.655-2.584-4.312-4.191,5.144-1.492,9.875-2.963,14.66-4.234a337.163,337.163,0,0,1,52.72-9.6,377.512,377.512,0,0,1,50.711-1.49,408.751,408.751,0,0,1,61.8,6.97c6.008,1.128,12.2,1.294,18.3,1.9,1.482.148,2.963.3,4.566.46-.147-1.452-1.2-1.83-2.116-2.273-6.274-3.018-13.015-4.594-19.713-6.267-4.345-1.086-8.756-1.908-13.229-2.868.235-.875,1.1-1.01,1.717-1.34a143.187,143.187,0,0,1,32.808-12.587c5.231-1.329,10.225-3.476,15.586-4.43a77.319,77.319,0,0,1,22.389-.677c1.746.2,2.984,1.312,4.19,2.413a34.922,34.922,0,0,1,6.464,8.484,124.876,124.876,0,0,1,9.907,21.95c1.148,6.164.6,12.328-.04,18.486a48.493,48.493,0,0,1-.693,5.075,3.691,3.691,0,0,1-1.09,2.472l-1.3-.725a1.681,1.681,0,0,0-2-.008,1.775,1.775,0,0,0-.429,1.793,22.754,22.754,0,0,0,2.143,5.792c4.245,8.588,9.838,16.369,14.731,24.568a330.007,330.007,0,0,1,36.57,87.566c2.913,11.364,6.179,22.655,7.992,34.285a225,225,0,0,1,2.55,26.6,189.124,189.124,0,0,1-1.954,34.135c-.987,6.764-4.27,12.654-8.151,18.18-6.847,9.749-15.483,17.77-25.013,24.76-35.792,26.254-74.865,45.6-118.365,55.4a286.856,286.856,0,0,1-41.173,6.234c-12.113.93-24.24,1.352-36.374,1.091a429.624,429.624,0,0,1-79.531-9.4c-11.376-2.4-22.72-4.688-33.592-8.9a152.631,152.631,0,0,1-46.853-28.56c-1.7-1.517-3.253-3.2-4.947-4.729a18.176,18.176,0,0,0-2.786-1.973c-.838-.506-1.781-1.154-2.768-.469-1.083.752-.779,1.942-.5,2.941,1.017,3.639,3.162,6.682,5.378,9.657a65.774,65.774,0,0,0,14.934,14.018c.81.577,1.594,1.189,2.39,1.785,4.287,5.449,6.827,11.866,9.947,17.961A1.514,1.514,0,0,1,1986.735,1003.7Z" transform="translate(-1635.821 -490.597)"/><path class="cls-3" d="M1703.252,855.124c-3.37-6.413-5.225-13.37-7.111-20.293a179.954,179.954,0,0,1-6.064-56.369,183.145,183.145,0,0,1,16.569-67.889,671.7,671.7,0,0,0,28.683-73.378c5.269-16.341,8.781-33.088,8.621-50.375-.13-13.956-3.086-27.173-11.373-38.782-.083-.116-.147-.245-.222-.367-2.352-3.8-1.632-5.36,2.8-5.54a84.284,84.284,0,0,1,30.742,4.386c12.342,4.19,23.932,9.93,33.522,18.85a139.882,139.882,0,0,1,23.451,29.081c7.537,12.17,11.537,25.661,15.463,39.225,5.211,18,9.063,36.326,13.411,54.536a222.409,222.409,0,0,0,19.576,52.1c5.131,9.743,12.515,17.859,20.361,25.521a122.149,122.149,0,0,0,17.11,13.884c1.236.833,1.181,1.294.323,2.4A317.677,317.677,0,0,1,1857.9,834.3q-28.122,22.794-56.19,45.654c-.438.356-.94.634-1.412.948a6.632,6.632,0,0,1-2.913.552,185.38,185.38,0,0,1-39.612-3.058,143.227,143.227,0,0,1-36.964-11.966,129.541,129.541,0,0,1-15.44-9.2A8.894,8.894,0,0,1,1703.252,855.124Z" transform="translate(-1635.821 -490.597)"/><path class="cls-3" d="M1914.252,771.365A112.528,112.528,0,0,1,1897.878,757c-9.77-10.033-16.211-22.143-21.937-34.732-8.142-17.9-13.887-36.554-18.336-55.693-4.92-21.166-11.009-42.015-20.023-61.864a137.813,137.813,0,0,0-25.635-37.728c-7.511-7.949-10.755-17.212-9.668-28.125,1.056-10.59,4.221-20.335,10.69-28.881a62.719,62.719,0,0,1,4.485-5.448c2.112-2.219,3.6-2.072,5.039.582,1.522,2.813,2.653,5.835,4.116,8.683,5.712,11.118,14.2,19.534,25.608,24.569,7.614,3.359,15.819,5.163,23.928,7.054a260.679,260.679,0,0,0,49.519,6.624c7.858.3,15.708-.076,23.556.252a171.624,171.624,0,0,1,66.983,16.5c12.493,5.92,24.309,12.985,34.751,22.1,15.016,13.106,24.365,29.589,28.437,49.076.465,2.228.678,4.509,1.137,6.739.239,1.159-.16,1.5-1.225,1.664a336,336,0,0,0-48.638,11.262,3.274,3.274,0,0,1-3.333-.519,140.659,140.659,0,0,0-31.177-17.659c-5.451-2.286-10.746-4.862-16.579-6.131-5.714-1.243-11.467-1.2-17.256-1.12-1.576.021-1.195,1.615-2.361,2.029-2.308.82-4.038,2.624-5.709,4.4-5.677,6.028-9.251,13.33-12.493,20.808-7.191,16.585-11.933,33.956-16.264,51.444-4.213,17.013-7.507,34.215-10.241,51.525C1914.9,766.651,1914.605,768.9,1914.252,771.365Z" transform="translate(-1635.821 -490.597)"/><path class="cls-4" d="M1986.735,1003.7a3.781,3.781,0,0,0-.651-2.42c-2.778-5.438-5.232-11.049-8.679-16.129a5.841,5.841,0,0,1-.494-1.386,166.894,166.894,0,0,0,27.183,13.363,303.95,303.95,0,0,0,51.623,14.14q18.805,3.589,37.85,5.41c7.663.735,15.352,1.208,23.052,1.5,8.279.318,16.554.365,24.833.212a310.451,310.451,0,0,0,76.774-11.149c6.861-1.884,13.645-4.021,20.366-6.355.53-.184,1.093-.274,1.64-.408.16,1.569-1.163,2.214-2.033,3.048a73.4,73.4,0,0,0-17.824,27.191c-2.743,7.167-4.3,14.65-5.668,22.175a145.333,145.333,0,0,0-2.127,33.909,151.766,151.766,0,0,0,12.054,52.33,112.672,112.672,0,0,0,9.806,17.784,53.263,53.263,0,0,0,19.136,17.1,4.667,4.667,0,0,1,2.065,1.464c-2.6,3.9-5.524,7.639-6.393,12.436-.209,1.154-1.193.842-1.9.853-12.975.2-24.274-3.566-33.693-13a138.942,138.942,0,0,1-25.839-35.47c-3.81-7.5-8.055-14.746-10.757-22.762a117.6,117.6,0,0,1-4.7-19.053c-.245-1.529.308-2.123,1.4-2.851,6.869-4.593,13.676-9.279,20.122-14.459a32.912,32.912,0,0,0,5.9-5.885c.557-.748,1.44-1.64.61-2.67-.746-.926-1.877-.624-2.792-.319a39.239,39.239,0,0,0-8.718,4.5c-10.559,6.79-20.979,13.8-32.119,19.646a275.257,275.257,0,0,1-73.506,25.893,222.811,222.811,0,0,1-54.012,4.6,219.078,219.078,0,0,1-33.489-4.221c-1.855-.368-2.094-1.044-1.72-2.787,3.923-18.266,6.148-36.722,5.445-55.431-.7-18.671-3.558-36.994-9.684-54.722A23.12,23.12,0,0,0,1986.735,1003.7Z" transform="translate(-1635.821 -490.597)"/><path class="cls-5" d="M2255.641,1175.476c-4.506-1.607-8.26-4.454-11.878-7.444-6.468-5.344-10.907-12.195-14.987-19.493-7.721-13.808-11.951-28.654-14.776-44.06a144.123,144.123,0,0,1-1.988-32.969,141.1,141.1,0,0,1,6.98-38.656,71.8,71.8,0,0,1,17.579-28.49,24.485,24.485,0,0,0,3.661-3.884c6.875-2.909,13.931-5.366,20.75-8.42s13.61-6.191,20.176-9.766c1.475-.8,1.984-.455,2.74.826a294.852,294.852,0,0,1,33.11,81.6,291.341,291.341,0,0,1,7.4,48.314c.653,9.624.86,19.247.682,28.885-.021,1.148-.135,2.091-1.512,2.438a3.339,3.339,0,0,0-1.569,1.074c-5.13,6.011-9.994,12.158-9.61,20.727.026.584.1,1.293-.56,1.458-.714.179-.834-.643-1.12-1.08a53.066,53.066,0,0,0-4.432-6.028c-3.251-3.725-6.078-3.473-10.235-.6-2.881,1.994-4.555,5.084-6.025,8.195a54.241,54.241,0,0,0-4.1,10.979c-.565,2.478-2.63,2.048-4.092,2.7-1.44.64-1.655-.986-2.2-1.762a63.121,63.121,0,0,0-8.237-10.1c-4.157-3.9-7.262-3.91-11.226.153C2258.536,1171.749,2257.145,1173.667,2255.641,1175.476Z" transform="translate(-1635.821 -490.597)"/><path class="cls-6" d="M1685.282,837.5c1.808,5.317,2.8,10.866,4.69,16.165q16.581,46.508,62.526,64.536c.8.313,1.589.631,2.652,1.054-2.092,1.971-4.115,3.834-6.09,5.745-6.212,6.013-12.306,12.144-18.165,18.5a3.459,3.459,0,0,1-3.774,1.05c-12.913-2.733-24.058-8.867-34.407-16.937-23.624-18.422-37.65-42.63-43.88-71.615a134.537,134.537,0,0,1-1.8-42.781c2.4-22.566,9.334-43.807,18.535-64.4a2.409,2.409,0,0,1,.4-.488c.914,1.049.363,2.194.139,3.266a120.681,120.681,0,0,0-2.959,29.543c.572,14.321,3.823,27.945,10.9,40.562a109.446,109.446,0,0,0,10.554,15.32A1.425,1.425,0,0,0,1685.282,837.5Z" transform="translate(-1635.821 -490.597)"/><path class="cls-4" d="M1691.281,1079.416c2.743,4.817,5.127,9.834,8.412,14.349a85.82,85.82,0,0,0,25.98,23.7c11.1,6.565,23.306,9.713,35.777,12.1,5.365,1.028,10.827,1.344,16.262,1.886,6.806.677,13.536.021,20.262-.278a95.424,95.424,0,0,0,28.48-5.829,2.007,2.007,0,0,1,.423-.057c1.658,6.977,2.942,14.046,5.076,20.907,1.585,5.1,3.081,10.228,4.86,15.258.612,1.733.53,2.938-.793,4.127-.582.524-1.111,1.108-1.649,1.68-.944,1-1.571,1.091-2.26-.367a21.818,21.818,0,0,0-2.65-4.131c-3.624-4.583-8.553-5.585-13.157-1.978-6.467,5.066-11.69,11.182-12.148,19.983-.1,1.86-1.385,1.419-2.356,1.745-1.385.465-1.117-.712-1.287-1.342a46.112,46.112,0,0,0-3.895-10.6c-4.389-7.89-10.748-9.236-18.234-4.034-4.677,3.25-8.354,7.545-9.623,13.432a8.515,8.515,0,0,0-.031,3.581c-.119.088-.225.235-.329.233-4.816-.094-4.847-.089-5.858-4.8a38.352,38.352,0,0,0-3.061-9.528c-3.735-7.314-7.347-8.168-14.073-5.646a28.994,28.994,0,0,0-12.781,9.678c-.933,1.213-1.548,1.2-2.764.67-8.554-3.741-14.041-10.564-18.489-18.388-6.976-12.271-10.8-25.692-14.1-39.292a220.5,220.5,0,0,1-5.428-28.968A44.057,44.057,0,0,1,1691.281,1079.416Z" transform="translate(-1635.821 -490.597)"/><path class="cls-4" d="M1952.406,661.168q-.59,9.991-1.176,19.984c-.037.641-.054,1.284-.054,1.925,0,14.5-.231,29,.086,43.489.18,8.218.688,16.452,1.566,24.648.461,4.3.567,8.643.931,12.958.5,5.933,1.133,11.855,1.622,17.789a49.754,49.754,0,0,1,.431,5.51c-.133,4.258.454,8.464.227,12.762a111.1,111.1,0,0,1-6.05,29.951,43.962,43.962,0,0,1-17.74,23.078,11.683,11.683,0,0,1-16.81-4.458c-.732-1.464-1.354-2.982-2.027-4.474,2.386-4.166,2.584-8.852,2.945-13.429,1.1-13.926,2.409-27.824,4.222-41.679a646.871,646.871,0,0,1,21.17-98.842,225.882,225.882,0,0,1,9.865-27.729C1951.84,662.14,1952.14,661.662,1952.406,661.168Z" transform="translate(-1635.821 -490.597)"/><path class="cls-7" d="M1887.271,863.4c-.348,4.138-2.035,8.768-3.995,13.259-7.345,16.826-15.75,33.086-26.323,48.153a21,21,0,0,1-2.058,2.723c-6.158,6.278-4.594,5.9-12.829,3.938-13.943-3.317-26.617-9.63-38.822-16.923-4.632-2.768-5-3.975-3.818-9.176a69.106,69.106,0,0,1,7.267-18.426c1.54-2.75,4.671-4.1,7.118-6.023,11.521-9.071,23.1-18.071,34.642-27.115a2.452,2.452,0,0,1,1.88-.821c9.578,1.235,19.375.377,28.807,2.993a46.2,46.2,0,0,1,4.864,1.605C1886.967,858.78,1887.284,859.337,1887.271,863.4Z" transform="translate(-1635.821 -490.597)"/><path class="cls-3" d="M1685.282,837.5c-.336,1.3-.784.312-1.041,0-9.248-11.1-15.956-23.478-19.22-37.661a98.472,98.472,0,0,1-2.4-27.53,126.041,126.041,0,0,1,3.134-21.874,16.214,16.214,0,0,0,.219-2.112,209.738,209.738,0,0,1,10.161-20.72c7.129-13.34,15.572-25.929,22.512-39.381,8.993-17.43,17.485-35.09,23.979-53.622a146.4,146.4,0,0,0,7.571-39.773c.209-3.445-.92-6.76-1.421-10.135a45.714,45.714,0,0,1-.2-5.554c-.009-.327.113-.907.28-.949a6.024,6.024,0,0,1,4.15.411c1.061.5,1.978.936,2.038,2.4a113.017,113.017,0,0,1-1.506,25.383c-4.731,25.527-13.887,49.571-24.426,73.174-6.186,13.855-12.8,27.534-18.021,41.8a195.2,195.2,0,0,0-10.6,45.685,197.437,197.437,0,0,0,4.159,67.364C1684.881,835.435,1685.069,836.471,1685.282,837.5Z" transform="translate(-1635.821 -490.597)"/><path class="cls-3" d="M2031.737,565.835a122.474,122.474,0,0,1,41.8,13.8c11.037,6,21.3,13.134,29.863,22.361,10.482,11.294,15.557,24.857,15.617,40.295.006,1.634-.429,2.18-2.159,2.226a245.235,245.235,0,0,0-25.139,2.1c-1.173.152-1.9.167-2.07-1.479a91.613,91.613,0,0,0-21.993-51.223c-4.09-4.795-8.9-8.826-13.6-13a86.164,86.164,0,0,0-10.848-8.1C2039.439,570.4,2035.565,568.155,2031.737,565.835Z" transform="translate(-1635.821 -490.597)"/><path class="cls-4" d="M1834.893,1058.31a234.8,234.8,0,0,0,8.918,40.259,218.148,218.148,0,0,0,13.659,33.121c4.79,9.225,9.778,18.373,16.127,26.637a99.729,99.729,0,0,0,30.691,26.741c1.61.9,3.091,2.059,4.942,2.478a20.6,20.6,0,0,0-3.632,8.581c-.1.756-.366,1.366-1.356,1.227-1.049-.146-.672-.939-.7-1.492-.442-8.418-5.052-14.807-12.034-16.626a13,13,0,0,0-7.776.523,21.065,21.065,0,0,0-10.367,8.243c-.831,1.212-1.329,1.2-2.484.62-9.521-4.8-15.935-12.577-20.847-21.751-5.847-10.921-9.019-22.73-11.228-34.834-2.413-13.221-3.306-26.585-3.958-39.99-.4-8.2-1.041-16.393-.634-24.6C1834.364,1064.4,1834.174,1061.316,1834.893,1058.31Z" transform="translate(-1635.821 -490.597)"/><path class="cls-6" d="M1703.252,855.124a149.608,149.608,0,0,0,17.913,10.81,129.715,129.715,0,0,0,21.311,8.189,189.973,189.973,0,0,0,26.246,5.418c9.908,1.365,19.88,1.444,29.858,1.308.571-.008,1.143.032,1.714.05-4.631,4.243-9.69,7.961-14.573,11.894-7.5,6.04-14.917,12.179-21.986,18.72a3.4,3.4,0,0,1-4.118.785c-14.446-5.564-26.366-14.616-36.5-26.166a122.658,122.658,0,0,1-19.092-29.039C1703.729,856.455,1703.508,855.782,1703.252,855.124Z" transform="translate(-1635.821 -490.597)"/><path class="cls-5" d="M2013.9,1135.539c8.535.7,17.074,1.321,25.646,1.194a224.849,224.849,0,0,0,44.316-5.125c7.217-1.562,14.452-3.029,21.97-5.094a104.372,104.372,0,0,1-8.907,11.346,127.241,127.241,0,0,1-11.584,11.416c-.9.781-1.374,1.013-2.354-.017-3.371-3.546-6.206-3.916-10.479-1.524a46.437,46.437,0,0,0-9.118,6.934c-3.458,3.275-4.113,5.132-6.162,11.647-.591-1.5-1.023-2.739-1.563-3.929-.616-1.359-1.271-2.707-2.006-4-2.895-5.1-6.267-5.943-11.68-3.605a26.021,26.021,0,0,0-13.623,13.867c-.49,1.117-1,1.515-2.18,1.419-1.285-.1-1.132-.964-1.245-1.811a27.232,27.232,0,0,0-2.866-9.993,7.857,7.857,0,0,0-3.183-3.377c-.653-.327-1.773-1.944-2.321.247-.033.132-.659.19-1,.159a20.445,20.445,0,0,0-8.573,1.37c-1.5.049-1.593-1.162-1.868-2.151-1.4-5.047.242-9.537,2.639-13.857a16.488,16.488,0,0,1,3.277-4.183C2011.854,1135.719,2012.706,1135.122,2013.9,1135.539Z" transform="translate(-1635.821 -490.597)"/><path class="cls-4" d="M2013.9,1135.539c-1.483-.019-2.289,1.073-3.108,2.019-3.494,4.04-5.8,8.613-5.525,14.094.088,1.749-.067,3.764,1.724,5.007a34.606,34.606,0,0,0-9.451,7.529,2.224,2.224,0,0,1-2.942.638c-4.259-1.732-8.27-3.805-11.454-7.235a2.172,2.172,0,0,1-.534-2.783,161.618,161.618,0,0,0,7.948-21.354c.394-1.321.781-1.765,2.322-1.414C1999.809,1133.617,2006.853,1134.584,2013.9,1135.539Z" transform="translate(-1635.821 -490.597)"/><path class="cls-8" d="M1896.718,1196.728a22.586,22.586,0,0,1-4.4,12.875c-1.3,1.824-2.38,2.047-3.873.628-3.9-3.7-7.253-7.765-8.748-13.131-1.618-5.81,5.138-11.47,9.775-11.146,3.316.232,6.895,4.845,7.238,9.065C1896.757,1195.585,1896.718,1196.158,1896.718,1196.728Z" transform="translate(-1635.821 -490.597)"/><path class="cls-9" d="M1913.249,1193.452c1.153-2.683,2.739-4.968,5.562-6.149a5.938,5.938,0,0,1,7.26,1.716c4.437,5.15,5.175,11.039,3.367,17.381a32.719,32.719,0,0,1-1.78,4.544c-.588,1.29-1.556,2.017-3.074,1.4-2.015-1.36-2.6-3.678-3.668-5.64C1918.474,1202.221,1915.761,1197.9,1913.249,1193.452Z" transform="translate(-1635.821 -490.597)"/><path class="cls-9" d="M1944.694,1187.052a4.971,4.971,0,0,1,1.153-2c1.528-2.316,3.308-4.654,6.348-4.322,3.165.345,4.982,2.782,6.614,5.429,2.719,4.409,3.109,9.372,3.853,14.255.423,2.779-.428,3.491-3.34,3.284a2.43,2.43,0,0,1-1.294-1.057c-2.944-5.395-7.62-9.28-11.805-13.594C1945.639,1188.442,1944.9,1187.947,1944.694,1187.052Z" transform="translate(-1635.821 -490.597)"/><path class="cls-4" d="M2295.964,689.727c1.753-8.6,1.838-17.311,1.823-26.032a144.645,144.645,0,0,1,7.618,25.066,124.888,124.888,0,0,1,2.486,15.656C2304,699.426,2300.536,694.123,2295.964,689.727Z" transform="translate(-1635.821 -490.597)"/><path class="cls-9" d="M1815.188,1172a20.317,20.317,0,0,1,4.067-4.323c2.9-2,5.29-1.651,7.386,1.162a19.806,19.806,0,0,1,3.161,6.941c.861,3.3,1.693,6.61,2.433,9.939.657,2.954-.216,3.907-3.277,3.816-1.859-2.071-3.043-4.612-4.749-6.8-2.451-3.137-4.721-6.418-7.988-8.821C1815.634,1173.486,1814.912,1172.97,1815.188,1172Z" transform="translate(-1635.821 -490.597)"/><path class="cls-10" d="M1742.744,1173.374a10.206,10.206,0,0,1,6.816-3.117,4.482,4.482,0,0,1,4.29,2.216,20.115,20.115,0,0,1,2.9,8.833,33.816,33.816,0,0,1,.492,7.455c-.137,1.44-.327,3.006-2.493,2.517a3.245,3.245,0,0,1-1.632-1.624c-2.26-5-5.8-9.118-9.178-13.355C1743.279,1175.473,1742.157,1174.745,1742.744,1173.374Z" transform="translate(-1635.821 -490.597)"/><path class="cls-9" d="M1780.42,1174.081c3.407-3.515,8.915-4.38,11.729,1.682,2.305,4.964,2.523,10.3,3.078,15.57.2,1.918-.754,2.325-3.216,1.858a6.549,6.549,0,0,1-1.25-1.7c-2.107-5.224-5.35-9.736-8.824-14.114C1781.2,1176.444,1779.9,1175.646,1780.42,1174.081Z" transform="translate(-1635.821 -490.597)"/><path class="cls-11" d="M2293.79,1173.755a43.669,43.669,0,0,1,4.514-7.678c1.071-1.376,2.456-1.738,3.556-.27,4.452,5.941,9.55,11.548,10.82,19.307a3.9,3.9,0,0,1-2.532.2,48.986,48.986,0,0,0-9.944-7.864C2298.064,1176.224,2295.841,1175.135,2293.79,1173.755Z" transform="translate(-1635.821 -490.597)"/><path class="cls-9" d="M2259.344,1181.443c1.059-1.674,2.064-3.387,3.191-5.015,1.832-2.647,3.346-2.816,5.754-.668a29.1,29.1,0,0,1,5.033,6.037,45.031,45.031,0,0,1,5.175,9.719c.332.979,1.141,2.108-.333,2.922a2.4,2.4,0,0,1-2.549-.655,71.428,71.428,0,0,0-16.014-12A.8.8,0,0,1,2259.344,1181.443Z" transform="translate(-1635.821 -490.597)"/><path class="cls-9" d="M2069.085,1157.416a17.611,17.611,0,0,1,5.558-4.526c2.383-1.222,3.881-.828,5.6,1.272a15.994,15.994,0,0,1,2.9,6.1c.846,3.143,1.6,6.32,2.185,9.52.471,2.582-.261,3.153-2.912,2.691-2.242-2.923-3.958-6.232-6.706-8.793a49.9,49.9,0,0,0-5.384-4.517C2069.733,1158.746,2068.834,1158.464,2069.085,1157.416Z" transform="translate(-1635.821 -490.597)"/><path class="cls-9" d="M2038.674,1164.784a20.8,20.8,0,0,1,3.854-3.628c3.134-2.122,6.121-1.463,8.259,1.664,1.8,2.633,1.779,5.636,1.947,8.605.113,1.992.048,3.994.154,5.986.111,2.082-.855,2.521-2.637,1.9-1.575-1.507-2.355-3.56-3.632-5.28a42.043,42.043,0,0,0-7.1-7.686C2039.035,1165.955,2038.436,1165.584,2038.674,1164.784Z" transform="translate(-1635.821 -490.597)"/><path class="cls-12" d="M2006.083,1163.125a9.31,9.31,0,0,1,5.574-2.807c2.993-.336,4.531.467,5.6,3.329a41.163,41.163,0,0,1,2.52,14.351c.013,2.77-.73,3.2-3.409,2.164a3.29,3.29,0,0,1-.879-1.189,50.5,50.5,0,0,0-8.135-12.968C2006.712,1165.208,2005.506,1164.518,2006.083,1163.125Z" transform="translate(-1635.821 -490.597)"/><path class="cls-13" d="M1780.42,1174.081c.931,2.518,3.007,4.233,4.527,6.331a52.853,52.853,0,0,1,7.063,12.779,32.932,32.932,0,0,1-14.664-7.218c-1.871-1.563-2.121-3.522-1.311-5.763A14.307,14.307,0,0,1,1780.42,1174.081Z" transform="translate(-1635.821 -490.597)"/><path class="cls-13" d="M2259.344,1181.443c3.644,1.181,6.561,3.576,9.565,5.8a47.61,47.61,0,0,1,6.872,6,3.053,3.053,0,0,0,2.382,1.19c-2.376.811-4.747.219-7.106-.073a56.658,56.658,0,0,1-12.238-2.545c-1.958-.7-2.663-1.858-2.281-3.85A13,13,0,0,1,2259.344,1181.443Z" transform="translate(-1635.821 -490.597)"/><path class="cls-13" d="M1815.188,1172a10.315,10.315,0,0,0,2.212,2.252,50.8,50.8,0,0,1,11.558,15.283,36.261,36.261,0,0,1-13.247-4.185c-3.327-1.792-4.111-4.147-3.005-8.52A10.059,10.059,0,0,1,1815.188,1172Z" transform="translate(-1635.821 -490.597)"/><path class="cls-13" d="M2293.79,1173.755c1.926-.014,3.254,1.333,4.764,2.193,3.691,2.1,7.407,4.206,10.267,7.457a19.7,19.7,0,0,1,1.327,1.908c-5.188.132-10.391.47-15.446-1.171-2.909-.945-3.358-1.509-2.93-4.444A12.313,12.313,0,0,1,2293.79,1173.755Z" transform="translate(-1635.821 -490.597)"/><path class="cls-13" d="M1742.744,1173.374c.837,2.337,2.717,3.925,4.2,5.786a52.9,52.9,0,0,1,6.949,10.9,7.983,7.983,0,0,0,.85,1.215c-5.7-1.213-10.377-4.4-14.873-7.844-2.265-1.736-2.357-2.768-1.227-5.372A9.454,9.454,0,0,1,1742.744,1173.374Z" transform="translate(-1635.821 -490.597)"/><path class="cls-13" d="M2069.085,1157.416c2.712,2.37,5.8,4.3,8.147,7.1,2.049,2.444,4.153,4.849,5.182,7.956a37.288,37.288,0,0,1-14.851-5.224c-2.1-1.3-2.458-2.982-1.572-5.345A10.818,10.818,0,0,1,2069.085,1157.416Z" transform="translate(-1635.821 -490.597)"/><path class="cls-13" d="M1944.694,1187.052c5.01,4.771,10.393,9.209,13.772,15.438a11.815,11.815,0,0,0,.856,1.2,49.517,49.517,0,0,1-10.322-3.128C1942.847,1198.064,1941.215,1194.339,1944.694,1187.052Z" transform="translate(-1635.821 -490.597)"/><path class="cls-13" d="M2334.588,1169.951a35.374,35.374,0,0,1-12.842-1,3.812,3.812,0,0,1-3.125-3.719,10.962,10.962,0,0,1,2.168-8.331c4.092,2.951,8.694,5.266,11.886,9.337C2333.527,1167.328,2335.108,1168.126,2334.588,1169.951Z" transform="translate(-1635.821 -490.597)"/><path class="cls-10" d="M2334.588,1169.951c-1.544-3.328-4.29-5.6-7.051-7.81a60.676,60.676,0,0,0-5.344-3.512c-.667-.426-1.386-.782-1.4-1.725a12.1,12.1,0,0,1,.514-1.149c2.517-4.363,5.07-4.658,8.089-.7s5.984,7.948,7.122,12.969C2336.949,1169.937,2336.521,1170.594,2334.588,1169.951Z" transform="translate(-1635.821 -490.597)"/><path class="cls-13" d="M2006.083,1163.125c1.224,2.565,3.332,4.486,4.941,6.774a36.1,36.1,0,0,1,5.346,10.263c-3.794-1.451-7.519-3.039-10.645-5.723C2001.058,1170.431,2001.177,1166.935,2006.083,1163.125Z" transform="translate(-1635.821 -490.597)"/><path class="cls-13" d="M2038.674,1164.784c3.03,2.792,6.091,5.551,8.394,9.023a23.026,23.026,0,0,1,3.183,5.508,32.5,32.5,0,0,1-12.425-4.641c-2.253-1.377-2.022-3.6-1.551-5.728A7.2,7.2,0,0,1,2038.674,1164.784Z" transform="translate(-1635.821 -490.597)"/><path class="cls-13" d="M1913.249,1193.452c2.241,1.783,3.17,4.472,4.577,6.806,2.381,3.952,4.518,8.052,6.758,12.09-5.117-1.954-9.433-4.894-11.944-9.951C1911.117,1199.331,1911.714,1196.344,1913.249,1193.452Z" transform="translate(-1635.821 -490.597)"/><path class="cls-14" d="M1796.316,555.182c-3.539-1.361-5.478-3.638-5.516-7.385-.024-2.343-.972-4.6-.874-6.97.049-1.172-.1-2.76,1.683-2.6,1.49.135,2.94.85,3.007,2.713a62.522,62.522,0,0,0,.389,7.886C1795.346,550.923,1795.8,552.99,1796.316,555.182Z" transform="translate(-1635.821 -490.597)"/><path class="cls-1" d="M2069.537,914.384c-20.3-.168-40.222-2.714-59.458-9.535a54.842,54.842,0,0,1-12.629-6.2c-4.19-2.845-5.761-6.891-6.419-11.736a123.431,123.431,0,0,1,12.482-73.856c4.511-8.948,9.282-17.676,15.863-25.271,5.407-6.239,11.547-11.511,20.041-13.023,6.566-1.169,12.774.424,18.752,2.939,11.576,4.87,20.161,13.377,27.189,23.457a165.715,165.715,0,0,1,27.629,66.295c2.087,11.655,2.189,23.051-1.208,34.464a11.628,11.628,0,0,1-6.666,7.578,49.445,49.445,0,0,1-15.479,3.866A146.914,146.914,0,0,1,2069.537,914.384Z" transform="translate(-1635.821 -490.597)"/><path class="cls-1" d="M2174.368,965.176a503.32,503.32,0,0,1-53.63-2.759c-11.063-1.184-22.172-1.937-33.232-3.143-22.676-2.474-45.314-5.234-67.341-11.521-3.559-1.016-6.987-2.428-10.482-3.63-9.585-3.293-14.507-10.583-17.278-19.748a54.687,54.687,0,0,1-2.012-10.037,1.406,1.406,0,0,1-.019-.214c.081-1.672-.371-3.806,1.625-4.456,2.064-.672,2.7,1.464,3.469,2.8a32.212,32.212,0,0,1,2.666,5.579c3.726,10.9,11.753,16.921,22.383,20.139a252.926,252.926,0,0,0,31.469,6.989c12.236,2.057,24.543,3.6,36.864,5.03,7.439.862,14.905,1.476,22.352,2.276,6.451.694,12.883,1.57,19.339,2.221,6.243.63,12.5,1.226,18.761,1.571,12.261.675,24.535,1.144,36.82.828,13.34-.344,26.637-1.415,39.95-2.282,22.928-1.5,43.793-9.532,64.423-18.729,11.33-5.051,22.592-10.194,33.114-16.809a65.26,65.26,0,0,0,8.985-6.172,21.757,21.757,0,0,0,7.65-15.907,17.335,17.335,0,0,1,1.028-5.874c.42-1.029.685-2.435,2.123-2.329,1.418.105,1.634,1.555,1.809,2.607a35.728,35.728,0,0,1-.611,16.119,21.364,21.364,0,0,1-6.764,10.628c-11.107,9.372-23.618,16.265-36.777,22.347-17.44,8.062-35.209,15-53.985,19.16-7.315,1.62-14.819,2.1-22.263,2.886-12.634,1.336-25.315,1.992-38.007,2.4C2182.658,965.289,2178.511,965.176,2174.368,965.176Z" transform="translate(-1635.821 -490.597)"/><path class="cls-1" d="M2346.651,843.657a99.814,99.814,0,0,1-1.811,20.219c-.888,4.8-4,8.133-7.715,10.934-7.455,5.618-16.1,8.74-24.856,11.592a53.847,53.847,0,0,1-11.036,2.418c-4.865.514-8.712-.675-11.239-5.419a45.382,45.382,0,0,1-5.676-18.2c-.624-8.536-1.929-17.022-2.023-25.6-.2-17.946.6-35.822,4.3-53.452a52.319,52.319,0,0,1,5.93-16.4c4.954-8.271,12.234-10.184,20.592-5.347,5.526,3.2,9.526,7.993,12.831,13.285,9.708,15.544,17.01,32.076,19.674,50.382A91.451,91.451,0,0,1,2346.651,843.657Z" transform="translate(-1635.821 -490.597)"/><path class="cls-1" d="M1925.814,1055.393c-.6,20.726-1.865,40.344-6.423,59.6a42.438,42.438,0,0,1-5.133,13.282c-3.48,5.46-7.531,6.178-12.683,2.192a52.858,52.858,0,0,1-10.242-11.175c-6.556-9.077-14.083-17.432-20.1-26.9a88.339,88.339,0,0,1-11.672-28.969c-.529-2.438.224-4.672,1.245-6.809a38.528,38.528,0,0,1,9.9-12.244,168.319,168.319,0,0,1,38.267-25.622,20.5,20.5,0,0,1,5.5-1.682c3.522-.582,5.385.353,6.75,3.675,2.386,5.809,3.128,11.989,3.691,18.155C1925.439,1044.717,1925.563,1050.574,1925.814,1055.393Z" transform="translate(-1635.821 -490.597)"/><path class="cls-1" d="M1733.521,996.289c8.876.417,17.474.366,25.953,1.348a66.919,66.919,0,0,1,23.291,6.655c5.42,2.81,6.809,5.884,5.66,11.944-1.5,7.9-4.632,15.226-7.96,22.468-4.46,9.705-8.909,19.426-15.266,28.1a23.761,23.761,0,0,1-1.92,2.3c-4.247,4.483-6.933,5.034-12.535,2.3-8.117-3.963-15.179-9.569-22.5-14.76a132.322,132.322,0,0,1-13.454-11.247c-5.871-5.461-7.586-11.781-4.966-19.337a47.419,47.419,0,0,1,2.435-6.372c4.02-7.767,7.829-15.665,15.031-21.208C1729.29,996.938,1731.185,995.589,1733.521,996.289Z" transform="translate(-1635.821 -490.597)"/><path class="cls-1" d="M2238.132,682.339a72.344,72.344,0,0,1-4.285,20.2c-5.076,14.665-11.7,28.58-20.824,41.2a32.062,32.062,0,0,1-9.169,8.888,12.579,12.579,0,0,1-9.8,1.541c-10.773-2.429-20.242-7.43-29.063-13.909-4.318-3.172-8.683-6.26-12.3-10.257-.144-.158-.294-.311-.435-.473-5.634-6.465-5.624-10.681.172-17a70.135,70.135,0,0,1,16.045-12.741c11.72-6.964,23.258-14.308,36.035-19.3a93.219,93.219,0,0,1,28.98-5.877c2.4-.135,3.475.707,4.2,3.047A16.505,16.505,0,0,1,2238.132,682.339Z" transform="translate(-1635.821 -490.597)"/><path class="cls-1" d="M2260.394,826.418a36.5,36.5,0,0,1-.414,6.464c-.983,6.174-4.375,8.681-10.655,7.85-7.376-.976-14.411-3.338-21.555-5.252a68.44,68.44,0,0,1-14.92-5.724c-7.109-3.838-8.076-5.746-6.024-13.576a90.1,90.1,0,0,1,11.005-24.665c2.673-4.3,5.207-8.688,8.253-12.743,2.448-3.26,5-6.434,8.436-8.735,4.389-2.941,7.616-2.531,11.084,1.475,3.514,4.058,5.475,8.953,7.289,13.919C2256.85,796.265,2260.394,815.3,2260.394,826.418Z" transform="translate(-1635.821 -490.597)"/><path class="cls-1" d="M2154.5,779.708a12.719,12.719,0,0,1-1.413,4.756,29.613,29.613,0,0,1-8.735,9.837c-2.221,1.7-3.2,1.6-5.311-.181-7.485-6.315-12.786-14.321-17.451-22.8a7.113,7.113,0,0,1,.006-7.157c3.622-6.755,8.722-11.883,15.93-14.788a3.876,3.876,0,0,1,5.053,1.371A17.849,17.849,0,0,1,2144.2,753c4.319,8.046,8.4,16.19,10.051,25.3C2154.34,778.791,2154.421,779.283,2154.5,779.708Z" transform="translate(-1635.821 -490.597)"/><path class="cls-1" d="M2113.363,796.838c.034,1.32-.008,2.638-1.417,3.3-1.565.737-2.9.187-4.1-.894a14.983,14.983,0,0,1-3.467-4.842c-5.482-11.727-13.063-22.012-21.526-31.71a25.175,25.175,0,0,1-3.9-5.85c-.425-.909-.921-1.975-.062-2.768.74-.683,1.77-.295,2.622.1,3.679,1.709,6.652,4.4,9.566,7.117a90.372,90.372,0,0,1,17.27,21.63,42.752,42.752,0,0,1,4.629,10.964A14.268,14.268,0,0,1,2113.363,796.838Z" transform="translate(-1635.821 -490.597)"/><path class="cls-1" d="M2269.292,783.406a55.086,55.086,0,0,1,9.668-29.12c.691-1.024,1.515-2.6,2.923-1.993,1.386.594.541,2.245.307,3.3-1.377,6.175-2.923,12.312-4.385,18.468-1.009,4.25-.962,8.629-1.523,12.934a7.6,7.6,0,0,1-1.549,3.926,2.687,2.687,0,0,1-4.81-.647C2269.053,788.306,2269.4,786.2,2269.292,783.406Z" transform="translate(-1635.821 -490.597)"/><path class="cls-1" d="M2203,930.168a12.331,12.331,0,0,1,9.073,3.268c1.352,1.164,2.569,2.62,1.51,4.639-.808,1.542-2.682,1.974-4.911,1.329a14.934,14.934,0,0,1-8.363-6.215c-.52-.762-1.187-1.633-.775-2.544.434-.958,1.509-.322,2.286-.466A7.089,7.089,0,0,1,2203,930.168Z" transform="translate(-1635.821 -490.597)"/><path class="cls-1" d="M2268.607,922.78c-.293,3.049-2.144,5.375-3.991,7.542a13.769,13.769,0,0,1-2.839,2.478c-1.529,1-3.127,1.6-4.708.311-1.7-1.385-.81-3.006.011-4.411a18.2,18.2,0,0,1,9.183-7.627C2268.216,920.272,2268.667,920.639,2268.607,922.78Z" transform="translate(-1635.821 -490.597)"/><path class="cls-1" d="M2307.132,1097.617a73.939,73.939,0,0,1-1.727,18.278c-1.743,7.01-6.327,9.964-13.519,8.84a63.264,63.264,0,0,1-17.26-5.426c-9.287-4.392-14.422-12.093-14.8-22.317-.211-5.695,1.72-11.259,3.982-16.523a111.408,111.408,0,0,1,20.533-31.073,16.512,16.512,0,0,1,2.969-2.445c4.252-2.881,8.31-2.127,11.3,2.109,3.2,4.539,4.474,9.814,5.519,15.137C2306.29,1075.229,2306.9,1086.408,2307.132,1097.617Z" transform="translate(-1635.821 -490.597)"/><path class="cls-15" d="M2079.192,906.693c-8.44.148-16.816-.792-25.208-1.471a5.236,5.236,0,0,1-3.773-2.066c-7.453-8.823-11.5-18.991-12.918-30.43a143.671,143.671,0,0,1-1.152-26.055c.942-16.146,3.141-32.063,10.317-46.857a24.965,24.965,0,0,1,6.78-8.98c4.115-3.253,7.307-3.054,11.29.364a78.818,78.818,0,0,1,16.084,19.354,182.479,182.479,0,0,1,21.207,52.693c1.913,8.1,3.68,16.1,3.355,24.463a77.971,77.971,0,0,1-1.487,11.863c-.511,2.635-2.37,3.965-4.644,4.861-4.725,1.863-9.7,2.165-14.706,2.256C2082.622,906.719,2080.907,906.693,2079.192,906.693Z" transform="translate(-1635.821 -490.597)"/><path class="cls-9" d="M2041.126,903.805c-5.2-.854-9.888-1.537-14.541-2.408a86.817,86.817,0,0,1-17.248-4.665c-.59-.243-1.159-.539-1.751-.776-4.749-1.9-7.109-5.159-7.555-10.5-2.127-25.464,2.662-49.605,13.432-72.618a95.235,95.235,0,0,1,16.185-23.514,22.031,22.031,0,0,1,14-7.051,6.332,6.332,0,0,1,3.8.35c-1.361,1.418-2.756,2.77-4.036,4.222-4.488,5.091-7.3,11.156-9.924,17.318-4.4,10.329-6.262,21.226-7.333,32.323a140.4,140.4,0,0,0,2.658,42.93,53.068,53.068,0,0,0,10.406,21.977C2039.731,902.05,2040.249,902.7,2041.126,903.805Z" transform="translate(-1635.821 -490.597)"/><path class="cls-16" d="M2295.094,783.3a29.793,29.793,0,0,1,2.049-6.934c.4-1.08.969-1.01,1.8-.629a11.873,11.873,0,0,1,4.8,4.455c5.17,7.729,8.34,16.324,10.643,25.26a163.2,163.2,0,0,1,4.954,25.319,141.1,141.1,0,0,1,.394,22.64,138.118,138.118,0,0,1-3.525,22.978,3.357,3.357,0,0,1-2.323,2.693c-3.527,1.322-6.954,2.992-10.829,3.026-5.015.043-8.207-2.19-9.905-6.9a53.494,53.494,0,0,1-2.623-14.885,174.522,174.522,0,0,1-.379-21.381c1.264.215,1.519,1.412,2.1,2.245,2.469,3.545,5.814,3.479,8.149-.2a28.989,28.989,0,0,0,3.543-9.825c2.8-13.39,2.65-26.654-1.836-39.711C2300.848,787.807,2298.877,784.774,2295.094,783.3Z" transform="translate(-1635.821 -490.597)"/><path class="cls-9" d="M2301.858,770.226a8.838,8.838,0,0,1,7.186.67c3.7,1.8,6.376,4.737,8.8,7.943A77,77,0,0,1,2328.8,799.25c3.038,8.416,6.16,16.828,7.661,25.755a109.513,109.513,0,0,1-.272,38.069,10.48,10.48,0,0,1-4.2,6.656,38.512,38.512,0,0,1-8.3,4.962c.676-3.085,1.333-5.889,1.9-8.711,4.553-22.517,2.841-44.574-4.52-66.318-2.883-8.517-6.625-16.466-12.271-23.487A24.493,24.493,0,0,0,2301.858,770.226Z" transform="translate(-1635.821 -490.597)"/><path class="cls-17" d="M2295.094,783.3a3.439,3.439,0,0,1,3.271,1.173,15.618,15.618,0,0,1,4.156,6.393c3.627,9.915,4.248,20.164,3.478,30.582a69.6,69.6,0,0,1-2.736,14.682,17.356,17.356,0,0,1-3.122,6.283c-2.344,2.828-5.8,2.709-7.911-.258-.738-1.041-1.391-2.142-2.083-3.214-.569-4.194.156-8.365.308-12.541.276-7.636.558-15.289,1.32-22.887.647-6.456,1.253-12.955,2.9-19.276A5.973,5.973,0,0,1,2295.094,783.3Z" transform="translate(-1635.821 -490.597)"/><path class="cls-7" d="M1917.706,1049.126c-.482,9.523-.745,19.054-1.581,28.568-.666,7.579-1.311,15.158-2.307,22.695a101.459,101.459,0,0,1-3.953,19.182,12.368,12.368,0,0,1-.726,1.78c-1.227,2.361-2.366,2.673-4.562,1.236-3.291-2.152-5.618-5.274-7.912-8.338-7.088-9.465-13.94-19.113-20.146-29.181a93.363,93.363,0,0,1-9.11-20.463c-.645-2,.513-3.329,1.452-4.659a47.572,47.572,0,0,1,9.2-9.206,229.23,229.23,0,0,1,22.507-16.609,31.809,31.809,0,0,1,10.26-4.661,4.049,4.049,0,0,1,5.1,2.724,20.21,20.21,0,0,1,1.276,6.68C1917.3,1042.3,1918,1045.688,1917.706,1049.126Z" transform="translate(-1635.821 -490.597)"/><path class="cls-7" d="M1741.358,1003.5c5.19-.244,10.157.935,15.156,2.147,4.2,1.02,8.526,1.474,12.652,2.888a91.631,91.631,0,0,1,8.463,3.57c1.857.852,2.231,2.171,1.877,4a70.5,70.5,0,0,1-5.339,15.289,196.1,196.1,0,0,1-11.486,22.714,30.256,30.256,0,0,1-4.127,5.437,4.464,4.464,0,0,1-4.674,1.209,52.859,52.859,0,0,1-21.889-11.578c-4.234-3.6-8.666-6.955-12.628-10.883-2.615-2.591-3.548-5.284-2.5-9,2-7.092,6.031-13,10.194-18.867a25.044,25.044,0,0,1,3.989-4.141,9.59,9.59,0,0,1,7.531-2.8C1739.5,1003.574,1740.432,1003.5,1741.358,1003.5Z" transform="translate(-1635.821 -490.597)"/><path class="cls-7" d="M2226.365,682.712c.428,0,.86-.032,1.285.006,3.16.277,3.836,1.011,3.567,4.19a27.172,27.172,0,0,1-2.145,7.573c-5.89,15.016-12.389,29.739-21.314,43.256a64.308,64.308,0,0,1-4.186,5.391c-2.868,3.477-6.333,4.5-10.842,3.355a62.164,62.164,0,0,1-22.668-11.092c-2.713-2.076-5.641-3.841-8.289-6.028-6.321-5.219-5.451-10.775.082-15.834,5.732-5.24,12.339-9.172,19.095-12.875,10.951-6,22.12-11.545,33.97-15.586A41.287,41.287,0,0,1,2226.365,682.712Z" transform="translate(-1635.821 -490.597)"/><path class="cls-7" d="M2253.025,825.764c-.474,1.456-.2,3.05-.392,4.6-.3,2.4-1.993,3.545-4.593,3.23a106.491,106.491,0,0,1-17.476-3.779,92.766,92.766,0,0,1-13.092-4.564,17.09,17.09,0,0,1-2.784-1.584c-1.648-1.2-2.584-2.552-2-4.9a49.984,49.984,0,0,1,4.843-11.6,161.315,161.315,0,0,1,13.748-21.629,21.97,21.97,0,0,1,6.03-5.994c2.168-1.279,3.687-1.051,5.117,1.012,2.563,3.7,3.773,7.967,4.964,12.217a174.371,174.371,0,0,1,5.227,26.3C2252.881,821.268,2252.462,823.507,2253.025,825.764Z" transform="translate(-1635.821 -490.597)"/><path class="cls-7" d="M2148.884,779.524a22.8,22.8,0,0,1-3.232,5.246c-2.918,3.5-3.04,3.536-6.128.259A71.314,71.314,0,0,1,2128.5,769.92c-1.307-2.427-.762-4.222.772-5.968a39.536,39.536,0,0,1,8.254-7.051c1.486-.963,2.628-.781,3.48.875a78.187,78.187,0,0,1,7.809,21.094C2148.838,779.01,2148.844,779.153,2148.884,779.524Z" transform="translate(-1635.821 -490.597)"/><path class="cls-7" d="M2300.3,1096.164c-.328,5.6-.16,11.257-1.693,16.726-1.18,4.207-3.02,5.744-7.34,5.047-8.236-1.329-15.711-4.439-20.469-11.8-3.03-4.689-4.228-9.819-2.569-15.452a56.682,56.682,0,0,1,8.3-17.469c3.343-4.621,6.01-9.694,9.492-14.223.217-.282.4-.592.633-.86,2.878-3.305,5.785-3.049,8.061.742,1.978,3.3,2.76,6.995,3.421,10.713a130.208,130.208,0,0,1,1.833,20.176C2300.009,1091.884,2300.226,1094.023,2300.3,1096.164Z" transform="translate(-1635.821 -490.597)"/><path class="cls-9" d="M2048.516,832.453a68.691,68.691,0,0,1,3.855-25.214,23.819,23.819,0,0,1,3.572-6.775c3.45-4.461,8.194-4.475,11.6,0,3.509,4.611,4.981,10.057,6.044,15.606,2.766,14.438,2.755,28.773-1.957,42.879a19.36,19.36,0,0,1-4.8,8.23c-3.452,3.271-7.716,2.967-10.54-.856-3.831-5.187-5.23-11.316-6.475-17.475C2048.731,843.443,2048.709,837.939,2048.516,832.453Z" transform="translate(-1635.821 -490.597)"/></svg>