<?xml version="1.0" encoding="UTF-8"?>
<svg id="Layer_1" data-name="Layer 1" xmlns="http://www.w3.org/2000/svg" viewBox="0 0 644.42 644.04">
  <path d="M314.62.1c116.29-3.16,233.29,66.31,289.38,167.03,97.13,174.44,11.17,387.25-171.92,456.42C195.05,713.11-48.97,494.6,8.51,248.99,41.13,109.57,171.12,4,314.62.1Z" style="fill: #040608;"/>
  <path d="M43.83,411.81c-4.2-1.77-18.65-1.88-20.84-5.66C-.79,323.9,11.76,234.57,56.41,161.89,122.24,54.74,253.06-7.31,378.06,17.08c99.61,19.44,187.28,87.7,228.63,180.37,1.82,4.07,7.04,14.97,7.05,18.74s-1.59,11.49-2.37,15.65c-4.55,24.09-16.23,49.65-31.04,68.94-58.3-79-169.22-18.75-144.76,73.79,12.02,45.48,58.73,74.96,104.78,59.26,44.87-15.3,63.01-65.27,50.99-109.02-.84-3.06-4.72-9.99-4.36-12.27s9.23-13.44,11.27-16.81c6.11-10.11,12.04-21.64,16.35-32.65,1.25-3.2,5.52-19.49,6.24-20.27,1.63-1.75,1.69.56,2.08,1.41,3.59,7.82,6.61,28.07,7.78,37.22,20.83,162.2-89.17,310.12-246.69,345.07-139.91,31.04-287.08-49.56-345.37-178.01-3.35-7.39-8.59-18.83-10.62-26.38-.23-.86-.65-2.33.31-2.31,5.46,2.48,13.25,2.1,18.49,4.01,2.24-1.29,4.1-.77,5.58,1.56,13.96,38.53,37.64,67.67,64.39,97.67,1.46,1.64,2.27,3.73,3.03,5.76l8.16,4.87c55.5,50.14,129.06,80.47,204.22,77.22,116.07-5.02,225.52-86.86,261.38-196l2.24-1.09c2.07-9.02,4.24-18.1,6.5-27.24l-4.91,12.77c-1.83,1.82-3.69,3.97-5.59,6.47l.48,3.08c-4.33,6.85-9.55,13.11-15.37,18.74l-3.11.18c-8.17,13.25-25.65,19.19-40.34,22.45-.95-1.38-2.15-1.94-3.66-1.45-6.87,3.42-17.16,4.92-24,1-3.68-1.12-6.8-1.18-9.36-.18-11.95-2.42-22.19-6.79-32.45-13.28-5.56-3.52-13.87-8.84-16.19-14.54-1.74-1.55-3.07-3.21-4-5-3.47,1.41-9.94-6.92-8-10-4.26-.91-5.59-2.57-4-5-.74-.28-1.45-.59-2.09-1.01-6.32-4.2-11.53-31.02-12.21-39.4-.64-7.86-.3-13.29,2.3-20.59-2.66-.36-2.51-1.14,0-2-1.32-2.83-1.1-4.73-.61-7.61,1.44-8.49,14.36-40.26,20.58-44.73.88-.63,1.97-.73,3.03-.67-1-3.96,7.06-11.73,11-11-1.24-2.7.89-4,3-2,.82-3.44,3.33-6.18,7.5-8.24,5.95-4.28,15.51-10.41,22.5-8.76.57-3.1,1.77-2.86,4-1,5.93-5.23,17.66-5.18,25.75-4.86,19.84.78,35.73,8.64,50.87,19.8,2.48-2.95,4.5-6.23,6.07-9.85l2.31-.09c.76-5.68,2.89-11.31,6.41-16.87,1.63-5.64,4.16-10.35,7.59-14.13-2.22-1.75-1.86-2.99,1-3-.67-7.69-4.93-17.78-8.71-24.92-26.77-50.46-56.14-86.94-105.09-118.46C305.37-28.07,83.88,67.72,39.94,264.43l-3.12,5.38c2.77,1.68.97,7.39-2,8,.75,1.68,1.26,3.45,1.25,5.29-.01,5.44-1.37,26.63-2.85,30.16-.37.89-.87,1.72-1.4,2.55.89,1.78,1.81,3.66,1.92,5.67,1.39,25.74,2.59,45.32,8.15,70.85,1.3,5.98,3.29,12.06,5.39,17.64.12,3.37-1.09,4.62-3.46,1.83Z" style="fill: #f2fdfd;"/>
  <path d="M85.83,266.81l1.82,2.35c-1.72,46.2,27.08,61.78,66.55,35.93,6.37-4.18,33.26-25.68,37.66-32.59.04-2.21.69-3.77,1.97-4.69,1.64-2.4,2.85-1.91,3,1l3.46-.47c27.64,14.41,47.92,36.95,65.68,61.74l8.9,8.47.96,3.26c1.58.83,1.63,2.25.15,4.23,3.4.32,6.68,1.24,9.85,2.77,4.34-1.47,13.27,6.02,15.65,9.98,2.38,2.72,2.83,5.06,1.35,7.02,4.41,12.63-10.06,49.09-21.86,52.69-13.12-.74-25.5,1.36-37.14,6.31l-1.98,3.2c-41.46,17.55-70.93,67.54-40.01,107.03v1.77s-2.65,2.73-2.65,2.73c-26.3,4.65-55.9,1-79.36-10.73-29.91-28.69-53.76-63.67-69.09-102.41-.63-.88-2.88-2.21-3.91-2.59,3.13.41,1.82-.94,1.35-2.85-.58-2.37-2.23-8.26-4.35-9.15,3.07.13,1.58-.68.98-2.47-10.01-29.8-13.69-62.49-12.98-93.53,6.29-11.65,15.63-23.37,25.65-32.35,5.28-4.74,18.3-15.02,24.56-16.91,1.26-.38,2.57-.11,3.79.26Z" style="fill: #f2a16f;"/>
  <path d="M510.63,277.11c92.52-7.73,99.08,144.25,7.74,147.74-87.77,3.35-95.79-140.38-7.74-147.74Z" style="fill: #f2fdfd;"/>
  <path d="M36.83,269.81c22.4-118.16,115.75-209.2,233.77-231.73,124.2-23.71,255.04,44.73,310.76,156.7,3.05,6.13,11.15,22.6,10.55,28.62-.16,1.57-.98,2.06-1.08,2.41l-2.04-.81c-55.3-69.65-158.67-90.93-241.4-58.83-2.69-8.88-5.87-17.67-9.56-26.37-.78.23-1.8.35-2.14-.21-8.12-13.67-33.81-36.42-43.55-12.16-6.97-1.08-14.05-1.63-21.23-1.66l-2.09-1.96c-2.89.88-6.15.67-9,0l-2.11-1.75c-5.27-59.4-59-36.37-88.01-7.74-35.99,35.51-63.85,80.68-77.45,128.99l1.57,2.5c.09,2.94-3.05,4.41-5,2l-3.66,2.81c-15.6,3.43-30.44,9.72-43.76,18.52l-4.57.67Z" style="fill: #f19b9e;"/>
  <path d="M435.83,406.81c2.76,4.11,4.46,6.56,8,10,1.09,1.83,2.42,3.5,4,5,8.54,6.19,17.17,13.95,27.65,18.85,9.95,4.65,19.81,6.59,30.35,9.15-.83,2.02-2.78,2.55-5.86,1.59-.52,34.96-13.76,70.2-36.1,95.44,12.89-1.54,38.98-39.09,45.69-50.06l3.27-.97c7.55-13.12,12.48-29.22,16.49-44.69,1.32-.33,1.49-1.09.51-2.31,16.67-2.25,31.65-9.75,44-21,.6,1.03,1.25,2.22,1.1,3.46-1.07,8.53-10.51,26.93-14.83,35.1-33.81,64.09-101.43,134.99-180.78,120.44-24.89-4.56-43.95-18.08-59.49-37l-3.08-2.28c-26.35-72.41,41.4-150.31,115.37-142.72l3.71,2Z" style="fill: #f2a16f;"/>
  <path d="M486.83,255.81c-12.05,3.71-20.42,9.13-30,17l-2.11-.16c-11.21-12.37-29.18-14.24-44.88-15.15-9.92-12.58-30.73-15.38-30.81,5.48-7.47,1.61-10.14,4.52-9.05,12.54l-.74,2.17c-16.48,7.41.94,22.1,12.51,21.81,4.97,2,25.37,22.25,23.68,26.1-.25.56-.58,1.05-1.03,1.38-.89.66-20.81-2.47-21.74-3.07-5.57-7.9-17.92-10.65-21.74.05-5.57,1.41-8.83,5.65-9.77,12.71-15.19,9.03-1.53,27.61,13.1,22.42.78.01,1.58.09,2.31.38,7.58,3.01,25.02,31.63,27.75,39.87,3.13,9.45-2.83,7.2-7.81,1.33-15.59-12.26-33.8-7.49-48.84,2.7-8.54-4.52-15.86-7.09-25.92-4.77-2.18-.17-3.69-.71-3.44-2.97,5.86-17.6,2.28-35.51-13.13-46.78-21.96-13.07-37.23-30.58-52.68-50.64-10.68-12.56-24.04-22.49-38.69-30.09l-1.98-3.29c-2.94.78-4.84.38-4-3-.61-2.47,2.5-2.32,4.46-2.17,2.55.19,23.92-35.38,27.44-42.12-.23-4.86.37-9.67,1.8-14.43l2.31-1.28c4.15.81,1.48,7.13-.51,9.8l.51,2.2,1.31,1.17c.33,18.71,13.31,36.25,29.84,44.56,4.01,3.03,9.17,4.79,15.47,5.27,10.12,1.52,23.91,2.16,31.72-4.39,18.83-8.08,31.83-30.34,34.63-50.31l1.59-.76c-.86-6.32.7-9.7,4.67-10.14,19.2-2.12,39.2,0,58.07,5.17,29.75,9.01,54.84,26.87,75.51,49.01l.19,2.42Z" style="fill: #f19b9e;"/>
  <path d="M591.83,405.81l2.42-2.44c2.96-9.52,7.72-2.42,2.83,3.67l-1.25,6.77c-1.3,8.22-7.51,21.5-11.15,29.35-52.39,113.09-182.4,187.66-307.06,166.36-59.76-10.21-114.43-39.11-157.79-80.71l32.73,8.77c16.7,1.8,32.75,3.82,49.27-.77l.86-.96c-17.61-18.83-14.59-48.72-2.04-69.7l3.18-1.34,1.85,2.27c-1.27,18.23,1.54,35.85,19.42,44.69,41.94,20.74,88.63-34.89,86.85-74.72l1.88-2.24c-2.05-2.56-3.45-4.19-7.16-5.08l-10.88-3.51c-5.32-2.28-.3-9.23,4.05-8.42l2.36-2.11,16.33,4.02c1.51-7.97,4.95-13.61,10.31-16.92,4.04-2.99,6.83,3.38,4.34,7.06-3.91,5.26-5.85,11.36-5.82,18.3-9.25,7.4-10.48,19.81-2.02,28.18l.43,2.33c-24.61,43.12-23.13,100.21,22.28,128.45,2.36,1.47,7.22,2.87,3.19-.35-7.97-4.29-14.52-8.63-20.6-15.84-4.53-5.39-12.06-14.41-10.81-21.14,2.94-.77,2.51.7,3.65,1.84,15.15,15.18,27.04,25.72,48.57,31.44,85.74,22.81,163.08-63.22,193.95-133.62,2.96-6.76,5.92-14.53,7.83-21.67,6.6-6.01,13.54-14.28,18-22Z" style="fill: #e0785e;"/>
  <path d="M308.83,203.81c-1.97-1.83,2.5-6.22,4.2-7.47,26.61-19.47,49.85-32.58,82.79-38.14,79.6-13.43,145.56,27.49,180.16,98.27l-.15,3.33c-1.5,2.65-5.63,12.07-8.5,12.04-.98-.01-13.59-9.11-16.45-10.58-19.48-10.02-38.88-11.74-60.05-6.45l-3.62-1.33c-21.09-25.03-49.92-43.62-81.51-52.31-6.99-1.47-13.53-3.22-19.87-5.35-.39,1.98-3.12,1.52-4,0-10.42-1.41-22.58-1.4-33,0-1.27,2.98-2.43,2.59-4,0-2.85,1.2-6.21,1.76-10.1,1.68-1.68,2.03-4.99,2.8-9.9,2.32h-3c-.88,2.57-3.1,3.57-6.66,3.01l-4.34.99c-.43,2.69-.94,2.43-2,0Z" style="fill: #f2a16f;"/>
  <path d="M456.83,272.81c-.76.62-1.85.98-3,2l-2.41.98c-10.54-8.26-24.5-12.87-37.82-13.1-2.48,6.21-5.02,9.56-11.54,11.82.74,2.6,1.11,5.76-.1,8.27s-6.49,6.15-9.04,7.15c.39,3.86-.54,7.14-2.79,9.84,1.58.47,2.24,1.2,1.7,3.05,1.73-1.65,3.07-.32,4,4,4-.3,8.76,5.07,8,9,7.58,4.12,13.99,14.57,16,23-.09.65.07,1.35,0,2-.77,6.38-2.28,12.14-5.66,2.45-4.17-9.79-15.02-12.73-24.8-13.11,1.68,7.65-2.83,12.39-9.48,14.98-2.34,3.79-5.31,7.33-8.94,10.59,1.05.26,1.34,1.29.88,3.07.71.05,1.42.14,2.08.36,4.35,1.41,24.91,33.04,24.44,37.59-.07.69-.27,1.37-.51,2.05,1.72.12,2.65.8,2.73,2.44,9.55-1.59,19.21-2.05,28.96-1.38l2.31,1.94c.52.91,2.93,3.4,4,5h-24.49c-64.94,6.32-118.29,80.31-91.51,143,4.38,10.25,11.88,20.87,20.53,27.97,3.29,2.7,11.5,6.54,13.19,8.29,2.03,2.1,1.61,4.95-1.97,4.56-6.41-.7-21.49-15.1-25.72-20.35-20.91-26-22.54-63.31-10.79-93.74,1.39-3.61,8.79-16.34,8.75-18.26-.05-2.12-2.62-2.96-3.41-4.54-3.01-6.02-3.94-14.3-.42-20.28,1.32-2.23,5.1-4.44,5.65-6.35.72-2.5.09-5.82.88-9.12,1.7-7.07,10.36-11.63,2.32-15.18l-2.29,1.24c-12.23-4.09-19.71,1.66-23.81,12.81l-2.9.95c-1.03,1.54-3.76,3.78-4.98,5.5-.04,1.56,17.42,4.64,18.82,8.2.42,1.05.08,2.23.16,3.3l-4.07.49c-36.53-14.82-79.37-5.64-102.24,27.62l-3.69,1.89c-13.09,20.25-16.15,46.24-2.83,67.33,1.15,1.83,4.37,4.08,4.83,5.18,1.3,3.14-3.2.23-3.99-.51-16.05-15.09-17.81-40.5-10.76-60.26,9-25.23,29.61-40.61,52.76-51.74,13.34-6.18,29.23-7.48,43.3-5.42,12.26-14.82,18.6-34.42,15.7-53.58-4.07-10.44-9.18-11.55-17-17-5.36-.74-8.69-3.07-10-7-14.46-10.71-19.43-22.22-30.49-35.01-12.2-14.12-31.79-29.71-48.51-37.99-2.1-3.53,1.58-6.16,5-4,33.86,17.45,40.94,30.98,64.02,58.48,13.06,15.56,36.03,21.6,44.16,40.84,4.57,10.81,3.42,21.73-.17,32.67,7.38-.85,13.5-2.03,20.7.81,1.88.74,5.71,3.94,6.79,3.88.65-.03,8.73-5.5,11.15-6.54,15.85-6.76,34.02-4.1,44.86,9.85,1.05-1.29-.7-4.38-1.34-5.66-5.17-10.44-14.9-27.94-23.17-35.83-4.26-4.07-5.78-1.35-10.5-1.41-10.25-.13-18.23-9.92-15.05-20.15,1.13-3.64,5.14-4.65,6.25-6.24,2.35-3.36.03-7.68,5.94-11.58,1.25-.82,3.32-.73,4.1-1.38s1.03-3.01,2.21-4.29c3.92-4.24,11.64-3.98,16.41-1.33,2.25,1.25,4.33,5.08,6.34,5.66,4.96,1.44,13.9-.14,19.29,3.2.72-.85-2.27-4.53-3.01-5.47-3.03-3.85-15.36-17.15-19.23-18.77-2.84-1.19-6.28-.86-9.75-2.25-7.6-3.07-16.34-14.38-7.98-20.99,1.04-.82,3.58-1.29,3.82-1.66,1.16-1.83-1.32-6.9,2.14-11.36,2.97-3.82,7.66-3.2,7.98-3.52.72-.72-2.22-9.17,5.69-13.81,7.88-4.62,16.56-1.67,23.26,3.44,1.42,1.08,1.76,3.6,3.78,4.22,3.52,1.09,12.21.32,17.54,1.46,5.82,1.25,17.4,5.51,22.26,8.74,2.01,1.34,6.15,4.36,6.51,6.99Z" style="fill: #c21d0d;"/>
  <path d="M308.83,203.81c.06,4.36-11.46,8.58-11.97,1.87-.46-6.14,33.78-28.46,36.85-30.19,82.4-46.37,197.07-20.12,256.01,51.02l.1,2.3c-3.41,10.8-8.43,21.18-14,31-4.76-6.63-7.76-14.29-12.05-21.23-56.71-91.59-165.54-107.19-249.42-40.74l-5.53,5.97Z" style="fill: #e0785d;"/>
  <path d="M371.83,358.81c-1.35-1.54-3.95-1.31-2.28-4.72,1.28-2.6,3.94-2.56,5.71-4.35s2-4.69,2.85-5.64c3.22-3.57,8.2-.98,9.7-10.92.35-2.31-1.91-3.97.54-5.35,14.55,1.45,25.54,4.42,29.49,19.98l1.99-6.99c-2.31,20.98,1.49,42.56,12,61-10.99.44-22.35-1.37-32.99,2.01-.21-1.52-.39-3.66-1.01-5.01l.02-2.23c12.71-6.59-10.41-44.21-15.14-45.71-1.71-.54-8.21,4.98-8.74,7.29l-2.14.65Z" style="fill: #e0785e;"/>
  <path d="M337.83,139.81c4.6,7.76,9.2,15.72,10.01,25,66.72-27.43,145.31-17.59,204.31,23.19,11.46,7.92,25.76,19.69,34.66,30.35,1.68,2.02,4.18,4.65,4.03,7.47-.17.64-.7,2.05-1,3-5.21-2.51-9.05-9.43-13.04-13.51-65.12-66.61-186.37-83.91-261.86-24.89-3.12,2.44-14.79,12.19-15.95,15.05-2.16,5.3,8.71-1.43,9.85-1.65.59-.11,1.34.06,2,0,6.77-2.41,9.44-1.74,8,2,.11.47.17.94.08,1.37-.3,1.47-20.79,9.26-23.95,8.74-4.78-.78-4.77-5.19-4.42-9.19,1.2-13.56,37-34.86,49.29-40.92,1.28-1.66,2.08-1.35,3.51-.29l.55-3.02c-4.4-6.08-6.67-14.19-8.1-21.53l2.05-1.15Z" style="fill: #c11d0f;"/>
  <path d="M505.83,449.81c8.25.17,15.84.1,24-1-4.36,14-9.62,27.87-15.78,41.61-.38,1.9-.79,3.7-1.22,5.39-11.47,14.57-16.3,27.51-31.47,41.03-2.72,2.42-15.05,12.74-17.92,11.92-5.56-1.59,1.3-6.41,2.05-7.29,20.2-23.95,28.92-51.1,32.33-82.17.37-3.38-.23-7.06.02-10.48,2.79.91,5.12.94,7.99,1Z" style="fill: #e0785d;"/>
  <path d="M442.83,285.81c-10.45,13.19-20.79,36.3-23,53-5.3-7.66-10.08-15.77-16-23l1.73-1.74c18.44,2.19-7.73-21.69-8-8.68l-1.73,1.42c-1.11-1.15-2.89-2.98-4-4-.84-2.04.11-4.47,2.85-7.3l.25-7.35,6.22-3.92c8.19-26.14,27.68-13.92,41.91-.71l-.23,2.28Z" style="fill: #f2a16f;"/>
  <path d="M490.83,254.81c-1.33.33-2.7.6-4,1-5.02-2.59-8.61-8.41-12.99-12.51-26.3-24.65-62.15-41.46-98.47-43.53-5.19-.3-18.57-.82-23.05.03-3.99.76-3.11,10.45-3.94,14.06-4.19,18.08-17.24,39.51-34.19,47.81-36.93,18.08-77.87-7.53-80.36-47.86-1.34-2.64.08-6.69,2-3,1.78-3.27,3.54-1.84,3.68,1.6-1.85,3.89-3.26,7.26.3,10.11-1.08,7.73,5.27,16.28,11.69,19.75,1.54,6.3,6.43,10.53,14.67,12.71,1.4,4.66,4.61,6.03,9.64,4.1,9.42,2.05,18.85,3.03,28.29,2.96.59-2.03,2.57-2.5,4.48-2.25,1.27-5.78,5.85-6.12,10.89-5.95,4-3.08,6.33-6.69,6.98-10.84,11.17-8.69,14.51-19.17,15.07-32.84.68-2.09,2.4-2.53,4.42-2.55-.91-4.24-.29-6.84,1.89-7.8l1.1-2.18c11.69-1.33,23.61-1.71,35.33-.67l1.57-1.14c38.47,2.62,81.77,28.99,105,59Z" style="fill: #bd1f10;"/>
  <path d="M87.83,254.81c2.51,2.7,1.71,8.66-1,11,1.33,1.36.68,1.96-1,1-23.21,12.02-34.86,23.73-49.6,44.91-1.02,1.47-2.28,4.42-4.4,4.09.3-12.96,1-25.41,3-38,3.26,1.15.63.63.61.48-.59-3.58,41.32-26.29,48.83-24.72l3.57,1.25Z" style="fill: #e1775d;"/>
  <path d="M453.83,274.81c-2.82,2.5-8.83,8.27-11,11-7.69-5.18-18.83-17.95-29.3-14.79-.48.14-7.46,5.84-7.76,6.24-1.52,2.07-1.28,6.11-3.26,8.24-1.47,1.58-5.23,2.11-5.53,2.46-.62.71.17,5.92-.4,8.11s-3.64,4.6-4.76,6.74c-.77-.71-3.68-1.23-3.99-2.56-.26-1.12,2.33-3.26,2.79-5.14s-.3-4.89.66-6.34c.69-1.04,3.57-1.22,4.91-2.09,8.1-5.27,2.8-12.66,3.66-13.82.26-.35,5.63-1.52,7.88-3.64,2.53-2.4,3.19-7.73,4.72-8.27,5.64-2,24.97,4.1,30.76,7,3.86,1.93,6.78,5.01,10.62,6.88Z" style="fill: #e1785c;"/>
  <path d="M88.83,247.81c4.73-.61,2.68,5.84-1,7-11.8,2.48-24.87,7.14-35.31,13.19-5.41,3.14-9.89,7.95-15.15,10.85-1.99,1.09-2.82,2.07-2.54-1.04.47-2.97,1.51-5.44,2-8,16.21-11.25,32.66-18.22,52-22Z" style="fill: #c51d0e;"/>
  <path d="M591.83,405.81c9.97-17.27,15.19-40.62,14.04-60.54-.73-12.7-5.36-14.67,3.67-26.19.64-.81-.03-1.84,2.28-1.26-.03,17.53-1.5,34.92-4.3,52.19-2.42,14.9-5.7,29.91-11.69,43.81.36-2.26-.49-5.13.02-7.32.09-.41,5.21-3.74-.01-6.68.73,3-1.08,5.37-4.01,6Z" style="fill: #ce7f6c;"/>
  <path d="M447.83,421.81c-1.59-1.15-4.96-1.55-4-5,1.5,1.46,4.03,2.17,4,5Z" style="fill: #f2b48f;"/>
  <path d="M193.83,267.81c.83,1.34.43,4.66-.27,5.73-1.91,2.89-11.61,10.86-14.72,13.78-13.48,12.65-27.27,24.39-45.03,29.97-35.86,11.27-50.83-19.32-47.98-50.48.12-.06.36-.68,1-1l1.24-2.08c11.26-5.92,21.85-9.89,31.76-11.92.74-.51,1.5-.99,2.31-1.34,5.99-2.58,29.46,1.55,37.11,3.26s28.86,7.31,33.02,11.9c.59.66,1.09,1.4,1.55,2.18Z" style="fill: #f1bb9d;"/>
  <path d="M129.44,358.2c13.02,8.91,19.32,26.93,14.33,42.04-12.46,37.76-72.79,30.4-72.37-11.94.29-29.5,33.61-46.82,58.04-30.11Z" style="fill: #f1bb9d;"/>
  <path d="M184.83,393.81c1.45-.35,3.64.39,5.3-.02.85-.21.3-1.82,2.14-2.06,7.94-1.03,8.98.95,14.41,3.98.67.38,4.69.74,5.11,2.83.37,1.91.39,7.84.13,9.83-.22,1.7-1.51,1.16-1.99,2.26-.31.72.12,2.05-.41,2.86-1.61,2.51-10.21,9.12-12.53,10.21-7.66,3.62-18.46,7.39-27.72,6.18-1.86-.24-1.29-1.88-2.12-2.07-2.7-.59-4.83,1.02-6.97-2.35-.54-.85-.12-2.12-.43-2.84-.47-1.1-1.75-.56-1.99-2.26s-.2-6.4.26-7.89c.67-2.19,3.2-2.19,3.62-2.9.65-1.11-.1-3.47.19-3.78.35-.37,3.68.35,4.02.01s-.4-3.64,0-4.01c.21-.19,2.43.26,3.71-.3.43-.19,2.24-3.3,2.53-3.41,2.33-.83,4.82-1.61,6.76-2.3,1.28-.27,2.32.65,3.1,2.78.61-2.29,1.57-3.88,2.9-4.78Z" style="fill: #f1a4b0;"/>
  <path d="M209.33,347.81c-2.23.36-9.57,3.71-12,4.99-4.48,2.37-8.27,6.56-12,9.99-1.53-.05-6.72-11.57-7.28-13.69-.59-2.23.2-4.63-.23-6.61-.18-.8-1.82-.25-2.06-2.11-1.02-7.83,1.5-14.6,2.01-21.96,7.26-4,14.38-3.38,21.61.35,6.41,3.31,22.27,18.77,25.53,25.47.59,1.22,1.26,2.04.93,3.57-5.09.57-11.64-.78-16.5,0Z" style="fill: #f2b48f;"/>
  <path d="M197.83,261.81c1.15.54,2.81,2.39,4,3-2.39.14-3.91,2.08-5,4-1.08-.53-2.2-.63-3-1-24.45-11.37-46.99-16.24-74-16-9.33,1.99-18.93,3.46-28.8,4.4l-3.2-1.4c.36-1.95,2.91-5.65,1-7,1.22-.24,3.88-1.84,5-2,.65-.61,1.32-1.18,2.06-1.63,7.35-4.44,41.26-1.19,51.32.38s43.48,8.81,49.12,15.09c.58.65,1.06,1.39,1.5,2.16Z" style="fill: #d44310;"/>
  <path d="M184.83,393.81c-.55,3.06-3.74,4.19-6,2-5.27-21.32,16.15-44.63,37.5-44.79,3.37-.03,22.55,3.42,21.49,8.28-.86,3.94-9.62-1.31-11.99-1.99-18.78-5.37-37.53,7.16-40.9,26.1-.65,3.65.1,7.2-.11,10.4Z" style="fill: #c12008;"/>
  <path d="M243.83,424.81c5.79-2.78,8.81-5.52,15.95-6.55,7.54-1.09,17.87,1.54,23.61-3.39,9.97-8.57,20.11-35.83,19.44-49.06,6.99,17.94-2.67,41.2-14.47,55.1-2.08,1.58-6.09-.92-9.04-1.09-12.64-.73-23.47,1.62-35.49,4.99Z" style="fill: #e27858;"/>
  <path d="M292.61,382c.49.85.14,1.9.22,2.81-3.21-.45-13.08,1.98-11.87-3.37.97-4.32,10.25-1.85,11.65.57Z" style="fill: #bb280f;"/>
  <path d="M285.83,348.81l-12.99-1.01,2.99-5.99c3.28,2.43,6.66,4.67,10,7Z" style="fill: #e17753;"/>
  <path d="M223.81,332.81c.18,2.34,9.32,11.69,8.01,12.99-1.09,1.08-2.78-1.45-3.4-2.09-.96-.99-7.56-8.8-7.58-9.4-.01-.54,2.15-2.07,2.96-1.49Z" style="fill: #b83e19;"/>
  <path d="M514.62,291.11c72.24-4.52,79.84,111.86,10.69,117.68-73.89,6.22-81.88-113.22-10.69-117.68Z" style="fill: #04070a;"/>
  <path d="M93.83,245.81c-1.27-.36-4.42,1.19-3.89-1.37.76-3.63,2.96-9.96,4.17-13.84,13.62-43.72,49.25-98.23,84.49-126.74,15.75-12.74,43.07-27.95,63.11-17.43,13.43,7.06,17.43,23.34,18.12,37.38l-.99,2.08c-30.24,1.54-63.23,20.25-21.35,41.51,8.03,6.37,1.68,24.74-1.38,33.32l-2.28,1.09c-1.05,5.41-2.74,10.55-2.24,16.26-8.42,15.02-18.39,29.17-27.97,43.52l-5.79.22c-31.12-14.53-70.02-20.86-104-16Z" style="fill: #f2b7bd;"/>
  <path d="M337.83,139.81c-.35,3.22,1.12,6.24,2.12,9.18.79,2.31,1.64,4.78,2.53,7.67.73,2.35,3.19,3.86,3.36,5.66.05.56-.81,5.31-1.03,5.49-1.12.92-3.46-1.39-4.99-2-2.25,1.64-7.87.36-9-2-5.4,1.85-3.21-5.61,2.38-3.92-4.28-14.62-11.62-32.92-28.23-36.77-7.86.98-6.21,4.26,4.95,9.82,4.01,3.99-.82,8.97-5.7,6.94-11.84-8.36-27.2-9.74-41.49-9.25l-2.91-1.81c-6.37-4.15,2.06-5.26,6.69-4.48l2.31-.52c3.99-.04,8.59-.33,12.49,0,3.05.27,7.4,2.42,9.93,2.06.78-.11,1.25-9.21,10.31-10.84,12.92-2.32,28.94,11.94,35.51,22.07.58.9.46,2.2.76,2.7Z" style="fill: #d01e0d;"/>
  <path d="M259.83,123.81c2.95-.21,6.03.03,9,0-1.13,2.23-8.31.32-9.01,1-.18.18.07,3.05,0,4-1.36,2.96-11.4,4.82-14,3l-11.48,4.63c-11.51,4.37-15.8,11.23-5.2,19.23,22.69,9.76,18.78,23.47,11.67,43.14,2.26,2.64-1.51,12.07-5,12-.12.19-3.08-.49-2,3-.01-.17-1.04-1.01-1.05-2.42-.02-2.77,1.9-6.35,1.05-9.58,1.35-6.93,6.99-22.89,5.8-28.28-1.56-7.06-22.01-13.05-23.74-22.26-3.9-20.76,29.34-26.39,43.95-27.46Z" style="fill: #d54216;"/>
  <path d="M386.24,452.26c-7.18,6.52-15.28,21.4-23.58,23.88-12.62,3.76-18.81-8.38-13.61-19.6,1.32-2.84,3.65-4.37,4.27-5.75,2.01-4.49-.49-2.14,3.51-6.43,16.64-17.85,42.95-35.19,68.5-32.56,7.14.73,17.78,5.54,20.03,12.96,4.7,15.45-16.43,10.22-25.05,11.04-13.41,1.28-24.29,7.57-34.07,16.46Z" style="fill: #f2b48f;"/>
  <path d="M349.62,502.03c.33.19,4.11,5.66,4.22,6.33.91,5.37-4.23,11.65-9.53,11.41-1.25-.06-2.16-1.34-3.31-1.68-1.31-.39-3.19.02-4-.46-3.3-1.95-2.07-13.82,1.02-15.6.83-.48,10.77-.48,11.59,0Z" style="fill: #f3b38d;"/>
  <path d="M529.83,448.81c.58-.12,2.07-.33,2.01.51-2.07,8.06-4.21,16.16-7,24.01-1.86,5.24-6.3,17.82-9.5,21.54-.66.77-2.38.76-2.52.94-1.09-1.39-1.75-1.81-1.35-3.74.86-4.13,5.61-12.82,7.37-17.74,2.76-7.69,5.37-15.43,7.67-23.27.34-.92,2.59-2.09,3.32-2.24Z" style="fill: #bf1f0d;"/>
  <path d="M313.83,434.81c3.28,43.55-47.23,101.21-90.7,78.2-18.78-9.94-20.72-28.77-19.3-48.2,24.4-37.75,69.45-47.45,110-30Z" style="fill: #f2a16f;"/>
  <path d="M328.83,402.81c-.33,2.82-2.83,3.9-4.19,6.31-1.28,2.28-4.21,11.87-4.74,12.25-2.62,1.87-15.6-4.82-20.07-3.56,2.96-4.42,5.23-12.04,9.94-14.56,5.97-3.19,12.93-3.15,19.06-.44Z" style="fill: #f3a376;"/>
  <path d="M459.43,204.23c11.93,7.3,28.35,20.43,37.37,31.11,3.7,4.39,9.57,14.88-1.02,13.06-5.99-1.03-6.21-5.33-9.41-8.63-17.5-18.07-46.21-36.68-70.54-43.46-5.36-1.49-21.29-1.08-19.78-8.86.89-4.58,10.69-4.11,14.23-3.58,14.02,2.09,36.92,12.88,49.15,20.37Z" style="fill: #f2b48e;"/>
  <path d="M348.83,195.81c10.81-1.1,22.19-1.1,33,0,1.33.06,2.68-.09,4,0-.64,4.75,8.06-.7,7,3.99-4.22,1.32-7.13-1.58-10.44-2.05-8.99-1.26-25.92-.25-34.55,2.05-.21,1.96-1.59,2.83-4.15,2.61-.59,8.17-4,4.1-3.85-1.61-4.24,1.41-10.59-1.16-4.01-3.49,4.75.4,7.75-.1,9.01-1.51,1.32-.09,2.67.05,4,0Z" style="fill: #c11d0f;"/>
  <path d="M344.83,195.81c1.79,2.72.97,1.88-1.48,2-2.83.14-5.69-.1-8.51,0-.71,3.66,2.7.74,4.99,2.99.61,1.31.29,1.75-1,1-3.8,4.15-14.67,5.59-20,4-1.13-2.77-5.32-2.23-8-2,2.78-1.57,7.97-3.58,11-4,6.89.98,7.89.98,3,0,6.01-2.5,13.51-3.57,20-4Z" style="fill: #bd1f10;"/>
  <path d="M381.83,195.81c-10.43-.44-22.57-.43-33,0,1.04-1.66,3.79-1,5.49-1.02,7.33-.09,14.7-.08,22.03,0,1.69.02,4.45-.64,5.49,1.02Z" style="fill: #bd1f10;"/>
  <path d="M324.83,199.81c1.5-.03,6.03-.58,5.5,2l-8.5-2c.92-.13,2.03.02,3,0Z" style="fill: #c11d0f;"/>
  <path d="M397.83,398.81c-6.29-13.65-16.09-28.74-26-40,.11-4.09,8.03-10.45,11.35-9.84s15.87,21.46,17.42,25.56c2.66,6.99,5.93,20.66-2.78,24.28Z" style="fill: #f2a170;"/>
  <path d="M366.83,396.81c4.56.82,9.54,8.58,2.73,7.18l-3.73.82c-1.87.69-6.08,2.84-7.07,4.44-1.12,1.8-.77,4.4-.93,4.57-.45.47-4.14-.71-5.33-.63-5.07.33-9.75,3-12.5,7.29-3.43,5.34-.42,8.22-9.16,6.33.41-19.23,17.95-30.27,35.99-29.99Z" style="fill: #f3a071;"/>
  <path d="M395.83,306.81c-2.22-8.62,5.5-8.85,11.34-4.83,9.55,6.57,10.31,16.47-3.34,13.83-2.45-2.99-5.31-6.22-8-9Z" style="fill: #f2b38e;"/>
  <path d="M403.83,256.81c3.68,16.48-24.68,8.9-18-4,6-3.85,14.02-1.69,18,4Z" style="fill: #f3d9d6;"/>
  <path d="M377.83,265.81c.09,6,9.77,15.64,14.79,9.78l2.21.22c.46,1.68,1.93,2.15.51,5-3.82,7.66-24-1.33-23.5-9.43.19-3.12,2.98-5.46,5.99-5.58Z" style="fill: #deb6b1;"/>
  <path d="M379.83,325.81c5.58,20.46-22.65,7.64-12-5,5.37-2.07,8.7.83,12,5Z" style="fill: #f0dcd8;"/>
  <path d="M377.83,265.81c3.42-.13,6.11,3.84,10.01,5.48,1.8.76,6.61,1.43,6.88,1.66.53.48-.08,2.16.11,2.85-3.69,6.58-9.6,3.41-14.04-.46-2.95-2.57-6.14-6.07-2.96-9.54Z" style="fill: #f4d9d5;"/>
  <path d="M365.83,404.81c2.01-.75,3.31-1.6,6-1.01l-5-6.99c8.4.13,15.41,3.03,20.98,9.5-8,6.96-12.57-4.4-21.98-1.5Z" style="fill: #e4765a;"/>
  <path d="M335.83,433.81c7.18,6.39-6.91,13.37-8.01,20-5.61-4.58-6.71-13.39-1.99-19,1.47,1.41,2.77,3.29,3.9,5.64,1.53-4.12,3.57-6.34,6.1-6.64Z" style="fill: #e4b1ae;"/>
  <path d="M381.83,287.81c3.22.46,3.77,2.91,1.3,5.07-4.26,3.72-11.21-.5-15.3-3.07-2.84-3.8-3.27-8.79,2.71-8.8.66,0,8.71,5.71,11.29,6.8Z" style="fill: #f0dbd4;"/>
  <path d="M353.83,333.81c1.22-2.64.33-4.95,4.99-5,.35,6.67,5.41,10.01,10.01,14,2.7,1.74.8,2.98-1.77,3.87-4.85,1.69-8.19-1.54-11.23-4.87-3.6-.36-4.26-3.02-2-8Z" style="fill: #f2dad3;"/>
  <path d="M342.84,433.8c-4.66-6.67,8.04-21.02,13.06-13.53.71,1.05,1.22,1.08.49,2.52-.32.63-9.19,8.46-10.55,9.52-1,.78-1.28,1.93-3,1.49Z" style="fill: #ebb8b2;"/>
  <path d="M367.83,320.81c-4.63,4.86,3.96,17.26,9.55,13.09,3.11-2.31,1.2-5.23,2.45-8.09,2.52,3.19,4.24,4.81,1.87,9.36-6.82,13.1-26.71-9.4-13.87-14.36Z" style="fill: #e1b4b2;"/>
  <path d="M403.83,256.81c1.27,1.81,2.71,1.39,2.01,5.46-2.5,14.44-33.23-.97-20.01-9.46-.31,11.66,15.83,17.54,18,4Z" style="fill: #e6b4b1;"/>
  <path d="M361.83,353.81c-1.55,7.08-13.53.58-14.06-6.51-.29-3.9.6-3.96,2.06-6.49l2.54-.19,5.58,7.43c2.05,1.59,3.34,3.51,3.87,5.76Z" style="fill: #efcac6;"/>
  <path d="M335.83,433.81l-5.02,8.99c-3.82-.2-5.3-4.8-4.98-7.99,3.08-3.65,6.27-4.32,10-1Z" style="fill: #f3d5d1;"/>
  <path d="M368.83,342.81c.68-.21,2.92,1.14,4,1.01-1.62,4.4-5.09,7.31-10,5.99-2.55,2.85-9.51-5.46-7-8,4.36,2.13,5.9,4.08,11.36,2.8,1.35-.32,1.53-1.77,1.64-1.8Z" style="fill: #e3b7b2;"/>
  <path d="M355.83,341.81c1.09,2.25,4.64,7.37,7,8-1.67.7-.75,2.84-1,4-5.2-3.23-7.89-8.75-12-13,1.24-2.15,2.85-4.51,4-7-.57,3.24.71,5.32,2,8Z" style="fill: #ac2d24;"/>
  <path d="M374.82,410.82c1.89,1.93-1.7,1.97-2.2,2.23-3.62,1.92-6.88,4.39-10.78,5.75-2.93-7.72,9.27-11.79,12.99-7.99Z" style="fill: #e9b7ab;"/>
  <path d="M381.83,287.81c1.62.68,3.66-1.28,3.95,3.6.53,8.88-14.07,3.61-17.95-1.6,5.16,1.23,10.81,5.72,15.02.51,1.79-2.22.42-1.03-1.02-2.51Z" style="fill: #e3b3a8;"/>
  <path d="M330.83,163.81c3.5-.7,5.95.78,9,2,.13,2.08,1.98,1.99-.28,3.21-3.49,1.89-8.12,3.27-11.07,4.94-8.21,4.65-30.71,21.31-34.85,29.14-1.38,2.61-2.32,9.96.87,10.75,3.96.98,19.19-6.5,24.33-8.05,6.48-1.94,13.62-2.51,20-4,3.63,3.07,2.33,6.98.75,11.72-6.94,20.71-34.5,52.79-58.87,45.23-26.56-8.24-31.25-52.95-26.23-76.12,1.18-5.42,3.64-16.07,9.35-16.83.22-3.3,6.65-7.74,10.59-10.02,15.22-8.78,30.48-2.89,41.44,9.53,3.79,2.79,9.32-.26,12.96-2.28l2.02.77Z" style="fill: #f3c853;"/>
  <path d="M255.83,157.81c3.83-4.42,7.89,4.22,8,8-14.36,18.23-10.83,63.28,3.47,81.03,25.61,31.79,66.5-12.8,72.09-39.98.31-1.52,1.27-4.09-.56-5.05.23-.05.61-.81,1-1,2.06,2.02-.19,4.7,1.99,5-.99-6.92,1.41-4.77,6.01-6-.27,1.71.38,9.67,0,10.01s-3.47-.45-3.97.03c-1.31,1.26-1.52,12.54-2.14,15.34-1.17,5.29-6.79,11.69-10.25,16.27-.71.94-2.63,1.27-3.58,3-2.57,4.65,2.95,2.42-4.9,7.97-1.22.86-1.49,2.79-2.81,3.23-2.16.73-5.43-.49-7.78,1.22s-1.24,4.56-1.6,4.9c-.38.37-3.04-.25-4.28.05-.84.2-.27,1.82-2.12,2.07-2.1.28-11.09.32-12.88-.1-5.17-1.21-10.8-2.5-17.18-2.78-1.77-.08-3.7,1.38-5.83.7s-1.88-3.68-2.9-4.65c-1.46-1.39-10.34-4.74-12.33-6.17-2.43-1.75-2.31-6.47-3.67-7.84-.77-.78-2.67-.62-3.52-1.46-.55-.55-8.05-11.7-8.22-12.46-.46-2.08.4-4.56-.05-6.62-.17-.78-1.8-.26-2.06-2.11-.43-3.06.35-4.48,1.07-7.07.4-1.42,2.76-2.82-1-2.5.81-1.35,3.74-9.33,5-12,3.77-12.62,7.76-25.27,11.99-37.96l3.01-3.04Z" style="fill: #d82012;"/>
  <path d="M119.83,251.81c.62,3.01-1.55,1.68-3.18,2.27-10.04,3.6-20.25,6.98-29.82,11.73-.14-3.66.34-7.43,1-11,11.54-2.43,20.26-2.9,32-3Z" style="fill: #e9a487;"/>
  <path d="M184.83,393.81c-.18,2.85.56,5.28-2.62,6.94-3.27-.38-2.87-2.84-3.38-4.94,1.97-.7,3.97-1.5,6-2Z" style="fill: #e46374;"/>
  <path d="M513.58,300.07c60-8.25,72.25,85.14,18.27,98.27-63.75,15.51-78.25-90.02-18.27-98.27Z" style="fill: #f2fefe;"/>
  <path d="M259.83,128.81c12.01-.97,26.29.24,37.7,4.8,4.14,1.65,10.09,8.88,12.29,1.72-1.97-1.66-13.54-7.72-12.99-9.99.27-1.1,6.16-4.16,7.65-4.24,1.4-.08,5.23,1.28,6.6,1.96,8.78,4.34,13.3,10.84,17.6,19.39,2.8,5.56,5.26,11.95,7.11,17.9.92,2.94-5.19.75-5.97,1.47-.53,2.06.97,1.87.99,1.99.15.64-4.93,3.08-6.03,3.47-10.38,3.58-9.97-1.44-16.49-6.44-15.36-11.78-30.1-8.55-42.73,4.64-.24.25-1.02-.59-1.75.34-3.53,0-2.43-7.9-8-8-2.3-1.12-1.96-2.45,1-4l-1.41-2.08c4.08-8.22,4.94-12.94,2.36-21.81l2.05-1.12Z" style="fill: #f23119;"/>
  <path d="M245.83,131.81l.42,2.06c-6.69,4.62-7.45,8.46-2.28,11.5,4.43,2.73,8.71,5.54,12.86,8.44-.39,1.31-.6,2.69-1,4-4.44,14.69-8.4,27.05-15,41-2.38-1.25-.34-3.25,0-4.5,2.22-8.16,5.56-15.51,2.94-23.94-3.56-11.46-26.13-10.86-21.96-27.86.47-1.93,9.85-7.19,12.15-8.07,3.78-1.45,7.73-3.11,11.87-2.63Z" style="fill: #e55140;"/>
  <path d="M259.83,128.81c-.38,5.91,1.3,6.7,1.98,10.57.33,1.87-3.88,10.76-4.98,14.43-2.43,2.02-2.06.52-3.13-.13-4.07-2.48-14.06-7.3-15.36-11.87-.72-2.51,4.99-8.83,7.49-10,3.64-1.7,9.91-2.67,14-3Z" style="fill: #f36d4f;"/>
  <path d="M289.6,432.03c.27.33,2.27,7.57,2.28,8.26.08,6-6.11,13.28-10.46,17.08-7.85,6.85-21.1,13.45-31.06,16.47-8.16,2.47-26.12,5.93-29.97-4.09-6.14-16.02,16.65-31.47,29.47-36.41,6.72-2.59,21.69-6.47,28.41-5.47,1.22.18,10.96,3.69,11.33,4.16Z" style="fill: #f2b490;"/>
  <path d="M273.83,219.31c.77,4.05,6.95,13.95,10.67,16.32,6.79,4.34,6.39-.33,11.08-1.59,7.69-2.06,11.03,5.56,4.76,10.77-9.18,7.63-23.94,2.11-29.89-7.13-4.72-7.34-4.92-13.34-6.63-21.2-.16-.74-1.78-.6-1.96-1.36-.6-2.5-.36-14.73-.03-17.82.61-5.61,5.14-17.44,12.01-11.99,1.32,10-1.78,24.62,0,34Z" style="fill: #f2d471;"/>
</svg>