<?xml version="1.0" encoding="utf-8"?>
<!-- Generator: Adobe Illustrator 24.0.2, SVG Export Plug-In . SVG Version: 6.00 Build 0)  -->
<svg version="1.1" id="Layer_1" xmlns="http://www.w3.org/2000/svg" xmlns:xlink="http://www.w3.org/1999/xlink" x="0px" y="0px"
	 viewBox="0 0 723.9 940" style="enable-background:new 0 0 723.9 940;" xml:space="preserve">
<style type="text/css">
	.st0{fill:#030203;}
	.st1{fill:#FCD824;}
	.st2{fill:#EC2123;}
	.st3{fill:#EACB21;}
	.st4{fill:#F2D423;}
	.st5{fill:#DCC020;}
	.st6{fill:#040405;}
	.st7{fill:#050304;}
	.st8{fill:#010100;}
	.st9{fill:#010101;}
	.st10{fill:#060404;}
	.st11{fill:#0D0B05;}
	.st12{fill:#EF548E;}
	.st13{fill:#AA9F1B;}
	.st14{fill:#F7F8F7;}
	.st15{fill:#F5F6F4;}
	.st16{fill:#ED2123;}
</style>
<title>Asset 10@</title>
<g id="Layer_2_1_">
	<g id="Layer_1-2">
		<path class="st0" d="M709.7,336.5c-61.5,18.8-121.2,42.4-178,72.9c-4,2.2-7.9,4.8-13.5,6.1c0.8-12.5,0.6-25-0.6-37.5
			c-0.6-6,1.4-9.9,5.9-13.7c19.6-16.5,38.3-34.1,56.1-52.7c33.5-34.9,65.7-70.9,91.6-112c13.9-22,26.2-44.9,34.7-69.6
			c3-8.9,1.2-10.7-8.2-8.9c-18.6,3.6-35.4,11.7-51.7,20.7c-68,37.8-127.8,85.5-177.2,145.8c-0.8,1-1.7,2-2.5,3.1
			c-1.8,2.5-3.7,2.3-5.9,0.7c-1.9-1.4-3.8-2.7-5.8-3.9c-53-32-110.3-45.4-172-40.3c-6.6,0.5-13.1,1.6-19.7,2.4c-0.5-0.9-0.9-2-1.1-3
			c-4-39.8-10.7-79.2-20.1-118c-7.7-32.1-16.6-63.8-29.9-94.1c-4.6-10.4-9.6-20.6-16.3-29.8c-4.8-6.6-7.4-6.3-11.3,1.1
			c-0.8,1.5-1.4,3-2.1,4.5c-12.2,24.9-17.2,51.8-20,79c-7,68.1-1.5,136.9,16.3,203c1.5,5.8,1,10-2.3,14.8
			c-10.7,15.4-18.5,32.5-22.9,50.7c-5.8,24.4-15.5,47.4-24.6,70.6c-0.7,1.7-0.5,4.2-1.8,4.3c-6.8-6.2-12.9-11.8-19-17.4
			c-3.8-3.4-6.2-7-6.4-12.8c-0.2-8.4-5.1-10.8-11.9-5.6c-5.5,4.3-9.1,3.6-13.3-1.1c-1-0.9-2-1.7-3.2-2.3c-3.6-2.1-6.4-1.1-8.4,2.3
			c-0.8,1.5-1.3,3-1.7,4.7c-0.9,3.5-2.5,5.3-6.4,3.7c-1.3-0.4-2.6-0.7-3.9-0.7c-6.4-0.6-7.5,0.1-8.4,6.6c-0.2,1.6,0.2,3.3-1.4,4.5
			c-10.2-1-10.4-1-11.1,8.1c-0.2,2.7-1.2,3.9-3.4,5.3c-6.6,4.5-6.8,5.8-1.8,12.6c2.4,3.3,4.4,6.5,5,10.7c1.2,8.2,2.6,16.4,4.3,24.6
			c8.8,42.1,18.8,83.8,38.2,122.6c16.7,33.3,33,66.8,49.5,100.3c8.1,16.5,8,16.5-0.8,32.8c-2.1,4-4.3,6.2-9.1,5.8
			c-5-0.3-10,0.3-14.8,1.6c-19.5,5-34.5,16.8-47.7,31.4c-2.8,3.1-5.5,6.2-8.6,9.7c-1.7-2.1-2.7-3.4-3.7-4.7
			c-2.2-2.9-3.8-6.7-6.6-8.7c-5-3.6-11-5.6-15.5-10.1c-0.7-0.7-3.1-1-3.7-0.4c-4.8,5-12.6,7.6-12.9,16.4c-0.3,8.1,1,16,2.7,23.8
			C11.1,834.8,27,870.3,44.9,905c3.3,6.5,7.8,12.4,12,18.4c3,4.4,7,8.1,11.7,10.7c6.5,3.5,11.5,3.2,16-2.5c3.5-4.4,7-4.8,12-4.2
			c27.8,3.4,55.8,4.7,83.8,3.7c30.6-1,61.2-1.9,91.9,0.2c46.3,3.2,92.6,3,138.9,2.5c16.3-0.2,32.6-1,48.8-3.6
			c5.1-0.8,9.2-0.3,13.4,4c7.8,8,15.3,7.6,23.7,0.2c5.8-5.1,9.8-11.8,13.5-18.5c20.1-36.1,32.8-74.8,39.4-115.7
			c1.6-9.8,1.5-18.6-5.2-27.2c-5.7-7.3-7.5-8.4-14.2-1.4c-6.2,6.5-12.9,12.5-18.4,21c-6.5-9.6-12.7-18.6-21.4-26.9
			c4.2-2.9,7.1-5.1,10.1-7.1c3-2,6.2-3.8,9.2-6c4.9-3.7,5.1-6.3,0.2-10.2c-4.4-3.5-9.2-6.6-13.8-9.9c-3.1-2-6-4.2-8.7-6.6
			c-2.6-2.4-3.1-5.2,1.1-6.9c2.2-0.8,4.3-1.7,6.5-2.5c21-7.5,42-14.9,63-22.4c12.3-4.4,12.3-4.4,6.7-15.7
			c-12-24.2-23.9-48.4-35.7-72.6c-2.9-6-2.8-6,2.9-8.7c1.2-0.6,2.4-1.1,3.7-1.6c47.4-20.4,94.7-40.9,142.2-61.1
			c6.1-2.6,9.5-6.2,11.7-12.4c8.2-23.7,13-48.2,17.8-72.7c6.5-33.3,10.8-67,15.4-100.7C725.1,333.7,723.8,332.2,709.7,336.5z
			 M478.1,669.8c-3.8-12.1-4-24.3-4.9-36.8c9.5,9.6,18,20.1,25.4,31.3C491.5,667.2,485,668,478.1,669.8z"/>
		<path class="st1" d="M129.5,738.8c13.4-32.1,29.9-62.9,34.7-99.4c-7,1.9-6.8,6.2-7.9,9.2c-5.6,15-11,30-16.5,45
			c-1,2.7-1.5,5.8-4.2,7.9c-2.7-1.3-3.2-4-4.3-6.3c-14.8-29.8-29-60-44.4-89.5c-20.2-38.8-32-80.3-41-122.7
			c-2.4-11.4-4.4-22.9-6.2-34.4c-0.7-4.7-2.9-8.6-5.5-12.3c7.1-4.4,7.1-4.4,8-11.4c0.6-0.2,1.2-0.7,1.7-0.6
			c11.9,2.6,12.3,2.2,10.6-10.2c4-2.2,7.7,2.1,11.5,0.7c4.6-1.8,2.8-7.1,5.4-10.8c4.2,1.9,7.3,4.1,5.2,9.6c-0.6,1.6-0.8,3.3,1.3,4.1
			c1.9,0.7,3.1-0.7,4.2-1.9c3.1-3.3,5.6-7.3,9.8-10c1,6.8,1.1,6.7,5.6,11.3c6.8,6.9,13.4,13.9,20.1,20.9c3.9,4,4.6,8.2,2.7,13.7
			c-3.3,9.7-6.5,19.5-7,30c-0.9,19.3,4.7,36.8,13.6,53.6c6.5,12.4,14.6,23.9,24.1,34.3c22,23.7,44.4,47.1,73.5,62.5
			c3,1.6,7.1,6,9.4,2.5c2.6-3.9-3.3-5.5-5.9-7.4c-25.2-18.8-49.5-38.4-70.1-62.3c-8-9.3-15.5-19-21.6-30.3
			c20.5-11.1,25.9-29.3,22.6-50.2c-2.5-16.2-11-28.5-29.4-31.1c-0.4-4.4,1.7-7.9,3.1-11.5c11.2-28.5,22.5-56.9,30.3-86.6
			c7.5-28.6,23.5-52.7,44.9-73.3c2.3-2.2,7.3-4.6,5.3-7.4c-2.9-3.9-6.3,0.9-9.2,2.5c-6,3.5-10.8,8.6-16.6,14.3
			c-4.6-13.2-7.1-25.5-9.5-37.7c-7.7-39-10.3-78.5-10.2-118.3c-0.2-4.7,1.4-9.2,4.5-12.8c11.9-14.1,26.8-23.9,43.9-30.3
			c5.9-2.2,6.7-1.8,8.4,4.3c8.6,31.1,16.4,62.5,21.2,94.4c2.6,17.4,4.6,35,7.3,52.4c0.9,6.2,0.9,11.2-6.1,13.6
			c-1.5,0.5-3.3,1.7-2.6,3.6c0.8,2.6,3,1.9,5,1.5c11-2.5,22-5.2,33.3-6.4c40.2-4.3,79,2.3,117,15c18.4,6.1,35.9,14.1,52.1,25
			c7.5,5,7.5,5,4.4,13.4c-0.8,1.8-1.4,3.7-1.9,5.7c-0.1,1,0.2,1.9,0.9,2.6c1.1,0.8,2.7,0.6,3.5-0.5c0.7-0.7,1.3-1.5,1.8-2.4
			c36.6-54.6,85.6-96.4,138.8-133.9c6.2-4.4,12.7-8.5,19-12.6c3.5,2,4.4,5.4,5.8,8.2c9.1,18.7,11.9,39.9,8,60.4
			c-0.8,4.4-3.2,8-6,11.3c-37.9,45.4-79.1,87.5-125.3,124.5c-1.3,1-2.6,2.1-3.8,3.2c-0.8,0.6-1.1,1.7-0.7,2.7
			c0.6,1.7,2.1,1.5,3.3,1.3c1.6-0.4,3.2-0.9,4.7-1.5c1.6-0.5,3.2-1.1,5.5,0.1c1.3,18.4,1.2,36.9-0.2,55.3
			c-3.2,39.9-11.2,79-22.1,117.6c-11.2,39.8-37.1,66.1-74.2,82.4c-3.7,1.6-7.4,3.2-11,4.8c-1.3,0.4-2.2,1.7-2,3.1
			c0.4,2.3,2.4,2.2,3.9,1.9c3.6-0.7,7.1-1.6,10.6-2.7c15.4-5,28.9-13.5,41.4-23.7c1.5-1.2,2.5-3.3,5.4-2.9
			c2.2,8.2,2.2,16.7,2.8,25.2c0.2,3-1.7,4.9-3.7,6.7c-3.7,3.4-7.6,6.6-11,10.2c-7.8,8.3-5.8,14.9,5.3,18.1c2.5,0.7,5.3,1.5,7.8,1.2
			c6.4-0.9,7.5,3,9,7.9c4.3,13.7,3.4,25.3-10.6,33.3c-3.4,1.9-6,5.3-8.5,8.4c-4.9,6.2-3.6,11.9,3.5,15.4c4.5,2.2,9.5,3.2,14.5,3.1
			c7.5,0,7.5,0,7.5,7.3c0,2,0,3.9,0,6.9c-14.1-3.9-26.9-2.4-39,4.1c-6.7,3.6-13.2,7.4-17.7,14.1c3.5,3.3,6,1.2,8.4-0.3
			c7.1-4.3,14.7-7.8,22.7-10.2c12-3.9,22.4-1,31.8,6.4c8.8,6.9,14.8,16.1,20.5,25.6c2.2,3.7,1.2,6.8-0.7,10.3
			c-5.3,9.3-9.6,19-12.9,29.2c-0.7,2.2-1.3,4.5-1.7,6.8c-0.2,1.2,0,2.9,1.9,2.9c1-0.1,1.8-0.5,2.4-1.3c1.6-2.5,3-5.2,4.4-7.8
			c7.1-13.6,13.5-27.5,21.9-40.3c1.3-1.9,2.1-4.2,5.2-5.5c-0.3,8.5-3,16.2-4,24.1c-0.3,2-1,3.9-1.1,5.8c-0.1,2.2,2.1,3.3,3.2,2.1
			c2.8-3.1,4.8-6.7,10.2-5.7c1.2,0.2,3.1-3.8,5.3-6.7c1.1,3.7-0.5,6.2-1.1,8.8c-7.4,31.6-17.8,62.1-33.7,90.5
			c-3.3,5.8-6.6,11.6-11.4,16.4c-6.2,6.1-10.2,5.8-15.7-0.8c-3.1-3.8-4.7-8.8-9.9-12.5c-1.3,6.9-5.5,8.6-11.7,9.1
			c-16.9,1.3-33.8,3-50.8,3.1c-40,0.3-80,0.7-119.9-2.3c-36-2.7-71.9-1.5-107.9-1.2c-24.6,0.2-49.3,0.4-73.8-2.5
			c-10.2-1.2-10.3-0.9-10.8-10.9c0-1.3-0.1-2.7-0.3-4c-0.2-0.9-0.5-1.9-1.8-2.1c-1-0.2-2,0.3-2.4,1.3c-1.4,3.7-2.4,7.6-4.1,11.2
			c-2,4.4-2.6,10.9-8,11.7c-5.2,0.8-8.6-4.4-11.5-8.4c-3.9-5-7.4-10.3-10.5-15.8c-16.2-30.3-30.1-61.6-39.2-94.9
			c-0.6-2.2-1.3-4.5-0.7-6.9c0.5,0.1,1.3,0,1.5,0.3c1.9,2.5,2.1,8.2,5.6,7.1c5-1.5,0.9-6.3,1-9.6c-0.1-1.7,0-3.3,0.2-5
			c3.1,6.2,4.4,13.1,7.8,19.1c0.9,1.6,2,4,4.4,2.9s1.5-3.4,1.1-5.2c-1.5-7.8-3.2-15.7-4.8-23.5c-0.5-2.2-1.1-4.3-0.4-6.9
			c3.7,1.7,4.4,5.2,5.9,8c10.3,19.1,17.8,39.4,25.4,59.7c1.2,3.2,0.7,9.8,5.8,8.5c4.1-1,1-6.5,0.6-9.8c-1.4-12.8-7-24.2-12-35.8
			c-1.6-3.7-2.8-7.6-4.9-10.9c-4.9-7.5-2.9-13.1,2.7-19.4c13-14.7,27.2-27.5,46.6-32.9c15.8-4.3,30.3-1.1,44,7.2
			c7.8,4.7,14.3,10.8,20.5,17.4c1.4,1.4,2.9,3.3,5,2c2.5-1.6,0.5-3.6-0.4-5.2c-6.5-11.8-16.5-19.9-28.6-25.4
			C137.3,742,133.6,740.5,129.5,738.8z"/>
		<path class="st1" d="M714.3,345.7c0.6,8.6-1.4,17-2.6,25.4c-6.2,43.1-12.2,86.3-23.8,128.4c-2.2,8-3.1,17-8.2,23.3
			s-14.5,7.6-22.1,10.9c-43.6,18.9-87.3,37.8-131,56.5l-0.9,0.4c-10.8,4.8-10.8,4.8-5.8,15.1c11.4,23.3,22.9,46.6,34.3,69.9
			c1.4,2.9,3.7,5.6,3.4,9.8l-51.3,18.3c-5.6,2-11.3,4-16.9,6c-3,1.1-5,0.7-5.5-3.1c-1.1-7.6-2.5-15.1-4-22.6
			c-0.8-4.1,0.5-6.1,4.8-6.8c5.9-1,11.7-2.5,17.5-4c10.6-2.6,11.4-4.4,4.9-12.8c-10.4-13.4-20.9-26.8-31.3-40.2
			c-8.2-10.5-8.3-13.7-0.5-24.5c7-9.7,12.5-20.5,16.3-31.9c10.2-30.6,17.5-62.1,21.8-94.1c1.7-11.9,3-23.8,3.8-35.7
			c0.3-5.5,2.6-8.5,7.1-10.9c9.7-5.1,19.2-10.8,29-15.6c49.1-23.9,99.4-44.8,151.8-60.5C707.9,346.1,710.6,344.6,714.3,345.7z"/>
		<path class="st2" d="M121.5,485.4c-0.3-5.9,0.5-11.8,2.2-17.4c1.5-5.6,3.8-6.7,9.6-5.2c5.3,1.3,9.7,4.7,12.3,9.5
			c7.6,14.6,8.2,29.3-0.3,43.7c-1.2,2-2.7,3.8-4.5,5.3c-7,6.4-9.4,5.9-12.6-2.7C124.1,508.1,120.9,497.3,121.5,485.4z"/>
		<path class="st3" d="M458,731.6c4.5-6.9,11-10.7,17-16c3.7,5.5,2.3,11.2,2.7,16.5c0.1,2.2-2.2,3-4.3,3.1
			C468.1,735.6,463.1,734.9,458,731.6z"/>
		<path class="st4" d="M487.8,756.5v-18.7c5.4,1.8,8.9,5.7,13.8,8.6C498.1,751.3,493.4,753.6,487.8,756.5z"/>
		<path class="st5" d="M453.9,665.1c0.2-3.3,2-4.4,3.5-5.5c2.5-1.9,4.4-4.9,7.8-5.6c2.5,3.9,4.1,9.1,1.6,12
			C463.5,669.8,458.4,666.4,453.9,665.1z"/>
		<path class="st6" d="M295,858.8c-13.1,7.2-13.4,7-17-5.3c-0.8-0.8-1.7-0.7-2.6-0.4c-9.6,2.9-11.5,1.9-11.6-7.7
			c-0.1-4.4-1.2-6.3-5.5-7.8c-7-2.3-8.2-5.8-3-10.8c7.9-7.5,9.8-17,12.1-26.7c11.4-47.7,32.8-90.6,61.3-130.2
			c4.9-6.8,10.9-12.6,16.9-18.4c1.7-1.6,3.4-3.2,5.7-3.8c1-0.3,2,0,2.7,0.8c0.7,0.7,0.9,1.9,0.3,2.7c-0.8,1.1-1.6,2.1-2.4,3.1
			c-33.2,39.2-56.7,83.7-72.1,132.5c-2.4,8-4.4,16-6,24.2c-1.3,6.7-2.9,13-9.7,17.6c6.4,2.8,10.8,6.5,7.5,15
			c9-3.3,15.3-2.1,16.5,7.7c9.7-3.8,9.7-3.8,18.1,6c4.1-0.6,6-5.3,10.1-5.7c4.7-0.5,5.3,4.5,8.1,6.5c19.7-25.2,44-46,65.6-69.4
			c17-18.5,32.9-37.6,46.4-58.8c1.6-2.5,2.9-7.9,6.6-5.8c4.2,2.3,0.4,6.5-0.9,9.5c-7,15.7-17.4,29.2-28.6,42
			c-20.6,23.6-42.5,46-64.9,68c-6.5,6.3-12.2,13.1-16.5,21.2s-6.3,8.4-13,1.4c-2.6-2.7-4.1-3-7.5-1c-7.6,4.7-8.3,4.3-13.8-2.8
			L295,858.8z"/>
		<path class="st7" d="M269.3,613.4c-7.2-0.9-13.9-4.3-19-9.5c-7.9-8-13.1-17.5-17-28c-9.1-24.6-12.9-50.2-13.5-76.4
			c-0.1-5.6-0.7-10.3-5.2-14.3c-2.7-2.4-4.1-6-4.8-9.7c-0.3-1.4-0.3-2.9,0.9-3.6c1.2-0.7,2.8-0.4,3.6,0.7c1.6,1.7,3.1,3.5,4.6,5.3
			c5.1,6.5,11.6,8.2,19.6,6.6c7.8-1.6,15.5-3.8,23.1-6.3c10.7-3.5,20.6-2.7,30.5,3.7c10,6.5,20.8,11.8,31.2,17.9
			c8.4,4.9,17,5.1,25.9,1.5c1.8-0.8,3.7-1.4,5.7-1.9c1-0.1,1.9,0.3,2.5,1c0.4,0.9,0.3,1.9-0.1,2.8c-1.4,2.3-3.3,4.5-5.8,5.4
			c-6.7,2.1-8.5,7.4-10.3,13.4c-6.3,20.8-15.8,40.4-28.3,58.1c-6.6,9.7-14.6,18.2-23.8,25.4C283.1,609.9,276.3,612.6,269.3,613.4z"
			/>
		<path class="st8" d="M439,442c-0.4,11.4-3.7,20.1-10.9,27.3c-15.2,15.2-39.3,12.3-50.4-6.5c-7.9-13.5-7.7-27.4,1-40.6
			c8-12,19.5-17.1,33.7-14.3c13.9,2.7,21.5,12.5,25.4,25.4C438.7,436.5,438.7,440,439,442z"/>
		<path class="st9" d="M169.2,403.7c-0.1-19.7,14.3-34.6,32.6-33.8c1.3,0,2.7,0.1,4,0.3c16.3,3.2,26.4,19.2,24.2,38.1
			c-1.9,16.5-15.9,28.6-32.1,27.8C181.9,435.4,169.3,421.1,169.2,403.7z"/>
		<path class="st10" d="M427,592c-23.2-0.1-41.1-18-41.1-41.2c0.1-22.9,18.8-41.4,41.8-41.2c22.9,0.1,41.4,18.8,41.2,41.8
			C468.5,574.3,450.2,592.1,427,592z"/>
		<path class="st11" d="M278.5,449.1c1,0.1,2,0.2,3,0.4c4,0.7,7.9,1.8,9.5,6.1c0.8,2.2-0.9,3.8-2.5,5c-3.6,2.7-7.5,4.4-12,2.5
			c-0.6-0.3-1.2-0.6-1.7-1c-3-2.3-6.1-5-4.8-9C271.3,449.3,275.3,449.5,278.5,449.1z"/>
		<path class="st12" d="M270,604.8c-4.3-0.3-8.4-2.1-11.7-5c-6.2-5.3-10.3-12.2-13.8-19.3c-8.7-17.5-11.5-36.7-14.4-55.7
			c-0.1-2,0.2-4,0.9-5.8c0.9-2.8,2.3-5.5,3.3-8.3c6.5-19.1,22.8-23.3,40-25.9c3.8-0.6,7.1,1.4,10.2,3.3c8.4,4.8,16.7,9.6,25,14.5
			c6.3,3.7,12.6,7.6,19.8,9.1c4.6,1,5.1,3.4,3.9,7.2c-9.1,27.8-21.7,53.6-42.8,74.5C284.7,598.8,278.4,603.6,270,604.8z"/>
		<path class="st13" d="M228.5,501c-0.8-3.3-1.9-6.2,2.1-7.4c0.7-0.2,2.5,0.5,2.5,0.9C233.2,497.2,232,499.3,228.5,501z"/>
		<path class="st14" d="M410,428.5c0.2,7-3.3,11.3-9.5,11.5s-10.6-4.3-10.7-10.5c-0.1-6,4.5-11.5,9.8-11.8
			C405.4,417.5,409.8,422,410,428.5z"/>
		<path class="st15" d="M215.3,393.8c-0.3,5.2-4.8,9.8-9.6,9.6s-9.3-5-9.2-10c0.1-5.6,5.1-10.5,10.2-10.1
			C211.5,383.7,215.6,388.6,215.3,393.8z"/>
		<path class="st16" d="M460.1,550.8c0,18.8-14,32.8-32.7,32.9c-18.2,0-32.9-14.8-32.9-33c0.1-17.6,16-33.1,33.6-32.8
			C445.9,518.4,460.2,533,460.1,550.8z"/>
	</g>
</g>
</svg>
