<?xml version="1.0" encoding="UTF-8"?>
<svg id="Layer_1" data-name="Layer 1" xmlns="http://www.w3.org/2000/svg" viewBox="0 0 680 680">
  <path d="M351.08,0l38.33,4.16c148.6,17.84,285.15,158.8,289.59,309.84.27,3.27.6,6.6,1,10v40l-6.29,42.21c-27.82,141.96-147.5,253.79-291.26,271.67-6.19.77-13.38.31-19.37,2.12h-45.99l-36.18-5.31C144,650.27,36.21,545.1,7.46,409.19c-2.89-13.66-4.1-27.61-7.31-41.19v-4c.85-4.94.87-10.05,0-15,.36-8.28-.49-16.74,0-25C10.37,150.52,147.29,11.77,321.08,1c3.45-.92,7.59-.75,11,0,3.98-.29,7.98-.63,12-1h7Z" style="fill: #f9f9fa;"/>
  <path d="M.16,364v-15c1.67,3.7,1.69,11.09,0,15Z" style="fill: #969992;"/>
  <path d="M344.08,0l-2.41,1.04c-3.19.1-6.41-.18-9.58-.04-.87-.28-.86-.62,0-1h12Z" style="fill: #929191;"/>
  <path d="M332.08,0v1c-3.64.16-7.37-.23-11,0V0h11Z" style="fill: #4a514e;"/>
  <path d="M680,324c-1.88-2.34-.91-6.83-1-10h1v10Z" style="fill: #808089;"/>
  <path d="M9.15,398C-31.74,166.38,174.63-34.88,405.27,10.29c148.46,29.08,269.83,164.06,270.73,317.71.71,2.58.98,19.96-.01,20.45-1.2.59-2.16-.21-2.18-1.47l-.81-20.99c-3.05-2.4-3.34-10-1-13-2.35-9.96-3.68-19.96-4-30-2.03-2.17-2.7-5.5-2-10l-2.83-3.75c-3.96-19.06-9.64-37.68-17.33-55.57l.16-4.68c-2.24-1.38-3.49-3.69-3.76-6.94-6.31-11.48-12.47-23.32-18.49-35.51-3.05-2.08-4.67-4.69-5.36-8.3-7.35-7.41-13.14-15.83-17.37-25.25-3.2-.07-4.2-1.4-3-4l-3.99-1.69c-8.46-10.12-17.83-19.38-27.55-28.28l-1.45-4.04c-.94.28-1.28-.06-1-1l-3.31-.28-15.77-13.5-.91-3.22c-3.06.49-4.97-.83-6.65-3.28-40.48-26.23-84.9-51.92-133.89-58.41l-3.42-2.31c-8.93-1.27-17.96-2.1-26.98-2.09l-2.01-1.91c-35.74-.13-72.59.74-109.85,9.91-67.63,16.64-128.51,54.04-173.47,107.3-24.83,29.42-38.24,56.22-54.43,90.52-.97,2.05-2.53,3.73-4.17,5.27-.3,1.01.19,1.76,1.22,2.34-2.73,5.09-5.13,10.31-7.22,15.66,1.06,1.98.84,4.36-.65,7.16-.32,4.81-1.77,8.09-4.34,9.84l-1.07,12.87c-8.33,38.27-10.39,78.87-4.05,116.89l-1.88,2.24c2.12,3.17,2.58,9.11-2,9Z" style="fill: #1b0503;"/>
  <path d="M58.14,518c1.9,1.25,3.83,2.57,5.19,4.42,18.62,25.35,34.05,45.88,58.04,66.88,100.34,87.84,244.32,105.4,364.16,48.94l3.52-.24c.13-3.25,3.31-4.81,6-3,3.15-5.53,11.3-8.34,17-10,.19-1.84.74-2.45,2-1,4.32-5.37,11.81-11.17,19-12,1-1.86,2.06-3.79,3.7-5.15,32.15-26.58,60.73-52.46,83.54-88.02l2.73-1.83c1.63-2.32,2.46-1.74,2,1-132.03,212.64-437.73,210.34-569.87-1-.97-3.15.03-2.82,3,1Z" style="fill: #050404;"/>
  <path d="M19.15,398c.42,8.71,1.31,17.41,2.66,26.11.41,2.89-.15,5.18-1.66,6.89l1.48,1.03c8.81,28.79,21.2,56.77,36.8,82.63l-.29,3.34-2.5-1.98-.5.98c-24.1-38.54-38.03-73.94-45.99-119,1.44-1.89,2.08-6.6,2-9,4.01-.21,8.38,5.09,8,9Z" style="fill: #363636;"/>
  <path d="M673,326l2.01,20.99c1.74.24.94-2.28.99-3.48.19-5.14.03-10.37,0-15.51,1.66,1.04,1,3.8,1.02,5.49.25,20.25-1.83,39.6-5.02,59.51-1.79,3.24-.73-.21-.72-.03.13,2.36-.88,8.16-3.28,8.03-1.94-1.41-2.15-4.14-.61-8.17l-1.38-.83c-4.61,2.64-4.85-4.97-.94-7.01.34-7.76.52-15.43.55-23.01l-1.61-1.98-.83-1.05c7.67-8.09,10.3-18.54,7.9-31.34l1.93-1.62Z" style="fill: #3c3b39;"/>
  <path d="M672,393c-7.51,46.93-22.04,84.82-46.99,125l-2-1,.88-5.25c20.31-32.72,31.23-69.64,40.91-106.59.75-1.63,1.82-3.01,3.2-4.16.31-1.15,3.77-5.43,2.48-8.5l1.52.5Z" style="fill: #161415;"/>
  <path d="M371.07,9l-2.26,2.2c-29.19,3.7-57.88,12.36-84.64,24.51l-3.08-.71c-2.68-.02-4.91,1.16-6.68,3.54-18.62-.21-40.4,8.03-57.91,15.52-43.87,18.79-89.66,54.94-119.44,92.28-9.04,11.34-19.98,27.23-23,41.16l-1.91,1.5v1.13c-12.94,8.93-25.28,18.98-37.02,30.14-2.14,3.92-7.1,8.82-5.97,1.73C79.37,90.15,204.05,6.2,345.62,6.96l25.45,2.04Z" style="fill: #eb6d5d;"/>
  <path d="M595.02,170l-.16-1.36c4.71-2.07,9.07-4.74,13.08-8-.21-6.56,1.57-9.63,5.34-9.23,3.39,5.52,7.01,10.76,10.87,15.71,6.2,12.71,12.36,24.62,18.48,35.74.01,2.88,1.14,4.93,3.38,6.14,9.76,22.36,15.1,40.04,20,64,.31,5.65.26,11.36-.98,16.92-.15.68-1.18.95-2.02,1.08-3.84-1-6.68-4.15-8.53-9.43-12.65-39.69-31.85-74.47-58.58-106.95l-.88-4.62Z" style="fill: #fcb05b;"/>
  <path d="M400.06,13c46.22,3.39,107.38,36.44,143.97,64-.08,4.92-8.27,5.45-8.81-.85-2.08-.52-3.74-2.24-4.42-4.27-3.95,1.88-12.04.55-11.43-4.72-3.32-.95-6.35-1.82-7.69-5.3l-7.34,4.33c-.97-.34-1.36-1.11-1.3-2.2-7.53,3.33-6.51-3.88-1-3,.75-2.39.42-3.39-1-3-.8,3.8-6.43,10.73-8.06,4,2.72-3.6,6.37-9.41.2-4.28l-2.14-.72c-1.61.23-2.55-.66-2.8-2.69-30.2-13.73-64.87-21.01-98.5-25.2-22.35-2.79-45.37-5.65-66.58-1.42-3.45-.2-4.81-1.43-4.08-3.69.91-1.55,2.25-2.38,3.89-2.93,24.35-8.04,51.68-12.44,77.09-8.07Z" style="fill: #fdaf76;"/>
  <path d="M24.15,289c3.82,2.33,5.71,10.95,4,15,.57,4.46,1.56,8.96,2.96,13.49-2.48,8.18-3.79,15.58-4.24,24.51-.95,18.87-1.87,38.55-.45,56.92l7.09,6.37c.94,1.28.14,2.16-1.36,2.71-2.41,4.36-7.39-.96-8-5-2.85,1.44-6.23-2.06-5-5-2.86-2.94-5.17-6.08-8-9-.22-7.13-2.54-16.02-2.99-23.51-2.27-37.75.38-71.98,9.99-108.49l2.03,3.04c.47,9.81,1.79,19.46,3.97,28.96Z" style="fill: #d15f4e;"/>
  <path d="M503.04,64s.53.64.99.38c2.1-1.24,6.11-5.02,8.36-4.3,1.3.41,1.61,2.61,2.72,3.35,1.4.93,6.72,2.28,6.93,2.59.13.2-1.41,2.57-1.02,2.98.2.21,5.17,1.89,5.46,1.91,1.74.07,3.08-1.41,5.31-.64.2.07,1.78,2.84,2.62,3.39,1.53,1,2.04.23,3.14,2.61.28.6-.27,2.6.95,2.7.31.02,4.87-1.23,5.52-1.95,7.72,5.81,12.93,10.67,20,17-4.24,4.85-7.49,10.38-9.76,16.59l-1.24.41c-1.62,3.13-3.45,1.91-5.47-3.64-11.29-12.85-25.13-23.06-41.52-30.62l-.44-1.81c-3.14.93-7.01,1.03-6.56-2.92-.52-.61-1.47-.2-2.84,1.23-4.15-4.24,2.34-9.52,6.84-9.23Z" style="fill: #fcad65;"/>
  <path d="M598.02,129l1.02,2.2c-6.91,2.1-13.9,4.45-20.96,7.04l-2.06-1.25c-7.74-4.77-13.6-11.64-19.25-19.05-1.79-.4-2.71-1.38-2.75-2.95-.52-6.74,4.9-16.77,11-20,12.31,11.22,22.28,20.85,32.99,34Z" style="fill: #fc8851;"/>
  <path d="M57.14,214l-6.86,14.59c-10.59,10.23-16.97,22.05-19.15,35.47-.97,4.4-3.36,6.34-7.42,4.6l3.29,16.67c.12,2.49.03,4.6-2.86,3.67-.16-.58-1.19-1.6-1.52-2.93-2.39-9.48-4.62-19.21-4.48-29.07,1.5-5.69,2.1-11.73,5-17,.95-10.33,29.18-39.14,36.79-40.07.72-.09,1.46-.03,2.2.07,6.6-1.15-1.62,13.47-5,14Z" style="fill: #fcae72;"/>
  <path d="M667,293l1.4.46c1.37,6.48,2.57,12.99,3.6,19.54.9,4.32.84,8.61,1,13,.25,6.71,1.4,22.37-2.46,27.04-.94,1.14-5.57,6.04-6.54,6.96,1.21,3.2-4.93,8-8,7-5.58,3.55-6.16-7.38-.03-7.13-1.09-8.01-1.41-15.96-.97-23.87-.72-1.72-.44-4.3-.14-6.35,3.91-11.82,6.96-23.96,9.89-36.04l2.25-.61Z" style="fill: #fa9346;"/>
  <path d="M601.02,133c19.22,24.33,32.59,47.6,44.99,76-.05,1.56-3.69-1.03-3.78-1.2-.74-1.31.13-3.51-.23-5.11-.16-.73-1.58-.52-1.93-1.41-.42-1.07.24-2.88-.51-4.39-.42-.85-2.65.06-3.08-.77-.92-1.78-.09-3.72-.49-5.41-.59-2.47-6.33-7.53-7.42-9.76-1.32-2.69-3.79-12.12-5.01-14-.25-.38-4.88-2.07-5.22-3.2-.58-1.9,0-3.45-.34-5.02-.1-.43-5.51-4.53-5.47-6.72-3.04,2.64-1.86,6.44-2.7,9.29-1.03,3.49-11.22,7.46-14.79,8.71-3.08,5.4-7.11-5.97-7.71-9.29-1.4-7.75,3-22.26,12.76-21.26l.07-1.47c-7.1,1.7-10.14.7-9.12-2.98.28-.94,6.94-3.8,7.38-3.8l2.61,1.8Z" style="fill: #fdad7a;"/>
  <path d="M400.06,13c-26.52-1.95-55.74,3.05-80.98,11l-2.43,2.89c-10.09,4.09-20.28,7.46-30.57,10.11-1.03,3.82-9.41,7.61-13,6-1.63.61-1.89.58-1-1-1.64-3.05,6.12-7.31,9-7,22.22-10.76,65.62-24.19,89.98-26,8.69-.65,20.39,2.3,28.99,4Z" style="fill: #c46045;"/>
  <path d="M74.14,189c.51,1-.15,2.34-2,4-.64,3.86-6.14,7.93-10,7-15.2,10.76-29.88,23.43-38.99,40,.43-6.43,3.78-12.18,6-18,.67,5.72,3.17-1.73,4.47-3.04,6.98-7.06,30.09-26.52,38.52-29.96.4-2.69,1.24-2.58,2,0Z" style="fill: #c46148;"/>
  <path d="M668,283c-.33,3.05-.24,6.1.26,9.15l-1.26.85-12,43c-.28.87-.62.86-1,0-1.25-.72-1.59-2.39-1-5-.9-.18-.86-.52,0-1-.35-3.74-.32-11.01,4-12,.29-9.03.98-19.41,6-27l3-18c.69,3.4,1.39,6.53,2,10Z" style="fill: #c15e35;"/>
  <path d="M601.02,133c-3.42.06-6.75,1.09-10,2-1.33,2.39-4.09,4.07-8.28,5.04-2.76,2.33-5.66,3.65-8.71,3.96.64,2.63-.16,2.93-2,1-1.25-.71-1.92-1.71-2-3-1.62-2.66,3.58-7,6-5,5.05-2.6,13.63-3.62,19.24-5.31,1.66-.5,3.25-.25,2.76-2.69,1.07,1.31,1.97,2.69,3,4Z" style="fill: #c6592e;"/>
  <path d="M672,313c-.79-3.8-3.04-10.22-3.96-13.71-.27-1.02-.92-5.09-1.04-6.29-.27-2.81-.6-7.93,1-10,1.74,9.93,4.04,19.8,4,30Z" style="fill: #d89074;"/>
  <path d="M565.03,95c-5.9,5.1-8.93,12.63-11,20,3.24,1.11,2.58,5.32-1,4-.39-.85-.72-1.85-1-3-2.77-1.52-2.12-4.65,1-5,1.71-6.16,5.91-13.04,11-17,.35.32.65.68,1,1Z" style="fill: #ce6731;"/>
  <path d="M28.15,436l2.95-.23c6.71,4,16.47,10.63,20.04,17.23,2.73-.5,2.98.05,1,2,1.69,2.78,4.6,5.21,8.74,7.29,2.38,1.27,3.51,3.78,1.39,5.82-1.7,1.64-11.08-2.71-12.54-6.18-4.76-.53-7.79-2.54-10.61-6.1,20.19,34.87,47.21,73.18,76.81,102.5,26.27,26.03,54,44.27,85.13,63.62,7.26,4.51,28.4,16.17,36.2,18.59,13.98,4.35,29.68,8.89,43.89,12.47,53.02,13.37,107.94,4.16,160.72-4.99,2.45-.35,4.7.18,6.98.78,1.5-5.29,15.32-10.47,18.42-5.56,1.23-5.57,14.68-11.77,19.27-10.26,2.71.89,4.5,2.54,2.48,5.01-152.72,75.84-340.78,24.55-430.9-120-13.73-22.02-33.11-61.83-37.99-87,.12-5.36,5.97.09,8,5Z" style="fill: #fcfcfc;"/>
  <path d="M489.04,638c-2.13-6.83-13.63-1.81-17.04,1.45-2.74,2.61-2.1,6.79-6.27,5.58-1.36-.39-.49-3.36-3.94-2.88-.58.08-8.92,3.46-9.3,3.79-1.46,1.3-1.45,4.54-3,4.95-.74.19-3.93-1.09-5.93-.97-12.66.71-27.73,4.55-40.75,6.34-30.59,4.22-66.39,7.61-96.47,4-24.06-2.89-46.51-12.56-69.24-17.65-2.12-.48-23.35-11.63-27.37-13.72-70.6-36.62-118.11-89.16-160.75-153.22-2.05-3.08-13.79-17.76-11.76-20.56,2.53-3.48,5.16,1.71,6.55,2.77,2.41,1.84,5.5,1.47,7.08,2.43.71.43,4.95,5.11,5.99,5.7,4.2,2.38,6.46-.04,3.02-2.25-1.35-.86-7.03-4.55-7.67-5.36-1.42-1.79,0-3.15-.05-3.39,3.82-2.49,8.12,2.53,10,6,3.1-1.63,6.16.91,7,4,2.51-1.98,5.55,1.12,5,4,2.33.29,4.74.62,6.85,1.71,37.15,19.3,72.52,37.61,114.5,44.9,15.03,35.08,39.66,61.18,78.11,69.16,55.21,11.47,109.14-21.37,122.36-76.75,33.5-3,66.04-9.76,98.78-17,2.4-.53,4.89-.31,7.3-.02,2.85-.66,4.35-.86,2.77,2.54l10.14-3.43c2.66-.53,4.45.27,3.08,2.89l-.68,2.35c-9.29,2.53-18.41,5.49-27.36,8.88l-1.95-1.23-8.43,3.19-1.56-1.19c-.59,2.08-3.58,3.98-5,2-3.95,2.31-8.22,3.84-12.81,4.58l-2.19-1.58c-12.61,5.56-28.23,7.82-41.99,7-1.62,2.27-3.73,2.62-6,1-2.38,3.04-4.71,6.37-7,10,1.35,5.26-3.04,14.8-8,17-.95,8.6-9.47,17.04-15.77,23.22-36.47,35.83-94.75,41.37-139.56,18.41-.58-.3-1.03-.88-1.48-1.51s-.83-1.37-1.16-2.12c-22.68-9.22-40.15-33.99-49.31-56.18-9.36-3.22-18.92-5.76-28.68-7.62l-.99-2.2c-12.11-2.48-23.8-6.39-35.08-11.74-2.93-.1-4.57-1.19-4.92-3.26-17.15-6.06-33.56-14.91-49.06-24.44l-1.93-3.56c-2.86,1.13-5,.66-5-3-1.64,1.43-2.09,1.16-3.17-.25.79,2.62.85,4.7.17,6.25l.31,4.01c30.44,51.69,72.89,99.32,129.39,122.64,34.26,19.82,70.94,38.5,108.39,48.92,71.21,7.76,147.39-.65,210.74-35.05,3.45-1.37,5.47-.87,6.08,1.49,2.45.96,1.52,3.54,0,5-.63.39-1.37.62-2,1l-1.95-.77c-4.01,4.02-9.38,5.99-14.97,6.1,1.26,1.97,1.24,3.53-.08,4.67-2.05,1.08-3.94,1.98-6,3Z" style="fill: #f8f8f8;"/>
  <path d="M668,401c-12,44.15-20.24,76.39-44.99,116-22.9,36.65-54.76,70.03-89.98,95-.69.69-1.65.99-2.22.3-1.7-2.04-6.53,1.53-9.13,3.49-1.14,3.32-5.56,7.19-7.64,3.21-7.01-.65-7.32,2.06-13.08,4.42-18.63,7.65-37.97,17.65-57.7,22.28-39.46,9.27-112.26,16.64-151.22,7.85-8.05-1.81-18.83-6.96-26.92-10.07-24.73-9.5-48.25-21.01-70.75-34.46-13.32-7.96-27.65-12.79-40.57-21.2-37.28-24.27-69.88-62.73-91.83-101.15-1.91-3.35-7.02-5.83-2.82-9.68l1.62.3c17.9,32.72,43.05,67.57,77.23,84.81,37.52,15.88,72.75,35.82,106.92,57.76,47.14,32.16,98.56,30.76,153.4,24.94,92.45-9.81,151.53-45.69,204.54-121.41,18.96-27.09,34.85-54.23,42.86-86.43l9.62-21.64-1.34-.33-5.1,6.46c-.66.35-1.29.13-1.9-.46-1.62,3.64-4.69,9.6-9,8-.95,4.28-5.72,8.88-10,8,1.63,2.77-3.97,5.02-6,3-5.58,1.13-.04-5.2,3.19-6.78-3.65,1.47-6.39-.05-3.19-3.22.81-4.05,4.73-7.56,9-7,2.5-5.17,7.13-10.38,13-11l1.14-3.64,17.08-15.53,3.77-.83c.52-.5,3.83-3.19,3.99-3l-1.99,12Z" style="fill: #f5f4f4;"/>
  <path d="M514.04,619c6.63.61,4.06-2.35,6.01-4.44,1.01-1.08,9.91-6.02,11.51-6.54,2.71-.89-.22,3.42,1.48,3.99-6.15,4.36-12.59,8.05-19,12-1.22-1.57-.58-3.26,0-5Z" style="fill: #fcfcfc;"/>
  <path d="M495.04,635l-3-5.99c4.32-1.51,10.31-.51,14.19-3.05,1.28-.84,5.8-8.68,5.8-.96-5.62,3.41-11.01,6.84-17,10Z" style="fill: #fcfcfc;"/>
  <path d="M24.15,403l2.14,4.26c.11,9.12,1.29,18.11,3.55,26.98l-1.69,1.76c-2.49-1.99-4.99-4.01-7.51-5.98l-.49.98c-.02-.12-1.01-.36-.8-1.26,2.04-8.61-3.09-19.39-1.69-29.15.19-1.31-.87-1.53,1.49-2.59,1.38,1.41,3.68,3.82,5,5Z" style="fill: #525050;"/>
  <path d="M664,360c3.3-.91,4.05,1.9,4.05,4.53-.01,7.29-1.67,12.98-1.18,21.03.02.38-5.3,4.02-.87,6.44-7.74,7.39-14.06,13.15-21.99,20-3.26,3.09-7.18-3.38-4-5.5-3.32-.96-3.06-13.45,0-15-.85-.15-1.98-.67-1.87-1.31.55-3.55,1.89-7.21,3.87-10.19,1.57-2.88,4.23-5.55,8-8-1.43-3.52,3-5.56,6-5,2.77-2.7,5.86-4.96,8-7Z" style="fill: #5b5b5a;"/>
  <path d="M281.09,35c-2.55,1.24-7.93,6.35-9,7-.98,1.63-15.12,8.78-16.05,8.1-.38-.28-.67-.67-.95-1.1-3.92,2.07-8.21,3.15-12.89,3.24-61.51,18-109.45,67.44-143.89,118.96.46,2.24.06,3.84-1.19,4.8l-.33,2.4c-4.54,3-16.3,9.05-21.42,11.25-.27.12-.73-.21-1.24-.65-.61.12-1.55-.18-2,0-.29-3,.13-5.46,1.26-8.24,4.58-11.24,16.97-28.86,24.32-38.67,15.28-20.38,32.98-34.53,52.75-49.74,16.87-12.98,32.32-24.95,51.43-34.06,16.48-7.85,50.07-20.72,67.83-22.25,2.09-.18,3.89,1.07,4.78,1,.51-.04,2.18-5.6,6.58-2.04Z" style="fill: #ed5440;"/>
  <path d="M591.02,135c1.95,4,7.62-.27,11,1,.69,8.03-1.77,4.53-4.94,5.52-5.79,1.8-8.86,13.29-7.82,18.75.16.82,3.01,8.37,3.3,8.73.8,1.01,2.38.88,2.46.99,20.15,27.91,35.7,46.25,49.47,79.02,5.91,14.05,8.43,30.33,18.51,41.98-1.54,9.22-3.59,17.93-6,27l-2.31-.24c-1.86-27.06-11.53-55.55-22.24-80.87-8.85-20.91-18.59-30.79-37.89-41.95-5.46,7.85-11.59,7.41-11.65-3.21-1.86-12.93-2.84-25.91-2.94-38.95-.85-3.65-2.84-6.58-5.95-8.79,6.63-5.67,8.45-6.61,17-9Z" style="fill: #fda058;"/>
  <path d="M491.04,57c1.49,2.43-3.32,8.43-6,8-3.92-.05-3.91-2.94.02-8.69-8.36.1-16.79-2.41-25.3-7.51-54.26-14.94-114.79-22.02-169.68-10.8-.19,3.49-5.24,2.61-4-1,10.14-4.57,22.43-9.67,32.99-13,5.95,4.62,15.2-1.21,20.41-.95,45.7,2.2,99.22,8.03,141.65,26.36,4.9,2.12,8.12.16,9.9,7.6Z" style="fill: #fda265;"/>
  <path d="M491.04,57c1.85-1.92,4.78-3.69,6.5-6,.24,2.54-1.04,3.64,2.5,4.02l-5.99,8.98c2.49-1.82,4.59-4.04,6.99-6,2.96-.77,2.77.97,1,3-.99.86-2.73,1.44-3,2.99l3.42-.78.58.79c-2.21,1.5-7.55,5.7-6.5,8l6.5-4.99c.23.22-3.41,4.39-4,4.99.92,3.14-3.13,6.14-6,5-6.11,4.27-12.57-1.3-9-8-2.7-.27-2.61-1.24,0-2-1.99-1.85-1.69-2.24,1-2,1.22-2.82,3.87-5.79,6-8Z" style="fill: #c4583f;"/>
  <path d="M502.04,61l-1-3c1.67-1.37,2.65-5.39,5.98-1.5-1.38,1.83-3.29,3.04-4.98,4.5Z" style="fill: #fcad65;"/>
  <path d="M32.15,312c4.67,3.15,8.25,12.4,8,18,4.33,9.6,3.81,15.63.77,25.42l-3.61,48.14c1.24,3.47,3.1,6.7,5.6,9.7l-.76,2.74c-2.09,6.22-12.22-4.1-10-8-.13-.16.21-1.09-.31-1.7-.94-1.12-7.24-6.08-7.4-6.54-1.56-4.62-.47-9.74-.49-14.26-.08-17.89-.1-39.11,2.2-56.99.49-3.8,2.73-8.1,2.95-11.12.37-4.99-5.16-10.53-.96-13.39,2.64.55,3.98,3.22,4,8Z" style="fill: #ce4e3a;"/>
  <path d="M42.15,265l1.39,2.52c-5.14,14.62-8.42,29.21-9.85,43.79l-1.53.69c-.99-2.37-3.01-5.28-4-8-1.79-4.92-2.63-10.01-4-15,3.87-3.46-6.6-23.92-.5-23.98,4.23,6.02,5.46-.52,6.24-4.77,1.93-10.41,2.22-10.65,8.23-19.51,2.92-4.3,5.85-7.38,9.04-11.22s5.94-11.7,9.98-15.52c.25.86.45,1.72.53,2.59s.11,1.66-.1,2.41c-3.81,13.72-8.77,28.2-13.53,41.67-.52,1.49-1.19,2.91-1.89,4.32Z" style="fill: #fdac5a;"/>
  <path d="M32.15,408c.65.8,5.27,7.3,6.28,7.7,1.47.58,3.07.05,3.72.3,3.2,2.34,3.87,4.34,2,6,.69.44,1.35.91,1.92,1.47,3.54,3.55,7.36,24.06,5.08,29.53-6.07-5.3-15.97-11.38-22.99-17l-3.52-17.97-.48-15.03c2.34,2.08,4.89,5.23,8,5Z" style="fill: #6d6d6d;"/>
  <path d="M499.04,72c5.01,4.52,11.18-2.91,16-3.99l-8,7.97c9.92,3.87,19.05,9.51,27.47,16.04,5.55,4.31,13.01,10.11,15.81,16.24.67,1.48.13,3.27,2.72,2.73-.47,1.7-.83,3.23-1,5,.54.74.74,1.42,0,2-1.02,3.24-.91,6.75,0,10,1.25,1.3,2.07,4.51,1,6l-2.24.45c-11.13-13.89-23.91-25.74-38.34-35.55-8.39-1.37-20.39-4.07-18.41-14.9l-.39-.95c4.46-6-3.68,6.3-5.61,5.95-3.57,3.32-2.98-1.1-1-4-2.27-2.57,2.77-8.43,6-8,1.42-1.58,4.45-3.42,6-5Z" style="fill: #fd8d3c;"/>
  <path d="M554.03,115c6.78.6,8.13,7.75,12.46,12.04,3.5,3.47,8.7,4.53,9.54,9.96-.64.33-4.99,4.1-6,5,2.3,1.42-4.01,7.91-5.22,7.8-5.58-.51-15.53-24.23-11.78-30.8,1.68-.69.7-2.94,1-4Z" style="fill: #fa6f36;"/>
  <path d="M95.13,182l.13,2.6c-8.64,11.8-17.7,23.38-27.2,34.74-10.82,14.75-16.86,28.85-23.27,45.44l-2.64.22c4.36-16.31,9.59-35.2,15-51,1.44-4.21,3.01-6.08,4.83-9.67.65-1.27,2.23-3.36.17-4.33,3.29-2.33,6.53-4.91,10-7,3.28-3.73,15.57-11.66,20.15-12.18,1.02-.11,1.99.57,2.85,1.18Z" style="fill: #fd975a;"/>
  <path d="M655.01,336c1.9,8.8,2.84,17.17,3.01,26-.96.21-3.7-.29-4.02,0-.2.18-1.07,6.1,2.01,5.01-1.72,1.67-3.68,2.67-6,5l-10.53,8.47-1.47-.47-.39-2.47c5.71-13.32,10.55-26.76,14.53-40.31l1.86-1.21h1Z" style="fill: #f86e1b;"/>
  <path d="M290.09,38c60.22-12.23,133.38-3.41,189.22,24.41.93.46,1.73,1.2,2.53,1.98s1.53,1.68,2.21,2.61c-.09.57-.04,1.39,0,2-.26,3.36-1.26,5.03-3,5l-2.31.75c-8.59-8.43-20.05-12.56-32.03-16.33-43.45-13.64-90.85-20.68-135.62-16.43l-2.04,2.1c-15.66,1.08-32.04,2.5-46.25,9.52-3.42,0-4.8-1.53-1.7-3.62,1.36-3.75,8.04-5.96,12-7,3.89-1.99,8.92-4.16,13-6,.69,1.48,2.68.99,4,1Z" style="fill: #fd8f48;"/>
  <path d="M272.09,42l1,1c-3.89,1.99-8.16,4.74-12,7l-2.18,3.63c-12.72,8.13-24.99,16.93-36.81,26.37-.12,2.04-1.63,3.79-4.53,5.25-14.93,15.28-26.52,35.88-35.58,54.75-.72,4.51-2.35,7.84-4.88,10,1.12,8.01-1.41,18.76-5,26-.82,1.46-1.48.79-2-2l-1.79-2.35c.27-6.94,1.11-13.79,2.5-20.57-2.94,2.11-5.17,2.42-6.72.92-18.29,9.76-37.61,18.46-57.99,23-2.95,1.01-2.61.01,1-3,1.39-3.73,4.23-5.18,8-4-.48-2.79,3.37-4.39,5-2,2.97-1.93,5.97-2.93,9-3,.98-.92,1.99-1.82,3.07-2.6s2.13-1.52,3.3-2.01c12.76-5.34,25.58-10.62,38.53-15.48,3.18-15.48,12.47-29.41,22.03-42.18,6.22-8.31,25.67-32.63,34.31-35.82.5-.18,1.1-.09,1.74.09,0-.62.01-1.23.15-1.82.71-2.98,18.58-12.77,22.84-14.18.91-.17,16.01-6.4,17-7Z" style="fill: #c82303;"/>
  <path d="M107.13,172v1.36c-3.06,1.23-.9,1.53-1,1.64,1.82,2.37-.52,4.56-3,3-1.62,2.68-5.08,5.99-8,4-7.59,2.27-16.15,6.88-22.99,11-4.57-.22-.73-.81.54-2,.72-.67,1.25-1.84,1.46-2,5.34-3.95,16.77-9.93,22.99-13-.24-3.24,8.06-6.42,10-4Z" style="fill: #c93a1a;"/>
  <path d="M574.02,144c2.42-.27,2.65-.46,4.34,1.24,6.68,6.67,2.61,17.48,3.63,26.3.29,2.47,1.78,4.12,1.98,6.02.32,3.04.83,19.48,2.14,20.35,3.81,2.52,5.5-4.83,8.38-4.89,3.14-.07,24.63,17.03,27.52,20.48,12.81,15.34,30.27,70.82,33.75,91.24.75,4.41-.9,9.34,1.24,13.26-.9,3.4-3.91,8.78-4,12-1.51.64-2.36-.32-2.54-2.89-3.3-30.2-9.11-62.85-24.99-89.6-9.13-15.38-18.67-17.84-34.85-21.16-5.91,5.32-10.49.94-12.28-5.52-2.48-13.2-3.9-26.57-4.25-40.12.29-7.8-2.16-13.02-7.34-15.69l-.73-2.03c-2.11-2.59,3.21-9,6-8,.43-.42,1.51-.58,2-1Z" style="fill: #fd9339;"/>
  <path d="M566.03,153c4.98-.05,7.6,4.34,8.76,8.74,2.99,11.29,1.29,47.17,8.2,53.8,3.89,3.73,4.96-1.46,8.36-1.29,1.91.1,19.19,5.44,21.38,6.55,19.88,10.1,34.85,64.65,37.18,85.81.75,6.83.72,9.12,2.09,15.08.58,2.52-1.16,6.27,1.02,8.32,0,.33,0,.67,0,1,.62,4.38-.38,6.71-3,7-3.08.51-3.75-1.94-2.01-7.35l-3.71-12.21c-.13-27.22-10.6-53.41-25.4-75.83-7.23-10.94-22.93-15.58-35.11-11.75-20.7-16.05-19.19-39.15-16.89-63.19l-1.09-4.45c-3.78.97-6.69,1.58-4.77-3.21-2.2-1.62-.64-4.79,2-4-.34-3.47.66-4.47,3-3Z" style="fill: #fd801e;"/>
  <path d="M654.01,336c-.34,5.21-4.98,17.07-6.98,22.52-2.68,7.29-6,14.35-9.02,21.48-.1,3.58-5.9,5.66-4,1,1.63-11.49,6.3-23.53,13-33-2.19-2.62-.46-9.32,3-10,.58-1.68,2.54-4.64,3-7,0,.55,1.17,2.39,1,5Z" style="fill: #c02c03;"/>
  <path d="M553.03,119c.21,5.68.08,8.96,1.96,14.54.87,2.57,7.24,14.92,9.46,14.42,1.32-.3,4.18-4.73,5.58-5.96,2.67-.47,2.04.63,2,3-2.64,2.59-3.97,5.28-6,8-.65.87-2.19,1.73-3,3-1.6.1-2.6-.57-3-2-1.55-1.71-.75-2.54.61-3.86-3.87-3.83-6.98-8.44-8.87-13.57l1.26-2.57c-.75-2.59-.79-3.37-1-6-.91-3.24-1.03-6.77,0-10,.04-.66-.06-1.34,0-2,1.3.48.96,1.9,1,3Z" style="fill: #c63c07;"/>
  <path d="M48.14,422c1.26-3.39,7.29,1.1,6,4-1.12,3.02-.94,1.15-.5.97,1.53-.63,9.45,29.95,9.18,31.65-.13.81-.39,1.6-.69,2.38-2.84-2.04-6.85-4.34-10-6-.05-.29-.83-1.85-1-2-1.53-10.55-3.44-21-7-31,.72-2.95,2.37-2.34,4,0Z" style="fill: #4c4a4a;"/>
  <path d="M615.01,435c-.62,1.06-1.27,2.09-2.03,3.03s-1.51,1.81-2.43,2.47c-27.35,19.68-69.01,41.29-101.4,50.37-2.31.65-4.77.39-7.12.12-33.68,10.1-70.1,14.95-105.05,18.43-19.35,86.33-133.76,107.8-186.28,37.46-7.02-9.41-11.15-19.53-16.26-29.73-43.75-8.6-82.36-25.48-120.32-48.16-.09-2.09-.25-4.35-.49-6.78l-4.71-13.99c-2.77-8.85-2.42-13.41,6.78-7.4l3.42,1.16c2.57-.84,5.02.07,7.37,2.72,4,.43,7.02,2.21,9.63,5.28,2.4.1,4.87.23,7.11,1.14,26.08,10.61,49.21,19.51,75.95,26.81,3.11.85,6.2,1.61,9.39,2.04l1.53,2.01c-.09-1.35.58-2.01,2-2,.93-1.21,1.3-3.4,1.11-6.6,1.35-9.91,5.54-21.92,10.1-30.86,6.04-11.84,8.09-9.57,14.72-.2,5.1.93,10.16,2.05,15.2,3.35l-.14,2.31-.33,3.69c-15.36,21.22-18.13,50.72-4.67,73.31,1.78.75,3.11,2.42,4,5,2.85-.54,3.59.58,2,3,1.25.69,2.93,1.71,2,3,1.7,2.38,3.7,4.38,6,6,3.83,2.02,7.5,4.69,11,8,3.58,1.03,6.25,2.69,8,5,7.3,2.29,14.63,4.29,21.99,6,45.43,2.49,84.73-32.49,78.13-79.32l1.85-2.68c-1.39-4.57,5.11-.63,6.68,2.15,7.98,5.24,19.59-1.34,24.22-8.35,3.36.72,6.06.45,8.09-.81,1.25-2.69,2.74-2.7,4,0,4.94-.15,9.61-.82,14-2,1.2-1.58,4.42-4.97,6-2l2.51-2.04c31.32-8.31,62.67-16.61,94.06-24.92,6.94-3.47,14.68-6.79,22.4-7.04.65-2.64,1.4-3.93,4-2l2.3-3.13c10.24-4.58,20.47-8.87,30.69-12.87.93-2.7,2.08-2.69,3,0,8.43-3.21,16.18-7.57,23.25-13.07,11.49-9.28,13.43.04,5.83,27.96,1.68,1.31,1.98,2.68.92,4.11Z"/>
  <path d="M638.01,429c2.33,2.22,2.86,5.5,1.58,9.83-18.5,54.1-57.57,110.14-101.64,146.99-32.22,26.94-86.27,50.89-127.03,30.87-7.58-8.71-21.9-6.03-27.14,4.02-15.66,7.17-34.51,6.67-51.52,5.77-49.47-2.61-85.81-22.71-127.34-48.53-19.05-11.84-39.37-24.72-57.54-37.76-11.43-8.2-22.16-17.27-31.93-27.04-6.32-4.88-13.45-8.57-21.38-11.07-7.14-5.92-15.22-18.53.98-10.41,7.31,4.43,15,7.87,23.06,10.33,1.66.73,4.12.75,5.97,1.53,11.27,4.75,22.72,8.85,34.02,13.47-1.09,1.73-3.58,2.31-7.45,1.76,24.6,22.19,51.59,43.37,80.27,61.85,1.86,1.2,3.88,2.48,6.16,2.4,54.45,29.47,125.29,16.52,157.96-38,1.36-.14,2.86-.48,4.5-1,.96-3.32,13.44-3.06,15,0,.14-.47.31-.91.6-1.23,1.7-1.88,19.64,13.39,16.12,19.31,6.33,3.43,10.43,12.9,5.7,19.08-5.66,3.12-7.46,4.57-7.22,11.61-9.95,11.69,13.61,19.48,22.11,19.34,18.19-.3,46.42-8.69,61.88-18.61,52.89-33.93,93.25-90.32,115.54-147.8,1.27-3.16.84-6.06-1.26-8.71,3.26-2.45,7-5.57,10-8Z" style="fill: #d7d7d5;"/>
  <path d="M647.01,421c.85.36,1.45.97,1.25,1.82-7.95,33.81-27.97,70.06-48.09,98.52-37.89,53.62-79.75,94.06-145.34,108.58-32.7,7.24-74.79,10.15-108.41,10.21-42.84.08-74.18-14.58-110.52-35.44-33.08-21.3-66.74-41-100.98-59.1-26.86-16.78-50.38-31.77-67.18-59.52-2.14-3.54-8.16-15.17-.6-12.07,15.14,9.52,34.77,20.92,50.99,28-11.82,0-20.61-11.1-31.99-11.5,3.8,2.88,5.63,7.71,9.66,10.34,3.67,2.39,7.5,2.37,11.02,3.97,7.58,3.45,13.58,10.46,19.27,15.72,18.13,16.79,37.79,28.14,58.35,41.64,37.64,24.7,73.14,48.91,118.41,58.56,19.78,4.21,61.19,7.34,79.17-1.27,2.07-.99,3.44-4.75,5.52-6.48,4.14-3.45,13.68-4.09,18.57-2.54,2.36.75,3.9,3.55,6.23,4.76,23.81,12.38,54.89,5.66,79.23-3.17,37.64-13.66,75.86-54.78,99.26-86.72,15.85-21.65,37.73-54.16,45.22-79.77,1.59-5.43,2.35-10.88,1.95-16.55,2.7-2.19,6.03-5.49,9-8Z" style="fill: #dcdcdc;"/>
  <path d="M654.01,415c.75-.53.82-2.68,2.99-2-.34,8.94-6.69,16.35-10.01,24.48-3.82,9.36-5.62,20.21-9.49,29.51-11.78,28.31-40.25,70.6-60.97,93.01-69.5,75.19-143.25,89.32-242.93,89.93-62.07.38-102.56-40.67-154.44-66.49-19.71-9.81-40.79-17.13-59.37-29.62-19.68-13.23-50.24-55.4-60.65-76.84-.55-1.14-3.34-8.67-3-8.99,3.2-1.02,4.69,2.26,5.99,2.99,10,32.07,41.02,61.79,70.53,77.53,33.72,14.06,64.19,33.09,94.6,53.51,37.69,22.47,73.14,39.93,117.96,40.05,61.73.17,134.69-8.3,185.37-46.02,54.59-40.64,99.13-109.44,117.9-174.26l5.5-6.81Z" style="fill: #e8e8e8;"/>
  <path d="M628.01,437c4.14,1.3,4.57,3.16,3.77,7.26-.89,4.55-10.91,25.88-13.59,31.42-20.56,42.62-69.66,103.39-112.46,124.51-12.77,6.3-43.33,15.35-57.09,13.73-6.56-.77-24.15-6.85-23.58-15.35.14-2.13,2.15-4.12,2.76-6.3s-.14-4.64.96-7.04c2.74-6.02,11.52-2.19,7-15.46-1.63-4.79-5.29-4.75-6.24-6.76-1.09-2.29.17-4.73-1.43-7.57-1.02-1.82-11.77-11.44-13.56-11.44h-15c-.41,0-3.93,7.18-4.5,1,3.1-5.17,5.61-11.45,8-17,2.41-2.57,4.11-5.75,4.7-9.25l2.3-.75c2-.32,4-.65,6-1,1.8.95,3.39,2.74,4.76,5.39,6.16,3.58,31.14-8.52,37.23-12.39,4.96-.93,9.85-2.91,15-3,1.3,1.28.49,2.69-2.42,4.23-13.29,6.62-26.45,13.73-38.57,22.26,2.44,4.81,6.22,9.08,11.36,12.81,3.17,9.13,7.56,13.81,16.21,18,6.07,6.89-3.15,16.73-8.27,21.76-13.44,7.31-10.83,15.35,4.55,15.45,51.96.32,93.16-33.38,124.12-72.52,2.45-6.28,7.84-13.69,13-18,13.88-18.9,23.4-40.88,29.08-63.07-3.97,1.77-8.1,2.88-12.38,3.33l-.7-1.26c-1.07-4.38,9.19-9.36,13-10,1.61-1.13,4.91-2.18,6-3Z" style="fill: #ccc;"/>
  <path d="M599.02,456c17.07-6.11,12.62,16.7,8.53,26.14-20.95,48.38-75.99,106.09-130.37,111.51-7.68.77-16.03,1.22-12.29-9l7.29-16.43c2.21-7.71,1.21-8.83-4.9-13.1-2.68-7.28-6.15-13.9-10.42-19.86-8.3-3.51-5.86-8.7-.32-13.71l20.47-12.56c2.62-3.53,6.74-4.76,11.05-5.99,6.25-3.55,22.02-7.14,29.99-10l2.26-2.23c17.42-6.79,34.65-14.1,51.69-21.93l6.04-.84c2.97,2.74-3.43,6.69-6.07,8.29-26.74,13.24-54.41,24.38-83,33.41-3.13,1.2-20.38,9.15-14.82,13.41,7.97,3.5,14.52,6.49,19.46,14.2,6.28,2.68,9.71,9.36,12.36,14.95-2.73,3.73-4.82,7.75-6.28,12.03-4.03,3.17-8.34,12.09.01,11.25,24.41-2.45,73.58-43.16,83.62-65.29,2.2-4.84,13.43-39.94,12.25-45.48-1.42-1.65-2.6-3.25-3.55-4.78.58-3.57,3.62-5.34,7-4Z" style="fill: #bebebe;"/>
  <path d="M654.01,415c-10.54,17.62-13.56,38.71-22.26,57.23-16.52,35.18-53.07,83.14-81.68,109.31-59.09,54.06-125.6,60.24-202.45,62.5-44.99,1.32-79.76-16.4-117.84-38.22-21.07-12.07-44.28-30.24-65.61-40.37-17.03-8.08-31.45-13.31-47.77-24.22-20.08-13.43-46.29-42.42-54.73-65.27-.68-1.84-2.46-4.03.47-4.96,2.18,1.23,2.98,1.73,5,3-4.02-.8-1.05,5.82-.51,7.01,11.55,25.31,36.8,41.2,58.81,56.18,15.09,10.27,24.89,14.2,40.36,22.63,56.47,30.78,113.59,81.54,182.82,78.22,58.92-2.82,129.34-3.99,178.34-40.62,50.98-38.11,99.49-107.91,118.55-168.42.79-2.52,1.05-5.39,1.5-8,2.51-2.12,3.9-3.81,7-6Z" style="fill: #e7e7e7;"/>
  <path d="M593.02,511c-3.86,6.11-8.69,12.16-13,18-27.4,35.07-56.19,58.34-99.45,69.87-21.07,5.61-45.17,2.2-20.35-21.57l3.89-9.5c-6.38-7.46-11.83-14.36-16.13-23.43-15.14-10.24-11.69-15.92,3.32-23.12,10.12-4.23,19.04-9.64,26.75-16.25,2.85-1.02,6.92-2.12,10-2-1.08.61-3.73,2.38-5.91,3.59-5.94,3.31-26.88,15.98-28.43,21.61-1.21,4.39,2.63,3.72,4.79,5.86,5.92,5.84,7.57,16.26,11.09,20.91,1.67,2.2,4.39.63,5.22,4.73,2.31,11.44-10.26,24.48-8.81,30.65.23.96,2.7,1.56,3.63,1.58,35.64.76,76.82-28.64,99.93-53.91,12.19-13.32,38.42-50.01,39.51-67.47.51-8.13.5-16.48-10.03-14.54-1.03-2.82,2.98-5.25,5-3,20.04-7.41,15.62,5.41,10.29,19.18s-12.68,26.87-21.29,38.82Z" style="fill: #c5c5c4;"/>
  <path d="M478.05,505c.37,2.58-.48,2.93-2.27,4.23-8.38,6.05-26.97,12.32-33.64,19.34-6.6,6.94,3.08,9.63,6.9,13.95,3.6,4.07,4.58,8.81,7.17,12.82,2.26,3.5,9.42,8.97,9.86,12.25.22,1.64-3.07,8.93-4.15,10.77-1.44,2.45-10.26,11.74-10.47,12.58-.89,3.58,1.92,7.06,5.32,7.84s13.69-.33,17.67-.9c28.87-4.09,56.25-20.13,77.61-39.37,10.1-9.1,18.51-19.84,27.98-29.51-16.04,21.72-39.73,45.59-63.66,58.82-18.75,10.37-46.22,18.51-67.57,14.94-6.27-1.05-9.33-4.25-7.29-10.82,1.31-4.2,5.49-4.68,8.05-6.94,3.7-3.28,14.57-15.31,8.43-19.44-4.35-2.93-8.29-3.84-11.94-9.05-2.09-2.98-2.43-6.88-4.56-9.44-3.23-3.87-12.5-8.53-11.29-14.41.72-2.14,34.21-18.98,39.19-21.83,1.99-1.14,2.85-3.28,3.67-3.83,1.04-.7,3.62-1.51,5-2Z" style="fill: #c8c8c8;"/>
  <path d="M158.12,517c3.79.49,28.57,6.48,30.55,7.95,2.67,1.98,3.25,7.59,4.69,10.31,8.7,16.48,27.32,38.85,43.75,47.74-1.2,2.07-6.24-1.07-7.66-1.84-23.8-12.99-44.32-29.85-64.29-47.7-4.14-3.7-14.89-10.03-17.03-14.97-.78-1.8.74-1.31,1.5-1.54,2.15-.64,6.21-.24,8.49.05Z" style="fill: #cacac9;"/>
  <path d="M622.01,430c.05.67-.41,2.03.49,1.99,3.22-.26,4.56-4.1,6.21-4.79,2.34-.97,5.89-.89,8.3-2.19-3.46,5.02-8.79,8.27-13.47,12.02-.45.36-3.55,2.53-1.53,2.97-.41.29-.93,1.68-2.01,2.44-3.46,2.41-8.14,4.33-10.98,7.56.07,1.76-1.59,2.76-5,3-1.94.96-3.38,2.1-5,3-2.33,1.3-4.69,2.75-7,4-2.07,4.65-8.99,8.84-14,8-19.75,10.33-39.1,17.5-59.99,25-1.07-2.03-3.24-.68-4.7-.21-8.32,2.66-16.59,6.04-25.29,7.2,4.15-3.52,10.36-4.58,14.8-7.7,2.55-1.79.73-1.18-.81-1.29,40.2-12.06,78.78-32.04,112.97-56,.06-3.55,3.63-6.08,7-5Z" style="fill: #ededec;"/>
  <path d="M458.05,510c.12,2.41-1.45,2.57-2.97,3.53-6.17,3.91-16.63,8.77-23.8,10.19-8.29,1.64-13.3,3.19-15.22-6.73,13.95-2.46,28.09-4.4,41.99-7Z" style="fill: #d7d7d5;"/>
  <path d="M67.14,434c3.26-.98,6.26,1.02,9,6,1.44-1.78,3.64.04,3,2-3.8.74-6.69-1.82-9.99-3,.69,7.89,3.92,14.83,6.32,22.27.74,2.29-1.22,4.52,2.67,4.75v.97s-4,2.01-4,2.01c-1.92-1.15-3.86-3.33-5-4l-2.29-2.75c-3.65-9.88-6.76-20.03-9.32-30.45l1.61-1.8c1.98-2.36,8.43.93,8,4Z" style="fill: #141010;"/>
  <path d="M54.14,426c2.42-2.06,5.6,1.13,5,4l3.3,13.21c2.34,5.18,2.94,11.18,6.11,15.9l.6,5.9c-3.22-1.9-3.73-1.65-7-4-3.1-10.64-6.94-21.46-9.17-32.33-.32-1.58-2.39-3.04,1.17-2.67Z" style="fill: #2a2a28;"/>
  <path d="M410.06,518c-1.83,3.92-2.81,7.86-7,10,1.38-3.22,3.19-6.31,3.05-9.96,1.27-.3,2.74.15,3.95-.04Z" style="fill: #d7d7d5;"/>
  <path d="M642.01,380c.83,3.41-2,8.82-2,11.5v15c0,.37,2.26,6.79,4,5.5-4.33,3.73-8.41,7.39-13,11l-1.75-1.25c-.36-7.6.2-15.4,1.66-23.41-1.55-4.54-.94-9.59,3.08-12.34-.45-2.89,5.31-6.16,8-6Z" style="fill: #3f3f3f;"/>
  <path d="M634.01,386c.9,2.69-1.76,4.67-2.01,6.58-.27,2.06,1.08,3.9.92,5.82-.43,5.22-1.68,10.89-1.97,16.09-.07,1.17,1.15,3.23.96,3.44-.14.15-4.62.68.1,1.09l-1,3.99c-3.06,2.41-5.84,4.67-9,7l-2.11-2.17c.63-11.44,2.56-22.7,5.81-33.79-.96-.09-1.36-1.11-1.7-2.03-1.3-2.81,5.59-8.07,8-6,.77-2.43,1.4-2.46,2,0Z" style="fill: #252423;"/>
  <path d="M650.01,372c-3.14,3.16-3.71,4.84-8,8-2.35,1.73-5.26,4.21-8,6-.36.23-1.64-.23-2,0-4.05-.25-1.38-6.4,2-5,1.59,3.1,2.11-.61,2.28-.69.87-.4,1.65-.27,1.72-.31,4.23-2.52,7.62-5.79,12-8Z" style="fill: #8b3a1c;"/>
  <path d="M255.1,49c-6.78,6.38-15.74,10.13-22.99,16-47.92,18.37-88.17,60.87-116.97,103-2.66,1.28-5.3,2.7-8,4-2.96,1.42-7.58,2.81-10,4-3.53-7.08,4.05-12.15,7.41-17.09,30.51-44.75,82.63-93.98,136.52-108.45,4.39-1.18,9.92-.69,14.03-1.47Z" style="fill: #ed442c;"/>
  <path d="M485.04,65c-.25.57-.98,1.89-1,2-28.8-14.72-60.49-24.44-92.62-28.86-23.7-3.26-49.93-4.37-73.88-3.19-8.85.44-18.73,3.1-27.45,3.04,3.46-1.28,8.09-3.13,11.61-3.89,15.92-3.41,36.8-3.34,52.88-3.12,33.37.45,73.34,5.88,105.25,15.72,5.81,1.79,14.87,7.21,19.98,8.1,2.83.5,7.17-2.24,7.24,1.63.05,2.72-5.22,5.68-2,8.55Z" style="fill: #fda154;"/>
  <path d="M484.04,69c.11,1.84,1.04,5.54,2.26,6.74,2.17,2.12,5.01-.73,6.74,1.26-1.77,1.97-4.31,5.68-6,8-.85,1.06-1.01,2.26-.59,3.58-5.16,8.25-9.23,17.2-11.72,26.63l-2.69,2.79c-3.08,1.46-6.38-4.55-3-6-.28-3.47-1.73-22.47-1.09-23.75.37-.75,1.25-1.06,2.09-1.25-1.53-2.78-1.77-6.56,2-7,.28-.87.62-.86,1,0,1.92.54,1.93,1.43,0,2l1.62,2.02c-1.59,2.46-.46,1.45,3.38-3.02-2.07-2.8-.41-6.5,3-7,.76-1.76.53-4.14,3-5Z" style="fill: #c3300c;"/>
  <path d="M103.13,178c1.99,1.78.66,5.8-.4,8.02-5.39,7.34-9.56,15-12.51,22.96l-2.09,1.02c-4.09,4.29-5.85,10.74-5.3,19.35-6.83,2.68-8.47,7.84-9.93,14.78-3.15,14.94-2.08,30.48-1.04,45.54l-1.73,1.33c.29,2.07-.57,2.25-2.45,1.83,1.85,6.76.29,11.03-4.69,12.82-3.29,6.04-6.5,12.17-9.63,18.37-6.08,2.91-7.22,8.1-3.42,15.55l-1.8,1.43c-5.14.78-7.19-6.66-8-11-3.36-5.86-5.47-11.97-8-18,.97-3.05-.26-7.71.18-10.24,1.75-10.13,6.98-26.15,9.82-36.76,4.22-5.22,5-12.09,7.51-17.99,9.43-22.17,19.8-32.5,34.48-50.51,3.6-4.41,6.32-10.53,11-14.5,3.19-2.71,5.78-2.69,8-4Z" style="fill: #fe913c;"/>
  <path d="M48.14,341c2.67.42,2.53,1.19,0,2,4.35,6.7,9.42,12.82,16.18,16.71l-.19,2.29c1.49,1.5.51,6.62-2,6l-1.74,7.51c-6.75,12.68-10.57,25.8-11.75,40.08l-2.5,2.41c-1.03,1.62-2.36.96-4-2-1.83-3.87-6.75-8.47-6.83-12.48,2.01-16.66,1.91-34.36,3.91-50.94.38-3.17,2.63-6.27,2.61-9.65-.03-3.89-3.02-9.01-1.69-12.93,2.17,3.78,4.87,7.95,8,11Z" style="fill: #ce3f29;"/>
  <path d="M42.15,416c.61.23,3.83,1.84,4,2,2.81-1.13,4.34,2.23,2,4-1.3-.16-2.69.11-4,0-.39-1.1-1.85-5.69-2-6Z" style="fill: #934f41;"/>
  <path d="M494.04,84l.24,3.36c-3.6,6.72-7.1,13.44-10.5,20.16-.91,5.36-1.86,9.82-4.73,14.48l1.32,3.35c-6.84,25.76-.19,64.05,29.43,70.81,1.68,2.13,1.69,4.06-.77,2.83-6.07,3.7-13.53-.65-18.77-3.92-4.6,2.87-8.95,6.12-13.04,9.74l-2.18-.82-1.7,3.89c-16.26,12.87-28.69,29.53-40.09,46.68-1.09,1.57-2.43,1.96-4.08,1.47,2.52,7.29,1.71,10.2-2.43,8.73-6.21-16.2-14.68-31.23-25.42-45.1l-.27-3.67c-5.54-4.67-10.01-11.12-14-17-2.54,1.27-3.25.54-2-2-3.09-1.73-6.09-4.07-9-7-.5-.08-.97-.19-1.33-.45-4.17-2.98,6.92-3.89,9.6.01,10.6-11.1,26.24-16.58,40.9-20.51,5.4-2.75,7.64-5.4,10.94-9.98l6.88-9.07c-.17-1.7,2.01-5.24,4-5l2.44.21c1.27,7.12,12.86,4.91,18.11,3.59l2.45,1.2c.03-1.81.65-2.72,1.09-.99-.1-10.05,1.84-19.76,3.84-29.44,1.11-10.18,4.98-24.17,13.07-30.57,2.14-3.46,4.42-6.31,7.5-9,1.47,1.04-.86,3-1.5,4Z" style="fill: #be2005;"/>
  <path d="M553.03,134c1.75,6.03,5.44,11.39,9.93,15.64.2,1.25-2.12,2.99-2.93,4.36.45,4.8-3.78,13.52-8,16-3.18-1.62-2.98-7.28.28-8.71,2.78-7.98,1.13-15.42-8.15-15.68-4.45-3.99-8.47-8.67-12.05-14.03-8.6-2.73-15.51-5.85-13.65-16.22-4.5-2.62-9.26-5.42-14.27-8.4l-7.65,1.74c-1.34,7.02-7.53,5.29-8.91-.78-1.52-1.37-1.91,6.69-1.64,7.65-.52.84-4.59,7.35-4.99,7.63-.69.48-1.58-.28-1.94-1.21,3.31-14.91,6.64-25.13,15-38,2.01,2.63,1.37,4.81,4.04,7.45,5.63,5.56,10.44,3.32,16.01,5.99,11.43,5.47,20.87,18.74,30.48,26.52l8.46,10.04Z" style="fill: #fd741e;"/>
  <path d="M488.04,89c-10.5,16.96-14.89,40.71-15.95,60.38-.23,1.23-1.58.41-2.05.62-3.19-2.26-2.38-10.92-1.76-15.02,1.93-1.9,2.49-4.8,1.68-8.69,2.4-3.34,2.59-4.1,2.08-8.3,2.51-12.11,7.9-23.23,15-33-.66,1.84-1.33,3.33,1,4Z" style="fill: #fa6620;"/>
  <path d="M552.03,128c-1.58-2.49-1.78-7.79,0-10-.2,3-.24,7.03,0,10Z" style="fill: #fd741e;"/>
  <path d="M311.08,42c3.47-1.05,8.85-1.86,12.46-2.04,48.34-2.37,100.25,5.35,144.5,24.55,4.31,1.87,9.11,6.63,13,9.49-1.01,2.33-2.14,4.6-3,7-1.52,2.37-3.22,4.08-5,1,.13-.6-.14-1.43,0-2,.49-2.15.49-3.15,0-3-1.37.58-2.78.77-4.24.53-21.12-10.1-42.14-20-65.32-23.98l-2.43-2.55c-4.61-1.17-9.27-2.17-14-3-.19.89-.52.85-1,0-23.22-3.71-47.82-4.21-71.6-4.12l-3.38-1.88Z" style="fill: #fd8a31;"/>
  <path d="M311.08,42c20.59-.85,50.13.55,70.35,4.13,1.69.3,3.43.43,4.63,1.87-1.19.46-2.4.89-3.63,1.18-6,1.4-36.78.71-42.83-.91-1.2-.32-2.37-.78-3.53-1.27l-1.16.98c-35.33,2.54-74.7,7.45-103.74,29.68-3.3,2.8-6.32,3.58-9.07,2.35,10.74-12.09,25.08-21.83,38.99-30-.42,2.97.79,1.88,2.5,1.01,12.01-6.09,33.6-8.43,47.49-9.01Z" style="fill: #fd7c30;"/>
  <path d="M470.05,87c-1.15,6.76-1.9,18.29-1,25-4.43.14-4.34-11.89-1-13-.67-2.3-1.33-4.63-2-7-2.01-.24-1.92-1.23,0-2-2.17-1.29-2.21-3.38-1.71-5.56-2.1-.26-4.24-1.04-6.13-1.98-49.41-24.58-108.39-27.75-161.95-16.89-9.31,4.65-18.6,9.12-27.89,13.41-.45,5.83-3.39,6.1-8.43,6.33l-4.77,4.81c-8.73,1.4-11.45,4.81-8.16,10.25-1.89,8.05.84,11.9,8.17,11.57l3.01,2.1c1.35-5.15,5.28-3.73,7.62.11.52.28,3.99.19,4.38-.34.59-6.31,5.45-4.94,9.76-3.1,10.09-.72,20.19-1.21,30.31-1.47,9.88,1.06,33.03,9.95,35.81,20.15.78-.61,1.72-1.25,2.75-1.33,5.83-.41,15.31-1.07,16.67,5.74,2.21,2.14,18.98,8.99,21.81,7.91,7.06-4.73,10.81-6.99,15.61,1.85l5.73,3.59c7.33-.81,10.82,2.06,10.47,8.61,4.72.46,7.51,2.59,8.36,6.39l2.18-.18c2.48-4.54,9.05-10.3,13.4-11.99-2.97,4.38-8.88,16.09-13.07,18.42-6.82,3.8-18.04,6.09-25.96,10.03-3.85,1.92-10.33,5.7-13.89,8.11-1.63,1.1-4.56,5.14-5.7,5.34-1.82.31-8.68-7.26-8.36-1.9,2.83,2.85,5.83,5.18,9,7,.72.68,1.31,1.31,2,2,3.72,6.04,8.59,12.28,14,17,6.48,8.65,13.24,16.67,17.87,26.62l10.11,22.37-2.99-13.99c2.55-1.06,4.07,4.16,4.49,3.99,13.75-20.4,24.85-35.87,44.49-51,1.71.55,2.51,2.39,2.42,5.5,4.11-1.99,8.19-3.31,12.21-3.94,7.54,3.95,5.61,11.31.37,16.44-2.77,1.3-5.19,3.12-7.24,5.46l-2.76-.46q-1.86-.97,0,0l1.16,2.1c-3.63,6.86-12.65,16.57-19.15,19.9-.14,2.49-2.28,4.45-6.43,5.89l-2.48,2.18c-1.78,8.47-5.94,11.17-12.48,8.12,2.52,3.49,3.39,5.99.13,9.41-.72.75-18.19,8.02-19.23,8.08-25.13.84-50.22.9-75.25.18-3.89-4.43-7.88-4-11.97,1.28-.54,3.05-2.04,9.2-5.26,4.86,1.99-8.28,1.34-15.83,0-24,1.1-3.07-.35-6.9-3-9-1.7,1.03-3.84-2.34-3-4-3.44-4.26,1.27-7.79,5.65-8,13.65.76,26.11-1.77,32.24-15.17,6.15-1.71,6.53-21.75,5.05-25.38-.57-1.38-12.96-13.55-14.67-14.62-8.39-5.3-36.3-4.72-44.35,1.99-6.45,5.37-12.75,26.47-11.73,34.26,11.1,8.03,1.64,8.24-6.37,8.19-12.75-.08-16.14-2.71-18.81-15.26-1.85-1.14-3.43-1.75-4.73-1.83-4.47,8.73-8.99,17.54-13.57,26.44-1.62,1.36-1.92,1.34-3.78.77-2.07-.64-12.32-13.55-13.67-16.11l.76-2.27-1.23-2.9c13.26-12.12,28.6-21.24,46.02-27.36,6.62-9.11,15.4-12.83,25.7-17.08,3.97-1.29,5.13-3.18,3.49-5.67l2.25-2.07c7.75-.92,21.19.39,26.74,5.07,4.18,2.36,8.51,3.69,13,4,.43-.28.82-.59,1.09-.98.84-1.22-17.98-5.77-20.35-6.19,2.43-10.15,2.8-20.15,1.1-29.98-15.45-53.64-104.98-14.1-77.42,33.21l-.38,2.94.13,1.48c-11.66,2.53-19.11-1.59-19.91-14.38-7.28-4.5-9.31,1.05-6.11,16.64-1,11.48-10.29,8.41-9.21-1.62l-12.3-.66c-2.54-.75-3.83-2.12-1.59-3.96-.77-.1-1.91-.32-2-.89-.32-2.03-.07-19.27.67-19.94.35-.32.82-.51,1.33-.66-1.35,1.51-2.21,3.93-2.59,7.26-7.43,8.44-7.18,14.34-6.41,24.77,0,6.5-2.3,10.41-8.22,10.71l-1.78,1.26c.02-.49.08-.95.29-1.33.45-.8,17.22-1.89,17.2,1.33,4.97-2.25,7.51,6.61.41,7.92-13.27,0-26.54-.43-39.82-1.27-.09,5.85-4.78,7.95-14.06,6.31-3.01.19-5.32,2.24-6.92,6.16l-9.14,5.46c1.01,10.63-1.28,19.8-6.85,27.51-.03,2.48-.73,4.12-2.1,4.92l-2.23-.12-6.74-13.56.97-2.32c-1.75-6.29-5.97-11.64-12.66-16.07-1.58-5.52-2.67-10.97-3.26-16.35,2.87-5.1,4.82-10.7,5.85-16.79,9.65-3.5,17.41-9.63,22.15-19.02,3.29-3.04,7.37-5.12,12.25-6.24.68-2.22,1.83-3.82,3.47-4.81,6.48-1.39,13.21-3.03,18.2-7.73,1.75-.7,9.19-4.63,10-3.99-3.34,8.21-3.08,17.32-4,25.99,2.95,4.08,1.51,4.99-3.06,5.42l2.97,1.57c-.07-1.57,5.14-6.9,4.95-6.51-.92,1.87-2.04,4.05-2.85,1.52.73-8.87,2.7-17.55,5-26,.71,1.77,2.41-2.32,2.98-3.78.83-6.66,3.14-8.91,6.92-6.72.48-.27,7.87-5.76,8.72-6.52,2.94-2.61,4.9-6.07,6.8-9.49,7.79-17.24,14.19-30.6,33.37-36.04,3.99-6.43,10.08-10.2,18.28-11.31,16.17-14.13,33.51-20.74,55.02-22.89l1.89,1.75c5.57-2.85,11.95-3.84,19.12-2.96,35.52-6.63,70.7,2.72,104.75,13.09,5.22,1.59,27.25,10.13,31.47,14.05,2.61,2.42,3.55,4.27,3.63,7.81Z" style="fill: #fd7515;"/>
  <path d="M232.1,65c-18.65,15.09-43.49,45.32-53.04,67.45-1.05,2.44-2.52,10.8-3.96,12.04-15.45,5.83-30.54,12.69-45.98,18.51-3.05.08-6.05,1.08-9,3-2.18,1.12-3.67,1.36-5,2-2.1-4.45,2.46-6.16,4.41-9.08,21.98-32.95,50.32-60.13,83.23-81.75,5.92-3.89,17.96-9.78,24.59-12.41,1.44-.57,3.75-1.67,4.73.24Z" style="fill: #ee2f14;"/>
  <path d="M336.08,47c3,4.01-2.73,4.89-6.24,5.08-6.99-.88-13.24.1-18.76,2.92-10.21,1.46-28.94,4.74-37.69,9.8-5.45,3.15-13.87,11.03-19.34,13.66-2.74,1.32-8.92,1.54-11.52,3.48-1.84,1.37-1.98,4.75-4.49,6.5-6.33,4.42-14.71,4.55-20.76,12.24-6.57,8.34-12.09,25.38-19.15,32.85-3.07,3.25-8.67,3.29-10.52,9.45-7.18-6.34-4.22.03-6.01,4.01-.13.3-5.56,7.97-4.49,3.01,4.44-16.32,29.71-64.2,44.99-70,10.89-4.13,19.44-13.46,29.26-17.23,18.76-7.19,47.78-14.25,68.17-15.81,5.25-.4,11.16.17,16.54.04Z" style="fill: #fd7324;"/>
  <path d="M164.12,152c-.29,3.15-7.63,6.74-10.06,7.43s-7.22.28-7.81.69c-.62.44-.74,4.52-2.55,5.95-1.94,1.54-7.6,2-10.54,4.46s-5.01,8.78-8.5,11.5c-1.71,1.33-7.91,6.11-9.13,6.87-1.72,1.08-5.04.8-5.94,2.06-.64.89-1.57,8.22-2.39,10.61-1.33,3.87-4.06,3.22-3.01,9.87.37,2.32,1.86,3.64,2.47,5.53.64,1.98.12,4.35.96,6.06,1.91,3.93,13.62,6.56,10.51,15.98l-2.64-.47c-3.47-5.52-7.89-10.22-12.58-14.66-.65.63-1.23,1.08-1.54.94-.58-.26-1.72-1.24-2.25-1.76-2.94-2.87-6.05-7.71-7.99-11.05-1.2.48-3.24-.67-3-2,.08-2.58,1.01-5.09,2.13-7.37,2.9-5.91,7.39-11.56,10.3-16.7,1.08-1.9,1.54-5.7,2.57-7.93.27-.16,2.56-2.48,3-3,19.25-7.83,38.69-15.29,57.99-23Z" style="fill: #fc792d;"/>
  <path d="M172.12,176c2.99,1.05,1.91-6.56,3.95-1.56-1.8,1.17-4.9,9.5-5.45,9.53-.59.03-5.07-4.31-7.5-2.98-.71-4.22,6.38-3.54,6.95-4.05.31-.28-.04-2.14.04-2.95.6.56,1.29,1.75,2,2Z" style="fill: #fe7310;"/>
  <path d="M129.13,163c-2.93,1.1-5.93,2.28-9,3,1.74-.9,6.44-5.8,9-3Z" style="fill: #ed442c;"/>
  <path d="M561.03,160c-.33,4.13,3.55.51,5.38,1.06,1.96.59,2.71,7.36,2.71,9.44-.03,12.73-4.27,25.64.7,38.21.93,2.35,8.94,14.83,10.77,17.22,4.77,6.25,6.24,1.01,10.81,1.11,5.29.12,20.07,4.35,24.11,7.96,6.25,5.57,17.84,30.14,22.04,38.95,7,14.7,6.95,27.02,8.47,42.53.48,4.91,3.77,11.68,3.97,14.06s-2.15,4.92.02,7.46c-1.05,3.07-1.81,6.71-3,10-3.04,5.85-7.69-1.17-5-4.5-.78-.21-1.94-.55-2-1.17-.72-7.17-.92-25.45,0-32.37l2-1.46-2.1-.24-6.1-17.09c-3.2-2.22-6.7-4.05-10.49-5.5-5.97-4.28-12.83-25.05-14.88-32.65-7.33-1.97-14.32-5.51-20.99-10.61-12.06-3.51-19.58-7.29-22.98-20.15-4.63-5.88-6.61-10.94-6.8-18.45-2.53-10.97-3.94-12.73-4.21-5.3-.92,2.86-3.2,7.2-5.43,3.49l-1.34-3.66c1.05-7.14,7.4-34.22,12.35-37.43.6-.39,1.28-.66,1.98-.9Z" style="fill: #fc7711;"/>
  <path d="M560.03,154c2.37-.04,3.47-.67,3,2-.78,1.22-1.3,2.71-2,4-7.32,13.52-10.2,27.13-13,42l.91,6.38c-8.34,55.45-2.5,112.37,5.29,166.61,2.04,22.42.52,31.4-19.65,45.07,9.21-1.55,18.02-2.33,16.7,9.95l-2.25,1.98c-1.23.52-2.39,1.34-4,2l-2-1.08c3.76-4.29,1.09-6.59-8-6.92-.22,2.04-1.23,1.96-2,0-4.39,3.11-10.5-2.52-7.97-7.34.37-.7,11.07-7.77,13.03-8.71,1.61-2.96,3.59-4.61,5.93-4.95l-.72-2.36c4.57-5.53,4.39-13.7,3.68-20.69-2.28-22.65-4.78-45.25-7.39-67.88-1.42-9.76-1.28-19.12.43-28.08-1.29,3.24-12.93,3.1-14.5,0-.39,2.99-7.64,5.52-9.5,3-1.41,2.57-8.39,4.58-11,3-2.75.83-3.36-1.45-1-3,2.49-3.18,6.37-5.86,10.27-4.34,4.11-1.87,8.19-2.77,12.73-2.66,3.65-2.39,7.87-2.69,11.87-1.11-2.58-20.89-2.02-43.61.49-64.69,1.15-9.6,5.19-38.2,10.53-44.3.62-.71,1.35-1.32,2.11-1.91,1.97-5.29,5.11-11.11,8-16Z" style="fill: #ba1f01;"/>
  <path d="M548.03,202c1.94.85,3.58-4.02,3.71-4.78,1.47-8.18,1.48-10.5,4.31-18.74.49-1.42-1.21-3.04,1.97-2.48.88,4.45-2.05,9.47-2,13.52.05,4.07,3.71,12.35,3.98,16.02.8,11.15,1.25,6.94,6.23,15.76,1.49,2.63,2.08,6.17,3.97,9.03,5.25,7.96,9.81,6.45,17.18,9.81,5.26,2.4,13.68,9.07,17.59,10.42,1.51.52,4.44.16,4.93.56.42.35,2.14,8.73,2.91,10.58,2.71,6.52,5.11,9.88,7.77,17.23,2.91,8.06,10.76,5.92,14.88,11.12.8,1,6.55,17.39,6.55,18.44v35c0,.84,2.33,3.83,2.01,5.5l2.99-1c-4,11.09-8.28,22.2-13,33-.53,1.22-2.72,2.53-2,5-2.93,1.91-5.87,4.63-8,6-1.52,5.12-9.35,8-14,8-2.26-2.65,2.83-7.82,5.87-7.75,2.1-7.18,5.47-13.37,10.12-18.57-2.35-3.81-1.95-6.21,1.19-7.2,2.38-13.98,4.45-28.1,6.21-42.35,1.14-21.36-5.49-19.52-9.74-1.83-4.87,5.37-9.23,11.19-13.09,17.45l-32.7,62.1c-3.4,4.45-5.16,8.23-3.67,13.86,2.04-2.35,6.5-2.99,7.82.29-10.07,6.9-21.78,11.25-32.99,16,2.58-17.2-9.31-8.26-20-10.01,8.02-6.88,18.74-13.06,22.89-23.59,4.05-10.27-3.6-48.42-4.89-61.91-4.2-43.81-7.13-91.27.99-134.49Z" style="fill: #f76d03;"/>
  <path d="M67.14,434c-2.17-1.31-5.89-2.67-8-4-1.61-1.02-3.39-2.98-5-4s-4.43-3.81-6-4c-.19-.63-1.84-3.84-2-4,1.39-6.39,1.62-13.01,3.1-19.4,2.59-11.13,7.93-20.83,12.89-30.6l1.32,2.01c-.76,20.12.35,40.66,6.49,59.44.43,3.38-.5,4.9-2.81,4.54Z" style="fill: #ec3f25;"/>
  <path d="M516.04,289c7.66,1.02-1.38,6.17-5.36,6.73-3.72-.14-6.54,1.09-8.47,3.71,7.35-1.5,9.68,3.35,9.22,9.94-.71,8.84-.98,16.38,1.82,24.92-.3,10.49-.02,20.91.84,31.25,5.59,3.02,8.47,17.79,1.99,20.37,1.56,8.63,2.6,17.27,3.12,25.94,2.74,4.48,2.35,7.13-1.16,7.94-6.54-.92-6.06.58,1.45,4.52,5.89,6.99-.02,15.74-6.23,7.83-.54-.69,6.28,12.25,13.35,2,11.74-1.91,14.36-3.81,7.88-5.72l.55-2.43c3.6.01,6.51-.69,9.99-1.01v9.01c-41.16,16.87-77.05,22.86-118.97,34-.48-1.72-.32-3.37.34-5,17.22-42.52,32.13-83.95,24.02-130.81,11.91-12.82,35.25-37.14,52.42-40.73.67-.14,1.42.14,2.2.54,4.01-1.6,7.05-1.97,11-3Z" style="fill: #fe7513;"/>
  <path d="M130.13,384l2.34-1.54c3.67-6.7,7.25-7.45,10.73-2.25,11.3-16.24,23.38-8.75,23.11,9.57,2.94,8.11,5.61,15.65,5.57,24.28,6.08,2.95,8.13,6.99,6.17,12.12.64,8.71,1,10.65,1.07,5.82l1.36.13c.82,15.49,3.77,30.6,8.86,45.34,1.78.51,2.14,3.35.78,4.53-4.22.27-15.18-3.25-20.01-4.49-25.93-6.66-49.94-15.97-73.97-27.51l-5.09-4.21c-11.99-2.76-17.79-10.22-16.92-22.86-6.25-15.15-4.02-58.62,21.77-49.02,6.99,8.99,10.52,13.25,21.52,15.17.43.08,2.85.88,2.71.91-.63.15-4.08-.82-2.99-1.99.79-1.73,2.77-2.64,5.95-2.72,3.41-2.22,5.76-2.64,7.05-1.28Z" style="fill: #fe680d;"/>
  <path d="M418.06,470l-.52,1.11-11.48.89c-1.33,0-2.67.05-4,0-.95,1.72-4.84,1.59-6,0l-1.25-1.06c-1.86-10.82-4.72-21.47-10.74-30.94-2.83.27-5.65-5.48-5-8-1.64-1.98-1.69-4.15-1.72-6.58-.06-4.85,5.5-39.11,7.46-38.46.48.16.88.57,1.25,1.05,3.95-8.97,14.42-14.24,22.74-6.34,12.4,3.07,30.49.86,32.7-14.53.96-7.04,2.93-13.66,5.91-19.84l2.63-.29c1.07,1.25,2.06,2.68,2.19,4.36,2.2,28.83-5.89,57.79-14.86,84.86-1.46,4.4-9.64,26.95-12.85,30.48-1.26,1.39-4.61,2.79-6.46,3.3Z" style="fill: #fe7313;"/>
  <path d="M270.09,218c2,5.49,3.53,11.17,3.56,17.22,12.77-2.44,24.78-2.14,36.37,4.21,4.96,2.71,12.33,6.95,13.05,12.57.68.68,1.56,2.45,3,4,2.44,1.99,4.46,6.1,3,9,2.67,9.44,3.06,14.47,0,24,2.3,4.37-3.1,13.69-8,14-2.18,1.59-3.26.23-2.55-2.33,7.91-9.59,11.88-21.68,7.43-33.8l1.12-2.87c-9.47-13.71-18.84-23.13-36.21-24.48-2.84-.22-14.17-.19-15.65,1.23-.64.62.2,17.3.93,17.81,3.86-8.01,29.88-10.45,26.37.6-9.41,12.46-20.55,27.28-22.42,42.84,2.72-.19,9.29,14.48,9.16,15.39-1.16.68-1.66,1.53-1.16,2.61,1.89.03,2.93,1.78,3.11,5.28,29.98-16.02,86.87-29.98,118.52-13.38,3.13,1.64,10.28,6.44,4.34,7.1l-3.8.35c-38.44-16.78-81.19-2.9-117.51,12.44,5.55,16.84,10.03,35.2,11.17,53.03.04.66-.24,1.35-.56,2.08s-.78,1.43-1.27,2.1c-.49,2.76-1.98,2.56-3,0l-2.64-5.77c-3.3-26.92-10.8-53.1-20.08-78.51-3.78,1-7.75,2.24-11.92,3.71l-2.35-1.42c-2.04-1.74-1.6-2.45,1-2,.92-3.66,2.59-5.33,5-5-.36-3.14.45-4.67,4-4,.71-3.23,2.42-6.34,5.12-9.35l8.48-18.32c8.19-11.51,4.24-9.71-5.13-5.15-1.8,1.85-3.62,2.46-5.48,1.81,1.07,2.37-.93,3.4-2.9,2.1-1.11-.73-3.84-10.25-1.1-11.1l-1.82-2.22c-2.22-8.65-3.83-17.46-4.85-26.46l-5.86,11.56c-1.45,3.99-3.6,6.03-6.47,6.11,2.14,6.02-6.62,4.63-6-1l-1.68.34c-5.52-4.69-10.47-9.97-14.85-15.85-1.32,8.96-4.47,16.79-9.46,23.51,1.39,2.47.39,3.81-3,4-1.75,3.34-10.91-.44-11-4-2.19,2.01-4.86-.44-4-3-4.56.51-3.61,7.06-2.83,10.84-.37,3.52-2.03,11.12-6.16,8.16-1.25.1-2.15.77-2.76,1.91-4.68-.32-8.85.26-12.5,1.76-.24,2.74,20.92,38.41,28.63,38.95,3.24.78,5.44,2.25,6.62,4.39l-1.44,1.9-9.85-.43c-5.36,19.79-10.26,39.63-14.71,59.53l1.61,2.94c-3.41,27.23-6.25,55.69-1.16,82.9.93,4.98,2.4,10.99,4.55,15.17,1.55.93,1.53,2.04,0,3-.47.52,1.17,1.8-2,2l-7.55-21.95-3.45-28.05c-1.45-3.54-1.68-6.34-.69-8.4-2.06-8.25-1.59-16.58-1.04-25.32,1.82-28.94,9.05-57.97,17.67-84.98-8.25-10.95-15.95-22.35-23.11-34.18-12.33-2.16-25.61-3.7-37.87.22l-1.95-1.35c-1.56,1.83-2.9.83-4-3-2.92-.18-2.71-2.35,0-3-.52-3.77.15-4.77,2-3,13.35-7.8,28.96-13.42,44.58-14.6-1.88-3.84-5.52-15.75,1.72-12.29l9.82,19.28c3.39,1.09,6.5-.35,6.08-4.19-5.48-19.91-2.4-25.8,9.22-17.67,4.02,3.5,8.29,6.56,12.81,9.21,4.08-8.26,6.99-17.17,8.74-26.74.73-2.47,2.07-3.47,4.01-3,2.57-4.19,9.45,2.25,8,6,2.12,2.47,12.07,17.32,14.36,16.93,4.45-.77,9.58-22.7,13.59-26.47,3.34-3.14,6.01-1.14,7.05,2.54Z" style="fill: #c42803;"/>
  <path d="M582.02,416c-1.69.07-3.8-.35-5.31.01-.38.09-3.86,5.86-4.73-1.46-1.07-9,1.59-8.45,4.58-14.52,5.98-12.13,12.45-23.64,18.66-35.34,5.79-10.91,11.17-22.67,17.96-33.04,2.66-4.06,7.1-6.51,9.39-11.61s2.49-17.29,10.79-12.13c1.1.69,1.4,2.42,1.57,3.64,2.15,15.63-2.3,34.99-5.66,50.19-.42,1.91.13,4.04-.23,5.54-.28,1.18-2.91,1.33-3,2.19-.04.37,2.47,2.49,1.85,4.81-.37,1.41-2.53,2.36-3.29,3.78-2.19,4.11-4.24,8.53-6.33,12.72-1.13,2.27,1.54,3.46-3.93,3.52l-4.31,5.68.17,1.94c-7.78,5.58-16.11,10.5-25.16,14.06-.99.06-2-.04-3,0Z" style="fill: #f56201;"/>
  <path d="M299.09,389c.97.04,2.14-.16,3,0,.63-3.17,3.25-2.1,2,1,1.91.23,2.68.76,1,1.08,11.09-1.36,17.62,7.73,2.32,6.38-5.02-1.45-9.8-1.27-14.32.54l-1.12,2.07c-15.12,2.05-40.12,8.86-48.94,22.1-4.34,6.52-1.12,7.88,5.27,9.34l.79,2.49.07,2.37c-4.93,3.53-9.63,7.49-13.73,11.97l-2.34-.34c-5.13-3.96-13.25-.42-18.02-5.47-1.58-1.67-2.82-7.64-5.96-6.08-.46.23-4.26,5.15-4.67,5.9-2.18,3.93-2.77,9.77-4.44,13.85-.32.78-3.8,4.25-3.86,4.54-.76,3.52-.96,8.08-1.99,12.81-.41,1.89.38,4.17-.02,5.8-.27,1.09-1.92.54-2.02.65,0-1,0-2,0-3-.56-.24-1.04-.53-1.22-.94-3.9-8.77,11.8-41,18.5-48.86l2.72-.2.72-3.91c16.94-18.74,40.59-31.04,65.52-34.92,4.27-.66,16.11-2.42,19.07-.57.61.38,1.15.87,1.67,1.4Z" style="fill: #100d0e;"/>
  <path d="M504.04,289l1,3c-20.68,8.25-37.98,24.59-52.83,40.7,7.63,46.88-7.18,93.1-26.16,135.3-.86.23-5.8,1.75-6,2-.36,1.54-1.13,1.41-2,0,5.35-2.53,7.78-9.98,10.17-15.33,14.57-32.56,24.97-72.08,21.82-107.67l-2.07-1.1c.1-4.97-.67-9.72-2.32-14.25l-16.3,40.01c-5.13,2.77-4.28-2.25-3.26-6.12,3.67-11.45,7.82-22.75,12.43-33.91,1.45-9.8-1.62-10.08-9.2-.84-9.69,11.4-16.97,24.63-21.85,39.66-1.84,1.25-3.2,1.87-4.32-.16-2.86-5.21,8.79-31.71,13.49-37.36-3.14-2.74-20.87,28.2-21.04,32.19-2.34,8.23-5.52,15.86-9.56,22.89-.01.05-.79-.19-.98.51-3.69,13.74-5.78,29.26-6.02,43.49-.23.85-.57.83-1,0-2.22-.22-5.01-3.06-3-5l-1.19-4.36c2.29-24.57,15.31-76.64,35.59-92.65,2.05-1.62,15-7.13,17.71-7.73.89-.2,2.06.28,2.87.74.58-4.52,10.92-7.7,13.68-3.26.41,5.41,1.94,6.16,7.18,6.46,7.82-9.86,17.76-18.62,28.28-25.84,7.57-5.19,16.09-11.01,24.84-11.36Z" style="fill: #c12a02;"/>
  <path d="M67.14,358l-1.67-1.74c.63-4.45,8.44-29.2,11.47-29.58,1.05-.13,1.94.28,2.64,1.04,3.21,10.52,6.89,20.78,12.18,30.61l-.62,1.67c.78-.34,1.53-.34,1.83.29,4.76,9.98,11.23,23,22.95,25.64l1.21,2.07,2.99,1.99c-3.48-.2-7.43.71-10.74-.74-2.44-1.07-2.72-3.37-4.35-4.65-1.02-.8-2.65-.94-3.95-2.05-1.72-1.47-4.9-6.18-5.64-6.61-7.05-4.08-16.73.38-18.81,8.05-1.81,6.68-4.32,23.89-3.4,30.42.43,3.06,2.44,5.47,2.85,8.15.68,4.41-.27,14.24,4.39,17.1.95.58,2.51.11,3.34.67.87.58,2.23,3.46,3.05,3.64,1.62.36,3.24-.31,5.03.33.33.12,4.36,4.63,4.24,5.71-5.63-2.7-11.51-4.98-17-8-.85-.47-1.86-1.35-3-2-7.87-9.06-10.26-24.09-11.72-36.04-1.78-14.56-2.68-32.37,2.72-45.96Z" style="fill: #fd7621;"/>
  <path d="M225.1,476c3.28-9.11,14.23-6.79,10,3l1.19.87c-3.7,10.16-4.34,20.31-1.33,30.91l-.85,1.23c1.25,9.44,9.21,20.82,18,25l1.69-.18c19.39,13.9,43.8,10.86,63.29-.82.79-2.36,4.39-6.68,7-6,6.41-1.07-1.27,6.71-3.58,9-4.07,2.6-7.38,5.39-9.92,8.35,4.66-.1,7.49,1.12,8.51,3.65-4.41,4.5-12.94,6.37-19.42,7.46-7.29,1.23-15.55,1.75-22.57-.46-7.69-1.44-17.49-3.57-23.99-9-6.82-4.44-13.15-9.77-19-16-.7-.94-1.37-2.01-2-3-4.34-6.99-7.34-14.32-9-22-1.15-1.84-1.8-5.49-1-7.5-1.37-4.11-.96-10.47,0-15-.29-2.85.68-8.35,3-9.5Z" style="fill: #e3e4e3;"/>
  <path d="M324.08,430c2.97-.42,9.42,2.92,10,6,2.1-.46,4.88,1.95,6,4,3.31-1.94,7.42,4.15,6,7,2.49-.49,7.76,4.37,6,7,.61-.36,1.11-.28,1.37.35,1.65,3.92,3.08,6.35,5.36,9.77,1.86,3.77,5.52,11.51,4.27,14.89.62,11.24,1.4,20.76-1.7,31.8-9.86,35.17-43.24,52.92-78.28,50.2-.87-.28-.86-.62,0-1,32.06.2,61.82-17.01,70.98-49,.82-7.62,1.48-15.28,2-23-1.84-1.76-2.2-6.37-2-9-6.32-19.23-19.36-35.25-38.26-43.41l-.73-1.59c.93-2.33,2.26-4.33,4-6,1.52-2.54,5.68-.93,5,2Z" style="fill: #dfdfdf;"/>
  <path d="M352.07,454c-.61-1.92-.09-3.1,1.61-2.1,8.77,12.24,26.3,32.13,33.29,6.44-.81-2.4-.45-4.18,1.09-5.34,1.3-2.61,4.09,3.73,4.57,5.39-.07,5.31,1.07,9.85,3.43,13.61,1.7.29,4.11-.07,6,0,.64,3.97-4.74,1-6.8,2.21-.43.26-.74,2.03-1.67,2.78-6.86,5.53-15.14,11.11-24.29,6.26-1.85-.98-1.89-2.65-2.44-3.03-.27-.19-1.34.77-1.6.56-.51-.39-.56-1.74-1.17-2.24-.42-.34-.97.47-1.02.45-1.22-.62-8.21-20.65-11-25Z" style="fill: #1c1c1c;"/>
  <path d="M624.01,392c1.26.35,4.46-1.17,3.9,1.38-2.42,11.04-6.81,25.33-5.9,36.62-2.36,1.75-4.58,3.31-7,5l-2.95-3.4c2.24-9.46,3.73-19.36,4.76-28.88l-2.31-2.71c-1.19,3.63-3.9,3.14-5.65,4.09-2.34,1.28-5.79,4.8-6.87,5.39-4.63,2.56-12.36,6.23-16.96,6.51,5.2-4.38,12.06-7.05,17.92-10.58,2.58-1.55,5.05-4.15,7.08-5.42,4.39-2.76,9.38-5.03,14-8Z" style="fill: #0f0e0f;"/>
  <path d="M260.1,434l-.72,1.68c-28.28,12.67-42.18,42.28-37.28,72.32,2.07,5.3,4.33,10.63,6.79,15.99l-.79,1.01c-1.87-.82-2.4-2.66-3.18-4.32-11.1-23.77-8.55-52.17,8.18-72.68,3.64-4.46,11.15-10.8,16-14-.26-3.57,6.09-7.08,9-5,2.81-1.05,4.4,3.48,2,5Z" style="fill: #c9c9c8;"/>
  <path d="M253.1,549c.52.3.51.64,0,1-4.64-3.23-7.43-4.11-11-8-2.28-1.57-4.28-3.57-6-6-.72-1.01-1.36-2.14-2-3,1.96-.02,2.78,1.35,4.01,2.48,4.05,3.72,10.59,10.83,14.98,13.52Z" style="fill: #323232;"/>
  <path d="M277.09,558c.87.28.86.62,0,1-5.26-.72-10.59-2.06-16-4-3.86-1.71-5.66-3.38-8-5v-1c3.7,2.26,19.92,8.45,23.99,9Z" style="fill: #2e2e2e;"/>
  <path d="M232.1,530c-.94-1.46-2.43-1.71-4-5-2.07-4.36-4.96-12.32-6-17,.28-.87.62-.86,1,0,1.59,7.64,7.59,14.3,9,22Z" style="fill: #3c3c3c;"/>
  <path d="M277.09,559c1.49-.6,4.72-.23,6,1v1c-7.68-.6-15.01-2.91-21.99-6,5.41.08,10.85,3.07,16,4Z" style="fill: #919190;"/>
  <path d="M418.06,470c.66-.03,1.33.02,2,0-.23.29.24,1.82,0,2-.56.42-11.85.01-14,0,3.13-1.19,8.35-1.81,12-2Z" style="fill: #1c1c1c;"/>
  <path d="M242.1,542c-3.99-.31-4.52-3.92-6-6,2.66,1.34,4.1,3.93,6,6Z" style="fill: #9b9b9b;"/>
  <path d="M609.02,450c.56-.23,2.14.18,3.24-.23,3.77-1.4,13.63-8.48,11.52.49-1.39,5.91-6.06,16.43-8.59,22.41-5.67,13.4-12.84,27.28-22.17,38.33,8.75-13.83,23.31-38.71,23.79-54.81.21-7.03-8.4-2.08-12.79-3.19,1.46-.72,2.96-2.15,5-3Z" style="fill: #c8c8c8;"/>
  <path d="M578.02,468c4.7-2.46,9.33-5.46,14-8,10.78,1.12,3.44,16.15,1.48,22.98-2.12,7.37-3.8,15.49-6.18,22.82-8.2,25.33-56.71,63.9-82.26,70.72-4.58,1.22-11.68,2.79-12.11-4.01-.33-5.26,3.1-5.87,4.97-9.13.98-1.71.85-3.78,1.69-5.31,1.19-2.17,5.15-4.07,4.29-7.36-2.89-2-4.58-6.72-6.41-8.66-1.48-1.58-3.91-1.8-5.49-3.51-3.78-4.08-4.22-6.36-10.24-9.75-2.71-1.53-13.19-3.29-10.25-9.74,2.62-5.76,18.69-12.28,24.74-14.32,22.69-7.64,46.37-15.7,67.7-26.29,3.96-1.96,12.54-6.53,14.07-10.43Z" style="fill: #b2b2b2;"/>
  <path d="M67.14,358c-5.37,26.03-1.92,57.8,9,82-3.26-1.86-6.22-4.32-9-6,2.57-5.05-1.52-11.69-2.53-16.96-3.18-16.47-2.57-32.32-2.46-49.04,1.36-2.68,1.26-4.28,2-6-2.48-2.01,2.38-8.51,3-4Z" style="fill: #c9300d;"/>
  <path d="M466.05,90c.04.66-.03,1.34,0,2,.67,2.3,1.34,4.63,2,7,.16,4.17-.96,9.62,1,13,.35,2.61,1.8,4.32,3,6,.4.56,1.73.7,1.98,1.73,1.25,5.32-1.8,5.31-1.95,5.96-.6,2.56.56,6.09-.05,8.62-.18.76-1.77.62-1.95,1.38-.91,3.77.59,10.15-.02,14.31-5.22,2.38-17.2,3.55-21.34-.91-1.04-1.13-.35-2.6-1.66-4.09l-2.01.95c-8.65,10.38-12.49,14.64-19.52-.14-2.6-1.22-5.4-2.04-8.39-2.47-5.07-11.14-19.57-11.97-29.64-7.5-5.25.21-8.68-3.2-10.32-10.22-6.73-3.41-14.44-5.56-23.12-6.45-1.69-3.86-3.49-7.52-5.37-10.98l-9.37-.47c-11.5-6.54-26.02-8.81-39.16-8.68-5.53,1.89-8.71-15.46-7.83-17.79,1.38-3.66,4.69-4.95,8.33-5.49,7.88-.2,15.21-2.65,21.99-7.35,4.58,1.11,8.8,1.41,12.65.92,2.74-8.59,17.99-7.97,25.7-7.57,14.62.76,31.55,1.68,45.98,3.4,19.65,2.35,41.96,11.18,58.27,22.26l.79,2.57Z" style="fill: #fe6d07;"/>
  <path d="M478.05,81c-3.98,11.12-5.92,21.07-6.01,33-1.3.27-1.6-1.85-1.74-2.74-1.25-8.07,1-21.2,2.75-29.26l5-1Z" style="fill: #f8682a;"/>
  <path d="M48.14,341c-.54-4.29-1.95-5.43-2.08-6.43-.16-1.26-.13-7.84.24-8.42.19-.29,3.41-1.08,4.87-2.63,3.52-3.75,6.49-14.65,10.07-18.93,1.51-1.8,4.2-1.59,4.79-3.23.72-1.98-1.41-15.53-.79-16.25.1-.12,2.22-.62,2.89-1.11.32,1.94-.47,4.61-.02,6.35.29,1.11,1.93.53,2.03.65.5-.12.99-.2,1.45-.13,1.5.23,1.78,14.41,1.5,16.6,1.63,1.61,1.99,2.96.05,4.53-.08,4.66-.03,9.43,1,14,1.48.64,2.17,1.57.86,2.48-.1,3.46-11.66,28.06-15.26,28.13-1.55.03-10.31-11.17-11.6-13.6-.09-.65.08-1.35,0-2Z" style="fill: #fd8935;"/>
  <path d="M88.14,210c1.29.13,2.13,1.42,3,2,1.18,1.46.62,2.01-1,1-3.76,3.15-3.4,12.56-3.14,17.6.46,8.75,1.75,17.22,3.28,25.96,1.29,14.52-6.39,10.81-7.37-.42l-3.39-19.39c-12.25,36.81-1.35,82.28,14.34,117.28l.28,4.97c.83,2.75-1.45,3.36-3,1-2.33-4.45-5.37-9.05-7.48-14.02-1.21-2.85-4.91-16.34-5.52-16.99-1.7-1.79-1.69.68-2.08,1.42-3.34,6.47-7.41,20.31-8.91,27.58l-.99-1c.64,2.4-1.5,3.81-2.01,5-1.43-1.05-3.18-1.8-4.49-3.01-3.23-2.98-11.01-12.21-11.51-15.99l11.48,12c1.1-.67,1.58-1.74,2.24-2.77,2.89-4.45,10.98-21.28,12.27-26.23-.97-4.59-1.3-9.26-1-14-.82-3.46-2.02-3.34-2.02-3.57-.07-2.92.6-15.52-.98-17.43-.63-13.77-4.08-51.71,7.48-61.06,1.06-.86,3.33-.6,3.58-1.56,1.03-3.91-.61-19.16,6.93-18.39Z" style="fill: #c34319;"/>
  <path d="M479.05,122l.97.45c-1.35-4.07,2.62-3.54,3.55-5.42,1.45-2.92-1.16-9.77,3.13-10.91,3.75-.99,2.9,3.4,4.29,4.43,3.72,2.75,3.02-2.28,4.29-3.32.75-.61,7.9-2.41,9.18-2.24,3.17.43,10.05,7.33,14.52,7.57,2.89,2.28.46,5.14,1.48,8.47,2.38,7.83,8.38,5.73,12.83,8.94,3.19,2.3,7.68,11.36,10.16,13.11,2.14,1.51,4.56.45,6.59,1.41.39.18,5.32,6.15,5.5,6.54.74,1.59-.95,9-1.58,11.23-.24.84-1.73.7-1.91,1.44-.45,1.86.2,4.31-.03,6.3-13.05,35.08-13.69,74.99-11.99,112-4.32.03-8.68-.06-13,0l-6.9.52c-4.03,2.32-7.53,2.8-10.5,1.43-2.74,3.24-11.25,7.45-15.02,7.77-.79.07-14.18-4.47-14.59-5.14-1.09-1.76,2.33-13.43,3.48-15.48,5.9-3.02,7.09-11.7,1.88-16.17l-.36-8.8c-10.27.77-8.97-7.68-1.92-11.92.34-3.02,2.01-8.93,5.44-6.8l4.39-3.21c1.3-5.14,2.93-10.27,4.89-15.4-3.8,4.61-9.74-2.9-3.65-5.25-.55-4.65.79-6.18,5.19-4.04,3.78.99,6.18,1.33,9.69-.51.53-1.18,2.02-.31-.38-1.1-9.5-3.11-15.35-5.27-21.03-13.98-13.76-21.11-13.87-38.05-8.58-61.92Z" style="fill: #fc6b04;"/>
  <path d="M509.04,199c-3.11,6.91-7.89.78-12.99.99-.08,1.4.3,3.07-.13,4.39-.48,1.46-6.79,2.61.13,4.62-.52-3.74.6-3.15,4-3,.33.3-1.24,7.6-1.76,8.73-1.94,4.26-2.02,2.89-3.69,8.28-.95,3.06-6.9,9.51-8.04,4.98-3.23,1.63-1.28,5.66-1.96,6.99-1,1.98-3.88,1.44-4.59,2.73-.53.96-.41,5.76.12,6.2.77.65,5.16-.87,6.49,1.01,1.22,1.72-.11,6.7.64,9.35.55,1.92,3.67,3.16,3.7,6.19,0,.45-1.88,8.24-2.11,8.81-.82,2.01-3.53,2.13-4.3,3.7-.81,1.65-.35,4.07-.95,6.04-.49,1.63-2.66,3.81-2.38,5.33.63,3.49,5.93,2.2,8.12,2.86,2.79.85,4.98,3.31,8.22,2.8.58-5.71,2.35-1.17,5.79-2.14,2.95-.82,2.91-6.94,8.09-5.91.77.15.22,2.2,2.09,2.14,2.55-.09,4.25-2.31,6.46-2.69,1.9-.33,4.67.61,7.07.58-8.01,1.74-15.41,3.96-22.99,7-17.81,7.12-32.15,18.46-45.89,31.6-1.81,1.73-5.1,7.06-7.1,7.96-.33.15-6.74-1.81-7.04-2.02-4.18-2.85,3.27-12.1-13.95-3.55-3.91-.71-7.88-.75-11.93-.12-2.72.11-5.75-.96-4.07-3.88,2.02-.42-1.11-2.67-1.53-2.97-18.63-13.54-56.19-9.67-77.64-4.72-14.93,3.45-31.29,8.59-44.31,16.67-1.77-.11-1.99-6.52-2.49-7.98-.53-1.35-.56-2.61-.09-3.78,11.09-.89,22.45-4.49,30.15-12.95l2.93-.27c3.59-4.17,6.31-8.74,8-14,3.32.53,2.39-3.65,3.37-5.68.5-1.03,6.8-5.73,8.11-5.89,3.64-.44,3.24,3.18,6.95,3.63,22.4,2.72,50.76-1.96,73.79-.33l18.3-7.69c3.85-3.7-1.81-6.48-1.1-8.04,2.05-4.49,6.51.61,8.54-.43,2.48-1.26,2.7-6.04,4.45-8.63,2.16-3.18,7.59-4.78,10.55-6.95,6.21-3.02,12.78-10.55,17.5-16.09,2.32-4.59,5.25-10.02,11.14-9.96l-.65-.94c-.84-5.55,5.73-8.01,1.46-12.96-4.79-5.55-9.61,4.78-16.45,1.95v-7c2.6-2,12.56-10.57,14.73-10.88,3.19-.46,7.1,4.52,9.23,5.31,1.24.45,7.91-.15,10.04.57Z" style="fill: #fe6e0f;"/>
  <path d="M443.05,150c-3.32,1.9-5.05,5.3-7.45,8.07-.91,1.05-3.07,1.68-3.34,2.15-.65,1.13.1,3.45-.21,3.76-.26.27-3.07-.26-4.33.16-1.65.55-1.72,3.16-3.32,3.72-6.59,2.31-7.9-6.56.66-4.87,1.42-5.38-6.27-4.13-7.55-5.95-1.03-1.47-.11-6.21-2.45-7.62-1.64-.98-3.7,1.01-6.69-.17-.99-.39-5.94-3.48-6.83-4.24-1.56-1.34-2.63-4.66-4.5-5.57-2.32-1.14-6.6,3.68-9.7,4.33-6.88,1.43-7.79-1.95-12.57-3.97-2.89-1.22-7.61-1.85-10.09-3.91-1.94-1.61-2.02-5.26-4.29-5.76-1.71-.38-7.79,1.26-10.73-.13-2.36-.7-6.38,6.39-7.58,4.99-.82-.95,2.82-4.53,1.89-7.32-.16-.47-6.64-6.19-7.38-6.68-2.86-1.88-21.09-8.76-24.38-9.47-6.6-1.43-24.53,1.51-32.49,1.17-2.11-.09-5.59-3.19-7.17-.71-.77,1.21.1,3.89-1.02,4.08s-5.67.23-6.74-.04c-.72-.18-2.59-4.95-4.69-3.02-.49.45,4.78,6.9-1.99,7.99-.74-9.4-4.19-6.49-10.06-8.46-4.71-1.58-2.65-7.62-3.03-11.96s-4.26-6.18,1.71-9.45c2.33-1.27,4.85-1.13,7.32-2.67,1.78-1.11,3.54-4.29,5.05-4.95,1.97-.86,4.82-.09,6.05-.95,1.09-.75.78-3.28,1.47-4.53,2.24-4.01,15.71-6.8,19.77-9.23,6.01-3.6,6.91-5.23,15.32-6.47,12.18-1.8,24.29-3.95,36.81-4.38,38.39-1.32,70.31,2.56,106.04,16.02,7.03,2.65,13.47,7,20.85,8.92,1.3,1.03.51,5.27.62,7.11-9.36-4.06-20.06-13.53-29.72-15.77s-22.24-6.62-31.72-7.27c-14.53-1-26.39-1.3-41-2.99-5.13-.59-20.53-.43-24.49,2.57-1.7,1.29-1.2,3.9-3.26,4.8-5.74,2.5-9-1.66-12.05-1.19-1.48.23-9.81,5.64-12.67,6.41-6.04,1.62-18.72-.78-17.03,8.87.24,1.37,1.48,2.54,1.92,4.14.59,2.17-.84,5.52,2.06,6.94,2.69,1.31,9.49.2,13.26.74s19.32,4.11,22.78,5.21c1.92.61,3.43,2.84,5.66,3.34,4.6,1.02,10.1-1.9,12.52,3.48,1.18,2.63.37,6.03,2.76,8.24,6.13,2.22,19.35,1.44,23.45,6.54,1.96,2.44,2.38,8.77,6.28,9.8,3.27.86,9.14-2.7,12.81-2.9,3.96-.22,13.92,2.59,16.99,5.02,1.59,1.26,3.16,5.54,3.67,5.82,2.05,1.13,5.61-.67,9.3,3.2,2.67,2.8,3.79,11.6,9.04,8.06.5-.34,5.77-4.91,6.16-5.35,1.32-1.47,1.06-6.38,4.29-2.72-.61,2.08-3.1,3.67-4,5Z" style="fill: #fe7310;"/>
  <path d="M447.05,161c1.62,1.04,3.89,1.99,4.78,3.73.72,1.41,6.71,21.84,6.78,23.21.05,1.07-.06,1.44-.96,2.1l-34.12,14.97c-2.19.33-2.91-6.24-6.45-7.01,2.46,5.34,2.15,10.22,1.99,16-15.56,3.35-23.99-11.05-29.08-23.36,4.7-3.23,9.91-8.08,16.12-6.19,1.64.5,9.09,6.44,9.95,5.54l-1.99-6.99c-1.66-1.59-2.04-3.56,0-5,16.74-6.8,17.64-4.85,29.99-19,2.53-1.38,3.3-.86,3,2Z" style="fill: #fd6d56;"/>
  <path d="M432.05,252c-1.45,1.47-1.77-.54-2.29-1.25-2.74-3.72-4.42-10.68-6.88-15.07-3.69-6.58-9.94-11.6-10.81-19.68,1.93.72,7.72,1.62,8.86-.16s-1.99-5.64,4.08-3.28c8.15,3.16,9.86,12.02,16.05,17.44.34-4.41-12.26-18.1-11.83-20.35,2.33-3.25,6.24-5.33,9.55-7.44,2.87-1.83,17.48-10.62,19.58-10.08,1.49.38,11.02,10.13,10.24,11.88-.46,1.04-14.02,12.66-16.56,15.46-6.28,6.92-11.66,14.65-16.14,22.85-1.2,2.2-3.47,9.3-3.84,9.67Z" style="fill: #fc6d55;"/>
  <path d="M473.04,152c-.51,9.78,4.13,18.87,7,27.98-3.67.34-17.58,8.57-19.91,6.93-.33-4.5-10.03-28.92-8.07-30.92,8.26,2.5,13.71-.78,20.98-4Z" style="fill: #fb644d;"/>
  <path d="M462.05,191.01c3.56.56,20.01-8.64,20.91-7.98.14.1.37,1.71,1.06,2.44,2.28,2.38,5.85,3.99,2.28,6.29-5.24,3.37-10.43,6.75-15.63,10.16l-8.62-10.91Z" style="fill: #fb634c;"/>
  <path d="M401.06,216c-6.19-1.26-5.97-5.38-8.68-8.75-1.19-1.48-3.24-2.67-4.26-4.02-.33-.43-2.73-4-1.05-4.23,6.49,6.54,8.74,9.99,14,17Z" style="fill: #fd7c1d;"/>
  <path d="M414.06,178c.52,1.48,1.38,3.85,0,5-.22.18-1.37-.23-1.95.06l.44,1.95-7.49-2.02c1.84-3.43,5.94-3.75,9-4.99Z" style="fill: #f44e3c;"/>
  <path d="M444.05,159c1.64-1.88,1.74-5.87,5.99-5-1.05,1.81,1.29,6.78,1,6.99-.63.46-3.42-1.89-4,0-1.01-.65-1.98-1.36-3-2Z" style="fill: #f1472d;"/>
  <path d="M385.07,197c-.11,1.64-4.05-.79-4.26-.97-1.31-1.09-4.66-4.75-4.73-6.03,4.51.24,6.33,4.48,9,7Z" style="fill: #fd7c1d;"/>
  <path d="M386.07,48c.33.01.67-.02,1,0,4.73.81,9.39,1.81,14,3,10.69,2.18,24.04,5.53,34.26,9.23,12.9,4.68,24.8,12.15,37.73,16.77.69.98-.06,2.35-1,3-.7,2.33-1.59,4.57-2,7-2.66-2.24-2.3-4.58-5.66-6.83s-13.42-6.56-17.65-8.35c-18.95-8.03-38.57-12.75-58.24-16.75-23.23-4.72-54.06-3.41-77.41-.07,5.63-10.72,20.66,2.24,24.99-8,16.38-.39,33.33.26,49.99,1Z" style="fill: #fd7c1e;"/>
  <path d="M401.06,51c-4.15-.85-10.03-.16-14-3,4.71.26,9.9.04,14,3Z" style="fill: #fd7c30;"/>
  <path d="M473.05,80h-1c.31-1.04.63-1.98,1-3,.49-1.36.8-5.31,2.01-3.49.84,2.59-1.64,4.99-2.01,6.49Z" style="fill: #f8682a;"/>
  <path d="M126.13,255c-1.96-7.15,4.18-8.94,5.76-14.74,1.03-3.8.89-18.3,1.4-19.1.3-.48,8.4-4.38,9.8-5.7,1.61-1.51,1.68-4.1,3.64-5.36,4.06-2.62,13.01.23,15.46-1.53,1.71-1.23.57-5.19.93-5.57,1.42-1.51,35.24,2.18,41.47.98,1.69-.33,2.48-1.24,3.51-2.47-.76-.58-3.15-3.5-3.48-3.5h-17.5c-1.12-4.61,2.62-2.48,5.35-4.15,4.82-2.95,1.4-18.24,2.64-23.14.17-.7,6.15-8.64,7.35-11.88s-.76-5.7,3.66-4.83v21.5c0,4.19,12.94,1.45,15.06,2.94,2.33,1.64-1.26,9.41,4.43,8.56,5.99-7.89-7.77-28.44,9.02-25,4.51.93,3.88,12.35,5.45,13.54.93.7,13.3,4.35,15.02,2.47,2.22-2.55,7,2.69,5.88,4.9-7.35,3.53-14.19,7.68-20.51,12.45l-1.37-.35c-1.39,2.99-1.64,4.99-1.39,8.47-1.93,2.15-4.23,3.93-6.9,5.35,2.63,2.86-1.5,8.42-3.71,10.19-.42,1.2-1.77,2.47-2.32,4.17-1.77,5.54-5.07,25.14-9.71,27.38-4.19,2.02-19.48-17.3-23.54-11.6-1.05,9.23,10.28,26.62-6.43,24.61l-10.99-21.56c-.49,5.3,1.71,10.34,3.99,14.99-11.06-.83-22.64,2.67-32.95,6.55-4.01,1.51-8.85,5.19-12.09,6.07-2.18.59-2.8-.62-2.95-.61-2.67-1.98-6.16-10.97-4-14Z" style="fill: #fe7310;"/>
  <path d="M270.09,218c2.96.85,1.39,4.08,2.26,5.76.22.42,6.32,6.53,6.76,6.72,1.54.65,18.41,1.28,18.97.51,1.73-2.39-4.94-3.72-5.07-4.61,2.93-15.8,2.58-34.87,20.39-41.57,5.31-2,18.98-1.29,25.17-.81,3.84.3,10.64,1.26,13.86,3.14,1.71,1,15,14.31,15.43,15.59.57,1.73.48,15.3.23,17.76-.71,6.97-2.47,5.8-5.5,9.51-.84,1.03-.94,2.67-1.82,3.69s-9.31,9.28-9.95,9.54c-1.47.61-10.97,2.34-13.32,2.67-5.64.8-13.95-2.49-14.42,6.08-14.65-14.72-30.31-19.55-50.98-14-.68-.74-1.1-16.8-2-20Z" style="fill: #fd7c1d;"/>
  <path d="M255.1,178c-19.62-26.57,4.51-56.61,31.96-62.53,37.4-8.07,57.17,21.67,46.02,55.53,13.68,1.24,27.96,7.08,36.99,17.51-3.29,1.97-5.11-2.55-6.59-3.37-3.32-1.84-8.86-4.6-12.4-6.13-4.54-.31-8.87-1.64-13-4-10.94-2.69-17.54-3.44-28.99-3l-2.93,2.17c-23.24,2.18-45.96,10.78-64.71,24.18-2.81.28-4.39-1.17-2.35-3.35.38-.23,1.15-1.93,2.65-2.83,5.57-3.33,11.38-6.64,17.35-9.19,1.3-1.77-3.38-4.14-4-4.99Z" style="fill: #d22305;"/>
  <path d="M309.08,172l5,2.01c-6.2,6.76-17.47,8.58-25.33,14.15-3.37,2.39-4.49,6.14-7.75,8.25-4.69,3.03-15.24,6.78-20.9,9.09-7.41,3.03-15.57,9.98-22.32,15.67-1.35,1.14-2.74,1.6-2.68,3.82-2.06-2.4-4.93-6.39-8-6,.22-.64-.21-2.06.24-3.22.81-2.06,2.96-3.39,2.75-5.78-1.13-1.33-10.81,8.69-11.5,8.99-5.14,2.2,3.77-6.71,4.6-7.41,1.86-1.56,12.4-8.09,12.79-8.76.35-.61-1.16-3.44.14-4.81l-3.01-.99c1.3-1.06,5.27-1.57,5.99-2.01,1.71,2.03.17,2.38,2.52,1.04,3.79-2.16,7.74-5.63,11.41-7.6,16.14-8.61,37.77-15.74,56.05-16.44Z" style="fill: #fd650b;"/>
  <path d="M118.13,239c2.21,3.72,6.31,11.98,8,16s2.99,9.8,4,14c-1.17.08-1.51,2.16-2,3l-2.4-1.13c-3.83-11.26-8.63-22.68-15.55-32.77,3.59,9.64,6.92,19.57,7.86,29.87l-1.91,2.03c2.98,3.92,1.08,9.4-3.28,3.7-4.23-19.85-10.42-39.6-22.09-56.43l-.63-4.27c.07,0,.6-.84,1-1,3.88,2.56,4.88,5.79,7.48,8.02,8.33,7.16,12.95,7.95,19.52,18.98Z" style="fill: #c13303;"/>
  <path d="M480.05,227c-2.21,1.34-7.38,3.92-9.03,6.43-1.16,1.78-.89,4.37-2.37,5.67-2.57,2.26-4.37.9-4.09-2.22.45-4.99,6.54-6.94,6.46-11.4-.09-4.72-11.69-4.32-1.47-11.47,6.87-4.8,4.54-.63,7.46,2.53,1.51,1.64,4.85,2.29,5.55,3.45,2.97,4.93-1.98,3.73-2.4,4.09-.55.48.12,2.25-.11,2.92Z" style="fill: #fe6e0f;"/>
  <path d="M389.06,271.01l-7.51,1.98c-7.73-.79-15.33,1.63-23.03,1.06-3.23-.24-6.78-.39-5.51-4.49.2-.63,10.67-3.83,12.57-3.65,3.22.3,3.64,2.64,5.99,3.08,4.97.93,12.03.12,17.48,2.02Z" style="fill: #fe6e0f;"/>
  <path d="M490.04,222c1.98.11,2.27-.57,2,1.99-7.28-1.24-8.1,6.86-11.54,10.97-2.88,3.44-10.79,10.78-14.52,13.47-.88.64-3.36,2.59-3.94.56,3.02-2.2,17.06-19.24,18-22,3.41-2.07,5.86-5.23,10-5Z" style="fill: #c62a02;"/>
  <path d="M244.05,128.05c.17.15.28,3.03,1.16,4.38.73,1.13,2.66,1.32,2.91,2.28,1.58,6.05-4.33,14.63-6.56,7.34-.74-2.41-.24-4.89-.67-7.33-.32-1.83-3.79-5.39-.16-6.6.7-.23,3-.34,3.32-.07Z" style="fill: #fe7310;"/>
  <path d="M236.7,103.06c4.32-1.33,8.05,10.66-1.07,8.95-5.04-.94-.49-8.47,1.07-8.95Z" style="fill: #fe7310;"/>
  <path d="M221.99,131.11c.42.48,1.33,12.2-2.88,10.88,1.67-3.2-4.2-9.53-4-10.48.48-2.27,6.4-.96,6.88-.4Z" style="fill: #fe7310;"/>
  <path d="M376.02,183.95c-1.33.22-2.72.17-3.95-.45-7.59-3.87,8.71-17.19,3.95.45Z" style="fill: #fe7310;"/>
  <path d="M346.07,150c.62.44,4.38,14.27-2.42,11.93-2.9-.99.36-3.5.41-5.48.02-.53-1.85-9.22,2.01-6.45Z" style="fill: #fe7310;"/>
  <path d="M336.07,143c-2.16-5.32,6.75-6.54,7.86-2.33,1.3,4.93-5.16,1.73-7.86,2.33Z" style="fill: #fe7310;"/>
  <path d="M246.09,161.01v9.49c-.14,1.22-3.71.95-4.03-1.99-.13-1.19,2.19-9.8,4.03-7.5Z" style="fill: #fe7310;"/>
  <path d="M221.12,110c3.08-2.32,4.48,8.36,1.47,8.99-3.74.79-2.43-8.27-1.47-8.99Z" style="fill: #fe7310;"/>
  <path d="M338.08,175c4.5,1.11,8.73,2.15,13,4-4.07,3.02-9.27-2.8-13.53-2.98l.53-1.02Z" style="fill: #fd7c1d;"/>
  <path d="M329.08,265c-.88-3.13-1.83-5.99-3-9,.05.05.41-1.08,1.41-.07,1.95,1.96,5.63,7.91,1.59,9.07Z" style="fill: #fd7c1d;"/>
  <path d="M413.06,164.01c-1.24,2.58-4.16,4.23-6.99,3.98-.72-4.86,3.41-4.12,6.99-3.98Z" style="fill: #fe7310;"/>
  <path d="M468.05,99c-2.92-1.02-1.89-4.49-2-7,2.91,1.01,1.9,4.49,2,7Z" style="fill: #fe7310;"/>
  <path d="M166.13,175c.08-1.91-.4-6.29,1.98-6.99-.07,2.33.89,5.95-1.98,6.99Z" style="fill: #fe7310;"/>
  <path d="M516.04,289c2.17-.56,7.55-3,9.5-3h14.5c.84,11.09.99,22.42,2.01,33.49,1.97,21.49,6.52,43.45,7.03,64.97.22,9.43.81,13.09-5.04,20.54-.89.71-1.44,1.04-2.21.48-4.54,4.96-11.84,11.04-18.09,13.08-.06.37,2.11,6.44,2.47,6.79,1.87,1.81,6.04,1.63,6.83.66.65.06,1.34,0,2,0,3.07,5.02,10.74-1.8,9,6-4.07-1.76-6.16,1.77-6.75,1.94-2.95.81-6.73.6-9.81,2-2.29,1.04-3.7,3.47-5.15,3.9-5.36,1.59-15.66-6.12-8.78-10.82,2.85,1.12,1.3,3.85,1.5,3.97.69.4,3.74-.23,5,0,.89-.91-1.39-6.87-2.53-7.96-3.16-3.01-7.04.32-5.46-8.03,12.07,2,6.31.19,5.2-4.71-.71-3.16.26-6.65-.26-9.74-.74-4.31-2.9-9.01-3.01-14.04-.16-7.22,2.37-4.26,2.89-4.73,1.88-1.65-.09-11.86-1.03-14.09-.82-1.94-3.29-1.53-3.81-4.19-1.84-9.42.16-23.45-.96-33.04-.3-2.63-1.76-4.31-2.06-6.94-.65-5.63,1.33-17.53-.13-21.87-1.27-3.77-6.12-2.15-8.58-1.91-7.05.67,4.04-6.18,4.47-7.72,5.15.9,8.15-1.49,12.68-2.96l-1.4-2.07Z" style="fill: #fc6804;"/>
  <path d="M544.03,405c-3.88,4.94-16.57,12.32-17.44,15.03-1.68,5.27,2.01,5.52,6.44,5.97,1.06,4.24-8.61.28-8.87-.13-.54-.86.17-2.89-.15-4.16-.2-.82-1.74-.65-1.96-1.38-1.67-5.42,4.17-3.21,6.72-4.6.4-.22,2.93-3.64,4.74-4.76,1.61-1,3.53-.68,4.28-1.19.86-.58,2.43-8.53,6.23-4.78Z" style="fill: #fe7513;"/>
  <path d="M179.11,432c-.03,1.44.86,5.79-.99,5.99-.34-2.88.6-6.58-.21-9.29-.47-1.57-2.29-2.23-2.79-3.21-1.29-2.53,4.59.3,3.05-4.94-.14-.47-7.59-3.5-8.07-5.26-.74-2.7-.4-8.03-1.26-11.51-1.05-4.26-3.38-9.28-4.48-13.52-1.45-5.6.45-12.72-5.69-16.3-5.15-3-14.03,4.19-13.56,10.04-2.82.62-3.24-2.91-4.5-3.98-5-4.25-5.1,2.73-6.72,3.77-1.11.71-2.86-.06-3.76.21-.46-.95-.54-1.9-.04-2.79,4.33-7.57,6.79-12.37,7.29-21.45,1.48-26.72-2.09-52.73-6.23-79.13l.97-2.63c4.06-1.91,10.9-2.86,15.45-3.04s22.11.79,25.51,2.56c1.57.82,16.5,25.81,19.19,29.8,1.21,1.8,4.22,3.89,4.66,5.39,1.02,3.47-2.46,8.52-3.54,12.07-7.06,23.17-13,53.52-14.28,77.72-.51,9.73.19,19.73-.01,29.49Z" style="fill: #fe7112;"/>
  <path d="M128.13,275l4,3c3.66,25.97,8.72,52.11,7.04,78.54-.65,10.2-2.61,19.36-9.04,27.46-5.3,1.62-6.54,4.02-13,4-11.78-.04-19.91-15.2-25.05-24.49-.8-1.44-.66-2.98-.94-3.51l3-1c3.1-.43,6.77,6.55,5,9l2.74.53c16.52,27.27,33.85,9.7,32.42-15.88l-.1-16.04c2.44-1.08,1.69-4.46.93-6.61l-1.96-3.22c-.21-15.59-3.24-30.97-6.35-46.19l1.3-3.59c-1.93-.56-1.91-1.45,0-2Z" style="fill: #c13303;"/>
  <path d="M386.07,388c2.73-9.84,5.85-19.93,10.14-29.36,2.45-5.37,14.51-29.38,21.3-27.63,3.69.95-1.86,6.84-2.97,8.97-4.76,9.21-9.72,20.6-9.47,31.02l12.57-28.92c2.89-4.91,15.09-18.94,19.94-21.07,2.17-.95,3.57,7.52,3.3,9.23-1.2,7.39-8.73,21.63-11.3,29.78-1.12,3.57-2.08,8.22-2.51,11.97l17-41.99c5.68-3.91,5.77,14.54,5.99,17-6.57,8.63-4.25,21.76-11,30.49-5.47,7.07-22.84,9.02-31,6.02-2.58-.95-5.43-4.35-8.32-4.25-.79.03-10.59,5.18-11.04,5.63-1.71,1.75.82,5.92-2.63,3.11Z" style="fill: #fd8233;"/>
  <path d="M260.1,428c-4.1.67-4.39-5.88-3.44-8.93,3.78-12.22,30.29-17.12,40.67-18.12,27.71-2.69,51.71,8.37,73.67,23.3,1.18,3.33,4.39,6.24,7.08,7.76.35.06.76-.1,1,0,2.14.9,4.19,5.87,5,8l4.96,9.33c.93,2.09.61,3.32-.96,3.67.29,2.07,1.16,4.25.83,6.24-.54,3.28-3.88,10.52-7.1,11.99-10.58,4.83-15.62-2.57-22.28-9.2-1.63-1.63-.82-3.97-3.44-2.02.39-1.11-1.39-9.2-4.01-6.01-.82-1.28-4.57-5.28-6-7-2.54-4.08-.15-4.41,3.57-2.75,2.34,1.04,10.28,8.06,8.43,10.75l8.27,7.66c13.21,11.04,20.2-3.98,15.72-15.66l-2.28.15c-16.47-31.63-59.91-44.98-93.92-37.53-6.54,1.43-27.31,11.22-9.81,11.01l.04,2.36c1.13,2.36.46,2.69-2,1-1.45,3.24-10.96,5.67-14,4Z" style="fill: #2f2e2f;"/>
  <path d="M396.06,472c-6.76-1.15-2.92-8.65-4.03-13.29-.16-.68-1.46-.72-1.59-1.04-.7-1.72-.16-4.02-2.38-4.66-.18-1.32.35-2.93-.03-4.26-.17-.59-3.09-6.43-3.97-8.74,7.42,8.97,10.5,20.63,12,32Z" style="fill: #401307;"/>
  <path d="M414.06,319c.71.37,1.19,1.63,2.66,1.83,3.89.53,8.96-2.83,13.34,2.17-7.07,3.51-6.58,3.47-14.56,5.94-14.93,4.62-29.03,43.6-32.94,58.05-3.59,13.25-4.76,26.69-7.48,40.02-1.58,1-2.19.69-3.24-.52-1.14-1.33-4.36-5.54-3.76-6.48-4.56-2.75-8.56-6.09-12-10l-1.44.16c-12.61-8.43-26.59-13.1-41.17-17.31-.48-.14-.83-.74-1.15-1.47-3.28.3-6.03-.16-8.24-1.38-.84-1.32-.84-.79-2-1-.45-19.64-6.17-38.91-10.91-57.86,35.04-17.53,86.26-31.28,122.88-12.14Z" style="fill: #fe7514;"/>
  <path d="M299.09,389c-32.13-1.49-66.43,13.18-86.98,38-5.23-2.3-4.69-8.09-1.1-12.23,0-2.41-.28-4.82-.86-7.25,4.84-17.82,8.35-36.71,8.97-55.49.49-14.91-11.62-18.13-19.84-6.89-.67,4.7-2.49,8.19-5.46,10.49l-1.28,12.7c-.37,3.64-3.18,13.83-5.42,7.68,3.07-21.44,7.29-41.13,13-62,4.35,1.4,8.76.59,12.99,1l1.34-1.87c8.46,1.08,17.14.12,26.04-2.88,7.41-2.52,14.61-3.6,21.61-3.25,5.1-1.42,10.39-2.86,14.98-6,10.59,28.24,19.08,57.88,22.01,88Z" style="fill: #fe7412;"/>
  <path d="M212.11,427c-9.41,11.37-20.12,35.23-20,50-2.57,1.71-1.6,1.08-2.46-1-10.78-25.96-6.46-72.64-2.54-100,.82,2.46,1.64-1.02,1.85-1.64,2.91-8.49,1.59-13.71,3.13-19.65.24-.94,2.16-1.04,2.82-2.36,1.67-3.37,1.68-8.54,4.63-11.41,1.06-1.03,9.82-4.79,11.04-4.83,5.65-.16,10.25,7.46,10.46,12.47.66,15.98-3.44,33.86-6.17,49.69-.47,2.69-2.57,5.77-2.73,8.36-.19,2.97,1.54,5.3.79,8.66-.45,1.99-2.72,3.48-2.86,5.29-.18,2.33,2.5,3.93,2.04,6.43Z" style="fill: #fe680d;"/>
  <path d="M246.1,244c1.4,1.11,2.52,2.65,4.42,3.06.62.02.99-1.37,1.58-2.06,1.95-.93,3.79.93,5.54,5.59,3.82-.79,6.15-.38,8.23,3.16,2.87-1.12,4.61-.37,5.23,2.25.71,3.33,1.86,6.57,2.01,10,.26.38,1.43-.87,1.99-1,7.36-3.61,1.47,10.67-.58,14.41-7.18,13.11-17.03,13.91-30.37,14.81-11.15,5.48-30.59,10.27-38.41-2.58-3.17-5.21-8.27-23.16.18-24.58,2.92-4.64,6.48-7.87,11.69-9.71l-.49-1.36c.32-1.36,2.72-3.22,3-4,1.26-.4,2.67.12,4.22,1.56,5.95-3.59,12.09-5.49,18.4-5.7.63-2.56,1.75-3.85,3.37-3.86Z" style="fill: #fe9137;"/>
  <path d="M327.08,264c-1.27,1.23-2.57,1.02-3.89-.64-2.02,8.64-6.64,18.26-14.99,22.24-9.81,3.41-20.12,7.29-25.75,16.14l-2.36.26c-.44-1.29-1.72-4.77-1.75-5.67-.06-1.71,11.06-22.64,12.94-25.63,1.54-2.45,9.83-12.37,9.83-13.19.03-4.88-11.15-3.79-14.29-3.26-6.07,1.02-8.21,5.45-12.73,8.76l-.95-23.95c22.45-5.5,45.53,2.28,53.93,24.95Z" style="fill: #fd540f;"/>
  <path d="M202.11,249c-.7,9.41.03,10.77,2.18,4.08l1.82-1.08c2.98,1.52,7.84,3.49,11,4,.7.11,5.03-.33,2.99,1.98-.38.43-6.77,3.5-8.49,5.02-1.92,1.7-2.87,4.31-4.42,5.59-1.38,1.13-3.8,1.35-3.95,1.52-.43.49.94,11.27,1.31,12.94,3.9,17.46,17.3,16.08,31.61,12.5,2.97-.74,5.09-2.99,8.53-3.47,7.93-1.1,11.79.24,19.75-4.24,7.22-4.07,10.74-13.7,12.5-21.51.43-1.92-.79-1.58-1.85-1.33,5.11-4.99,12.72-8.51,19.99-6.51-8.77,8.3-11,21.17-17.15,30.84-1.55,2.43-4,4.48-5.84,6.66l-2.05-1.28c-4.77,4.71-10.27,5.42-16.79,6.24l-18.24,6.3c-24.05,9.44-41.36-10.7-42.79-33.63-3.81-2.67-4.19-5.19.89-5.64.59-.62,1.66-.75,2.42-2.04,2.1-3.56,2.89-14.86,1.58-18.96,2.21-.51,3.39,1.1,5,1.99Z" style="fill: #fc7f25;"/>
  <path d="M280.09,302l2.48-5.02c3.89-1.24,6.22-5.06,9.16-6.84,5.05-3.05,15.64-5.32,19.4-8.59,4.82-4.19,11.4-15.9,9.96-22.55l5.99,4.99c5.1,13.76,2.95,23.41-5.02,35.47-.56.85-3.42,2.63-.98,3.53-8.34,9.69-17.29,12.78-29.57,14.98-1.86.33-4-1.14-3.43,2.02-2.02-5.84-6.04-12.32-8-18Z" style="fill: #fd4606;"/>
  <path d="M193.11,268c-.69.72-2.03.93-1.98,1.48.12,1.51,2.75,2.56,2.93,3.25,3.35,12.46,2.06,21,14.02,29.79,3,2.21,11.75,5.7,15.41,5.44,8.47-.6,22.66-7.54,31.56-9.52,2.89-.64,5.99.03,8.35-.65s9.64-11.53,8.7-1.8c-1.52,1.8-2.58,2.56-4,4-1.73-.95-3.4.72-5,5-.06.55-.8,1.36-1,2-11.27,3.15-23.82,5.9-35.4,8.09-7.64,1.45-6.07.64-13.59-.09-21.15-4.18-28.34-29.52-38.98-45.51,6.28-1.09,12.58-1.86,18.99-1.49Z" style="fill: #fd7c22;"/>
  <path d="M220.11,252c2.25-6.36,4.49-13.26,6.71-19.79.9-2.63.73-9.34,3.37-6.57,5.8,6.08,8.72,12.62,15.91,18.36-1.71,8.55-3.29,4.87-9.28,6.22-3.93.89-9.46,5.23-14.23,5.76l-2.48-3.98Z" style="fill: #fd7c22;"/>
  <path d="M128.13,272c.21.85-.19,2.12,0,3,.13.6-.13,1.39,0,2-.06,4.02-10.97-.61-11.43-2,.55-2.25.58-3.98-.57-5-.2-9.82-4.88-23.69-8.52-32.98-1.64-4.2-5.59-8.38-4.99-13.01,7.85,9.91,15.14,21.3,19.98,33.01,1.49,3.6,4.68,11.57,5.52,14.98Z" style="fill: #fb7628;"/>
  <path d="M271.09,256c-1.83-1.78-4.33.24-5.98-.47-1.21-.51-2.09-3.01-3.72-3.37-1.39-.31-2.77.95-4.28.37-2.79-1.08-2.87-5.86-5.02-7.53,5.96-6.96,8.49-16.75,13.99-24,1.32,11.68,2.55,23.5,5.01,35Z" style="fill: #fc8027;"/>
  <path d="M181.11,263.99c-8.63.47-14.21-.58-11,10-13.03-3.06-24.94-1.9-37.98,0-.55-2.67.69-1.72,1.97-2.48,6.06-3.59,27.32-9.77,34.75-11.28,4.66-.95,12.38-2.84,12.26,3.76Z" style="fill: #ec2f17;"/>
  <path d="M206.11,252c1.09,3.12-3.3,9.5-5.99,7.01-.39-.36-.91-9.64,2-10.01,1.71.94,3.47,2.73,4,3Z" style="fill: #fd7c22;"/>
  <path d="M263.1,305c.23-1.99-.67-3.6,1-5.5,1.42-1.62,4.98-2.58,4,.5-1.55,1.58-2.62,4.02-5,5Z" style="fill: #fc7f25;"/>
  <path d="M293.09,398c2.49-1.41,5.37-1.62,8.17-1.56,18.81.42,40.05,3.15,54.82,15.56l.08-.95c3.88,3.13,7.85,6.12,11.91,8.95,2.03,2.13,5.32,5.02,7,7,.98,1.16,1.72,3.73,3,5-.2-.04-.92.67-1.51.57-.95-.16-6.06-4.46-6.27-4.81-.65-1.08.39-2.86-.82-3.87-1.05-.87-4.59-1.4-6.3-2.48-25.79-16.2-51.69-24.06-83.28-15.13-9.53,2.7-27.57,9.06-19.78,21.72.65,1.94-.37,2.32-2,1-2.95,1.39-6.29,3.21-9,5-5.23-2.47-11.62-1.58-9.52-9.02,4.36-15.42,39.2-26.34,53.51-26.98Z" style="fill: #252525;"/>
  <path d="M304.09,390c9.19.36,18.67,3.12,27.26,6.24,10.51,3.82,15.89,7.4,24.73,13.76,1.29,1.34,1.29,2.01,0,2-18.48-9.92-40.56-15-62.99-14,1-2.21,5.56-3.02,7.56-3.04,3.07-.04,4.33,1.57,6.07,1.75,2.37.25,6.45-1.55,9.37-.71l-4-2,1.01-1.98c-.83-.57-6.62.47-8.43.05-1.21-.28-.34-1.68-.58-2.05Z" style="fill: #1f1715;"/>
  <path d="M83.13,369.01c.92.85-2.14,4.68-3.99,3.99-.51-2.27,2.22-5.62,3.99-3.99Z" style="fill: #fe680d;"/>
  <path d="M294.09,431c3.86-1.37,10.74.5,14,3,21.43,3.45,41.49,24.77,44.99,46,1.58,3.25,2.25,6.91,2,11,1.05,5.99.33,13.39-2,19-2.15,17.29-16.55,33.87-32.17,41.31-.45.22-1.11.01-1.82-.31-3.08-1.08-6.43-1.13-9.59-1.84-1.05-.23-3.23.34-2.4-1.65,1.13-2.72,9.32-7.54,12.04-9.97,1.19-1.06,2.27-2.93,3.64-4.36.7-.73,4.1-1.83,1.31-3.19-.53-.48-.92-.89-.84-1.05,1.04-2,4.31-5.44,5.84-6.95,14.46-31.68-.38-61.09-31.99-73-5-.53-10.03-.8-15.08-.82l-.91-1.18c-8.36-1.35-16.37.68-24.03,6.11-.45.09-7.65-4.27-7.75-4.72-.49-2.38,1.24-6.12,3.3-6.38.18-.02-1.7,2.7-.51-1.01,3.39-5.05,11.62-7.26,17.72-8.81,7.34-1.86,17.38-3.51,24.27-1.19Z" style="fill: #fcfcfc;"/>
  <path d="M252.1,441c4.87,2.78-2.11.6,1,4.99l-2.99.49c1.96,1.77,6.65,2.92,7.01,5.5,5.19-3.9,19.38-12.12,23.97-4.99-.06,1.51-1.39,1.85-4,1l-1.04,1.15c-13.74,1.61-25.64,8.87-33.95,19.85-2.22,3.13-4.07,6.49-5.57,10.1l-1.42-.1c.01-.24-.6-4.53-.67-4.76-1.13-3.74-7.44-1.2-9.33,1.76.94-12.24,14.29-29.68,25.35-35.4.38-.2.98.04,1.65.4Z" style="fill: #ededed;"/>
  <path d="M240.1,474l.75,3.2c-6.81,14.19-6.35,28.89.99,42.77l.26,3.03,1.86.36c15.37,22.87,41.14,22.86,65.13,15.64-.34-1.41.6-2.2,2.8-2.38.01-2.3,2.38-2.92,4.19-1.62,1.41-1.33,1.92-.77,1,1-17.94,13.77-46.83,15.46-64.99,1-8.78-4.01-16.73-15.58-18-25-.83-6.5-2.49-12.91-2.03-19.54.34-4.87,2.76-9,3.03-13.46l4.56-7.99c.44-1.05,1.88-1.43,2.44-2.01,1.93,1.06-.27,4.84-2,5Z" style="fill: #141414;"/>
  <path d="M294.09,429c2.61.55,2.58,1.17,0,2-15.43-1.04-28.9,1.97-41.99,10s-23.81,20.32-26.99,35c-1.19,1.86-3,7.69-3,9.5v15c0,.38.85,6.79,1,7.5h-1c-6.65-30.03,9.62-61.97,37.99-74,1.49-4.42,13.55-6.96,17-4,2.95-3.77,13.82-4.74,17-1Z" style="fill: #2a2a29;"/>
  <path d="M354.07,511c-6.92,31.63-39.18,51.85-70.98,49-1.27-.11-4.47-.72-6-1v-1c14.63,1.97,29-.58,41.99-7,17.09-8.44,29.53-21.98,33.99-41,.68-.95,1.01-.62,1,1Z" style="fill: #212121;"/>
  <path d="M252.1,537c-6.35,2.23-10.89-9.82-16.03-12.73.18-3.53-2.75-6.98-2.95-9.89-.16-2.34,1-2.25.99-2.38,3.87,8.82,10.42,18.96,18,25Z" style="fill: #c9c9c9;"/>
  <path d="M329.08,522c-1.17,2.13-3.55,6.31-5,8s-5.12,4.56-7,6l-1-1c-1.09-1.67.5-2.53,2-3-1.07-3.24,1.62-4.54,4.11-5.21,1.65-3.33,3.61-5.26,5.88-5.79,1.3-1.32,1.56-.77,1,1Z" style="fill: #353535;"/>
  <path d="M284.09,422c-9.31-.48-4.19-6.57,1.33-9.83,17.48-10.31,52.25-1.15,68.48,8.77,7.77,4.75,26.11,20.83,25.63,30.33-.55,10.94-9.58,10.84-16.14,4.42-8.82-7.68-17.67-14.78-26.55-21.3l-2.87-.36c-3.79-2.57-7.09-3.91-9.89-4.02-1.77-.92-3.47-1.29-5-2l-2.59,1c-9.65-5.32-19.28-7.2-30.18-5.23l-2.22-1.77Z" style="fill: #444;"/>
  <path d="M382.07,447c3.52,9.76.12,24.45-12.98,17.72l-11.01-9.72c-2.78-2.75-6.1-7.11-9.45-9.03-1.55-.88-3.07-1.85-2.55,1.03-2.32-2.8-2.92-4.42-6-7-1.33-2.11-3.45-4.11-6-4-3.1-2.12-6.66-4.27-10-6,2.91-3.8,3.45-.13,5.64.86,3.27,1.49,11.82,3.25,12.37,3.61,1.06.71-.06,2.04.22,2.35.47.51,2.54.85,3.7,1.74,4.22,3.27,21.47,18.9,24.61,19.45,7.01,1.23,7.8-6.11,6.25-11.31-.47-1.58-2.71-2.71-3.66-4.34-12.76-21.85-45.67-34.22-70.61-32.35-5.53.41-19.25,2.73-21.36,8.64-1.14,3.19,1.52,1.95,2.85,3.35-.38,3.04-6.38,3.55-8,1-2.72-2.52-9.66,1.25-9.04-4.47.28-2.58,8.19-7.25,10.75-8.32,23.22-9.78,58.69-3.18,79.61,9.96,2.94,1.85,17.15,14.46,19.11,16.88,1.51,1.87,3.39,6.81,5.55,9.95Z" style="fill: #353535;"/>
  <path d="M319.08,428v5.99s-4,.01-4,.01c-.84,1.55-3.74.6-4-1-5.41-.35-12.67-1.82-17-4-5.71-.57-11.4.23-17,1-2.39-.34-3.2-3.78-3-6,.63-.13,1.39-.89,2-1,2.07-.39,5.69-.74,8-1,17.64-1.97,19.55-1.16,34.99,6Z" style="fill: #f7f7f7;"/>
  <path d="M311.08,433c1.23.36,3.31.72,4,1,19.02,7.7,34.47,24.93,38.99,45,.04.93,0,1.31-1,1-5.19-21.55-24.02-39.76-44.99-46-.53-1.03.47-1.36,3-1Z" style="fill: #1c1c1c;"/>
  <path d="M354.07,511l-1-1c1.46-6.22,1.75-12.66,2-19-.79-2.68-.46-3.68,1-3,.71,8.68-.2,14.77-2,23Z" style="fill: #212121;"/>
  <path d="M356.07,488c-1.3.48-.96,1.9-1,3-1.51-3.14-1.05-7.05-2-11l1-1c.65,2.87,1.76,6.06,2,9Z" style="fill: #585858;"/>
  <path d="M340.08,440c-.93-.78-4.55-3.01-6-4l.55-.96c2.54.53,5.3,2.05,5.45,4.96Z" style="fill: #313131;"/>
  <path d="M274.09,424c2.34,1.29,3.03,3.39,3,6-5.33.73-12.02,1.89-17,4l-2-5c.67-.32,1.32-.71,2-1,5.3-2.24,8.53-2.84,14-4Z" style="fill: #e7e7e7;"/>
  <path d="M449.05,101c1.54,1.49-5.23,11.05-7.7,11.78-5.02,1.49-16.55-2.22-22.29-1.8,2.95-2.17,7.66-5.19,11-6.49,2.78-1.09,17.36-5.08,19-3.49Z" style="fill: #bd1f04;"/>
  <path d="M321.08,95c-3.11-7.06,13.07-5.96,13.92-3.39,2.53,7.64-10.5,2.52-13.92,3.39Z" style="fill: #fe7310;"/>
  <path d="M74.14,326c-3.4-2.11-2.45-10.89-1-14,1.31,5.55,2.47,8.37,1,14Z" style="fill: #fe913c;"/>
  <path d="M90.13,213c13.61,17.98,20.5,40.09,25.01,61.99,1.76.09,1.01-3.81.99-4.99,3.69-.37.19,2.49,2.4,4.04,1.81,1.27,7.14,2.92,9.6,2.96,3.35,16.19,7.52,36.57,7,53,1.7,4.62.41,6.73-2.43,9.5.94,16.91-12.42,23.29-26.48,26.97-2.55,3.73-4.91,4.24-7.07,1.53-2.21-3.38-3.21-5.6-5-9-16.29-30.96-23.92-70.43-20.98-105.48.33-3.9,3.18-16.8,5.48-19.52,1.26-1.49,1.67-.78,2.28.73,2.43,6.05,2.68,16.45,4.51,23.48.46,1.78,1.15,5.89,2.7,6.78,1.44-9.76-2.28-19.02-2.98-28.51-.3-4.16-.3-20.59,1.46-23.53,1.1-1.83,2.63-.07,3.53.04Z" style="fill: #fd8831;"/>
  <path d="M485.05,202.99c-.54-5.6,6.47-9.73,9.97-4.49-2.62,3.25-5.61,5.13-9.97,4.49Z" style="fill: #fc6b04;"/>
  <polygon points="483.04 204.01 480.55 208.98 478.07 206.5 483.04 204.01" style="fill: #fc6b04;"/>
  <path d="M234.1,200.01c.78.78-1.06,2.97-2.05,3.44l-12.93,8.55c-1.01-1.01,2.65-4.31,3.49-5,1-.82,11-7.49,11.49-6.99Z" style="fill: #fd650b;"/>
  <path d="M340.78,206.28c3.13,3.81.13,10.91-2.85,14.08-7.84,8.35-27.75,2.03-21.58-11.59,3.7-8.18,19.15-8.9,24.43-2.49Z" style="fill: #fe8a44;"/>
  <path d="M323.08,167.99c-21.11-.69-42.45,4-61.41,12.99-3.01-4.2-7.33-8.38-6.57-14l-2,.5c.62-3.91,5.51-2.93,8.01-3.99,15.07-6.42,19.03-15.67,37.41-18.57,5.78-.92,6.68-3.41,12.93,1.22s5.25,9.9,7.86,15.13c1.25,2.49,4.48,3.38,3.78,6.71Z" style="fill: #e02c0a;"/>
  <path d="M290.87,118.2c9.38-.68,26.84,5.9,14.23,16.32-6.73,5.56-16.88,6.32-24.99,3.96-20.08-5.84-.22-19.47,10.76-20.28Z" style="fill: #fc6e56;"/>
  <path d="M99.13,368c3.65,1.02,4.8-2.72,6.22-3.31,9.89-4.06,15.87-3.05,23.17-13.75,2.81-4.13.77-9.59,2.78-13.27,1.21-2.21,3.55-1.13,3.89-2.29.32-1.08-.12-3.83-.07-5.38,1.66,1.04,1,3.79,1.02,5.49.15,12.46,2.64,44.56-13.72,48.3-11.45,2.62-17.92-7.57-23.29-15.79Z" style="fill: #fd7c22;"/>
  <path d="M382.07,447c.35.52,1.6.32,1.98,2.48,1.99,11.23-4.38,23.56-16.34,15.38-3.36-2.3-6.94-7.19-9.63-9.86,7.31,3.33,10.77,13.22,20.27,9.77,5.69-2.06,3.23-12.96,3.72-17.77Z" style="fill: #313131;"/>
  <path d="M356.07,410c5.68,4.09,7.29,5.05,12,10-4.88,1.17-7.16-5.54-10.28-7.72-.71-.5-1.47-.14-1.72-.28v-2Z" style="fill: #421604;"/>
  <path d="M297.09,449c32.62,8.72,48.59,42.87,31.99,73l-1-1c-2.57-1.05-1.82-3.23,1-3-1.89-2.43-1.03-4.51,2-5l-.57-5.63c3.75-16.67-2.15-33.53-15.55-44.16l-.88-3.2-2.35.78c-5.19-3.52-10.75-6.64-16.76-8.49l-.88-2.29c-.44-.97.56-1.31,3-1Z" style="fill: #0e0e0e;"/>
  <path d="M281.09,447c6.36-.25,9.98.39,16,2l-3,1c-1.95,1.5-4.66,1.88-8.12,1.14-3.88.94-6.84.55-8.88-1.14.79-1.39.79-2.06,0-2,.88-.12,1.74-.91,4-1Z" style="fill: #949494;"/>
  <path d="M311.08,433l-3,1c-4.53-1.35-9.18-2.67-14-3v-2c4.57.46,12.38,2.64,17,4Z" style="fill: #b1b1b1;"/>
  <path d="M277.09,448c3.36-.23,2.11.86,0,2-1.15,2.37-5.53,3.89-7.48,2.31-3.48,2.97-6.65,3.86-9.51,2.69.31,2.88-3.36,5.57-6,4-.81,1.96-1.81,2.63-3,2-2.56,4.84-5.56,7.51-9,8,7.8-13.38,20.17-18.96,34.99-21Z" style="fill: #1e1e1e;"/>
  <path d="M254.1,459l1.43,2.44c-2.09,4.31-4.23,8.5-6.43,12.56-1.24,2.29-2.24,4.63-3,7l.75,2.75c-3.21,5.82-4.33,12.47-3.89,19.07l-1.86,2.18c-2.25.47-1.03-11.58-1.01-10.99-.53,6.09-.19,12.09,1.01,17.99,1.18,1.7,2.29,4.88,2,7,.98,2.85.65,4.18-1,4-11.03-16.65-10.13-31.71-2-49,3.74-3.98,7.4-8.31,11-13,1.1-.86,2.03-1.31,3-2Z" style="fill: #949494;"/>
  <path d="M284.09,542c4.98-1.21,9.96-2.57,14.97-4.1l1.03,1.1c1.79-1.45,10.21-2.63,9,0-23.48,11.8-52.18,6.35-66.98-16l1-4c9.21,14.22,23.86,22.23,40.99,23Z" style="fill: #bbbbba;"/>
  <path d="M318.08,532c-.13.12-.06,1.47-2,3-1.59,1.25-5.05,3.02-7,4l-.58-.77c-2.76,1.03-5.83.4-8.42.77-2.28-1.38,2.36-3.81,4-3,.69-.24,6.5-.65,6.2-.54-1.94.69-3.96.35-2.2-1.46,2.06-1.83,3.39-2.16,4-1,3.39-3.32,5.39-3.66,6-1Z" style="fill: #888;"/>
  <path d="M251.1,461l-2.56,5.94c-1.39,1.93-3.42,3.27-5,5-1.83,1.99-.89,6.45-3.43,2.07.7-1.5,1.45-4.05,2-5,2.35-2.48,6.25-5.86,9-8Z" style="fill: #cecece;"/>
  <path d="M312.08,533c-.88-1.4,6.11-10.25,7.53-11l1.53.83,3.05-8.59c2.34-1.45,6.24,1.06,4.89,3.77-.47.99-.67,2.42-1,3-2.64,4.6-6.34,7.5-10,11-2.1-.17-4.02.5-6,1Z" style="fill: #b8b8b8;"/>
  <path d="M107.9,293.19c8.96-1.26,13.05,10.24,14.11,17.43,1.61,10.87.97,23.32-4.85,32.91-10.42,17.17-23.1,2.76-24.94-11.12-1.41-10.6,2.4-37.36,15.68-39.22Z" style="fill: #fea752;"/>
  <path d="M331.08,513c-2.06.96-3.34-.25-3.84-3.63-.73,2.49-1.63,4.69-4.16,2.63l-1.06-1.15c1.26-6.28,1.28-12.56.07-18.85-3.24-8.67-7.53-16.46-14.91-22.28l-.09-1.72c-3.49-3.01.57-5.27,4.28-4.56.04-2.13.17-3.69,2.71-3.44,17.25,12.63,23.51,32.51,17,53Z" style="fill: #e7e7e7;"/>
  <path d="M294.09,450c6.27,1.4,14.77,6.17,20,10-.83,1.07-.69,5.72-1.01,6-.97.89-5.46-3.3-5.99,2-3.02.65-8.73-2.85-11-5-6.28-1.16-12.61-1.82-19-2-1.58.83-5.88,1.53-7,0l-3.36-1.9c-4.04,4.36-10.62.22-6.63-4.1,6.1-2.99,10.22-4.1,17-5,6.27-.83,10.63-1.42,17,0Z" style="fill: #fbfbfb;"/>
  <path d="M331.08,513c-.62,1.96-1.14,3.17-2,5l-4-3.01c.35,2.8-1.8,8.9-3.51,11.01-2.11,2.6-2.2-1.56-1.99-2.99l-7.5,9.99c-1.29.32-2.79.56-4,1,7.57-10.8,11.36-16.21,11.36-16.21.71-2.87,1.92-4.8,3.63-5.79,2.58-.24,2.19-7.16,4.49-5.99,2.07,1.06,1.59,5.52,3.51,6.99Z" style="fill: #d2d2d2;"/>
  <path d="M260.1,455c1.61,9.28,6.6.5,9.99-2-.17,2.57-2.91,3.45-.49,5.99l7.5-6.99-7,8.99.13,1.09c-8.01,3.06-15.05,7.03-21.13,11.91-.76-2.73,1.71-4.23,1.78-4.48.11-.36-.71-1.86-.16-3.28,1-2.58,3.06-4.43,3.38-7.24,2.28-1.61,3.1-2.58,6-4Z" style="fill: #d5d5d5;"/>
  <path d="M260.1,468c4.35-2.52,7.04-.32,8.07,6.58,15.52.38,20.6,1.12,31.58,12.7,8,8.44,11.17,15.46,15.06,26.19,2.43-2.05,4.19-2.2,5.28-.47.59,6.43-7.39,16.47-12.96,20.35-2.39,1.67-6.82,4.38-9.04,3.65-11.96,3.6-22.25,2.77-33.99-1-3.56.74-8.28-3.17-11.24-5.68-5.26-4.46-10.33-11.38-10.76-18.32-1.26-1.65-2.78-5.54-1-7-.74-9.2.32-16.07,5-24-.02-2.57,6.93-10.96,8.77-12.06.26-.16,4.74-1.48,5.22-.94Z" style="fill: #f9f9f9;"/>
  <path d="M264.1,536c6.23,1.85,12.55,3.08,18.97,3.71l1.02,1.29c.87.28.86.62,0,1-16.86.86-33.65-7.55-40.99-23-1.53-3.21-1.27-4.1-2-7,.28-.87.62-.86,1,0,3.81,12.28,10.82,18.65,21.99,24Z" style="fill: #353535;"/>
  <path d="M277.09,461c2.53-.71,3.53-.38,3,1l-1.33,2.03-8.78,1.26c-3.34,1.43-6.63,2.33-9.89,2.71-5.05.68-11.52,8.8-14,13l-.97-.55c.49-2.52,2.42-4.5,3.97-6.45s5.19-3.19,5.01-6.99l1.48,1.99c1.73-1.49,3.77-3.19,5.82-4.18,1.14-.55,8.22-3.71,8.68-3.82,1.52-.35,5.14-.06,7,0Z" style="fill: #3b3b3b;"/>
  <path d="M241.1,505c.4,2.65.04,3.89,1,7h-1c-.63-2.5-2.73-5.25-2.04-8.46l1.03-9.54c-.71,3.89.49,7.53,1.01,10.99Z" style="fill: #383838;"/>
  <path d="M323.08,512c-3.1,8.95-8.59,15.28-15,22-.11,1.95-2.35,2.26-4,2-1.51.81-3.28,1.15-4,3-5.84.82-9.8,2.68-16,3v-1l.5-1.38c4.47-.84,8.97-1.71,13.49-2.62,11.66-4.71,18.37-11.98,21.99-24-1.13-2.95-1.08-6.56.15-10.85-.72-4.06-.44-7.44.85-10.15.28-.87.62-.86,1,0,1.83,7.48,2.65,12.17,1,20Z" style="fill: #373737;"/>
  <path d="M308.09,534c.05,1.92,2.92.53,3.99,1.01v.98c-2.62-.73-6.32,2.1-7.99,0,1.24-.66,2.73-1.54,4-2Z" style="fill: #bbb;"/>
  <path d="M296.09,463c3.64,1.17,7.91,2.8,11,5,8.33,5.94,12.66,14.44,15,24h-1l-2.39-1.07c-4.04-11.29-13.57-20.18-24.63-24.5l-.98-2.43c-.58-1.07.42-1.41,3-1Z" style="fill: #141414;"/>
  <path d="M296.09,463l-3,1c-3.04,2.07-10.66.81-13-2-.48-1.3-1.9-.96-3-1,5.33-2.29,13.61.27,19,2Z" style="fill: #969696;"/>
  <path d="M280.09,462c4.31-.04,8.9.77,13,2,12.11,3.64,24.87,15.63,27.99,28,2.03,8.05,1.3,13.36-1,21-2.75.04-4.28,4.51-6.77,1.76-1.8-1.98-4.91-13.46-7.79-17.7s-13.25-15.09-17.47-17.52c-7.46-4.29-15.13-.81-20.73-3.2-2.75-1.18-.5-9.25-7.23-8.34,4.78-4.44,13.58-5.94,20-6Z" style="fill: #eaeaea;"/>
  <path d="M298.09,537c-3.98,1.61-9.68,3.74-14,4-7.46.45-13.55-1.91-20-5,4.14-2.73,9.16,2.33,13.47,2.09l20.52-1.09Z" style="fill: #d6d6d6;"/>
</svg>