<?xml version="1.0" encoding="UTF-8"?>
<svg id="Layer_1" data-name="Layer 1" xmlns="http://www.w3.org/2000/svg" viewBox="0 0 731.92 794">
  <path d="M282,0c8.59,1.92,17.38,2.7,26.01,4.49,50.94,10.56,92.57,43.02,122.49,84.47l60.21-41.81,3.28,1.37-46,73.05c17.58,44.98,18.46,94.59,4.92,140.79,5.96,2.86,12.94,7.05,13.08,14.64-.63,1.34-1.96,1.67-4,1-1.48-.48-2.26-1.94-2.35-4.37-1.92-1.68-2.47-3.23-1.65-4.63-1.65.95-3.56.42-5.73-1.61-6.31,17.71-14.97,34.27-25.97,49.68,10.88,4.63,16.44,11.52,21.3,22.4,9.73,21.79,17.44,43,17.44,67.13,0,31.25-7.89,62.37-23.08,89.81,14.43,27.42,24.21,55.72,29.31,84.88,4.16,5.81,8.74,11.04,13.73,15.7,2.28.93,2.84,3.84,1.68,8.72,2.95,5.85,6.39,10.61,10.32,14.28l-.41-2.38c8.06-13.06,15.04-26.71,20.95-40.96l2.46-.65c-1.07-5.37,1.56-13.73,6-17l5.46-24.88c.57-1.01,1.43-1.7,2.54-2.12-1.53-1.1-.87-1.77,2-2-.46-2.01-.92-4.12-.56-6.18,2.38-13.74,4.67-27.43,6.94-41.19.16-.98.55-1.92.99-2.86s1.02-1.88,1.63-2.78c.03-5.36.36-10.7,1-16l-1.96-3.57-.76-29.77,1.72-3.66c-.02-2.85,1.33-3.34,3-1,.93,17.21.96,34.76,0,52,.43,1.12.83,2.25,1.07,3.41s.47,2.27.37,3.36c-4.63,50.07-21.91,99.51-47.26,142.73,12.62,22.88,24.03,46.68,32.74,71.31l14.1-7.97,1.96,1.16,1.76-2.55c22.62-14.26,44.54-29.7,65.27-46.6l2.97-.85c5.02-7.11,11.39-12.79,19-17l.38-1.05c.45-.79,0-1.28-1.34-1.48-11.7-.26-2.18-3.1,3.95-3.47,1.33-2.21,4.2-3.38,8.63-3.49,4.08-1.79,7.21-1.96,9.37-.51,1.77-.36,2.43-.03,2,1-4.5,1.94-12.28,3.88-15.51,5.99-7.26,4.74-19.07,19.03-26.47,25.53-15.46,13.57-33.64,27.03-51.1,37.9-11.04,6.87-22.62,12.66-33.81,19.26,1.01,7.47,3.36,14.68,4.61,22.12,1.35,8.02,1.69,22.64,3.73,29.27,1.16,3.75,11.66,11.05,15.07,14.93,4.78,5.44,15.07,19.39,9.49,26.01h-2c-5.26-1.98-12.91-3.83-18.46-4.04-4.17-.16-7.49,1.07-11,1.08-20.45.06-40.64-2.18-61-3.08s-41.57,1.23-62.58-3.42c-8.48-1.88-12.03-2.4-17.94-9.06-11.44-12.9-12.6-24.95-15.07-41.42-25.5-.43-51.25,1.98-75.97-5.53-4.11-1.25-10.08-4.9-13.55-5.45-9.26-1.47-22.68.08-32.93-1.07-16.18-1.82-31.9-7.23-47-13l-25.25,58.03c-16.12,2.57-32.45-1.1-48.8-.05-10.25.66-20.59,3.52-30.92,4.08-21.81,1.19-45.04-.48-67.08-.08-5.07.09-9.84,2.01-15.46.04l3.45-6.04,26.4-21.66c-2.7-30.42,2.02-62.05,9.44-91.5,5.92-23.48,14.07-46.92,28.55-66.5-2.42-9.38-5.59-18.58-7.53-28.1-4.92-24.18-6.46-53.15-3.2-77.57.41-3.04,2.88-8.67,2.62-11-.22-2-2.86-3.87-3.8-6.06-10.23-23.81-.14-70.26,13.06-91.56,2.33-2.93,4.9-4.99,3,0l.04,4.09c-11.7,22.62-16.69,48.8-12.73,74.05l-1.32,3.86c2.34,2.3,3.93,5.29,4.76,8.97,27.16,40,81.2,34.24,119.56,13.65l3.68.38c2.78-1.34,6.51-1.2,4.03,1.92l4.01,5.34c.96,1.81-.1,2.43-2.04,1.74-2.73,1.48-5.69-1.69-6.59-3.95-25.94,13.77-57.64,23.74-86.41,15.95,1.54,2.23.23,2.86-2,2l-2.66.13c-10.55-7.56-20.94-15.16-31.15-22.81-2.08,11.59-2.38,23.39-2.27,35.14-2.09,2.9-1.82,8.04-.92,11.54l2.11,2.6c1.75,24.37,7.3,49.56,16.89,71.4.63.64.97,1.64,1,3l1.65,1.42c.85,5.34,2.95,10.39,6.3,15.15l-.95,2.43,3.37,2.12c8.01,14.24,16.52,29.23,29.17,39.72l.46,2.16,2,2,2.14.47c44.07,43.15,112.53,56.52,172.61,50.11,16.73-1.78,34.61-4.57,49.15-12.06-9.11-19.27-18.95-37.91-29.52-55.92l-.38-2.6c.06-1.29.06-2.62,0-4,1.46-3.35,2.73-1.07,1.75-.92-3.85.62-.2-15.74.73-18.91,6.42-21.86,21.87-40.78,38.26-55.85l2.26.67c-1.04-2.7.78-3.75,3-2,1.52-2.72,7.87-4.64,11.53-5.72,24.45-7.2,44.57-5.12,63.72,12.68-3.6-26.37-15.54-50.34-27.85-73.63,16.23-24.53,20.6-52.46,23.59-80.33l-.58-.62c1.77-1.37,2.63-3.17,2.58-5.38l-2.26-1.94c.86-1.16-2.91-42.35-5.1-38.99-14.72,52.95-43.97,101.47-94.84,126.84-36.06,17.98-75.89,15.84-113.8,5.09-.85,1.1-2.18,1.1-4,0-2.11-.25-2.04-1.48-1.89-3.17-6.5-1.67-12.21-5.26-17.64-9.08l-.48-2.76c-.22-2.93,1.85-2.77,6.23.47l2.77.53,4.03-.03c9.09,4.86,18.94,8.08,28.97,10.33l3,2.7,7.52-.54c84.75,14.46,140.52-42.24,168.23-116.35,8.73-23.36,6.45-54.42-21.22-61.85l-1.53-2.26c-3.36-.98-3.64-2.72,0-3l-.95-2.43c40.49-50.9,49.59-122.32,27.67-183.67-8.69,11.94-16.66,24.4-23.9,37.39l-2.82.7c-18.8,33.06-39.28,65.1-60.78,96.47-5.95-.33-11.58-2.12-17.19-3.95l-53.19-18.71c-20.27,17.29-40.77,33.93-61.5,49.91l-3.17-.03-147.72-98.97c-1.6,20.29,1.05,40.73,6.61,60.04l-1.05,3.24c1.51,6.25,3.56,12.44,6.16,18.59.17,2.19-1.01,2.87-3.16,2.41-13.14-29.94-17.2-59.28-16.49-92.01L0,142v-3c1.71-1.25,3.25-.99,5.19-.77,8.79.99,62.88,14.46,65.68,12.64C91.33,69.11,161.57,7.82,246,1c3.26-.32,6.59-.65,10-1h26Z" style="fill: #05070a;"/>
  <path d="M256,0l-2.42,1.04c-2.51.16-5.08-.24-7.58-.04V0h10Z" style="fill: #828080;"/>
  <path d="M466,277c53.79,15.7,76.99,88.11,81,138l2.26,6.99-1.26,1.01-3,1-2.3-3.07c-2.08-19.33-5.65-38.62-11.54-57.16l.83-3.77c-2.62.94-3.29.27-2-2l-3.01-2.29c-10.51-27.97-25.14-56.64-53.7-69.54l-2.28-3.17c-1.37,1.31-2.85,1.09-4.44-.67-.91,5.15-2.76,9.04-5.56,11.67l.94,2.01c-4.27,10.04-3.59,21.97,3.3,30.68,14.38,16.71,28.07,35.12,29.62,58.26l-1.86,3.05c1.54.07,1.54.74,0,2,.48.34.94.7,1.31,1.13,4.3,5.07-10.64,66.84-15.24,77.98-5.31,14.29-2.44,24.27,5.21,36.74l-1.28,2.15c.87.33.87.67,0,1l3.2,2.88c9.73,28.96,15.25,64.15,2.76,92.66l8.94,12.71-.9,2.76c-4.25,2.88-4.63-5.23-5.21-5.85-.42-.45-2.22.19-2.89-.73-1.6-2.23.87-6.56-3.91-5.43,2.2-3.56-.13-7.36,0-10.99-3.31-2.98-.53-14.68,3-17l-1.44-4.19c4.65-31.97-7.09-61.89-18.58-91.09,3.41-16.97,7.56-33.78,12.45-50.43,6.83-26.74,12.14-57.9-5.26-81.67l-17.28-22.87c-11.6-14.87-5.59-35.75,1.57-51.14l2.53-.61c.34-.61.96-1.14,1.14-1.9,1.03-.49,2.03.66,2.86.9Z" style="fill: #0a0504;"/>
  <path d="M701,585c-2.07,1.68-2.41,1.77-2-1-1.02.06-1.02-.61,0-2l.79-3.66c26.11-29.94,27.53-73.12,21.57-110.51,1.24-1.43,1.01-3.08.64-4.83-2.88-3.18-4.83-7.45-5.84-12.79-15.82-39.39-80.75-63.73-120.6-49.47l-4.56-.74c-.95,3.23-11.09,7.86-14,6-.68,2.62-1.24,2.56-2,0-2.57,1.12-3.03-.21-1-2,31.88-16.34,58.78-16.18,92.52-4.02,76.38,27.54,83.11,129.46,34.48,185.02Z" style="fill: #06070a;"/>
  <path d="M575,406l-.33,2.45-14.29,9.28-2.39-.73v1.94c-2.68,2.03-5.02,4.34-7.03,6.91l.09,45.92c-.15,2.17-.54,3.53-3.06,3.23-.61-17.24.83-34.8,0-52-.1-1.99-.79-5.36-1-8l2.49,5.99c6.96-7.04,15.75-12.5,24.51-16.99l1,2Z" style="fill: #0d191e;"/>
  <path d="M701,585c-12.25,13.99-20.83,20.57-38,28l-2-1,.56-2.35c13.57-7.16,26.05-15.71,37.44-25.65l2,1Z" style="fill: #131c22;"/>
  <path d="M87,276l4.78,5.49c16.41,32.89,41.84,63.76,74.25,80.83,18-25.61,66.39-16.49,81.03,9.19,22.26-8.62,44.62-.09,62.43,13.22l3.67-1.08c12.61-18.52,29.96-32.99,47.08-47.12,13.11-15.46,33.51-22.53,53.7-21.71l3.06,2.16c-.6,1.2-.95,1.79,0,3l-2.72,1.76c-6.84.4-13.6.48-20.28.24-3.04,2.8-6.98,4.91-11.83,6.35-12.26,8.14-23.44,17.92-33.56,29.32-8.46,5.95-14.84,11.41-21.48,19.68-28.53,41.67-65.09,76.43-109.69,100.76,3.22,2.94,6.97,5.35,10.7,7.64l-.14,2.25c-4.31,2.34-4.74-2.86-9-1-2.18,2.07-3.99.73-3-2l.98-.49c-3.26-2.69-2.43-9.68-6.98-8.51l.85-2.72c36.29-20.41,70.1-47.51,95.6-81.25-3.8-.15-11.44-5.87-12.45-10.03l-3.31.41c-36.38-18.29-72.19,13.65-97.78,36.84l-24.49,25.53c-15.74,18.05-22.9-14.46-24.06-26.52-.8-8.35-.09-29.29,4.76-35.83.67-.9,1.85-1.2,2.88-1.43l-1.22-1.84,7.29-9.7c-11.42-7.83-22.14-16.61-32.15-26.35-1.51-1.29-15.58,11.01-17.07,13.65l-2.85.25c-.2,4.89-5.49,12.13-10,14,.32-3.62-.86-1.29-3,0,7.62-12.29,16.8-24.14,28.54-32.98l.43-1.46c-17.09-16.7-30.38-36.72-39.97-58.57,3.49-3.37-.28-8.9-1.64-12.86-.6-1.74-2.92-6.75-1.36-8.14,4.69,4.23,8.55,12.69,8,19Z" style="fill: #040a11;"/>
  <path d="M248,6c64.1-5.08,119.04,17.22,161.51,64.99,2.79,3.14,15.05,17.65,15.52,20.56.2,1.22-.12,1.51-1.26,1.76l-145.07,98.93-3.07.69-198.66-40.44c-1.62-1.24.97-8.43,1.53-10.49,4.93-18.31,14.87-38.19,26.5-53l1.61,1.83c-5.73,38.85,6.19,53.38,44.03,35.66,45.96-21.52,94.48-64.86,95.77-118.8l1.59-1.69Z" style="fill: #82c3d8;"/>
  <path d="M417,169c7.23-11.12,17.11-30.04,25.16-39.34.89-1.03.98-2.09,2.83-1.66,20.55,57.43,15.73,121.01-16.57,172.91-3.31,5.31-8.82,10.93-11.42,16.08-17.78-1.26-34.49,2.93-48.48,14.02-2.69,2.14-4.87,5.31-7.51,7.49-17.33,14.35-33.49,27.74-46.46,46.53-7.46,4.78-10.03-1.77-15.86-5.24-15.97-9.51-34.94-13.12-52.57-5.88-4.78-9.82-16.02-17.74-26.14-21.41-11.04-4-35.54-4.81-44.99,2.97-10.35,8.52-4.47,13.11-19.31,3.32-30.25-19.96-54.01-50.06-68.69-82.81l2.95.33c13.32,7.85,26.98,15.1,40.99,21.75l4.05,3.92c6.95,6.32,16.67,10.46,26.21,11.59,34.97,3.34,70.26,4.85,105.49,5.24,12.57,4.55,25.02,9.44,37.36,14.69,11.52,5.48,13.61,4.53,19.08-5.98l11.07-15.34c19.28-8.72,37.17-19.97,54.8-31.6-3.58,2.68-6.59,3.48-9.01,2.41l.87-4.77c21.83-32.56,33.19-70.73,36.13-109.23Z" style="fill: #5397b0;"/>
  <path d="M380,283c-.66.97-1.34,1.92-2.13,2.78s-1.54,1.64-2.45,2.23c-14.33,9.33-29.5,18.26-44.06,26.08-4.88,7.72-9.83,15.43-14.87,23.14-16.67-5.43-33.18-11.55-49.54-18.36-31.65-.15-63.23-1.68-94.74-4.59-12.33-1.76-27.56-4.6-37.22-12.29-17.21-7.19-32.37-15.73-48-26-2.79-6.22-5.73-12.4-8-19-3.39-9.86-5.82-22.93-6.99-33.51s-1.45-22.45-.52-33.48l150.26,100.82c2.8.79,5.46-2.12,7.71-3.86,19.1-14.67,36.34-32.1,56.05-45.99,23.47,6.91,46.05,17.32,69.77,23.07,20.57-31.65,41.12-63.39,61.7-95.05,1.71,1.93,1.17,6.06.99,8.49-2.81,36.22-17.06,76.05-37.99,105.51Z" style="fill: #82c3d8;"/>
  <path d="M394,322c13.83-2.6,16.15,20.43,16.28,30.56.8,61.91-41.02,104.18-94.51,130.6-15.85,7.83-34.29,16.25-51.78,17.83-12.67-2.63-24.77-6.4-36-13-3.26-1.91-8.82-5.51-11.47-8.03-.75-.71-2.8-1.93-2.05-2.97,31.79-16.64,60.26-39.23,84.03-65.98,11.56-13.01,21.41-28.81,32.52-41.48,5.3-6.05,11.47-8.96,16.98-14.02,15.36-14.1,24.12-28.51,45.99-33.51Z" style="fill: #82c3d8;"/>
  <path d="M417,320c16.06,1.9,27.34,17.28,28.88,32.62,1.61,16.04-1.58,25.95-7.41,40.35-30.51,75.34-88.83,125.77-174.47,108.03,52.8-15.72,112.51-46.02,134.86-99.64,7.67-18.39,15.88-60.24,1.67-76.38-1.89-2.15-3.38-3.5-6.53-2.98,7.52-1.72,15.18-2.93,23-2Z" style="fill: #5397b0;"/>
  <path d="M248,6c1.41,3.99.52,9.12-.14,13.36-6.93,44.72-49.51,86.09-88.68,105.32-16.78,8.24-49.25,22.67-54.92-5.43-1.02-5.06-.81-25.58.74-30.25,2.92-8.82,19.02-23.3,26-30,2.08-1.76,3.5-.74,3.34,1.98-7.17,19.69-8.22,35.79,17.71,34.18,35.69-2.22,56.08-48.12,55.6-79.94l2.35-2.22c14.06-3.96,23.1-5.82,38-7Z" style="fill: #b0dbe7;"/>
  <path d="M345,155l.41,4.03c-6.24,30-12.07,59.87-17.48,89.59l-1.93,1.38c-6.09-2.09-39.09-15.64-42.29-14.85-2.25.56-2.79,3.54-4.04,4.52-11.07,8.64-22.64,17.24-33.67,26.33l-.93-4.49c1.64-21.59,3.94-43.16,6.92-64.69-1.12-1.4-1.47-2.36.01-3.82,9.43,1.84,18.68,4.79,28.28,5.85,14.48-12.88,32.21-21.54,47.25-33.82l17.47-10.03Z" style="fill: #162222;"/>
  <path d="M459,411c.25,2.75.14,5-2.65,5.5-13.67,26.54-36.55,46.29-59.45,65.06-13.94,11.43-35.91,28.56-51.78,37.47-3.07,1.72-7.36,3.86-10.7,4.78-12.52,3.44-33.38,7.62-46.35,8.88l-2.06-1.69c-14.4-1.25-28.73-4.06-42.97-8.45l-.03,12.03-2,1.42c-.5,0-1-.03-1.48-.14-2.89-.7.05-28.88,1.26-32.9l2.22-.95c.16-.5-.14-1.37,0-2,46.66,12.59,88.81,13.2,129.72-14.78,31.27-21.39,46.07-41.88,62.14-75.86,6.84-14.46,14.84-31.28,15.15-47.35l3.71,7.78c5.78,13.22,3.44,28.38,5.28,41.22Z" style="fill: #aba68e;"/>
  <path d="M387,124c2.43-1.16,4.07-1.68,4.06,1.55-5.16,32.27-11.16,64.99-17.17,97.28l-1.89,4.18c-4.19,11.36-13.03,20.91-18.97,31.55-8.99-2.76-18.14-5.5-27.03-8.55-.21-2.06.06-4.02.45-6.04,5.53-28.85,11.7-60.52,18.55-88.96.29-1.22.36-2.15,1.6-2.86,14.04-8.53,26.92-18.83,40.4-28.14Z" style="fill: #fefefe;"/>
  <path d="M458,269l.55,2.5c-2.82,8.96-6.73,17.52-11.73,25.68-4.23,8.23-6.13,17.74-.2,25.54,20.69,22.9,31.91,50.15,28.99,81.99-2.68,26.55-7.24,52.8-13.68,78.76,5.23,16.44,11,32.73,17.33,48.86,1.7,10.93,2.67,21.91,2.92,32.92,1.68,5.03,3.62,9.94,5.82,14.74-.83,5.42-2.81,11.91-3,17-1.23,1.08-.55,3.06-2.51,1.01-1.61-1.69-12.74-14.97-13.05-15.96-1.11-3.59-1.01-9.44-2.11-13.89-6.19-24.9-16.95-48.3-27.25-71.67,6.94-16.41,16-32.22,18.81-50.12,1.79-11.42,3.72-28.39,4.16-39.84.96-25.2-8.28-42.34-16.59-64.5-4.24-11.3-10.95-20.55-23.45-23.06,4.72-9.23,11.5-17.62,16.52-26.97,4.5-8.37,8.17-17.1,11.58-25.95,3.37-.5,4.8,1.2,6.9,2.93Z" style="fill: #b0b8bf;"/>
  <path d="M210,13c-1.7,10.31-1.11,21.15-4.32,31.18-7.03,21.98-25.75,51.22-51.14,52.85-28.61,1.84-30.44-12.2-22.51-35.53.68-2,1.77-.7-1.03-2.5,25.05-24.06,45.39-36.53,79-46Z" style="fill: #cfe7f5;"/>
  <path d="M148,172c-3.68,17.73-6.8,35.76-9.36,54.07l-1.64,1.93c-35.54-23.89-70.92-49.25-106.25-72.31-4.28-2.79-10-4.47-12.75-8.68,23.92,2.7,47.22,9.05,70.73,13.76,19.61,3.92,40.05,7.37,59.27,11.23Z" style="fill: #162222;"/>
  <path d="M462,278c-2.73,4.84-8.84,24.99-9.05,30.48-.7,18.86,20.07,34.24,28.56,50.51,19.5,37.35-5.03,87.06-11.59,125.52,12.91,33.14,23.69,58.96,18.08,95.5-12.06-10.89-7.29-26.78-9.24-40.26-2.63-18.22-15.58-37.7-18.81-56.27,8.5-44.56,26.39-98.11.03-139.96-5.07-8.05-17.99-19.92-18.99-29.01-1.46-13.35,7.9-23.47,12.88-35.13,1.43-3.35,1.52-7.89,4.13-10.37,3.32,2.72,4.52,4.29,4,9Z" style="fill: #fbfcfb;"/>
  <path d="M459,411c.02.16,1.53,1.22,1.8,2.65.46,2.42.15,4.91.19,7.34l-2-4.99c-1.57-.32-1.36-.07-1.99,1-.34,6.89-3.12,13.22-8.35,19-25.75,33.69-60.97,58.38-95.69,82.57l-6.96,2.43c-.22,1.55-1.32,2.77-3.31,3.68l8.57,6.96-.25,2.36,4.64,1.26c5.83,4.18,28,21.52,29.76,26.23.3.8.47,1.65.6,2.52-.37.23-1.52,1.1-3,2-1.03-.13-2.04-.29-3.02-.59-4.37-1.36-27.3-20.51-29.72-24.64-.51-.87-.91-1.81-1.27-2.77l-1.12.8c-5.2-4.05-10.6-8.03-16.21-11.92-26.42,7.1-53.29,13.25-80.69,14.81-.93-.76-1.87-1.35-2.81-1.36-2.56-.03-5.14.17-7.68.42-.81.08.29,14.71.5,16.24l2.12,5.65,2.5,33.21c3.55.13,9.5,1.23,10.38,5.14,7.04.18,13.16,2.88,18,8l6.53.69c3.53,1.3,58.78,25.19,59.69,29.72.1.5-.03,1.04-.22,1.59,1.6,1.58,3.63,4.65,0,4l-4.44-.28c-21.58-10.74-43.33-20.97-65.25-30.68l-1.31-2.05c-.45.4-.92.72-1.42.81-.89.15-14.94-6.36-16.29-7.34l-1.28-2.47c-3.06,1.13-6.38,1.17-9.97.13-5.36,3.36-10.7,5.65-16.03,6.87-7.75,7.94-19.36,14.68-30,18l-.6,2.84c-14.53,12.28-29.48,23.97-44.83,35.06l-2.57-.9c-1.02.51-1.58,1.35-3,.99-.4-.37,1.11-2.83,1-2.99.39-1.09.82-2.16,1.38-3.16,3.32-5.94,30.72-28.02,37.26-30.11,1.09-.35,2.22-.56,3.36-.73l1.44-3.42c6.01-5.22,17.05-12.27,24.56-13.58.36-.81.76-1.6,1.27-2.31s.99-1.35,1.64-1.71c8.23-4.66,16.72-9.26,25.41-12.85-5.19-16.96-5.88-36.42-4.41-53.98-21.07,2.25-45.39-2.68-66.33-7.52l-3.58-2.63c-2.77.37-6.13.17-10.08-.61l-40.35,56.42c-3.44,4.74-7.47,9.01-11.56,13.19-5.08,1.98-1.87-1.01-1-3l-.65-3.32c14.2-22.69,29.67-44.84,46.41-66.44-2.94-1.47-4.19-3.22-3.76-5.23-9.6-4.33-19.5-13.52-24-23,.06-1.03,1.97-1.86,2-2l2,.07c8.59,7.87,17.72,15.12,27.37,21.76l1.63,3.17c6.12.39,16.86,2.33,22.61,4.63l1.39,2.37,2.48-.8c16.82,3.42,33.81,5.4,50.97,5.94l4.54,1.86.62-6.81c-1.41-3.08-3.42-8.58.38-10.19-2.92-4.17-1.51-13.32,2-17,1.67-3.2,1.38-1.62,4,0-1.35,4.31-2.62,14.71-2.99,19.51-.32,4.23-.64,10.54.99,14.49,1.42-1,2.95-1.84,4.67-2.13,12.5-2.16,27.64-2.68,40.33-2.87,13.46-2.18,40.15-5.91,51.99-10.51,7.43-2.89,23.97-15.46,31.33-20.67,19.45-13.77,39.18-29.1,56.21-45.79,13.72-13.44,23.01-27.06,33.47-43.03Z" style="fill: #070703;"/>
  <path d="M187,180c11.65,2.33,23.34,4.68,35,7l1.86,1.02c-4.89,28.7-9.79,57.41-14.68,86.12l-2.18.86c-11.38-7.53-22.66-15.38-34-23l-1.67-2.48,9.46-67.16c.47-2.02,2.54-2.81,6.21-2.36Z" style="fill: #fefefe;"/>
  <path d="M405,112c21.28-14.65,43.04-29.51,64.89-43.61,2.56-1.65,5.57-6.33,9.11-4.89l-82.99,128.51-1.02-3.35c3.1-25.89,6.44-51.44,10.02-76.65Z" style="fill: #162222;"/>
  <path d="M216,485c1.06.79,1.99,1.3,3,2,6.17,4.23,12.3,8.7,19.88,10.12.37.43.22,3.85.12,4.88-.54,5.63-1.7,11.32-2,17-.83.22-1.66.4-2.5.45s-1.59.08-2.26-.17c-9.22-3.47-18.52-7.2-27.02-12.2-16.38,7.15-33.83,13.71-51.23,14.93-11.51-5.93-21.75-16.13-31-25,.07-.31-1.81-1.82-.49-2.01,29.76,8.18,60.4-2.83,87-15.71,2.27,1.84,4.12,3.96,6.49,5.72Z" style="fill: #aba68e;"/>
  <path d="M187,180l-4.06,1.46-9.94,70.54c-10.96-7.37-22.05-14.63-33-22-1.32-1-1.03-2.32.86-3.97l7.98-52.15,2.16-.88c11.99,2.41,24.38,4.67,36,7Z" style="fill: #162222;"/>
  <path d="M242,191l1.88.97c-4.08,28.21-8.15,56.46-12.24,84.73l-2.64,4.3c-2.38,1.81-4.46,1.52-5.58,4.05l-1.75-.18c-4.52-3.86-9.71-6.57-14.68-9.86l15-88c6.69,1.33,13.73,2.76,20,4Z" style="fill: #162222;"/>
  <path d="M252,193l2.1,3.43c-2.51,23.19-6.1,46.3-8.1,69.57-5.73,4.72-11.12,10.52-17,15l13-90c3.32.66,6.66,1.35,10,2Z" style="fill: #a1a9aa;"/>
  <path d="M389,203c-3.25,5.33-7.33,10.39-10.84,15.66-1.82,2.72-2.01,6.74-6.16,8.34,4.25-33.44,11.92-66.45,16.73-99.78.28-1.94,1.32-3.71-1.73-3.22,4.37-3.02,9.43-5.85,14-9l1.89.95c-3.55,26.04-7.11,52.15-10.68,78.31l-3.21,8.74Z" style="fill: #172122;"/>
  <path d="M405,112c2.99-.53,2.07,1.42,1.87,3.34-2.66,25.58-8.6,50.99-10.87,76.66-2.66,3.44-4.74,7.3-7,11l12-88c1.38-.95,2.62-2.05,4-3Z" style="fill: #717a7b;"/>
  <path d="M148,172c.79.16,1.81.76,3,1l-8.3,54.25-2.7,2.75c-1-.67-2-1.33-3-2,2.61-16.89,3.95-35.96,7.98-52.52.5-2.06-.01-3.54,3.02-3.48Z" style="fill: #72797b;"/>
  <path d="M482,606c18.85,30.3,25.06,70.06-3.82,96.29-17.18,15.6-51.29,15.46-72.26,8.31-12.42-4.23-27.65-11.55-35.92-21.61-12.74-28.7-31.57-37.25-19.71-72.21,13.08-38.55,56.37-70.94,96.73-49.31,10.3,5.52,30.08,27.96,34.98,38.52Z" style="fill: #82c3d8;"/>
  <path d="M340,645c5.71,3.43,2.75,2.95,5.09,7.4,3.67,6.97,28.04,47.7,26.83,51.94-.59,2.08-14.81,6.63-17.71,7.36-66.22,16.59-151.59,6.13-203.67-40.73-1.81-1.63-4.24-3.32-4.53-5.97,12.98-6.45,33.63-27.37,48-37,24.58-2.09,50.02-6.35,72.88-16.2l2.12.2c22,9.9,50.77,20.85,71,33Z" style="fill: #aba68d;"/>
  <path d="M539,751c.18,1.59-.51,2.55-2.08,2.43-12.15-3.08-16.28-.38-12.37,8.1,3.42,7.88,6.2,15.94,8.35,24.17l-1.9,1.29c-22.23-.63-44.24-1.99-66.46-3.04-15.86-.75-48.48,1.57-61.88-7.12-3.78-2.45-13.06-16.45-14.2-20.8-6.06-23.04-8.53-44.65-18.46-67.04,16.55,11.52,36.81,22.96,57.46,24.04,11.91.63,33.83-.83,43.48-7.61,35.8-25.17,27.09-64.9,11.07-99.43,17.2,22.87,31.31,50.06,41.75,76.75,6.11,15.61,13.21,38.34,15.13,54.87.5,4.31-.52,9.44.12,13.38Z" style="fill: #5397b0;"/>
  <path d="M152,381c-8.4,16.68-7.86,43.41.52,59.98,2.04,4.03,4.93,10.07,9.53,6.56,10.97-8.36,22.46-23.67,33.48-33.52,25.7-22.98,63.39-53.2,98.47-32.03-.22,1-.48,1.99-.87,2.92s-.77,1.81-1.39,2.46c-32.77,34.92-95.19,85.73-144.95,86.55-11.01.18-56.9-12.34-63.11-18.73-.64-.66-1.18-1.41-1.69-2.19-5.53-26.89.42-58.13,14-82,2.76-4.85,6.39-9.74,10-14l2.98-.75c13.04,9.93,26.88,15.73,42.29,20.87,1.98.98,1.57,1.98.73,3.88Z" style="fill: #82c3d8;"/>
  <path d="M577,406c.69.39,1.35.8,1.93,1.32,7.47,6.68,14.24,53.48,9.29,64.69,9.16-2.49,43.04,8,46.94,14.88.37.65.62,1.37.84,2.11l-2.55,1.73c-17.27-1.32-33.39,7.92-43.49,21.55l-2.95.72c-37.81,42.39-38.92,120.02,32.84,122.86,1.46.37,1.56,1.65,1.16,3.14-22.33,19.92-43.91,35.08-70,50-1.49-.72-2.71-1.74-3.65-3.09l-12.37-30.18c-5.86-13.18-12.38-23.75-20.63-34.46,25.05-58.81,52.71-124.91,45.18-189.61-1.78-5.1-2.29-9.99-1.53-14.66,4.63-3.44,11.99-8.38,17-11,.42-.22,1.57.22,2,0Z" style="fill: #5397b0;"/>
  <path d="M457,417c1.43,3.97.46,11.05,0,15.49-2.55,24.46-8.33,44.15-21.78,64.84,14.01,24.42,25.12,49.37,28.78,77.66-.71.81-10.18-7.86-11.67-8.82-20.63-13.36-40.68-12.62-62.35-2.65-1.31.6-3.67.29-3.98.48-10.65-11.08-23.26-20.12-35-30l-1.26-1.67c2.71-3.09,4.71-6.56,6-10.39-4.36,1.28-7.61.96-9.73-.94,11.74-8.05,23.57-15.95,34.9-24.6,25.44-19.43,57.69-44.7,73.27-72.72,1.16-2.09,1.95-5.2,2.83-6.67Z" style="fill: #aba68d;"/>
  <path d="M126,651c7.99,10.46,16.45,19.18,27,27,2.49,2.98,1.26,6.34-3.69,10.08,16.65,11.72,34.47,20.42,53.9,27.54.75,1.1.68,2.55-.21,4.38-3.08,7.13-7.8,13.95-10.73,20.77-2.32,5.39-4.49,18.27-8.91,21.09-7.68,4.92-34.93.38-45.9,1.1-9.25.6-19.49,3.47-28.92,4.08l-77.54.95c-1.25-.91,13.72-14.44,14.99-15.5,2.71-2.28,9.03-8.24,12.01-8.49l2.62-2.28c23.76-3.86,46.77-17.6,64.54-33.69,3.43-3.11,19.64-18.07,18.32-20.13-3.99-2.54-23.9-20.53-24.73-24.1-.06-.28-.08-5.08,0-5.36.38-1.47,5.5-6.81,7.26-7.45Z" style="fill: #5397b0;"/>
  <path d="M294,382c5.22,3.15,8.96,7.03,14,10.02-19.13,27.71-45.33,50.65-73.47,69.01-7.09,4.62-17.21,11.2-24.53,14.97-36.04,18.58-79.83,28.47-113.47-.03-9.28-7.86-12.11-11.22-14.53-22.97,8.14,3.57,16.31,6.98,24.8,9.7,11.47,3.68,32.1,10.04,43.58,9.16,34.97-2.65,74.32-28.42,101.1-49.9,14.92-11.96,29.71-25.93,42.53-39.97Z" style="fill: #5397b0;"/>
  <path d="M87,600c1.62-3.04,2.27-6.62,4.71-9.74.64-.82-.02-1.83,2.28-1.26,7.5,21.95,17.92,43.54,32.01,62,.11,4.83-7.12,6.75-5.86,11.28.29,1.03,12.43,13.87,14.33,15.74,3.04,3,7.8,6.65,11.39,9.1l-.36,2.87c-8.58,10.06-18.07,19.39-28.59,27.42-16.56,12.64-38.41,24.91-58.91,26.59-1.83-13.92-1.15-28.14,0-42l3.13-3.3c21.45-8.03,40.64-20.92,56.03-37.84-13.34-15.57-22.05-36.2-30.19-55.82-.29-.7-.29-1.52-.29-2.39s.14-1.77.31-2.65Z" style="fill: #83c3d8;"/>
  <path d="M383,566c-.59.36-8.05,7.79-9.65,9.35-14.58,14.21-33.06,42.74-31.12,63.85.29,3.2,1.65,1.77-2.23,1.8-3.96-3.89-19.8-11.02-25.64-13.86-13-6.33-27.09-12.28-40.36-18.14l1.05-2.15c30.23-11.73,55.91-40.4,71.83-68.33l2.12-.51c11.35,9.28,22.19,19.28,34,28Z" style="fill: #aba68d;"/>
  <path d="M558,417c4.95,16.46,6.66,32.29,4.9,49.4-4.59,44.46-18.82,89.82-35.68,130.3-3.46,8.31-7.08,16.61-11.1,24.66,1.34,1.99,3.37,3.3,4.72,5.3,2.92,4.33,7.18,10.47,9.44,14.61,8.28,15.2,13.2,32.2,20.72,47.73-2,1.14-15.99,9.94-16.99,9-9.43-25.16-21.22-49.68-33.66-73.5,25.99-45.65,43.87-96.77,47.65-149.51.02-.26.98-1.6,1.07-3.38.81-15.07-.78-30.93-.05-46.1.59-3.12,6.37-6.59,8.98-8.52Z" style="fill: #3c7e95;"/>
  <path d="M166,531c2.73,1.3,3.56,2.5,2.49,3.59-11.1,4.91-26.55,19.24-26.96,31.93-1.28,39.13,37.18,42.99,67.52,42.33,2.08.32,3.42.7,2.95,3.15-8.27,5-18.04,11.47-26,17-22.01,4.75-49.33-1.11-71.26-7.22l-3.74-2.78c-2.23-4.33-9.04-14.3-7-19,16.47-23.94,33.25-47.61,50.52-70.99,2.95-2.51,7.47.94,10.97,1.01.48.2.57.51.51.98Z" style="fill: #e3d9ac;"/>
  <path d="M532,360c6.51,18.44,11.34,44.75,13,64,.99,11.53,1.19,25.38,1,37-.64,5.29-.98,10.63-1,16-1.78,17.49-4.67,35.97-9,53-2.08,1.72-5.82.85-5-2l-1.77-4.86c.42-17.6-1.45-35.31-5.81-52.36-3.86,10.29-15.83,27.3-12.47,3.13,2.21-13,4.13-25.99,4.58-39.04.51-14.79-1.27-25.18-9.98-37.42-.41-2.08.7-2.81,2.49-3.61,2.55-1.13,16.4,9.34,18.87,11.71,1.43.87-6-30.13-6.99-32.55l1.07-3.99c-1.06-3.33,7.97-10.44,11-9Z" style="fill: #bc978c;"/>
  <path d="M87,600c6.72,15.58,12.71,31.35,21.64,45.86,3.14,5.1,8.26,10.17,10.26,15.44-15.77,19.12-37.7,32.38-60.89,40.7,2.71-32.64,13.61-73.11,29-102Z" style="fill: #acd4df;"/>
  <path d="M145,522c1.46,1.31,6.15,3.62,5.91,5.34-12.06,17.23-25.03,33.87-36.72,51.35-4.02,6.01-8.32,11.75-11.18,18.32-3.06-.16-4.81-6.23-5.76-8.74-6.77-17.74-12.71-46.34-13.24-65.26-.61-3.88-.79-7.84-.54-11.9l2.74-.38c17.81,4.81,35.91,8.95,54.43,9.32l4.37,1.96Z" style="fill: #e2d9ab;"/>
  <path d="M609,499l-.55,3.29c-51.61,57.35,32.82,129.51,86.86,80.42l3.69-.72c-.13.59.2,1.66,0,2-1.46,2.52-16.44,15.5-19.68,17.82-4.85,3.45-12.82,8.22-18.32,10.18-4.62,1.65-13.2,3.59-18,4-45.36,9.07-79.5-28.17-67.77-73.08,2.99-11.47,18.86-42.38,31.04-44.77.96-.19,1.91.36,2.73.85Z" style="fill: #5398b1;"/>
  <path d="M587,513l.08,3.53c-27.15,38.38-14.89,94.07,35.91,100.67,2.91.19,17.86,2.25,17.72,3.35l-.71,1.45c-6.31,5.68-12.67,11.35-19,17-1.13-1.29-2.95-1.73-4.59-1.91-45.66-5.04-62.18-31.41-55.13-76.31,2.48-15.8,9.62-29.34,18.89-42.11.95-1.31,4.86-7.67,6.83-5.67Z" style="fill: #3c7e96;"/>
  <path d="M501,517c2.28,8.65,4.21,17.72,5.79,27.21,2.37,11.29,5.95,23.09,13.21,31.79-2.99,7.14-18.47,40.93-23,44-.98-3.37-10-13.28-9.98-15.5,0-.88,2.93-6.17,3.51-8.48,7.19-28.63,2.56-60.65-7.53-87.03,6.02.85,14.22,3.57,18,8Z" style="fill: #8d695c;"/>
  <path d="M121,499c7.67,8.13,15.68,15.53,24,23-20.51.34-41.41-4.24-60.99-10,.05,3.65-.11,7.35,0,11-1.66-1.04-1-3.8-1.02-5.49-.19-15.52-.28-30.29,3.03-45.51,4.6,3.96,8.68,8.26,13.67,11.82,9.02,6.42,13.25,6.64,21.32,15.18Z" style="fill: #aba68e;"/>
  <path d="M186,629c-14.7,10.22-29.12,21.56-42,34-.07-.11-1.51-.14-2.48-.97-11.58-9.88-23.55-29.48-30.52-43.03,18.58,3.53,37.48,9.14,56.51,9.99,6.44.29,12.69-1.59,18.49,0Z" style="fill: #aba68e;"/>
  <path d="M501,517c10.07,2.1,21.19,7.3,29,14l1.85,1.16-5.85,26.84c-2.05,5.69-3.65,11.39-6,17-2.72.91-4.73-2.78-5.82-4.68-8.9-15.49-10.4-34.49-14.22-51.78-.41-1.86-2.29-2.86,1.04-2.54Z" style="fill: #ab7965;"/>
  <path d="M378.92,729.92c-25.3,2.53-52.62,1.53-76.91-6.42,4.13-2.96,10.51-1.05,15.48-1.52,18.77-1.74,38.85-5.24,56.03-12.89,2.15.15,6.36,19.7,5.4,20.83Z" style="fill: #3d7e92;"/>
  <path d="M636,489c2.04-3.55,7.06.59,9.36,2.74,3.97,3.7,7.58,10.45,8.72,15.75.89,4.11,1.36,8.88-3.92,5.18-6.12-17.27-15.49-21.24-33.11-15.89-3.07,2.01-5.76,2.75-8.04,2.22-11.85,5.55-22.13,20.35-27.49,32.01-22,47.9,9.45,89.45,61.49,84.99l-8.99,2.5c2.42,1.18,10.71-.75,5.99,3.5.56-3.02-1.53-1.94-3.45-2-19.06-.63-35.45-3.23-49.06-17.99-24.05-26.07-19.16-61.4-.49-89.01,10.65-15.75,29.44-26.67,49-24Z" style="fill: #030e18;"/>
  <path d="M539,751c.12.72,1.49,3.17,2,4-.18,2.5.32,4.53,2.01,6.46l18.4,20.99c1.92,2.28,2.11,4.13.59,5.55-9.41-1.87-21.27-.73-31-1-.26-8.11-10.42-25.47-9.81-32.31.09-.97,3.1-4.65,3.52-4.71,3.39-.47,10.27,2.6,14.29,1.02Z" style="fill: #83c3d9;"/>
  <path d="M153,678c7.69,5.7,20.99,15.01,29.32,19.18,3.4,1.7,23.85,8.83,24.55,9.96,1.47,2.35-2.8,10.37-3.88,12.87.63-4.35-.49-2.01-1.47-2.58-9.38-5.51-22.89-8.72-33.07-14.37-3.25-1.8-6.13-4.87-8.84-6.65-2.15-1.41-13.36-6.01-12.61-8.89.15-.56,7.08-5.4,6-9.51Z" style="fill: #3b7f95;"/>
  <path d="M541,755c2.97,4.78,6.99,5.8,10.48,9.02,7.52,6.96,14.97,15.19,15.52,25.97-1.83.61-4.16-1.83-4.99-2-.92-1.87-1.68-3.84-3-5.5-3.39-4.25-19.01-19.64-19.6-23.44-.3-1.97-.81-3.24,1.6-4.06Z" style="fill: #aed2d9;"/>
  <path d="M496,512c.8-.23,1.61-.43,2.42-.48,3.9-.26,24.59,10.04,29.6,12.9l2.98,3.58c1.27.58,2.52,2.7,5,2-.11.42-1.84,1.4-2,2-1.79,2.82-3.75,2.31-4-1-9.61-5.01-19.17-9.47-29-14-5.95-2.74-11.79-5.86-18-8-.11-.29.11-.71,0-1,2.55-3.51,11.78.12,13,4Z" style="fill: #29100a;"/>
  <path d="M534,532c-2.62,9.76-4.45,17.12-8,27l4-28c1.31.68,2.48,1.11,4,1Z" style="fill: #b2938b;"/>
  <path d="M545,477c.56-5.09-1.26-11.48,1-16-.09,5.87-.44,10.45-1,16Z" style="fill: #0a0504;"/>
  <path d="M471,283c-1.6,4.24-2.8,8.58-3.59,13.02,16.83,11.83,31.36,27.07,42.19,45.29,2.92,4.91,10.23,17.38,9.9,22.15-.06.85-.26,1.7-.5,2.54-4.33,7.2-11.22,12.86-19,16l-2.29-3.09c-1.78-22.84-14.39-39.44-30.38-54.03-6.64-7.36-7.23-15.89-5.38-25.23-.56-1.88-.88-3.77-.95-5.65,1.4-4.6,2.36-9.45,4.01-14,2.47-.37,4.45,2.37,5.99,3Z" style="fill: #ab7965;"/>
  <path d="M530,358c.15.65.21,1.21-.04,1.48-1.8,1.91-8.72,7.23-10.96,6.52-8.01-22.78-22.32-42.65-40.48-59.02-2.12-1.91-13-9.15-13.45-10.63-.22-.73,2.72-14.07,5.92-13.34,32.81,13.44,47.23,43.85,59,75Z" style="fill: #bd978c;"/>
  <path d="M496,512c-4.24-1.62-8.33-3.73-13-4-2.11-5.52-6.93-12.73-8.31-18.18-2.79-11.05,8.27-38.16,11.04-50.59,3.03-13.56,7.09-35.67,7.27-49.23,1.18-1.78,5.28-5.33,7-4l1.89,2.9c-.18,30.57-7.95,61.26-16.91,90.8,5.76,9.64,10.05,19.68,12.86,30.13l-1.85,2.17Z" style="fill: #8c685b;"/>
  <path d="M461,294c5.53,3.55,1.48,9.92,2.01,16.5,1.06,13.08,14.61,20.14,21.99,30,9.01,12.03,13.93,26.56,15,41.5.82,2.95-4.25,6.37-7,6-.29-14.11-5.72-27.59-13.19-39.31-12.7-19.92-27.98-24.71-20.56-51.99.39-1.44,1.65-2.37,1.75-2.7Z" style="fill: #8d675b;"/>
  <path d="M532,360c-4.59,1.23-7.87,6.32-11,9-3.48,7.23-13.16,15.25-21,17-1.92,1.41-4.88,2.7-7,4,0-.67.01-1.33,0-2,3.19-1.07,4.95-4.27,7-6,6.33-5.33,12.76-10.67,19-16,3.13-2.68,7.49-5.75,11-8,.24.64,1.82,1.5,2,2Z" style="fill: #28110b;"/>
  <path d="M591,400l2.35,2.31c10.01,48.18,50.73,81.62,101.05,72.18,9.06-1.7,22.1-5,27.6-11.49,8.69,36.8,5.79,90.92-23,119-29.56,28.83-71.63,23.98-96.98-7.52-18.22-22.65-14.25-56.16,6.98-75.48,7.5-6.83,27.38-9.01,35-1.5,4.07,4,5.08,11.4,8.99,15.5-.63-8.94-7.19-22.66-16.99-24-14.76-9.48-31.34-15.29-49.01-16,3.38-23.09-1.75-45.64-9.99-67,5.91-2.99,7.31-3.9,14-6Z" style="fill: #82c3d8;"/>
  <path d="M722,463c.12,2.09.46,3.59-1.66,4.84-.98.58-6.86,3.08-8.35,3.65-40.8,15.66-82.1,3.35-105.96-33.03-7.22-11.01-13.47-25.36-15.04-38.46,35.67-11.18,67.39-4.55,97.91,16.59,20.22,14.01,27.42,22.4,33.09,46.41Z" style="fill: #acd4df;"/>
  <path d="M220,357c.36.61.69,1.23.89,1.88,1.75,5.75-10.68,24.03-14.93,29.11-9.18,10.97-30.32,27.96-44.77,31.09-3.63.79-10.08,2.11-11.19-2.08-1.33-9.82-.68-12.64,2-22,2.53,2.23,6.13.73,8.97-.54,16.44-7.35,25.94-23.34,34.28-38.56l2.75-.9c7.8.22,14.31-.25,22,2Z" style="fill: #82c3d9;"/>
  <path d="M150,417c10.75,3.47,23.73-5.07,32.52-10.98,17.48-11.73,32.33-28.19,37.48-49.02,3.96,1.16,8.41,3.24,11.53,5.97,2.01,1.76,10.4,11.98,9.05,14.05-29.78,18.66-58.12,40.2-81.08,66.96-5.77-7.23-8.26-17.88-9.5-26.98Z" style="fill: #5398af;"/>
  <path d="M152,381c-.68-1.99-1.86-2.23-3.56-2.94-7.31-3.05-15.93-5.1-23.12-8.88-6.66-3.5-12.43-9.03-19.32-12.18,3.72-4.4,8.31-9.2,13.09-12.41,2.19-1.48,5.12-4.38,7.88-3.12,10.24,10.34,21.82,19.15,34.01,27.02.07.93-7.95,10.47-8.98,12.51Z" style="fill: #5398af;"/>
  <path d="M198,355c-8.71,16.45-21.99,38.7-41.57,42.94-2.89.63-5.26.86-4.43-2.94,4.44-15.52,21.71-40.3,39.49-41.06,2.86-.12,5,1.02,6.51,1.06Z" style="fill: #b4dde7;"/>
  <path d="M380,283c9.24-5.31,33.13-14.95,39.39-21.11,2.88-2.84,4.76-10.25,9.12-12.88,1.79,19.47-18.69,21.4-31.2,28.8-19.88,11.75-38.28,26.63-60.68,34.32l-19.28,26.94c-3.72-.67-7.29-1.89-10.86-3.05-11.06-3.6-32.44-14.67-42.07-15.93-14.41-1.89-32.9.79-47.96-.04-7.91-.44-16.03-2.43-23.97-3.03-19.89-1.51-39.93,2.18-55.51-11.49-.39-.34-3.93-3.07-1.98-3.52,41.31,17.26,88.1,12.86,132.26,15.24l47.28,18.77,1.96-1c3.97-5.32,8.96-18.48,13.57-22.44,2.3-1.97,5.75-2.25,8.25-3.75,13.96-8.36,27.6-17.73,41.67-25.83Z" style="fill: #030c15;"/>
  <path d="M310,325c-1.69.19-3.21-.23-4.81-.68-11.04-3.16-22.12-12.58-33.64-13.35-7.2-.48-16.09,4.26-17.47-5.53-1.61-11.35,2.91-11.91,4.49-19.41,1.29-6.11-4.11-11.69,7.58-14.39,20.77-4.8,31.69,13.09,38.07,29.66,1.47,3.82,4.85,13.74,5.56,17.44.4,2.09.29,4.17.23,6.27Z" style="fill: #9fd9ec;"/>
  <path d="M319.01,291c.61-5.74,4.33-10.87,8.98-13.99-1.74,4.47-4.05,12.15-8.98,13.99Z" style="fill: #112937;"/>
  <path d="M342.35,369.35c7.63-7.97,19.15-18.72,27.64-25.86,2.43-2.05,13.58-11.3,15.58-11.5,5.06-.51,3.86,11.56,3.35,15.43-2.93,22.17-38.55,56.54-57.22,67.78-9.95,5.99-16.12,7.21-14.75-6.75,1.22-12.39,16.86-30.16,25.4-39.1Z" style="fill: #b4dee8;"/>
  <path d="M286,531c-14.87,2.41-29.93,4.79-45,5v-16s45,11,45,11Z" style="fill: #dfd7ac;"/>
  <path d="M166,531c23.56,3.81,46.86,10.65,71.01,8.99.26,18.68.19,37.7,4.89,55.85-9.81,5.56-20.24,10.32-29.89,16.16-5.05-2.82-10.71-.56-16.54-.96-16.88-1.15-41.48-5.22-50.83-21.16-4.02-6.84-6.38-21.64-4.38-29.14.89-3.32,8.48-13.91,11.27-16.73,4.05-4.11,11.03-9.22,16.48-11.02l-3.01-1.01c.11-.48,1-.83,1.02-.98Z" style="fill: #ece8c9;"/>
  <path d="M349,538c-.26,2.24-1.46,4.05-2.59,5.92-12.15,20.3-31.72,41.35-51.27,54.73-5.83,3.99-14.25,9.77-21.15,10.35-6.02-2.66-12.06-5.29-18-8-4.06-2.49-.73-5.49,2.23-7.47,9.75-13.84,2.08-35.84-8.79-47.09-.41-3.35-2.59-4.47-6.54-3.37.34,4.76.43,9.61-1.9,13.93-2.28-5.01-.41-11.61-1.01-17.01,30.82,0,61.85-7.31,91.54-15.06,3.6.08,13.99,10.22,17.47,13.06Z" style="fill: #e3d9ac;"/>
  <path d="M241,557c-.04-5.32.03-10.68,0-16.01,1.8.36,8.12-.57,8.9.12.25.22.41,2.98,1.23,4.25,1.18,1.84,3.26,3.01,4.32,4.69,7.46,11.86,13.86,31.28,5.03,43.9-2.2,3.14-4.99,2.04-4.47,7.04-3.71-1.69-7.96-2.89-11.85-4.15-1.7-13.23-3.04-26.51-3.15-39.85Z" style="fill: #ece8c9;"/>
  <path d="M269,612c-.66,1.86-2.2,2.1-3.78,2.72-18.68,7.33-41.67,12.82-61.73,14.27-2.73.2-7.23.73-9.49-.99,9.69-6.5,19.83-12.3,30-18,8.86-1.57,17.53-3.9,26-7,7.53,2.01,12.48,6.07,19,9Z" style="fill: #e2d8aa;"/>
  <path d="M178,529c-1.23-5.05,6.24-9.98,10.49-12.22,15.98-8.42,33.58-.79,46.94,8.65,1.47,3.16,1.66,6.68.57,10.58-19.59.92-39-2.64-58-7Z" style="fill: #ece8c9;"/>
  <path d="M237,519c-.29,5.49,1.06,12.11-1,17-.38-2.06.69-6.26-.21-7.8-.47-.81-13.94-8.76-15.92-9.57-15.68-6.43-32.11-4.22-41.87,10.37-7.41-1.7-17.61-3.71-24-7,5.41-3.55,12.9-3.52,19.21-5.29,10.73-3,21.74-7.46,32.12-11.52,10.16,5.49,20.95,9.56,31.67,13.81Z" style="fill: #e2d7b0;"/>
  <path d="M346,521c3.96-.76,8.89-.35,12.99-2l-3.17,8.32-4.82,6.68c-2.29-1.93-10.14-7.46-10.99-9.52-.77-1.85,4.8-3.26,5.99-3.48Z" style="fill: #e0d5ac;"/>
  <path d="M250,603c-5.64,5.18-13.42,6.89-20.81,7.71-1.6.18-4.15,1.15-5.19-.71,3.77-2.12,12.05-8.2,15.75-8.83,1.37-.23,8.4,1.34,10.25,1.83Z" style="fill: #e9e8cc;"/>
  <path d="M417.62,671.63c-7.99,13.56-29.89,7.65-31.49-9.26-.42-4.42,1.11-20.58,4.86-22.9,2.93-1.81,16.32,2.36,19.72,4.31,9.3,5.33,12.27,18.76,6.91,27.85Z" style="fill: #acd4df;"/>
  <path d="M100.01,405c3.37-1.86,4.33-6.2,8.45-7.04,1.92,2.44,2.76,4.12,2.35,7.27-.67,5.13-8.23,23.17-10.98,28.09-4.96,8.86-10.21,14.15-14.61.95,1.66-15.43,7.61-30.08,10.8-45.27l4,15.99Z" style="fill: #b3dee7;"/>
  <path d="M521,369c3.54,14.63,8.18,28.79,8.99,43.99-1.73-.8-1.85-3.26-3.45-5.03-2.32-2.56-17.07-13.85-19.54-11.95,2.55,5.05,6.68,10.69,8.47,16.02,2.91,8.65,2.19,24.08,1.52,33.46-.97,13.5-4.8,26.97-4.98,40.51l7.17-10.32c1.05-4.01,4.15-7.37,3.83-11.68l1.5.99c4.74,20.97,7.87,41.37,6.49,63.01-11.41-5.19-23.52-11.61-35-16-.42-12.21-9.37-21.48-12.94-32.38,6.8-21,11.16-40.16,14.01-62.06.24-1.87,1.66-3.32,1.88-5.12.98-8.23.65-18.07,1.05-26.45,7-5.15,14.37-11.34,21-17Z" style="fill: #ab7965;"/>
  <path d="M286,296.99l-4.79-.7-10.2-4.28c5.26-.3,11.99-.03,14.99,4.98Z" style="fill: #122538;"/>
</svg>