<?xml version="1.0" encoding="UTF-8"?>
<svg id="Layer_1" data-name="Layer 1" xmlns="http://www.w3.org/2000/svg" viewBox="0 0 644.21 644.38">
  <path d="M314.45.11c193.84-5.26,352,170.72,327.19,363.19-23.22,180.15-205.68,314.21-384.83,273.86-110.2-24.82-201.98-103.77-239.18-210.82C-53.59,221.37,100.06,5.93,314.45.11Z" style="fill: #06080b;"/>
  <path d="M42.66,411.82c-4.24-1.33-18.04-2.55-19.84-5.66-1.4-2.42-4.06-15.34-4.89-19.11C-32.94,155.49,194.02-47.31,418.19,27.78c82.32,27.57,160.79,96.01,191.93,178.07,4.23,11.14,3.28,14.28,1.07,26-4.58,24.27-16.13,49.4-31.03,68.95-57.87-78.59-168.44-19.53-144.99,73.01,11.53,45.49,58.2,75.48,104.26,60.28,44.06-14.54,64.19-64.47,52.17-107.72-.97-3.5-5.24-10.96-4.77-13.84.34-2.08,12.65-18.89,15-23.04,8.28-14.63,15.22-31.22,18.83-47.68,2.65-.29,1.58.06,2.01,1.48,34.26,112.89-13.46,242.28-102,316.04-115.24,96-271.77,98.37-389.93,5.91-40.83-31.95-89.22-92.51-102.88-143.12-.23-.86-.65-2.33.31-2.31,5.95,2.56,13.61,2.31,19.49,4.01,2.48-.68,4.01-.45,4.62.69,7.44,19.05,16.79,37.25,28.1,54.27,18.84,28.36,38.59,46.5,63.67,68.71,1.62,1.44,2.65,3.41,3.62,5.33,3.99.04,7.5,3.89,10,7,2.66-1.61,5.88,1.41,6,4l5.35,1.05c12.07,8.78,24.56,16.99,38.79,21.8l1.86,2.14c4.52-.16,9.91.53,12,5,2.06-.22,4.21-.44,6.22.16,36.16,10.8,70.27,20.65,108.74,16.36l6.04,1.48,4.05-2.11c25.66-2.83,50.22-10.11,74.49-18.37l2.45.48c.48-1,1.82-1.34,4-1l2.93-3.38c17.99-6.85,34.88-16.19,50.67-28.01l4.41-.61c2.73-4.06,5.73-6.06,9-6,1.15-3.71,4.56-7.65,9-7-1.57-2.05-.51-3.18,2-2,1.11-1.86,2.8-3.51,5-4,.89-2.04,1.85-4.13,3.43-5.74,24.58-24.93,43.13-44.58,60.47-75.66,9.93-17.79,18.39-37.58,23-56.68l2.1-.92c.28-3.05.52-6.04.72-8.97-2.45,4.9-5.36,9.55-8.72,13.97.3,1.13.66,2.44.18,3.58-1.61,3.86-7.1,9.94-10.13,13.23-16.66,18.08-40.32,29.82-65.05,30.23l-3-2.03c-1.97,1.66-5.78,2.47-6-1-8.69,2.8-21.24-2.19-29.84-5.91-18.26-7.91-32.22-19.92-43.82-35.97-.34-.47-.4-1.14-.46-1.87s.01-1.49.12-2.25c-7.9-6.09-11.37-17.43-13.79-27.03-6.06-24.1-2.46-50.12,8.73-72.19,2.78-5.48,12.98-22.85,17.85-24.4.7-.22,1.45-.32,2.2-.38-1-3.7,6.47-10.26,10-9-.89-2.81.76-3.86,3-2,.21-.76.45-1.51.81-2.19,1.98-3.73,14.69-9.13,19.39-10.94,19.14-7.37,40.03-7.77,59.33-.78,7.33,2.66,16.76,6.13,20.47,12.9,2.43-1.63,3.6-.88,3,2,1.39-.95,2.28-.91,2.87.56,2.17,1.5,21.34-41.21,21.95-47.85.85-9.17-16.1-38.77-20.81-46.58C497.19,57.23,340.96,1.15,213.66,56.82c-4.26,3.11-8.93,4.77-14,5-.46,2.78-2.79,3.78-7,3l-3.29,3.89c-10.74,5.56-20.87,12.16-30.76,19.09l-4.95,1.03-2.72,4.4c-17.87,12.82-34.38,27.47-48.66,44.22l-4.62,2.38-2.61,6.4c-21.67,27.31-38.13,58.57-48.56,91.84l-3.83,5.76.44,5.81c-6.93,24.95-10.04,50.78-9.56,76.66l-1.88,5.53,2.59,12.62c1.75,22.29,6.73,44.16,13.13,65.55.72,2.46-.85,3.07-4.72,1.84Z" style="fill: #f2fdfd;"/>
  <path d="M510.46,277.12c92.31-7.85,99.21,144.25,7.74,147.74-87.68,3.35-95.89-140.24-7.74-147.74Z" style="fill: #f2fdfd;"/>
  <path d="M31.66,331.82l2.27.39c6.24,20.03,15.47,39.25,34.54,50.61l1.19,3c3.56,1.52,4.65,5.75,0,5-7.03.39-16.01-7.8-21.12-12.99-2.42-2.45-4.62-5.08-6.58-7.9,4.93,28.95,12.34,62.45,39.82,78.19l2.89,3.69c2.27-2.01,4.69-1,5,2,.71.41,3.19-.97,3.3-1.13-4.72-9.51-9.5-20.78-11.38-31.42-.12-.67.02-1.4.21-2.15.19-.79.51-1.55.87-2.3.59-5.46,4.96-.28,6,3l2.87,3.33c6.38,23.65,18.66,45.22,32.29,65.35,3.35,2.84,4.97,5.94,4.84,9.32,4.9.63,4.96,9.38,3,12l1.45.76c2.08,10.16,5.74,19.89,9.55,29.24,3.42.16,7.66,6.85,7,10,2.14,3.71,2.45,5.27-2,3-43.24-32.79-77.54-76.32-97.01-127.25-.36-.56-2.35-1.56-2.99-1.75,3.1.4,1.92-.91,1.32-2.81-.48-1.51-2.17-7.75-2.48-8.04-.15-.14-2.89-.84-3.84-1.14,2.28-.14,3.5,1.1,2.6-2.09-7.9-28.05-12.76-48.27-13.6-77.91Z" style="fill: #342824;"/>
  <path d="M213.66,56.82c-.5-2.3,1.13-2.16,2.61-2.84,29.8-13.72,82.22-22.66,114.88-21.15,106.91,4.94,213.32,74.88,255.36,173.64,1.48,3.48,5.06,10.46,5.22,13.86s-2.86,10.52-4.06,14.01c-4.69,13.66-12.12,25.92-19.04,38.48-2.4.7-2.98-2.28-3.98-2.99l-.69-2.06c18.53-40.12,17.78-89.03-23.43-114.43-71.67-44.19-170.7,15.51-184.64,93.3l-2.25,2.19c-2.11,4.23-2.08,18.26,0,23,2,.24,1.91,1.23,0,2-.56,2.84-4.52,1.77-6,0-.88,3.5-12.89-.51-12-4-1.41-.57-3.41-1.24-6-2-.1.9-.45.85-1,0-5.98-1.18-7.65-3.18-5-6l-1.34-1.64c1.33-6.85,1.78-13.79,1.33-20.82l2.01-1.54c-2.87-6.22-1.64-9.55,3.67-10,14.63-9.32,18.83-29.39-4.73-26.03-5.02,4.72-8,5.06-8.94,1.03l-.88-.56c.63-2.96.25-5.44-1.12-7.44-3.27-4.44-5.08-14.1-5.57-20.03l1.57-2.97c-.74-2.43-1.4-4.43-2-6l-2.31-1.83c-10.24-35.4-37.64-71.15-68.86-90.19l-.8-1.83c-7.27-4.04-14.51-8.29-21.72-12.74l-.32-2.42Z" style="fill: #f19b9e;"/>
  <path d="M561.66,267.82c-31.37-21.88-69.09-20.87-100,1-5.73-1.76-8.41-11.43-9.46-17.18-3.93-21.48,10.28-46.13,32.12-50.02.43-1.22,1.21-2.15,2.35-2.8-8.33-6.02-24.21,1.73-31.12,7.5-20.5,17.09-27.57,51.91-6.89,71.15l.02,2.36c-31.65,32.67-40.14,84.78-15,124l-1.92,1.05c-.83-.05-15.26-4.35-15.95-4.82-5.65-3.93-17.86-28.21-17.18-35.77,5.4-32.98-10.49-65.71-36.59-86.18l-1.36-3.28c-.59-.41-1.15-.84-1.62-1.36-2.38-2.66-2.02-14.98-1.77-19.29,2.46-42.43,36.62-82.96,74.23-100.17l2.16,1.81-1.67,3.79c-33.89,22.07-62.5,56.75-67.02,97.92-.71,6.43.19,19.83,7.53,10.45,3.2-69.6,72.78-129.41,142.63-110.87,6.3,4.27,15.73,5.92,11.34-4.44l1.19-1.84c9-.24,19.41,8.57,25.84,15.06,26.95,27.2,24.97,70.5,8.16,101.94Z" style="fill: #98ceef;"/>
  <path d="M353.66,248.82c1.04-12.17,6.77-25.58,11.87-35.85,28.18-56.75,103.96-95.22,164.97-67.29,50.56,23.15,56.27,73.18,36.66,120.09-.63,1.51-1.09,3.04-2.49,4.04-.96-.68-2.01-1.31-3-2-1.25-1.57-.63-2.86-.07-4.5,3.68-10.84,9.04-19.9,10.06-32.01,3.07-36.48-10.03-65.45-43.98-80.48l-3.02.9c-27.68-9.75-61.96-11.26-87.78,4.25l-3.2-.14c-2.18-.12-3.85.86-5.68,1.82-40.41,21.05-76.87,69.83-67.32,117.18,3.51,7.74,8.99,14.41,16.43,20.01,17.45,21.01,22.58,50.23,20.13,76.81-.23,2.44-.98,8.05-3.56,8.18-4,3.58-5.65,7.76-4.96,12.55l-1.04,2.45c.9.1.85.45,0,1-4.49,9.17-9.5,18.9-17,26.12l-3-.12c-1.5,2.54-3.5,4.54-6,6,.31.69.73,1.69.33,2.08-3.85,3.82-28.84,17.7-31.22,16.9-.43-.14-.78-.53-1.11-.98-2.08,2.07-12.27,1.94-12-2l1.85-2.25c80.45-18.07,87.96-139.97,6.88-163.09l-2.73-2.67c-5.91-2.26-8.38,1.57-9.61,6.83-7.21,10.56-15.13,20.63-23.75,30.22-2.21,3.32-3.8,7.03-4.64,10.95l1.3,2.02c-6.57,21.46-5.8,43.42.58,64.59-1.92,5.81-3.23,11.62-3.94,17.44,0,0,1.36,2.98,4.07,8.95.54,2.39-5.34,3.13-6,1-1.7,3.11-4.49-2.27-2-4l-1-.56c.51-3.11.18-5.6-1-7.44-1.5-.94-1.5-2.06,0-3,1.69-3.02,1.83-14.33,0-17l-1.04-.56c.48-3.29.16-5.77-.96-7.44-1.74-.63-1.79-1.48,0-2-1.72-8.52-1.73-17.49,0-26-1.91-.56-1.91-1.44,0-2,1.17-3.4,1.49-7.18.95-11.35l1.05-.65c.89-1.8,1.55-3.8,2-6-3.16-1.33-1.51-6.92,2-6,1.9-2.52,1.25-8.03-4-4,.69,2.48-.11,2.63-2,1-1.84,3.49-7.25,9.35-11,7-5.07,6-14.15,10.02-22,10-15.21,6.13-34.94,11.87-49.24,11.29l-1.76.71c-.56,1.92-1.44,1.91-2,0-12.01,1.84-25,1.86-37,0-.93-1.38-11.2-2.08-12.12.38,1.01,3.38-1.66,9.14-4.38,11.22-1.71,1.3-7.97,3.72-6.51-.6-2.75-.61-2.68-2.05,0-3l-.65-2.94c5.65-9.62,9.92-19.89,11.33-31.03l2.32-2.02c3.91-7.36,10.11-2.54,7.86,5.73l-2.04,10.88c22.19,3.14,44.59,2.94,67.18-.61l2.21-2.19c45.1-6.63,97.47-45.71,96.1-95.03l1.69-2.78c-.05-4.02,5.9-8.64,8-4,.93.55,1.6,1.89,2,4-.1,4.87.61,20.71-2,24-.96.95-2.23,3.34.54,4.65l4.46,1.35c.33.03.67-.02,1,0,1.59.56,3.59,1.23,6,2,1.37,1,9.85,3.76,12,4,2.41,1.85,4.41,1.85,6,0-.06-.65.02-1.34,0-2-1.83-6.49-2.01-16.59,0-23Z" style="fill: #2599d3;"/>
  <path d="M591.66,405.82l1.95-1.75c2.32-5.91,8.39-16.99,6.05-3.25-.52,7.81-7.55,24.89-10.82,32.68-17.49,41.67-44.44,76.8-78.18,106.32-2.2.56-3.83,2.11-5,4-.85.71-1.47,1.57-2,2-3.54,2.38-4.82-1.99-2-4l-.74-1.02c4.16-7.08,9.03-13.83,14.62-20.24.29-4.06,1.66-5.64,4.12-4.74.98-.83,1.29-2.6.93-5.3l1.07-.7c-2.28-1.86,1.01-9.21,4-8,.66-1.24,1.33-3.24,2-6,2.23-1.79,1.27-6.16-2-10-2.63,1.63-6.36-1.01-6-4-1.2-2.24-1.51-5.28-.93-9.12-.05,1.39-.41,1.09-1.07-.88-2.53,2.35-5.84-1.17-4-4-1.63-1.19-4.67-1.48-9.11-.88l-.89-1.12c-3.55-1.1-1.19-6.43,2-4,2.43-3.3,5.1-6.64,8-10-.87-.28-.86-.62,0-1,31.31.98,62.61-18.35,78-45Z" style="fill: #f24058;"/>
  <path d="M153.66,88.82c3.1-1.39,5.6-.4,7.52,2.3,1.34-3.16,4.65-5.85,6.19-1.83-2.74,6.97,1.33,12.41,7.57,15.44-3.06,3.75-7.18,6.94-12.38,9.57-3.43,4.1-6.57,8.52-9.44,13.26-5.21,3.77-7.65,5.69-10.26,11.93-6.54,6.29-11.85,13.57-16.79,21.24l-2.54,1.68c.3,3.97-2.52,11.8-6.96,9.58l-.04,4.59c-5.43,10.47-10.37,21.13-14.81,31.98l-1.06.26c.85.33.85.66,0,1,.42,2.74-7.01,3.31-8.66,2.49-5.03-2.49-4.67-28.78-4.18-33.61.51-5.09,6.73-38.31,10.42-37.82.13.02.39,1.73-.58-1.06,17.06-20.56,34.33-35.71,56-51Z" style="fill: #99ceef;"/>
  <path d="M215.66,417.82l1.1.43c5.66,1.1,13.25,4.44,16.16,10.4,2.73-1.73,4.97-2.01,6.74-.83,1.65-1.83,8.1-1.59,10,0,2.43-2.04,7.83,3.03,9.39,5.36.6,4.51,2.81,7.6,6.61,8.64,2.39-.73,4.39-1.4,6-2,.56-1.93,1.44-1.94,2,0,1.73.44,2.43.67.91.98,2.73-.43,3.53.04,5.09,2.02,2.56-1.54,5.8,2.73,4,5,.43,2.36,1.44,4.39,3.05,6.11-.24,2.75.08,4.71.95,5.89l1.02.28c-.6,3.7-.28,6.95.98,9.72,3.53,1.83,4.24,8.49,4.51,12.64.56,8.49.27,19.17-.46,27.67l-2.05,1.69c-.7,1.21-1.36,3.21-2,6,2.83,1.07,1.04,8.3-2,8-.43,2.3-1.09,4.3-2,6-1.15,3.09-2.49,6.42-4,10l.6,2.53-8.81,13.78c-2.17,3.95-4.77,5.85-7.8,5.68-.57,2.9-5.05,6.38-8,8-.5,2.36-1.62,3.66-4,4-2.46,2.38-5.12,4.38-8,6-.4,2.66-3.3,5.06-6,4-3.7,4.26-12.16,8.21-18,8-4.14-1.56-7.96-3.25-12-5-1.37-1.95.3-2.29,5-1l2.34-2.4c47.68-10.84,73.66-62.71,67.66-108.6l-2.06-1.85c-.16-6.67-.62-13.48-3.75-19.5l.82-2.66c-3.27-9.25-11.09-6.42-17.92-3.27-2.39.43-4.14-.83-5.29-2.83-6.49-19.83-19.31-10.94-30.64-.92-3.39,1.57-6.83.21-10.32-4.07-11.08-7.01-22.73,8.58-28.56,16.69-12.46,17.32-21.71,38.21-27.14,58.66l-2.12.75c-.96,5.66-1.45,11.38-1.49,17.18-5.6,5.05-7.61-7.53-7.64-11.49-.05-4.73,4.21-28.16,7.67-29.6.43-.18.93-.16,1.47-.09,8.14-17,21.27-40.13,37-56-.71-3.63,6.22-6.61,9.41-7.48,7.55-2.06,11.97.02,18.08,4.37,2.99-.53,4.49-2.49,4.51-5.89l-2.12.72c-9.9-6.12-23.27-5.25-34.45-3.97l-1.43-1.76.48-2.4c6.07-1.88,11.9-3.63,18.52-3.6.1-3.21,7.84-3.17,8,0Z" style="fill: #2998cf;"/>
  <path d="M97.66,139.82c3.24-.31,1.62.62.97,2.46-6.1,17.36-10.38,34.28-9,53.07.13,1.84,2.07,13.91,2.48,14.52,1.54,2.28,6.25-.04,8.56-.05l1.8.53c4.31-.87,6.04-.05,5.2,2.47-2.16,3.55-7.37,2.51-10,1l-1.55,2.33c-19.05,4.76-35.68,16.04-47.12,31.67-4.42,4.35-6.41.99-6.33-3.99,11.13-38.34,29.52-73.31,55-104Z" style="fill: #6ca9d8;"/>
  <path d="M226.66,428.82c3.66,4.06-.87,7.51-4.69,7.84-1.62.14-3.7-3.32-6.47-4.18-8.62-2.68-14.34.35-20.84,5.34-15.73,16.08-27.21,36.02-37,56-3.67,9.25-10.45,29.52-5.23,38.72.47.83.86,2.86,2.23,1.28,1-1.16,1.44-13.86,3.01-16l1.73,3.28c-3.86,32.6,24.92,58.9,54.57,64.36l.69,2.37c-1.54.21-4.13-.73-5,1-16.64-7.2-30.98-15.24-46-25,.04-.46.12-.9.32-1.28.08-.16.43-.13.41-.13-1.88.1-14.99-15.07-16.75-18.23-7.65-13.68-14.45-36.15-13.79-52.18.46-11.34,3.32-27.86,11.82-35.18-.11-6.75,6.78-12.91,12-17.5,5.12-4.5,13.38-11.41,20-10.5l.84,2.02c-12.64,11.02-20.27,25.91-23.76,42.17l-2.08,1.31c.76.1,1.82.27,2,.87.99,3.4-.02,15.85-2,18.63,5.88-17.44,17.64-38.56,31.88-54.25,9.96-10.98,24.39-19.92,37.66-9.04,1.65-1.58,3.13-2.14,4.46-1.7Z" style="fill: #6baad7;"/>
  <path d="M433.66,403.82c16.46,25.69,43.58,42.56,74,46l.87,1.08c-3.43,6.42-7.28,11.32-14.27,5.61-3.24.16-5.77-.41-7.6-1.69-6.4,3.27-12.67,7.41-18.76,11.59-1.85,1.01-3.42.54-4.31-1.46-3.19-20.17-15.79-38.15-31.92-50.13l-2.39.82c-6.52-4.56-15.51-9.77-22.61-9.82l-2.42-.58c-2.14-4.59-4.65-8.97-7.55-13.15l.96-2.27c-3.87.19-6.06-4.71-4-8-1.9-.42-1.44-.89,0-2,.1-3.26,1.82-8.06,1.99-11.51,1.16-24.22-3.34-51.72-19.01-70.97-3.47-4.27-12.8-11.19-14.85-15.14-1.65-3.18-.62-4.85-1.13-7.38,22.9,15.99,39.67,44.18,41.04,72.46.55,11.29-3.78,18.18,1.79,29.21,1.48,2.92,11.29,20.28,12.63,21.37,3.45,2.82,13.25,2.25,17.54,5.96Z" style="fill: #6faad7;"/>
  <path d="M213.66,56.82c.51.13,7.43,4.23,9.16,5.12,3.78,1.94,7.83,5.7,11.11,7.61,1.07.62,2.99-.12,3.6.44.37.34-.13,1.95.36,2.54.34.41,6.06,2.76,7.37,3.72,23.41,17.18,58.71,61.23,62.4,89.57.74,2.43,1.4,4.43,2,6,.99,7.42,3.36,15.56,4,23,2.63,4.55,1.99,18.71-6,13l-2.37-.39c-1.06-5.33-1.98-10.68-2.77-16.03-1.4-1.97-14.69,15.41-15.92,17.03-4.15,5.49-10.03,6.71-11.05-1.45-1.38-11.09,16.27-21.36,24.63-26-3.3-36.23-26.25-65.42-52.51-89.15-3.17.8-10.52-4.61-10-8-7.14-3.37-14.15-7.22-21.03-11.53l-.97-2.47c-5.18-2.3-10.55-4.18-16.09-5.66l.09-2.34c4-1.81,9.18-6.27,14-5Z" style="fill: #249ad5;"/>
  <path d="M345.66,567.82c3.01-3.63,30.4-7.17,32-5.48.69.73.6,2.59,0,3.48.28.67.52,1.35.63,2.05,1.2,7.6-22.78,35.35-29.61,40.86-1.83,1.48-3.81,2.26-6.02,3.09-42.41,4.21-81.23-3.02-121-18l15.74-7.79c.73-.24,1.5-.32,2.26-.21,1.17.45,1.96.11,2.53-1.31,34.33,15.46,72.31,1.68,101.38-18.2l2.09,1.51Z" style="fill: #31211e;"/>
  <path d="M378.66,565.82c3.56-4.25,11.77-2.81,11.73,4.09,3.65,1.24,5.12,3.16,5.58,6.91,3.26.81,5.63,2.48,7.08,5,4.1,1.4,6.3,3.4,6.6,6,2.5.44,4.5,1.11,6,2,.47-2.66,7.06-.4,8,2-29.2,11.35-49.43,16.87-81,20,13.84-13.46,28.01-27.47,35-46,.31-.85.65-.85,1,0Z" style="fill: #f24057;"/>
  <path d="M97.66,213.82c6.31-1.52,4.04,6.31,0,8,1.59,2.33.55,3.24-2,2l-1.71,2.7c-58.73,11.34-68.51,92.64-38.55,135.07l.26,3.23c3.9,5.14,8.78,9.61,14.65,13.4,1.04,1.12,1.5,2.32,1.35,3.6,2.81.96,1.88,3.96-1,4-.29.67-.63.65-1,0-13.52-7.43-25.25-21.17-31.19-35.31l-6.81-18.69c-.89-31.5,2.25-57.86,11-88,1.81.49,1.31,4.86,3.49,3.99.88-.35,9.62-11.44,11.93-13.54,9.74-8.86,26.69-18.35,39.58-20.45Z" style="fill: #2799d1;"/>
  <path d="M215.66,69.82c7.63,2.44,15.72,9.14,22,14-.32.77-.7,1.67-1.49,2.08-2.21,1.15-11.03-1.92-13.51-3.08-14.87-4.38-25.88-6.54-41.04-1.6-7.78,2.54-15.66,9.8-9.55,17.79,6.48,3.12,9.28,6.36,2.33,11.56-30.37,23.68-49.74,59.4-67.53,93.64-.97,1.87-2.62,3.29-4.21,4.62-.56,1.92-1.44,1.91-2,0,.48-2.33,3.09-10.44,4.23-12.27,2.71-4.39,1.95-2.19,4.24-7.74,2.83-6.85,5.5-6.93,5.6-15.54.02-1.51-1.98-6.22,1.43-5.44,1.36.31.93,4.59,3.54,2.53,3.09-2.44,1.15-7.53,2.18-9.33.24-.42,2.04-.73,2.78-1.67,3.5-4.44,6.21-9.84,10.02-14.03,1.89-2.08,6.6-4.4,8.05-6.95,1.26-2.21,1.04-6.19,2.87-7.88,1.26-1.17,3.26-.68,4.8-1.43,5.98-2.92,3.06-6.37,4.75-9.27.8-1.36,3.46-1.32,4.29-2.2,1.06-1.12.66-3.49,1.49-4.52.53-.66,11.07-7.02,12.75-7.26-.5-2.16-3.27-1.78-4.56-2.93s-1.19-2.87-2.03-3.97-3.2-1.8-3.4-2.65c-.19-.8,3.39-5.03,1.99-7.44-3.58,1.66-4.03,10.8-8.72,8.25-4.99-2.72,2.5-2.03,2.73-2.26.63-4.63-3.06-4.24-6.01-6,12.73-8.99,24.75-17.08,39-24,7.6-.94,16.22,1.49,23,5Z" style="fill: #9acff0;"/>
  <path d="M486.66,198.82c-.28.87-.62.86-1,0-11.88.22-20.12,8.06-28,16l.39,2.89c-10.07,13.44-13.23,38.87.39,50.72l.22,2.39c-3.21,2.49-7.17,6.07-10,9-7.19-3.94-12.33-16-13.72-23.78-3.92-22.02,8.47-47.92,29.04-57.4,4.97-2.29,21.72-7.95,22.68.18Z" style="fill: #6ea9d8;"/>
  <path d="M513.66,450.82v1c-2.84,3.39-5.51,6.72-8,10-.08.24-1.99.28-2,4,2.03.53,2.75,1.16.79,1.1,3.94-.67,7.01-.37,9.21.9,1.05,1.83,2.17,2.95,4,4l1,.4c-.45,4.83-.12,8.03,1,9.6,2.15,1.1,4.04,2.6,6,4,2.44,2.69,4.88,6.92,2,10-.63,2.06-1.3,4.06-2,6-.94.51-3.06,7.49-4,8-.99.9-1.3,2.67-.93,5.3l-1.07.7c-2.35,1.98-1.28,3.72-2.36,5.68-1.2,2.18-7.93,8.78-10.12,12.38-.67,1.1-.17,3.06-.75,3.77-.22.27-4.41.8-4.78,4.17-.29,2.67-1.06,2.44-2,0l-1.63-1.66c4.87-8.56,9.75-17.01,14.63-25.34l-.91-2.34c5.1-7.27,7.74-14.82,7.91-22.66-3.28,2.92-11.83,1.01-10.91-4.58,2.44-7.03,2.18-10.23-.79-9.58-5.72,1.59-9.77.88-12.15-2.16-.76-11.57-1.8-13.08-11.91-8.15l-23.87,13.41c-1.56.89-2.45.83-3.38-.94l-.75-1.11c3.12-3.23,4.72-7.21,4.86-11.75,2.52-.95,3.5-.03,4.74,1.88,8.06-4.13,15.11-8.14,21.16-12.02,10.28-2.46,12.05,2.95,13.5,2.97.55,0,6.64-6.63,7.5-7.97,1.71.19,5.34.98,6,1Z" style="fill: #2898d1;"/>
  <path d="M512.66,514.82c1.44,1.4.24,2.68-.45,4.02-2.84,5.52-12.28,19.9-12.55,22.98.54.16.97.35,1.05.64.36,1.35-5.74,10.57-7.05,7.36-1.69,3.07-4.36,6.07-8,9-19.89,13.82-35.4,22.78-58,32-4.9.88-27.29-8.02-27.21-12.81.01-.89,1.14-1.26,2.21-1.19l3.23-.15c16.62,12.56,34.65,5.14,50.77-3.85l1.6-3.48c16.19-10.57,29.52-24.59,40.86-40.14l3.54-1.39,7.27-12.05c.73-.76,1.65-1.05,2.73-.95Z" style="fill: #1f72b2;"/>
  <path d="M143.66,453.82c1.92-4.38,4.19-.9,2,3-14.42,25.03-11.85,54.88.14,80.36,5.24,11.13,11.11,15.04,18.28,23.72.78.94,3.02,3.57-.42,2.92-2.11-1.37-3.93-2.57-6-4-1.81-2.3-4.42-4.75-7.85-7.35.42-.85.37-1.73-.15-2.65-2.37-3-5.05-6.72-7-10-3.9-9.8-7.86-20.24-9.96-30.85l-1.04.85c-.96-4.22-.86-7.98-3-12-1.71-4.74-1.38-8.08,1-10,2.85-2.91,3.83-6.96,2.93-12.17,2.11-1.59,2.78-3.9,2.01-6.94l1.06-.89c-1.99-1.82-.92-6,2-6,2.13-2.24,3.46-4.91,4-8,.25-2.71,1.25-2.62,2,0Z" style="fill: #1c72b4;"/>
  <path d="M461.66,268.82c-.98.69-2.06,1.27-3,2-9.99-4.73-11.77-20.59-10.98-30.48.85-10.63,3.93-17.24,9.98-25.52,7.82-7.84,16.13-15.89,28-16h1c.79,6.73-4.27,4.41-9.29,6.21-7.65,2.73-17.55,15.08-20.47,22.53-5.79,14.81-4.05,28.27,4.76,41.26Z" style="fill: #2998ce;"/>
  <path d="M599.66,400.82c.13-1.92,1-5.9-2-5.01,1.11,3.47-1.25,3.53-1.91,4.84-.79,1.56-.37,4.92-4.09,5.17,10.29-17.82,15.09-40.95,13.99-61.49-.22-4.17-2.53-12.36-1.99-15.93.49-3.26,5.54-6.92,6.01-10.58,2.21.55,1.89,2.72,2.04,4.44.71,8.31-1.04,24.31-2.06,33.05-1.73,14.9-5.08,31.47-9.99,45.51Z" style="fill: #d85264;"/>
  <path d="M397.66,571.82c3.08-1.43,6.44,1.91,5,5,.06.08-1.28.62.39,1.98,6.54,5.35,16.31,10.58,24.61,12.02-1.86.76-3.2.69-4,1l-1.33-.03c-1.18-3.16-3.78-1.8-6.67-1.97-1.09-.94-2.92-1.25-5.5-.94l-.5-1.06c-.32-.47-6.71-3.83-7.71-4.3-.51-.24-1.84-2.86-2.61-3.37-1.16-.78-3.68-.03-5.33-2.67-.58-.92-.12-2.41-.69-3.32-1.07-1.73-4.33-2.4-4.67-3.01-.63-1.11-.61-4.82-1.08-5.22-.74-.63-6.94.21-8.9-.1-2.97-2.59-1.62-5.89,2-7-1.46-2.02-.49-3.11,2-3-.39-2.71.14-3.89,1.59-3.53,3.5,7.29,7.97,13.8,13.41,19.53Z" style="fill: #3094ce;"/>
  <path d="M199.66,61.82c4.94,3.65,11.96,2.84,16,8-7.11-2.27-15.98-2.19-23-5,2.32-1.12,4.7-1.95,7-3Z" style="fill: #6daed9;"/>
  <path d="M501.66,541.82c.32.41-.29,3.75,2,4-3.04,2.47-5.87,4.66-9,7-2.77.84-3.3-1.46-1-3,3.68-.67.99-.71,2.3-3.72.58-1.33,3.41-1.07,3.7-4.28.55.11,1.87-.16,2,0Z" style="fill: #cb5c72;"/>
  <path d="M493.66,549.82l1,3c-3.36,2.52-6.1,3.99-9,6,.87-2.7,5.67-8.58,8-9Z" style="fill: #9b7ca3;"/>
  <path d="M149.66,549.82c1.75,2.21,4.49,4.84,6.5,7.01.47.51,3.51,2.54,1.5,2.99-3.51-2.42-6.51-4.35-10-7,2.67.47,2.04-.63,2-3Z" style="fill: #283b55;"/>
  <path d="M510.66,539.82c-1.92,1.68-3.49,2.74-5,4,.4-2.27,2.65-4.68,5-4Z" style="fill: #cb5c72;"/>
  <path d="M514.45,291.12c71.56-5.23,80.37,111.87,10.69,117.69-73.42,6.14-82.47-112.45-10.69-117.69Z" style="fill: #05080b;"/>
  <path d="M69.66,390.82c2.08-2.04,3.48-.81,3,2-1.06,1.23-.76,1.83.92,1.8,1.3,5.05,3.21,9.85,5.7,14.41l1.38-.21c3.73-.12,4.61,6.47,2,8,2.1,10.13,4.74,19.35,8.52,28.98,1.14,2.9,3.5,6.14,4.47,8.53,1.37,3.36-5.49-.35-5.99-.52-7.75-18.35-8.93-19.9-3.54-4.64l-1.46,2.64c-32.23-14.71-40.45-54.44-45.55-86.96-.16-1.05-1.34-3.26.53-3.03,5.99,13.03,17.66,22.16,30.01,28.99Z" style="fill: #ac816b;"/>
  <path d="M87.66,412.82c.25-.77.63-1.92,1.24-1.95,2.46-.12,21.05.46,21.71,1.33l1.05,9.62c2.45.06,2.57,1.62.37,4.67l.63,5.33,2.11,2.59c2.19,17.33,6.33,35.71,14.82,50.96l.07,2.45c-.45,3.13,1.15,7.63-1,10-1.61-3.03-4.91-5.84-6.83-8.67-13.84-20.42-27.7-45.07-33.17-69.33-3.13-3.06-3.46-5.39-1-7Z" style="fill: #eef3e8;"/>
  <path d="M90.66,459.82c4.78,13.98,12.02,27.05,19.8,39.57l1.2,5.43c-.23,4.27.85,8.73.5,13-10.1-11.4-19.7-23.22-27.92-36.08-5.26-8.24-16.87-26.84-19.57-35.44-.16-.51-.28-1.63.48-1.47,7.63,7.69,15.65,11.14,25.51,14.99Z" style="fill: #ac806c;"/>
  <path d="M90.66,459.82c2.3.9,6.41,1,8.47,3.03,1.04,1.03,14.38,23.88,14.8,25.29.92,3.08-2.02,12.15-2.27,16.69-9.33-13.65-16.64-28.26-23.01-43.49-1.44-3.43-.09-1.06,2.01-1.51Z" style="fill: #c7a683;"/>
  <path d="M70.66,385.82c4.45-.03,9.01,1.3,13.68,4,5.35,1.08,9.79,3.08,13.32,6,4.93,1.24,9.81,1.09,14.78.2,3.49-.14,5.21.39,3.22,3.8.51,2.34-2.27,4.55-4,2l-1.67,2.24c-7.5.11-14.87-1.03-22.11-3.41,1.33,4.63,1.26,8.68-.22,12.16.39,2.3.48,4.7,1,7l-5.51-3.98-.49.98c-.53-2.57-.91-5.66-2-8-2.14-2.95-3.12-6.89-2.94-11.82-3.16-.67-4.85-2.06-5.06-4.18-1.02-.49-1.98-1.44-3-2,1.82-.87.95-3.6,0-5,.25.14.74-.14,1,0Z" style="fill: #5a5148;"/>
  <path d="M117.66,498.82l1.94,1.84c-1.43,7.13-.03,12.9,4.21,17.31-1.61-5.38-2.6-10.9-2.97-16.55l1.82-1.6c4.99,8.01,4.38,16.82,7.72,25.78l5.79,14.21c-4.28-4.68-14.61-10.14-17.28-15.72s-2.97-18.96-1.22-25.28Z" style="fill: #a58172;"/>
  <path d="M122.66,499.82l1.46,12.03,4.04,13.96c-2.25-2.94-9.39-9.59-10.29-12.71-.85-2.93-.3-10.7-.21-14.29.04-1.48-.49-3.94.5-5,1.45,2,3.21,3.91,4.5,6Z" style="fill: #c7a787;"/>
  <path d="M84.66,451.82c-1.4-7.25-4.9-14.25-5.89-21.6-.2-1.47-.99-6.79.88-7.39,2.36,9.9,6.99,19.26,10.81,28.7.69,1.72,2.62,2.54-.8,2.29-2.1-.69-3.05-1.11-5-2Z" style="fill: #c9a688;"/>
  <path d="M142.66,539.82c-6.78-11.42-8.13-17.41-11-30-.5-4.06,2.44-.38,2.76.74,2.74,9.44,3.58,15.65,7.72,25.28.45,1.04,2.58,3.34.51,3.99Z" style="fill: #3b8fbf;"/>
  <path d="M315.66,202.82c4.17,3.08,5.15-2.33,8.52-2.98,1.71-.33,11.3-.41,12.78-.05.92.23,6.16,6.96,6.48,8.77.57,3.29-1.03,7.89-2.76,10.77-1.16,1.93-8.52,8.87-10.31,10.18-1.18.86-4.16.81-4.59,1.43-.5.72-.09,5.29-.12,6.88-1.7-.93-1.51-2.56-2-4l-2.46-.97c-3.97-7.95-9.68-21.99-5.54-30.03Z" style="fill: #f29cc7;"/>
  <path d="M313.66,194.82c3.26-.99,1.93,4.97,2,8,.36,16.57,3.14,16.78,8,31-2.79-1.73-6.66,3.7-8,4l-2.35-1.84-6.13-18.97c-1.43-2.96-1.28-5.35.47-7.2v-2c7.56.98,6.45-7.7,6-13Z" style="fill: #ba9bdc;"/>
  <path d="M353.66,248.82c-.59,6.89-.2,15.94,0,23-3.03.56-1.92-1.53-2-3.45-.2-5.18-.17-10.9,0-16.09.06-1.93-1.02-4.01,2-3.45Z" style="fill: #c3a4bd;"/>
  <path d="M353.66,273.82c.12,1.27,1.13,2.6,1,3.99-.47.43-8.27-1.84-7-3.99,1.93.21,4.04-.15,6,0Z" style="fill: #c3a4bd;"/>
  <path d="M323.66,261.82c-1.18,5.69,2.13,2.98,5,6-3.28-.28-8.32-.04-7.05-5.36.25-1.04,1.97-.54,2.05-.64Z" style="fill: #929bbe;"/>
  <path d="M307.66,165.82c3.4-.82,1.63,3.22,2,6-3.39.82-1.64-3.21-2-6Z" style="fill: #7791bc;"/>
  <path d="M329.66,267.82c1.66.11,3.94-.39,5.32-.01,1.12.31.59,1.95.68,2.01-2.76-.37-6.81,1.4-6-2Z" style="fill: #929bbe;"/>
  <path d="M527.66,150.82c3.43,4.9,2.99,10.85-3.74,11.83-2.54.37-6.81-2.92-9.81-3.77-56.43-16.03-118.62,26.64-134.37,80.53-1.6,5.47-2.73,11.57-3.81,17.19-.77,4.05-.11,13.08-3.71,15.28-6.45,3.94-9.32-1.87-9.46-7.67-.62-25.57,15.68-56.81,32.09-75.74,11.48-13.24,25.99-22.74,38.81-32.65,22.78-17.61,68.79-16.16,94-5Z" style="fill: #b0dbf6;"/>
  <path d="M471.93,245.58c.42.96,3.61,1.24,2.74,6.69-1.52,9.58-14.11.34-15.81-7.16-1.94-8.57,3.95-31.46,15.27-30.31,2.63.27,4.67,3.97,4.51,6.44-.21,3.36-4.37,5.63-5.73,9.33-1.13,3.07-2.17,12.27-.99,15Z" style="fill: #b1dbf5;"/>
  <path d="M307.66,207.82c.47.73,2.03.78,2.01,1.5-.03,1.03-1.34.25-2.01.5l-.56,2.74c-12.98,7.72-10.72,28.17,7.21,23.4l1.35,1.85c6.89,48.58-55.36,97.12-100,100-18.31,4.1-34.1-1.5-49.97-10.24-3.03-1.67-10.33-6.65-10.03-9.76-2.12-.48-2.46-1.14-1-2l1.31-2.55c6.97-2.65,12.65-7.73,16.87-13.8l2.83-.65c1.3-2.99,1.69-6.2.93-9.38l1.07-.62.85-3.38c10.88-10.37,20.86-21.47,29.95-33.28,22.07-35.52,44.94-73.14,49.04-115.77,1.43-14.82,1.53-31.34-9.91-41.81l.07-2.75c4.55,2.76,9.62,7.32,13.53,10.97,18.86,17.65,31.3,36.81,37.98,62.02.79,3,3.99,15.24,3.05,17.01-.67,1.25-14.45,8.36-17.54,11.5-1.25,1.27-6.11,7.99-6.55,9.44-.77,2.54-1.5,9.12,2.87,7.9,4.38-1.22,14.71-20.75,22.14-21.86,2.57.53,2.33,15.6,4.52,19Z" style="fill: #98ceef;"/>
  <path d="M323.66,275.82c67.78,13.87,82.44,107.62,32.01,149.51-10.11,8.4-24.81,17.22-38.01,18.49l-1.26,1.81c-4.07-.09-7.43-7.55-8.92-10.91-12.07.51-16.39-2.89-14.76-15.2-2.39-.5-4.07-1.4-5.06-2.7-5.56-1.86-6.69-8.21-5.94-13.45.43-2.99,3.8-9.54,3.85-12.03.09-4.51-4.46-16.37-4.95-22.98-.8-10.78.44-34.91,5.04-44.54.72-3.94,2.38-7.61,4.61-10.92,8.54-9.54,16.42-19.53,23.65-29.98,1.37-6.8,4.62-9.16,9.75-7.1Z" style="fill: #98ceef;"/>
  <path d="M264.66,327.82l1.23,3.52c-3.77,17.8-3.42,36.73,3.34,53.78l-.57,3.7c.08.98-.13,1.87-.67,2.68-2.17,3.3-33.52,16.4-39.18,17.89-5.51,1.45-9.6,2.4-15.15.43-9.99.15-19.99,1.15-30,3-7.97,1.14-14.77,1.3-22.69-.33-6.38-1.32-15.77-3.34-19.31-8.67-6.46,1.26.81-10.21,4-10l-.66-3.26c6.26-11.86,5.65-23.9,4.59-36.76,12.61-.18,25.22-.62,37.84-1.33,4.86-1.38,9.94-2.26,15.23-2.64l1.42-1.34c13.36-1.83,26.22-5.39,38.58-10.66,7.31-3.14,14.88-6.45,22-10Z" style="fill: #f4e1ab;"/>
  <path d="M95.66,223.82l1.48,2.74c-11.89,32.31-21.73,95.34,30.29,91.25l6.22,2.02c1.61-2.84,7.55-3.05,9,0,2.48.34,2.13.92,0,2-2.27,16.03-5.46,22.49-13,36l-2.04,1.54c-18.05-11.24-44.44-4.53-51.67,16.26l-2.29,1.2c-.62,1.27-1.29.94-2-1-5.37,1.85-13.09-6.42-16-11-24.26-24.74-22.79-82.62-5.39-110.89,11.79-19.14,25.46-23.3,45.39-30.11Z" style="fill: #99ceef;"/>
  <path d="M129.66,357.82c-.3.53.3,2.49,0,3l1.15,1.96c-1.49,3.3-8.79,13.03-12.15,13.04.67,3.24-1.09,5.14-4.25,7.04-7.78,4.67-31.33,1.27-38.93-3.1l-1.83-2.94c2.76-16.5,23.85-26.78,39.42-24.91,6.08.73,10.87,4.69,16.58,5.91Z" style="fill: #acd8f8;"/>
  <path d="M143.66,313.82c1.35-6.49,8.08-4.68,7.85,1.61,1.8.23,3.18,1.02,4.15,2.39,1.52.35,8.86,6.78,11.31,8.19,15.21,8.8,31,12.95,48.69,11.81-22.73,5.57-47.02,7-70,1.99,2.05-6.5,3.61-13.09,3.01-20l-6,2c.09-.64-.07-1.35,0-2-2.79-1.14-1.83-5.68,1-6Z" style="fill: #6eaad9;"/>
  <path d="M272.66,334.82c-2.14,18.13-3.59,35.29,1.46,53.19-.29,2.2-4.66,3.48-5.46.81-8.56-18.4-8.86-41.62-4-61,3.74-1.87,7.67-5.45,11-7,2.91,1.87.35,13.18-3,14Z" style="fill: #dabf92;"/>
  <path d="M377.66,417.82l.77,2.25c-2.61,4.05-13.39,17.32-17.61,17.99l-2.16-1.25c-2.48,3.52-5.14,4.76-7.96,3.73-10.79,6.53-22.13,10.61-34.04,12.27-1.84,2.15-2.76,1.72-2-1-2.22-1.32-4.39-2.47-6.5-3.43-.73-3.73-2.56-6.66-5.49-8.77-10.24-.5-14.64-4.58-15.86-14.6-5.19-1.78-8.24-4.18-9.15-7.2-1.96-2.49-1.96-3.83,0-4,.32-2.66,1.24-2.54,2,0,.26,5.82.86,2.86,2,4,2.18.05,2.53.44,1.05,1.17,7.27-1.22,10.05-1.68,8.86,6.87,2.44,7.27,5.58,9.18,13.6,8.61l2.39,1c3.16,9.68,13.55,13.88,22.1,10.35.85-.43,2.59-.76,4.84-1.91,5.84-2.99,11.93-6.55,18.01-10,2.55-1.45,7.48-5.37,9.16-6.1,2.4-1.68,4.4-3.68,6-6,7.57-5.86,11.49-13.77,16.3-21.69.37-.6,3.22-2.79,3.7-4.31.47.29.91.6,1.23,1,2.22,2.72-8.69,17.92-11.23,21Z" style="fill: #a28570;"/>
  <path d="M147.66,349.82c1.24.22,2.34.42,1.26,1.05,12.58.25,28.19.33,38.98-.35l1.76-.71c.67-.01,1.33.02,2,0,2.61-1.57,8.5-1.75,11,0-16.77,4.89-34.6,5.12-52,5,3.67,14.4,1.42,25.93-5,39l-2.14.45c-1.46,3.24-6.38,9.7-6.86,3.55-.42-4.26,4.05-12.3,8-14,2.51-8.73,3.8-17.12,1-26-8.02-.18-7.31-13.63,2-8Z" style="fill: #ac8564;"/>
  <path d="M129.66,360.82c4,4.06,8.76-6.18,9.76-8.77.49-1.27.03-4,.24-4.23.32-.35,8.09-.05,9.54,0,1.92.07,4.01-1.02,3.45,2-1.03,1.52-4,1.6-5,0-1.25.05-5.8-.21-6.01,0-1.79,1.85,3.01,6.21,4.01,8,1.65,6.88,3.2,16.23-1,22l-2.2-.65c-1.66-5.16-5.08-9.54-8.56-13.6l-7.22,9.26c-2.64,3.81-11.36,7.88-8.03.99,3.06-3.59,8.68-11.05,11-15Z" style="fill: #69abd6;"/>
  <path d="M277.66,319.82c4.06-4.74,7.06.55,4,4-1.98,2.23-1.64,5.29-2,6-.49,2.31-1.16,4.31-2,6-1.16,3.34-1.47,7.13-.95,11.35l-1.05.65c0,.67,0,1.33,0,2-.22,1.77-.58,2.19-1.07,1.26l-.05,10.86c-.68,6.14-.31,10.77,1.12,13.88,0,.67-.01,1.33,0,2,.86,2.12,1.53,4.78,2,8,1.85,3.48,1.73,8.47,0,12-1.65,2.03-1.83,10.61,0,13,1.63-.18,1.47,2.55,0,3v4h-2c-.99-.17-2.12-.38-2.72-1.16-3.29-4.3-3.65-20.28.72-24.84-1.32-.57-1.18-2.1.42-4.59-4.01-17.13-4.48-34.6-1.42-52.41l3-14c.64-.3,1.05-.85,2-1Z" style="fill: #a88569;"/>
  <path d="M323.66,275.82c-6.82-1.61-5.66,3.97-8.17,8.33-8,13.88-23.24,25.9-29.83,39.67-.71-13.44,11.35-20.67,18.44-30.06,2.08-2.76,6.06-8.37,7.77-11.23,3.8-6.34-.01-9.04,10.31-7.68,1.62.21,1.39.95,1.48.97Z" style="fill: #68abd9;"/>
  <path d="M287.66,416.82c10.93-.51,5.68,4.55,7.02,11.48,1.27,6.54,11.58,3.23,14.04,4.96,1.12.79,1.16,7.07,6.01,10.03,1.08.66,2.29.28,2.93.53,4.34,1.73,6.88,2.72,12,2-.09.05.4,1.72-.66,2.01-1.34.36-10.15.3-11.9.07s-1.16-1.51-2.26-1.99c-.72-.31-2,.11-2.84-.43-2.65-1.72-1.91-4.3-2.66-5.34-4.49-6.27-7.3-3.23-12.95-4.36-.3-.06-4.24-4.01-4.41-4.27-.48-.75-.19-2.19-.66-3.36-.14-.34-1.47-.36-1.63-1.03-.4-1.66.36-6.92-.03-7.3-.44-.43-5.76.44-7.34.02-1.11-.29-.53-1.89-.66-2.02,2.04,1.04,5.13-.96,6-1Z" style="fill: #3d96ba;"/>
  <path d="M397.66,389.82c-.13,2.89-1.13,3.89-3,3-3.02,2.6-1.18-.15-.82.33.6.79-3.56,10.29-4.56,12.19l1.38,2.48c.86.23.83.56,0,1,3.09,2.53.2,5.53-3,3-.38,1.59-1.47,2.1-3.28,1.55-2.16,3.39-4.4,4.87-6.72,4.45,2.96-8.44,9.19-12.65,10-22,.03-.33-.03-.67,0-1l1.03-2.59c-.42-4.45,0-9.66,4.97-10.41.35,2.62,2.65,5.74,4,8Z" style="fill: #8a6347;"/>
  <path d="M242.66,337.82c-12.59,5.42-25.99,10.96-40,12-3.58.27-7.38-.09-11,0-.56-3.03,1.53-1.93,3.45-2,5.36-.2,14.99-.86,19.86-2.02,4.87-1.17,10.62-2.8,16.01-3.99.4-.09,2.36-1.3,6-2,.32-.06,2.21-3.68,5.68-1.99Z" style="fill: #958c7a;"/>
  <path d="M152.66,349.82c12.31-.17,24.69.25,37,0,.56,3.02-1.53,1.94-3.45,2-11.23.38-23.88.44-35.09,0-1.93-.08-4.01,1.03-3.45-2,1.66-.07,3.34.02,5,0Z" style="fill: #958c7a;"/>
  <path d="M275.66,349.82c-.11,8.64-.1,17.36,0,26-3.02.56-1.94-1.53-2-3.45-.21-6.14-.24-12.96,0-19.09.08-1.93-1.03-4.01,2-3.45Z" style="fill: #688f9e;"/>
  <path d="M393.66,379.82c-.02.64-.08,1.39,0,2-.33,1.39-3.93,4.39-3.99,4.69-.54,2.64,1.45,6.89-2.01,8.31.52-6.75-1.93-11.83,6-15Z" style="fill: #6e8b9d;"/>
  <path d="M275.66,377.82c3.27-.99,1.93,4.97,2,8,.92.12,1.75-.53,2.02.6.57,2.44.08,9.86-.02,12.95-.06,1.93,1.02,4.01-2,3.45-1.46-1.67-1.56-3.41,0-5-.03-3.99.1-8.02,0-12-.46-.06-1.89.16-2,0-.26-.35.03-6.48,0-8.01Z" style="fill: #688f9e;"/>
  <path d="M277.66,319.82c.72-2.92,2.93-4.74,6-4-.32,2.21.53,5.38.02,7.35-.29,1.13-1.92.54-2.02.66v-4.01c-1.28.12-2.77-.19-4,0Z" style="fill: #6a9098;"/>
  <path d="M277.66,397.82c.01,1.67,0,3.33,0,5,0,1,0,2,0,3,1.57.57,1.69,4.49,0,5-3.03.56-1.92-1.53-2-3.45s-.07-4.09,0-6.09-1.02-4.01,2-3.45Z" style="fill: #a28570;"/>
  <path d="M279.66,329.82c-.47,3.92,1.72,5.46-2,6-.05,2.07.36,11.53,0,12.01-.12.16-1.44-.1-2,0,.02-2.03-.36-11.53,0-12.01.12-.16,1.54.07,2,0,.18-7.06,1.28-4.6,2-6Z" style="fill: #688f9e;"/>
  <path d="M367.66,421.82c-1.08,7.42-3.05,4.72-6,6,.08-1.22,3.32-4.97,4.28-5.7.67-.51,1.56-.18,1.72-.3Z" style="fill: #6f8d98;"/>
  <path d="M277.66,405.82c3.32-.97,1.86,4.94,2,8h-2v-8Z" style="fill: #688f9e;"/>
  <path d="M513.66,451.82c.89,3.86-4.72,8.22-8,10,.05-.15-1.2-1.11,0-3.24.57-1.02,6.31-6.31,8-6.76Z" style="fill: #88769c;"/>
  <path d="M525.66,485.82c.61.43,3.69,1.38,3.95,2.73.21,1.07.26,6.99.04,7.28-.12.15-1.54-.07-2,0,0,1.58.35,4.2.06,5.42s-1.64.36-2.06.58c.47-3.92-1.72-5.46,2-6,0-1.62.34-3.88-.02-5.29-.15-.59-3.4-1.48-1.98-4.71Z" style="fill: #b55f86;"/>
  <path d="M503.66,465.82c2.77.43,6.96-.62,9.41-.05,1.24.28.35,1.64.59,2.05-1.86-.36-9.33.51-10.01,0-.11-.08,0-1.58,0-2Z" style="fill: #b0608a;"/>
  <path d="M517.66,471.82c.41.24,1.77-.65,2.05.59.56,2.45-.49,6.64-.05,9.41-.42-.22-1.75.62-2.05-.62-.58-2.44.48-6.62.05-9.38Z" style="fill: #a16f94;"/>
  <path d="M521.66,509.82c-.28,1.45.52,5.1-.11,5.93-.3.4-1.69-.1-1.89.07.27-1.65-.4-3.98-.06-5.42.29-1.2,1.64-.36,2.06-.58Z" style="fill: #7f799d;"/>
  <path d="M102.66,208.82c8.35-7.99,21.72.87,20.9,11.61,9.81,1.33,16.33,3.9,15.93,15.31,14.77,4.6,13.91,17.21,12.55,29.86.65,3.03.53,5.77-.38,8.22.68,1.3,1.35,2.63,2,4,.85,3.43.52,6.1-1,8-.8,2.78-2.25,2.71-3,0-2.96-2.84-4.14-10.52-4.65-15.04-.45-3.96-.42-6.98.56-10.85.63-7.08-1.09-16.92-9.83-17.12l-1.58-1.24c-1.19-11.34-3.44-13.03-14.63-14.6-2.05-6.66-5.67-10.66-10.87-12.02l-.99-2.12c-2.6-2.57-7.4,1.02-7-3,.03-.33-.06-.69,0-1,.67-.01,1.33.02,2,0Z" style="fill: #8cbee5;"/>
  <path d="M157.66,517.82c.59-5.88,5.6-18.58,7.98-24.52,5.92-14.77,25.09-52.05,41.76-55.28,9.26-1.8,12.4,6.79,15.76,6.83,2.63.03,12.22-13.5,24.94-11.96,6.42.78,8.38,12.42,11.53,14.48,1.94,1.27,5.59-2.03,8.61-2.47,6.8-.99,10.06,1.04,11.42,7.91l-2.29.17c-4.2-6.18-8.78-1.15-7.05,4.82,11.4,32.59.4,68.63-22.01,93.53-15.78,17.54-38.35,32.47-56.9,9.81-11.86-8.13-8.82,6.41.69,12.78,32.04,21.46,61.92-11.9,77.17-37.96,10.31-17.61,15.28-35.33,13.48-56.1l1.9-3.06c1.66,1.04,1,3.8,1.02,5.49.21,17.06.51,30.44-5.25,46.78-9.69,27.5-35.98,54.72-65.76,58.74l-20.32-7.18c-25.75-15.02-39.85-31.39-36.68-62.82Z" style="fill: #98ceef;"/>
  <path d="M284.66,476.82c.47,13.53.66,26.75-3.95,39.55-12.09,33.57-52.04,87.69-91.78,57.75-5.68-4.28-12.91-18.2-1.01-17.08,4.44.42,8.87,7.73,12.83,10.2,23.66,14.79,52.89-21.79,62.09-40.74,9.08-18.69,12.08-37.28,8.57-57.92-1.22-7.2-7.37-15.38.26-20.07,2.93-1.8,6.55,1.89,7.99,4.32,4.66,7.89,4.7,15.28,5,24Z" style="fill: #afdbf6;"/>
  <path d="M380.66,492.82c2.26-4.73,15.69,4.1,12,8,4.42,1.35,3.92,7.07,2,11,2.14,2.3-2.05,8.11-5,8-1.25,2.15-2.58,4.15-4,6l1.17,1.76c-1.97,2.93-4.36,5.48-7.16,7.66.13,3.69-6.59,10.67-10,8.58-.86,2.18-3.28,5.03-6,6,4.21.63,1.02,3.83-2.42,4.47l-.59,1.83c-4.28,4.07-9.81,8.67-14.99,11.71-4.52.72-10.76,6.69-15.33,9.17-25.09,13.65-50.13,20.12-78.71,13.36-3.33-.79-9.75-4.22-11.97-4.53,2.96.8,1.47-1.93,2.2-2.75.2-.22,2.97-1,3.8-1.25,2.71-1.78,5.38-3.78,8-6,1.77-1.19,2.75-2.37,4-4,2.78-1.89,5.4-4.05,7.86-6.49l1.14.49c2.84-.17,2.84,1.83,0,6,.87.25.84.59,0,1l-.35,3.03-8.92,8.32c-.1,1.03,18.77,2.53,20.51,1.14,2.22-4.9,5.14-9.06,8.76-12.49-1.02-2.82,2.98-7.95,6-7,16.35-23.9,32.99-44.34,56.14-61.9,9.3-7.06,20.04-12.99,31.86-11.1Z" style="fill: #875f4e;"/>
  <path d="M215.66,417.82c2.29-3.93,9.76.06,13.07,2.12,1.89,2.12,3.46,2.86,5.93,3.88.1-3.62,8.41-5.09,11.63-5,8.53.24,15.35,7.25,18.48,14.76,15.02-6.39,25.14,5.76,29.36,18.94,3.6-3.3,6.78-4.54,9.54-3.7.28-.87.62-.86,1,0,1.87.36,3.36.72,3,3,.89.29.87.62,0,1l.12,2.1c-3.88,1.96-7.86,4.19-11,7.2,7.16,27.92,4.68,56.51-8.69,83.19-2.93,5.85-13.93,24.64-19.23,26.19-.71.21-1.45.28-2.2.32-.14-2.68.91-3.21,0-6-2.56.82-2.78-.04-1-2,8.73-8.09,9.62-13.7,16-22,1.39-3.53,2.73-6.86,4-10,.98-1.8,1.65-3.8,2-6,.29-.58,1.71-7.42,2-8,.5-2.43,1.17-4.43,2-6,.25-9.57,1.24-25.69.08-34.57-.2-1.49-1.82-1.93-2.08-7.43-.78-3.03-1.44-6.36-2-10l-1.05-.91c.12-3.64-.86-7.34-2.95-11.09-.23-.22-3.83-4.73-4-5-1.95-1.21-3.95-2.21-6-3-.66-.02-1.34-.02-2,0-2.41.73-4.41,1.39-6,2-1.13.06-2.47,2.06-4.59.11-.2-.18-2.61-3.73-3.07-4.45-.6-.95-.11-2.56-.66-3.34-1.65-2.33-5.71-4.65-7.68-6.31-1.17-1.32-8.08-1.87-10,0-.84.61-6.66,3.22-7.43,2.99-1.3-.39-1.36-2.87-2.23-3.88-1.51-1.75-7.82-6.78-9.04-7.08-2.07-.52-5.92,1.52-5.3-2.03Z" style="fill: #ac8560;"/>
  <path d="M226.66,428.82c-4.96,8.18-7.86.29-12.71-.79-14.26-3.18-26.18,10.21-34.26,20.32-10.48,13.11-17.77,28.15-24.76,43.28-.66,1.42.6,2.71-2.27,2.19v-19.5c0-7.63,8.82-26.92,13.57-33.43l11.43-12.07c-.22-3.45,8.75-8.1,11-5,8.86-1.89,31.57-2.12,38,5Z" style="fill: #98cff1;"/>
  <path d="M213.66,410.82c2.83-.72,9.09-1.4,8,3,4.94-.54,14.53,4.85,13,10-5.8,2.03-3.06-.96-8.11-3.4-2.86-1.38-7.65-2.34-10.89-2.6-2.27-.19-5.77-.24-8,0-25.63,1.25-48.25,16.24-64,36-.56-.09-1.41-.05-2,0-.38,2.54-1.71,5.21-4,8-.51,1.63-.95,4.83-2,6-.92.91-1.25,2.81-1,5.68-2.19,1.37-2.86,3.86-2.01,7.47l-1,.86c-4.32,2.24-7.21-8.87-3-10-3.8-6.66,4.36-17.81,8.69-23.71,8.59-11.69,19.93-22.26,32.98-28.68l-.67-2.61v-2.46c7.91-.9,15.91-1.41,24-1.54,4.5-3.86,14.02-2.8,20-2Z" style="fill: #875e4b;"/>
  <path d="M207.66,417.82c-5.74.61-13.91,3.16-19,6-3.99.85-7.47,3.35-11,5-12.96,6.07-24.7,15.34-32,28-.15-.76.25-2.7,0-3-.15-.18-1.4.1-2,0-.54-2.35.04-2.65,1.1-4.25,5.28-7.93,23.72-22.04,31.74-25.65,1.69-.76,9.26-3.95,9.83-4.08,2.05-.46,4.57.42,6.64-.04.79-.17.26-1.82,2.11-2.06,3.79-.49,8.61.5,12.57.08Z" style="fill: #2a6e9f;"/>
  <path d="M194.66,437.82c1.75.06-.76,2.97-1,3.21-15.75,16.09-25.71,32.77-34.76,53.54l-1.24-.76c7.02-17.7,21.87-44.39,37-56Z" style="fill: #207ab7;"/>
  <path d="M265.66,563.82c.25.68.78,1.33,1,2-1.1.59-4.92,5.56-5.28,5.7-1.46.59-3.09.05-3.72.3-.18,1.01.29,3.7,0,4.01-.23.25-3.02-.19-4.01,0-.51.71-3.27,5.29-4.29,5.7-1.55.62-2.87.05-3.71.3-.03-2.63,5.34-5.51,8-6,1.37-1.91.33-2.57,4-4,.61-3.42,5.91-6.06,8-8Z" style="fill: #446e8d;"/>
  <path d="M283.66,447.82c.15.14,1.53-.38,1.86.12.48.7-.17,2.38.19,3.1.49.98,1.76.81,1.92,1.48.46,1.91-.04,5.07.03,7.31-3.94-.56-1.14-1.6-2.02-5.31-.09-.37-3.76-2.7-1.98-6.69Z" style="fill: #7b8e93;"/>
  <path d="M287.66,525.82c-.47,3.99,1.72,5.39-2,6-.17,2.58-.86,7.85-2.23,9.78-.39.55-1.69.12-1.77.22-1.44-4.6,1.21-5.2,1.97-6.77,1.05-2.17-1.77-2.61,2.03-3.23.44-6.82,1.13-4.28,2-6Z" style="fill: #6d8e9d;"/>
  <path d="M239.66,427.82c.12-.09-.52-1.76.63-2.05,1.06-.26,8.78-.09,9.2.27.47.4.05,1.67.17,1.78h-10Z" style="fill: #709091;"/>
  <path d="M287.66,459.82c.46.06,1.88-.16,2,0,.31.41-.08,8.17,0,10.01-3.38.98-1.9-6.72-2-10Z" style="fill: #678fa1;"/>
  <path d="M273.66,439.82c1.37.05,5.45-.32,5.94.09.45.38-.2,2.49.06,2.91-1.56,3.14-1.87-.72-2.74-.99-1.92-.6-3.88,1.26-3.26-2.01Z" style="fill: #678fa1;"/>
  <path d="M291.66,511.82c-.18,7.08-1.3,4.63-2,6,.37-2.76-1.4-6.81,2-6Z" style="fill: #6b9196;"/>
  <path d="M271.66,439.82c.85,3.22-3.18,1.85-6,2-.86-3.16,3.19-1.91,6-2Z" style="fill: #678fa1;"/>
  <path d="M107.66,212.82c4.9.4,7.66,2.21,10.21,6.29,1.01,1.6,1.8,5.65,2.74,6.26,1.47.96,6.33.25,10.27,2.51,5.07,2.92,4.2,12.02,4.87,12.85.19.24,4.31.69,5.88,1.64,4.24,2.6,6.22,10.16,6.1,14.97-.22,8.28-2.37,5.88-.17,16.08.87,4.04,1.91,8.25,2.1,12.4,4.96,2.31-4.72,7.05-7,4-2,0-3.23-2.05-3.69-6.17l-7.18,7.75c-3.8,5.39-14.51,8.49-9.78.25,5.87-7.01,26.74-33.73,14.96-41.05-9.17-2.11-11.44-2.93-9.32-13.03-1.99-3.63-6.29-4.89-12.92-3.8l-1.83-1.43c-1.05-8.82-5.1-10.38-13.25-8.93l-2-1.61c.04-2.58,4.48-8.69,0-8,3.13-.51,6.84-1.26,10-1Z" style="fill: #42aedc;"/>
  <path d="M397.66,389.82c4.09,6.85,5.79,8.27,9,16,2.84-.7,5.77,4.43,3,6,3.37,4.35,4.56,13,5.32,19.22,3.15,25.82-4.07,55.51-17.32,76.78,1.39,1.9-.58,4.93-3,4-.08-2.81-.93-8.64-2-11,.85-.54,2.09-3.16,3.72-7.85,5.69-9.68,15.05-50.51,9.58-60.77-2.55-4.78-12.91-13.86-17.86-17.14l-.44-2.23c-.87-.28-.86-.62,0-1,2.65-.08,1.97-.72,3-3,2.14-1.65,4.68-.9,7.61,2.24,5.41,6.48,5.93,5.43,1.56-3.13-2.93-4.5-4.32-8.87-4.17-13.11-2.01.28-2.43-.56-1-2,1.35-.07.27-4.05,3-3Z" style="fill: #ac8564;"/>
  <path d="M431.66,414.82c14.19,10.93,28.63,27.47,29.18,46.16l-2.18.84c-1.35,1.04-1.69.37-1-2l-2.38-1.34c-1.98-8.03-5.19-15.59-9.62-22.66-3.07-.69-5.82-2.84-8.23-6.47-3.32-2.18-5.24-4.69-5.77-7.53-6.33-1.1-11-3.77-14-8-3.34.86-4.46.66-3.36-.6l-1.64.6c-.86.66-1.86,0-3-2-.63-1.97-2.09-3.8-3-6-.69-4.29,7.06-.5,8.51-.01,7.57,2.56,10.29,4.96,16.49,9.01Z" style="fill: #2a96cc;"/>
  <path d="M431.66,414.82c1.01.66,2.72.95,4.33,2.16,15.33,11.53,27.43,29.48,29.68,48.84,1.4,1.17,12.49-7.86,15.31-9.18,1.86-.87,3.71-1.35,5.68-1.82,2.39.76-.82,1.6-1.52,1.96-6.03,3.12-11.82,6.73-17.21,10.86-2.7.99-4.22-.46-6.27-1.82.16,3.75-2.71,9.13-5.01,12,1.34,2.63.61,3.4-2,2-3.84,1.59-2.23-2.44-.84-4.83,3.31-3.98,3.95-7.33,3.67-12.43l1.17-.75c1.54-6.27-3.66-16.94-6.83-22.67-2.55-4.6-6.34-8.42-9.2-12.8l-10.97-11.53Z" style="fill: #1973b9;"/>
  <path d="M222.66,82.82l-1.9,2.11c-11.74,1.57-22.64,7.39-32.32,13.83,10.82-.11,21.54,1.24,32.16,4.04,13.94,1.73,10.9-12.94,1.92-17.63l.13-2.34c5.77-.12,9.83,1.44,15,1,3.74,2.89,6.44,4.53,10,8,7.98,7.8,11.12,13.79,12.04,25.46,3.19,40.61-18.11,85.48-39.2,118.92-8.97,14.22-19.62,28.59-31.32,41.63-3.48,3.88-7.54,7.61-11.51,10.99-1.85-2.44-4.09-4.67-6.73-6.68-3.83-8.15-.12-9.16,7.01-9.99l6.21-5.04c1.24-4.26,3.75-7.18,7.73-3.42,8.24-2.76,7.66-4.34-1.73-4.74-2.53,3.57-6.31,5.29-11.34,5.15.23,8.95-6.91,8.36-9.16,1.71,2.85-5.53,14.13-12.55,20.27-14.53l3.73.53q1.71,1.92,0,0c-.34-3.11,2.99-4.47,5-2,2.17,2.48,9.61,4.41,3.22,1.2l-.22-2.2c-.57-1.69.12-3.54,2.09-5.56-2.1-4.18-17.51,5.12-20.34,7.03-10.42,7.02-20.26,15.31-29.41,23.83l-2.34-.3c-5.09-10.59,4.51-24.05-6.53-32.97-2.92-2.36-7.12-2.79-7.41-3.09-.38-.38,0-7.42-2.02-10.48-3.39-5.12-13.5-3.93-14.04-4.46-.28-.27.26-5.24-.75-7.75-.61-1.52-4.98-5.87-6.5-6.49-4.46-1.83-7.44.14-11.75.24,8.55-20,19.48-39.67,32.17-57.38,7.06-9.86,18.84-24.75,27.14-33.32,2.19-2.26,14.17-10.72,14.65-12.87.51-2.27-4.58-3.15-6-4.89-5.81-7.15-1.66-14.78,5.37-18.72,13.32-7.45,34.11-7.38,46.68,1.18Z" style="fill: #acd8f7;"/>
  <path d="M315.66,609.81c7.32-6.02,13.04-12.72,17.18-21.31,1.32-2.74,1.98-7.89,3.54-9.73,6.6-7.78,24.35-5.47,33.27-9.95,1.59,1.94-14.53,22.77-17.02,25.47-4.58,4.98-16.01,15.86-22.47,16.52-5.11.52-9.51-1.1-14.5-1Z" style="fill: #ab816c;"/>
  <path d="M233.66,594.81c-1.64-1.75,4.24-3.85,5.33-3.76,3.04.24,12.07,4.5,16.61,5.33,25.47,4.65,51.72-1.13,74.05-13.56-3.39,11.58-13.5,22.14-24.58,27-24.15-3.2-48.81-5.54-71.41-15.02Z" style="fill: #a9816f;"/>
  <path d="M399.66,507.82c.48.05.92.14,1.26.38,1.66,1.19-15.07,28.72-18.45,31.52,3.44,10.32,8.7,19.89,15.17,28.64l.02,3.46c-2.59-2.11-4.98-3.48-7.43-7.07-1.92-2.82-3.97-8.56-5.56-10.44-.89-1.06-1.78.96-2.01,1.51l-2.2-.61-2.64-10.33-15.2,14.52,16.34-2.35,1.7,1.77c-1.23,1.66-1.82,4.89-2,7-.36-.06-.87.11-1,0-1.16-1.03,1.25-2.64-5.49-1.98-7.55.74-18.74,2.75-26.51,3.98l8.32-9.68c5.67,1.07,5.31-5.9,5.69-6.32s3.45.37,4,0c.22-.15-.2-1.87,0-2,2.54-1.54,4.54-3.54,6-6,2.2-1.72,5.62-3.81,7.68-6.31.59-.72.05-2.65.64-3.37,2.28-2.8,6.32-4.53,7.68-8.31,1.23-2.18,2.57-4.18,4-6,.92-2.17,3.51-5.18,5-8,.64-1.2,2.4-2.79,3-4,1.35-1.72,2.01-1.72,2,0Z" style="fill: #236faa;"/>
  <path d="M409.66,587.82c2.77.36,6.81-1.4,6,2-1.33-.08-5.62.28-6.01,0-.23-.17.24-1.66,0-2Z" style="fill: #b75f86;"/>
  <path d="M97.66,221.82c2.83-.8,8.85-1.19,11.58-.07,5.49,2.25,4.52,9.1,5.52,9.97,1.38,1.2,12.46-2.55,14.7,4.81.99,3.28-1.41,7.84-.38,9.32,1.9,2.73,10.57-.37,13.11,8.94,2.26,8.27-6.66,21.89-11.31,28.75-1.45,2.14-9.48,10.66-8.21,12.28,6.74-3.97,11.91-9.73,16.49-15.98,1.15-.04,3.31,8.59,3.5,9.98,2.67.41,2.53,1.19,0,2-.05,1.88-1.99,2.65-5.83,2.32-12.07,11.08-12.92,18.83-2.55,23.27l-.63,2.41c-6.33-.43-12.22.46-17.5.02-18.12-1.52-28.76-18.84-30.38-35.64-1.18-12.25,1.57-29.27,4.37-41.39,1.49-6.46,4.39-12.45,5.51-18.99.57-.19,1.51-1.86,2-2Z" style="fill: #aed9f7;"/>
  <path d="M72.66,381.82l2.58-.72c13.45,7.68,28.57,9.46,43.82,8.85,3.4,1.06,3.72,6.08.61,7.87-.6,2.62-1.17,2.55-2,0-2.94-2-7-2.34-12.17-1l-7.83-1c-9.99-2.2-18.4-5.48-27-10l1-4c.33-.87.66-.86,1,0Z" style="fill: #45aed7;"/>
  <path d="M71.66,375.82c2.09,1.74,4.35,4.27,1,6-.23-.16-.78.16-1,0-2.92-2.11-11.91-9.81-14.04-12.46-1.19-1.49-2.35-2.25-1.96-4.54,4.25,4.33,10.61,8.3,16,11Z" style="fill: #64add9;"/>
  <path d="M485.66,198.82l-13.33,5.17-14.67,10.83c6.16-8.43,16.51-19.39,28-16Z" style="fill: #1b75b5;"/>
  <path d="M417.66,413.82c5.08,2.1,9.58,4.78,14,8l-2,1.58c-13.27.66-1.27,10.27,3.73,13.9,4.23,6.83,7.58,14.24,10.06,22.22,7.2,2.41,7.19-3.38,5.79-8.84l-5.17-13,1.59-1.87c6.81,8.83,9.42,12.94,12,24,.37,6.76-2.48,13.06-5.38,18.99.38,1.2,1.17,1.54,2.38,1.01.56-.38,1.54-1.43,2-2,8.87-2.21,27.94-18.29,36.47-17.05,4.16.61,4.4,9.58,4.66,12.91,1.23,2.02,10.9-1.35,13.92.6,2.55,1.64-2.38,11.21-.63,13.61.9,1.23,5.73.81,8.58,1.94l.95.94c-4.02,13.12-10.52,25.52-17.95,37.06-14.76,19.81-25.11,31.25-46,45-30.36,20.2-72.1-6.53-67.43-42,19.94-34.18,37.64-76.45,24.98-116.51-.15-1.45,1-1.61,3.45-.49Z" style="fill: #98ceef;"/>
  <path d="M519.66,489.82c.51.2,1.8-.6,2.05.63.23,2.7-.45,5.24-1.11,7.81-1.35,5.27-5.07,11.93-7.94,16.56s-6.84,8.76-10,13l17-38Z" style="fill: #6cabdb;"/>
  <path d="M417.66,413.82c-3.3-.38-1.7.94-1.28,2.78,8.91,38.59-1.5,66.97-18.2,101.24-4.97,10.21-8.99,10.93-7.07,24.03,2.84,19.38,22.41,36.24,42.07,36.03,7.84-.08,15.91-3.41,23.48-5.08-.39.26-.91,1.76-2.01,2.44-17.94,11.15-33.68,15.27-51.99,1.56-1.84-2.31-2.72-3.15-5-5-7.2-9.96-14.03-20.3-17.04-32.46,6.32-9.1,13.23-17.91,18.26-27.86.7-1.38.47-3.04.77-3.68,7.73-19.55,14.92-37.85,15.92-59.56.51-11.07-.78-21.89-3.62-32.58l.71-1.86c-.84-3.54,2.64-.97,5,0Z" style="fill: #6eaada;"/>
  <path d="M135.66,467.82c-.23,1.99.42,4.44-.02,6.31-.2.83-1.82.28-2.06,2.12s1.11,13.08-3.92,11.57c-2.17-2.35-1.01-5.33,2-6,.37-2.23-.49-5.16.02-7.32.18-.76,1.8-.61,1.97-1.36.34-1.54-.5-4.34.18-5.2.35-.44,1.71.02,1.83-.12Z" style="fill: #44678d;"/>
  <path d="M141.66,453.82c.56,3.76-.01,7.34-4,8,1.07-3.44.81-2.36,1.96-4.77,1-2.09-1.72-2.9,2.04-3.23Z" style="fill: #56677b;"/>
  <path d="M382.66,555.82c-1.79,4.25-1.14,1.85-2,3l-24,3.5,22.5-21.5,3.5,15Z" style="fill: #6caadc;"/>
  <path d="M513.41,300.08c58.98-8.11,72.99,83.34,19.02,98.02-63.54,17.28-79.85-89.65-19.02-98.02Z" style="fill: #f2fefe;"/>
  <path d="M72.66,392.82c2.22,1.06,4.46,1.77,6.9,2.1.3,4.79,1.27,9.01,1.1,13.9-.04,1.15.5,3.4-.5,4-4.89-5.29-6.51-10.85-8.46-17.54-.53-1.82-2.38-2.75.96-2.45Z" style="fill: #ba9e8b;"/>
  <path d="M117.66,427.82l1.35,1.45,5.67,30.62c1.76,3.8,3.09,7.77,3.98,11.93-.18,3.74.02,7.32,3,10-.45,2.67-1.73,4.09-2,6-5.86-1.76-14.63-36.99-15.71-43.79-.64-4.02-1.22-8.13-1.29-12.21-2.93-7.62,3.67-15.36,5-4Z" style="fill: #ab8565;"/>
  <path d="M136.66,397.82c1.29,2.13,3.26-.98,3.93-1.8,1.93-2.37,2.3-7.13,5.07-2.2-1.02,2.08-4.69,7.23-4.79,7.67-.26,1.08.83,2.13.79,2.33,2.53,2.2,1.26,4.71-2,4-3.83,1.72-7.59,3.84-11.29,6.34-3.81.53-7.39,1.41-10.71,2.66l.99,10.45-.99.55c-.27-1.06-1.59-2.29-1.01-4.01-5.53.91-4.08,3.05-3.99,8.01-2.07-2.38-.66-6.82-1-10l-.64-8.02c-2.93-1.74-2.89-10.31.64-11.98.22-.04,3.59-1.73,4-2-.44-3.57.22-4.23,2-2l1.06.71c-2.55,4.99.91,13.09,1.94,9.29l1.06-2.05c5.2-.71,9.35-4.37,12.63-8.26l2.31.31Z" style="fill: #bca27f;"/>
  <path d="M111.66,401.82c-1.14,6.9.12,13.07,0,20-.2-1.89-1.98-5.09-1-8l-23-1c-.85-4.96-1.75-9.95-1.99-15,8.25,2.14,17.29,5.53,25.99,4Z" style="fill: #dadad9;"/>
  <path d="M97.66,395.82c5.26.91,14.74-1.24,19.35-.02,1.09.29.52,1.88.65,2.02.16.18,1.44-.12,2,0,2.86.51,3.03,8.4,1,10,.24.6,1.27,1.81,1,1.99-2.09,1.4-2.99-1.36-3.39-1.62-.88-.55-2.41-.06-2.67-.95-1.45-5.02,2.91-5.15,2.06-9.42-1.33-.42-1.07,1.39-2,2,1.21-5.86-6.9-1.98-9.49-2.01-2.85-.03-5.92-1.42-8.51-1.99Z" style="fill: #7aa2ae;"/>
  <path d="M307.66,209.82c1.31,9.9,6.61,18.21,8,28-1.77.4-11.39.32-13.26-.05-.36-.07-4.61-5.32-4.69-5.68-.4-1.82-.4-10.73,0-12.54s8.05-9.01,9.95-9.73Z" style="fill: #d0b7ec;"/>
  <path d="M273.99,176.48c-4.35-5.36-5.6-17.57-4.32-24.14.14-.72,3.86-6.11,4.19-6.3,7.07-4.13,19.39,8.05,20.53,15.53,1.87,12.36-11.35,26.06-20.4,14.9Z" style="fill: #b1dbf5;"/>
  <path d="M175.66,298.82c-4.96,7.85-12.17,14.36-21,17-3.02-.38-4.4-3.48-4.16-9.3-.53-5.63-1.13-16.96,2.16-20.7.42-4.73,15.25-5.46,18.43-3.52,6.37,3.87,7.09,10.03,4.57,16.52Z" style="fill: #c7c7f9;"/>
  <path d="M169.66,265.82c2.95.19,3.79,3.75,7,3-1.66-10.03,4.58-5.4,9.32-8.18,1.63-.95,2.12-3.37,3.27-3.66,1.5-.38,9.62,1.96,12.42.85,2.15,2.23-8.03,8.36-10.25,7.82-1.01-.24-2.08-2.08-3.23-1.84s-1.64,3.51-2.49,4.55c-.28.34-6.35,5.29-6.74,5.51-4.21,2.49-9.53-1.98-6.85,6,1.68,4.99,5.05,2.11,5.55,8.95.38,5.14.53,5.99-2,10,3.15-17.53-10.16-17.45-23-13-.05-2.14-1.12-4.1-1.02-6.27.14-.91,1.58-1.19,2.02-1.73l-.21-2.79c1.84-2.95,12.66-10.72,16.21-9.21Z" style="fill: #add8f8;"/>
  <path d="M152.66,285.82c.17,7.9-1.66,24.07,2,30,.39.63.63,1.36,1,2-1.31-.3-5.65.37-6,0-.66-.69,1.64-10.11-6-4l-1.96-1.84-.82-18.15,1.78-2.01c-.08-.65.09-1.35,0-2,2.08-1.13,4.73-1.48,6.73-2.32.49-.21.2-1.63.27-1.68.39-.28,2.26.26,3,0Z" style="fill: #a4ade7;"/>
  <path d="M255.66,269.82c-.7-.71-.37-7.13,3.48-5.99,4.46,1.32-.68,8.82-3.48,5.99Z" style="fill: #359dc5;"/>
  <path d="M274.66,265.82h-5.01c-1.26-6.11,6.11-6.99,5.01,0Z" style="fill: #4499c9;"/>
  <path d="M337.8,422.68c-.79-.81-.9-6.64-.13-8.06,1.15-2.11,6.09-3.69,7.68-5.11,17.02-15.1,23.44-43.17,21.29-65.18-.54-5.56-7.42-19.88-1-23.02,10.01-4.89,12.6,18.28,12.99,24.02,1.59,22.91-3.43,48.8-18.44,66.53-3.15,3.72-12.09,11.84-16.91,11.88-.62,0-5.29-.87-5.49-1.07Z" style="fill: #afdaf6;"/>
  <path d="M268.66,388.82c1.73,0,2.73,1.33,3,4,1.23,2.04.24,3.21-2,2-.49.85-1.01,1.68-1.64,2.4-4,4.62-37.39,17.73-43.51,17.18-.96-.09-1.9-.31-2.85-.58-3.21-1.87-2.92-3.02-8-3-.87-.28-.86-.62,0-1,16.21.3,41.07-12.99,55-21Z" style="fill: #aa855b;"/>
  <path d="M183.66,412.82c3.68-1.53,7.01-1.53,10,0-.19.02-1.13.91-2.42,1.04-7.21.72-15.33-2.02-21.58,2.96-.06,2.86-2.32,2.73-3,0-8.43,1.48-21.18-2.75-27-9,1.1-1.3,1.67-2.29,2-4,14.02,6.33,26.64,9.02,42,9Z" style="fill: #aa875b;"/>
  <path d="M213.66,409.82v1c-5.97.02-13.8,1.41-20,2-3.33,0-6.67,0-10,0,4.4-2.78,13.28-3.83,18.51-3.99,4.34-.13,7.6.92,11.49.99Z" style="fill: #dcbd95;"/>
  <path d="M85.34,238.14c4.1,4.48,2.64,10.51-1.63,14.24-7.96,6.97-11.22,8.16-16.07,18.93-7.37,16.39-7.97,27.3-4.71,44.74,1.2,6.44,7.09,15.97-1.9,20.64-10.22,5.3-13.62-7.31-15.27-14.47-4.72-20.48-3.7-40.38,5.35-59.45,3.35-7.05,14.98-21.71,21.63-25.37,3.7-2.04,9.53-2.62,12.6.74Z" style="fill: #aed9f7;"/>
  <path d="M144.66,379.82c.69.91.69,2.24,0,4-2.02,4.68-4.88,9.94-8,14-3.69,4.79-9.61,10-16,10-1.54-3.89-.87-6-1-10-.07-2,.06-4.01,0-6.01-5.09-.27-10.43.41-15.49-.01-9.78-.81-23.66-4.59-31.52-9.98l-1-6c.66.33,1.32.7,2,1,10.23,4.5,21.23,7.01,32.53,6.03,7.39-.64,8.02-1.82,12.47-7.03-.28,3.1.56,2.15,2.54,1.04,6-3.36,7.35-10.42,12.96-13.99,3.86,4.14,9.51,11.37,10.5,16.95Z" style="fill: #91bce0;"/>
  <path d="M142.66,291.82c.79,6.34,1.19,15.58,1,22-.06,1.95-.77,3.97-1,6-2.98-.14-6.03.2-9,0-1.25-2.65-6.93-2.99-7.83-5.67-3.51-10.39,5.25-14.94,10.04-22.12l6.8-.22Z" style="fill: #c7c9f8;"/>
  <path d="M57.94,344.11c6.73-5.56,19.18,3.99,12.3,12.78-4.83,6.17-16.7,1.66-16.38-4.4.05-.84,3.36-7.79,4.08-8.39Z" style="fill: #b1daf6;"/>
  <path d="M273.66,391.82c-.61,2.12-1.28,2.45-2,1-2.92.66-2.17-2.22-3-4,.95-.54,3.83-.37,4.08-1.64-4.44-17.46-3.87-34.89-.08-52.36,2.34,4.99-.7,12.16-.99,17.51-.26,4.86-.37,11.21-.05,16.03.35,5.38,4.1,16.81,3.98,20-.06,1.55-1.91,2.82-1.94,3.46Z" style="fill: #8d6446;"/>
  <path d="M316.66,452.82c11.51-1.38,22.44-5.29,32.8-11.73,4.74-3.29,7.94,1.83,4.2,4.73.88.27.87.61,0,1l-.39,2.59c-5.65,4.62-18.9,11.78-26.13,12.54-6.73.7-18.4-1.82-19.48-9.13-.17-.15.17-.84,0-1-1.36-5.83,4.08-2.28,7,0,.35.09.88.84,2,1Z" style="fill: #d9c08f;"/>
  <path d="M387.66,411.82v1c1.83,6.49-5.05,15.29-9.6,20.16-4.53,4.85-12.83,12.31-19.4,10.84-.33.87-.67.87-1,0-4.26-.65-3.4-5.92,1-7,7.59-2.8,14.42-13.31,19-19,.74-.92,5.55-6.29,5.96-6.46,1.05-.42,2.77.5,4.04.46Z" style="fill: #dabf90;"/>
  <path d="M277.66,417.82c3.92,4.64,8.76,4.63,10.1,6.4,2.21,2.93-.96,5.77,3.88,10.12s9.16,2.3,12.02,3.98c1.42.83,4.66,7.01,5.99,8.73l5.02,4.76c-3.15-.85-3.88-3.29-7,0-.42-.41-3.38-.22-3-3-1.56-.99-1.11-1.99-.18-3.08l-2.28-2.9c-10.34-2.51-15.93-5.5-18.08-16.6-3.51-1.18-11.1-4.38-8.46-8.42,0-3.91.73-1.51,2,0Z" style="fill: #8a6245;"/>
  <path d="M358.66,436.82c-3.42,1.2-1.13,4.32-1,7,2.01,2.75-3.1,5.55-4,2-.4-1.44-.47-5.7-2.44-4.95-12.03,4.57-19.85,14.06-34.56,11.95,9.82-2.13,18-5.16,27.02-9.48,6.45-3.1,8.65-4.18,14.98-6.52Z" style="fill: #8b6445;"/>
  <path d="M144.66,383.82c-.14-1.27.21-2.81,0-4,3.46-7.21,1.14-14.53,1-22,4.25,7.59,2.26,18.44-1,26Z" style="fill: #786864;"/>
  <path d="M275.66,417.82c3.89,7.83,8.49,5.65,9.83,7.17,1.11,1.27.81,8.74,5.66,12.84,6.01,5.08,11.63.11,15.06,7.03.9,1.82-.84,2.69-1.55,3.95h-1c-1.96,1.27-3.2.13-3.73-3.43-9.81-2.29-15.89-7.65-18.23-16.1-13.2-4.66-20.34-23.22-12.04-34.47.63-.35,1.32-1.46,2-2,.53-.42,1.4-.62,2-1-.2,3.6-.54,4.25-.95,7.55-.78,6.3.13,12.77,2.95,18.45Z" style="fill: #dcc093;"/>
  <path d="M395.66,394.82c4.77,9.22,9,17.58,10.99,28-4.99-4.85-9.04-11.65-15.99-14,.12-.27-.12-.7,0-1-.64-.51-1.18-1.13-1.44-1.91-.22-.66,4.36-12.84,6.44-11.09Z" style="fill: #f3e0ab;"/>
  <path d="M394.66,392.82c.33.67.66,1.34,1,2-2.82,3.52-3.29,8.58-5,13-7.15-1.12-2.75-2.82-1.12-6.62,1.29-3,2.74-6.1,3.13-9.39.71-.02,1.65,1.03,1.99,1.01Z" style="fill: #d8bc90;"/>
  <path d="M151.66,273.82c3.57-5.15,33.58-28.38,39.63-30.87,7.97-3.29,21.27-3.53,10.37,5.87.29,2.69-1.27,3-3,1-2.34.58-3.14,1.22-5,2-8.83,3.69-16.1,8.71-24,14-5.73,3.83-11.55,6.59-16,12-3.62.75-4-1.11-2-4Z" style="fill: #40afd8;"/>
  <path d="M353.66,446.82l2.85,2.51c4.4,14.83,7.64,31.07,5.14,46.18-28.97,16.24-49.8,42.82-68.99,70.31-1.98,2.35-3.66,4.99-6,7-2.53,5.36-16,8.58-19.82,4.28-1.48-1.67-1.93-2.29-.18-4.28-.06-.31.02-.68,0-1,22.52-22.16,34.31-57,31.98-88.48-.29-3.95-4.26-20.17-3.84-21.83.46-1.86,10.29-7.84,12.86-8.68,16.68,15.2,30.56,3.45,46-6Z" style="fill: #f4e1ac;"/>
  <path d="M285.67,586.82c-.92-1.17,2.8-6.61,3.58-7.91,10.21-17.17,24.26-36.55,37.9-51.1,11.05-11.79,44.21-43.73,60.54-26.51,5.53,5.83.38,10.54-3.19,15.86-22.82,34.01-57.52,62.75-98.82,69.67Z" style="fill: #d9bf8f;"/>
  <path d="M387.66,412.82c4.12,1.04,7.16,4.56,10.03,7.47,1.42,1.44,9.55,10.14,10.03,10.97,1.62,2.81,1.25,19.69.93,24.04-.99,13.33-6.89,32.91-13.51,44.54-.98,1.72.3,2.87-2.48.98-1.96-4.3-7.32-7.64-12-8-5.34-.77-10.72-.09-16.15,2.05-.73-.83-.62-1.68.15-2.55-.78-.09-1.94-.33-2-.88-.25-2.52-.28-19.48.67-20.46.32-.34.81-.52,1.33-.66-.78.08-1.99.09-2.15-.44-2.03-6.56-4.47-17.39-5.48-24.19l1.63-1.87c14.22-5.87,23.96-16.36,29-31Z" style="fill: #f4e1ab;"/>
  <path d="M380.66,492.82c-8.1-.63-18.3,4.19-25.3,8.2-24.78,14.19-44.45,43.13-62.7,64.8,11.67-19.07,27.51-40.38,44.53-54.97,3.4-2.91,22.15-15,22.73-16.27,1.46-3.15.13-18.78-.39-23.13-1.04-8.74-3.33-16.33-5.87-24.63-.09-.3.09-.69,0-1,1.88.4,3.15-1.66,4-2,.29-.11.72.12,1,0l6,26.5v22c0,2.34,5.74-.33,7.5-.5,2.37-.22,6.61-.68,8.5,1Z" style="fill: #aa845e;"/>
  <path d="M286.66,572.82c-1.36,2.87-5.65,12.36-7.49,14.01-3.55,3.19-20.26-.9-25.51-1.02-.51-1.97.81-1.93,1.68-2.81,3.35-3.39,7.78-6.86,11.32-10.18,1.58,8.02,15.18,2.67,20,0Z" style="fill: #dbbe92;"/>
  <path d="M369.66,543.82c.8,1.68-.89,5.07-2.3,5.68s-3.45.16-3.7.32c-.11-1.13,3.38-5.02,4.28-5.7.67-.5,1.56-.18,1.72-.3Z" style="fill: #54677c;"/>
  <path d="M389.66,519.82c-.71,1.66.55,5.41-4,6,.64-1.79-.34-5.67,4-6Z" style="fill: #646280;"/>
  <path d="M269.66,394.82c1.39.76-.9,2.45-1.06,4.44-.78,10.12-.17,18.36,8.14,24.97,1.71,1.36,5.81,2.76,6.4,3.6,1.52,2.14,1.08,6.01,4.61,9.39s12.11,5.42,13.64,6.87c.71.67.9,3.77,2.27,4.73l-10.99,7c-1.37-8.74-8.82-21.39-18.52-22.07-2.75-.19-10,2.36-10.43,2.04-.52-.38-3.09-7.41-7.04-10.5-8.71-6.82-13.02-4.63-22.02-1.48-3.07-4.59-8.35-7.29-13-10,16.49-4.57,33.01-10.74,48-19Z" style="fill: #f3e1ac;"/>
  <path d="M117.66,416.82l2.14.54,7.31,37.88c4.14-9.2,10.37-17.03,17.78-24.23,5.9-5.73,13.75-13.26,21.77-14.19h3l6.99,1.99c-5.2,2.03-11.38,5.38-15.9,8.6-11.74,8.38-31.38,29.6-32.09,44.41-2.78,1.81-1.61.94-2.27-1.22-4.51-14.73-5.14-28.85-8.73-42.78.28-4.5-1.09-6.73,0-11Z" style="fill: #dabf90;"/>
  <path d="M412.66,413.82c11.86,29.37-.11,67.07-13,94h-2c3.48-6.96,10.35-22.42,11.96-28.71,5.73-22.34,5.75-43.62.08-64.83-.23-.87.12-1.94-.04-2.46l1.99-1c-.31,1.31.65,2.09,1.01,3Z" style="fill: #3f7094;"/>
  <path d="M431.66,421.82c5.73,4.17,9.7,8.42,14,14,1.74,7.84,7.66,13.78,5.97,22.48-.8,4.11-6.86,4.8-9.57,2.63-1.5-1.2-5.78-16.91-8.98-21.02-2.43-3.14-10.64-7.5-11.27-11.81-.89-6.08,4.97-7.79,9.85-6.28Z" style="fill: #b0dbf6;"/>
  <path d="M458.66,461.82c.88,5.49,1.66,7.02-1.57,11.93-.65.99-7.61,6.29-2.43,6.07-.92.62-1.17,1.55-2.99.99-.83-.86,4.15-18.85,5.99-20.99.21.89.96,1.76,1,2Z" style="fill: #6aaadc;"/>
  <path d="M222.66,82.82c6.2,4.22,11.26,8.9,8.79,17.29-2.94,10.01-23.51,1.3-30.31.72-5.03-.43-10.41.28-15.48-.02-2.56-2.52,8.15-7.82,9.79-8.71,8.17-4.41,17.92-9.1,27.21-9.29Z" style="fill: #c2e2fc;"/>
  <path d="M201.66,248.82c1.4.14,3.39,2.63,5.99,1,.89,6.64-9.19,6.36-8.99,0,.87-.22,2.04-1.09,3-1Z" style="fill: #add8f8;"/>
  <path d="M193.66,251.82c3.25-.3,3.3-.27,3.01,3h-5s2-3,2-3Z" style="fill: #add8f8;"/>
  <path d="M139.66,407.82c8.99,3.86,17.38,6.91,27,9-13.16,8.16-24.72,18.16-33.41,31.09-2.58,3.84-3.66,9.03-7.58,11.91l-8.01-43c.19-.73-.34-2.6.04-2.93s6.88-.45,9.94-1.59c2.88-1.07,8.95-6.27,9.52-6.3.44-.03,1.67,1.46,2.5,1.82Z" style="fill: #f3e2ab;"/>
</svg>