<?xml version="1.0" encoding="utf-8"?>
<!-- Generator: Adobe Illustrator 21.0.0, SVG Export Plug-In . SVG Version: 6.00 Build 0)  -->
<svg version="1.1" id="Layer_1" xmlns="http://www.w3.org/2000/svg" xmlns:xlink="http://www.w3.org/1999/xlink" x="0px" y="0px"
	 viewBox="0 0 720 720" style="enable-background:new 0 0 720 720;" xml:space="preserve">
<style type="text/css">
	.st0{fill:#FAD902;}
	.st1{fill:#F4C19C;}
	.st2{fill:#F4F8F0;}
	.st3{fill:#D2543E;}
	.st4{fill:#D4B263;}
	.st5{fill:#51AE6A;}
	.st6{fill:#3A4A50;}
	.st7{fill:#BED995;}
	.st8{fill:#CD676C;}
	.st9{fill:#82A13D;}
	.st10{fill:#232220;stroke:#231F20;stroke-width:0.5;stroke-miterlimit:10;}
	.st11{fill:#232220;}
	.st12{fill:#EB7780;}
	.st13{fill:#D8D4EA;}
	.st14{fill:#035D58;}
	.st15{fill:#AC2A3D;}
	.st16{fill:#263C80;stroke:#231F20;stroke-width:0.5;stroke-miterlimit:10;}
	.st17{fill:#D8D4EA;stroke:#231F20;stroke-width:0.5;stroke-miterlimit:10;}
	.st18{fill:#3A4A50;stroke:#231F20;stroke-width:0.5;stroke-miterlimit:10;}
	.st19{fill:#C7946D;}
	.st20{fill:#238843;}
	.st21{fill:#FFFFFF;}
	.st22{fill:#E7918B;}
	.st23{fill:#8E2F2E;}
	.st24{fill:#E15DA1;}
	.st25{fill:#ACDEEE;}
	.st26{stroke:#231F20;stroke-width:0.5;stroke-miterlimit:10;}
</style>
<path class="st0" d="M246.6,348.2c-0.8-1-1.6-2.1-2.5-3.1c-1.4-1.7-2.7-3.5-3.3-5.8c-0.2-0.6-0.3-1.3-0.3-2c0-1.9,1.3-2.9,3.1-2.4
	c1.9,0.5,3.4,1.5,4.9,2.7c0.9,0.7,1.8,1.4,3.1,1.8c-0.4-0.9-0.8-1.7-1.2-2.6c-0.7-1.6-1.5-3.2-2.1-4.9c-0.2-0.5-0.2-1.1,0.1-1.5
	c0.4-0.7,1.2-0.4,1.8-0.2c1.4,0.5,2.7,1,4.3,1.6c0.2-0.6,0.4-1,0.4-1.5c0.5-12.3,3.1-24.3,5.8-36.2c1.2-5,2.5-9.9,3.8-14.9
	c0.2-0.7,0.5-1.4,0.9-2.5c0.8,1.2,1.3,2.1,1.9,3c0.5,0.7,1.4,0.8,2.1,0.3c0.6-0.5,1.2-1,1.7-1.6c0.9-1.3,1.9-2.5,2.6-3.9
	c2-4.1,4-8.2,5.9-12.3c0.2-0.5,0.4-1,0.6-1.6c0.9-2.8,0.8-3.1-1.6-4.6c-4.1-2.6-8.3-5.2-12.4-7.9c-7.2-4.9-13.8-10.6-19.7-17
	c-1.5-1.6-2.8-3.4-3.7-5.5c-2.2-4.6-4.2-9.3-5.8-14.2c-0.5-1.7-1.4-3.3-2-4.9c-0.9-2.5-1.8-5-2.5-7.6c-1.1-4.1-2.1-8.2-2.1-12.5
	c0-1.5-0.7-2.8-1.5-4c-0.6-0.8-1.5-1.4-1.5-2.8c1.8-0.4,3.6-0.9,5.6-1.4c-0.1-0.6-0.1-1.3-0.2-1.9c-0.2-1.3-0.6-2.6-0.7-3.9
	c-0.1-1.5,0.8-2.3,2.3-2.2c1,0.1,1.9,0.4,2.9,0.6c0.5,0.1,1.1,0.2,1.8,0.3c0-0.8,0-1.5,0-2.1c0-0.8,0-1.6,0.1-2.3
	c0.3-1.8,1.4-2.5,3.1-2c0.9,0.2,1.6,0.6,2.5,1c0.6,0.3,1.1,0.6,2,1c0.2-1.2,0.3-2.2,0.5-3.1c0.2-0.8,0.5-1.6,0.9-2.7
	c3.3,2,5.6,4.7,8.4,7.1c1.5-1.6,1.7-3.8,3-5.1c1-0.1,1.3,0.6,1.6,1.1c1.5,2.2,2.9,4.5,4.4,6.7c0.9,1.3,1.7,2.6,3.3,3.1
	c0.3,0.1,0.7,0.3,0.7,0.5c0.7,2.2,2.6,3.6,3.9,5.3c6,8,12.1,16,18.1,24c0.3,0.4,0.7,0.8,1.1,1.3c2.9-2.6,5.7-5.2,8.1-8.1
	c5-5.9,6.2-12.6,3.9-20c-3.3-10.8-12.4-17.2-23.7-16.5c-3.2,0.2-6.1,1.2-8.5,3.4c-0.4,0.4-0.8,0.7-1.7,1.4c0.3-1.4,0.4-2.2,0.6-3.1
	c1.6-5.1,3.2-10.2,5.1-15.2c2-5.3,3.1-10.6,3.9-16.2c0.5-3.4,1-6.8,1.7-10.2c1.1-5.2,3-10.2,4.9-15.2c0.3-0.7,0.5-1.4,0.8-2.3
	c-1.6-0.1-2.6,0.6-3.8,0.9c-7.5,2.4-15,4.9-22.5,7.3c-8,2.5-16.1,4.5-24.3,6.1c-3.1,0.6-6.1,0.9-9.3,0.7c-5.8-0.4-11.6-0.8-17.3-1.1
	c-3.6-0.2-6.8-1.2-9.6-3.3c-3.2-2.3-6.4-4.4-9.5-6.8c-5.6-4.4-11.1-9-16.6-13.5c-1.5-1.3-2.9-2.8-4.3-4.2c-0.5-0.5-0.8-1.2-1.4-2
	c0.8-0.3,1.4-0.7,2-0.8c13.7-4.2,27.6-7.7,41.8-10.1c11.9-2,23.8-3.4,35.8-4.4c7.4-0.6,14.9-0.8,22.3-1c5.9-0.2,11.8,0,17.7,0.1
	c6.5,0.1,12.9,0.8,19.3,1.5c1.4,0.2,2.6,0,3.8-0.7c8.7-4.7,18-7.5,27.7-9.5c12.9-2.6,26-3.7,39.2-3.2c14,0.5,27.7,2.2,41.1,6.5
	c3.5,1.1,6.9,2.5,10.5,3.8c0.2-0.2,0.7-0.3,1-0.6c7.4-6.7,15.5-12.4,24-17.4c23.6-14,48.6-25,75.1-32.7c1.2-0.3,2.4-0.6,3.5-1
	c0.2,0,0.4,0,0.7,0.1c0.9,0.6,0.8,1.5,0.9,2.4c0.3,3.6,0,7.1-0.7,10.6c-2.6,11.8-6.6,23.1-12.8,33.5c-1.3,2.3-3,3.9-5.4,5.2
	c-12.1,6.4-24.1,12.9-36.6,18.5c-7.3,3.3-14.7,6.4-22.6,8.1c-0.4,0.1-0.8,0.4-1.2,0.6c0.3,0.8,0.6,1.5,0.9,2.3
	c3.7,8.5,6.1,17.4,7.6,26.5c1.1,6.8,2.1,13.6,3.3,20.4c0.2,1.4,0.6,2.8,1,4.2c1,3.5,2,7.1,2.9,10.6c0.2,0.6,0.1,1.3,0.1,2
	c-0.5-0.1-0.9-0.1-1.1-0.3c-5.5-2.8-11.2-2.5-16.9-0.9c-7.6,2.2-11.8,7.6-13.9,14.9c-3.4,12.1,4.4,23.6,14.6,26.9
	c2.8,0.9,5.6,1.3,8.6,0.7c1-0.2,2-0.3,2.9-0.5c0.5,0.8-0.1,1.3-0.5,1.7c-1.4,1.9-2.8,3.7-4.5,5.8c0.1,0.7,0.1,1.7,0.3,2.7
	c2.6,13.4,5.2,26.9,7.9,40.3c1.4,6.9,2.8,13.7,4.3,20.6c1.2,5.9,3.3,11.5,5.5,17.1c2.5,6.5,5.1,13,7.6,19.6
	c2.1,5.6,3.8,11.4,4.5,17.4c0,0.3,0.2,0.6,0.3,1c1.9-0.4,2.9-2.6,5.1-2.5c0.4,3-1.5,5.3-2.5,8.1c0.6-0.1,1.1,0,1.5-0.2
	c1.7-0.6,3.3-1.2,5-1.8c0.9-0.3,0.9-0.2,2.7,0.4c-0.1,2.8-1.6,5.2-2.8,7.5c-0.4,0.1-0.6,0.2-0.8,0.2c-3-1.1-5.9-0.7-8.8,0.4
	c-3.4,1.2-6.5,2.9-9.5,4.8c-6.5,4-12.6,8.8-18.4,13.8c-7.4,6.2-14.5,12.9-21.4,19.7c-0.9,0.9-1.7,1.7-2.7,2.6
	c-0.8-0.5-1.5-0.8-2.1-1.2c-13.8-9.7-29-15.4-45.7-17.4c-28-3.4-54.2,2.4-78.6,16.6c-1,0.5-1.9,1.1-3,1.7c-0.7-0.5-1.4-0.8-2-1.3
	c-8-6-15.7-12.4-23-19.3c-7.7-7.4-17-12.1-27.4-14.6c-1.6-0.4-3.3-0.4-5-0.5c-2.2-0.2-4.1,0.7-6,1.6L246.6,348.2z M373.9,177.6
	c-6.8,3.5-13.8,4.6-21.2,4.2c-3.7-0.2-7.3-1.1-10.4-3.2c-0.4-0.3-0.8-0.8-1.6-0.1c1.3,1.4,2.5,2.8,3.9,4.1c2.2,2.1,5.1,3.1,7.9,4
	c0.3,0.9,0.5,1.6,0.8,2.4c1.1,3.6,2.1,7.3,3.4,10.8c2.3,6.2,5.5,11.9,9.5,17.1c1.5,1.9,3.2,3.7,5.3,5c3.3,1.9,5.9,1.6,8.3-1.3
	c1.4-1.6,2.6-3.4,3.5-5.3c1.7-3.4,3.2-6.9,4.7-10.3c2.5-5.7,4.1-11.8,6-17.7c0.5-1.6,1.2-2.7,2.8-3.4s2.9-1.9,3.9-3.4
	c-2.4,0.7-4.8,1.3-7.2,1.2c-4.1-0.1-8.2-0.3-12.3-0.6C378.4,180.6,375.6,180,373.9,177.6z M335.2,140.1c-0.2-1.4-0.3-2.9-0.6-4.3
	c-1.6-6.3-5.3-11-11.6-13.2c-2-0.7-4-1-6.2-0.6c-9,1.5-15.4,8.4-16,17.5c-0.4,7.3,3.2,14.4,11.5,16.6c4,1.1,7.9,0.9,11.8-0.5
	C331,153.2,335.1,147.4,335.2,140.1z M447.6,142.6c-0.2-5.8-1.5-10.4-4.8-14.4c-3.8-4.5-9.1-5.9-14.8-4.2
	c-8.1,2.4-14.5,10.9-12.3,21.6c0.9,4.4,3.4,7.9,7.5,10.1c3.7,2.1,7.7,2.7,11.9,2.1c6.3-1,10.1-4.7,11.8-10.8
	C447.3,145.4,447.4,143.6,447.6,142.6z M433.4,304.6c1.7,0.4,3.1,0.2,4.5-0.2c6.8-1.6,13.6-3.4,20.4-5c2.6-0.6,4-2.1,4.9-4.5
	c1.9-5.2,3-10.5,3-16c0-0.9-0.1-1.8-0.4-2.6c-0.5-1.6-1.9-2-3.1-0.9c-0.2,0.2-0.4,0.5-0.7,0.8c-8.6,9.8-17.5,19.3-28.1,27
	C433.7,303.5,433.6,304,433.4,304.6z M354,240.4c-0.4,1.8,0.6,2.7,1.6,3.6c4.3,3.8,9.2,6.6,14.4,8.8c1.3,0.6,2.6,0.5,3.9,0
	c0.7-0.3,1.4-0.6,2.1-1c4.2-2.4,8-5.2,11.5-8.4c0.4-0.4,0.8-0.8,1.1-1.2c0.2-0.3,0.1-0.8,0.2-1.4c-1.8-0.5-3.4-0.3-5-0.2
	c-2.6,0.2-5.3,0.5-7.9,0.9c-3.2,0.4-6.4,0.4-9.6,0.1c-3-0.3-6-0.7-8.9-1C356.2,240.5,355.1,240.5,354,240.4z M375.4,165.2
	c2.4-1.7,4.4-3.1,6.5-4.6c0.7-0.5,1.1-1.1,0.8-2c-1.9-0.9-1.9-0.9-4.4-0.9c-7-0.2-9.8,0-11.9,0.9
	C369.1,160.9,372.2,162.9,375.4,165.2z"/>
<path class="st1" d="M387.7,587.3c3.3,2.6,5.8,5.8,7.8,9.2c3.2,5.5,5.6,11.4,7.9,17.3c3.9,10.6,6.5,21.5,8.8,32.5
	c0.1,0.6,0.1,1.3,0.2,2c-1.5,1.2-3.2,1.7-4.8,2.3c-6.9,2.8-13.9,5.4-20.8,8.2c-23.8,9.6-48.2,17-73.2,22.8c-14.6,3.4-29.4,6-44.3,8
	c-14.6,1.9-29.2,2.9-43.9,2.9c-14.5,0-28.9-1.1-43.3-3.1c-6.1-0.9-10.2-3.9-13.1-9.1c-2.3-4.2-3.7-8.8-4.6-13.5
	c-1.7-8.4-2.2-17-2.2-25.6c-0.1-14.5,0.9-28.9,2.7-43.3c0.4-3.1,0.7-6.2,1-9.3c0.1-1.5,0.7-2.7,1.8-3.8c3.1-3.2,6.4-6.2,10-8.8
	c1.3-0.9,2.6-1.5,4.3-1.5c4.4-0.1,8.9-0.3,13.4-0.5c1,0,2,0,3.3,0c-0.3,0.7-0.4,1.2-0.7,1.6c-1.7,2.2-3.4,4.4-5.2,6.5
	c-1.9,2.2-2.9,4.7-3.4,7.5c-0.6,2.8,0.5,5,2.8,6.6c2.6,1.9,5.5,2.3,8.6,1.4c4.6-1.3,8.6-3.5,12.1-6.9c1.8-1.8,3.6-3.7,5.4-5.5
	c2.5-2.5,5.6-4.1,9-4.7c3.1-0.6,6.2-0.9,9.3-1.3c0.6-0.1,1.2,0,2.1,0c-0.3,0.6-0.4,0.9-0.6,1.1c-4.6,5-9.2,10-14,14.8
	c-3,3-5.2,6.3-6.6,10.2c-1.5,4-3.4,7.8-4.1,12c-0.1,0.9-0.3,1.8-0.3,2.6c0,3.8,3.8,7,7.7,6.4c2.3-0.4,4.5-1.2,6.6-2.3
	c0.7-0.4,1.3-0.7,2.3-1.2c-0.7,2.8-1.2,5.4-1.9,8c0.1,0.2,0.3,0.5,0.5,0.7c2.2,3.6,5.6,4,9.4,3.7c2.7-0.3,5.1-1.4,7.3-3.1
	c4.2-3.3,8-7.1,11.3-11.3c1.7-2.2,3.6-3.9,5.9-5.3c1.3-0.8,2.6-1.7,3.9-2.5c3.9-2.5,8.1-4.2,12.6-5.1c5.6-1.1,11.1-2.3,16.7-3.4
	c4.8-0.9,9.6-1.7,14.5-2.5c7-1.2,14-2.3,21.1-3.4c7.9-1.3,15.8-2.5,23.7-3.8c11-1.8,21.9-3.9,32.6-7.2
	C386.8,587.4,387.1,587.4,387.7,587.3z M468,461.6c0.4-0.5,0.8-1,0.9-1.5c0.4-1.5,0.8-3,1.1-4.5c0.3-1.3,0-2.5-1-3.3
	c-1.2-1-2.4-2.1-3.7-2.8c-2.3-1.3-4.8-2.4-7.1-3.6c-0.7-0.3-1.3-0.6-2-1c0.1-0.3,0.1-0.4,0.1-0.5c0.1-0.1,0.2-0.1,0.3-0.1
	c6.1,0.3,12.2,0.6,18.3,0.9c0.5,0,1.1,0.2,1.7,0.3c0.2,0.8,0.5,1.5,0.7,2.3c-0.7,0-1.2-0.1-1.8-0.1c1.5,6.9,1.1,13.7,0,20.6
	c-0.1,0.7-0.2,1.3-0.1,2c0,0.6,0.2,1.2,0.4,2.3c0.5-0.7,0.8-1,1-1.3c0.7-1.3,1.3-2.6,2-3.9c1.5-3,3.8-5.2,6.5-7
	c1.9-1.3,4.3-1.1,6.2,0.3c3.6,2.7,4.9,6.5,5.3,10.8c0.5,5.1-0.1,10.2-1.6,15.2c-2.3,8-5.5,15.7-9.8,23c-1.5,2.5-3,4.9-4.7,7.3
	c-1.6,2.3-3.7,4.2-6,5.8c-2.7,1.9-5.6,3.1-9.2,2.1c-0.2,0.9-0.4,1.6-0.5,2.3c-0.5,3.5-1.8,6.6-3.4,9.7c-2,3.7-4.4,7.3-7,10.6
	c-2.3,2.9-5.1,5.3-8,7.5c-3.7,2.7-7.6,4.9-12,6.5c-1.3,0.5-2.5,0.9-3.9,0.3c-1-0.4-2-0.2-2.9,0.1c-3.4,0.9-6.5,2.4-9.5,4.1
	c-3.4,2-6.8,3.9-10.2,5.7c-1.4,0.8-2.8,1.4-4.2,2c-3.9,1.8-8,2-12.1,1.1c-1.3-0.3-2.6-0.6-3.9-1c-2-0.7-3.6-0.1-5.1,1.3
	c-1.5,1.4-2.5,3.1-3.4,5c-1.8,0.5-3.6,0.9-5.3,1.3c-0.4-0.2-0.7-0.3-0.8-0.5c-2.2-2.9-5.2-4.4-8.7-5.2c-2.4-0.5-4.8-1.1-7.2-1.5
	c-6.2-1.2-12-3.5-17.4-6.5c-2.3-1.3-4.7-2.6-7.3-3.3c-2.8-0.8-5.5-0.6-8,1.2c-0.5,0.3-0.9,0.6-1.5,1.1c-1.5-0.8-3.2-1.5-4.7-2.3
	c-5.6-3-11-6.3-16.2-9.9c-7.4-5-14.7-10.1-22-15.1c-1.1-0.8-1.7-1.6-2-2.9c-0.5-2.3-1.1-4.5-1.6-6.8c-0.8-0.3-1,0.3-1.3,0.7
	c-0.6,1.1-1.6,1.5-2.8,1.5c-1.6,0-3.1-0.4-4.5-1.2c-3.6-2-6.9-4.5-9.3-8c-4.7-6.9-7.9-14.4-9.3-22.7c-0.5-3-0.9-6-1.2-8.9
	c-0.4-3.7,0.2-7.3,0.7-11c0.4-3.2,1-6.4,2.3-9.4c0.6-1.4,1.3-2.9,2.3-4c1.6-2,3.6-2.1,5.6-0.7c1.8,1.3,3.1,3.2,4.3,5.1
	c0.5,0.9,1,1.7,1.6,2.6c0.1,0.1,0.4,0.3,0.6,0.2c0.3-0.1,0.6-0.4,0.6-0.6c0-1.1-0.1-2.2-0.3-3.3c-0.4-2-0.8-3.9-1.4-5.9
	c-0.8-2.8-0.7-5.5,0.5-8.2c2.4-5.5,4.9-11,7.3-16.5c0.4-0.8,0.8-1.6,1.1-2.4c0.2-0.5,0-1,0-1.7c-2.1,0.2-2.9,1.9-4.1,2.9
	s-2.2,2-3.7,3c0.4-2.4,1.7-5.1,4.7-9.9c0.6,0.1,1.2,0.1,1.8,0.2c8,2,16,3.7,24.2,5.1c0.4,0.1,0.8,0.3,1.7,0.7
	c-0.9,0.3-1.3,0.4-1.6,0.4c-7.6,1.1-14.5,4.2-20.8,8.6c-1.2,0.8-1.9,1.8-2.3,3.1c-0.4,1.8-1.1,3.6-1.4,5.5c-0.3,1.4,0.8,2.1,2.1,1.5
	c0.7-0.4,1.3-0.8,2-1.3c1.4-1,2.7-2,4-3c7.6-5.7,16.2-8.6,25.6-9.8c13.1-1.6,25.7,0.3,38.2,4.3c1.1,0.3,2.1,0.7,3.2,1
	c0.1,0,0.2,0,0.3,0c0.8-0.5,0.6-1.2,0.1-1.7c-0.9-0.8-1.9-1.5-3-2.2c-0.9-0.6-1.8-1.2-2.9-1.8c1.9-0.6,5.2-0.5,8.8,0
	c-0.1,0.6-0.1,1.3-0.3,1.9c-2.9,10-5.3,20-7.3,30.1c-0.4,2-0.6,3.9-1,6.3c0.8-0.4,1.3-0.5,1.6-0.9c0.9-1,1.7-2.1,2.5-3.1
	c6.2-8.2,12.4-16.3,18.5-24.5c0.7-0.9,1.3-2,2.8-2.9c-0.1,1.5-0.1,2.6-0.3,3.7c-1.5,10-2.7,20.1-3.6,30.2c-0.3,3.2-0.2,6.5-0.3,9.7
	c0,0.9-0.1,1.8,1,2.5c0.7-0.8,1.5-1.5,2.2-2.3c12.3-14,24.7-27.8,37.5-41.3c0.1-0.2,0.3-0.3,0.5-0.5c2.2-3.1,5.4-4,9-4.4
	c5-0.5,10-0.5,15,0.1c8.5,1,16.8,3.2,24.8,6.6c4.7,2,9.2,4.4,13.3,7.6C466.9,461,467.5,461.2,468,461.6z M448.8,515.9
	c0.2-1.2,0.5-2.4,0.7-3.7c0.3-2.5,0.6-5.1,0.9-7.6c1-9.3,1.5-18.6,0.5-28c-0.6-5.2-1.7-10.3-3.9-15.1c-1.2-2.6-2.8-5-5-7.1
	c-5.3-5-15.7-7.9-23.9-0.4c-2.3,2.1-4.2,4.6-5.8,7.3c-0.7,1.2-1.1,2.4-1,3.8c0,2,0,4,0,6c0.7,15.6,1.4,31.1,2.1,46.7
	c0,0.5,0.2,1,0.3,1.5C419.5,520.4,442.5,518.2,448.8,515.9z M331,519.2c0.4-1.3,0.7-2.2,0.9-3.2c0.3-2,0.5-4,0.6-6
	c0.6-14.5,0.6-28.9,0.3-43.4c0-1.2-0.1-2.5-0.5-3.6c-1.9-5.9-5.6-10.3-11.1-13.2c-2.2-1.2-4.5-1.6-7.1-1.2c-6.8,0.9-12,4.3-15.9,10
	c-2.4,3.5-3.9,7.5-5,11.6c-1.7,6.2-2.3,12.5-2.5,18.8c-0.3,6.8,0.3,13.6,1.1,20.3c0.5,3.8,0.6,4,4.4,5.2c0.6,0.2,1.3,0.4,1.9,0.5
	c3.9,0.7,7.9,1.5,11.8,2c5.7,0.7,11.5,1.3,17.3,1.9C328.4,519.1,329.5,519.1,331,519.2z M366.5,552c-1.5,0-3.1,0-4.7,0
	c-4.2,0.2-8.4,0.2-12.6,1c-1.1,0.2-2.1,0.6-3.1,1c-1.1,0.5-1.3,2-0.3,2.8c0.9,0.7,1.8,1.3,2.8,1.7c4.8,2.1,9.9,3.5,15,4.5
	c6,1.2,12.2,0.8,18.2-0.2c3-0.5,5.9-1.1,8.6-2.4c1.6-0.8,3.2-1.6,4.6-2.7c1.5-1.1,1.3-2.2-0.5-2.8c-1.6-0.5-3.2-0.9-4.8-1.2
	C382.1,552.5,374.3,552.4,366.5,552z M464.9,465.1c-0.2,0-0.4,0-0.5,0c-0.1,0.4-0.3,0.8-0.4,1.2c-2,8.5-3.6,17-4.3,25.6
	c-0.1,1.9-0.2,3.8,0,5.7c0.1,1.4,0.5,2.9,1.1,4.1c0.9,1.8,3.2,1.9,4.4,0.2c0.5-0.7,0.9-1.6,1.1-2.4c0.4-1.7,0.6-3.5,0.7-5.3
	c0.4-7.4-0.2-14.7-1-22C465.6,469.9,465.2,467.5,464.9,465.1z M363.1,528.9c1.9,2.9,3.7,5.8,5.5,8.6c1.1-1.1,2.1-2,3.2-3
	c1.2-1.1,2.6-2.1,3.7-3.3c1.8-1.9,1.9-3.7,0.3-5.7c-2.1-2.7-4.8-4.9-7.6-7.4C367.5,522.3,365.5,525.6,363.1,528.9z M378.3,663.7
	c10.7-4.2,20.7-8.1,30.9-12.1c2,0.8,4.1,1.6,6.1,2.5c1.5,0.7,2.7,0.8,4-0.3c1.2-0.9,2.6-1.7,3.9-2.5c6.3-3.9,12.7-7.8,19-11.8
	c4-2.6,8.3-4.2,13-4.8c1.4-0.2,2.9-0.5,4.1-1.2c2.5-1.2,4.5-2.9,5.1-5.9c2.2-0.4,3.7-1.8,5.1-3.5c1.1,0.6,2.1,1.1,3,1.7
	c1.6,1,3.4,1.2,5.1,0.5c2-0.8,3.9-1.6,5.8-2.6c2.5-1.4,5-3,7.4-4.5c1.4-0.9,2.7-1.1,4.4-0.7c5.9,1.5,12,2.5,18.2,3.4
	c0.2-0.7,0.5-1.3,0.5-1.9c0.2-2.8,0.3-5.5,0.4-8.3c0-1.2,0-2.4,0-3.7c0.5-0.4,0.8-0.8,1.3-1.1c5.4-3.9,10.8-7.9,16.2-11.8
	c4-2.8,8-5.6,12.2-8.2c4.5-2.8,9.3-4.7,14.5-5.7c5.5-1,10.9-0.5,16.2,0.8c5.9,1.5,11.3,4,16.6,6.9c1.2,0.7,1.8,1.6,2,2.9
	c1.3,6.4,2.7,12.8,4,19.3c1.7,8.6,2.9,17.3,3.8,26.1c1.4,12.7,2.1,25.5,1.4,38.3c-0.3,5.1-0.7,10.2-1.7,15.3
	c-1.1,5.4-4,9.3-8.9,11.8c-5.5,2.8-11.3,4.6-17.4,5.7c-8,1.5-16.1,1.7-24.3,1.5c-12.7-0.3-25.3-2.1-37.7-4.5
	c-22.9-4.4-45.2-10.9-67.3-18c-21.7-7-43.1-14.9-64.6-22.4C380,664.5,379.5,664.3,378.3,663.7z"/>
<path class="st0" d="M224.8,72.7c-2.9,0.5-4.9,0.8-7,1.1c-16.8,2.7-33.3,6.7-49.6,11.8c-8.9,2.8-17.6,6.3-25.9,10.5
	c-2,1-3.9,2.1-5.7,3.4c-2.2,1.6-2,2.8,0.5,3.6c6.4,2,12.7,4,19.2,5.7c12.7,3.3,25.6,5.8,38.6,7.8c3.1,0.5,6.2,0.6,9.3,0.9
	c2,0.2,4,0.4,6,0.6c5.6,0.4,11.1,0.6,16.6,1.3c7.8,1.1,15.5,0.4,23.3,0.3c1,0,1.9,0,3.2,0c-1,3.2-2.9,5.5-4.2,8.2
	c-1.4,2.8-2.9,5.5-4.3,8.3c-1.4,2.7-2.7,5.4-4,8.1s-2.6,5.4-4,8.1c-1.3,2.7-2.6,5.4-3.9,8.1c-1.3,2.8-2.7,5.6-4,8.4
	c-1.3,2.7-2.6,5.4-3.9,8.1c-1.3,2.7-2.5,5.4-3.8,8.2c2.5,1.3,5.2,1,7.6,2.2c0.2,1.6,0.3,3.3,0.5,4.9c0.3,1.8,0.7,3.5,1.1,5.2
	c0.3,1.6,1.1,3.1,1.2,5.1c-3.4-1.4-6.5-2.5-9.7-3.2c-3.1-0.7-6.4-0.9-9.7-1.9c0.6-1.5,1.1-2.9,1.7-4.2c5.3-12.6,10.7-25.2,16-37.8
	c0.3-0.7,0.6-1.5,0.9-2.1c0.9-1.8,0.6-3.4-0.2-5.1c-0.9-1.7-2.1-3.1-3.6-4.3c-2-1.6-4.3-2.8-6.6-3.8c-6-2.6-12.2-4.1-18.6-5.3
	c-12.9-2.3-25.8-3.4-38.9-3.4c-5.3,0-10.7-0.1-16,0.1c-6.2,0.2-12.4,0.6-18.6,1.9c-1.3,0.3-2.7,0.5-3.9,1c-1.4,0.6-2.8,0.7-4.2,0.3
	c-1.9-0.5-4-0.5-5.8-1.5c-1.2-2.9-1.7-6-2.1-9.1c-0.8-5.4-1.6-10.8-2.2-16.2c-1.4-13.3-2.7-26.6-3.9-39.9
	c-1.2-12.6-2.3-25.3-3.3-37.9c-0.4-5.4-0.5-10.9-0.8-16.3c0-0.8,0-1.5,0-2.6c0.9,0.1,1.7,0.1,2.3,0.3c5.6,1.6,11,3.7,16.3,6
	c9.4,4.1,18.5,8.8,27.6,13.5c22.4,11.5,44.6,23.2,66.5,35.6c2.4,1.4,4.8,2.8,7.2,4.2C222.8,71.3,223.4,71.7,224.8,72.7z"/>
<path class="st2" d="M615.5,603.2c-0.9-0.7-1.7-1.3-2.6-2c-4-2.9-8.1-5.9-12.2-8.8c-2.2-1.5-4.5-2.9-7-3.8c-1-0.4-2-1-3-1.5
	c-8.2-4.6-17-7.2-26.2-8.3c-1.7-0.2-3.3-0.2-5,0.2c-6.7,1.6-12.8,4.4-18.6,8c-6.5,4.1-12.8,8.5-18.9,13.2c-2,1.5-3.9,3-5.9,4.4
	c-0.4,0.3-0.9,0.6-1.7,1.1c0.1-1.1,0.1-1.8,0.2-2.5c1.3-6.7,2.7-13.3,4.1-19.9c0.2-0.7,0.1-1.5,0.2-2.7c-0.7,0.5-1.1,0.7-1.2,1
	c-0.5,1.2-0.9,2.5-1.3,3.8c-0.3,1-0.7,2.1-1.1,3.3c-0.4-0.3-0.7-0.5-0.8-0.7c-3.5-10.3-9.8-18.9-16.9-27c-1.3-1.5-2.7-2.9-4-4.5
	c-4.3-5.2-4.4-8.7-0.5-14.2c3.2-4.5,7.3-8,12-11c4.6-2.9,9.6-5.1,14.9-6.7c1-0.3,2.1-0.7,3-1c0-0.8-0.3-1.1-0.8-1
	c-1.5,0.3-3.1,0.6-4.6,0.9c-7.7,1.8-15.3,4-22.6,6.8c-0.8-0.5-0.4-1-0.3-1.5c0.3-2,0.6-4,0.9-5.9c0.3-1.7,0.4-3.3,0.8-4.9
	c0.5-2.2,1.5-4.2,3-5.9c1.3-1.4,2.8-2.5,4.7-3c3.7-0.8,7.3-1.8,11-2.7c0.2,0,0.5,0,0.6-0.1c0.3-0.2,0.7-0.5,0.7-0.7
	c-0.1-0.4-0.3-0.9-0.6-1c-2.3-0.6-4.5-1.2-6.8-1.5c-2.7-0.4-5.5-0.6-8.3-0.9c0-0.7,0.5-0.9,1-1c5.3-1.5,10.7-3.1,16-4.5
	c6.7-1.8,13.4-3.3,20.1-5c0.6-0.1,1.1-0.5,1.8-0.8c-0.8-1.3-1.9-1.5-3-1.7c-3.6-0.7-7.2-1.4-10.8-2c-1.6-0.3-3.2-0.5-5.4-1
	c1-0.5,1.4-0.9,1.9-1c13.4-4.9,26.8-9.6,40.5-13.7c1-0.3,1.9-0.4,2.8,0.2c2.7,1.7,5.5,3.3,8.5,5.1c-0.5,7.8-1,15.5-3.1,23.3
	c0.5,0.2,1.1,0.5,1.7,0.7c0.9,0.4,1.9,0.6,2.8,1.1c1.9,0.9,2.9,2.3,2.9,4.4c0,1.3,0,2.7,0,4c0,2.7,0.8,5,2.6,7.1
	c1.8,2,3,4.4,4.3,6.8c3,6,5.5,12.2,8,18.4c5.4,13.8,10.9,27.5,16.2,41.3c2.2,5.6,4,11.3,6,17c0.3,0.7,0.4,1.5,0.6,2.2
	C615.8,602.9,615.6,603,615.5,603.2z"/>
<path class="st3" d="M261.3,426.5c-0.1-4.3-0.4-8.1-0.4-12c0-3.8,0.2-7.5,0.4-11.4c-6.7-4.2-13.9-7.3-20.7-11.2
	c-0.1-0.4-0.2-0.8-0.2-1.3c0.2-8.9,0.6-17.8,2.1-26.6c0.3-1.8,0.8-3.5,1.3-5.2c0.1-0.5,0.5-1,0.8-1.6c0.8,0.6,1.5,0.9,1.9,1.5
	c3.7,4.3,8,8,12.1,12c8.1,7.9,16.5,15.6,25.5,22.6c4,3.1,8.2,6.1,12.7,8.6c3.1,1.8,6.3,3.3,9.9,3.9c5,0.8,8.2-0.8,10.2-5.4
	c0.7-1.5,1.6-2.5,3.1-3.3c8.8-4.5,18-7.6,27.6-9.7c9.7-2.1,19.6-3,29.5-3c8,0,16,0.4,24,1.7c0.4,0.1,0.8,0.3,1.4,0.4
	c0.7,5.4,0.9,10.8,1.3,16.2c0.4,5.4,0.7,10.9,1.1,16.3s0.8,10.9,1.2,16.4c-0.8,0.3-1.4,0.5-2,0.6c-9.5,1.8-19.1,2.8-28.8,3.4
	c-8.6,0.5-17.1,0.7-25.7,0.5c-9.1-0.3-18.2-0.8-27.3-1.7c-11.2-1.1-22.3-2.7-33.4-4.9c-8.4-1.6-16.7-3.7-24.9-6.1
	C263,427.2,262.2,426.8,261.3,426.5z"/>
<path class="st4" d="M432.5,394.2c-6.2-4.2-12.8-7.2-19.9-9.4c-9.5-3-19.3-4.5-29.2-4.9c-21.5-0.9-42.4,2.4-62.6,9.5
	c-1.3,0.5-2.7,1-4,1.6c-0.1,1.3-0.1,2.4-0.2,3.5c-0.1,2-0.5,4-1.3,5.8c-1.4,3.1-3.9,4.6-7.2,4.2c-2-0.3-3.9-0.9-5.8-1.5
	c-3.7-1.4-7-3.5-10.2-5.6c-6.3-4.2-12.2-8.9-17.8-14c-8.3-7.6-16.4-15.4-24.6-23.1c-2.4-2.3-3-5.4-2.9-8.6c0.1-2.1,1.5-3.3,3.7-3.6
	c2.3-0.4,4.7-0.2,6.9,0.4c2.4,0.6,4.7,1.4,7,2.2c5.4,2.1,10.5,4.9,15.2,8.3c1.7,1.3,3.3,2.7,4.8,4.1c7.5,7.3,15.7,13.8,24.1,20.1
	c0.4,0.3,0.8,0.5,1.2,0.7c0.8-0.4,1.6-0.8,2.3-1.3c13.9-8.6,29-14,45.1-16.7c10.2-1.6,20.4-2.1,30.6-1.1
	c17.8,1.8,34.3,7.4,48.9,17.9c0.7,0.5,1.5,1,2.1,1.5c1.3-0.3,1.9-1.3,2.7-2.1c8.3-8.2,16.8-16.2,25.9-23.6
	c4.7-3.9,9.6-7.7,14.8-10.8c2.8-1.6,5.7-3.1,8.6-4.4c1.5-0.7,3.2-1.1,4.8-1.2c3.5-0.3,6,1.6,6.7,5.1c0.4,2,0.1,4-0.5,5.9
	c-0.9,2.7-2.3,5-4.1,7.2c-3.5,4.5-7.5,8.5-11.6,12.4c-7.9,7.5-16.2,14.6-25.2,20.9c-3.7,2.6-7.7,5-11.6,7.3
	c-2.3,1.4-4.8,2.4-7.4,2.9c-4,0.8-6.8-0.6-8.2-4.5C433.3,397.8,433,396.1,432.5,394.2z"/>
<path class="st2" d="M140.2,575.3c-0.3-1.1,0.4-1.9,0.9-2.8c2.6-4.6,5.2-9.4,8.1-13.8c5.1-8,10.5-15.8,15.7-23.6
	c0.6-0.9,1.3-1.8,1.9-2.9c-1.5-2.5-2.9-5.1-4.5-7.4c-1.8-2.5-1.4-4.7,0.2-7c1.9-2.7,4.1-4.9,6.5-7.2c0.9-0.8,1.9-1.6,2.9-2.4
	c-0.8-1.3-1.4-2.2-2-3.1c-2.3-3.3-4.4-6.7-6-10.4c-2.2-5.3-2.5-6,0.6-11.6c1.4-2.5,3.1-4.9,5.1-7c3.1-3.5,6.3-6.9,9.8-10
	c5.6-5,11.5-9.8,17.3-14.6c2.1-1.7,4.1-3.4,6.2-5.1c2.1-1.8,2.1-1.8,2.3-4.7c2.5-1.8,5.5-2.9,8.4-4.4c0.3-0.2,0.8-0.1,1.9-0.3
	c-1.2,1.2-2,2-2.8,2.7c-5.4,5.2-10.8,10.3-16,15.6c-2.5,2.5-4.8,5.3-7,8c-0.8,1-1.3,2.3-1.9,3.5c-0.1,0.2,0.1,0.7,0.3,0.9
	s0.6,0.3,0.9,0.2c0.8-0.4,1.6-0.8,2.4-1.2c3-1.9,6.1-3.7,9.1-5.6c4.9-3,10.2-4.8,15.7-6.4c0.2,0,0.4,0,0.8,0.1c-2,2.6-4.1,5-5.9,7.6
	c-1.8,2.5-3.5,5.1-5.1,7.8c-1.6,2.8-3.2,5.6-4.6,8.5c-1.4,2.8-2.7,5.6-3.9,8.5c-1.2,3-2.4,6-3.4,9.1c-1,3-1.8,5.9-2.1,9
	c0.5,0.7,1,0.4,1.6,0.3c6.1-1.3,12.1-2.7,18.3-4c2.4-0.5,4.8-1.1,7.2-1c0.4,0.8-0.3,1.1-0.6,1.4c-2.9,2.6-5.8,5.2-8.7,7.8
	c-1.1,1-2.3,2.1-3.3,3.3c-0.8,0.9-1.6,1.8-1.7,3.1c0.6,0.9,1.4,0.6,2.2,0.4c4.6-1,9.1-2,13.7-2.9c1.4-0.3,2.8-0.5,4.4-0.8
	c0.3,2.3,0.3,4.7,0.9,6.8c0.6,2.1,1.8,4,2.9,6.2c-1.7,0.3-3.4,0.1-5-0.1c-4.5-0.6-3.4-1-7.8,1.7c-5.7,3.5-11.3,7.1-16.9,10.7
	c-1,0.7-2.1,1.3-3.1,1.9c-4.6,2.5-5.7,3.7-7.4,8.7c-3.3,1.7-6.8,2.9-10.4,3.8c-0.4,1,0.3,1.3,0.9,1.5c3.6,1.4,7.4,2.5,11.3,2.7
	c1.9,0.1,3.8,0.1,5.7,0.2c1.2,0,2.4-0.1,3.6-0.5c2.9-0.8,5.9-1.3,8.8-1.8c0.1,0,0.2,0,0.3,0c3.5,0,7.1,0.1,10.6,0.2
	c0.3,0.8-0.2,1-0.5,1.2c-1.8,1-3.7,2-5.5,3.1c-1.9,1.1-3.8,2.4-5.2,4.2c-0.7,0.8-1.5,1.4-2.4,1.7c-1.6,0.5-3.2,1-4.8,1.3
	c-5.5,1.1-11,1.6-16.6,1.9c-3.3,0.2-6.7-0.1-10-0.3c-4.2-0.2-8.4-0.7-12.6-0.9c-7.4-0.4-13.7,2.1-19.2,7.1
	C141.6,574.3,141.2,575.2,140.2,575.3L140.2,575.3z"/>
<path class="st3" d="M414.9,435.6c2.6-0.6,5.1-1.3,7.7-2c12.2-3,24.4-6,36.3-10.3c4.7-1.7,9.6-2.9,14.5-3.7
	c18.2-3.1,36.4-6.2,54.6-9.3c4.1-0.7,8.1-1.4,12.2-2.1c1.8-0.3,3.5-0.3,5.3,0.2c15.2,4.4,30.4,8.7,45.5,13c1.2,0.3,2.3,0.8,3.5,1.1
	c1.3,0.4,2,1.3,2.5,2.5c0.9,2.6,0.3,5.1-1.3,7.3c-0.4,0.6-1.3,0.9-2,1.1c-2.6,0.7-5.1,1.5-7.8,1.9c-7.9,1.3-15.8,2.5-23.8,3.5
	c-9.6,1.2-19.2,2.3-28.9,3.1c-9.9,0.8-19.8,1.2-29.7,1.5c-11.8,0.3-23.6,0.6-35.4,0.1c-16.3-0.7-32.4-2.3-48.3-6
	c-1.7-0.4-3.4-0.9-5.1-1.4C414.8,436,414.9,435.8,414.9,435.6z"/>
<path class="st5" d="M336.5,596c-2.5,0.4-4.9,0.8-7.3,1.2c-5.1,0.8-10.1,1.4-15.2,2.3c-2.5,0.4-4.9,0.5-7.3,0.3
	c-6.5-0.4-13.1-0.8-19.6-1.1c-2.2-0.1-4.4-0.3-6.7,0.8c-1.4-4.4-2.8-8.7-7.3-11c0.5-0.8,1.3-0.9,1.9-1.2c2.6-1.2,5.3-2.3,7.9-3.5
	c1.1-0.5,2.1-1.2,3.1-1.9c0.9-0.6,0.8-1.8,0-2.6c-0.9-0.9-2.1-1.3-3.4-1.2c-1.6,0.2-3.3,0.5-4.9,0.9c-2.3,0.7-4.6,1.6-6.9,2.4
	c-0.8,0.3-1.6,0.5-2.4,0.8c-3.9-7.3-3.9-7.3-10.3-11.4c4.8-2.7,10.1-4,15.1-6.8c-0.6-0.4-0.9-0.8-1.3-0.8c-2.1,0-4.2,0.2-6.3,0.3
	c-3.9,0.2-7.8,0.3-11.8,0.4c-0.2-0.8-0.4-1.4-0.5-2c-0.3-1.8-0.4-3.5-0.7-5.3c-0.6-2.9-1.9-5.5-4-7.5c-0.2-0.2-0.4-0.5-0.6-0.8
	c-0.1-0.1,0-0.2-0.1-0.3c1.1-0.8,2.3-0.6,3.5-0.7c2.4-0.1,4.9-0.1,7.3-0.2c0.4,0,1-0.3,1.1-0.5c0.1-0.5,0-1.1-0.2-1.5
	c-0.8-1.2-2.2-1.5-3.5-1.7c-1.1-0.2-2.2-0.2-3.5-0.3c0.7-3.9,0.8-7.6-0.2-11.1c0.6-0.8,1.1-0.3,1.6-0.2c8.4,2.3,16.5,5.3,24.7,8.3
	c1.2,0.5,2.4,1.2,3.5,2c6.2,4.3,12.4,8.6,18.7,12.9c6.7,4.6,13.6,8.9,20.9,12.5c1.5,0.7,3,1.4,4.6,2c1.4,0.5,2.5,1.3,3.5,2.4
	c1.7,1.8,3,3.8,4,6.1C336.4,583.4,337.4,589.3,336.5,596z"/>
<path class="st4" d="M243,230.4c-0.9,0.6-1.6,1-2.6,1.6c0-1.4,0-2.5,0-4c-0.7,0.4-1.1,0.7-1.4,1c-1.3,1.5-2.6,3-3.9,4.4
	c-0.9-0.4-0.6-1-0.5-1.5c0.4-1.8,0.8-3.6,1.4-6.2c-0.9,0.8-1.3,1.1-1.5,1.5c-1.2,1.9-2.3,3.8-3.5,5.7c-0.8-0.5-0.5-1.1-0.4-1.5
	c0.7-3.1,1.4-6.3,2.2-9.4c0.1-0.5,0.1-1,0.3-2.1c-1.8,1.6-2.9,3.2-4.1,4.6c-1.2,1.4-2.4,2.9-3.6,4.4c-1.1,1.4-2.3,2.8-3.4,4.1
	c-1.2,1.4-2.3,2.9-4,4.7c0-3.6,0.8-6.5,1-10.2c-0.9,1.5-1.4,2.5-2.3,4.1c0.2-1.5,0.3-2.3,0.4-3.1c0.1-0.9,0.2-1.8,0.3-2.6
	c0.3-2.2,0.8-4.4,1-6.6c0.2-1.6,0.7-3,1.4-4.4c0.9-1.9,2.1-3.6,2.8-5.9c-4.3-1.2-8.6-1.7-12.8-2.5c-4.4-0.8-8.7-1.7-13.1-2.5
	c-4.3-0.8-8.5-1.6-12.6-2.3c-0.7-1.1-0.1-1.9,0.2-2.7c4-10.6,8-21.2,11.9-31.9c1.5-4.1,3-8.1,4.6-12.2c0.3-0.8,0.6-1.6,0.9-2.4
	c-0.9-1-2.1-1.2-3.1-1.5c-7.1-2.5-14.5-4.4-21.9-5.9c-12.2-2.4-24.5-4.5-36.7-6.7c-3.8-0.7-7.7-1.4-11.5-2.1
	c-0.3-0.1-0.6-0.3-0.8-0.4c-0.2-0.8,0.4-0.7,0.8-0.8c2.6-0.4,5.3-1,7.9-1.2c13.1-1.2,26.2-1.3,39.3-0.4c5.8,0.4,11.5,0.9,17.3,1.6
	c7.6,0.9,15.2,2.3,22.5,4.7c3.1,1,6.1,2.2,8.8,4c1.6,1.1,3,2.3,4.3,3.6c1.7,1.8,2.1,3.9,1,6.4c-3.7,8.3-7.1,16.8-10.7,25.2
	c-2.4,5.6-4.8,11.3-7.1,16.9c-0.4,0.9-0.7,1.8-1.1,3c1.8,0.3,3.4,0.6,5,0.9c3.2,0.6,6.3,1.3,9.5,1.9c0.9,0.2,1.7,0.5,2.6,0.8
	c3.8,1.2,6.3,3.6,7.5,7.4c0.4,1.2,0.8,2.3,1.2,3.5c1.6,5.2,3.6,10.3,6,15.2C242.4,228.9,242.6,229.5,243,230.4z"/>
<path class="st6" d="M269.1,430.5c-1.3,2.4-2.3,4.3-3.3,6.3c-1.1,2.2-2,4.4-3,6.7c-0.3,0.7-0.2,1.3,0.9,1.6c2.2-1.6,4-4,6.8-5.7
	c-0.1,0.8,0,1.4-0.2,1.8c-1.6,3.6-3.3,7.1-4.8,10.7c-0.9,2.1-1.6,4.4-2.4,6.6c-0.4,1.2-0.4,2.4,0,3.6c0.5,1.7,0.9,3.4,1.3,5.2
	c0.1,0.4,0,0.8,0,1.7c-0.9-1-1.4-1.7-2-2.3c-0.8-0.8-1.6-1.6-2.5-2.1c-2.3-1.4-4.9-1.1-6.6,0.9c-1.1,1.3-1.9,3-2.7,4.5
	c-0.7,1.4-1.1,2.9-1.6,4.5c-1.4,0.6-2.8,1.1-4.3,1.7c-1.4,0.6-2.9,1.2-4.3,1.9c-1.3,0.6-2.6,1.2-3.9,1.9c-1.4,0.7-2.7,1.5-4.1,2.3
	c-1.3,0.7-2.5,1.7-4.5,2.4c3-4.4,6.6-7.6,10.1-11.5c-0.9,0.2-1.5,0.2-1.9,0.4c-3.2,1.8-6.5,3.5-9.6,5.4
	c-10.7,6.7-20.8,14.1-30.3,22.4c-0.6,0.6-1.4,1.1-2.4,1.9c0.2-1.2,0.2-2,0.4-2.7c1.1-3.3,2.2-6.5,3.5-9.7c3-7.7,6.6-15.1,10.9-22.1
	c3.5-5.8,7.4-11.4,12.8-15.7c0.2-0.2,0.3-0.5,0.5-0.9c-2.2-0.2-4.1,0.3-6,1c-2.9,1.1-5.8,2.2-8.8,3.3c-3.6,1.3-6.8,3.3-10,5.3
	c-1.5,0.9-3.1,1.8-4.6,2.6c-0.3,0.2-0.8,0.2-1.4,0.3c0.3-1.4,1.1-2.2,1.9-3c4.1-4.4,8.2-8.8,12.5-13c7.5-7.1,15.3-14,23.5-20.3
	c2.9-2.2,6-4.3,9-6.3c1.2-0.8,2.5-1.4,3.9-2.1C250.3,424.5,259.4,427.7,269.1,430.5z"/>
<path class="st7" d="M413.6,616.3c-0.6-1.2-1.1-1.9-1.5-2.7c-2.9-5.8-6-11.4-9.5-16.8c-1.9-2.9-4-5.7-6.1-8.3
	c-1.2-1.5-2.7-2.9-4.2-4.3c-0.7-0.7-1.6-1.2-2.5-1.7c-3.1-1.6-5.6-0.9-7.4,2.1c-0.5,0.8-0.8,1.6-1.3,2.3c-0.2,0.3-0.7,0.3-1.4,0.6
	c0-0.7,0-1.2,0.1-1.5c0.8-2.4,1.6-4.8,2.5-7.2c0.4-0.9,1-1.8,1.5-2.6c0.9-1.3,2.1-1.8,3.8-1.3c1.5,0.5,3,0.8,4.5,1.2
	c3.7,1,7.3,0.8,10.8-0.6c2.7-1.1,5.3-2.3,7.9-3.7c3.6-1.9,7.2-4,10.8-6c2-1,4-1.8,6.1-2.7c1.3-0.6,2.6-0.5,3.8,0.2
	c1.5,0.8,2.9,1.6,4.6,1.9c0.4,0.1,0.8,0.4,1.2,0.6c7.7,4.3,14.2,10,18.8,17.5c1.5,2.3,2.5,5,3.6,7.5c0.4,0.8,0.8,1.7,0.7,2.5
	c-0.2,1.5,0.2,2.8,0.7,4.2c0.3,0.8,0.2,1.5-0.1,2.3c-1.4,3.7-4,6.1-7.6,7.4c-2.4,0.9-4.9,1.4-7.5,1.4c-4.2,0-8.5-0.1-12.7-0.1
	c-2.7,0-5.3,0-8,0.1c-1.4,0.1-2.9,0.4-4.3,0.8c-2.9,0.8-5.2,2.5-6.5,5.3C414.3,615.1,414.1,615.5,413.6,616.3z"/>
<path class="st8" d="M222.3,305.5c3.3-4.7,6.4-9.3,9.6-13.9c3.1-4.5,6.2-9,9.3-13.4c3.1-4.5,6.3-9.1,9.6-14
	c-9-2.1-17.6-3.8-26.1-5.7c-8.4-1.8-16.9-3.5-25.6-5.5c2.1-4,4.2-8.1,6.4-12.1c3.6-6.8,7.3-13.6,11-20.3c-1.6,6.1-3.3,12.2-4.9,18.4
	c0.3-0.6,0.7-1.2,0.9-1.8c0.7-1.6,1-3.4,2.4-5.3c-0.5,3.4-0.9,6.3-1.3,9.2c1.6-0.2,0.9-2,2.3-2.5c0,1.1,0,2.1,0,3.6
	c1.8-2.2,3.3-4,4.8-5.8c1.6-1.9,3.1-3.8,4.7-5.7c1.5-1.8,2.9-3.6,4.9-5.7c0,3.2-1,5.7-1.5,8.2c-0.5,2.6-1.3,5.1-1.6,8.2
	c2.2-2.5,3.1-5.2,5.3-7.8c-0.3,1.9-0.5,3.1-0.7,4.4c0.8,0.4,1-0.3,1.4-0.6c1.3-1.4,2.5-2.8,3.8-4.2c0.4-0.4,0.8-0.7,1.2-1.1
	c0.6,0.9,0.1,2.2,1.6,2.4c-1.3,3-3.2,5.6-4.5,8.8c5.6,1.4,11.1,1.8,16.6,3.1c0.5,0.8,1.1,1.6,1.7,2.4c3.6,5.7,7.2,11.5,10.9,17.2
	c0.8,1.2,1.1,2.4,0.7,3.8c-0.3,1-0.5,1.9-0.6,2.9c-0.2,1.7-1,3.1-2,4.5c-5.7,7.7-10.7,15.8-15.7,24c-0.2,0.4-0.3,0.8-0.5,1.3
	c1.1,2,3,3.2,4.5,4.9c1.4,1.6,3,3,4.4,4.5c0.1,2.9-0.4,5.6-0.9,8.5c-0.5-0.1-1-0.2-1.6-0.4C243.6,318,233.1,313.7,222.3,305.5z"/>
<path class="st9" d="M414.5,621c0.1-1.2,0.2-2,0.4-2.9c0.6-3.6,2.7-6.1,6.2-7.2c1.5-0.5,3-0.8,4.6-0.9c2.5-0.2,5.1-0.1,7.7-0.1
	c4.1,0,8.2,0.2,12.4,0.1c2,0,4-0.3,6-0.7c3.7-0.8,6.9-2.5,9.1-5.7c0.3-0.4,0.6-0.7,0.9-1c0-0.1,0.2,0,0.6,0c0.4,2.3,0.9,4.7,1.1,7.1
	c0.5,4.6,1.2,9.3,0.3,14c-0.3,1.7-0.8,3.5-1.5,5.1c-1.1,2.5-3.1,4-5.8,4.5c-0.2,0-0.4,0.1-0.7,0.1c-5.7,0.5-10.7,2.7-15.5,5.8
	c-6.5,4.2-13.2,8.3-19.8,12.4c-1,0.6-2.1,1.3-3.2,2c-1.7-0.7-3.5-1.5-5.5-2.3c0.9-0.7,1.5-1.2,2.3-1.8c-0.1-0.7-0.2-1.6-0.4-2.5
	c-2-10-4.3-20-7.5-29.8c-2-6.2-4.3-12.2-7.4-17.8c-1.2-2.1-2.4-4.3-3.9-6.2c-1.5-2-3.3-3.9-5-5.8c-1-1.2-2.3-1.7-3.9-1
	c-0.8,0.3-1.7,0.4-2.8,0.6c0.1-1.7,1-2.7,2.1-3.4c1-0.6,2.2-0.6,3.2-0.1c1.1,0.5,2.2,1.1,3.1,1.9c1.6,1.4,3.1,2.9,4.4,4.5
	c2.2,2.8,4.3,5.7,6.2,8.7c4.4,7,8.5,14.1,11.5,21.8C413.7,620.5,414,620.6,414.5,621z"/>
<path class="st5" d="M437.4,564.1c0.8-0.4,1.2-0.7,1.6-0.8c8.5-2.1,17.1-4,25.9-4.3c0.8,0,1.6,0,2.3,0c1.9-0.1,3.5,0.5,4.9,1.6
	c2.9,2.4,5.9,4.7,8.9,7c2.6,2,5.3,4.1,7.9,6.1c3.2,2.4,6.5,4.7,9.6,7.2c6.4,5.1,10.7,11.5,12.6,19.5c0.3,1.1,0.6,2.1,0.2,3.4
	c-0.4-0.3-0.8-0.5-1.1-0.8c-0.8-0.8-1.5-1.6-2.2-2.5c-1-1.3-2.3-1.7-3.8-1.4c-2.2,0.4-4.4,0.7-6.5,1.3c-6.3,1.7-12.6,3.5-19,5.2
	c-0.9,0.2-1.7,0.4-2.6,0.7c-2.3,0.8-4.4,0.3-6.3-1c-2.7-1.7-4.7-4-6.6-6.6c-0.4-0.5-0.5-1.2-0.6-1.8c-1.6-10.1-7.2-18-14.3-25.1
	c-2.5-2.4-5.3-4.4-8.3-6.1C439.4,565.2,438.6,564.8,437.4,564.1z"/>
<path class="st2" d="M407.6,435.4c-0.1-0.7-0.3-1.2-0.3-1.8c-1.1-16.1-2.2-32.2-3.3-48.3c0-0.3,0.1-0.6,0.2-0.9
	c5.3,0.1,20.7,6.3,27.1,10.9c0.3,1.1,0.6,2.3,0.8,3.4c0.3,1.5,0.9,3,1.9,4.2c0.7,0.9,1.3,1.7,1.6,2.9c0.3,1.6,1.5,2.5,3,2.7
	s3.1,0.3,4.6,0c2.9-0.7,5.8-1.7,8.6-2.5c0.4-0.1,0.8-0.3,1.4-0.5c0.4,0.5,1,0.9,1.2,1.4c0.8,1.6,1.5,3.2,2.3,4.8
	c1.3,2.9,2.6,5.9,4,9c-0.6,0.3-1.3,0.7-2,1c-10.1,3.7-20.5,6.6-31,9.1c-5.6,1.4-11.3,2.6-16.9,3.9
	C409.9,435,408.8,435.1,407.6,435.4z"/>
<path class="st6" d="M365.4,491.9c-1.2-7.1,2.6-40.2,5.1-50.1c1.4-0.6,3-0.6,4.5-0.7c7-0.7,14-1.3,20.9-2.1
	c3.8-0.4,7.5-1.2,11.2-1.8c2.3-0.4,4.5-0.2,6.9,0.4c5,1.3,10.2,2.4,15.3,3.3c5.9,1,11.9,1.7,17.8,2.6c0.9,0.1,1.8,0.2,2.6,0.5
	c4.5,1.9,9,3.8,13.5,5.9c1.5,0.7,2.8,1.8,4.2,2.8c1.2,0.9,1.7,2,1.3,3.5c-0.3,1-0.5,2.1-0.8,3c-0.7,0.5-1,0.2-1.4-0.1
	c-9.2-6.7-19.6-10.3-30.6-12.6c-7-1.5-14.1-2.1-21.2-1.4c-0.7,0.1-1.3,0.1-2,0.2c-5,0.7-5.4,0.8-8.9,4.5
	c-9.2,9.9-18.3,19.8-27.4,29.7c-3.2,3.5-6.4,7.1-9.5,10.7C366.3,490.6,365.9,491.3,365.4,491.9z"/>
<path class="st6" d="M477.6,465.3c0.2-3.1,0.3-6.1,0.5-9.2c3-1.2,6-1.4,8.9-1.7c13.7-1.6,27.4-2.6,41.2-3.1c1.1,0,2.2,0.1,3.5-0.7
	c-0.5-0.4-0.9-0.8-1.3-0.9c-2.5-0.4-5-0.7-7.5-1c-0.1-0.7,0.3-0.9,0.7-1c7.8-0.7,15.5-1.4,23.3-1.4c1.1,0,2.2,0.2,3.2,0.7
	c6.7,3.3,13.4,6.5,20,9.9c3.3,1.7,6.5,3.8,9.8,5.8c0.8,0.5,1.5,1.2,2.6,2.2c-5.2,1.3-9.9,2.4-14.6,3.5c-0.6,0.1-1.3,0-2-0.1
	c-8.5-1-17.1-0.7-25.7-0.3c-4.1,0.2-8.2,0.4-12.3,0.6c-0.3,0-0.6-0.1-0.9-0.2c0-0.2,0-0.3,0-0.4s0.2-0.2,0.3-0.2
	c4.8-2,9.6-4.1,14.4-6.1c0.1,0,0.2-0.1,0.3-0.2c-0.3-0.9-1-0.6-1.6-0.6c-14,0.6-27.9,2-41.5,6.1c-0.3,0.1-0.6,0.1-1.2,0.2
	c-0.3-0.6-0.7-1.2-1-1.9c-0.8-1.8-1.8-3.6-3.3-4.9c-2.7-2.4-6.1-2.9-9.2-1c-1.5,0.9-2.7,2.3-4,3.5c-0.8,0.8-1.4,1.7-2,2.6
	C478.1,465.4,477.9,465.3,477.6,465.3z"/>
<path class="st10" d="M535.5,462.4c-2.1,1.6-3.9,2.1-5.6,2.8c-1.7,0.8-3.5,1.5-5.2,2.3c-1.7,0.7-3.4,1.5-5.2,2.3
	c0.5,1,1.3,0.7,1.8,0.6c6.3-0.3,12.7-0.8,19-1c6.6-0.2,13.1-0.2,19.7-0.3c0.7,0,1.5,0.1,2.2,0.2c0.2,1-0.6,1-1,1.1
	c-6.3,2-12.5,3.9-18.8,5.9c-6.4,2.1-12.8,4.4-19.2,6.6c-1.8,0.6-3.5,1.5-5.2,2.3c-0.7,0.3-1.3,0.8-2.2,1.4c1.2,0.8,2.3,0.8,3.3,0.9
	c4.6,0.7,9.2,1.4,13.8,2.1c0.5,0.1,1,0.3,2.1,0.7c-1,0.3-1.4,0.5-1.7,0.6c-8.9,2-17.8,4.1-26.5,6.7c-2.2,0.7-4.5,1.4-6.6,2.2
	c-1.1,0.4-2.2,1-3.3,1.7c-0.4,0.2-0.5,0.8-0.9,1.5c1.9,0.7,3.7,0.5,5.5,0.7c1.7,0.2,3.3,0.4,5,0.5c1.7,0.2,3.4,0.3,5.5,1
	c-8.7,2.6-17,5.1-25.3,7.6c-0.3,0.1-0.6,0-1,0c0-1.3,0.9-2.1,1.4-3c4.5-8,8.1-16.4,10.3-25.3c0.7-2.8,1.1-5.7,1.4-8.5
	c0.2-1.6-0.1-3.3-0.2-5c0-0.8-0.1-1.5-0.1-2.5C510.3,464.7,522.5,463.4,535.5,462.4z"/>
<path class="st11" d="M230.7,478.1c-1.1,2.1-2.4,3.2-3.4,4.5c-0.9,1.3-1.9,2.5-2.8,3.7c-0.9,1.3-2,2.6-2.9,4.7
	c2-1.1,3.1-2.3,4.4-3.2c1.3-0.9,2.5-1.8,3.9-2.6c1.4-0.9,2.8-1.8,4.3-2.6c1.4-0.8,2.9-1.6,4.4-2.3c1.4-0.7,2.8-1.4,4.2-2
	c1.5-0.7,3.1-1.3,4.9-2c-1.7,15.5,0.6,30,7.3,44c-0.7,0-1.3,0-1.9-0.1c-3.9-0.9-7.8-1.8-11.7-2.6c-1.2-0.3-2.4-0.3-3.6-0.5
	c-1.1-0.2-2.2-0.4-3.6-0.6c0.6-0.7,0.9-1.1,1.3-1.4c2-1.3,4-2.4,6-3.7c0.5-0.3,0.9-0.8,1.4-1.2c-0.5-1.1-1.3-1-2.1-1
	c-2.9,0.3-5.8,0.5-8.6,0.9c-7.7,0.9-15.4,2.3-22.9,4.2c-0.6,0.2-1.3,0.1-2.2,0.2c0.9-1.9,2.4-2.9,3.6-4.1c1.3-1.2,2.6-2.4,3.9-3.6
	c1.3-1.2,2.7-2.3,4-3.5s2.7-2.2,4.1-3.6c-1.2-1.1-2.4-1.2-3.6-1c-1.9,0.2-3.8,0.4-5.6,0.8c-4.9,1-9.8,2.2-14.6,3.3
	c-0.6,0.1-1.3,0.2-2.1,0.3C199.8,498.8,222.7,481.9,230.7,478.1z"/>
<path class="st12" d="M474,175.7c-0.4,6.4-1.2,12.6-3,18.7c-0.4,1.3-0.9,2.5-1.3,3.8c-0.6,2.1-2.2,3.2-4.2,3.8c-3.3,1-6.6,1-9.8-0.1
	c-9.2-2.9-15.8-12.1-14.7-21.7c1.2-10.9,7.5-17.5,18.4-18.6c2.8-0.3,5.5-0.3,8.3,0.6c0.7,0.2,1.5,0.5,2.2,0.8c2.3,1,3.7,2.7,3.9,5.3
	C473.7,170.8,473.9,173.3,474,175.7z"/>
<path class="st1" d="M190.4,592c-0.4-3.1,0.7-5.8,2.4-8.1c1.3-1.8,2.8-3.5,4.3-5.1c2.3-2.4,4.4-5,6.1-7.9c3.1-5.1,7.4-9.2,12.7-12
	c3.8-2.1,7.7-4,11.5-6.1c2.3-1.2,4.5-2.4,6.7-3.7c0.8-0.5,1.6-0.7,2.5-0.8c1.7,0,3.3-0.1,5-0.3c3-0.4,5.2,0.9,6.9,3.1
	c2.2,2.8,3.4,8.2,2.8,12.1c-1.7,0.3-3.5,0.4-5.2,0.9c-2.9,0.8-5.8,1.7-8.5,2.8c-6.1,2.6-12.2,5.3-18.3,8.1c-1.2,0.5-2.2,1.5-3.1,2.4
	c-2.1,2.1-4,4.5-6.2,6.6c-2.2,2.2-4.5,4.3-7,6.2c-1.6,1.2-3.4,2.1-5.3,2.8C195.4,593.8,192.8,593.7,190.4,592z"/>
<path class="st1" d="M266.1,582.6c-0.6,0.2-1.4,0.4-2.1,0.6c-2.7,0.7-5.4,1.3-8.1,2c-1.3,0.3-2.5,0.9-3.7,1.4
	c-1.8,0.8-3.2,2-3.9,3.9c-1.6,4.6-5.1,7.4-9.1,9.8c-0.4,0.2-0.8,0.5-1.2,0.7c-2.7,1-4.2,3.2-5.4,5.6c-1,2.1-1.9,4.3-2.9,6.3
	c-1.1,2.3-2.3,4.5-3.7,6.7c-1.2,1.9-2.8,3.5-4.9,4.5c-2.1,1-4.5,0.6-6.1-1.1c-0.9-0.9-1.3-2-1.1-3.3c0.5-3.7,1.4-7.2,2.8-10.6
	c1-2.5,2-4.9,3.1-7.4c0.4-0.9,0.9-1.8,1.6-2.5c3.9-4.3,7.8-8.5,11.8-12.7c2.6-2.7,5.4-5.3,8.2-7.9c1.8-1.7,3.9-3,6.1-4
	c1.9-0.8,3.8-1.8,5.7-2.7c0.9-0.5,1.9-0.5,2.9-0.2c4.9,1.7,8.5,4.7,10,9.9C266.3,582,266.2,582.2,266.1,582.6z"/>
<path class="st12" d="M292.8,202.6c-0.6-0.8-1.2-1.5-1.8-2.3c-6-7.8-11.9-15.8-18.1-23.5c-1.9-2.4-2.2-4.7-1.8-7.4s1.9-4.8,4.3-6
	c1.5-0.7,3.1-1.4,4.7-1.6c9-1.3,20.5,4.2,23.2,14.4c0.7,2.7,1.4,5.4,1.4,8.2c-0.1,1.9-0.4,3.7-1.1,5.5
	C301.9,194.2,297.2,199.8,292.8,202.6z"/>
<path class="st13" d="M494.2,384.9c0.8,1.4,0.5,2.5,0.5,3.6c0,1.5,0,3.1,0,4.7c0,4.8-1.3,8.9-5.1,12c-3.1,2.5-6.4,4.8-9.9,6.8
	c-5.5,3.2-11.4,5.3-17,8.2c-1.2-0.9-1.6-2.1-2.1-3.2c-1.4-2.9-2.6-5.9-4-8.8c-0.5-1.1-1.1-2.2-1.8-3.2c-0.6-0.9-1.2-1.1-2.3-0.8
	c-0.9,0.3-1.6,0.7-2.5,0.9c-2.4,0.7-4.9,1.5-7.4,2.1c-1.5,0.4-3.1,0.5-4.5-0.3c-0.5-0.3-0.8-0.9-1.7-1.7c3.4,0.5,6.1,0.2,8.7-0.9
	c2.5-1,5-2,7.3-3.3c3.8-2.3,7.5-4.8,11.2-7.2c1-0.7,2-1.4,3.1-2.2c0.1,0.9,0.2,1.6,0.3,2.6c3.2-0.4,6-1.9,8.9-2.9
	c3.1-1,6.1-2.1,9.1-3.2C488.1,387,491.1,386,494.2,384.9z"/>
<path class="st1" d="M190.4,549.6c-0.6-1.6-0.3-2.8,0.6-3.9c1.7-2,3.4-4,6-5.2c2.7-1.3,5.1-3.1,7.7-4.7c4.6-2.8,9.1-5.5,13.7-8.3
	c1.3-0.8,2.6-0.9,4.1-0.8c4.8,0.5,9.5,0.6,14.3,1.1c3.3,0.3,6.6,0.7,9.9,1.4c3.4,0.7,4.8,2.5,5.2,6c0.3,2.7-0.2,5.3-1.7,7.9
	c-1.7,0-3.5,0.2-5.2,0.1c-5.3-0.3-10.6-0.7-16-1c-2.9-0.1-5.8,0-8.6,0.3c-4.1,0.4-8.1,1.7-11.5,4.2c-4.7,3.5-9.9,4.1-15.5,3.4
	C192.3,550,191.4,549.8,190.4,549.6z"/>
<path class="st13" d="M166.3,568.9c0.3,1.7-0.1,3.3-0.3,4.9c-0.3,2.2-0.7,4.4-1,6.6c-0.3,2.3-0.4,4.6-0.6,7
	c-0.4,5.7-1.2,11.3-1.8,16.9c-0.1,1.3-0.3,2.7-0.4,4c-0.1,1.1-0.3,2.2-0.5,3.4c-0.5-0.2-0.9-0.3-1.1-0.5c-3.6-3.4-7.3-6.9-10.9-10.3
	c-3.1-3-6.3-5.9-9.4-9c-1.3-1.3-2.4-2.9-3.6-4.4c-0.6-0.8-0.8-1.6-0.4-2.5c5.8-13.7,17.8-19.1,29-16.5
	C165.6,568.6,165.9,568.7,166.3,568.9z"/>
<path class="st14" d="M512.2,620.2c-1.1-0.2-2.1-0.2-3-0.4c-4.7-1-9.4-1.8-14-2.9c-1.9-0.4-3.5-0.2-5.1,0.8
	c-1.9,1.2-3.7,2.5-5.6,3.6c-1.8,1.1-3.7,2.1-5.6,2.9c-2.5,1-5,1.1-7.3-0.6c-0.4-0.3-0.7-0.5-1.1-0.7c-1-0.5-1.9-0.3-2.6,0.7
	c-0.7,0.8-1,2-2.4,2c-0.7-0.3-0.5-1-0.4-1.5c0.8-5.3,0.2-10.6-0.5-15.9c-0.2-1.9-0.4-3.8-0.6-5.6c0-0.1,0.1-0.1,0.3-0.4
	c0.4,0.3,0.8,0.7,1.2,1c1.1,0.9,2.1,2,3.3,2.8c2.5,1.8,5.1,2.4,8.2,1.5c6.2-1.8,12.4-3.5,18.6-5.1c2.7-0.7,5.4-1.2,8.1-1.8
	c1.7-0.4,2.9,0.1,4.1,1.4c5.3,5.8,5.4,6,5,13.9C512.7,617.3,512.7,618.7,512.2,620.2z"/>
<path class="st1" d="M229.3,631c-0.5-1.7-0.3-3.2,0.2-4.7c1-3.2,2.8-6.1,4.6-8.9c1.3-2,2.5-4,3.7-5.9c0.6-0.9,1.2-1.9,2-2.6
	c4.8-4.6,9.7-9.2,14.6-13.7c0.9-0.8,1.9-1.6,3.1-2c3.5-1.2,7-2.3,10.5-3.4c3.2-1,5.7,0.2,7.6,2.7c1.8,2.3,2.8,5,3.4,8.1
	c-0.6,0.4-1.2,1-1.9,1.2c-3,0.9-5.9,1.8-8.9,2.7c-2.8,0.8-5.6,1.4-8.4,2.1c-3.2,0.8-5.6,2.5-7.4,5.3c-1.4,2.2-2.8,4.3-4.3,6.3
	c-1.9,2.6-3.8,5.2-5.8,7.7c-1.5,1.8-3.2,3.4-5.3,4.6C234.5,631.8,232.1,632.5,229.3,631z"/>
<path class="st13" d="M451.2,553.5c7.1-7.8,13-16.3,15.9-26.7c4.3,0.2,7.5-1.9,10.5-4.6c1.8-1.6,3.4-3.5,5-5.3
	c0.7-0.8,1.3-1.5,2.3-1.8c4-1.3,8-2.6,12.1-3.8c0.3-0.1,0.6,0,1.1,0.1c-2.8,3.8-3.5,8-3.8,12.4c0,0.8-0.2,1.5-0.3,2.3
	c-0.4,3.1-1.7,5.7-4.6,7.3c-2.1,1.2-4,2.8-6.1,4c-9.5,5.6-19.1,10.8-29.2,15.4c-0.8,0.4-1.6,0.6-2.5,0.9
	C451.5,553.7,451.4,553.6,451.2,553.5z"/>
<path class="st13" d="M507,528.3c-1,0.7-2,1.3-3,2c-4.5,2.9-8.6,6.4-11.7,10.8c-1,1.3-1.8,2.8-2.5,4.3c-1.2,2.7-1.1,5.5,0.3,8
	c0.8,1.5,1.8,2.8,2.8,4.1c1.3,1.7,2.8,3.2,4.2,4.7c5,5.6,9.4,11.6,12.8,18.3c2.3,4.5,4.1,9.1,4.5,14.2c0.2,2.2,0.1,2.9-1,5.8
	c-0.3-0.8-0.5-1.4-0.6-2c-1.6-6.2-4.9-11.5-9.6-15.7c-2.9-2.6-6-5-9.1-7.3c-3.4-2.6-7-5.1-10.5-7.8c-3.6-2.8-3.6-2.8-2.6-7.3
	c0.6-2.5,1.2-5,2.2-7.4c2.1-5.5,4.4-10.9,6.6-16.4c0.7-1.9,2-3.2,3.7-4.1C497.7,530.5,502.2,529,507,528.3z"/>
<path class="st7" d="M373.2,589.5c-3.5,0.7-7,1.4-10.5,2.1c-0.4,0.1-0.9,0-1.3-0.1c-4-0.5-7.9-1-11.9-1.4c-1.5-0.1-2.6-0.7-3.5-1.7
	c-1-1.1-1.9-2.2-2.7-3.4c-1.6-2.4-3.1-4.8-4.8-7.2c-1.3-1.8-2.6-3.6-3.9-5.4c-0.9-1.1-1.9-2.2-3.4-2.6c-2-0.5-3.4-1.9-5.4-2.8
	c1.1-1.5,2.5-1.7,3.9-1.8c2.2-0.1,4.1,0.8,6,1.7c2.9,1.5,5.7,2.9,8.7,4.2c5.1,2.3,10.4,3.9,15.9,4.8c2.2,0.4,4.4,0.9,6.5,1.6
	C372.1,579.4,374.3,583.2,373.2,589.5z"/>
<path class="st15" d="M496.4,397.3c2.7-0.1,5.3,0.5,7.8,1.2c10.6,2.6,21.2,5.2,31.7,7.9c0.5,0.1,1,0.4,1.7,0.7
	c-3,1-62,11.1-66.8,11.4c1.1-0.6,1.8-1.1,2.5-1.5c3.5-2,7-3.9,10.4-6c2-1.2,3.9-2.6,5.7-4.1C493.7,403.7,494.7,402.2,496.4,397.3z"
	/>
<path class="st10" d="M565.8,446.8c-18-3.2-35.5-1.2-53.5,1c2.6,1.4,5.2,1.1,7.5,2.1c-1,0.8-2.2,0.4-3.3,0.5c-1.3,0.2-2.7,0.3-4,0.4
	c-1.2,0.1-2.4,0.1-3.7,0.2s-2.4,0.1-3.7,0.3c-1.3,0.1-2.7,0.3-4,0.4c-1.2,0.1-2.4,0.2-3.7,0.3c-1.3,0.1-2.6,0.3-4,0.4
	c-1.2,0.1-2.4,0.3-3.6,0.4s-2.4,0.2-3.6,0.4c-1.3,0.2-2.6,0.4-4,0.6c-1.2,0.2-2.4,0.4-3.7,0.6c-0.5-1-0.6-2-0.5-3
	c0.4-0.2,0.7-0.4,1.3-0.7c-0.2-1.5-0.5-3.2-0.7-4.6c0.6-1,1.5-0.8,2.2-0.8c8.1-0.1,16.2-0.1,24.4-0.4c9-0.3,18-0.7,27-1.3
	c4.9-0.3,9.7-1.1,14.6-1.6c6.1-0.6,12,0.3,17.4,3.2c0.4,0.2,0.7,0.5,1.1,0.7C565.4,446,565.4,446.1,565.8,446.8z"/>
<path class="st16" d="M436.7,562.9c0.2-0.3,0.3-0.9,0.6-1c1-0.5,2-1,3-1.4c11-4.8,21.9-9.8,32.5-15.5c4.4-2.4,8.6-5,13-7.5
	c0.6-0.4,1.3-0.7,2.5-1.3c-3.7,9.3-7.7,17.8-9.4,27.5c-0.7-0.4-1.3-0.6-1.8-1c-1.4-1-2.7-1.9-4-3c-2.3-2-4.9-2.5-7.8-2.2
	c-3.4,0.4-6.9,0.6-10.3,1.2c-5.3,0.9-10.5,2.1-15.7,3.2C438.5,562.1,437.6,562.5,436.7,562.9L436.7,562.9z"/>
<path class="st4" d="M279.2,258.3c-1.2,6.3-7.1,17.6-10.7,20.7c-1.7-2.5-3.4-4.9-2.3-8.2c0.3-0.9,0.4-1.9,0.7-3.1
	c-6.7-10.5-13.4-21-19.1-32.2c1.3,0.2,2,1.3,2.8,2s1.6,1.5,2.5,2.3s1.8,1.6,2.8,2.4c0.9,0.8,1.9,1.6,2.8,2.3s1.8,1.4,2.6,2
	c1,0.7,2,1.5,3,2.2c0.9,0.6,1.8,1.3,2.7,1.9c1,0.7,2,1.4,3.1,2c1,0.7,2.1,1.3,3.1,2c0.9,0.6,1.9,1.2,2.8,1.8
	C277.1,257,278.1,257.6,279.2,258.3z"/>
<path class="st17" d="M600.3,621.4c-1.7-10.5-3.6-20.5-6.1-31.2c1.9,1,3,1.6,4.2,2.3c5.9,3.7,11.5,8,16.9,12.4
	c1.7,1.4,2.5,3,2.5,5.3C612.9,615.1,607.5,619.2,600.3,621.4z"/>
<path class="st13" d="M276.2,532.5c0.4,1.4,0.7,2.5,1,3.7c0.1,0.4,0,0.8,0,1.5c-1.1-0.3-2-0.6-3-0.9c-7-2.4-14-4.9-21.1-7.3
	c-4.9-1.6-9.8-2.8-14.9-3.4c-2.3-0.2-4.6-0.3-7.1-0.4c-3.4-3.7-5.6-7.8-4.3-13.1c2.3-1,8.2-1.8,12-1.6c-0.6,1-1.6,1.3-2.4,1.8
	c-0.8,0.6-1.7,1-2.5,1.7c-0.8,0.6-1.4,1.4-2.3,2.3c0.8,0.4,1.3,0.8,1.8,0.9c3.7,0.7,7.4,1.3,11.2,2c3.5,0.7,6.9,1.5,10.4,2.3
	c1.2,0.3,2.2,0.8,3,1.9c2.1,2.6,4.7,4.7,7.5,6.6C268.7,532.5,272,534.3,276.2,532.5z"/>
<path class="st18" d="M368.6,441.7c0.1,1.5,0.1,2.9-1,4.1c-7.4,8.7-14,18.1-20.9,27.2c-0.7,1-1.4,2-2.6,3c0-0.8-0.1-1.2,0-1.6
	c2.3-11,4.8-21.9,8.1-32.7c2.9-0.6,5.6-0.3,8.4-0.3C363.3,441.5,366,441.2,368.6,441.7z"/>
<path class="st4" d="M512,73.7c-4.8,5-41.6,29.4-49.8,33c-0.8-0.7-1-1.8-1.4-2.8c-0.5-1.1-0.9-2.3-1.3-3.4c-0.4-1-0.8-2.1-1.2-3.1
	c0.4-0.2,0.7-0.4,1-0.5c9-2.3,17.5-5.9,25.8-9.9c8-3.9,15.9-8,23.8-12C509.9,74.5,510.7,73.7,512,73.7z"/>
<path class="st19" d="M251.5,565.1c0.3,1.4-0.2,2.5-0.5,3.8c-1.3,0.2-2.6,0.5-3.9,0.7c-5,1-9.5,3.1-14,5.3
	c-4.8,2.4-9.5,4.9-14.2,7.5c-0.9,0.5-1.6,1.2-2.2,1.9c-2.9,3.3-6.1,6.2-9.7,8.6c-2.1,1.4-4.4,2.7-6.9,3.3c-2,0.5-4,0.6-5.9-0.3
	c-0.3-0.1-0.5-0.4-0.9-0.8c0.4-0.2,0.6-0.4,0.8-0.4c3.5,0.2,6.5-1.2,9.3-3.1c2.9-2,5.4-4.3,7.8-6.8c1.9-2,3.8-4.1,5.7-6.1
	c1.2-1.3,2.6-2.3,4.3-3.1c5.5-2.4,11-4.9,16.5-7.2c2.8-1.2,5.6-2.1,8.5-2.9C247.9,565,249.7,564.6,251.5,565.1z"/>
<path class="st4" d="M240,118.5c3.1-1.4,6.2-1.6,9.2-2.5s6-1.6,9-2.5c3-0.9,6-1.8,9-2.7c3-0.9,5.9-1.9,8.9-2.9s5.9-2,9.1-3.1
	c-0.1,0.8,0,1.3-0.2,1.8c-0.8,2.3-1.7,4.6-2.3,6.9c-0.5,1.8-1.5,2.5-3.3,2.6c-3.3,0.3-6.6,0.8-10,1c-9.5,0.5-18.9,0.9-28.4,1.4
	C240.8,118.7,240.6,118.6,240,118.5z"/>
<path class="st19" d="M266.8,584.5c0,1.2,0,2.4,0,3.8c-0.6,0.3-1.3,0.7-2,0.9c-2.4,0.9-4.8,1.7-7.2,2.5c-1.5,0.5-2.8,1.3-4,2.4
	c-4.9,4.6-9.9,9.2-14.8,13.9c-1,1-1.8,2.3-2.4,3.5c-1.8,3.2-3.9,6.2-6.7,8.7c-1,0.8-1.9,1.7-3.2,2.2c-0.1-0.3-0.1-0.4-0.1-0.5
	c2.7-3.8,4.6-8.1,6.5-12.3c0.4-0.8,0.8-1.6,1.1-2.4c1-2.2,2.5-3.8,4.7-4.9c1.8-0.8,3.4-2.1,5-3.2c2.4-1.7,4.3-3.9,5.3-6.7
	c1-2.6,2.8-4.2,5.4-5.1c3.7-1.3,7.4-2.2,11.3-2.8C266,584.3,266.3,584.5,266.8,584.5z"/>
<path class="st6" d="M259.1,414.4c-6.4-2.5-12.4-5-18.1-8.4c0-3.9,0-7.6,0-11.5c0.3,0,0.6-0.2,0.9,0c5.6,2.9,11.2,5.8,16.8,8.7
	c0.3,0.1,0.5,0.4,0.8,0.6C260,406.4,259.8,411.1,259.1,414.4z"/>
<path class="st19" d="M279,602.7c0,1.3,0,2.2,0,3.2c-1.5,0.4-2.9,0.6-4.2,1.1c-6.3,2.1-11.9,5.4-17.1,9.5c-1,0.7-1.7,1.8-2.5,2.7
	c-2.8,3.5-5.7,6.8-9.1,9.7c-1.9,1.7-4,3.2-6.4,4.2c-1.7,0.7-3.4,1.3-5.9,0.7c0.7-0.5,1-0.8,1.3-0.9c2.5-0.8,4.6-2.2,6.3-4.2
	c2.1-2.4,4.2-4.9,6.1-7.5c2.1-2.8,4-5.6,5.8-8.5c1.6-2.5,3.8-4,6.6-4.7c1.6-0.4,3.2-0.9,4.8-1.3C269.5,605.7,274.2,604.6,279,602.7z
	"/>
<path class="st19" d="M166.3,583.9c0-3.1,1.3-12.3,2-14.5c5.9-0.2,11.9-0.2,17.9-0.5s11.9-1,17.9-2.5c-0.5,2.1-1,2.8-3.9,6
	c-0.8,0-1.8,0.1-2.8,0.1c-5.3,0.2-10.7,0.4-16,0.6c-1.6,0-3.1,0.5-4.3,1.5c-2.8,2.3-5.6,4.7-8.5,7
	C167.9,582.3,167.4,582.9,166.3,583.9z"/>
<path class="st15" d="M318,396.5c0-1.7,0-2.9,0-4c0.8-1.1,2-1.2,3-1.6c9-3.3,18.3-5.6,27.7-7.3c9.7-1.7,19.4-2.5,29.2-2.4
	c7,0.1,14,0.6,20.9,1.8c1,0.2,2,0.4,2.9,0.7c0.2,0.1,0.3,0.5,0.5,0.8c-0.8,0.8-1.7,0.4-2.5,0.3c-6.2-0.9-12.4-1.3-18.6-1.4
	c-6.6-0.1-13.1,0.1-19.7,0.7c-7.5,0.8-15,2.1-22.3,4.2c-6.3,1.8-12.5,4.1-18.4,7C320,395.6,319.2,395.9,318,396.5z"/>
<path class="st3" d="M239.9,407.6c6.6,2.9,13.1,5.7,19.5,8.6c0.6,3.2,0.5,6.9-0.1,9.6c-0.7-0.2-1.5-0.2-2.2-0.5
	c-4.7-1.7-14.7-6.8-17.4-8.7c0-2.4-0.1-4.9-0.1-7.5C239.7,408.7,239.8,408.3,239.9,407.6z"/>
<path class="st6" d="M273.7,455.1c0.1-2.8,0.9-4.6,1.7-6.4c0.3-0.6,1-1.2,1.6-1.6c7.8-5.4,16.4-8.4,25.9-8.8
	c4.5-0.2,8.9,0.4,13.3,0.9c3.9,0.4,7.7,0.8,11.6,1.1c2.7,0.3,5.3,0.4,8,0.7c2.4,0.3,4.4,1.5,6.2,3.1c-0.5-0.1-1,0-1.5-0.2
	c-6.2-1.8-12.6-3-19-3.5c-10.3-0.7-20.5,0.2-30.2,3.9c-5,1.9-9.5,4.8-13.8,8C276.4,453.1,275.4,453.9,273.7,455.1z"/>
<path class="st19" d="M249.1,544.8c-0.3,0.5-0.3,1-0.6,1.1c-0.6,0.3-1.3,0.4-1.9,0.5c-3.2,0.2-6.4,0.5-9.6,0.6
	c-2.1,0-4.2-0.3-6.3-0.3c-2.8-0.1-5.6-0.2-8.3-0.2c-0.6,0-1.3,0.3-1.9,0.6c-3.5,1.6-7.1,3.2-10.6,4.9c-2.5,1.2-5.2,2-7.9,2.4
	c-3.4,0.5-6.6,0.1-9.3-2.2c0.1-0.8,0.7-0.5,1.1-0.5c2.7,0.3,5.3,0.3,8-0.3c2.7-0.5,5.1-1.4,7.3-3.1c3.8-2.8,8.1-4.1,12.7-4.5
	c4.7-0.5,9.3,0,14,0.2c4,0.2,8,0.4,12,0.6C247.9,544.7,248.4,544.7,249.1,544.8z"/>
<path class="st20" d="M482.2,378.8c0.3,1.1-0.4,1.6-0.7,2.3c-0.3,0.8-1.2,1.6-0.6,2.4c0.8,1.1,1.9,0.2,2.7,0
	c2.6-0.7,5.1-1.6,7.6-2.4c0.9-0.3,1.9-0.5,3-0.9c0,1.2,0,2.1,0,3.3c-8.3,2.9-16.5,5.8-24.7,8.7c-0.6-0.7,0-1.1,0.2-1.5
	c1.5-2.4,3.2-4.5,5.4-6.2c2-1.5,4-3.2,5.9-4.8C481.4,379.2,481.8,379,482.2,378.8z"/>
<path class="st9" d="M334.3,575.6c0.4,0.1,1,0,1.2,0.2c0.8,0.9,1.5,2,2.1,3c1.6,2.4,3.1,4.8,4.8,7.2c0.9,1.3,1.9,2.5,3,3.6
	c1,1.1,2.3,1.7,3.8,1.8c2.3,0.1,4.6,0.5,7.4,0.7c-0.7,0.4-1.1,0.8-1.5,0.9c-5.4,0.9-10.7,1.8-16.3,2.7c-0.1-0.8-0.3-1.5-0.3-2.3
	c0-5.8-1.3-11.2-3.4-16.5C335,576.4,334.5,576,334.3,575.6L334.3,575.6z"/>
<path class="st13" d="M494.5,378.4c-4,1.4-7.6,2.8-11.5,3.8c0.2-1.7,1.2-2.5,1.6-3.6c1.3-3.6,3.8-6.2,6.5-8.7
	c0.7-0.7,1.4-1.4,2.3-2.2c0.3,0.6,0.6,0.9,0.6,1.3C494.4,372,494.5,375.1,494.5,378.4z"/>
<path class="st14" d="M302.6,601c0,0.1,0,0.2-0.1,0.3s-0.2,0.2-0.3,0.2c-0.5,0.2-1.1,0.3-1.6,0.4c-6.6,1.2-13.2,2.5-20,3.7
	c-0.1-0.9-0.2-1.7-0.2-2.4c0-1.8,1-2.9,2.7-3.2c0.6-0.1,1.3-0.1,2,0c5.6,0.3,11.3,0.5,16.9,0.8C302.3,600.8,302.4,600.9,302.6,601z"
	/>
<path class="st13" d="M212.5,552.5c3.9-2.5,8-4.4,12.6-4.7c2.3-0.1,4.6-0.4,7.1,0.8c-2.8,1.9-5.6,3.1-8.4,4.3c-0.1,0-0.2,0-0.3,0
	C219.7,553,216.1,553,212.5,552.5z"/>
<path class="st14" d="M284.9,580.7c-3.1,2.4-12.3,6.4-16.3,7.1c-0.1-0.3-0.3-0.6-0.3-0.9c0-0.9,0-1.8,0-2.8c0.7-0.4,1.4-0.8,2-1
	c3.4-1.4,6.8-2.8,10.4-3.4c1.1-0.2,2.2-0.1,3.3,0C284.5,579.6,285,580,284.9,580.7z"/>
<path class="st19" d="M251.1,571.2c-1.2,0.6-2.1,1-3,1.5c-1.9,1-3.9,1.7-5.6,3c-1.8,1.3-3.7,1.8-5.8,2.1c-1.6,0.2-3.3,0.4-4.9,0.6
	c0-0.2,0-0.5,0.1-0.6c5.1-3.2,10.4-5.7,16.3-7C249,570.5,249.9,570.2,251.1,571.2z"/>
<path class="st14" d="M252.7,569.5c-0.3-1.4,0.3-2.7,0.6-3.9c2.4-0.5,10.9-0.8,13-0.4c-0.1,0.2-0.1,0.5-0.3,0.5
	c-3.2,1.3-6.3,2.6-9.5,3.9C255.2,570.1,253.9,570.2,252.7,569.5z"/>
<path class="st0" d="M504.1,351.2c-0.1-1.3-0.1-2.2-0.2-3s-0.2-1.5-0.5-2.3s-0.7-1.6-1.2-2.6c2.1-1.7,4.5-2.6,7.1-2.7
	c0.7,1.2,0.3,2-0.1,2.8C508,346.1,506.4,348.6,504.1,351.2z"/>
<path class="st0" d="M246.5,348.1c-0.9,2-1.6,4.1-0.8,6.5c-2.9-1-6.1-5.8-6.6-9.6c0.4-0.6,1-0.4,1.5-0.1c1.1,0.5,2.1,1.2,3.2,1.8
	c1,0.5,1.9,1.1,2.9,1.6C246.6,348.2,246.5,348.1,246.5,348.1z"/>
<path class="st13" d="M193.5,555.1c-4.2,0.1-8.1-0.3-12.1-2.1c1.1-1,2.3-1.1,3.3-1.6c1.1-0.5,2.3-0.9,3.5-1.3
	c0.9,0.9,1.8,1.7,2.6,2.5C191.6,553.5,193,553.7,193.5,555.1z"/>
<path class="st19" d="M374.7,582.8c1.5-0.7,2.9-1,4.6-1c-0.6,2.3-1.1,4.4-1.6,6.7c-0.8,0.2-1.6,0.3-2.7,0.6c0.1-1.2,0.2-2.2,0.1-3.1
	C375.1,584.9,374.9,583.9,374.7,582.8z"/>
<path class="st14" d="M257.7,545.6c-1.8,0.4-3.4,0.2-5,0.3c-0.5,0-1-0.1-1.5-0.2c0.1-0.3,0-0.7,0.2-0.7c1-0.7,2.1-0.4,3.2-0.4
	C255.6,544.5,256.7,544.5,257.7,545.6z"/>
<path class="st21" d="M334.2,575.6c0.1-0.1,0.2-0.2,0.3-0.3C334.4,575.4,334.4,575.5,334.2,575.6L334.2,575.6z"/>
<path class="st21" d="M436.7,562.9c-0.2,0-0.4,0-0.6,0c-0.1,0-0.2,0-0.3,0.1c0.1-0.1,0.2-0.2,0.3-0.2
	C436.3,562.7,436.5,562.8,436.7,562.9L436.7,562.9z"/>
<path class="st21" d="M140.1,575.2c0,0.2-0.1,0.4-0.1,0.6c-0.1-0.1-0.2-0.2-0.3-0.3C139.9,575.4,140.1,575.3,140.1,575.2
	C140.2,575.3,140.1,575.2,140.1,575.2z"/>
<path class="st22" d="M357.4,196.1c1.5-1.9,3.8-2.9,6.1-3.7c5-1.6,10-1.8,15.2-1.1c2.6,0.4,5.2,1.1,7.6,2.3c1.3,0.7,2.5,1.4,3.1,2.6
	c0.1,0.3,0.1,0.4,0.1,0.5c-2.2,6.5-4.6,13-8,19c-0.9,1.5-2,2.9-3.2,4.3c-1.4,1.6-3.3,1.9-5.1,0.9c-1-0.5-1.9-1.1-2.7-1.9
	c-1.4-1.3-2.7-2.7-3.8-4.2c-3.7-4.8-6.4-10.1-8.6-15.8c-0.2-0.6-0.4-1.3-0.6-1.9C357.3,196.9,357.4,196.6,357.4,196.1z"/>
<path class="st23" d="M390.2,194.2c-10.5-6.3-23.8-6.3-33.6,0.1c-1-2.2-1.5-4.6-2-7.1c3.4-0.7,6.8-1.2,10-2.6
	c3.2-1.3,6.2-2.9,9.1-5.1c2.9,1.9,5.5,4.3,8.8,5.2s6.7,1.4,10.3,1C392.3,188.8,391.2,191.4,390.2,194.2z"/>
<path class="st4" d="M348,182.7c3,0.1,5.7,0.4,8.5,0.4c2.8-0.1,5.5-0.4,8.3-0.6C361.3,185.8,352.6,186,348,182.7z"/>
<path class="st4" d="M393.4,183c-4.1,2-8,1.5-11.8-0.6c0.5,0,1.1,0,1.6,0C386.6,182.6,390,182.8,393.4,183z"/>
<path class="st21" d="M317.7,124.8c3.8,0,6.5,2.6,6.5,6.1c0,3.4-2.8,6-6.3,5.9s-6.4-2.7-6.3-6C311.5,126.7,314.6,124.7,317.7,124.8z
	"/>
<path class="st21" d="M429.1,138.3c-2.2,0.1-4-0.8-5.1-2.9c-1.2-2.3-1.3-4.7,0.1-6.9c1.8-2.7,6.1-3,8.4-0.6c1.9,1.9,2.5,5.3,1.5,7.7
	C433.2,137.4,431.7,138.3,429.1,138.3z"/>
<path class="st4" d="M437.7,302.8c9.4-8.1,17.9-17,25.9-26.1c1.1,0.1,1.1,0.8,1.2,1.5c0.3,2.8-0.2,5.5-0.7,8.3
	c-0.5,3.1-1.3,6.1-2.6,8.9c-0.6,1.3-1.4,2.2-2.8,2.6C451.8,299.9,444.9,301.7,437.7,302.8z"/>
<path class="st4" d="M356.3,242.1c5.1,0.4,10.1,0.9,15.1,1s9.9-1.1,14.9-1.2c-0.1,0.5,0,0.8-0.1,0.9c-3.3,3.2-7,5.8-11,8.1
	c-2,1.2-3.9,1.2-6,0.2c-4.1-2.1-8.1-4.2-11.6-7.1c-0.4-0.4-0.8-0.8-1.1-1.2C356.2,242.6,356.3,242.4,356.3,242.1z"/>
<path class="st21" d="M447.6,514.8c-5.1,2-27.3,4.1-32.6,3.2c-0.1-0.7-0.2-1.4-0.3-2.2c-0.4-5.9-0.7-11.8-1-17.6
	c-0.4-10.2-0.7-20.4-1.2-30.7c-0.2-3.2,0.8-5.9,2.8-8.3c1.3-1.5,2.6-3.1,4-4.4c6.4-5.9,14.1-4.5,19.1-1.4c2.7,1.7,4.7,4,6.3,6.8
	c2.1,3.7,3.3,7.8,4.1,11.9c1.3,7.4,1.6,14.8,1.1,22.3c-0.4,6-1.2,11.9-1.8,17.9C448,513.2,447.8,514,447.6,514.8z M416.3,475.1
	c-0.3,4.2-0.3,7.9-0.1,11.5c0.2,4.3,0.7,8.6,1.9,12.8c0.3,1,0.6,1.9,1,2.8c0.4,0.8,1,1.6,2,1.5c0.9-0.1,1.4-0.7,1.7-1.5
	c0.5-1.4,1-2.7,1.3-4.1c1.2-6.3,1.9-12.8,2-19.2c0.1-5.3-0.4-10.6-0.6-16c0-0.4-0.3-0.8-0.5-1.5c-0.5,0.6-1,1-1.1,1.4
	c-0.6,2-1,4.1-1.6,6.1c-0.7,2.2-1.6,4.4-2.5,6.5c-0.2,0.4-0.7,0.7-1.1,1.1C417.8,476.2,417.3,475.8,416.3,475.1z"/>
<path class="st21" d="M330,517.6c-0.5,0-1,0.2-1.4,0.1c-9.2-1-18.4-1.6-27.5-3.3c-1.6-0.3-3.2-0.8-4.9-1.2c-2-0.4-3.1-1.5-3.1-3.7
	c0-1.1-0.3-2.2-0.4-3.3c-1.2-11-1.3-22,1-32.9c0.7-3.5,1.7-6.9,3.4-10.1c1.1-2.1,2.4-4.3,3.9-6.2c3.6-4.5,8.5-6.7,14.1-7.2
	c1.7-0.2,3.3,0.3,4.8,1c5.5,2.7,9,7.1,10.9,12.9c0.3,0.9,0.4,2,0.4,3c0.4,14.6,0.3,29.1-0.3,43.7c-0.1,1.9-0.4,3.8-0.6,5.6
	C330.5,516.5,330.2,517,330,517.6z M315.8,476.1c-0.2,0.5-0.4,0.8-0.4,1.1c-0.6,7.2-0.6,14.4,0.1,21.6c0.2,2.3,0.7,4.6,1.2,6.9
	c0.3,1.2,0.8,2.3,1.4,3.4c1,1.8,2.4,1.9,3.7,0.3c1.5-1.7,2.3-3.8,2.9-5.9c1.2-4,1.7-8,1.9-12.1c0.5-8.2,0.3-16.4,0-24.6
	c0-0.4,0-0.9-0.1-1.3c-0.1-0.5-0.3-1.2-0.9-1.1c-0.3,0-0.7,0.5-0.9,0.8c-0.3,0.7-0.5,1.5-0.7,2.2c-0.5,1.9-1,3.9-1.6,5.8
	c-0.4,1.1-0.9,2.3-1.6,3.3c-1,1.7-1.9,1.8-3.5,0.7C316.8,476.8,316.3,476.5,315.8,476.1z"/>
<path class="st24" d="M346.7,555.5c2-1.2,4.1-1.4,6.2-1.6c4.4-0.3,8.9-0.5,13.3-0.5c7.8,0.1,15.5,0.4,23.2,1.7
	c1.5,0.3,3,0.5,4.3,1.1c0.3,0.9-0.3,1.2-0.7,1.4c-2,0.9-4,2-6.1,2.7c-7.6,2.2-15.3,2.9-23.1,1.5c-5-1-9.9-2.4-14.7-4.4
	c-0.7-0.3-1.4-0.7-2-1.1C347.1,556.2,347,556,346.7,555.5z"/>
<path class="st25" d="M462.2,482.1c0.5-2.8,1.2-7.4,2.1-13.1c0.2,1.9,0.5,4.2,0.7,6.8c0.2,2.5,0.2,3.7,0.3,6.1
	c0.4,8.6,1.1,12.4-0.5,16.9c-0.8,2.1-1.5,2.4-1.7,2.4c-0.5,0.1-1-0.4-1.2-0.5C459.4,498.3,461.9,483.4,462.2,482.1z"/>
<path class="st19" d="M369.3,534.6c0.1-4.8-0.1-8.8,0.2-13.2c0.6,0.4,1,0.5,1.3,0.8c1.3,1.3,2.7,2.6,3.9,4c1.2,1.4,1.1,2.5,0,3.8
	c-0.7,0.8-1.5,1.6-2.4,2.3C371.6,533,370.8,533.6,369.3,534.6z"/>
<path class="st26" d="M423.9,467.9c0.3,1.2,0.5,1.8,0.5,2.4c0.3,4.4,0.5,8.9,0,13.3c-0.6,4.6-1,9.3-1.7,13.9
	c-0.2,1.6-0.5,3.3-1.8,4.8c-0.5-0.8-1-1.4-1.2-2c-0.6-2-1.1-4.1-1.4-6.2c-0.7-5.1-1.1-10.2-0.8-15.5c2.7-0.8,3.8-3,4.6-5.5
	C422.7,471.6,423.2,470,423.9,467.9z"/>
<path class="st26" d="M316.8,479.3c0.2-0.1,0.3-0.2,0.4-0.2c3,0.6,4.6-1,5.6-3.5c0.7-1.8,1.3-3.5,2-5.3c0.8,0.2,0.5,0.9,0.5,1.3
	c0,6.4,0.1,12.9-0.1,19.3c-0.1,4.1-0.6,8.2-1.9,12.1c-0.5,1.6-1.2,3.1-1.9,4.6c-0.3,0.5-0.8,1-1.3,1.5c-1.1-0.6-1.5-1.5-1.7-2.5
	c-0.6-2.7-1.3-5.4-1.6-8.1c-0.6-6-0.7-12-0.3-18C316.5,480,316.7,479.6,316.8,479.3z"/>
<path d="M418.2,499.5c0.3,1,0.6,1.9,1,2.8c0.4,0.8,1,1.6,2,1.5c0.9-0.1,1.4-0.7,1.7-1.5c0.5-1.4,1-2.7,1.3-4.1
	c1.2-6.3,1.9-12.8,2-19.2c0.1-5.3-0.4-10.6-0.6-16c0-0.4-0.3-0.8-0.5-1.5c-0.5,0.6-1,1-1.1,1.4c-0.6,2-1,4.1-1.6,6.1
	c-0.7,2.2-1.6,4.4-2.5,6.5c-0.2,0.4-0.7,0.7-1.1,1.1c-0.9-0.3-1.4-0.7-2.4-1.4c-0.3,4.2-0.3,7.9-0.1,11.5
	C416.5,491,417,495.3,418.2,499.5z M417.6,478.7c2.7-0.8,3.8-3,4.6-5.5c0.6-1.5,1.1-3.1,1.8-5.2c0.3,1.2,0.5,1.8,0.5,2.4
	c0.3,4.4,0.5,8.9,0,13.3c-0.6,4.6-1,9.3-1.7,13.9c-0.2,1.6-0.5,3.3-1.8,4.8c-0.5-0.8-1-1.4-1.2-2c-0.6-2-1.1-4.1-1.4-6.2
	C417.7,489.1,417.3,484,417.6,478.7z M460.9,501.8c0.9,1.8,3.2,1.9,4.4,0.2c0.5-0.7,0.9-1.6,1.1-2.4c0.4-1.7,0.6-3.5,0.7-5.3
	c0.4-7.4-0.2-14.7-1-22c-0.4-2.3-0.8-4.7-1.1-7.1c-0.2,0-0.4,0-0.5,0c-0.1,0.4-0.3,0.8-0.4,1.2c-2,8.5-3.6,17-4.3,25.6
	c-0.1,1.9-0.2,3.8,0,5.7C459.9,499.1,460.3,500.6,460.9,501.8z M462.3,482.2c0.5-2.8,1.2-7.4,2.1-13.1c0.2,1.9,0.5,4.2,0.7,6.8
	c0.2,2.5,0.2,3.7,0.3,6.1c0.4,8.6,1.1,12.4-0.5,16.9c-0.8,2.1-1.5,2.4-1.7,2.4c-0.5,0.1-1-0.4-1.2-0.5
	C459.5,498.4,462,483.5,462.3,482.2z M344.7,182.7c2.2,2.1,5.1,3.1,7.9,4c0.3,0.9,0.5,1.6,0.8,2.4c1.1,3.6,2.1,7.3,3.4,10.8
	c2.3,6.2,5.5,11.9,9.5,17.1c1.5,1.9,3.2,3.7,5.3,5c3.3,1.9,5.9,1.6,8.3-1.3c1.4-1.6,2.6-3.4,3.5-5.3c1.7-3.4,3.2-6.9,4.7-10.3
	c2.5-5.7,4.1-11.8,6-17.7c0.5-1.6,1.2-2.7,2.8-3.4s2.9-1.9,3.9-3.4c-2.4,0.7-4.8,1.3-7.2,1.2c-4.1-0.1-8.2-0.3-12.3-0.6
	c-2.8-0.5-5.6-1.1-7.3-3.5c-6.8,3.5-13.8,4.6-21.2,4.2c-3.7-0.2-7.3-1.1-10.4-3.2c-0.4-0.3-0.8-0.8-1.6-0.1
	C342.1,180,343.3,181.4,344.7,182.7z M381.6,215.8c-0.9,1.5-2,2.9-3.2,4.3c-1.4,1.6-3.3,1.9-5.1,0.9c-1-0.5-1.9-1.1-2.7-1.9
	c-1.4-1.3-2.7-2.7-3.8-4.2c-3.7-4.8-6.4-10.1-8.6-15.8c-0.2-0.6-0.4-1.3-0.6-1.9c-0.2-0.2-0.1-0.5-0.1-1c1.5-1.9,3.8-2.9,6.1-3.7
	c5-1.6,10-1.8,15.2-1.1c2.6,0.4,5.2,1.1,7.6,2.3c1.3,0.7,2.5,1.4,3.1,2.6c0.1,0.3,0.1,0.4,0.1,0.5
	C387.4,203.3,385,209.8,381.6,215.8z M383.3,182.5c3.4,0.2,6.8,0.4,10.2,0.6c-4.1,2-8,1.5-11.8-0.6
	C382.2,182.5,382.8,182.5,383.3,182.5z M382.6,184.8c3.3,0.9,6.7,1.4,10.3,1c-0.5,3.1-1.6,5.7-2.6,8.5c-10.5-6.3-23.8-6.3-33.6,0.1
	c-1-2.2-1.5-4.6-2-7.1c3.4-0.7,6.8-1.2,10-2.6c3.2-1.3,6.2-2.9,9.1-5.1C376.7,181.5,379.3,183.9,382.6,184.8z M356.6,183.2
	c2.8-0.1,5.5-0.4,8.3-0.6c-3.5,3.3-12.2,3.5-16.8,0.2C351.1,182.9,353.8,183.2,356.6,183.2z M324.2,155.7c6.9-2.4,11-8.2,11.1-15.5
	c-0.2-1.4-0.3-2.9-0.6-4.3c-1.6-6.3-5.3-11-11.6-13.2c-2-0.7-4-1-6.2-0.6c-9,1.5-15.4,8.4-16,17.5c-0.4,7.3,3.2,14.4,11.5,16.6
	C316.4,157.3,320.3,157.1,324.2,155.7z M317.8,124.9c3.8,0,6.5,2.6,6.5,6.1c0,3.4-2.8,6-6.3,5.9s-6.4-2.7-6.3-6
	C311.6,126.8,314.7,124.8,317.8,124.9z M326.6,465.6c-0.1-0.5-0.3-1.2-0.9-1.1c-0.3,0-0.7,0.5-0.9,0.8c-0.3,0.7-0.5,1.5-0.7,2.2
	c-0.5,1.9-1,3.9-1.6,5.8c-0.4,1.1-0.9,2.3-1.6,3.3c-1,1.7-1.9,1.8-3.5,0.7c-0.5-0.4-1-0.7-1.5-1.1c-0.2,0.5-0.4,0.8-0.4,1.1
	c-0.6,7.2-0.6,14.4,0.1,21.6c0.2,2.3,0.7,4.6,1.2,6.9c0.3,1.2,0.8,2.3,1.4,3.4c1,1.8,2.4,1.9,3.7,0.3c1.5-1.7,2.3-3.8,2.9-5.9
	c1.2-4,1.7-8,1.9-12.1c0.5-8.2,0.3-16.4,0-24.6C326.7,466.5,326.7,466,326.6,465.6z M325.3,491c-0.1,4.1-0.6,8.2-1.9,12.1
	c-0.5,1.6-1.2,3.1-1.9,4.6c-0.3,0.5-0.8,1-1.3,1.5c-1.1-0.6-1.5-1.5-1.7-2.5c-0.6-2.7-1.3-5.4-1.6-8.1c-0.6-6-0.7-12-0.3-18
	c0-0.5,0.2-0.9,0.3-1.2c0.2-0.1,0.3-0.2,0.4-0.2c3,0.6,4.6-1,5.6-3.5c0.7-1.8,1.3-3.5,2-5.3c0.8,0.2,0.5,0.9,0.5,1.3
	C325.4,478.1,325.5,484.6,325.3,491z M375.5,165.3c-3.2-2.3-6.3-4.3-9-6.6c2.1-0.9,4.9-1.1,11.9-0.9c2.5,0,2.5,0,4.4,0.9
	c0.3,0.9-0.1,1.5-0.8,2C379.9,162.2,377.9,163.6,375.5,165.3z M413.8,519.4c5.8,1.1,28.8-1.1,35.1-3.4c0.2-1.2,0.5-2.4,0.7-3.7
	c0.3-2.5,0.6-5.1,0.9-7.6c1-9.3,1.5-18.6,0.5-28c-0.6-5.2-1.7-10.3-3.9-15.1c-1.2-2.6-2.8-5-5-7.1c-5.3-5-15.7-7.9-23.9-0.4
	c-2.3,2.1-4.2,4.6-5.8,7.3c-0.7,1.2-1.1,2.4-1,3.8c0,2,0,4,0,6c0.7,15.6,1.4,31.1,2.1,46.7C413.5,518.4,413.7,518.9,413.8,519.4z
	 M415.4,459.3c1.3-1.5,2.6-3.1,4-4.4c6.4-5.9,14.1-4.5,19.1-1.4c2.7,1.7,4.7,4,6.3,6.8c2.1,3.7,3.3,7.8,4.1,11.9
	c1.3,7.4,1.6,14.8,1.1,22.3c-0.4,6-1.2,11.9-1.8,17.9c-0.1,0.9-0.3,1.7-0.5,2.5c-5.1,2-27.3,4.1-32.6,3.2c-0.1-0.7-0.2-1.4-0.3-2.2
	c-0.4-5.9-0.7-11.8-1-17.6c-0.4-10.2-0.7-20.4-1.2-30.7C412.4,464.4,413.4,461.7,415.4,459.3z M423.3,155.8
	c3.7,2.1,7.7,2.7,11.9,2.1c6.3-1,10.1-4.7,11.8-10.8c0.4-1.6,0.5-3.4,0.7-4.4c-0.2-5.8-1.5-10.4-4.8-14.4c-3.8-4.5-9.1-5.9-14.8-4.2
	c-8.1,2.4-14.5,10.9-12.3,21.6C416.7,150.1,419.2,153.6,423.3,155.8z M424.2,128.6c1.8-2.7,6.1-3,8.4-0.6c1.9,1.9,2.5,5.3,1.5,7.7
	c-0.8,1.8-2.3,2.7-4.9,2.7c-2.2,0.1-4-0.8-5.1-2.9C422.9,133.2,422.8,130.8,424.2,128.6z M246.6,348.3L246.6,348.3
	C246.6,348.3,246.5,348.3,246.6,348.3L246.6,348.3z M332.4,463.1c-1.9-5.9-5.6-10.3-11.1-13.2c-2.2-1.2-4.5-1.6-7.1-1.2
	c-6.8,0.9-12,4.3-15.9,10c-2.4,3.5-3.9,7.5-5,11.6c-1.7,6.2-2.3,12.5-2.5,18.8c-0.3,6.8,0.3,13.6,1.1,20.3c0.5,3.8,0.6,4,4.4,5.2
	c0.6,0.2,1.3,0.4,1.9,0.5c3.9,0.7,7.9,1.5,11.8,2c5.7,0.7,11.5,1.3,17.3,1.9c1.2,0.2,2.3,0.2,3.8,0.3c0.4-1.3,0.7-2.2,0.9-3.2
	c0.3-2,0.5-4,0.6-6c0.6-14.5,0.6-28.9,0.3-43.4C332.9,465.5,332.8,464.2,332.4,463.1z M331,510.5c-0.1,1.9-0.4,3.8-0.6,5.6
	c0.2,0.5-0.1,1-0.3,1.6c-0.5,0-1,0.2-1.4,0.1c-9.2-1-18.4-1.6-27.5-3.3c-1.6-0.3-3.2-0.8-4.9-1.2c-2-0.4-3.1-1.5-3.1-3.7
	c0-1.1-0.3-2.2-0.4-3.3c-1.2-11-1.3-22,1-32.9c0.7-3.5,1.7-6.9,3.4-10.1c1.1-2.1,2.4-4.3,3.9-6.2c3.6-4.5,8.5-6.7,14.1-7.2
	c1.7-0.2,3.3,0.3,4.8,1c5.5,2.7,9,7.1,10.9,12.9c0.3,0.9,0.4,2,0.4,3C331.7,481.4,331.6,495.9,331,510.5z M371.9,534.6
	c1.2-1.1,2.6-2.1,3.7-3.3c1.8-1.9,1.9-3.7,0.3-5.7c-2.1-2.7-4.8-4.9-7.6-7.4c-0.7,4.2-2.7,7.5-5.1,10.8c1.9,2.9,3.7,5.8,5.5,8.6
	C369.8,536.5,370.8,535.6,371.9,534.6z M369.6,521.5c0.6,0.4,1,0.5,1.3,0.8c1.3,1.3,2.7,2.6,3.9,4c1.2,1.4,1.1,2.5,0,3.8
	c-0.7,0.8-1.5,1.6-2.4,2.3c-0.7,0.7-1.5,1.3-3,2.3C369.5,529.9,369.3,525.9,369.6,521.5z M390.5,560.5c1.6-0.8,3.2-1.6,4.6-2.7
	c1.5-1.1,1.3-2.2-0.5-2.8c-1.6-0.5-3.2-0.9-4.8-1.2c-7.6-1.2-15.4-1.3-23.2-1.7c-1.5,0-3.1,0-4.7,0c-4.2,0.2-8.4,0.2-12.6,1
	c-1.1,0.2-2.1,0.6-3.1,1c-1.1,0.5-1.3,2-0.3,2.8c0.9,0.7,1.8,1.3,2.8,1.7c4.8,2.1,9.9,3.5,15,4.5c6,1.2,12.2,0.8,18.2-0.2
	C384.9,562.4,387.8,561.8,390.5,560.5z M363.9,561.9c-5-1-9.9-2.4-14.7-4.4c-0.7-0.3-1.4-0.7-2-1.1c0-0.1-0.1-0.3-0.4-0.8
	c2-1.2,4.1-1.4,6.2-1.6c4.4-0.3,8.9-0.5,13.3-0.5c7.8,0.1,15.5,0.4,23.2,1.7c1.5,0.3,3,0.5,4.3,1.1c0.3,0.9-0.3,1.2-0.7,1.4
	c-2,0.9-4,2-6.1,2.7C379.4,562.6,371.7,563.3,363.9,561.9z M618.4,605.2c-2.4-7.3-4.7-14.6-7.4-21.8c-4.4-11.5-9-22.8-13.5-34.2
	c-3.1-7.5-6.1-15-9.3-22.5c-1.6-3.9-3.6-7.7-6.4-10.9c-1.3-1.4-1.9-3.2-1.9-5.2c0-1.3-0.1-2.7,0-4c0.1-3.2-1.4-5.2-4.3-6.4
	c-0.8-0.3-1.6-0.6-2.6-1c1.5-7.8,2.3-15.5,2.7-23.2c-0.8-0.5-1.4-1-2.1-1.4c-0.8-0.5-1.5-0.9-2.3-1.4c-0.7-0.4-1.3-0.8-2-1.2
	c-0.7-0.4-1.5-0.7-2-1.8c3-1,5.9-1.6,8.8-2.4s6.1-1,9.2-2.2c-1.2-1.6-2.5-2.6-3.8-3.6c-3.8-2.7-7.9-5-12.1-7.1
	c-4.5-2.2-9-4.4-13.5-6.6c-0.6-0.2-1.4-0.3-1.4-1.3c1.8-0.2,3.5,0,5.3,0.3c3,0.5,6.1,1,9.2,1.5c0.6,0.1,1.3,0.5,1.8-0.4
	c-1-1.2-2.3-2.1-3.6-2.9c-1.2-0.8-2.4-1.5-3.7-2.2s-2.9-1-4.1-2c1-0.9,2-0.8,3-0.9c7.8-1.2,15.6-2.3,23.4-3.5c2.8-0.4,5.6-1.2,8.4-2
	c0.8-0.2,1.8-0.6,2.3-1.2c2.2-2.8,3-5.9,1.6-9.4c-0.6-1.3-1.4-2.3-2.8-2.7c-1.3-0.4-2.7-0.9-4.1-1.3c-20.4-6.1-40.8-11.9-61.4-17.2
	c-10.5-2.7-21.1-5.2-31.9-7c-0.6-0.1-1-0.3-1.7-0.6c-0.4-9.8,0.8-19.7-1.3-29.2c1.8-2.2,3.5-4.3,5.1-6.4c2.1-2.9,4.2-5.8,6.2-8.7
	c1.4-1.9,2.6-3.9,3.8-5.9c0.5-0.9,0.9-2,1.1-3.1c0.3-1.9-0.6-2.9-2.4-2.7c-1.4,0.2-2.8,0.7-4.2,1.1c-0.5,0.1-1,0.5-1.5-0.2
	c0.3-0.8,0.7-1.6,1-2.4s0.6-1.6,0.8-2.5c0.5-2.5-0.6-3.7-3-3.5c-1,0.1-1.9,0.4-2.9,0.6c-0.4,0.1-0.8,0.1-1.5,0.2
	c0.2-1,0.5-1.7,0.6-2.4c0.2-1,0.4-2,0.4-3c0-1.2-1-1.9-2.3-1.5c-1,0.4-2,0.8-3,1.3c-0.2-0.4-0.5-0.7-0.5-1
	c-0.8-5.7-2.6-11.1-4.6-16.4c-2.2-5.6-4.4-11.2-6.6-16.8c-2.5-6.2-4.8-12.4-6.2-19c-1.4-6.9-2.8-13.7-4.2-20.6c-2.5-13-5-26-7.6-39
	c-0.4-2-0.2-3.5,1.2-5.1c3.3-3.8,5.9-8.2,7.4-13c2.8-8.9,3.9-18.1,3.1-27.4c-0.2-2.2-0.9-4.4-1.2-6.6c-0.7-4.1-1.6-8.1-3-12
	c-0.7-2.2-1.2-4.5-1.6-6.8c-0.5-3.4-1-6.8-1.5-10.2c-1.3-8-2.6-16-5-23.8c-0.1-0.3-0.1-0.7-0.1-1.1c0.6-0.3,1.1-0.7,1.7-1
	c16.1-9.3,31.6-19.6,46.5-30.7c4.7-3.5,9.2-7.4,13.7-11.2c5.1-4.2,10.3-8.5,15.3-12.9c11.7-10.4,22.9-21.2,32.9-33.2
	c2.6-3.2,4.9-6.6,7.4-9.9c0.4-0.6,0.7-1.4,1-2c-1.1-1.1-2.4-0.9-3.6-0.8c-2,0.2-4,0.5-6,0.8c-13.9,2.4-27.5,5.7-41,9.5
	c-24.2,6.7-47.2,16.8-69.1,29c-10.7,6-21,12.6-30.2,20.8c-0.3,0.3-0.7,0.5-1,0.7c-0.5-0.1-0.8-0.2-1.1-0.3
	c-12.6-5.3-25.9-7.8-39.5-9.1c-12.1-1.1-24.2-1-36.3,0.4c-14.6,1.7-28.8,4.9-41.9,11.7c-1,0.5-1.9,0.7-2.9,0.6
	c-0.9-0.2-1.8-0.2-2.7-0.3c-5.4-0.4-10.9-1-16.3-1.2c-6.2-0.3-12.5-0.3-18.7-0.2c-8.4,0-16.7,0.5-25,1.3c-5.4,0.6-10.9,1.1-16.3,1.7
	c-1.5,0.2-2.8-0.1-4.1-0.9c-4.9-3-10-5.9-15-8.7c-19-10.6-38.3-20.8-57.7-30.8c-9.4-4.8-18.7-9.8-28.4-14.1
	c-6.4-2.8-12.9-5.5-19.7-7.4c-1.2-0.3-2.4-0.8-3.6-0.7c-0.6,1.1-0.4,2.2-0.3,3.3c0.4,7.2,0.7,14.5,1.2,21.7
	c0.7,9.1,1.5,18.2,2.3,27.3s1.8,18.2,2.6,27.3c0.3,3,0.5,6,0.8,9c0.5,5.2,1.1,10.4,1.8,15.6c0.8,5.6,1.7,11.2,2.7,16.8
	c0.2,1.5,0.5,3.1,1.5,4.4c1.1,0.2,2,0.5,3,0.7c6.1,1.1,12.1,2.2,18.1,3.3c12.7,2.3,25.4,4.4,38.1,6.8c7.9,1.5,15.7,3.4,23.3,5.9
	c1.1,0.4,2.4,0.6,3.5,1.6c-2.9,8.1-6,16.2-9.1,24.2c-3,8.2-6.2,16.4-9.2,24.8c1,0.3,1.7,0.6,2.4,0.7c11.3,2.1,22.7,4.1,34.1,6.2
	c0.9,0.2,1.7,0.5,2.8,0.8c-3.8,7.6-8.1,14.6-11.9,21.9c-3.8,7.3-7.9,14.4-11.8,21.8c0.7,0.3,1.2,0.6,1.7,0.7
	c1.3,0.3,2.6,0.5,3.9,0.8c14.5,3.1,28.9,6.3,43.4,9.4c0.7,0.1,1.6,0.1,1.9,1.2c-0.6,0.9-1.2,1.8-1.8,2.7c-8,11.7-16,23.3-24,35
	c-0.6,0.9-1.6,1.6-1.5,3c4,3.2,9.6,7,16.6,10.3c6.3,3,12,4.7,16.7,5.7c0,1,0,1.7,0,2.5c0,0.9,0,1.8-0.1,2.7
	c-0.1,0.8,0.2,1.6-0.7,2.2c-1-0.3-2-0.7-3.1-0.9c-2.2-0.4-3.4,0.8-3,3c0.1,0.5,0.3,1.1,0.4,1.6c0.1,0.5,0.6,1-0.1,1.4
	c-1.3-0.4-2.5-0.9-3.8-1.2c-2.1-0.4-3.8,0.8-4.1,2.9c-0.1,1.1,0.1,2.2,0.3,3.3c0.2,1,0.6,2,1,3.1c-1,0.2-1.8,0.4-2.6,0.6
	c-0.8,1.5-0.4,2.7,0.1,4c0.8,2.2,2,4.2,3.6,6c0.6,0.7,1.2,1.5,1.8,2.2c-2.1,3.9-2.7,8-3.1,12.1c-0.6,7.4-1,14.9-1.5,22.3
	c-0.1,0.8-0.1,1.5,0,2.3c0.7,3.7,0.5,7.5,0.6,11.3c0,0.4-0.2,1.1-0.4,1.2c-1.3,0.4-0.9,1.4-0.9,2.2c0,2.7,0.1,5.3,0.1,8
	c0,2,0,2,1.1,3.9c-0.1,0.2-0.2,0.4-0.4,0.5c-5.8,3.3-11.1,7.4-16.3,11.6c-0.6,0.5-1.3,0.9-2,1.2c-4.8,2.3-9.6,4.6-14.4,6.9
	c-0.9,0.5-1.7,1.1-2.6,1.6c-0.1,1.1-0.2,2.1-0.3,3.2c-2.7,2.2-5.4,4.5-8.2,6.7c-6.8,5.4-13.5,10.9-19.8,16.9
	c-3.4,3.3-6.7,6.7-9.6,10.6c-1.7,2.2-3.1,4.6-4.2,7.2c-0.9,2.3-1.1,4.5-0.2,6.8c0.8,1.8,1.4,3.8,2.4,5.5c1.5,2.7,3.2,5.3,4.8,8
	c0.4,0.6,0.7,1.3,1.2,2.2c-1,0.8-1.8,1.5-2.6,2.3c-1.6,1.7-3.3,3.5-4.9,5.4c-0.8,1-1.5,2.2-2.1,3.4c-0.9,1.7-0.9,3.4,0.2,5.1
	c1.1,1.7,2.1,3.5,3.1,5.2c0.5,1,1.1,1.9,1.6,2.9c-0.7,0.9-1.2,1.8-1.8,2.6c-2.6,3.8-5.3,7.5-7.8,11.3c-5.6,8.2-10.8,16.6-15.6,25.3
	c-2.6,4.7-3.7,9.9-5.6,14.8c1.4,3,3.3,5.2,5.5,7.3c4.4,4.1,8.8,8.2,13.2,12.3c2.3,2.2,4.6,4.5,6.9,6.8c1.3,1.2,1.7,2.7,1.6,4.5
	c-0.4,5.9-0.7,11.8-0.8,17.7c-0.2,9.5,0,18.9,1.5,28.3c0.8,5.2,2,10.3,4.1,15.1c1.3,3,2.9,5.7,5.3,8c2.3,2.2,4.8,3.6,7.9,4.1
	c14.6,2.5,29.4,3.6,44.2,3.6c8.6,0,17.1-0.5,25.7-1c12.2-0.6,24.3-2.3,36.4-4.3c19.8-3.4,39.3-7.9,58.5-13.7
	c9.8-3,19.5-6.2,29.2-9.5c1.8-0.6,3.3-0.7,5.1,0c2.2,0.9,4.4,1.6,6.6,2.4c19.8,7.1,39.6,14.2,59.6,20.7c23.4,7.5,46.9,14.3,71,18.7
	c11.4,2,22.9,3.6,34.5,3.8c8.1,0.2,16.3,0,24.3-1.5c6.4-1.2,12.5-3,18.3-6.1c4.9-2.6,8-6.6,9.1-12.1s1.6-11.1,1.8-16.6
	c0.7-15.1-0.3-30.1-2.3-45c-0.3-2.2-0.5-4.4-0.8-6.5c3.4-1.8,6.8-3.3,9.9-5.2c3.2-2,5.9-4.6,8.5-7.1
	C619.7,608.8,619,607,618.4,605.2z M574.2,476.9c-0.5,7.8-1,15.5-3.1,23.3c0.5,0.2,1.1,0.5,1.7,0.7c0.9,0.4,1.9,0.6,2.8,1.1
	c1.9,0.9,2.9,2.3,2.9,4.4c0,1.3,0,2.7,0,4c0,2.7,0.8,5,2.6,7.1c1.8,2,3,4.4,4.3,6.8c3,6,5.5,12.2,8,18.4
	c5.4,13.8,10.9,27.5,16.2,41.3c2.2,5.6,4,11.3,6,17c0.3,0.7,0.4,1.5,0.6,2.2c-0.3-0.2-0.5-0.1-0.6,0.1c-0.9-0.7-1.7-1.3-2.6-2
	c-4-2.9-8.1-5.9-12.2-8.8c-2.2-1.5-4.5-2.9-7-3.8c-1-0.4-2-1-3-1.5c-8.2-4.6-17-7.2-26.2-8.3c-1.7-0.2-3.3-0.2-5,0.2
	c-6.7,1.6-12.8,4.4-18.6,8c-6.5,4.1-12.8,8.5-18.9,13.2c-2,1.5-3.9,3-5.9,4.4c-0.4,0.3-0.9,0.6-1.7,1.1c0.1-1.1,0.1-1.8,0.2-2.5
	c1.3-6.7,2.7-13.3,4.1-19.9c0.2-0.7,0.1-1.5,0.2-2.7c-0.7,0.5-1.1,0.7-1.2,1c-0.5,1.2-0.9,2.5-1.3,3.8c-0.3,1-0.7,2.1-1.1,3.3
	c-0.4-0.3-0.7-0.5-0.8-0.7c-3.5-10.3-9.8-18.9-16.9-27c-1.3-1.5-2.7-2.9-4-4.5c-4.3-5.2-4.4-8.7-0.5-14.2c3.2-4.5,7.3-8,12-11
	c4.6-2.9,9.6-5.1,14.9-6.7c1-0.3,2.1-0.7,3-1c0-0.8-0.3-1.1-0.8-1c-1.5,0.3-3.1,0.6-4.6,0.9c-7.7,1.8-15.3,4-22.6,6.8
	c-0.8-0.5-0.4-1-0.3-1.5c0.3-2,0.6-4,0.9-5.9c0.3-1.7,0.4-3.3,0.8-4.9c0.5-2.2,1.5-4.2,3-5.9c1.3-1.4,2.8-2.5,4.7-3
	c3.7-0.8,7.3-1.8,11-2.7c0.2,0,0.5,0,0.6-0.1c0.3-0.2,0.7-0.5,0.7-0.7c-0.1-0.4-0.3-0.9-0.6-1c-2.3-0.6-4.5-1.2-6.8-1.5
	c-2.7-0.4-5.5-0.6-8.3-0.9c0-0.7,0.5-0.9,1-1c5.3-1.5,10.7-3.1,16-4.5c6.7-1.8,13.4-3.3,20.1-5c0.6-0.1,1.1-0.5,1.8-0.8
	c-0.8-1.3-1.9-1.5-3-1.7c-3.6-0.7-7.2-1.4-10.8-2c-1.6-0.3-3.2-0.5-5.4-1c1-0.5,1.4-0.9,1.9-1c13.4-4.9,26.8-9.6,40.5-13.7
	c1-0.3,1.9-0.4,2.8,0.2C568.4,473.5,571.2,475.1,574.2,476.9z M464.7,608.3c-0.2-1.9-0.4-3.8-0.6-5.6c0-0.1,0.1-0.1,0.3-0.4
	c0.4,0.3,0.8,0.7,1.2,1c1.1,0.9,2.1,2,3.3,2.8c2.5,1.8,5.1,2.4,8.2,1.5c6.2-1.8,12.4-3.5,18.6-5.1c2.7-0.7,5.4-1.2,8.1-1.8
	c1.7-0.4,2.9,0.1,4.1,1.4c5.3,5.8,5.4,6,5,13.9c-0.1,1.4-0.1,2.8-0.6,4.3c-1.1-0.2-2.1-0.2-3-0.4c-4.7-1-9.4-1.8-14-2.9
	c-1.9-0.4-3.5-0.2-5.1,0.8c-1.9,1.2-3.7,2.5-5.6,3.6c-1.8,1.1-3.7,2.1-5.6,2.9c-2.5,1-5,1.1-7.3-0.6c-0.4-0.3-0.7-0.5-1.1-0.7
	c-1-0.5-1.9-0.3-2.6,0.7c-0.7,0.8-1,2-2.4,2c-0.7-0.3-0.5-1-0.4-1.5C466,618.9,465.4,613.6,464.7,608.3z M413.8,647.1
	c-2-10-4.3-20-7.5-29.8c-2-6.2-4.3-12.2-7.4-17.8c-1.2-2.1-2.4-4.3-3.9-6.2c-1.5-2-3.3-3.9-5-5.8c-1-1.2-2.3-1.7-3.9-1
	c-0.8,0.3-1.7,0.4-2.8,0.6c0.1-1.7,1-2.7,2.1-3.4c1-0.6,2.2-0.6,3.2-0.1c1.1,0.5,2.2,1.1,3.1,1.9c1.6,1.4,3.1,2.9,4.4,4.5
	c2.2,2.8,4.3,5.7,6.2,8.7c4.4,7,8.5,14.1,11.5,21.8c0,0.1,0.3,0.2,0.8,0.6c0.1-1.2,0.2-2,0.4-2.9c0.6-3.6,2.7-6.1,6.2-7.2
	c1.5-0.5,3-0.8,4.6-0.9c2.5-0.2,5.1-0.1,7.7-0.1c4.1,0,8.2,0.2,12.4,0.1c2,0,4-0.3,6-0.7c3.7-0.8,6.9-2.5,9.1-5.7
	c0.3-0.4,0.6-0.7,0.9-1c0-0.1,0.2,0,0.6,0c0.4,2.3,0.9,4.7,1.1,7.1c0.5,4.6,1.2,9.3,0.3,14c-0.3,1.7-0.8,3.5-1.5,5.1
	c-1.1,2.5-3.1,4-5.8,4.5c-0.2,0-0.4,0.1-0.7,0.1c-5.7,0.5-10.7,2.7-15.5,5.8c-6.5,4.2-13.2,8.3-19.8,12.4c-1,0.6-2.1,1.3-3.2,2
	c-1.7-0.7-3.5-1.5-5.5-2.3c0.9-0.7,1.5-1.2,2.3-1.8C414.1,648.9,414,648,413.8,647.1z M375.2,586.1c0-1.1-0.2-2.1-0.4-3.2
	c1.5-0.7,2.9-1,4.6-1c-0.6,2.3-1.1,4.4-1.6,6.7c-0.8,0.2-1.6,0.3-2.7,0.6C375.2,588,375.3,587,375.2,586.1z M374.2,581.5
	c-0.4-0.2-0.7-0.3-0.8-0.5c-2.2-2.9-5.2-4.4-8.7-5.2c-2.4-0.5-4.8-1.1-7.2-1.5c-6.2-1.2-12-3.5-17.4-6.5c-2.3-1.3-4.7-2.6-7.3-3.3
	c-2.8-0.8-5.5-0.6-8,1.2c-0.5,0.3-0.9,0.6-1.5,1.1c-1.5-0.8-3.2-1.5-4.7-2.3c-5.6-3-11-6.3-16.2-9.9c-7.4-5-14.7-10.1-22-15.1
	c-1.1-0.8-1.7-1.6-2-2.9c-0.5-2.3-1.1-4.5-1.6-6.8c-0.8-0.3-1,0.3-1.3,0.7c-0.6,1.1-1.6,1.5-2.8,1.5c-1.6,0-3.1-0.4-4.5-1.2
	c-3.6-2-6.9-4.5-9.3-8c-4.7-6.9-7.9-14.4-9.3-22.7c-0.5-3-0.9-6-1.2-8.9c-0.4-3.7,0.2-7.3,0.7-11c0.4-3.2,1-6.4,2.3-9.4
	c0.6-1.4,1.3-2.9,2.3-4c1.6-2,3.6-2.1,5.6-0.7c1.8,1.3,3.1,3.2,4.3,5.1c0.5,0.9,1,1.7,1.6,2.6c0.1,0.1,0.4,0.3,0.6,0.2
	c0.3-0.1,0.6-0.4,0.6-0.6c0-1.1-0.1-2.2-0.3-3.3c-0.4-2-0.8-3.9-1.4-5.9c-0.8-2.8-0.7-5.5,0.5-8.2c2.4-5.5,4.9-11,7.3-16.5
	c0.4-0.8,0.8-1.6,1.1-2.4c0.2-0.5,0-1,0-1.7c-2.1,0.2-2.9,1.9-4.1,2.9s-2.2,2-3.7,3c0.4-2.4,1.7-5.1,4.7-9.9
	c0.6,0.1,1.2,0.1,1.8,0.2c8,2,16,3.7,24.2,5.1c0.4,0.1,0.8,0.3,1.7,0.7c-0.9,0.3-1.3,0.4-1.6,0.4c-7.6,1.1-14.5,4.2-20.8,8.6
	c-1.2,0.8-1.9,1.8-2.3,3.1c-0.4,1.8-1.1,3.6-1.4,5.5c-0.3,1.4,0.8,2.1,2.1,1.5c0.7-0.4,1.3-0.8,2-1.3c1.4-1,2.7-2,4-3
	c7.6-5.7,16.2-8.6,25.6-9.8c13.1-1.6,25.7,0.3,38.2,4.3c1.1,0.3,2.1,0.7,3.2,1c0.1,0,0.2,0,0.3,0c0.8-0.5,0.6-1.2,0.1-1.7
	c-0.9-0.8-1.9-1.5-3-2.2c-0.9-0.6-1.8-1.2-2.9-1.8c1.9-0.6,5.2-0.5,8.8,0c-0.1,0.6-0.1,1.3-0.3,1.9c-2.9,10-5.3,20-7.3,30.1
	c-0.4,2-0.6,3.9-1,6.3c0.8-0.4,1.3-0.5,1.6-0.9c0.9-1,1.7-2.1,2.5-3.1c6.2-8.2,12.4-16.3,18.5-24.5c0.7-0.9,1.3-2,2.8-2.9
	c-0.1,1.5-0.1,2.6-0.3,3.7c-1.5,10-2.7,20.1-3.6,30.2c-0.3,3.2-0.2,6.5-0.3,9.7c0,0.9-0.1,1.8,1,2.5c0.7-0.8,1.5-1.5,2.2-2.3
	c12.3-14,24.7-27.8,37.5-41.3c0.1-0.2,0.3-0.3,0.5-0.5c2.2-3.1,5.4-4,9-4.4c5-0.5,10-0.5,15,0.1c8.5,1,16.8,3.2,24.8,6.6
	c4.7,2,9.2,4.4,13.3,7.6c0.6,0.3,1.2,0.5,1.7,0.9c0.4-0.5,0.8-1,0.9-1.5c0.4-1.5,0.8-3,1.1-4.5c0.3-1.3,0-2.5-1-3.3
	c-1.2-1-2.4-2.1-3.7-2.8c-2.3-1.3-4.8-2.4-7.1-3.6c-0.7-0.3-1.3-0.6-2-1c0.1-0.3,0.1-0.4,0.1-0.5c0.1-0.1,0.2-0.1,0.3-0.1
	c6.1,0.3,12.2,0.6,18.3,0.9c0.5,0,1.1,0.2,1.7,0.3c0.2,0.8,0.5,1.5,0.7,2.3c-0.7,0-1.2-0.1-1.8-0.1c1.5,6.9,1.1,13.7,0,20.6
	c-0.1,0.7-0.2,1.3-0.1,2c0,0.6,0.2,1.2,0.4,2.3c0.5-0.7,0.8-1,1-1.3c0.7-1.3,1.3-2.6,2-3.9c1.5-3,3.8-5.2,6.5-7
	c1.9-1.3,4.3-1.1,6.2,0.3c3.6,2.7,4.9,6.5,5.3,10.8c0.5,5.1-0.1,10.2-1.6,15.2c-2.3,8-5.5,15.7-9.8,23c-1.5,2.5-3,4.9-4.7,7.3
	c-1.6,2.3-3.7,4.2-6,5.8c-2.7,1.9-5.6,3.1-9.2,2.1c-0.2,0.9-0.4,1.6-0.5,2.3c-0.5,3.5-1.8,6.6-3.4,9.7c-2,3.7-4.4,7.3-7,10.6
	c-2.3,2.9-5.1,5.3-8,7.5c-3.7,2.7-7.6,4.9-12,6.5c-1.3,0.5-2.5,0.9-3.9,0.3c-1-0.4-2-0.2-2.9,0.1c-3.4,0.9-6.5,2.4-9.5,4.1
	c-3.4,2-6.8,3.9-10.2,5.7c-1.4,0.8-2.8,1.4-4.2,2c-3.9,1.8-8,2-12.1,1.1c-1.3-0.3-2.6-0.6-3.9-1c-2-0.7-3.6-0.1-5.1,1.3
	c-1.5,1.4-2.5,3.1-3.4,5C377.7,580.7,375.9,581.1,374.2,581.5z M287.2,598.8c-2.2-0.1-4.4-0.3-6.7,0.8c-1.4-4.4-2.8-8.7-7.3-11
	c0.5-0.8,1.3-0.9,1.9-1.2c2.6-1.2,5.3-2.3,7.9-3.5c1.1-0.5,2.1-1.2,3.1-1.9c0.9-0.6,0.8-1.8,0-2.6c-0.9-0.9-2.1-1.3-3.4-1.2
	c-1.6,0.2-3.3,0.5-4.9,0.9c-2.3,0.7-4.6,1.6-6.9,2.4c-0.8,0.3-1.6,0.5-2.4,0.8c-3.9-7.3-3.9-7.3-10.3-11.4c4.8-2.7,10.1-4,15.1-6.8
	c-0.6-0.4-0.9-0.8-1.3-0.8c-2.1,0-4.2,0.2-6.3,0.3c-3.9,0.2-7.8,0.3-11.8,0.4c-0.2-0.8-0.4-1.4-0.5-2c-0.3-1.8-0.4-3.5-0.7-5.3
	c-0.6-2.9-1.9-5.5-4-7.5c-0.2-0.2-0.4-0.5-0.6-0.8c-0.1-0.1,0-0.2-0.1-0.3c1.1-0.8,2.3-0.6,3.5-0.7c2.4-0.1,4.9-0.1,7.3-0.2
	c0.4,0,1-0.3,1.1-0.5c0.1-0.5,0-1.1-0.2-1.5c-0.8-1.2-2.2-1.5-3.5-1.7c-1.1-0.2-2.2-0.2-3.5-0.3c0.7-3.9,0.8-7.6-0.2-11.1
	c0.6-0.8,1.1-0.3,1.6-0.2c8.4,2.3,16.5,5.3,24.7,8.3c1.2,0.5,2.4,1.2,3.5,2c6.2,4.3,12.4,8.6,18.7,12.9c6.7,4.6,13.6,8.9,20.9,12.5
	c1.5,0.7,3,1.4,4.6,2c1.4,0.5,2.5,1.3,3.5,2.4c1.7,1.8,3,3.8,4,6.1c2.5,5.4,3.5,11.3,2.6,18c-2.5,0.4-4.9,0.8-7.3,1.2
	c-5.1,0.8-10.1,1.4-15.2,2.3c-2.5,0.4-4.9,0.5-7.3,0.3C300.3,599.5,293.7,599.1,287.2,598.8z M302.7,601.1c0,0.1,0,0.2-0.1,0.3
	s-0.2,0.2-0.3,0.2c-0.5,0.2-1.1,0.3-1.6,0.4c-6.6,1.2-13.2,2.5-20,3.7c-0.1-0.9-0.2-1.7-0.2-2.4c0-1.8,1-2.9,2.7-3.2
	c0.6-0.1,1.3-0.1,2,0c5.6,0.3,11.3,0.5,16.9,0.8C302.4,600.9,302.5,601,302.7,601.1z M277.2,601.9c-3,0.9-5.9,1.8-8.9,2.7
	c-2.8,0.8-5.6,1.4-8.4,2.1c-3.2,0.8-5.6,2.5-7.4,5.3c-1.4,2.2-2.8,4.3-4.3,6.3c-1.9,2.6-3.8,5.2-5.8,7.7c-1.5,1.8-3.2,3.4-5.3,4.6
	c-2.5,1.3-4.9,2-7.7,0.5c-0.5-1.7-0.3-3.2,0.2-4.7c1-3.2,2.8-6.1,4.6-8.9c1.3-2,2.5-4,3.7-5.9c0.6-0.9,1.2-1.9,2-2.6
	c4.8-4.6,9.7-9.2,14.6-13.7c0.9-0.8,1.9-1.6,3.1-2c3.5-1.2,7-2.3,10.5-3.4c3.2-1,5.7,0.2,7.6,2.7c1.8,2.3,2.8,5,3.4,8.1
	C278.5,601.1,277.9,601.7,277.2,601.9z M279.1,602.8c0,1.3,0,2.2,0,3.2c-1.5,0.4-2.9,0.6-4.2,1.1c-6.3,2.1-11.9,5.4-17.1,9.5
	c-1,0.7-1.7,1.8-2.5,2.7c-2.8,3.5-5.7,6.8-9.1,9.7c-1.9,1.7-4,3.2-6.4,4.2c-1.7,0.7-3.4,1.3-5.9,0.7c0.7-0.5,1-0.8,1.3-0.9
	c2.5-0.8,4.6-2.2,6.3-4.2c2.1-2.4,4.2-4.9,6.1-7.5c2.1-2.8,4-5.6,5.8-8.5c1.6-2.5,3.8-4,6.6-4.7c1.6-0.4,3.2-0.9,4.8-1.3
	C269.6,605.8,274.3,604.7,279.1,602.8z M203.3,571c3.1-5.1,7.4-9.2,12.7-12c3.8-2.1,7.7-4,11.5-6.1c2.3-1.2,4.5-2.4,6.7-3.7
	c0.8-0.5,1.6-0.7,2.5-0.8c1.7,0,3.3-0.1,5-0.3c3-0.4,5.2,0.9,6.9,3.1c2.2,2.8,3.4,8.2,2.8,12.1c-1.7,0.3-3.5,0.4-5.2,0.9
	c-2.9,0.8-5.8,1.7-8.5,2.8c-6.1,2.6-12.2,5.3-18.3,8.1c-1.2,0.5-2.2,1.5-3.1,2.4c-2.1,2.1-4,4.5-6.2,6.6c-2.2,2.2-4.5,4.3-7,6.2
	c-1.6,1.2-3.4,2.1-5.3,2.8c-2.3,0.8-4.9,0.7-7.3-1c-0.4-3.1,0.7-5.8,2.4-8.1c1.3-1.8,2.8-3.5,4.3-5.1
	C199.5,576.5,201.6,573.9,203.3,571z M200.3,572.5c-0.8,0-1.8,0.1-2.8,0.1c-5.3,0.2-10.7,0.4-16,0.6c-1.6,0-3.1,0.5-4.3,1.5
	c-2.8,2.3-5.6,4.7-8.5,7c-0.7,0.7-1.2,1.3-2.3,2.3c0-3.1,1.3-12.3,2-14.5c5.9-0.2,11.9-0.2,17.9-0.5s11.9-1,17.9-2.5
	C203.7,568.6,203.2,569.3,200.3,572.5z M219.2,498.8c-1.9,0.2-3.8,0.4-5.6,0.8c-4.9,1-9.8,2.2-14.6,3.3c-0.6,0.1-1.3,0.2-2.1,0.3
	c3-4.3,25.9-21.2,33.9-25c-1.1,2.1-2.4,3.2-3.4,4.5c-0.9,1.3-1.9,2.5-2.8,3.7c-0.9,1.3-2,2.6-2.9,4.7c2-1.1,3.1-2.3,4.4-3.2
	s2.5-1.8,3.9-2.6c1.4-0.9,2.8-1.8,4.3-2.6c1.4-0.8,2.9-1.6,4.4-2.3c1.4-0.7,2.8-1.4,4.2-2c1.5-0.7,3.1-1.3,4.9-2
	c-1.7,15.5,0.6,30,7.3,44c-0.7,0-1.3,0-1.9-0.1c-3.9-0.9-7.8-1.8-11.7-2.6c-1.2-0.3-2.4-0.3-3.6-0.5c-1.1-0.2-2.2-0.4-3.6-0.6
	c0.6-0.7,0.9-1.1,1.3-1.4c2-1.3,4-2.4,6-3.7c0.5-0.3,0.9-0.8,1.4-1.2c-0.5-1.1-1.3-1-2.1-1c-2.9,0.3-5.8,0.5-8.6,0.9
	c-7.7,0.9-15.4,2.3-22.9,4.2c-0.6,0.2-1.3,0.1-2.2,0.2c0.9-1.9,2.4-2.9,3.6-4.1c1.3-1.2,2.6-2.4,3.9-3.6s2.7-2.3,4-3.5
	s2.7-2.2,4.1-3.6C221.6,498.7,220.4,498.6,219.2,498.8z M226.9,512.7c2.3-1,8.2-1.8,12-1.6c-0.6,1-1.6,1.3-2.4,1.8
	c-0.8,0.6-1.7,1-2.5,1.7c-0.8,0.6-1.4,1.4-2.3,2.3c0.8,0.4,1.3,0.8,1.8,0.9c3.7,0.7,7.4,1.3,11.2,2c3.5,0.7,6.9,1.5,10.4,2.3
	c1.2,0.3,2.2,0.8,3,1.9c2.1,2.6,4.7,4.7,7.5,6.6c3.2,2,6.5,3.8,10.7,2c0.4,1.4,0.7,2.5,1,3.7c0.1,0.4,0,0.8,0,1.5
	c-1.1-0.3-2-0.6-3-0.9c-7-2.4-14-4.9-21.1-7.3c-4.9-1.6-9.8-2.8-14.9-3.4c-2.3-0.2-4.6-0.3-7.1-0.4
	C227.8,522.1,225.6,518,226.9,512.7z M236.9,527.9c3.3,0.3,6.6,0.7,9.9,1.4c3.4,0.7,4.8,2.5,5.2,6c0.3,2.7-0.2,5.3-1.7,7.9
	c-1.7,0-3.5,0.2-5.2,0.1c-5.3-0.3-10.6-0.7-16-1c-2.9-0.1-5.8,0-8.6,0.3c-4.1,0.4-8.1,1.7-11.5,4.2c-4.7,3.5-9.9,4.1-15.5,3.4
	c-1.1-0.1-2-0.3-3-0.5c-0.6-1.6-0.3-2.8,0.6-3.9c1.7-2,3.4-4,6-5.2c2.7-1.3,5.1-3.1,7.7-4.7c4.6-2.8,9.1-5.5,13.7-8.3
	c1.3-0.8,2.6-0.9,4.1-0.8C227.4,527.3,232.1,527.4,236.9,527.9z M254.7,544.7c1-0.1,2.1-0.1,3.1,1c-1.8,0.4-3.4,0.2-5,0.3
	c-0.5,0-1-0.1-1.5-0.2c0.1-0.3,0-0.7,0.2-0.7C252.5,544.4,253.6,544.7,254.7,544.7z M190.9,552.7c0.8,0.9,2.2,1.1,2.7,2.5
	c-4.2,0.1-8.1-0.3-12.1-2.1c1.1-1,2.3-1.1,3.3-1.6c1.1-0.5,2.3-0.9,3.5-1.3C189.2,551.1,190.1,551.9,190.9,552.7z M192.8,552.3
	c0.1-0.8,0.7-0.5,1.1-0.5c2.7,0.3,5.3,0.3,8-0.3c2.7-0.5,5.1-1.4,7.3-3.1c3.8-2.8,8.1-4.1,12.7-4.5c4.7-0.5,9.3,0,14,0.2
	c4,0.2,8,0.4,12,0.6c0.1,0.1,0.6,0.1,1.3,0.2c-0.3,0.5-0.3,1-0.6,1.1c-0.6,0.3-1.3,0.4-1.9,0.5c-3.2,0.2-6.4,0.5-9.6,0.6
	c-2.1,0-4.2-0.3-6.3-0.3c-2.8-0.1-5.6-0.2-8.3-0.2c-0.6,0-1.3,0.3-1.9,0.6c-3.5,1.6-7.1,3.2-10.6,4.9c-2.5,1.2-5.2,2-7.9,2.4
	C198.7,555,195.5,554.6,192.8,552.3z M225.2,547.9c2.3-0.1,4.6-0.4,7.1,0.8c-2.8,1.9-5.6,3.1-8.4,4.3c-0.1,0-0.2,0-0.3,0
	c-3.8,0.1-7.4,0.1-11-0.4C216.5,550.1,220.6,548.2,225.2,547.9z M194.2,594.8c3.5,0.2,6.5-1.2,9.3-3.1c2.9-2,5.4-4.3,7.8-6.8
	c1.9-2,3.8-4.1,5.7-6.1c1.2-1.3,2.6-2.3,4.3-3.1c5.5-2.4,11-4.9,16.5-7.2c2.8-1.2,5.6-2.1,8.5-2.9c1.7-0.5,3.5-0.9,5.3-0.4
	c0.3,1.4-0.2,2.5-0.5,3.8c-1.3,0.2-2.6,0.5-3.9,0.7c-5,1-9.5,3.1-14,5.3c-4.8,2.4-9.5,4.9-14.2,7.5c-0.9,0.5-1.6,1.2-2.2,1.9
	c-2.9,3.3-6.1,6.2-9.7,8.6c-2.1,1.4-4.4,2.7-6.9,3.3c-2,0.5-4,0.6-5.9-0.3c-0.3-0.1-0.5-0.4-0.9-0.8
	C193.8,595,194,594.8,194.2,594.8z M232,577.9c5.1-3.2,10.4-5.7,16.3-7c0.8-0.3,1.7-0.6,2.9,0.4c-1.2,0.6-2.1,1-3,1.5
	c-1.9,1-3.9,1.7-5.6,3c-1.8,1.3-3.7,1.8-5.8,2.1c-1.6,0.2-3.3,0.4-4.9,0.6C231.9,578.3,231.9,578,232,577.9z M247.6,574.7
	c1.9-0.8,3.8-1.8,5.7-2.7c0.9-0.5,1.9-0.5,2.9-0.2c4.9,1.7,8.5,4.7,10,9.9c0.2,0.4,0.1,0.6,0,1c-0.6,0.2-1.4,0.4-2.1,0.6
	c-2.7,0.7-5.4,1.3-8.1,2c-1.3,0.3-2.5,0.9-3.7,1.4c-1.8,0.8-3.2,2-3.9,3.9c-1.6,4.6-5.1,7.4-9.1,9.8c-0.4,0.2-0.8,0.5-1.2,0.7
	c-2.7,1-4.2,3.2-5.4,5.6c-1,2.1-1.9,4.3-2.9,6.3c-1.1,2.3-2.3,4.5-3.7,6.7c-1.2,1.9-2.8,3.5-4.9,4.5c-2.1,1-4.5,0.6-6.1-1.1
	c-0.9-0.9-1.3-2-1.1-3.3c0.5-3.7,1.4-7.2,2.8-10.6c1-2.5,2-4.9,3.1-7.4c0.4-0.9,0.9-1.8,1.6-2.5c3.9-4.3,7.8-8.5,11.8-12.7
	c2.6-2.7,5.4-5.3,8.2-7.9C243.3,577,245.4,575.7,247.6,574.7z M253.4,565.7c2.4-0.5,10.9-0.8,13-0.4c-0.1,0.2-0.1,0.5-0.3,0.5
	c-3.2,1.3-6.3,2.6-9.5,3.9c-1.3,0.5-2.6,0.6-3.8-0.1C252.5,568.2,253.1,566.9,253.4,565.7z M233,609.7c0.4-0.8,0.8-1.6,1.1-2.4
	c1-2.2,2.5-3.8,4.7-4.9c1.8-0.8,3.4-2.1,5-3.2c2.4-1.7,4.3-3.9,5.3-6.7c1-2.6,2.8-4.2,5.4-5.1c3.7-1.3,7.4-2.2,11.3-2.8
	c0.3-0.2,0.6,0,1.1,0c0,1.2,0,2.4,0,3.8c-0.6,0.3-1.3,0.7-2,0.9c-2.4,0.9-4.8,1.7-7.2,2.5c-1.5,0.5-2.8,1.3-4,2.4
	c-4.9,4.6-9.9,9.2-14.8,13.9c-1,1-1.8,2.3-2.4,3.5c-1.8,3.2-3.9,6.2-6.7,8.7c-1,0.8-1.9,1.7-3.2,2.2c-0.1-0.3-0.1-0.4-0.1-0.5
	C229.2,618.2,231.1,613.9,233,609.7z M268.4,587c0-0.9,0-1.8,0-2.8c0.7-0.4,1.4-0.8,2-1c3.4-1.4,6.8-2.8,10.4-3.4
	c1.1-0.2,2.2-0.1,3.3,0c0.5-0.1,1,0.3,0.9,1c-3.1,2.4-12.3,6.4-16.3,7.1C268.6,587.6,268.4,587.3,268.4,587z M335.2,577
	c-0.1-0.5-0.6-0.9-0.8-1.3c0.4,0.1,1,0,1.2,0.2c0.8,0.9,1.5,2,2.1,3c1.6,2.4,3.1,4.8,4.8,7.2c0.9,1.3,1.9,2.5,3,3.6
	c1,1.1,2.3,1.7,3.8,1.8c2.3,0.1,4.6,0.5,7.4,0.7c-0.7,0.4-1.1,0.8-1.5,0.9c-5.4,0.9-10.7,1.8-16.3,2.7c-0.1-0.8-0.3-1.5-0.3-2.3
	C338.6,587.7,337.3,582.3,335.2,577z M334.3,575.7c0.1-0.1,0.2-0.2,0.3-0.3C334.5,575.5,334.5,575.6,334.3,575.7z M349.6,590.2
	c-1.5-0.1-2.6-0.7-3.5-1.7c-1-1.1-1.9-2.2-2.7-3.4c-1.6-2.4-3.1-4.8-4.8-7.2c-1.3-1.8-2.6-3.6-3.9-5.4c-0.9-1.1-1.9-2.2-3.4-2.6
	c-2-0.5-3.4-1.9-5.4-2.8c1.1-1.5,2.5-1.7,3.9-1.8c2.2-0.1,4.1,0.8,6,1.7c2.9,1.5,5.7,2.9,8.7,4.2c5.1,2.3,10.4,3.9,15.9,4.8
	c2.2,0.4,4.4,0.9,6.5,1.6c5.3,1.9,7.5,5.7,6.4,12c-3.5,0.7-7,1.4-10.5,2.1c-0.4,0.1-0.9,0-1.3-0.1
	C357.5,591.1,353.6,590.6,349.6,590.2z M303,438.4c4.5-0.2,8.9,0.4,13.3,0.9c3.9,0.4,7.7,0.8,11.6,1.1c2.7,0.3,5.3,0.4,8,0.7
	c2.4,0.3,4.4,1.5,6.2,3.1c-0.5-0.1-1,0-1.5-0.2c-6.2-1.8-12.6-3-19-3.5c-10.3-0.7-20.5,0.2-30.2,3.9c-5,1.9-9.5,4.8-13.8,8
	c-1.1,0.8-2.1,1.6-3.8,2.8c0.1-2.8,0.9-4.6,1.7-6.4c0.3-0.6,1-1.2,1.6-1.6C284.9,441.8,293.5,438.8,303,438.4z M481,383.6
	c0.8,1.1,1.9,0.2,2.7,0c2.6-0.7,5.1-1.6,7.6-2.4c0.9-0.3,1.9-0.5,3-0.9c0,1.2,0,2.1,0,3.3c-8.3,2.9-16.5,5.8-24.7,8.7
	c-0.6-0.7,0-1.1,0.2-1.5c1.5-2.4,3.2-4.5,5.4-6.2c2-1.5,4-3.2,5.9-4.8c0.4-0.5,0.8-0.7,1.2-0.9c0.3,1.1-0.4,1.6-0.7,2.3
	C481.3,382,480.4,382.8,481,383.6z M483.1,382.3c0.2-1.7,1.2-2.5,1.6-3.6c1.3-3.6,3.8-6.2,6.5-8.7c0.7-0.7,1.4-1.4,2.3-2.2
	c0.3,0.6,0.6,0.9,0.6,1.3c0.4,3,0.5,6.1,0.5,9.4C490.6,379.9,487,381.3,483.1,382.3z M476,391.4c3.1-1,6.1-2.1,9.1-3.2
	c3.1-1.1,6.1-2.1,9.2-3.2c0.8,1.4,0.5,2.5,0.5,3.6c0,1.5,0,3.1,0,4.7c0,4.8-1.3,8.9-5.1,12c-3.1,2.5-6.4,4.8-9.9,6.8
	c-5.5,3.2-11.4,5.3-17,8.2c-1.2-0.9-1.6-2.1-2.1-3.2c-1.4-2.9-2.6-5.9-4-8.8c-0.5-1.1-1.1-2.2-1.8-3.2c-0.6-0.9-1.2-1.1-2.3-0.8
	c-0.9,0.3-1.6,0.7-2.5,0.9c-2.4,0.7-4.9,1.5-7.4,2.1c-1.5,0.4-3.1,0.5-4.5-0.3c-0.5-0.3-0.8-0.9-1.7-1.7c3.4,0.5,6.1,0.2,8.7-0.9
	c2.5-1,5-2,7.3-3.3c3.8-2.3,7.5-4.8,11.2-7.2c1-0.7,2-1.4,3.1-2.2c0.1,0.9,0.2,1.6,0.3,2.6C470.3,393.9,473.1,392.4,476,391.4z
	 M438.7,408.6c1.5,0.2,3.1,0.3,4.6,0c2.9-0.7,5.8-1.7,8.6-2.5c0.4-0.1,0.8-0.3,1.4-0.5c0.4,0.5,1,0.9,1.2,1.4
	c0.8,1.6,1.5,3.2,2.3,4.8c1.3,2.9,2.6,5.9,4,9c-0.6,0.3-1.3,0.7-2,1c-10.1,3.7-20.5,6.6-31,9.1c-5.6,1.4-11.3,2.6-16.9,3.9
	c-0.9,0.3-2,0.4-3.2,0.7c-0.1-0.7-0.3-1.2-0.3-1.8c-1.1-16.1-2.2-32.2-3.3-48.3c0-0.3,0.1-0.6,0.2-0.9c5.3,0.1,20.7,6.3,27.1,10.9
	c0.3,1.1,0.6,2.3,0.8,3.4c0.3,1.5,0.9,3,1.9,4.2c0.7,0.9,1.3,1.7,1.6,2.9C436,407.5,437.2,408.4,438.7,408.6z M414.1,437.7
	c5,1.3,10.2,2.4,15.3,3.3c5.9,1,11.9,1.7,17.8,2.6c0.9,0.1,1.8,0.2,2.6,0.5c4.5,1.9,9,3.8,13.5,5.9c1.5,0.7,2.8,1.8,4.2,2.8
	c1.2,0.9,1.7,2,1.3,3.5c-0.3,1-0.5,2.1-0.8,3c-0.7,0.5-1,0.2-1.4-0.1c-9.2-6.7-19.6-10.3-30.6-12.6c-7-1.5-14.1-2.1-21.2-1.4
	c-0.7,0.1-1.3,0.1-2,0.2c-5,0.7-5.4,0.8-8.9,4.5c-9.2,9.9-18.3,19.8-27.4,29.7c-3.2,3.5-6.4,7.1-9.5,10.7c-0.6,0.4-1,1.1-1.5,1.7
	c-1.2-7.1,2.6-40.2,5.1-50.1c1.4-0.6,3-0.6,4.5-0.7c7-0.7,14-1.3,20.9-2.1c3.8-0.4,7.5-1.2,11.2-1.8
	C409.5,436.9,411.7,437.1,414.1,437.7z M367.7,445.9c-7.4,8.7-14,18.1-20.9,27.2c-0.7,1-1.4,2-2.6,3c0-0.8-0.1-1.2,0-1.6
	c2.3-11,4.8-21.9,8.1-32.7c2.9-0.6,5.6-0.3,8.4-0.3c2.7,0.1,5.4-0.2,8,0.3C368.8,443.3,368.8,444.7,367.7,445.9z M498.7,471.1
	c0-0.8-0.1-1.5-0.1-2.5c11.8-3.8,24-5.1,37-6.1c-2.1,1.6-3.9,2.1-5.6,2.8c-1.7,0.8-3.5,1.5-5.2,2.3c-1.7,0.7-3.4,1.5-5.2,2.3
	c0.5,1,1.3,0.7,1.8,0.6c6.3-0.3,12.7-0.8,19-1c6.6-0.2,13.1-0.2,19.7-0.3c0.7,0,1.5,0.1,2.2,0.2c0.2,1-0.6,1-1,1.1
	c-6.3,2-12.5,3.9-18.8,5.9c-6.4,2.1-12.8,4.4-19.2,6.6c-1.8,0.6-3.5,1.5-5.2,2.3c-0.7,0.3-1.3,0.8-2.2,1.4c1.2,0.8,2.3,0.8,3.3,0.9
	c4.6,0.7,9.2,1.4,13.8,2.1c0.5,0.1,1,0.3,2.1,0.7c-1,0.3-1.4,0.5-1.7,0.6c-8.9,2-17.8,4.1-26.5,6.7c-2.2,0.7-4.5,1.4-6.6,2.2
	c-1.1,0.4-2.2,1-3.3,1.7c-0.4,0.2-0.5,0.8-0.9,1.5c1.9,0.7,3.7,0.5,5.5,0.7c1.7,0.2,3.3,0.4,5,0.5c1.7,0.2,3.4,0.3,5.5,1
	c-8.7,2.6-17,5.1-25.3,7.6c-0.3,0.1-0.6,0-1,0c0-1.3,0.9-2.1,1.4-3c4.5-8,8.1-16.4,10.3-25.3c0.7-2.8,1.1-5.7,1.4-8.5
	C499.1,474.5,498.8,472.8,498.7,471.1z M477.2,562.8c-1.4-1-2.7-1.9-4-3c-2.3-2-4.9-2.5-7.8-2.2c-3.4,0.4-6.9,0.6-10.3,1.2
	c-5.3,0.9-10.5,2.1-15.7,3.2c-0.8,0.2-1.7,0.6-2.6,1c-0.2,0-0.4,0-0.6,0c-0.1,0-0.2,0-0.3,0.1c0.1-0.1,0.2-0.2,0.3-0.2
	c0.2-0.1,0.4,0,0.6,0.1c0.2-0.3,0.3-0.9,0.6-1c1-0.5,2-1,3-1.4c11-4.8,21.9-9.8,32.5-15.5c4.4-2.4,8.6-5,13-7.5
	c0.6-0.4,1.3-0.7,2.5-1.3c-3.7,9.3-7.7,17.8-9.4,27.5C478.3,563.4,477.7,563.2,477.2,562.8z M481.1,567.7c2.6,2,5.3,4.1,7.9,6.1
	c3.2,2.4,6.5,4.7,9.6,7.2c6.4,5.1,10.7,11.5,12.6,19.5c0.3,1.1,0.6,2.1,0.2,3.4c-0.4-0.3-0.8-0.5-1.1-0.8c-0.8-0.8-1.5-1.6-2.2-2.5
	c-1-1.3-2.3-1.7-3.8-1.4c-2.2,0.4-4.4,0.7-6.5,1.3c-6.3,1.7-12.6,3.5-19,5.2c-0.9,0.2-1.7,0.4-2.6,0.7c-2.3,0.8-4.4,0.3-6.3-1
	c-2.7-1.7-4.7-4-6.6-6.6c-0.4-0.5-0.5-1.2-0.6-1.8c-1.6-10.1-7.2-18-14.3-25.1c-2.5-2.4-5.3-4.4-8.3-6.1c-0.6-0.5-1.4-0.9-2.6-1.6
	c0.8-0.4,1.2-0.7,1.6-0.8c8.5-2.1,17.1-4,25.9-4.3c0.8,0,1.6,0,2.3,0c1.9-0.1,3.5,0.5,4.9,1.6C475.1,563.1,478.1,565.4,481.1,567.7z
	 M483.4,537.5c-9.5,5.6-19.1,10.8-29.2,15.4c-0.8,0.4-1.6,0.6-2.5,0.9c-0.1,0-0.2-0.1-0.4-0.2c7.1-7.8,13-16.3,15.9-26.7
	c4.3,0.2,7.5-1.9,10.5-4.6c1.8-1.6,3.4-3.5,5-5.3c0.7-0.8,1.3-1.5,2.3-1.8c4-1.3,8-2.6,12.1-3.8c0.3-0.1,0.6,0,1.1,0.1
	c-2.8,3.8-3.5,8-3.8,12.4c0,0.8-0.2,1.5-0.3,2.3c-0.4,3.1-1.7,5.7-4.6,7.3C487.4,534.7,485.5,536.3,483.4,537.5z M379.9,586.1
	c0.8-2.4,1.6-4.8,2.5-7.2c0.4-0.9,1-1.8,1.5-2.6c0.9-1.3,2.1-1.8,3.8-1.3c1.5,0.5,3,0.8,4.5,1.2c3.7,1,7.3,0.8,10.8-0.6
	c2.7-1.1,5.3-2.3,7.9-3.7c3.6-1.9,7.2-4,10.8-6c2-1,4-1.8,6.1-2.7c1.3-0.6,2.6-0.5,3.8,0.2c1.5,0.8,2.9,1.6,4.6,1.9
	c0.4,0.1,0.8,0.4,1.2,0.6c7.7,4.3,14.2,10,18.8,17.5c1.5,2.3,2.5,5,3.6,7.5c0.4,0.8,0.8,1.7,0.7,2.5c-0.2,1.5,0.2,2.8,0.7,4.2
	c0.3,0.8,0.2,1.5-0.1,2.3c-1.4,3.7-4,6.1-7.6,7.4c-2.4,0.9-4.9,1.4-7.5,1.4c-4.2,0-8.5-0.1-12.7-0.1c-2.7,0-5.3,0-8,0.1
	c-1.4,0.1-2.9,0.4-4.3,0.8c-2.9,0.8-5.2,2.5-6.5,5.3c-0.1,0.4-0.3,0.8-0.8,1.6c-0.6-1.2-1.1-1.9-1.5-2.7c-2.9-5.8-6-11.4-9.5-16.8
	c-1.9-2.9-4-5.7-6.1-8.3c-1.2-1.5-2.7-2.9-4.2-4.3c-0.7-0.7-1.6-1.2-2.5-1.7c-3.1-1.6-5.6-0.9-7.4,2.1c-0.5,0.8-0.8,1.6-1.3,2.3
	c-0.2,0.3-0.7,0.3-1.4,0.6C379.8,586.9,379.8,586.4,379.9,586.1z M512.9,598.6c-1.6-6.2-4.9-11.5-9.6-15.7c-2.9-2.6-6-5-9.1-7.3
	c-3.4-2.6-7-5.1-10.5-7.8c-3.6-2.8-3.6-2.8-2.6-7.3c0.6-2.5,1.2-5,2.2-7.4c2.1-5.5,4.4-10.9,6.6-16.4c0.7-1.9,2-3.2,3.7-4.1
	c4.2-2,8.7-3.5,13.5-4.2c-1,0.7-2,1.3-3,2c-4.5,2.9-8.6,6.4-11.7,10.8c-1,1.3-1.8,2.8-2.5,4.3c-1.2,2.7-1.1,5.5,0.3,8
	c0.8,1.5,1.8,2.8,2.8,4.1c1.3,1.7,2.8,3.2,4.2,4.7c5,5.6,9.4,11.6,12.8,18.3c2.3,4.5,4.1,9.1,4.5,14.2c0.2,2.2,0.1,2.9-1,5.8
	C513.2,599.8,513,599.2,512.9,598.6z M570.2,457c3.3,1.7,6.5,3.8,9.8,5.8c0.8,0.5,1.5,1.2,2.6,2.2c-5.2,1.3-9.9,2.4-14.6,3.5
	c-0.6,0.1-1.3,0-2-0.1c-8.5-1-17.1-0.7-25.7-0.3c-4.1,0.2-8.2,0.4-12.3,0.6c-0.3,0-0.6-0.1-0.9-0.2c0-0.2,0-0.3,0-0.4
	s0.2-0.2,0.3-0.2c4.8-2,9.6-4.1,14.4-6.1c0.1,0,0.2-0.1,0.3-0.2c-0.3-0.9-1-0.6-1.6-0.6c-14,0.6-27.9,2-41.5,6.1
	c-0.3,0.1-0.6,0.1-1.2,0.2c-0.3-0.6-0.7-1.2-1-1.9c-0.8-1.8-1.8-3.6-3.3-4.9c-2.7-2.4-6.1-2.9-9.2-1c-1.5,0.9-2.7,2.3-4,3.5
	c-0.8,0.8-1.4,1.7-2,2.6c-0.1-0.1-0.3-0.2-0.6-0.2c0.2-3.1,0.3-6.1,0.5-9.2c3-1.2,6-1.4,8.9-1.7c13.7-1.6,27.4-2.6,41.2-3.1
	c1.1,0,2.2,0.1,3.5-0.7c-0.5-0.4-0.9-0.8-1.3-0.9c-2.5-0.4-5-0.7-7.5-1c-0.1-0.7,0.3-0.9,0.7-1c7.8-0.7,15.5-1.4,23.3-1.4
	c1.1,0,2.2,0.2,3.2,0.7C556.9,450.4,563.6,453.6,570.2,457z M564.3,445.3c0.4,0.2,0.7,0.5,1.1,0.7c0.1,0.1,0.1,0.2,0.5,0.9
	c-18-3.2-35.5-1.2-53.5,1c2.6,1.4,5.2,1.1,7.5,2.1c-1,0.8-2.2,0.4-3.3,0.5c-1.3,0.2-2.7,0.3-4,0.4c-1.2,0.1-2.4,0.1-3.7,0.2
	c-1.3,0.1-2.4,0.1-3.7,0.3c-1.3,0.1-2.7,0.3-4,0.4c-1.2,0.1-2.4,0.2-3.7,0.3s-2.6,0.3-4,0.4c-1.2,0.1-2.4,0.3-3.6,0.4
	s-2.4,0.2-3.6,0.4c-1.3,0.2-2.6,0.4-4,0.6c-1.2,0.2-2.4,0.4-3.7,0.6c-0.5-1-0.6-2-0.5-3c0.4-0.2,0.7-0.4,1.3-0.7
	c-0.2-1.5-0.5-3.2-0.7-4.6c0.6-1,1.5-0.8,2.2-0.8c8.1-0.1,16.2-0.1,24.4-0.4c9-0.3,18-0.7,27-1.3c4.9-0.3,9.7-1.1,14.6-1.6
	C553,441.5,558.9,442.4,564.3,445.3z M545.6,408.5c15.2,4.4,30.4,8.7,45.5,13c1.2,0.3,2.3,0.8,3.5,1.1c1.3,0.4,2,1.3,2.5,2.5
	c0.9,2.6,0.3,5.1-1.3,7.3c-0.4,0.6-1.3,0.9-2,1.1c-2.6,0.7-5.1,1.5-7.8,1.9c-7.9,1.3-15.8,2.5-23.8,3.5c-9.6,1.2-19.2,2.3-28.9,3.1
	c-9.9,0.8-19.8,1.2-29.7,1.5c-11.8,0.3-23.6,0.6-35.4,0.1c-16.3-0.7-32.4-2.3-48.3-6c-1.7-0.4-3.4-0.9-5.1-1.4
	c0.1-0.1,0.2-0.3,0.2-0.5c2.6-0.6,5.1-1.3,7.7-2c12.2-3,24.4-6,36.3-10.3c4.7-1.7,9.6-2.9,14.5-3.7c18.2-3.1,36.4-6.2,54.6-9.3
	c4.1-0.7,8.1-1.4,12.2-2.1C542.1,408,543.8,408,545.6,408.5z M496.5,397.4c2.7-0.1,5.3,0.5,7.8,1.2c10.6,2.6,21.2,5.2,31.7,7.9
	c0.5,0.1,1,0.4,1.7,0.7c-3,1-62,11.1-66.8,11.4c1.1-0.6,1.8-1.1,2.5-1.5c3.5-2,7-3.9,10.4-6c2-1.2,3.9-2.6,5.7-4.1
	C493.8,403.8,494.8,402.3,496.5,397.4z M501.8,353.2c-0.9,2.7-2.3,5-4.1,7.2c-3.5,4.5-7.5,8.5-11.6,12.4
	c-7.9,7.5-16.2,14.6-25.2,20.9c-3.7,2.6-7.7,5-11.6,7.3c-2.3,1.4-4.8,2.4-7.4,2.9c-4,0.8-6.8-0.6-8.2-4.5c-0.3-1.5-0.6-3.2-1.1-5.1
	c-6.2-4.2-12.8-7.2-19.9-9.4c-9.5-3-19.3-4.5-29.2-4.9c-21.5-0.9-42.4,2.4-62.6,9.5c-1.3,0.5-2.7,1-4,1.6c-0.1,1.3-0.1,2.4-0.2,3.5
	c-0.1,2-0.5,4-1.3,5.8c-1.4,3.1-3.9,4.6-7.2,4.2c-2-0.3-3.9-0.9-5.8-1.5c-3.7-1.4-7-3.5-10.2-5.6c-6.3-4.2-12.2-8.9-17.8-14
	c-8.3-7.6-16.4-15.4-24.6-23.1c-2.4-2.3-3-5.4-2.9-8.6c0.1-2.1,1.5-3.3,3.7-3.6c2.3-0.4,4.7-0.2,6.9,0.4c2.4,0.6,4.7,1.4,7,2.2
	c5.4,2.1,10.5,4.9,15.2,8.3c1.7,1.3,3.3,2.7,4.8,4.1c7.5,7.3,15.7,13.8,24.1,20.1c0.4,0.3,0.8,0.5,1.2,0.7c0.8-0.4,1.6-0.8,2.3-1.3
	c13.9-8.6,29-14,45.1-16.7c10.2-1.6,20.4-2.1,30.6-1.1c17.8,1.8,34.3,7.4,48.9,17.9c0.7,0.5,1.5,1,2.1,1.5c1.3-0.3,1.9-1.3,2.7-2.1
	c8.3-8.2,16.8-16.2,25.9-23.6c4.7-3.9,9.6-7.7,14.8-10.8c2.8-1.6,5.7-3.1,8.6-4.4c1.5-0.7,3.2-1.1,4.8-1.2c3.5-0.3,6,1.6,6.7,5.1
	C502.7,349.3,502.4,351.3,501.8,353.2z M402.3,384.6c-0.8,0.8-1.7,0.4-2.5,0.3c-6.2-0.9-12.4-1.3-18.6-1.4
	c-6.6-0.1-13.1,0.1-19.7,0.7c-7.5,0.8-15,2.1-22.3,4.2c-6.3,1.8-12.5,4.1-18.4,7c-0.7,0.3-1.5,0.6-2.7,1.2c0-1.7,0-2.9,0-4
	c0.8-1.1,2-1.2,3-1.6c9-3.3,18.3-5.6,27.7-7.3c9.7-1.7,19.4-2.5,29.2-2.4c7,0.1,14,0.6,20.9,1.8c1,0.2,2,0.4,2.9,0.7
	C402,383.9,402.1,384.3,402.3,384.6z M509.4,340.7c0.7,1.2,0.3,2-0.1,2.8c-1.2,2.7-2.8,5.2-5.1,7.8c-0.1-1.3-0.1-2.2-0.2-3
	s-0.2-1.5-0.5-2.3s-0.7-1.6-1.2-2.6C504.4,341.7,506.8,340.8,509.4,340.7z M473.9,168.4c-0.1,2.5,0.1,5,0.2,7.4
	c-0.4,6.4-1.2,12.6-3,18.7c-0.4,1.3-0.9,2.5-1.3,3.8c-0.6,2.1-2.2,3.2-4.2,3.8c-3.3,1-6.6,1-9.8-0.1c-9.2-2.9-15.8-12.1-14.7-21.7
	c1.2-10.9,7.5-17.5,18.4-18.6c2.8-0.3,5.5-0.3,8.3,0.6c0.7,0.2,1.5,0.5,2.2,0.8C472.3,164.1,473.7,165.8,473.9,168.4z M462.3,106.8
	c-0.8-0.7-1-1.8-1.4-2.8c-0.5-1.1-0.9-2.3-1.3-3.4c-0.4-1-0.8-2.1-1.2-3.1c0.4-0.2,0.7-0.4,1-0.5c9-2.3,17.5-5.9,25.8-9.9
	c8-3.9,15.9-8,23.8-12c1-0.5,1.8-1.3,3.1-1.3C507.3,78.8,470.5,103.2,462.3,106.8z M120.3,134.9c-1.9-0.5-4-0.5-5.8-1.5
	c-1.2-2.9-1.7-6-2.1-9.1c-0.8-5.4-1.6-10.8-2.2-16.2c-1.4-13.3-2.7-26.6-3.9-39.9c-1.2-12.6-2.3-25.3-3.3-37.9
	c-0.4-5.4-0.5-10.9-0.8-16.3c0-0.8,0-1.5,0-2.6c0.9,0.1,1.7,0.1,2.3,0.3c5.6,1.6,11,3.7,16.3,6c9.4,4.1,18.5,8.8,27.6,13.5
	c22.4,11.5,44.6,23.2,66.5,35.6c2.4,1.4,4.8,2.8,7.2,4.2c0.8,0.4,1.4,0.8,2.8,1.8c-2.9,0.5-4.9,0.8-7,1.1
	c-16.8,2.7-33.3,6.7-49.6,11.8c-8.9,2.8-17.6,6.3-25.9,10.5c-2,1-3.9,2.1-5.7,3.4c-2.2,1.6-2,2.8,0.5,3.6c6.4,2,12.7,4,19.2,5.7
	c12.7,3.3,25.6,5.8,38.6,7.8c3.1,0.5,6.2,0.6,9.3,0.9c2,0.2,4,0.4,6,0.6c5.6,0.4,11.1,0.6,16.6,1.3c7.8,1.1,15.5,0.4,23.3,0.3
	c1,0,1.9,0,3.2,0c-1,3.2-2.9,5.5-4.2,8.2c-1.4,2.8-2.9,5.5-4.3,8.3c-1.4,2.7-2.7,5.4-4,8.1c-1.3,2.7-2.6,5.4-4,8.1
	c-1.3,2.7-2.6,5.4-3.9,8.1c-1.3,2.8-2.7,5.6-4,8.4c-1.3,2.7-2.6,5.4-3.9,8.1c-1.3,2.7-2.5,5.4-3.8,8.2c2.5,1.3,5.2,1,7.6,2.2
	c0.2,1.6,0.3,3.3,0.5,4.9c0.3,1.8,0.7,3.5,1.1,5.2c0.3,1.6,1.1,3.1,1.2,5.1c-3.4-1.4-6.5-2.5-9.7-3.2c-3.1-0.7-6.4-0.9-9.7-1.9
	c0.6-1.5,1.1-2.9,1.7-4.2c5.3-12.6,10.7-25.2,16-37.8c0.3-0.7,0.6-1.5,0.9-2.1c0.9-1.8,0.6-3.4-0.2-5.1c-0.9-1.7-2.1-3.1-3.6-4.3
	c-2-1.6-4.3-2.8-6.6-3.8c-6-2.6-12.2-4.1-18.6-5.3c-12.9-2.3-25.8-3.4-38.9-3.4c-5.3,0-10.7-0.1-16,0.1c-6.2,0.2-12.4,0.6-18.6,1.9
	c-1.3,0.3-2.7,0.5-3.9,1C123.1,135.2,121.7,135.3,120.3,134.9z M231.3,177.3c-1.5,0.8-3.1,1-4.8,1.4c-0.4-1.1,0.2-1.9,0.6-2.6
	c4.7-10,9.4-19.9,14.3-29.8c3.4-6.8,6.9-13.5,10.4-20.2c1.1-2.1,2.4-4.2,3.7-6.3c8.5-0.6,16.9-1.3,25.5-1.9c0.1,0.6,0.2,1,0.1,1.4
	c-0.9,5.4-1.7,10.9-2.7,16.4c-0.4,2.2-0.9,4.4-1.6,6.5c-1.9,5.9-4,11.8-5.9,17.7c-1.1,3.3-1.7,6.7-2.6,10c-0.1,0.3-0.3,0.5-0.4,0.8
	c-0.8,0.2-1-0.4-1.3-0.8c-1.4-2.1-2.8-4.3-4.2-6.4c-2.3-3.4-3.3-3.4-5.1,0.4c-0.3,0.5-0.6,1.1-1,1.8c-1.4-0.6-2.3-1.8-3.4-2.7
	c-1.3-1.1-2.5-2.2-3.9-3.1c-1-0.7-2-0.2-2.4,0.9c-0.4,1.2-0.6,2.3-1,3.6c-0.9-0.3-1.8-0.6-2.6-0.8c-3-0.8-4.7,0.3-5.2,3.4
	c-0.1,0.7-0.2,1.5-0.3,2.3c-1.2-0.1-2.2-0.2-3.3-0.1c-2.4-0.1-3.7,1.3-3.6,3.7C230.7,174.3,231.1,175.7,231.3,177.3z M228.9,185.4
	c-2,0.6-3.5-0.6-5.7-0.4c0.5-1.3,0.7-1.9,0.9-2.5c0.4-0.7,0.9-1.5,1.4-2.5C226.4,182,228.2,183.2,228.9,185.4z M279.5,116.2
	c-3.3,0.3-6.6,0.8-10,1c-9.5,0.5-18.9,0.9-28.4,1.4c-0.2,0.2-0.4,0.1-1,0c3.1-1.4,6.2-1.6,9.2-2.5s6-1.6,9-2.5c3-0.9,6-1.8,9-2.7
	c3-0.9,5.9-1.9,8.9-2.9s5.9-2,9.1-3.1c-0.1,0.8,0,1.3-0.2,1.8c-0.8,2.3-1.7,4.6-2.3,6.9C282.3,115.4,281.3,116.1,279.5,116.2z
	 M217.2,228.6c0.1-0.9,0.2-1.8,0.3-2.6c0.3-2.2,0.8-4.4,1-6.6c0.2-1.6,0.7-3,1.4-4.4c0.9-1.9,2.1-3.6,2.8-5.9
	c-4.3-1.2-8.6-1.7-12.8-2.5c-4.4-0.8-8.7-1.7-13.1-2.5c-4.3-0.8-8.5-1.6-12.6-2.3c-0.7-1.1-0.1-1.9,0.2-2.7c4-10.6,8-21.2,11.9-31.9
	c1.5-4.1,3-8.1,4.6-12.2c0.3-0.8,0.6-1.6,0.9-2.4c-0.9-1-2.1-1.2-3.1-1.5c-7.1-2.5-14.5-4.4-21.9-5.9c-12.2-2.4-24.5-4.5-36.7-6.7
	c-3.8-0.7-7.7-1.4-11.5-2.1c-0.3-0.1-0.6-0.3-0.8-0.4c-0.2-0.8,0.4-0.7,0.8-0.8c2.6-0.4,5.3-1,7.9-1.2c13.1-1.2,26.2-1.3,39.3-0.4
	c5.8,0.4,11.5,0.9,17.3,1.6c7.6,0.9,15.2,2.3,22.5,4.7c3.1,1,6.1,2.2,8.8,4c1.6,1.1,3,2.3,4.3,3.6c1.7,1.8,2.1,3.9,1,6.4
	c-3.7,8.3-7.1,16.8-10.7,25.2c-2.4,5.6-4.8,11.3-7.1,16.9c-0.4,0.9-0.7,1.8-1.1,3c1.8,0.3,3.4,0.6,5,0.9c3.2,0.6,6.3,1.3,9.5,1.9
	c0.9,0.2,1.7,0.5,2.6,0.8c3.8,1.2,6.3,3.6,7.5,7.4c0.4,1.2,0.8,2.3,1.2,3.5c1.6,5.2,3.6,10.3,6,15.2c-0.1,0.3,0.1,0.9,0.5,1.8
	c-0.9,0.6-1.6,1-2.6,1.6c0-1.4,0-2.5,0-4c-0.7,0.4-1.1,0.7-1.4,1c-1.3,1.5-2.6,3-3.9,4.4c-0.9-0.4-0.6-1-0.5-1.5
	c0.4-1.8,0.8-3.6,1.4-6.2c-0.9,0.8-1.3,1.1-1.5,1.5c-1.2,1.9-2.3,3.8-3.5,5.7c-0.8-0.5-0.5-1.1-0.4-1.5c0.7-3.1,1.4-6.3,2.2-9.4
	c0.1-0.5,0.1-1,0.3-2.1c-1.8,1.6-2.9,3.2-4.1,4.6s-2.4,2.9-3.6,4.4c-1.1,1.4-2.3,2.8-3.4,4.1c-1.2,1.4-2.3,2.9-4,4.7
	c0-3.6,0.8-6.5,1-10.2c-0.9,1.5-1.4,2.5-2.3,4.1C217,230.2,217.1,229.4,217.2,228.6z M247.9,235.6c1.3,0.2,2,1.3,2.8,2
	s1.6,1.5,2.5,2.3s1.8,1.6,2.8,2.4c0.9,0.8,1.9,1.6,2.8,2.3s1.8,1.4,2.6,2c1,0.7,2,1.5,3,2.2c0.9,0.6,1.8,1.3,2.7,1.9
	c1,0.7,2,1.4,3.1,2c1,0.7,2.1,1.3,3.1,2c0.9,0.6,1.9,1.2,2.8,1.8c1.1,0.6,2.1,1.2,3.2,1.9c-1.2,6.3-7.1,17.6-10.7,20.7
	c-1.7-2.5-3.4-4.9-2.3-8.2c0.3-0.9,0.4-1.9,0.7-3.1C260.3,257.3,253.6,246.8,247.9,235.6z M250.9,244.6c-2.4,0.4-4.5-0.4-6.6-0.7
	c-2.2-0.3-4.4-0.4-6.9-1.4c2.1-3.8,4-7.2,5.9-10.4c0.4,0,0.7,0,0.8,0.1c0.3,0.5,0.6,0.9,0.9,1.4
	C246.9,237.2,248.8,240.8,250.9,244.6z M252.9,320.1c-9.2-2-19.7-6.3-30.5-14.5c3.3-4.7,6.4-9.3,9.6-13.9c3.1-4.5,6.2-9,9.3-13.4
	c3.1-4.5,6.3-9.1,9.6-14c-9-2.1-17.6-3.8-26.1-5.7c-8.4-1.8-16.9-3.5-25.6-5.5c2.1-4,4.2-8.1,6.4-12.1c3.6-6.8,7.3-13.6,11-20.3
	c-1.6,6.1-3.3,12.2-4.9,18.4c0.3-0.6,0.7-1.2,0.9-1.8c0.7-1.6,1-3.4,2.4-5.3c-0.5,3.4-0.9,6.3-1.3,9.2c1.6-0.2,0.9-2,2.3-2.5
	c0,1.1,0,2.1,0,3.6c1.8-2.2,3.3-4,4.8-5.8c1.6-1.9,3.1-3.8,4.7-5.7c1.5-1.8,2.9-3.6,4.9-5.7c0,3.2-1,5.7-1.5,8.2
	c-0.5,2.6-1.3,5.1-1.6,8.2c2.2-2.5,3.1-5.2,5.3-7.8c-0.3,1.9-0.5,3.1-0.7,4.4c0.8,0.4,1-0.3,1.4-0.6c1.3-1.4,2.5-2.8,3.8-4.2
	c0.4-0.4,0.8-0.7,1.2-1.1c0.6,0.9,0.1,2.2,1.6,2.4c-1.3,3-3.2,5.6-4.5,8.8c5.6,1.4,11.1,1.8,16.6,3.1c0.5,0.8,1.1,1.6,1.7,2.4
	c3.6,5.7,7.2,11.5,10.9,17.2c0.8,1.2,1.1,2.4,0.7,3.8c-0.3,1-0.5,1.9-0.6,2.9c-0.2,1.7-1,3.1-2,4.5c-5.7,7.7-10.7,15.8-15.7,24
	c-0.2,0.4-0.3,0.8-0.5,1.3c1.1,2,3,3.2,4.5,4.9c1.4,1.6,3,3,4.4,4.5c0.1,2.9-0.4,5.6-0.9,8.5C254,320.4,253.5,320.3,252.9,320.1z
	 M262.7,280.3c0,0.4,0,0.7,0,1c-2.2,9.4-4.3,18.8-6.5,28.2c0,0.2-0.3,0.3-0.4,0.5c-2-1.2-4.5-3.5-7.6-7.2
	C249.5,299.4,260.2,282.8,262.7,280.3z M239.2,345.1c0.4-0.6,1-0.4,1.5-0.1c1.1,0.5,2.1,1.2,3.2,1.8c0.9,0.4,1.7,0.9,2.5,1.4
	c0,0,0.1,0,0.1-0.1c-0.8-1-1.5-2-2.4-2.9c-1.4-1.7-2.7-3.5-3.3-5.8c-0.2-0.6-0.3-1.3-0.3-2c0-1.9,1.3-2.9,3.1-2.4
	c1.9,0.5,3.4,1.5,4.9,2.7c0.9,0.7,1.8,1.4,3.1,1.8c-0.4-0.9-0.8-1.7-1.2-2.6c-0.7-1.6-1.5-3.2-2.1-4.9c-0.2-0.5-0.2-1.1,0.1-1.5
	c0.4-0.7,1.2-0.4,1.8-0.2c1.4,0.5,2.7,1,4.3,1.6c0.2-0.6,0.4-1,0.4-1.5c0.5-12.3,3.1-24.3,5.8-36.2c1.2-5,2.5-9.9,3.8-14.9
	c0.2-0.7,0.5-1.4,0.9-2.5c0.8,1.2,1.3,2.1,1.9,3c0.5,0.7,1.4,0.8,2.1,0.3c0.6-0.5,1.2-1,1.7-1.6c0.9-1.3,1.9-2.5,2.6-3.9
	c2-4.1,4-8.2,5.9-12.3c0.2-0.5,0.4-1,0.6-1.6c0.9-2.8,0.8-3.1-1.6-4.6c-4.1-2.6-8.3-5.2-12.4-7.9c-7.2-4.9-13.8-10.6-19.7-17
	c-1.5-1.6-2.8-3.4-3.7-5.5c-2.2-4.6-4.2-9.3-5.8-14.2c-0.5-1.7-1.4-3.3-2-4.9c-0.9-2.5-1.8-5-2.5-7.6c-1.1-4.1-2.1-8.2-2.1-12.5
	c0-1.5-0.7-2.8-1.5-4c-0.6-0.8-1.5-1.4-1.5-2.8c1.8-0.4,3.6-0.9,5.6-1.4c-0.1-0.6-0.1-1.3-0.2-1.9c-0.2-1.3-0.6-2.6-0.7-3.9
	c-0.1-1.5,0.8-2.3,2.3-2.2c1,0.1,1.9,0.4,2.9,0.6c0.5,0.1,1.1,0.2,1.8,0.3c0-0.8,0-1.5,0-2.1c0-0.8,0-1.6,0.1-2.3
	c0.3-1.8,1.4-2.5,3.1-2c0.9,0.2,1.6,0.6,2.5,1c0.6,0.3,1.1,0.6,2,1c0.2-1.2,0.3-2.2,0.5-3.1c0.2-0.8,0.5-1.6,0.9-2.7
	c3.3,2,5.6,4.7,8.4,7.1c1.5-1.6,1.7-3.8,3-5.1c1-0.1,1.3,0.6,1.6,1.1c1.5,2.2,2.9,4.5,4.4,6.7c0.9,1.3,1.7,2.6,3.3,3.1
	c0.3,0.1,0.7,0.3,0.7,0.5c0.7,2.2,2.6,3.6,3.9,5.3c6,8,12.1,16,18.1,24c0.3,0.4,0.7,0.8,1.1,1.3c2.9-2.6,5.7-5.2,8.1-8.1
	c5-5.9,6.2-12.6,3.9-20c-3.3-10.8-12.4-17.2-23.7-16.5c-3.2,0.2-6.1,1.2-8.5,3.4c-0.4,0.4-0.8,0.7-1.7,1.4c0.3-1.4,0.4-2.2,0.6-3.1
	c1.6-5.1,3.2-10.2,5.1-15.2c2-5.3,3.1-10.6,3.9-16.2c0.5-3.4,1-6.8,1.7-10.2c1.1-5.2,3-10.2,4.9-15.2c0.3-0.7,0.5-1.4,0.8-2.3
	c-1.6-0.1-2.6,0.6-3.8,0.9c-7.5,2.4-15,4.9-22.5,7.3c-8,2.5-16.1,4.5-24.3,6.1c-3.1,0.6-6.1,0.9-9.3,0.7c-5.8-0.4-11.6-0.8-17.3-1.1
	c-3.6-0.2-6.8-1.2-9.6-3.3c-3.2-2.3-6.4-4.4-9.5-6.8c-5.6-4.4-11.1-9-16.6-13.5c-1.5-1.3-2.9-2.8-4.3-4.2c-0.5-0.5-0.8-1.2-1.4-2
	c0.8-0.3,1.4-0.7,2-0.8c13.7-4.2,27.6-7.7,41.8-10.1c11.9-2,23.8-3.4,35.8-4.4c7.4-0.6,14.9-0.8,22.3-1c5.9-0.2,11.8,0,17.7,0.1
	c6.5,0.1,12.9,0.8,19.3,1.5c1.4,0.2,2.6,0,3.8-0.7c8.7-4.7,18-7.5,27.7-9.5c12.9-2.6,26-3.7,39.2-3.2c14,0.5,27.7,2.2,41.1,6.5
	c3.5,1.1,6.9,2.5,10.5,3.8c0.2-0.2,0.7-0.3,1-0.6c7.4-6.7,15.5-12.4,24-17.4c23.6-14,48.6-25,75.1-32.7c1.2-0.3,2.4-0.6,3.5-1
	c0.2,0,0.4,0,0.7,0.1c0.9,0.6,0.8,1.5,0.9,2.4c0.3,3.6,0,7.1-0.7,10.6c-2.6,11.8-6.6,23.1-12.8,33.5c-1.3,2.3-3,3.9-5.4,5.2
	c-12.1,6.4-24.1,12.9-36.6,18.5c-7.3,3.3-14.7,6.4-22.6,8.1c-0.4,0.1-0.8,0.4-1.2,0.6c0.3,0.8,0.6,1.5,0.9,2.3
	c3.7,8.5,6.1,17.4,7.6,26.5c1.1,6.8,2.1,13.6,3.3,20.4c0.2,1.4,0.6,2.8,1,4.2c1,3.5,2,7.1,2.9,10.6c0.2,0.6,0.1,1.3,0.1,2
	c-0.5-0.1-0.9-0.1-1.1-0.3c-5.5-2.8-11.2-2.5-16.9-0.9c-7.6,2.2-11.8,7.6-13.9,14.9c-3.4,12.1,4.4,23.6,14.6,26.9
	c2.8,0.9,5.6,1.3,8.6,0.7c1-0.2,2-0.3,2.9-0.5c0.5,0.8-0.1,1.3-0.5,1.7c-1.4,1.9-2.8,3.7-4.5,5.8c0.1,0.7,0.1,1.7,0.3,2.7
	c2.6,13.4,5.2,26.9,7.9,40.3c1.4,6.9,2.8,13.7,4.3,20.6c1.2,5.9,3.3,11.5,5.5,17.1c2.5,6.5,5.1,13,7.6,19.6
	c2.1,5.6,3.8,11.4,4.5,17.4c0,0.3,0.2,0.6,0.3,1c1.9-0.4,2.9-2.6,5.1-2.5c0.4,3-1.5,5.3-2.5,8.1c0.6-0.1,1.1,0,1.5-0.2
	c1.7-0.6,3.3-1.2,5-1.8c0.9-0.3,0.9-0.2,2.7,0.4c-0.1,2.8-1.6,5.2-2.8,7.5c-0.4,0.1-0.6,0.2-0.8,0.2c-3-1.1-5.9-0.7-8.8,0.4
	c-3.4,1.2-6.5,2.9-9.5,4.8c-6.5,4-12.6,8.8-18.4,13.8c-7.4,6.2-14.5,12.9-21.4,19.7c-0.9,0.9-1.7,1.7-2.7,2.6
	c-0.8-0.5-1.5-0.8-2.1-1.2c-13.8-9.7-29-15.4-45.7-17.4c-28-3.4-54.2,2.4-78.6,16.6c-1,0.5-1.9,1.1-3,1.7c-0.7-0.5-1.4-0.8-2-1.3
	c-8-6-15.7-12.4-23-19.3c-7.7-7.4-17-12.1-27.4-14.6c-1.6-0.4-3.3-0.4-5-0.5c-2.1-0.2-4,0.7-5.8,1.5c0,0.1,0.1,0.1,0.1,0.2l0.1,0.1
	c-0.1,0-0.2-0.1-0.2-0.1c-0.9,2-1.6,4.1-0.8,6.4C242.9,353.7,239.7,348.9,239.2,345.1z M271.2,169.5c0.4-2.7,1.9-4.8,4.3-6
	c1.5-0.7,3.1-1.4,4.7-1.6c9-1.3,20.5,4.2,23.2,14.4c0.7,2.7,1.4,5.4,1.4,8.2c-0.1,1.9-0.4,3.7-1.1,5.5c-1.7,4.3-6.4,9.9-10.8,12.7
	c-0.6-0.8-1.2-1.5-1.8-2.3c-6-7.8-11.9-15.8-18.1-23.5C271.1,174.5,270.8,172.2,271.2,169.5z M242.6,364.1c0.3-1.8,0.8-3.5,1.3-5.2
	c0.1-0.5,0.5-1,0.8-1.6c0.8,0.6,1.5,0.9,1.9,1.5c3.7,4.3,8,8,12.1,12c8.1,7.9,16.5,15.6,25.5,22.6c4,3.1,8.2,6.1,12.7,8.6
	c3.1,1.8,6.3,3.3,9.9,3.9c5,0.8,8.2-0.8,10.2-5.4c0.7-1.5,1.6-2.5,3.1-3.3c8.8-4.5,18-7.6,27.6-9.7c9.7-2.1,19.6-3,29.5-3
	c8,0,16,0.4,24,1.7c0.4,0.1,0.8,0.3,1.4,0.4c0.7,5.4,0.9,10.8,1.3,16.2c0.4,5.4,0.7,10.9,1.1,16.3s0.8,10.9,1.2,16.4
	c-0.8,0.3-1.4,0.5-2,0.6c-9.5,1.8-19.1,2.8-28.8,3.4c-8.6,0.5-17.1,0.7-25.7,0.5c-9.1-0.3-18.2-0.8-27.3-1.7
	c-11.2-1.1-22.3-2.7-33.4-4.9c-8.4-1.6-16.7-3.7-24.9-6.1c-1,0-1.8-0.4-2.7-0.7c-0.1-4.3-0.4-8.1-0.4-12c0-3.8,0.2-7.5,0.4-11.4
	c-6.7-4.2-13.9-7.3-20.7-11.2c-0.1-0.4-0.2-0.8-0.2-1.3C240.7,381.8,241.1,372.9,242.6,364.1z M259.2,414.5
	c-6.4-2.5-12.4-5-18.1-8.4c0-3.9,0-7.6,0-11.5c0.3,0,0.6-0.2,0.9,0c5.6,2.9,11.2,5.8,16.8,8.7c0.3,0.1,0.5,0.4,0.8,0.6
	C260.1,406.5,259.9,411.2,259.2,414.5z M240,407.7c6.6,2.9,13.1,5.7,19.5,8.6c0.6,3.2,0.5,6.9-0.1,9.6c-0.7-0.2-1.5-0.2-2.2-0.5
	c-4.7-1.7-14.7-6.8-17.4-8.7c0-2.4-0.1-4.9-0.1-7.5C239.8,408.8,239.9,408.4,240,407.7z M229.1,428.5c2.9-2.2,6-4.3,9-6.3
	c1.2-0.8,2.5-1.4,3.9-2.1c8.4,4.5,17.5,7.7,27.2,10.5c-1.3,2.4-2.3,4.3-3.3,6.3c-1.1,2.2-2,4.4-3,6.7c-0.3,0.7-0.2,1.3,0.9,1.6
	c2.2-1.6,4-4,6.8-5.7c-0.1,0.8,0,1.4-0.2,1.8c-1.6,3.6-3.3,7.1-4.8,10.7c-0.9,2.1-1.6,4.4-2.4,6.6c-0.4,1.2-0.4,2.4,0,3.6
	c0.5,1.7,0.9,3.4,1.3,5.2c0.1,0.4,0,0.8,0,1.7c-0.9-1-1.4-1.7-2-2.3c-0.8-0.8-1.6-1.6-2.5-2.1c-2.3-1.4-4.9-1.1-6.6,0.9
	c-1.1,1.3-1.9,3-2.7,4.5c-0.7,1.4-1.1,2.9-1.6,4.5c-1.4,0.6-2.8,1.1-4.3,1.7c-1.4,0.6-2.9,1.2-4.3,1.9c-1.3,0.6-2.6,1.2-3.9,1.9
	c-1.4,0.7-2.7,1.5-4.1,2.3c-1.3,0.7-2.5,1.7-4.5,2.4c3-4.4,6.6-7.6,10.1-11.5c-0.9,0.2-1.5,0.2-1.9,0.4c-3.2,1.8-6.5,3.5-9.6,5.4
	c-10.7,6.7-20.8,14.1-30.3,22.4c-0.6,0.6-1.4,1.1-2.4,1.9c0.2-1.2,0.2-2,0.4-2.7c1.1-3.3,2.2-6.5,3.5-9.7c3-7.7,6.6-15.1,10.9-22.1
	c3.5-5.8,7.4-11.4,12.8-15.7c0.2-0.2,0.3-0.5,0.5-0.9c-2.2-0.2-4.1,0.3-6,1c-2.9,1.1-5.8,2.2-8.8,3.3c-3.6,1.3-6.8,3.3-10,5.3
	c-1.5,0.9-3.1,1.8-4.6,2.6c-0.3,0.2-0.8,0.2-1.4,0.3c0.3-1.4,1.1-2.2,1.9-3c4.1-4.4,8.2-8.8,12.5-13
	C213.1,441.7,220.9,434.8,229.1,428.5z M141.2,572.6c2.6-4.6,5.2-9.4,8.1-13.8c5.1-8,10.5-15.8,15.7-23.6c0.6-0.9,1.3-1.8,1.9-2.9
	c-1.5-2.5-2.9-5.1-4.5-7.4c-1.8-2.5-1.4-4.7,0.2-7c1.9-2.7,4.1-4.9,6.5-7.2c0.9-0.8,1.9-1.6,2.9-2.4c-0.8-1.3-1.4-2.2-2-3.1
	c-2.3-3.3-4.4-6.7-6-10.4c-2.2-5.3-2.5-6,0.6-11.6c1.4-2.5,3.1-4.9,5.1-7c3.1-3.5,6.3-6.9,9.8-10c5.6-5,11.5-9.8,17.3-14.6
	c2.1-1.7,4.1-3.4,6.2-5.1c2.1-1.8,2.1-1.8,2.3-4.7c2.5-1.8,5.5-2.9,8.4-4.4c0.3-0.2,0.8-0.1,1.9-0.3c-1.2,1.2-2,2-2.8,2.7
	c-5.4,5.2-10.8,10.3-16,15.6c-2.5,2.5-4.8,5.3-7,8c-0.8,1-1.3,2.3-1.9,3.5c-0.1,0.2,0.1,0.7,0.3,0.9c0.2,0.2,0.6,0.3,0.9,0.2
	c0.8-0.4,1.6-0.8,2.4-1.2c3-1.9,6.1-3.7,9.1-5.6c4.9-3,10.2-4.8,15.7-6.4c0.2,0,0.4,0,0.8,0.1c-2,2.6-4.1,5-5.9,7.6
	c-1.8,2.5-3.5,5.1-5.1,7.8c-1.6,2.8-3.2,5.6-4.6,8.5c-1.4,2.8-2.7,5.6-3.9,8.5c-1.2,3-2.4,6-3.4,9.1c-1,3-1.8,5.9-2.1,9
	c0.5,0.7,1,0.4,1.6,0.3c6.1-1.3,12.1-2.7,18.3-4c2.4-0.5,4.8-1.1,7.2-1c0.4,0.8-0.3,1.1-0.6,1.4c-2.9,2.6-5.8,5.2-8.7,7.8
	c-1.1,1-2.3,2.1-3.3,3.3c-0.8,0.9-1.6,1.8-1.7,3.1c0.6,0.9,1.4,0.6,2.2,0.4c4.6-1,9.1-2,13.7-2.9c1.4-0.3,2.8-0.5,4.4-0.8
	c0.3,2.3,0.3,4.7,0.9,6.8c0.6,2.1,1.8,4,2.9,6.2c-1.7,0.3-3.4,0.1-5-0.1c-4.5-0.6-3.4-1-7.8,1.7c-5.7,3.5-11.3,7.1-16.9,10.7
	c-1,0.7-2.1,1.3-3.1,1.9c-4.6,2.5-5.7,3.7-7.4,8.7c-3.3,1.7-6.8,2.9-10.4,3.8c-0.4,1,0.3,1.3,0.9,1.5c3.6,1.4,7.4,2.5,11.3,2.7
	c1.9,0.1,3.8,0.1,5.7,0.2c1.2,0,2.4-0.1,3.6-0.5c2.9-0.8,5.9-1.3,8.8-1.8c0.1,0,0.2,0,0.3,0c3.5,0,7.1,0.1,10.6,0.2
	c0.3,0.8-0.2,1-0.5,1.2c-1.8,1-3.7,2-5.5,3.1c-1.9,1.1-3.8,2.4-5.2,4.2c-0.7,0.8-1.5,1.4-2.4,1.7c-1.6,0.5-3.2,1-4.8,1.3
	c-5.5,1.1-11,1.6-16.6,1.9c-3.3,0.2-6.7-0.1-10-0.3c-4.2-0.2-8.4-0.7-12.6-0.9c-7.4-0.4-13.7,2.1-19.2,7.1c-1.1,0.1-1.5,1-2.5,1.1
	C140,574.3,140.7,573.5,141.2,572.6z M140.2,575.4C140.2,575.4,140.3,575.4,140.2,575.4L140.2,575.4z M140.2,575.3
	c0,0.2-0.1,0.4-0.1,0.6c-0.1-0.1-0.2-0.2-0.3-0.3C140,575.5,140.2,575.4,140.2,575.3z M161.8,611.8c-0.5-0.2-0.9-0.3-1.1-0.5
	c-3.6-3.4-7.3-6.9-10.9-10.3c-3.1-3-6.3-5.9-9.4-9c-1.3-1.3-2.4-2.9-3.6-4.4c-0.6-0.8-0.8-1.6-0.4-2.5c5.8-13.7,17.8-19.1,29-16.5
	c0.3,0.1,0.6,0.2,1,0.4c0.3,1.7-0.1,3.3-0.3,4.9c-0.3,2.2-0.7,4.4-1,6.6c-0.3,2.3-0.4,4.6-0.6,7c-0.4,5.7-1.2,11.3-1.8,16.9
	c-0.1,1.3-0.3,2.7-0.4,4C162.2,609.5,162,610.6,161.8,611.8z M313.7,681.7c-14.6,3.4-29.4,6-44.3,8c-14.6,1.9-29.2,2.9-43.9,2.9
	c-14.5,0-28.9-1.1-43.3-3.1c-6.1-0.9-10.2-3.9-13.1-9.1c-2.3-4.2-3.7-8.8-4.6-13.5c-1.7-8.4-2.2-17-2.2-25.6
	c-0.1-14.5,0.9-28.9,2.7-43.3c0.4-3.1,0.7-6.2,1-9.3c0.1-1.5,0.7-2.7,1.8-3.8c3.1-3.2,6.4-6.2,10-8.8c1.3-0.9,2.6-1.5,4.3-1.5
	c4.4-0.1,8.9-0.3,13.4-0.5c1,0,2,0,3.3,0c-0.3,0.7-0.4,1.2-0.7,1.6c-1.7,2.2-3.4,4.4-5.2,6.5c-1.9,2.2-2.9,4.7-3.4,7.5
	c-0.6,2.8,0.5,5,2.8,6.6c2.6,1.9,5.5,2.3,8.6,1.4c4.6-1.3,8.6-3.5,12.1-6.9c1.8-1.8,3.6-3.7,5.4-5.5c2.5-2.5,5.6-4.1,9-4.7
	c3.1-0.6,6.2-0.9,9.3-1.3c0.6-0.1,1.2,0,2.1,0c-0.3,0.6-0.4,0.9-0.6,1.1c-4.6,5-9.2,10-14,14.8c-3,3-5.2,6.3-6.6,10.2
	c-1.5,4-3.4,7.8-4.1,12c-0.1,0.9-0.3,1.8-0.3,2.6c0,3.8,3.8,7,7.7,6.4c2.3-0.4,4.5-1.2,6.6-2.3c0.7-0.4,1.3-0.7,2.3-1.2
	c-0.7,2.8-1.2,5.4-1.9,8c0.1,0.2,0.3,0.5,0.5,0.7c2.2,3.6,5.6,4,9.4,3.7c2.7-0.3,5.1-1.4,7.3-3.1c4.2-3.3,8-7.1,11.3-11.3
	c1.7-2.2,3.6-3.9,5.9-5.3c1.3-0.8,2.6-1.7,3.9-2.5c3.9-2.5,8.1-4.2,12.6-5.1c5.6-1.1,11.1-2.3,16.7-3.4c4.8-0.9,9.6-1.7,14.5-2.5
	c7-1.2,14-2.3,21.1-3.4c7.9-1.3,15.8-2.5,23.7-3.8c11-1.8,21.9-3.9,32.6-7.2c-0.5-0.2-0.2-0.2,0.4-0.3c3.3,2.6,5.8,5.8,7.8,9.2
	c3.2,5.5,5.6,11.4,7.9,17.3c3.9,10.6,6.5,21.5,8.8,32.5c0.1,0.6,0.1,1.3,0.2,2c-1.5,1.2-3.2,1.7-4.8,2.3c-6.9,2.8-13.9,5.4-20.8,8.2
	C363.1,668.5,338.7,675.9,313.7,681.7z M601.2,637.3c1.4,12.7,2.1,25.5,1.4,38.3c-0.3,5.1-0.7,10.2-1.7,15.3
	c-1.1,5.4-4,9.3-8.9,11.8c-5.5,2.8-11.3,4.6-17.4,5.7c-8,1.5-16.1,1.7-24.3,1.5c-12.7-0.3-25.3-2.1-37.7-4.5
	c-22.9-4.4-45.2-10.9-67.3-18c-21.7-7-43.1-14.9-64.6-22.4c-0.6-0.4-1.1-0.6-2.3-1.2c10.7-4.2,20.7-8.1,30.9-12.1
	c2,0.8,4.1,1.6,6.1,2.5c1.5,0.7,2.7,0.8,4-0.3c1.2-0.9,2.6-1.7,3.9-2.5c6.3-3.9,12.7-7.8,19-11.8c4-2.6,8.3-4.2,13-4.8
	c1.4-0.2,2.9-0.5,4.1-1.2c2.5-1.2,4.5-2.9,5.1-5.9c2.2-0.4,3.7-1.8,5.1-3.5c1.1,0.6,2.1,1.1,3,1.7c1.6,1,3.4,1.2,5.1,0.5
	c2-0.8,3.9-1.6,5.8-2.6c2.5-1.4,5-3,7.4-4.5c1.4-0.9,2.7-1.1,4.4-0.7c5.9,1.5,12,2.5,18.2,3.4c0.2-0.7,0.5-1.3,0.5-1.9
	c0.2-2.8,0.3-5.5,0.4-8.3c0-1.2,0-2.4,0-3.7c0.5-0.4,0.8-0.8,1.3-1.1c5.4-3.9,10.8-7.9,16.2-11.8c4-2.8,8-5.6,12.2-8.2
	c4.5-2.8,9.3-4.7,14.5-5.7c5.5-1,10.9-0.5,16.2,0.8c5.9,1.5,11.3,4,16.6,6.9c1.2,0.7,1.8,1.6,2,2.9c1.3,6.4,2.7,12.8,4,19.3
	C599.1,619.8,600.3,628.5,601.2,637.3z M600.4,621.5c-1.7-10.5-3.6-20.5-6.1-31.2c1.9,1,3,1.6,4.2,2.3c5.9,3.7,11.5,8,16.9,12.4
	c1.7,1.4,2.5,3,2.5,5.3C613,615.2,607.6,619.3,600.4,621.5z M383.9,240.7c-2.6,0.2-5.3,0.5-7.9,0.9c-3.2,0.4-6.4,0.4-9.6,0.1
	c-3-0.3-6-0.7-8.9-1c-1.2-0.1-2.3-0.1-3.4-0.2c-0.4,1.8,0.6,2.7,1.6,3.6c4.3,3.8,9.2,6.6,14.4,8.8c1.3,0.6,2.6,0.5,3.9,0
	c0.7-0.3,1.4-0.6,2.1-1c4.2-2.4,8-5.2,11.5-8.4c0.4-0.4,0.8-0.8,1.1-1.2c0.2-0.3,0.1-0.8,0.2-1.4
	C387.1,240.4,385.5,240.6,383.9,240.7z M386.3,242.9c-3.3,3.2-7,5.8-11,8.1c-2,1.2-3.9,1.2-6,0.2c-4.1-2.1-8.1-4.2-11.6-7.1
	c-0.4-0.4-0.8-0.8-1.1-1.2c-0.3-0.2-0.2-0.4-0.2-0.7c5.1,0.4,10.1,0.9,15.1,1s9.9-1.1,14.9-1.2C386.3,242.5,386.4,242.8,386.3,242.9
	z M433.5,304.7c1.7,0.4,3.1,0.2,4.5-0.2c6.8-1.6,13.6-3.4,20.4-5c2.6-0.6,4-2.1,4.9-4.5c1.9-5.2,3-10.5,3-16c0-0.9-0.1-1.8-0.4-2.6
	c-0.5-1.6-1.9-2-3.1-0.9c-0.2,0.2-0.4,0.5-0.7,0.8c-8.6,9.8-17.5,19.3-28.1,27C433.8,303.6,433.7,304.1,433.5,304.7z M463.7,276.8
	c1.1,0.1,1.1,0.8,1.2,1.5c0.3,2.8-0.2,5.5-0.7,8.3c-0.5,3.1-1.3,6.1-2.6,8.9c-0.6,1.3-1.4,2.2-2.8,2.6c-6.9,1.9-13.8,3.7-21,4.8
	C447.2,294.8,455.7,285.9,463.7,276.8z"/>
</svg>
