<?xml version="1.0" encoding="UTF-8"?>
<svg id="Layer_1" data-name="Layer 1" xmlns="http://www.w3.org/2000/svg" viewBox="0 0 208.25 208.13">
  <path d="M101.67.03c37.58-1.02,75.39,21.43,93.51,53.98,31.39,56.37,3.61,125.14-55.56,147.5C63.03,230.45-15.83,159.84,2.75,80.46,13.29,35.41,55.3,1.29,101.67.03Z" style="fill: #040608;"/>
  <path d="M53.15,56.9c.47-.42.75-1.26,1.25-1.6.48-.4,1.39-.77,2.04-.39.34.19.44.76.63,1.05.52.41,1.09-.52,1.42-.94.41-.54.85-.89,1.42-.69.3.13.64.55.97.28.6-.65,1.06-2.5,2.23-1.28.31.25.39.91.79,1,.26.02.63-.32.8-.67.16-.31.28-.65.56-.67.48-.06.83.37,1.17.69.36.36.83.22,1.2.47.42.5,1.21.38,1.65.75.5.81,1.07,1.18,1.94,1.58,1,.6,1.5,1.5,1,2.74-.08.31-.16.64-.04.94.35.64.83,1.37,1.24,1.97.24.27.58.34.92.44.47.11.72.65,1.17.85.85.26,2.06.19,2.28,1.23.21.61-.31,1.36-.7,1.98-.14.58.54.95.68,1.64.17.54.2,1.12.04,1.57-.15.55-.65.74-1.15.96-.46.31-1.04.47-1.51.62-.27.15-.46.55-.8.76-.26.2-.31.41-.24.7.04.2.04.41-.02.61-.12.3-.49.6-.56.87-.11.27.11.52.35.87.31.45.69,1.19.71,1.66.07.6-.4.95-.86,1.14-.1.06-.13.11-.08.17,1.4.63,3.47,2.95,1.85,4.45-.14.19-.34.47-.18.69.12.21.43.26.66.21.45-.13.88.04,1.25.38.69.53,1.11,1.29,1.81,1.74.4.31.67.75.87,1.23.14.34.24.73.47,1.02.26.31.84.37,1.28.52.74.29,1.13.85,1.77,1.25.37.29.12.92.45,1.25.65.35,1.4.86,2.16,1.11.44.27.5.75.78,1.17.43.73,1.37.58,2.08.73.39.09.7.19.67.56-.05.31-.43.61-.86.7-1.27.29-3.08-.15-4.26-.26-.35-.03-.24.03.05.09,1.91.36,4.03-.21,5.86.35.61.03,2.06-.09,1.54.91-1.08,1.15-2.85.09-4.21-.02-.42-.02-.91.02-1.4.03-7.65-.03-11.53,1.84-15.22-5.86-.21-.19-.33-.61-.49-.08-1.5,5.19-4.25,10.87-9.26,13.37-.36.14-.62.12-.67-.2-.03-.13,0-.32.01-.48.05-.06-.07-.47-.14-.35-.42.1-1.16.5-1.69.54-.66.03-1.12.37-1.37.94-.26.38-.77.2-1.16.38-.25.11-.41.37-.6.64-.44.67-1.26.93-1.8,1.45-.29.34-.35.96-.65,1.44-.5,1-1.53,1.68-2.19.5-.95-1.3-1.12.3-.95,1.08.17.71-.37,1.33-.16,2.04.35,1.15.84,2.91-.34,2.99-.2,0-.45.06-.64.14-.11.08-.17.2-.17.37.22,1.95,1.38,4.03.77,5.7-.03.16-.03.28.02.38.08.17.33.27.56.45.7.57.53,1.81.81,2.51.5.64,1.52.91,1.49,1.8.04.36,0,.81.16,1.14.17.4.63.7.88,1.1.56.73,0,1.74-.91,1.8-.77.05-1.14-.52-1.44-1.12-.19-.28-.58-.45-.89-.67-.97-.61-1.1-1.97-1.99-2.69-1.34-.95-1.83-2.86-2.09-4.34-.22-.6-1.15-.8-1.46-1.24-.39-.6.4-2.38-.61-2.66-.21-.11-.42-.18-.48-.46-.22-.59-.17-2.08-.03-2.68-.09-.46-.59-.74-.79-1.3-.2-.44-.15-.88.09-1.3.24-.43.49-.91.38-1.42-.28-1.33-1.52-2.61-.93-4.08.06-1.07-.23-2.2,0-3.25-.15-.71-.71-1.27-.69-2.14-.06-.72.21-1.2.48-1.71.11-.32-.38-.76-.3-1.37,0-.6.37-1.15.31-1.6-.08-.41-.52-.59-.75-1.18-.24-.58-.49-1.23-.46-1.71-.04-.76.88-.6,1.14-1.05.12-.45-.21-1.14-.14-1.63-.02-.56.16-1.07.26-1.61.06-.8-.05-1.75.55-2.36.12-.11.24-.26.35-.38-.22-1.03-.36-2.62.27-5.24,1.79-7.1,5.37-18.27,9.75-23.98l.08-.06Z" style="fill: #6acbd6;"/>
  <path d="M39.28,127.76c-.94-.84-1.86-3.05-.96-4.16.07-.1.1-.2.09-.33-.12-.54-.39-1.58-.14-2.23.19-.76.63-1.32,1.16-1.09,1.27,1.14,1.57,3.17,2.57,4.51.91,1.44,1.93,3.2,3.52,3.96.28.43.08.43.24,1.11.16.58.97.75,1.12.92.13.18.03.63.34,1.08.9,1.34,1.96,2.58,3.56,3.01,3.28,2.88,7.44,4.79,10.7,7.46.19.13.39.18.57.2.36,0,.57.25.99.38,1.04.09,2.23.34,3.24.81,1.03.42,1.99,1.02,2.8,1.44.47.18,1.05-.04,1.61.1,6.83,1.86,14.66,3.01,21.32.18.55-.15,1.19-.17,1.78-.16,2.04.25-.41,2.28,2.58,1.25.27-.05.55.11.73.15.14.03.22-.05.28-.25.09-.36.25-.98.67-1.07.46-.24.79,1.06,1.32.82.09.08.04-.42-.02-.44-.58-1.43,1.36-.38,1.74-1.33.42-.73,1.23-.04,1.75.21.56.26,1.07-.3,1.64-.09.33.11.62.26.96.22.74-.29,1.62-.74,2.5-.76.9-.13,1.82.11,2.68,0,.46-.13.71-.84,1.19-1.14.55-.45,1.51-.42,1.72.33-.05,1.37-1.04,2.74-1.19,4.11,4.37-3.47,6.06-9.91,7.49-15.21.15-.34.42-.53.59-.72.22-.23.32-.64.58-.9.89-.94,2.94-1.92,4.29-1.72.54.05,1.14.27.77.91-.05.19-.2.53,0,.65.25.17.71-.01,1.03.2.33.2.53.68.88,1.04.37.41.93.77.85,1.16-.15.56-1.14.87-1.55,1.35-.58.67.45.22.83.03.64-.22,1.79-.75,2.56-.56.76.03,1.6-.21,1.98.75.18.48.35.97.94,1.02.82.41,1.82,0,2.72.16,1.13.14,1.65.88.77,1.65,0-.04-.53.63-.45.61-.13.41.08.76.28,1.15.4.79.13,1.87-.69,2.24-.43.2-1.08.12-1.44.46-.31.28-.42.83-.27,1.14.4.51.99,1.02,1.44,1.57.27.27.62.54.74.83.12.33-.09.63-.33.88-7.92,7.99-15.43,16.11-22.49,24.71-8.27,5.86-17.46,2.18-17.47-9.63,0-.42-.06-.78-.43-.96-.41-.17-1.05-.36-.82-.92.09-.23.2-.47.08-.73-.39-.79-.93-.41-1.62-.27-.41,0-.86-.1-1.33.05-.47.15-.93.35-1.31.29-.49-.04-.86-.35-.96-.94-.05-.26-.08-.48-.18-.53-.17-.11-.64.31-.87.42-1.07.51-1.28.11-1.51-.9-.05-.06-.12.22-.21.52-.11.55-.52.86-1.05.7-.44-.16-.91-.55-1.43-.53-.46.02-.9.12-1.31.26-.41.13-.81.35-1.16.53-.4.22-.89.03-1.3.21-.31.17-.53.57-.94.54-.89.03-1.68-1.21-2.43-1.48-.49-.2-.41-.63-.59-1.02-.14-.26-.56-.42-.87-.51-.06-.13-.16.3-.11.38.05.46.05,1-.17,1.23-.17.23-.49.24-.85.34-.73.25-1.85.52-1.89-.58,0-.09,0-.11-.03-.06-.03.05-.09.16-.21.28-1.07.97-2.99-1.09-1.33-1.85.55-.18,1.85-.14,1.87.6,0,.21-.06.24-.11.04-.05-.19-.09-.51-.29-.6-.47-.21-1.46.07-2.01-.24-.8-.31-.56.73-.9,1.16-.59.69-2.21.32-2.12-.66-.02-.09-.08-.12-.19-.1-.23.04-.7.18-1.11.13-.86,0-2.54-.62-1.98-1.62.12-.17.21-.38.26-.58-.07-.36-.16-.3-.29-.38-.58-.1-.35.73-.53,1.09-.22.64-.99.16-1.34-.15-.38-.46-.57-1.43-1.14-1.59-.45-.06-.97.65-1.49.42-.49-.09-.71-.77-1.22-.98-.53-.2-1.18-.2-1.53-.6-.36-.29-.47-.88-.78-1.3-.26-.38-.71-.59-.99-.93-.39-.42-.35-.92-.33-1.42-.03-.22-.22-.36-.38-.55-.23-.26-.06-.59-.12-.87-.56-.35-1.69-.08-2.42-.08-.88.13-2.01-.81-1.25-1.6,1.01-.72-.09-1.01-.81-.84-.58.19-1.17-.08-1.18-.71-.05-.31.22-.84,0-1.07-.2-.14-.84.28-1.41.38-.89.24-2.54.18-1.51-.88.07-.01.25-.44.14-.41-.22-.27-1.22-.33-1.62-.83-.39-.46-.34-1.14.04-1.26.11-.07.25-.07-.04-.07-.57-.06-1.85-.15-1.35-.98.13-.18.17-.37.11-.58-.64-.34-1.73-.79-1.69-1.56-.04-.43.38-.93.3-1.39-.17-.85-.42-1.68-1.4-1.91-.53-.24-1.11-.4-1.43-.89-.13-.22-.3-.49-.43-.71-.41-.72-1.55-.14-2.02-.78-.7-1.08,1.41-2.37,2.92-1.58.14.07.18.12.13.1-.13-.04-.46-.38-.58-.52l-.09-.1Z" style="fill: #3b7eb0;"/>
  <path d="M108.96,178.92c4.58-2.6,7-7.88,10.33-11.72,5.29-6.03,11.81-10.75,17.68-16.16,7.41-.36,15.13-.57,22.36-2.76.25-.07.42-.07.43.07-.81,2.56-2.08,5.07-3.39,7.49-2.39,4.27-5.46,8.13-9.69,10.57-11.89,8.47-26.83,14.96-41.55,14.95-1.04-.11-.09-.72.72-.89.99-.32,2.17-.91,2.96-1.47l.13-.08Z" style="fill: #3878aa;"/>
  <path d="M63.43,37.98c.43.1,1.43-.19,1.87.05.2.08.43.18.62.27.88.29,1.26,1.06,1.45,1.93.12.37.48.53.78.26.28-.41.69-1.26,1.23-1.04.53.23.51.81.15,1.25-.44.56-.23,1.09.42,1.31.25.13.54.26.62.54.15.67-.06,1.56-.01,2.3.12.68,1.02.89,1.24,1.5.24.46.18,1.04-.01,1.59-.03.26-.04.48.22.63,1.36.54-.23,2.29.16,3.12.31.56,1.2.42,1.62.9.68.66.95,1.71,1.48,2.45.21.28.45.5.53.84.14.57-.13,1.3.6,1.49,1.74.4,2.24,2.06,2.06,3.74-.03.54.33.82.76,1.1.25.18.42.43.59.71.27.52.91.75,1.37,1.02.72.47.6,1.36.77,2.09.13.4.55.64.84.94.25.31.33.68.63.92.43.27.63.72,1,1.02.39.23,1.01.27,1.4.53.38.19.61.51.98.64.68.2.81.09,1.35.27,1.18.59.22,1.75-.38,2.81-.17.29-.36.6-.67.76-.97.35-2.43.29-3.45.78-.34.38-.08,1.28-.84,1.3-.58.08-1.45-.31-1.94-.77-.18-.14-.3-.19-.39-.09-.36.58-.56,1.29-.09,1.92.29.53.3,1.11-.05,1.42-.22.21-.67.25-.88.45-.39.42.03,1.28.46,1.42.38.15.68.38.71.93.02.22.09.46.23.63.18.18.54.18.84.24.67.18.77.85.42,1.42-.23.42-.85.68-.82,1.17.08.25.55.42.8.65.28.22.36.56.56.78.19.23.5.36.67.62.12.23.14.52.35.63.42.21,1.44-.08,1.9.2.66.24.78,1.1,1.49,1.29,1.34.3,2.05,1.54,2.66,2.88.42.56,1.33.61,1.63,1.26.3.52.98.28,1.45.53.49.18.87.85,1.28.93.26-.05.58-.11.81-.24,1.33-.57,1.16,1.74,2.37,1.44.68-.2,1.28-.34,1.82-.21.66.02,1.29,1.03,1.89,1.02.59-.23.91-1.23,1.63-1.41.63-.25.67-.78.55-1.45-.04-.64.1-1.19.66-1.49.67-.25.72-.47.61-1.17,0-.31.1-.61.01-.79-.08-.24-.42-.1-.73.12-.4.32-.78.46-1.12.11-.45-.51-.04-1.33.08-1.88.26-1.07-.52-1.79-1.14-2.59-.25-.45-.09-1.09-.22-1.5-.1-.37-.09-.73-.25-1.06-.29-.44-1.11-.62-1.45-1.21-.4-.54-.78-1.3-.76-1.78.02-.28.25-.38.56-.32,1.84.3,4.25,3.18,5.19,5.06.14.35.11.77.02,1.13-.1.32.21-.1.69-.12.84,0,1.59.89,1.68,1.73.16.92.38,1.97-.16,2.83-.12.2-.23.45-.3.67-.09.75.19,1.63-.36,2.31-.1.13-.18.31-.17.47.05.17.44.25.6.55.17.39.3.98.56,1.42.43.69-.36,1.35-.62,1.93-.24.41-.81.26-1.23.31-.33.03-.57.25-.9.34-.43.13-1.04-.09-1.54-.06-.31.04-.53.25-.79.41-.62.28-1.47.48-1.96.79-.07,0-.22.01-.29.02-1.35-.51-2.78-1.19-4.22-1.54-1.47-.43-3-.78-4.39-1.22-.22-.07-.34-.16-.29-.3.08-.23.76-.65.65-.78-.06-.16-.82.05-1.09.08-.31.05-.48-.23-.95-.38-1.45-.41-3.01-.03-4.47-.24-2.18-.65-.16-.47,1.62-.49,1.03-.08,3.01.23,2.62-.27-.6-.48-1.69-.04-2.31-.58-.5-.27-.76-.81-.89-1.2-.24-.61-.99-.51-1.53-.96-.36-.3-.85-.36-1.23-.56-.12-.14-.18-.08-.19-.54.03-.26.18-.82-.12-.87-.26-.14-1.04.49-1.15.28-.17-.19.56-.83.3-1.07-.54-.34-1.51-.26-2.05-.64-.29-.21-.34-.81-.65-1.48-.25-.78-.97-1.22-1.68-1.38-.09-.1.04-.45,0-.6-.13-.27-.55-.41-.82-.72-.35-.52-.72-.33-1.19-.22-.44-.01-.8-.36-1.02-.73-.42-.64.27-.84.61-1.25.24-.33.32-.99.25-1.37-.26-.62-.85-1.16-1.32-1.71-.38-.4-.93-.29-1.27-.68-.14-.44.01-.46.16-.64,2.35-.88-.17-1.89-.3-3.27-.11-.61.9-.91.72-1.51-.27-.39-.71.23-.95.43-.23.26-.88.47-.5-.26.12-.22.26-.45.32-.66.1-.3-.06-.71.04-.92.11-.27.66.01.91.12.3.14.61.07.87-.13.5-.51-.08-.41-.7-.5-.59-.07-.63-.55-.41-.96.41-.6,1.3-.53,1.76.07.47.69.65.66,1.22.31.37-.21.94-.3,1.15-.68.32-.78.05-2.33-.96-2.53-.48-.16-1.34.04-1.58-.49.11-.65.78-.28,1.14-.23.49,0,1.19-.6,1.33-1.12.18-.71.29-1.32-.66-1.39-.56-.14-1.06.1-1.5-.1-.28-.29-.58-1.26-1.19-1.05-.46.07-.78,1.02-.44,1.33.26.23.77.13.71.47-.03.33-.47.79-.79.72-.36-.03-.43-.58-.52-.89-.14-.42-.55-.97-.34-1.37.09-.22.29-.46.37-.68.22-.85-1.34-1.89-1.34-2.76.13-.8.7-1.58.24-2.29-.63-.76-2.13-1.06-2.72-2.18-.51-.57-1.05.04-1.51-.73-.42-.55-1.04.31-1.33.1-.13-.1-.09-.54-.29-.86-.3-.51-.85-.55-.53.11.15.41-.9.45-1.08.86-.79,1.09-1.09-.62-1.48-1.13-.51-.56-.87-.26-1.06.4-.28.57-.73,1.26-1.05,1.44-.11.06-.21.04-.29-.03-.18-.17-.39-.71-.75-.75-.31-.06-.59.18-.79.5-.35.64-.87,1.12-1.53,1.42-.56.28-.73-.17-.89-.85-.14-.58-.57-.76-.97-.45-.35.34.14.94.33,1.72.18.63.71,2.12-.42,1.6-.1-.08-.14-.2-.19-.34-.14-.43-.64-.79-.62-1.29,0-.33.19-.8.11-1.14-.05-.28-.22-.38-.4-.24-.36.35-.59,1.02-.95,1.33-.15.14-.23.13-.26.02-.14-.51.73-3.11,1.76-4.3.5-.69,1.09-.47,1.46-1.07.36-.53.16-1.27.27-1.82,1-2.11,4.92-7.57,3.28-9.22-1.06-.91.47-1.67,1.27-2.1.68-.32,1.46-.84,2.2-.55l.13.03Z" style="fill: #72d1da;"/>
  <path d="M33.38,132.62c12.33,20.91,39.42,35.74,63.24,26.54.18.04.25.28.27.62.42,12.2,6.55,15.28,17.34,10.55-3.44,6.27-11.2,8.65-17.55,4.41-2.45-1.31-5.27-3.02-5.52-5.89-.12-1.23.67-2.7,2.01-3.84,0-.14-.43.21-.68.32-25.26,14.63-51.03-9.01-59.14-32.67l.03-.04Z" style="fill: #1b4868;"/>
  <path d="M83.76,39.42c.12.28.4.58.36.92-.03.53-.53.99-1.04.82-.23-.04-.48-.1-.64-.06-.16.03-.19.22-.1.35.25.27.79.03,1.18.41.32.26.92.72,1.3.61.28-.21-.06-.86.18-1.1.39-.52,1.01.12,1.55.21.34.11.68.12.91.27.87.6-.03,1.45-.27,2.21-.15.44-.38.81-.76.9-.52.17-.96-.46-1.41-.52-.57-.02-1.02.69-1.48.99-.26.21-.48.38-.44.43.3.02,1.24-.23,1.66-.02.55.12.91.87,1.4,1.28,1.87.93.77,2.37.32,3.85-.05.43-.16,1.9-.14,2.36.05.09-.02.18.25.04.96-.74,2.3-.81,1.64.79-.19.46-.76.85-1.02,1.33-.23.52.22.44.61.22.27-.12.53-.09.79.02.53.18.96,1.02,1.45.94,1.1-.51,2.33-1.4,3.37-2.06.34-.33.21-1.01.33-1.38.56-1.15,2.3.42,2.04,1.47-.05.76-.76,1.28-1.09,1.93-.04.26.21.59.19.89-.06.44-.46.92-.68,1.33-.25.56-1.19.58-1.86.8-.55.27-.32,1.15-.01,1.48.21.26.56.29.89.46.45.2.76.74,1.09,1.13.57.78,1.65.97,2.54,1.49.11.15.33.45.45.6.14.54.09.52.08.79-.03.44-.41.99-.63,1.18-.15.17-.08.2.21.3.97.3.91,1.59,1.8,2.01.4.2.8.51.8.98.12.41-.43.98-.19,1.33.62.09,1.36-.52,2.03-.32.69.02,1.18.61,1.77.82.51.03,1.08-.45,1.64-.43.95-.23,2.37,1.02,2.25-.77-.02-.16-.08-.32-.16-.48-.93-1.27.27-2.47.86-3.57.29-.69.44-1.46.81-2.06.35-.6.78-1.18,1.41-1.44.19-.1.4-.24.54-.4.55-1.01-1-1.17-1.67-1.63-.72-.44-1.07.29-1.45.88-.42.41-.44.34-.7.46-.99.38-2.43.06-1.64-1.2.27-.43.79-.79,1.06-1.24.15-.55-.03-1.26-.18-1.85-.21-.6-.38-1.07-.02-1.47.82-.78-.55-1.34-.8-2-.12-.28.02-.46.34-.63,1.61-.67,2.58,2.08,2.87,3.19.88.88,2.24,1.32,3.32,1.71,1.26.31,2.4.02,3.74.27.65.12,1.21-.56,1.63-.55.36,0,.7.57,1.08.54.45.02,1.13-.57,1.41-.31.24.2.11.94.25,1.3.13.38.51.62.69,1.02.34.65.43,1.44.08,2.07-.26.81-.81,1.57-.38,2.4.3,1.2-.97,2.09-1.44,3.12-.22.41-.21.83-.36,1.17-.24.53-.83,1-1.11,1.64-.3.55-.48,1.28-.65,1.89-.14.5-.59.85-.71,1.27-.1.63-.09,1.33-.69,1.78-.66.53-2.16.99-2.99,1.41-.33.06-.67.08-.97.27-1.48,1.32-3.6,2.07-5.58,1.89-.43-.04-.61-.47-.87-.68-1.15-.48-2.16-1.5-3.22-2.26-2.48-1.86-5.26-3.51-6.82-6.31-.21-.36-.82-.9-.92-.27-.05.21.23.59.39.91.71,1.43-1.1.07-1.56-.22-1.16-1.07-2.23-.62-3.42-1.54-.31-.38-.18-.9-.64-1.16-1.42-.71-.35-3.6-1.7-4.78-1.08-.7-1.38-2.38-2.32-3.11-.8-.2-1.92-.51-2.46-1.31-.34-.43-.59-.97-.76-1.63-.15-.76-.62-1.18-.98-1.73-.24-.41-.18-1-.46-1.39-.27-.4-.86-.59-1.04-1-.16-.29-.1-.71-.25-1.02-.12-.33-.47-.53-.66-.81-.2-.34-.18-.81-.48-1.13-.27-.33-.76-.57-.84-.96-.09-.31.11-.64.18-1,.12-.66-.21-1.39-.14-2.05.02-.31.03-.6-.08-.86-.4-.69-1.12-1.42-.81-2.31.09-.32.3-.57.32-.88.04-.17-.62-.32-.64-.34-.42-.14-.91-.46-.66-.91.22-.5,1.17-1.03,1.53-1.69.14-.18.33-.37.54-.48.47-.14.84,0,1.18-.12.42-.21,1.2.11,1.76.08.95-.23,1.74-1.31,2.76-1.14.81.09,1.02.62,1.06,1.21l.05.13Z" style="fill: #8fd8dd;"/>
  <path d="M117.23,132.63c.07.64.19,1.7.18,2.49.12,1.34-.45,2.98-.73,1.41-.7-7.3-4.56-13.04-8.61-18.96-2.37-1.85-4.38-4.26-6.92-5.97-.2-.09-.06.32.03.73.24,1.12.27,2.57-.62,3.36-.55.85-.87,2.39-2.11,2.37-.25.07-.28.39-.54.57-.91.47-2.48.92-3.44.85-.37,0-.6-.23-.84-.19-.23.04-.54.32-.89.29-5.74-.46-13.12-3.75-14.18-9.88-.1-.43-.48-.59-.66-1.02-.24-.57-.08-1.37.38-1.74.17-.2-.01-.46.09-.8.52-1.01,1.45-1.87,2.42-2.51.28-.18.35-.31.09-.38-6.38-1.15-12.99-.27-19,2.1-.32.08-.63.04-.71-.17,21.25-14.99,54.83,1.37,56.03,27.31v.13Z" style="fill: #aeebeb;"/>
  <path d="M39.39,127.7c.2.15.59.1.83.17.38.07.13,1.11-.32.9-.49-.3-1.12-.63-1.75-.3-.59.24-1.07.7-.89,1.02.19.32.72.42.72,0,.01-.24.12-.59.43-.5.45.09.36.68.7,1.11.26.33.44.8.6,1.08.42.56,1.84.68,2.46,1.09.25.22.12.54.2.86.25.99.73.86,1.45.39.55-.19.85-.39,1.31-.54.15,0,.22-.06.41.14.14.26-.56.48-.78.77-.24.29-.3.66-.64.7-.67.03-1.93-.08-1.71,1.09.25.94,1.81.7,1.85,1.45,0,.19-.08.34-.22.46-.1.06-.38.15-.32.29.55.56,1.11-.16,1.04-.8.06-.26-.06-.43.28-.51.36.12.36.21.47.34.13.21.09.45.16.59.07.15.31.16.59.11.68-.21,1.09.13,1.1.85.04.87-.74.93-1.24.43-.27-.24-.61-.56-.87-.65-.36-.14,0,.36.07.51.02.29-.44.04-.4.42,0,.23.11.57.29.7.26.15.72.22,1.07.33.43.05.59,0,.8.25.16.18.56.2.45.45-.05.37-1.23.63-1.27.93.14.07,1.73-.25,2.15-.35.23-.14.08-.41,0-.61-.14-.39.76.23.99.3.31.14.5.48.46.79-.05.24-.21.45-.3.68.03.09.09.27.12.35.33.3.33.13.53.06.52-.57.84-.11,1.41.15.34.09.66.34.64.72-.15.45-.31.33-.51.46-.45.12-.41.87-.02,1.1.18.1.44.05.74.02.32-.02.64-.03.81-.17.33-.33.39-1.37.93-1.54.49-.22,1.39.56,1.19,1.03-.06.14-.23.13-.4.06-.38-.26-.91.02-.88.43.07.27,2.08.1,1.36.9-.81,1,.8.01,1.17.22.11.07.66.58.65.66-.6.2-1.74.24-1.48,1.19.09.39.55.69,1.04.83.8.2.31,1.28.97,1.69.54.53,1.49.06,1.85.72.1.19.26.39.41.55.41.29.8.07,1.07-.36.18-.24.48-.48.65-.44.04-.12.29.38.26.4.05.29.27.47.53.55.53.26.1,1.34.9,1.54.76.08.16-.84.31-1.21.33-.67,1.33.12,1.78.27.31.09.66.14.64.3-.07.3-.69.56-.88.75-1.12.84,1.13,1.14,1.72,1.22.55.02,1.29-.75,1.83-.45.68.63-1.74,1.24.41,1.41.7.13.65-.1.47-.82-.29-.71,1.01-.6.27-1.07-.39-.17-.73-.49-.24-.68.3-.1.69,0,1.03.06.3.08.57.05.74.29.02.17-.31.63.09.93.26.24.61.07.84-.04.24-.13.52-.01.92.29.48.31.91.7.13,1.1-.48.16-.53-.79-1.1-.68-.45,0-1.07.23-.97.77.06.34.41.63.74.61.33-.01.69-.24.97-.13.25.06.61.55.62.5.34.26.46-.27.72-.36.35-.06.93.26,1.04-.24.18-.51-.57-2.37.63-1.67.48.25.47.23.71.32.5.17,1.24.28.86.93-.1.22-.11.4.07.33.33-.12.84-.86,1.3-.66.1-.07.18.35.07.36-.64.67-.78.89.16,1.49.39.26.82.41.96.34.24-.11-.08-.63.4-.7.37,0,.81.03,1.18.07.24-.06.12-.56.09-.86-.04-.52.61.32.84.36.16.03.14-.26.27-.38.12-.15.39-.07.71.02.73.19,1.47-.31,2.11.23.95.71.81-.24,1.12-.9.46-.48,1.56-.38,1.1.51-.2,1.09.97.18,1.35-.17,1.3-1.03,1.07-.28,1.02.83.25,1.37,1.69.14,2.5.26.69.14,1.6-.4,2.14-.06.34.19.78.71.82,1.16-.04.6-.63,1.01-1.1,1.36-21.94,9.67-53.57-7.11-62.7-29.78-.18-.47.03-1.08.61-1.02.34.05.65.21.86.03.37-.4.93-1.58,1.71-1.24.18.09.38.14.58.14.28-.02.58-.4.89-.57.26-.14.53-.13.81-.06.58.15,1.22.17,1.53.42l.11.06Z" style="fill: #3679a8;"/>
  <path d="M121.34,36.55c.14.17.45.38.49.77,1.35,13.87,10.87,26.74,21.67,34.84.11.14.38.28.6.44.23.27.23.65-.15.84-.33.17-.82.06-1.19.04-.49,0-1.01.11-1.51.12-.57.05-1.33.17-1.56.8-.03.6.52,1.31.56,1.93.06.36.03.67-.12.91-.21.46-1.58.59-1.84.03-.07-.1-.11-.16-.12-.08,0,.28.05.87.05,1.19-.25,1.16-.67,1.97.06,3.01.17.28.48.58.53.82.11.47-.72.9-.67,1.4-.02.41.49.9.55,1.38-.21,2.46-.78,5.34.13,7.71.24.51,1.02.6,1.32,1.05.73.9.46,2.14.4,3.23-.04.57.62,1.25-.05,1.39-1.69-.28-4.15-2.16-5.57-3.06-10.67-5.63-4.94-18.68-7.57-28.53-.01-.67.26-1.36.05-2.07-.15-1.11-.6-2.26-.21-3.35.67-1.03.5-1.13-.65-1.53-1.1-.5-2.21-1.89-1.67-3.1,0-.08,0-.25,0-.33-.27-.58-1.17-1.04-1.41-1.68-.35-.55-.27-1.38-.38-1.98-.15-.42-.83-.2-.94-.63-.15-.48.02-.65-.01-1.3-.41-.94-.68-1.85-.87-2.93-.17-.45-.49-.8-.59-1.19-.19-.47-.01-1.05-.04-1.58-.45-.87-.79-1.55-.66-2.69-.01-.09-.04-.28-.05-.38-.08-.28-.33-.39-.52-.64-.69-.94-.94-2.47-.86-3.58.04-.43.14-.8.31-1.03.19-.3.59-.27.87-.47.72-.54,1.71-1.51,1.58.11l.05.11Z" style="fill: #6ac8d3;"/>
  <path d="M43.22,50.97c-5.93,6.77-9.85,15.37-14.73,22.65-.45.68-.93-.06-1.38-.39-4.08-3.58-7.38-8.63-8.35-13.94-.08-.35-.3-.39-.43-.6-.11-.36-.05-.39-.04-.59.41-1.99.6-4.88,2.23-6.17.54-.43,1.34-.58,2.01-.32,6.33,1.98,13.04,1.02,19.32-.84.38-.15,1.15-.11,1.35.11l.02.08Z" style="fill: #ac181f;"/>
  <path d="M49.16,33.43c.96-.15,3.05.28,4.06-.1.12-.09.25-.28.39-.28.19-.02.38.32.66.34,2.71.08,6.4-.1,9.05.09-6.84,4.93-14,10.79-19.67,17.13-.26.29-.58.49-.96.6-6.82,1.92-14.52,3.35-21.29.71-.27-.13-.46-.37-.42-.62,5.55-5.66,13.91-9.4,21.82-10.36,2.39-.07,6.03-.13,8.51-.82.58-.19,1.02-.36,1.01-.66-1.11-1.65-2.5-3.26-3.37-5.07-.1-.27-.12-.71.1-.88l.1-.07Z" style="fill: #dd545a;"/>
  <path d="M126.21,81.69c-2.05,18.87,19.74,14.15,10.67,25-.5.66-.97.46-1.49.06-.25-.17-.53-.33-.57-.56-.06-.27.19-.69.17-1.08.01-.5-.28-1.01-.81-1.03-1.01.16-2.13.23-2.93-.57-.25-.21-.42-.52-.65-.74-.32-.32-.82-.36-.97-.69-.17-.55-.21-1.22-.96-1.36-.47-.15-1.01.03-1.47-.11-.3-.08-.55-.24-.86-.32-1.31-.46-1.1.38-1.7,1.18-.35.39-.77.4-1.16,0-.18-.21-.37-.46-.56-.51-.24-.1-.48.16-.73.25-.4.16-1.08.07-1.37-.34-2.07-3.52-4.67-7.09-7.16-10.34-.72-.8-1.11-2.76.4-2.57.81.08,1.29.96,1.99,1.3.22.07.49-.1.52-.17.06-.11-.25-.09-.56-.11-.24-.03-.43-.14-.55-.3-.34-.36.09-1.05-.18-1.55-.21-.4-.39-.82-.18-1.17.22-.33.39-.78.54-1.14.14-.19.3-.32.29-.48,0-.23-.38-.57-.24-.88.06-.22.22-.41.44-.49,2.98.12,6.26.71,9.2-.32.37-.25.16-1.24.8-1.04l.07.08Z" style="fill: #3f86b3;"/>
  <path d="M59.43,39.96c4.15,1.33-2.13,8.61-2.72,10.92-.05.24-.15.5-.25.72-.29.49-.76.59-1.01,1.07-5.62,10.27-10.66,22-12.52,33.56-.07.47-.48.81-.61,1.27-.34,2.43-.8,5.43-1.99,7.6-.29.8.07,1.42-.31,2.1-.16.32-.43.75-.51,1.3-.01.94.23,1.47.11,2.47-.23,2.45-.67,5.81-2.34,7.6-.26.25-.56.29-.83.38-.27.13-.56.4-.92.36-1.03-.14-2.24-1.54-2.01-2.48.02-.48-.07-1.01-.21-1.47-.16-.35-.55-.56-.62-.98-.65-6.33-1.24-13.48,1.28-19.63.05-.23-.03-.43-.11-.58-.09-.15-.03-.28.05-.4.18-.21.24-.43.41-.83.49-.85-.25-1.51,0-2.42.12-.61.54-.79.8-1.21.14-.3.28-.76.34-1-.55-1.35.47-3.11.89-4.45.12-.68.51-.81.77-1.42,3.09-12.97,11.18-24.93,22.19-32.44l.14-.02Z" style="fill: #bc3f43;"/>
  <path d="M154.55,47.37c.75.11,1.35.66,1.41,1.49.04.33-.04.74.14,1.08.19.39.62.64.89.98.59.74-.17,1.29-.76,1.73-.41.4-.93,1.1-1.32,1.39-.12.12.52-.23.87-.16.32.03.58.22.78.49.81,1.14.38,2.98-.38,4.09,0,.48.41,1.07.36,1.59,0,.24,0,.46.12.62.21.27.68.43.61.86.01.54-1.1,1.33-.43,1.71,1.51.32.42,3.95.08,6.25-.15.65.04,1.17-.26,1.54-.53.68-2.96.52-2.49-.64.07-.24.98-.71.76-.82-.21-.26-.71-.41-.98-.06-.4.41-.75.75-1.26.53-.24-.1-.49-.44-.7-.47-.17-.05-.31.1-.47.27-.38.42-1.13.54-1.66.88-.43.5-.59,1.27-1.11,1.74-.48.5-1.02,1.04-1.69,1.3-1.13.33-3.68.04-3.53,1.76.18.91,1.26,1.95.46,2.4-1.06.5-.87,2.98-2.4,2.74-.65.15-.68.81-1,1.29-.42.63-1.82,1.76-2.42,1.58-.31-.08.23-.86.14-1.08-.26-.54-.98-1.11-1.08-1.82-.22-.91.31-1.54.4-2.39.06-.48-.2-1.23-.06-1.74.13-.33-.51-.25-.41-.47.23-.31.9-.36,1.15-.37.18.02.22.12.21.28-.16.55-.22,1.83.82,1.18,1.02-.7-.55-1.76-.37-2.73.02-.29.3-.45.47-.71.19-.24.15-.61.28-.72.15-.14.62.16.96.22.3.06.56,0,.87-.07.31-.07.63-.14.97-.14.41-.06.79.27,1.11.12.03-.17-.32-.61-.25-.93.5-1.63,1.21-3.38,1.25-5.11-.05-.34-.3-.63-.34-1.04-.13-6.03,3.98-9.97,7.21-14.46.18-.26.52-.41.71-.55.21-.16.12-.39.1-.57-.01-.16.06-.27.18-.5l1.15-2.1c.15-.3.39-.39.72-.44h.14Z" style="fill: #6dd2db;"/>
  <path d="M61.32,104.72c6.42-1.49,14.78-3.92,21.42-1.48-1.49.82-3.31,1.79-4,3.46-.13.23-.26.52-.52.61-.48.23-1.41-.41-1.9.08-1.71.68-3.7-.51-5.49.02-.9.15-1.44.95-2.18,1.39-1.11.14-2.25.63-3.24,1.1-.37.09-.98.02-1.42.15-.26.12-.33.51-.62.76-.26.26-.67.37-.92.62-.48.7-.96,1.3-1.86,1.52-.54.22-.54.79-.69,1.31-.11.38-.27.72-.46,1.05-.33.61-.87,1.13-1.32,1.7-.23.31-.26.67-.38,1.02-.12.45-.52.85-.63,1.33-.01.24.25.42.45.64,1.56,1.68,2.52,4.17,3.28,6.24.4.95.1,1.78.49,2.82.19.93.08,1.7-.81,1.54-.23-.07-.32.03-.61-.37-.14-.32-.06-.81-.29-.88-.25-.09-.74.11-1.14-.07-.41-.16-.78-.43-1.12-.75-.65-.76-1.04-1.11-2.04-1.2-1.52-.18-1.67-2.04-2.02-3.15-.51-.55-.87-1.26-1.27-1.9-.29-.35-.63-.58-.62-.97-.02-.65.85-1.53.63-2.28-.29-2.36-1.9-4.36.07-6.22.48-1.07.36-2.07,1.74-2.04.25-.01.49-.1.67-.27.32-.72.4-1.72,1.1-2.18.62-.28,1.55-.28,2.06-.86.6-.47.7-1.34,1.11-2,.74-.65.36.55,1.05.22.45-.18,1.02-.72,1.34-.88l.14-.06Z" style="fill: #7ed8e0;"/>
  <path d="M161.91,53.07c-.16.05-.23-.34-.18-.69,1.94-6.99,3.16-14.74.93-21.75-.14-.65-.62-.75-1.19-1.06-9.74-8.16-23.54-7.98-35.59-9.06-12.72,1.33-25.23,3.32-37.49,7-.76.26-1.41.82-2.32.98-.8.23-1.59-.16-2.29.3-.65.38-1.45.43-2.15.67-.39.18-.66.54-1.06.72-4.24,1.43-8.02,4.2-12.12,5.64-.56.42-1.11,1.33-1.78,1.68-.34.17-.67.16-.87.31-.18.11-.32.32-.56.42-.63.12-1.41-.08-2.09.19-.54.11-1.36.43-1.76.16-.07-.08.02-.22.2-.37,2.32-1.61,4.68-3.35,7.25-4.6,1-.33,2.45-.19,3.35-.97,21.95-15.6,111.87-29.51,89.78,20.36l-.08.05Z" style="fill: #b5f2f3;"/>
  <path d="M162.32,29.8c4.27,7.92,1.24,19.75-2.42,27.5-.2.44-.53.7-.66,1.19-.34,2.02-1.52,3.82-1.7,5.89-.09.37-.17.14-.34-.27-.11-.26-.19-.42-.38-.37-.32.1-.98.65-.99.39-.02-.34.15-1.22.31-1.57.22-.41.95-1.23.11-1.07-.37.17-1.25.45-1.06-.19,1.16-.93.81-1.21.28-2.51-.08-.2-.15-.39-.14-.5,0-.25.35-.24.61-.45.76-.61.55-4.4-.94-3.14-.23.25-.78.15-.89-.23-.09-.3.25-.64.57-.91.82-.59.7-1.03,1.61-1.62.89-.7-.28-.82-.69-1.32-.41-.62-.35-.83-.27-1.39.22-.61.19-.59-.27-.97-.51-.51-1.13-1.22-.79-1.98,1.52-3.58.39-5.98-.48-9.53-.24-.86.47-1.17,1.34-1.12.08-.03.25-.09.34-.12.35-.25.42-.89.85-1.08.3-.18.88-.18,1.27-.5.47-.43.83-.9,1.33-1.17.52-.4,1.32-.44,1.84-.88.15-.24-.06-.7.01-1.11.03-.78.68-1.59,1.41-1.08l.11.1Z" style="fill: #68cad6;"/>
  <path d="M27.7,101.14c.14-.03.36.18.41.41.16,1.11-.42,4.18.61,4.57.17.07.25,0,.19-.19-.76-1.41.65-2,1.65-.96.53.31.96-.25,1.23-.71.2-.32.24-.74.5-1.03.34-.38.79-.29.86.19.06,1.81.48,5,2.74,5.32.34.05.76.11.89.48,1.35,6.64,5.31,12.47,8.01,18.57.03.14.2.48-.12.28-2.5-1.77-3.84-4.53-4.84-7.38-.17-.35-.71-.4-.87.01.12.27.19.25.21.38.03.16-.26.27-.39.49-.53,1.05,1.39,2.25-.41,2.68-.34.31,1.39,2.9,1.02,3.45-.41.55-1.39.15-1.93.06-.32,0-.56.46-.78.7-.4.44-.79.29-1.12-.13-.45-.37-.98.49-1.12.87,0,.14,0,.43.01.58.12.36.5.27.58.37.09.74-1.12,1.91-1.45.61-.13-.59,0-1.29-.81-1.26-.26-.05-.57-.06-.7-.33-2.83-8.73-5.5-18.84-4.45-27.97l.07-.04Z" style="fill: #3782ad;"/>
  <path d="M76.28,40.23c.11.51-.48.69-.82.95-.23.2-.16.52.17.69.61.31,1.26-.04,1.28.53.03.43-.45.78-.56,1.06-.04.33-.11.71,0,1.03.12.52.73.73.85,1.18.06.46-.12,1.1.05,1.58.08.4.32,1.01.2,1.58-.09.29-.27.48-.27.78.05.44.94.63,1.15.88.15.23-.1.83.07,1.09.09.31.64.38.87.66.17.45-.1,1.01.13,1.34.33.38.63.29,1.07.81.32.61.22,1.55.85,2.03.33.26.59.87.64,1.11.47,1.32.36,2.13,2.13,2.56.33.09.72.23,1.04.35.35.25.58.97,1.05,1.69.49.89,1.13,1.45,1.79,1.89.17.21.04.58.15.88.09.25.24.54.25.9-.02,1.49-.28,2.16,1.11,2.71.26.2.61.69.52.89-.13.19-.68.28-1.04.28-.8,0-1.48-.37-2.23-.59-.22-.07-1.23-.32-.84,0,4.96,2.82,10.64,6.33,13.95,11.12-.06.13-.79-.07-1.2-.02-.44.03-.76-.22-1.1-.54-.68-.57-1.34-1.27-1.95-1.86-.4-.25-.52.39-.79.59-1.34,1.03-2.97-.74-3.78-1.69-.36-.3-.97-.33-1.24-.73-.28-.3-.29-.88-.68-.96-.53-.06-1.62.05-1.81-.66-.01-.6.27-1.49.47-2.11.43-1.09,1.15-1.93-.11-1.61-.36.09-.68.22-1.05.06-.45-.19-.5-.68-.79-.81-.46-.12-.49-.04-.74.02-.23.06-.55.51-.71.45-.1-.03-.11-.25-.03-.45.06-.15.11-.25.03-.3-.41-.12-.54-.08-.73-.39-.07-.23.02-.5-.16-.58-.43-.16-.64.05-.81-.29-.03-.25-.09-.67-.2-.94-.19-.35-.98-.34-1.09-1.04-.09-.6.04-1.29-.37-1.77-.26-.4-.8-.4-1.16-.52-.22-.08-.34-.41-.48-.75-.21-.64-.73-.75-1.19-1.07-.32-.34-.25-.78-.24-1.26.09-1.85-.45-3.11-2.46-3.12-.06-.04-.19-.13-.25-.17-.16-.35.16-1.16.06-1.59-.19-.6-.86-.91-1.06-1.64-.33-.69-.56-1.51-1.13-1.71-.75-.22-1.16-.14-1.49-.81-.32-.79.33-1.96.5-2.47.01-.12-.04-.21-.18-.27-2.29-.18-.2-.97-.57-2.32-.16-.68-1.26-.94-1.38-1.49-.28-.72.16-1.73.23-2.47.01-.28-.2-.36-.52-.41-.53-.09-1.23-.62-.86-1.18.86-1.05,2.51-.58,3.72-.89,1.06-.09,2.09-.45,3.12-.56.24.02.45.07.57.23l.06.12Z" style="fill: #7ed2da;"/>
  <path d="M171.5,42.85c4.32,8.15.87,18.49-4.97,25.46-.22.26-.64.44-.93.39-.79-.07.67-2.31.3-2.51-.23,0-.63.32-.86.45-.49.14-.7.02-1.05-.35-.63-.53-1.08-1.35-2.01-.98-.62.22-1.24-.3-1.81-.12-.34.22-1.49.89-1.05-.06,3.96-7.2,8.95-14.58,9.53-22.95.13-1.38,2.32.09,2.77.55l.09.11Z" style="fill: #1f4d6f;"/>
  <path d="M142.24,100.52c0-.47.27-.68.73-.4.92.62,1.24,2.21,1.76,3,.92.68,2.12.92,2.93,1.96.76.73,1.16,1.86,1.85,2.73.28.23.69.25,1.05.38,3.07.91,5.08,4.3,8.21,4.39.25.11.49.37.78.5.79.27.98.49.76,1.47-.08.47.03.88.28.78.59-.33,1.26-1.09,1.85-1.53,1.01-.41,2.12-1.3,3.3-.94.78.46,1.62-.15,2.41-.11.33.05.45.29.54.69.2.9-.42,1.21-1.01,2.09-1.07,1.35-3.48,4.15-4.84,4.14-.62,0-1.31.11-2.03.16-14.4,1.2-14.09-7.2-18.56-18.25-.12-.37-.06-.66-.02-.91l.02-.15Z" style="fill: #68bccf;"/>
  <path d="M23.6,99.08c-.06.71,0,1.74-.35,2.47-.57.56-1.54.82-2.31,1.21-3.49,1.56-7.41,2.4-10.32.1-.72-.5-1.62-.9-2.09-1.66-.45-.67-.73-2.06.01-2.77.24-.18.56-.28.82-.48,5.6-3.74,11.19-7.91,14.52-14.05.17-.38.64-.88.98-.94.1-.01.12.08.09.24-.99,5.11-1.29,10.48-1.36,15.72v.16Z" style="fill: #ab181f;"/>
  <path d="M66.82,22.52c2.8.71,6.37,1.81,7.19,5.01.18.58,1.16.55,1.38.99-.45.23-8.89,3.67-11.96,4.95-.3.11-.72.35-1.03.39-3.67.45-7.94.75-8.81-.51-.18-.27.4-1.58.63-1.83,1.6-1.26,3.21-2.11,4.41-3.79,2.04-2.53,4.07-7.8,8.04-5.27l.15.07Z" style="fill: #df565d;"/>
  <path d="M26.44,78.11c-2.02,8.8-9.09,16.33-17.15,20.04-.46.24-.6-.56-.58-.76.55-3.49,17.84-29.82,17.75-19.44l-.02.16Z" style="fill: #e0575f;"/>
  <path d="M120.66,54.4c2.08-.67,4.57.68,3.39,3.11-.43.83-1.41.04-2.02.56-.42.38-.27.92.04,1.4.42.56.71,1.22.69,1.86.02.39.33,1.13.58,1.54,2.02,2.76,2.52,7.54,2.75,11.32,0,.17-.11.7-.29.33-.06-.32-.04-.67-.16-1.06-.02-.44-.38-.73-.53-1.01-.04-.19.09-.38.08-.54,0-.16-.13-.26-.25-.37-.27-.53-.25-2.19-.39-2.93-.02-.15-.03-.2-.05-.14-.07.36-.2,1.27-.44,1.67-.3.77-1.13.82-1.57,1.39-.12.36-.11.82-.39,1.14-.19.3-.59.49-.79.85-.25.41-.27.99-.74,1.21-.36.21-.91.18-1.43.16-.18,0-.3.06-.36.18.01,2.52-1.42,6.28-4.51,5.81-.22.17-.4.42-.46.69-.43,1.11-1.47.14-2.51.12-.58-.02-1.1.43-1.67.36-1.12-.05-2.64-.82-3.19-1.68-.09-.18-.03-.32.17-.41,1.41-.5,3.2-.89,4.16-2.05.27-.33.64-.42,1.05-.35.37.04.76-.29,1.1-.5.58-.33,1.83-.65,2.2-.99.37-.31.08-1,.24-1.4.16-.34.52-.69.67-1.08.59-1.2.51-2.57,1.65-3.48.48-.23.31-.65.33-1.08.26-.83,1.6-2.04,1.71-2.82.06-.26-.04-.43-.28-.54-.82-.35.16-1.02.25-1.51.1-.29.17-.64.32-.93.19-.37.42-.59.33-.86-.17-.29-.35-1.05-.41-1.42-.07-.3-1.65.44-1.75.15-.04-.07.02-.17.14-.24.36-.16.79.07.78-.53,0-.49.28-1.09-.02-1.2-.44-.2-.42-.2-.51-.54-.04-.77,1.24-2.13,1.56-2.78.13-.32-.65-.66-.56-1.14.05-.54.52-.47.9-.3l.16.02Z" style="fill: #7accd7;"/>
  <path d="M53.29,129.69c-.03-.52-.13-1.16-.54-1.51-.6-.43-.94-.56-.81-1.57,0-.34,0-.73-.14-.97-.2-.34-.69-.42-1.02-.63-.63-.44-.5-.84-.46-1.63-.02-.37-.28-.76-.38-1.15-.27-.63-.83.11-1.14.15-.3-.04-.8-.6-.42-.84,2.12-1.19-.21-4.83-.37-7.26.03-.24.09-.61.4-.58.32,0,.48.46.79.56,1.52.17.05-2.19.14-3.02.06-.54.47-1.04.3-1.64-.09-.53-.29-1.2.04-1.62.45-.51,1.33-.54,1.61,0,.21.35.29.9.89.77.22-.16.33-.65.67-.99.33-.37.45-.68.39-1.08-.02-.17,0-.37.1-.52.5-.25,1.63-.72,1.98-1.26.38-.56.28-.65.66-.96.28-.21,1.73.22,1.01-.7-.46-.91.75-.42,1.25-.41,1.15.1,2.19-1.13,3.21-1.07.36.45-.68,1.13-.26,1.61.04,0,.28.47.15.46-.32.36-1.38,1.63-1.96,1.68-.04.03-.12.08-.16.11-.17.73-.46,1.73-1.26,2.22-.68.61-1.69.63-2.35,1.11-.3.47-.12,1.72-.71,2.19-.46.46-.95-.13-1.38.11-.63.38-.55,1.28-.84,1.85-.21.42-.77.71-.94,1.19-.33,2.12,1.72,4.74.39,6.83-.31.64.46.66.67,1.33.24.49.41.6.76.33.24-.16.86-.17.51.25-.21.19-.7.29-.64.53.04.23.5.46.55.8.06,1.1.59,2.27,1.61,2.86.55.28,1.12.32,1.3.98.2.58.6,1.22.69,1.78.3,1.34-1.17,2.54-2.09,1.22-.14-.27-.38-.54-.6-.75-.49-.09-1.54.17-1.62-.64v-.11Z" style="fill: #74ced9;"/>
  <path d="M119.39,130.9c5.91-7.79,18.02-11.21,27.26-8.06,3.26.98,5.29,3.43,2.76,6.76-.23.33-.5.47-.79.35-3.36-1.97-7.01-3.11-10.73-3.31-3.72-.23-7.53.44-11.2,1.85-.57.2-1.07.08-1.64.21-1.89.35-3.7,1.78-5.01,2.81-.45.29-.85.22-.7-.46l.05-.15Z" style="fill: #1c4869;"/>
  <path d="M109.03,179.03c-6.2,5.84-27.5,1.21-31.36-5.92-.22-.38.04-.57.43-.71,13-4.58,17.25,13.75,30.87,6.63h.05Z" style="fill: #194464;"/>
  <path d="M66.35,22.35c-1.36,2.65-5.15,4.74-6.91,6.54-.22.79.41,1.98,1.08,2.75.5.57,1.37,1.02.2,1.35-1.99.51-6.86.19-8.55.51-.98.03-2.53.77-3.3-.03,4.48-1,9.29-.55,6.71-6.16-.27-.56-.42-.94-1.02-.99-2.3-.25-5.16.53-7.38.73-.23-.05-.34-.15-.22-.44,2.1-5.34,13.41-4.82,18.72-4.88.31-.01.67.19.67.52v.12Z" style="fill: #e35d64;"/>
  <path d="M112.95,96.15c.04.18.07.4-.13.56-.18.18-.63.16-.78.31.02.06.27.18.44.35.16.16.21.36.18.57,0,.36-.58.7-.62.96-.02.26.48.58.48.98.06.34-.02.72-.19,1.09-.3.82-1.16,1.44-1.77,1.92-.27.35,0,1.15-.22,1.56-.16.44-.51.76-.98.96-.23.09-.48.07-.71-.02-2.87-1.59-5.72-3.51-8.48-5.22-.2-.16-.33-.39-.33-.61.04-.93,1.4-.46,2.18-1.25.19-.17.44-.31.69-.37.82-.03,1.73.86,1.98-.43.07-.2.18-.41.37-.53.53-.05.15,1.05.93.7.17-.21-.12-.67,0-.8.1-.13.67-.19.71-.4.04-.13-.13-.3-.28-.49-.33-.31-.21-1.02-.39-1.29-.22-.18-1,.07-1.23-.3-.04-.23.38-.55.59-.84.67-.79.5-1.96.22-2.8,0-.2.28-.19.52-.3.6-.4.31-1.95.76-2.24.23-.12.57.22.9.46,1.92,1.55,4.86,5.41,5.13,7.38l.03.11Z" style="fill: #65cbda;"/>
  <path d="M121.02,101.03c.08-.17.42-.54.6-.61.23-.11.23.37.48.33.32-.68,1.09-1.04,1.44-.02.51.72.86.46,1.03-.42.46-1.06-.66-1.92-.34-2.95.09,0,.3.31.56.51.25.22.46.34.49.51.05.28-.33.86.05,1.1.33.26.91.08,1.31.17.33.11.53.49.93.45.39.01.78-.15,1.16-.03.31.07.94.48.94.49.57.4.24.53.33.98.04.16.14.32.24.34.35-.28.54-.46.69.14.16.52.3.83.76,1.08.53.33.88.6,1.23.56,1.02-.21,2.15-.64,2.51.8.08.28.25.76.27.98.08.22-.68.38-.46.66.13.23,1.36-.44,1.44-.21-.05.1.03.07-.37.4-.34.3-.18.26-.04.37.33.13.69.21.55.4-.36.61-1.34,1.58-1.75,2.13-1.81.54-4.01-.11-5.8-.48-2.02-.39-3.74-1.79-5.63-2.58-.23-.08-.44-.25-.62-.48-.87-1.17-1.21-3.38-2.01-4.54v-.11Z" style="fill: #3777a5;"/>
  <path d="M109.5,105.15c.23.02.51.04.78.21,5.98,4.33,15.46,10.19,12.15,18.54-3.32-.37-5.53-5.67-7.49-8.64-2.64-4.5-5.67-9.53-9.84-11.93-.09-.08-.49-.26-.19-.29,1.36.03,3.12,1.55,4.44,2.1l.14.02Z" style="fill: #3e85b3;"/>
  <path d="M34.09,83.67c-.3,2.98-.98,6.06-1.42,9.08-1.02,3.58,2.18,9.86-1.49,12.76-.21.13-.46.3-.64.28-.27,0-.42-.48-.64-.66-.39-.32-1,.21-.6.6.23.21.58.59.49.91-.03.15-.13.25-.24.28-3.97-.02-1.36-15.24-.24-19.58.62.09.35,1.08.42,1.64-.01.51.19,1.04.12,1.48-.16.48-.22.45-.31.64-.28.64.63.31.55-.29.02-.43.24-.84.56-1.14.18-.14.36-.34.48-.53.15-.37,0-.95.15-1.36.26-.7.68-1.16.69-1.98.1-.4.53-.4.65-.76.08-.25.02-.67.12-.97.11-.67.79-1.07,1.27-.53l.06.13Z" style="fill: #3c90ba;"/>
  <path d="M37.01,72.84c-.77,3.23-2.12,7.13-2.87,10.57.09.04-.49.39-.5.36-.76.28-.29,1.38-.56,1.86-.14.22-.48.24-.7.36,0,.14.01.43.01.57,0,.33-.17.73-.41.9-.52.36-.03,1.54-.38,2.12-.42.53-1.33,1.05-.91,1.75.32.36.64.46.59,1.02-.05.43.04,1.19-.19,1.52-.19.17-.33-.42-.31-1.03-.02-.53.06-.88-.19-.88-.22.05-1.38-.01-1.04.54.8,1.43-.96,1.23-.71-.14.06-.44.05-1.07.09-1.39.06-.22.35-.11.5-.22l.09-.23c-.84-8.77,4.41-17.51,8.46-25.07.17-.42.57-.35.62,0-.14.77-1.41,6.57-1.56,7.3l-.02.09Z" style="fill: #43a1c9;"/>
  <path d="M162.74,69.93c-1.92,19.19,18.12,29.81,6.98,43.61-2.17,3.6-4.87,6.97-9.46,7.24-.21-.16.11-.6.44-.77.41-.3,1.32-.24,1.9-.42.63-.28,1.12-.76,1.7-1.24,1.46-1.32,3.18-3.26,4.12-4.76.14-.36,0-.77.22-1.15,1.91-3.08,3.62-6.89,2.48-10.49-.07-.24-.04-.51-.03-.7.05-.31-.25-.42-.52-.61-.29-.24-.14-.72-.32-1.05-.45-.56-.65-1.23-1.34-1.56-.62-.48-.45-1.24-.54-1.84-.36-.54-.64-1.3-1.1-1.79-.48-.45-.84-1.05-.94-1.71-.07-.32,0-.67-.05-.96-.03-.35-.3-.58-.45-.92-.81-2.86-3-5.73-2.65-8.81-.99-3.79-2.47-8.63-.74-12.48.22-.41.4-.2.32.22l-.02.18Z" style="fill: #b0eff0;"/>
  <path d="M122.53,123.92c-.84-13.94-8.42-28.01-17.85-38-.24-.87-.74-1.37-1.38-2.1-3.6-4.16-8.48-8.28-12.02-11.52-.12-.11-.2-.19-.2-.2,13.68,9.94,36.32,33.72,31.47,51.84h-.02Z" style="fill: #adeaed;"/>
  <path d="M126.08,74.77c.21,2.37.46,4.88.05,7.27-.16.35.12.93-.25,1.16-2.56,1.02-7.3.69-9.99.28-.23.01-.49.16-.77.24-.76.21-1.68-.44-1.94-1.03-.25-.54.13-.72.68-.61.04-.06.7.29.9.17.28-.14.45-.61.76-.75.24-.19.57-.19.88-.41.56-.48,1.09-1.34,1.93-1.12.61.27.36-.34.39-.78-.04-.75.4-1.22.86-1.66.2-2.19,2.87-3.1,4.8-2.97.21.06.36.22.53.19.32-.01.54-.87.78-.78.19.09.32.55.37.69l.03.13Z" style="fill: #6ac1d0;"/>
  <path d="M145.23,128.46c-5.39-.61-11.48,1.49-16.01,3.99-.34.14-.7.12-1.01-.05-.06-.1-.19-.3-.26-.4-.11-.13-.26-.08-.4-.19-.23-.16-.41-.85-.71-1.17-.91-.76-.26,1.78-1.01,1.4-.24-.36-.13-1.39-.42-1.74-.25-.27-.58-.55-.19-.89.12-.11.36-.33.49-.43.03-.2-.47-.45-.23-.55,6.1-2.16,14.2-4.45,19.75,0v.04Z" style="fill: #3572a1;"/>
  <path d="M146.99,166.24c-10.66,12.14-27.79,15.58-43.37,15.58-.41,0-.41-.02,0-.07,15.31-1.72,30.42-6.92,43.35-15.53v.02Z" style="fill: #67c5d0;"/>
  <path d="M114.27,126.91c1.57,2.87,2.44,6.51,2.74,9.75.52-.74.18-2.19.19-3.12-.03-.43-.01-.86.08-.78.66,1.69-.25,4.28-.06,5.97,1.63-.44,1.01-8.25,2.04-7.92.32.16.63.54.99.26.02-.1.33.05.25.13-.44,1.21-.85,2.9-1.15,4.2-.34,3.65-6.24,13.18-7.45,12.39-.31-.53.22-2,.46-2.78.3-1.09.92-1.99.94-3.13,0-4.58,1.57-9.47.46-14.11-.09-.34.02-.93.4-.9l.11.04Z" style="fill: #1e567f;"/>
  <path d="M117.46,166.18c4.31-7.59,12.56-14.59,19.12-20.89.35-.35.23-.84.63-1.14,1.15-.81,2.21-1.78,3.22-2.76.35-.22.72-.25.99-.58,1.77-2.7,5.09-5.48,4.33-9,.21-1,.65.11.76.52,2.59,10.32-25.45,26.84-29.06,33.86v-.02Z" style="fill: #a9e5e7;"/>
  <path d="M78.07,96.6c-4.72.68-9.65,2.72-13.68,5.01,2.5-3.99,5.12-8.19,6.01-12.96,2.19,2.58,3.96,7.29,7.67,7.92v.02Z" style="fill: #428bb5;"/>
  <path d="M104.99,79.28c1.65.81,3.31,1.81,5.07,2.48.65.19,1.15-.25,1.85.03.64.11.93.56,1.39.88,1.11.46,2.6.43,3.28,1.59.35.51-.32.64-.55.98.11.59,1,1.17-.34.88-.73.48.83,1.26.4,1.77-.27.21-.34.27-.18.61.26.31.71.03.95-.14.21-.14.39-.1.49.1.14.58-.24,1.23-.97,1.42-1.07.25-1.19-.73-1.81-1.2-.28-.22-1.12-.15-1.18.22-.06.26.14.89-.02,1.13-.06.09-.11-.09-.19-.22-.33-1.28-11.25-11.19-8.3-10.57l.11.04Z" style="fill: #4d9ec1;"/>
  <path d="M126.58,183.3c-1.91,6.73-13.62,8.01-17.52,2.49-.04-.12.06-.18.25-.19,5.79-.2,11.5-1.44,17.21-2.36l.05.06Z" style="fill: #a8171e;"/>
  <path d="M135.13,108.87c-.31,2.13,8,2.3,8.03,3.03.22.61.85,2.86,1.13,3.86-4.14,1.08-19.12-6.89-20.16-9.46.01-.02.04-.07.05-.09.38,0,.87.22,1.18.33,2.5,1.86,6.67,2.32,9.73,2.29l.04.04Z" style="fill: #275472;"/>
  <path d="M146.06,131.43c1.39,3.72-2.19,7.32-4.59,9.63-.13.12-.26.15-.33.07-.26-.4.06-1.1.41-1.7.52-.87.76-1.79,1.07-2.73.66-2.16-.76-3.58-2.98-3.86-2.48-.4-5.86.03-7.89.27-.28.08-.55.38-.82.42-.32.04-.62-.24-.97-.15-.35.08-.75.14-1.15.21-.29.04-.75.16-.76.14,5.4-2.52,12.14-5.56,17.92-2.39l.09.11Z" style="fill: #194566;"/>
  <path d="M48.86,33.46c.11,0,.17.07.27.21.74,2.03,2.53,3.78,3.77,5.51.12.14.24.3.2.5-3.81,2.09-8.64,1.87-12.89,1.75-.23-.02-.57-.01-.69-.06-.2.03.18-.21.74-.4,1.62-.66,3.13-1.24,4.75-1.82,1.24-.45,1.75-.65,1.87-.92.09-.56-.81-1.77-.93-2.7-.13-.6-.31-1.35-.19-1.99.81-.21,2.18,0,3-.08h.12Z" style="fill: #a9171d;"/>
  <path d="M45.6,38.97c-7.84,3.74-25.55,7.74-26.83,18.54-.09.29.06.94-.31.92-3.94-13.78,17.91-15.57,27.14-19.46h0Z" style="fill: #f4cabe;"/>
  <path d="M89.84,166.72c-11.73,6.14-24.89,5.17-35.03-3.59-.31-.27-.35-.34.03-.12,10.47,6.2,23.48,7.91,35,3.7h0Z" style="fill: #a9e4e5;"/>
  <path d="M18.74,58.91c1.62,4.81,5.67,12.83,10.07,14.49-.5,1.07-1.02,2.48-1.75,3.49-.2.43.16,1.01-.33,1.21-.14.02-.12-.18-.1-.39-.28-1.03-1.75-1.63-2.54-2.28-2.01-5.37-5.25-10.57-5.37-16.5v-.03Z" style="fill: #75060a;"/>
  <path d="M158.99,65.47c.37-.5,1.18-.9,1.37-1.57.08-.21.02-.62.12-.6.45.19.42,1.38.75,1.46.5.12,1.21-.29,1.74-.27.23.02.33.28.47.49.25.48.7.51,1.04.88.16.15.14.33.38.5.28-.13.61-.84,1.02-.95,1.42-.2.17,2.45-.26,3.04-.23.48.12.62-.4.7-1.5,1.52-1.12.79-1.68-.72-.11-.21-.32-.39-.46-.29-.37.3.03,1.17-.13,1.57-.07.2-.13.16-.21,0-.07-.16-.23-.12-.34.06-.34.54-.63,1.65-1.02,2.25-.28.23-.88.37-1.15.08-.36-.45-.82-1.14-1.42-1.23-.51-.12-.87.39-1.22.67-2.07.44.92-5.32,1.34-5.99l.07-.09Z" style="fill: #1c5884;"/>
  <path d="M23.6,99.03c-.09,2.87.13,5.95-.05,8.78-3.42.19-6.91-1.62-9.78-3.28-.4-.13-.87-.02-1.22-.18-.2-.09-.37-.25-.47-.56-.1-.32.27-.16.51-.12,3.68.62,7.56-1.12,10.75-2.64.04-.31.26-2.03.26-2.05v.04Z" style="fill: #740609;"/>
  <path d="M46.73,27.1c-.54.17-1.97.73-1.45-.51,2.83-7.81,16.27-5.4,22.03-5.74.44.09-.02.47-.26.76-.23.22-.43.5-.67.61-.34.12-.77,0-1.19.01-5.97-.18-14.62-.28-18.37,4.81l-.1.07Z" style="fill: #f5cdc0;"/>
  <path d="M159.25,150.13c-5.45,14.4-15.55,22.79-29.9,27.72-.36.12-.5.16-.09-.02,12.03-5.24,24.19-15.95,29.99-27.72h0Z" style="fill: #a8e5e8;"/>
  <path d="M150.71,126.19c-8.82-8.33-24.09-2.85-31.63,4.63-.59-.7,3.8-3.85,5.93-5.2,6.45-3.93,23.61-9.76,25.74.54l-.04.03Z" style="fill: #aae4e5;"/>
  <path d="M162.49,119.7c-7.09,3.93-18.16-.57-17.46-9.61.14-.1.46.38.66.63,1.46,1.95,2.06,4.98,4.04,6.45,3.57,2.39,8.68,1.97,12.75,2.49v.04Z" style="fill: #4489b3;"/>
  <path d="M8.86,98.49c-.23.62-.17,1.78-.67,2.34-1.67-9.53,9.68-18.47,15.61-25.13.29-.34.64-.48.24.04-5.37,6.67-12.43,14.33-15.14,22.6l-.04.15Z" style="fill: #f3c8bb;"/>
  <path d="M134.94,117.46c-1.57.65-6.06,2.54-7.13,2.99-.51.23-.24.19-.43-.74-.24-1.77-.6-4.51-.84-6.27,2.12.84,6.3,3.07,8.39,4.02h0Z" style="fill: #dfecf9;"/>
  <path d="M126.68,183.19c.11-.09.48-.27.87-.42.3-.11.55-.1.53.12-5.48,9.54-12.62,8.87-20.94,2.88-.03-.16.46-.17.75-.18.33.02.68-.03.98.09,1.35.98,2.83,2.02,4.47,2.48,4.96,1.59,10.42-.2,13.25-4.88l.08-.09Z" style="fill: #db5157;"/>
  <path d="M140.23,98.3c1.26.05,2.22,1.62,2.3,2.8.82,1.68,2.46,5.02,2.12,6.85-.12.36-.2.06-.36-.39-5.48-17.98-19.59-6.71-16.1-33.28.14,12.56-.19,17.79,11.88,23.98l.16.05Z" style="fill: #ace7eb;"/>
  <path d="M109.26,175.62c-5.65,4.17-15.26,1.54-17.96-4.86-.1-.45.26-.03.58.17,5.23,3.99,10.26,7.07,17.35,4.68l.03.02Z" style="fill: #aae3e5;"/>
  <path d="M124.07,106.17c2.93,2.26,6.14,4.26,9.51,5.87,3.44,1.67,7.11,2.94,10.65,3.75.28.1.4.36.6.62.17.25.5.57.43.66-7.94-1.33-16.04-5.12-21.8-10.82-.18-.31.32-.25.51-.14l.11.06Z" style="fill: #b1e6ea;"/>
  <path d="M157,69.96c.05.32-.09,1.05.06,1.34.09.09.22-.09.18-.27-.03-.19.05-.36.27-.46,1.92-.94,3.08.66,3.6,2.21-.36,1.52-.78,3.07-1.02,4.63-.13.35-.56.34-.62.78-.05.31.49.43.45.73.03.21-.09.41-.32.47-1.05,0-1.47-1.29-1.88-2.12-.39-.94-.53-2.03-.55-2.97-.16-.33-.44-.7-.45-1.06-.05-.29.09-.59.18-.87-.02-.13-.32-.19-.4-.36-.12-.16-.18-.35-.17-.53-.02-.26.23-.44.37-.61.12-.41-.07-1.07.06-1.54.33-1.29.22.14.25.53v.11Z" style="fill: #256c9d;"/>
  <path d="M44.67,55.48c-3.12,5.46-5.61,11.34-7.64,17.28-.36-6.49,3.64-12.91,7.47-17.8.36-.27.24.21.23.4l-.05.12Z" style="fill: #68ccdb;"/>
  <path d="M171.65,59.84c-1.51,4.71-4.01,9.31-7.31,12.98-.1.03-.15-.22-.22-.39-.19-.74-.45-1.87.08-2.45,3.15-2.64,5.34-6.46,7.08-10.2.07-.17.26-.1.33-.03l.03.09Z" style="fill: #afe8ea;"/>
  <path d="M142.38,108.1c-1.32.53-3.95.83-5.28.48,1.27-1.79,2.8-3.43,3.6-5.52,1.16,1.3,1.22,3.38,1.68,5.04Z" style="fill: #a091af;"/>
  <path d="M62.9,22c1.28-3.04,8.62,1.03,10.67.54.04.02.11.07.15.09-.04.18-.15.67-.29.82-3.49.68-6.99-1.36-10.48-1.41l-.04-.05Z" style="fill: #f4c9c0;"/>
  <path d="M142.38,108.1c.07.33.64,2.01.48,2.16-2.13.15-4.22-.37-6.24-.96-.16-.52.35-.54.48-.72,1.83-.49,3.38-.82,5.28-.48Z" style="fill: #fbfafa;"/>
  <path d="M123.91,57.92c4.14,1.99,3.41,7.89,3.84,11.74-.07-.09-.19-.54-.26-.74-1.19-3.56-1.01-9.04-5.06-10.62-.2-.09-.61-.08-.67-.21-.02-.14.34-.39.51-.48.48-.29,1.15-.07,1.54.24l.11.06Z" style="fill: #5393b0;"/>
  <path d="M73.46,23.49c-.06.71-.09,1.95,0,2.64-2.14-1.39-4.36-2.63-6.72-3.6,2.24.29,4.5.54,6.72.96Z" style="fill: #b81d25;"/>
  <path d="M104.94,79.3c-.85-.19-.29.54-.24.96-1.98-1.87-4.2-3.48-6.24-5.28,2.79.58,3.98,3.25,6.48,4.32Z" style="fill: #71b2c3;"/>
  <path d="M123.66,62.98c-.22,0-.33-.11-.48-.24-.12-.37-.29-.72-.66-.9l.18-.3c.07-1.17-.72-.93-.96-2.4,1.24.83,1.45,2.56,1.92,3.84Z" style="fill: #8fd8dd;"/>
  <path d="M172.86,45.7l-.3.18-1.14-3.06c.94.93,1.12,1.69,1.44,2.88Z" style="fill: #a4ced9;"/>
  <path d="M44.7,55.54l-.24-.48c.65-.91,1.25-1.98,2.16-2.64-.64.98-1.34,2.11-1.92,3.12Z" style="fill: #958b8b;"/>
  <path d="M158.46,61.06c-.23.75-.54,1.88-.72,2.64l-.23-1.77.95-.87Z" style="fill: #6dd2db;"/>
  <path d="M91.26,70.66c.13-.67-.62-.62-.72-.72-.67-.75,2.45-.63,1.2.72-.11-.05-.37.05-.48,0Z" style="fill: #7ed2da;"/>
  <path d="M163.74,69.22l.24.48c.63.19.38-.28.65-.48.16-.12.48-.16.55-.23-.07.66-.68,1.09-1.2,1.44-.05-.32-.17-.88-.24-1.2Z" style="fill: #1f4d6f;"/>
  <path d="M86.7,96.34c.9-.68,2.11.21,3.12,0-.55.72-2.31-.1-3.12,0Z" style="fill: #72dbe4;"/>
  <path d="M94.14,70.42c.08-.08-.2-.58.24-.48-.07.83,1.64,1.01.96,1.92-.41-.47-.84-.93-1.2-1.44Z" style="fill: #97dbdf;"/>
  <path d="M159.66,57.7c-.17.42-.31.97-.48,1.44-.66-.2.33-2.15.48-1.44Z" style="fill: #6dd2db;"/>
  <path d="M94.38,71.62c.17.3.61.48.48.96-.43.1-.6-.3-.96-.48l.48-.48Z" style="fill: #97dbdf;"/>
  <path d="M42.76,85.39c.25.09.62.18.81.4.31.51.31,1.85,0,2.24-.11.13-.22.1-.28-.04-.16-.37.06-1.67-.62-1.19-.39.41-.38.7-.09,1.17.12.31.15.6.06.94-.2.71-.5.86-.33,1.45.15.81.98,2.49-.42,2.39-.72.05-.61.49-.6,1.22.02.37.15.78.25,1.19.11.42.05.65.18.58.18-.07.49-.07.61.17.48.5-.7,2.54.45,2.41.13.02,1.04-.21.94.04-.14.35-1.38.98-1.59,1.38-.16.28-.07.73,0,1.23.06.65.44,1,.63,1.52.09.34-.11.8-.1,1.2.08,1.11.45,2.3-.08,3.36-.22,1.25,1.33,1.99,1.16,3.38.1.59-.85,1.63-.62,2.3.1.68,1.32.9.86,1.7-.13.25-.26.47-.16.68.12.29.57.31.75.53.04.18-.73.51-.62.92l.36.36c.21.08.5.14.6.36.15.32.01.89.15,1.34.14.4.09.7.02,1.04,0,.89,1.3.69,1.48,1.46.08.33.06,1.41.26,1.56.59.65.61,1.76,1.31,2.3.28.19.65.37.9.68.61.8.52,1.64,1.4,2.18.32.2.82.41,1.14.49.16.06.22.16.23.33.04,0-.12.52,0,.68.28.38,1.37.26,1.52.57.44.97,1.34,1.95,2.54,2.05,1.04.24,1.53,1.37,2.04,2.11.72.58,1.72,1.02,2.5,1.58,1.28.86,2.52,1.94,4.04,2.23.56.26.39.94.87,1.29,1.02.61,2.27,1.01,3.44,1.4,1.66.52,3.46,1.18,5.17,1.13.39.15.51.6.95.52.61-.12,1.48-.66,2.01-.59.48-.05.51.8.85.67.32-.15.9-.75,1.34-.64.56.14,1.15.57,1.8.67.8.21,1.56.76,2.38.74.61-.1,1.32-.91,1.94-1.15.77-.22,1.33-.29,2.08-.52.59-.12,1.22.32,1.73.41.44.05.66-.57,1.13-.68.49-.21,1.2.05,1.72.18.7.19.73-.54,1.38-.64.54-.13,1.29.06,1.86-.05.44-.15.78-.54,1.27-.73.41-.21.82-.56,1.2-.7.97-.31,1.72,1.13,1.18,1.95-1.17,1.46-2.77,2.69-4.28,3.78-1.55.39-2.92,1.06-4.52,1.55-7.39,2.17-17.32.63-23.51-3.15-.43-.24-1.03-.29-1.41-.51-.39-.19-.39-.86-.66-1.07-.19-.17-.56-.04-.92-.03-.65-.01-1.55-.3-2.08-.62-.26-.24-.33-.73-.69-.95-.66-.3-1.68-.33-2.31-.78-.6-.31-.89-.86-1.33-1.31-.27-.24-.74-.19-1-.44-.22-.21-.36-.5-.66-.66-.87-.32-2.34-.96-2.9-1.89-.19-.31-.27-.62-.17-.93.43-.95-1.17-1.07-1.67-1.74-.58-.49-.72-1.2-1.08-1.82-.19-.29-.52-.51-.78-.79-.47-.45-.51-1.1-.81-1.64-.22-.35-.62-.59-.72-.96-.03-1.36-.96-2.15-1.44-3.37-.57-.96-.17-2.62-1.5-2.93-1.19-.28-1.11-1.35-1.07-2.32-.15-.76-.58-1.39-.63-2.19-.2-.99-.01-2.13-.57-3.01-.25-.34-.54-.67-.65-1.11-.38-1.01.19-2.29.06-3.23-.06-.3-.1-.62-.14-.93-.12-.92-1.82-.81-1.95-1.78-.1-.89.88-.49,1.43-.71.21-.56.46-1.2,0-1.75-.5-.63-.54-1.33-.63-2.05-.07-.24-.23-.39-.39-.59-.52-.72-.27-1.97.15-2.72.23-.5.85-.62.84-1.2-1.57-3.75,1.14-7.9,1.95-11.86l.04-.02Z" style="fill: #6cbdce;"/>
  <path d="M41.34,94.66c.63-.17.49.47.72.96.06.76.07.8-.72.72-.02-.56.01-1.12,0-1.68Z" style="fill: #5fb8cb;"/>
  <path d="M114.31,126.81c.46,4.79.42,10.3-.8,15.08-.14.39-.22.58-.86.76-.5.16-.98.66-1.14,1.06-.13.24-.25.44-.53.51-.28.06-.71,0-1.02.02-.22.1-.41.39-.61.21-.17-.13-.31-.29-.63-.28-.78.04-1.82.08-2.39.38-.52.24-.51.8-.26,1.26.05.04.24.61.13.48-.71-.12-1.74-2.6-2.76-1.16-.12.21-.35.35-.58.28-.27-.05-.19-.62-.22-.57-.01-.1-.08-.11-.18-.12-.21.06-.6-.49-.98-.47-.17.05-.07.47-.01.82.06.36.07.49-.16.42-.39-.1-1.59-.56-1.75-.55.09.34.48.7.51,1.02.03.25-.14.38-.47.46-.35.06-1.15.21-1.27-.08-.09-.25.06-.85-.19-.77-.51.2-.07,1.35-.62,1.66-.49.28-.66-.64-1.14-.5-.35.07-.75.45-1.11.44-.31-.04-.54-.29-.8-.06-.3.26-.18.44.1.59-.14-.03-.63-.08-.71-.28-.09-.16-.02-.38-.13-.46-.16-.13-.55.12-.62-.25-.16-1.04-.41-1.27.61-.61.67.3.76-.36.17-.68-.95-.44-.27-.56.25-.97,1.67-1.24,3.36-2.64,4.7-4.21.21-.45.37-1.02.85-1.47.46-.54,1.05-.71,1.54-1.02.19-.21.17-.65.37-.96,1.74-2.28,3.43-4.95,4.55-7.77,1.42-3.52,2.07-7.29,1.39-10.96-.51-3.92,6.76,7.8,6.73,8.57l.04.15Z" style="fill: #439dc4;"/>
  <path d="M40.4,96.18c.2.32.5.95.84,1.14.16.23,0,.54-.07.78-.18.14-.53.05-.74.17-.22.11-.36.35-.44.65-.12.49-.23,1.33-.06,1.8.11.24.33.16.39-.11.03-.21.03-.43.18-.52.27.02.62-.1.82.14.14.2-.15.52-.31.73-.17.2-.2.45-.25.92-.32,1.31.61,1.35,1,2.39.09.33-.28.58-.33.89.02.74.41,1.42-.82.93-1.12-.54-.82.67.05.66,1.23-.06,1.29.84,1.16,1.78-.12.5.43.29.5.62-.54.9-.84,2.35-.24,3.35.27.45.71.82.82,1.38.41,1.65-.24,2.94.82,4.15.41.54-.21,1.15.14,1.87.41.84,1.57.26,1.83,1.11,0-.07.17.79.18.77.31.85.27,1.61.6,2.46.22.45.63.8.89,1.21.42.47.27,1.21.6,1.77.31.38.76.29.77.58-.01.31.05.7.07,1,.15.51.8,1.08,1.13,1.29.45.28.19,1.01.74,1.68.64.87,2.02.73,2.51,1.72.33.72-.9.68-.35,1.32.5.57,1.66,1.36,2.44,1.67.3.09.6.02.86.19.14.16.03.28.26.67.1.18.76,0,.74.06l.25.06c.11.06.15.15.2.29.17,1.73,2.52,1.39,3.59,1.91.15.08.27.19.35.32.17.27.02.71.26.85.18.13.61.22.93.39.84.47,1.35-.23,1.99-.09.13.06.24.25.32.48.05,0,.08.71.29.82.25.23.8.17,1.19.35.71.24,1.34.78,1.92,1.21.28.2.62.24.85.48.1.11.19.29.19.42-.1.38-.28.2-.54.17-3.83-1.15-7.55-2.66-10.96-4.79-4.3-2.51-8.28-5.25-11.13-9.42-.7-.64-1.03-.97-1.4-1.86-3.71-5.53-7.84-12.95-9.11-19.9-.02-.23.05-.42.18-.59,2.66-2.67,2.53-9.05,3.47-12.82.12-.67.2.32.36.41l.07.11Z" style="fill: #5fb8cb;"/>
  <path d="M130.42,133.26c3.14-1.22,11.6-2.35,12.89,1.69.02,3.93-2.9,7.86-6.13,9.95-.09.03-.26.1-.35.13-.64.17-1.09-.75-1.59-.74-.39,0-.98.35-1.31.09-.26-.21-.21-.64.13-.64.33,0,.77.19.83-.01,0-.12.1-.16-.24-.41l-.3-.11c-.91-.2-.5-1.92.08-2.41,1.2-.84,1.91.44,2.12-1.53.03-.33-.1-.95-.49-.84-.43.09-1.08,1.81-1.3.42-.06-.69.58-.45.99-1,.29-.33.32-.78.43-.99.09-.24.55-.26.74-.56.11-.4-.21-.66-.62-.73-1.05-.2-2.19.59-2.67-.05l-.2-.12c-.89.43-1.13-.51-1.33-1.24-.26-.76-.4-.96-.86-.13-.16.25-.65-.44-.82-.71v-.07Z" style="fill: #3776a7;"/>
  <path d="M49.74,134.26c-2.15-1-1.98-1.23-2.88-3.36.97.99,2.25,2.14,2.88,3.36Z" style="fill: #3782ad;"/>
  <path d="M61.98,142.42c-.15-.66.68-.71,1.2-.72.09.43-.29.6-.48.96-.2-.09-.47-.12-.72-.24Z" style="fill: #6cbdce;"/>
  <path d="M40.37,126.82c-.57-.06-.23-2.27.24-2.4l-.24,2.4Z" style="fill: #3782ad;"/>
  <path d="M61.98,149.14c-.47-.29-1.69.81-1.92.12-.03-.1,1.85-1.04,1.92-.12Z" style="fill: #3679a8;"/>
  <path d="M46.62,130.42l-.12.24c-.49-.06-1.21-1.01-.84-1.44.33.38.71.77.96,1.2Z" style="fill: #3782ad;"/>
  <path d="M60.53,146.98c.06.06.57,1.83-.24,1.44.02-.08-.47-2.18.24-1.44Z" style="fill: #3679a8;"/>
  <path d="M59.1,150.58c-.03-.45-.07-1.05.48-1.2.22.67.41,1.2-.48,1.2Z" style="fill: #3679a8;"/>
  <path d="M44.46,130.18c.82.74-1.76.32-1.44-.72.24.49,1.38.67,1.44.72Z" style="fill: #3679a8;"/>
  <path d="M87.36,73.61c.29.41.32.53.7.72.47.16,1.06-.16,1.38.02.33.19.4.89.67,1.17.2.3.8.34,1.08.64.32.44.64.86,1.16,1.14.58.28,1.05.89,1.7.85.45-.12.61-.91.89-1.13.91-.46,1.87,1.37,2.43,1.87.44.43,1.18.84,1.63,1.46.57.65.75,1.32,1.23,1.88.4.4,1.1.44,1.3.82.13.24.03.63.06.91.16.14.88-.16.73.18-.1.39-.94,1.21-.44,1.67.73.4,1.03,1.04,1.28,1.87.11.32.14.52.04.8-.11.37-.48.9-.4,1.31.25.67.64.02.92-.23.29-.22.78-.09,1.12-.03.08.08.25.25.33.33.06.24-.17.54-.25.8-.21.43.28.85.23,1.23-.24.65-1.24.42-1.55.96-.1-.1.03.77.08.76.89,2.15-1.24,1.37-1.87,2.78-.89,1.73-1.83-.31-2.84-.5-1.16-.24-2.85,1.31-3.23-.73.06-.01-.39-.6-.41-.51-.44-.22-.79.36-1.15.46-.74.14-1.04-1-1.74-1.2-.41-.19-.92.08-1.25-.04-.28-.11-.26-.61-.44-.84-.26-.3-.97-.28-1.35-.63-.53-.55-.63-1.41-1.14-2.02-.49-.77-1.22-1.13-2.05-1.33-.32-.15-.41-.64-.61-.87-.52-.51-1.29-.13-1.99-.13-1.23.04-.98-.18-.73-1.1.15-.08-.4-.2-.43-.2-.34-.11-.51-.4-.56-.74-.09-.6-.67-.42-1.08-.69-.71-.46-.29-1.38.35-1.64.38-.2.63-.57.46-.97-.19-.53-.7-.13-1.14-.14-.75-.02-.46-1.14-.57-1.65-.19-.26-.88.23-.98-.24-.14-.58-.24-1.16-.4-1.76-.12-.17-.37-.41-.29-.62.07-.3.81-.09,1.28-.07.99-.17.04-1.52-.38-1.75-.19-.16-.08-.27.13-.48.54-.41.45-2.06,1.42-1.66.24.42.2.62.79.81.43.11.95.61,1.33.24.22-.32-.38-.89-.13-1.16.22-.25.71-.09,1.09-.19,1.1-.3,2.34-.51,3.46-.49l.1.06Z" style="fill: #72dbe4;"/>
  <path d="M88.14,27.61c1.28-.5,2.76.15,1.17,1.33-1.6.8-3.49,1.53-4.39,3.17-.2.61-.21,1.52-.67,2.02-.74.86-2.09-.09-3.22.56-.38.28-.18.95-.15,1.36.19,1.19-.31,1.74-1.41,2.25-2.83,2.13-6.43,3.18-9.95,2.88-.63-.04.02-1.02-.4-1.12-.4.09-.29.77-.62,1.03-.37.38-1.15.43-1.55.12-.56-.53.19-1.23-.53-1.73-.22-.2-.47-.65-.79-.61-.25.03-.48.36-.69.46-.59.23.1-.91-.35-.93-.26-.1-.81-.04-1.09-.16.42-.13,1.68-.46,2.23-.63.26-.03.58-.05.84-.12,6.05-5.14,13.67-8.08,21.38-9.83l.19-.05Z" style="fill: #7be0e6;"/>
  <path d="M62.42,51.19c-3.25,1.02,1.96.95-.99,1.94-.22.17-.78,1.25-1.37.74-.27-.24.61-1.06.65-1.35.05-.35-.24-.75-.18-1.13.03-.16.71-.05.5-.97-.06-.23-.72.02-.48-.63.9-.3,2.64.2,1.88,1.41Z" style="fill: #6acbd6;"/>
  <path d="M105.18,86.02c-.56,1.71-1.05,1.49-1.45-.11l.97-.37c.12.14.31.28.48.48Z" style="fill: #65cbda;"/>
  <path d="M67.5,51.22c-.38,2.41-2.37.53-.95-.13.35-.17.62.13.95.13Z" style="fill: #6acbd6;"/>
  <path d="M56.7,50.74c1.22.09.09.51.01.67-.07.14.03.44-.09.69-.09.2-1.01,1.13-.88.08.3-.54.71-.99.96-1.44Z" style="fill: #6acbd6;"/>
  <path d="M73.02,61.3c.32-.05,1.68-.06,1.67.36-.01.63-2.04,1.05-1.67-.36Z" style="fill: #6acbd6;"/>
  <path d="M102.78,96.34c.24.3-.38,1.73-.96,1.2-.15-.13.64-1.6.96-1.2Z" style="fill: #72dbe4;"/>
  <path d="M78.78,72.1s.09.51-.12.48c-2.3-.42-.46-1.12.12-.48Z" style="fill: #6acbd6;"/>
  <path d="M83.59,39.42c.02-.18.15-.27.37-.32.24-.03.53,0,.63-.07.19-.1-.06-.53-.01-.8.02-.24.12-.45.31-.63.42-.48,1.63-.64,2.35-.9.36-.37.61-.96,1.17-1.16.46-.27,1.21-.19,1.74-.45,1.28-1,2.67-1.38,4.33-1.08.95.17.68-1.09,1.04-1.62.31-.57,1-.59,1.54-.93.61-.51,1.15-1.13,1.98-1.23,1.35-.37,3.88.69,2.15,2.02-.33.33-1.2.52-1.19,1.01.26.62,1.13-.27,1.61-.22.34-.04.7.04,1.03-.03.62-.52.79-1.4,1.69-.92.68.41.84,1.73.41,2.48-.36.77-.82,1.16-.64,1.87.16.35.64.48,1.29.52,1.3.07,3.27-.23,4.57.09,1.26.17,1.16,1.63,2.12,2.23.63.6,1.79.66,2.76.98.31.25.59.84.68,1.21.04.48-.43.87-1.1,1.15-.93.48-2.18.37-3.09.62-.26.17-.48.52-.8.66-.35.17-.89.1-1.11.45-.2.29-.29.7-.56.87-.33.35-1.15.02-1.18.49.06,1.03-.53,1.93-.85,2.89-.03.59.29,1.32.19,1.9-.05.98-.89,1.33-.51,2.38.03.26,0,.48-.08.66-.13.38-.92.62-.88,1.1.03.32.53.45.9.74.27.32.75.75.43,1.19-.22.33-.67.4-.66.68,0,.28.23.75.32,1.15.16.6.12,1.37.46,1.89.02.33-.25.28-.58.44-.35.19-1.4,1.19-1.12,1.5.54,0,1.79-.05,1.9-.44.17-.32.18-.87.63-1.08.32-.16.74-.07,1.08-.04.63.23.9.72,1.64.67.69-.06.59.22.64.72-.02.32-.08.82-.2,1.05-.38.78-1.24.25-1.98,1.74-.34.62-.43,1.27-.68,1.92-.42,1.03-1.92,2.21-.95,3.24.28.28.93.36,1.17.61.32.29.61,1.08,1.16.98.3-.05.35-.57.56-.88.17-.27.47-.34.58-.22.18.16-.09.7-.33,1.26-.23.48-.36.87-.59.97-.26.14-.89-.19-1.04.07-.18.28-.2.78-.73.42-.15-.17.09-.46.22-.63.22-.42-.47-.83-.51-1.29-.07-.24-.13-.42-.21-.37-.1.05-.18.5-.13.83.27,1.77-2.71-.65-3.56.52-.65.52-1.11.31-1.57-.28-.46-.37-.94-.41-1.4-.42-.57.03-.86.43-1.39.49-.36.06-1.29-.32-1.03-.74.22-.28.42-.69.51-1.04.09-.89-.77-.51-1.12-.97-.14-.22-.21-.61-.53-.72-.48-.14-.12-.53-.12-.91-.33-.16-.53-.08-.8-.19-.73-.27-.5-.87.21-1.2.05-.05.15-.16.2-.21-.05-.43-.27-.34-.22-.67.73-1.27-1.51-1.09-2.1-1.63-.76-.51-.99-1.86-1.99-1.88-.37-.05-.57-.44-.77-.71-.19-.45-.55-1.29-.45-1.68.07-.32.4-.35.87-.4.61-.05,1.69-.1,1.73-1.01.04-.15.25-.25.36-.37.35-.25-.45-.84-.57-1.3,0-.16.36-.19.66-.36.29-.17.51-.45.66-.77.26-.57.26-1.26-.06-1.62-.3-.39-1.14-.32-.91.29.06.24.22.55.22.76.01.21-.13.31-.34.36-1.45.27-2.69,1.76-3.99,2.43-.64.16-1.25-1.8-2.18-1.22-.32.23-.57.72-.78.68-.17,0-.3-.35-.41-.72-.75-1.47,1.49-1.49,1.21-2.77-.16-.36-.61.03-.91.3-.25.23-.67.39-.95.22-.37-.37-.07-.88-.09-1.39.02-.4.02-.81.03-1.19-.14-1.01.86-2.08.79-3.12-.09-.5-.73-.52-1.06-.76-.22-.18-.37-.56-.57-.82-.62-.87-1.66-.15-2.41,0-.06.16-.45-.37-.35-.45-.06-.71.38-1.03.88-1.21.44-.17.87-.38.98-.86.08-.19.15-.33.37-.39.33,0,.84.18,1.08.41.2.21.33.43.55.37l.38-.29c.13-.27-.06-.56.11-.81.12-.17.38-.37.5-.56.55-.85-.37-.69-1.05-.7-.27-.02-.6-.76-.85-.48-.09.21.42.73.66,1.1.62,1.2-1.28.07-1.73.08-.51-.04-.75-.43-1.14-.78-.38-.3-1.43-.66-.67-1.13.24-.07.52-.15.77-.19.61-.13.48-.83.4-1.29v-.14Z" style="fill: #97dbdf;"/>
  <path d="M125.26,20.49c.75-.03,1.55.31,2.1.82.49.31,1.09.6,1.18,1,.13.34-.09.73-.07,1.22,0,.27.04.56,0,.8-.06.75-.82.85-1.42,1.14-.26.21-.24.67-.49.84-.22.19-.67.21-.87.48-.32.4-.14,1.14-.38,1.6-.38.53-1.07.92-1.42,1.53-.4.63-.67,1.11-1.22,1.55-.17.24-.09.68-.36.79-.83.38-2.43-.25-3.02.52-.39.4-1.02.57-1.23,1.1-.29.62-.26,1.5-.49,2.09-.23.73-1.01.63-1.62.61-.23.05-.58.34-.63.48-.08.19.65.12.82.43.23.28.17.71-.07,1.13-.56,1.61-.03,2.45-2.19,1.84-1.4-.5-2.57-.42-3.04-1.9-.11-.28-.23-.7-.45-.86-.52-.4-2.64-.37-3.61-.39-.92.02-2.24.34-3.06-.08-1.2-.71,1.91-3.28.25-4.66-.39-.18-.41.19-.66.44-.25.58-.54.67-1.19.51-.42-.07-.9.07-1.29.31-.42.19-.55.43-1.03.06-.65-.75-.37-1.34.4-1.71.57-.32,1.4-.46,1.22-.8-.15-.25-.69-.54-1.09-.65-1.21-.38-2.25.35-3.03,1.19-.26.2-.63.27-.93.37-.98.27-.26,1.56-1.12,2.07-1.5.46-3.35-.35-4.75,1.04-.51.44-1.28.4-1.81.62-.65.16-.86.93-1.38,1.29-.62.27-1.9.25-2.19.8-.27.28.59,1.32-.03,1.5-.49.08-1.2.1-1.73-.44-1.13-1.73-2.76,1.28-4.07.69-.46-.22-1.21-.28-1.53-.61-.28-.46.4-.97,1.11-1.26.96-.47,1.69-.45,1.48-1.31-.4-1.08-.49-2.68,1.07-2.71.78-.03,1.61.35,2.1.06.63-.36.54-1.51.75-2,.1-.29.42-.6.81-1.07.48-.58.7-.8,1.54-1.19.57-.35,4.32-1.75,2-2.02-.12-.05-.7-.03-.34-.18,11.96-4.3,23.95-6.64,36.8-7.06h.18Z" style="fill: #8edee3;"/>
  <path d="M115.58,41.76c1.06,0,1.67,1.2,2.38,1.84,1.6,1.8,2.79,3.73,3.22,6.2.04.74,1.14,1.16,1.22,1.64.07.41-.51.63-.71.93-.07.24.02.62,0,.99,0,.37.2.76.01.99-.3.43-1.38.12-1.53.45-.12.34.73.46.63.97-.37,1.09-1.43,1.93-1.74,3.1-.35.69-.83,1.55-1.49.92-.21-.18-.18-.44-.52-.59-.39.25-.85,1.05-1.27.72-.75-.41-1.65.09-2.54-.1-1.37-.16-2.66-.57-3.63-1.08-.54-.34-1.36-.6-1.72-1.08-.18-.48-.34-1.31-.7-1.91-.34-.86-1.27-1.25-1.72-1.89-.03-.3.6-.28.49-.69-.07-.34-.25-.93-.32-1.29-.1-.39.04-.38.34-.47.28-.1.35-.39.44-.64.14-.83-.54-1.8-.19-2.57.42-.84.9-1.92.93-2.86.1-.86.73-.29,1.28-.57.4-.23.31-1.03.71-1.17.36-.15.87-.06,1.1-.21.19-.08.39-.33.65-.55.59-.56,1.91-.19,2.53-.39.56-.26,1.29-.85,2-.68h.18Z" style="fill: #92c6c5;"/>
  <path d="M82.62,41.86c-1.25-.13.11,1.67-1.44,1.08.07-.45.14-.96.31-1.37.37-.9,1.05-.42-.06-1.62h1.2c-.33.76.2,1.34,0,1.92Z" style="fill: #8edee3;"/>
  <path d="M91.5,66.58c.96.28.1,2.53-.6,2.4-.98-.83,1.04-1.29.6-2.4Z" style="fill: #7ed2da;"/>
  <path d="M84.3,47.38c.68-.18,1.73,1,.84,1.2-.47.11-.98-1.06-.84-1.2Z" style="fill: #97dbdf;"/>
  <path d="M102.3,74.02c-.51-.31-.4-.91-1.2-.72l.84-.71.36,1.43Z" style="fill: #97dbdf;"/>
  <path d="M111.9,65.62c-.07.5-1.13.96-1.44.72-.57-.44,1.26-.8,1.44-.72Z" style="fill: #97dbdf;"/>
  <path d="M78.51,109.34c3.48,11.47,17.83,7.41,16.36,12.65-.05.26-.07.62,0,.95,0,.72,1.02.98.89,1.58-.15.37-.59.67-.78,1.01-.27.36-.4.89-.72,1.26-.55.4-.82.24-1.19.58-.24.22.11.44.33.77.18.46.09.47.05.69-.5,1.26-2.03-.71-2.41-1.25-.63-.41-1.36.02-1.86.52-.74.61-1.69,1.04-2.53.53-.23-.09-.48-.12-.72-.17-.47-.08-.65-.56-.74-1.09-.05-.16-.06-.34-.25-.4-.81.49-2.21,1.01-3.2.53-.48-.15-.65-.8-1.02-.76-.51.13-1.16.47-1.76.44-.66.06-1.31-.26-1.95-.35-.71.04-1.24.84-1.91.21-.94-.73-2.45-4.18-3.71-1.83-.7.45-1.14-.52-1.69-.89-.48-.25-.96-.44-1.29-.89-.43-.41-.48-1.27-.96-1.74-.26-.17-.73-.04-1.08-.03-1.89.17-1.94-1.63-1.95-3.19.01-.97.06-1.57.42-2.18.69-1.08,2.17-.68,3.21-1.04,1.91-1.3,4.14-3.74,6.68-2.46.71.3,1.32-.25,1.96-.5.38-.22.88-.36,1.14-.66.28-.37.02-1.09.31-1.39.23-.22.08-.81.27-.93l.06.02Z" style="fill: #9fe7eb;"/>
  <path d="M78.44,106.99c.03.18-.13.68-.09,1.04.03.71.61,2.55-.74,1.84-.27-.16-.6-.43-.9-.46-1.05.12-2.79,1.2-3.49.41-.31-.16-.53-.03-.86.18-.83.54-1.63-.07-2.53.17-.5.24-.97.59-1.45.69-.71.2-1.39-.08-1.95.56-.68.62-1.89.39-2.39,1.21-.47.98-1.76,1.37-1.96,2.35-.06.24-.18.51-.31.73-.28.54-.85.8-1.23,1.2-.21.26-.28.69-.53.97-.19.25-.51.42-.61.62-.13.2.01.58.11.95.12.46.3.26.6-.05.35-.34.63-.34.94-.12.43.29.55,1.2.76,1.79.17.43.43.78.34,1.06-.02.27-.45.56-.6.75-.02.24.22.18.47.27.45.18.87.39,1.37.44.57.05.61.73.97,1.09.26.18.76.02,1.14.03,1-.04,1.72.32,2.32,1.23.07.05.22.16.29.21.38.14.95-.2,1.38-.23.84-.19,1.5.23,1.51,1.1.04.26-.05.33.13.68.13.16.48.13.78.21.3.08.59.26.92.2.45-.06.95-.45,1.33-.42.45-.07.7.41,1.12.46.58-.32,1.02-1.27,1.89-.88.35.15.87.55,1.06,1.12.1.35-.04.71-.01.92.11.37.68.35,1.05.33.62-.08,1.4-.12,1.69-.71.35-.74,2.05-.84,2.76-.46.35.19.48.66.79.97.54.59,1.48.69,2.21.85.28.03.44-.41.72-.58.77-.46,1.47.36,2.22.44,1.51-.31,2.12-.5,2.75,1.24.09.16.2.26.32.23.36-.12.69-.93,1.17-1.16.53-.42,1.15-.08,1.72.18,2.85-.26,4.97-3.06,5.02-5.84-.09-.44-.57-.74-.59-1.12-.06-.37.11-.76.37-1.15.5-.68-.85-.46-.93-1.04-.12-.25.09-.69.11-1.05.02-.3-.2-.5-.4-.73-.15-.26-.31-.55-.58-.73-.27-.19-.55-.31-.56-.51-.05-.68,1.78-1.85,2.43-2.64.84-.07.3,2.12.49,2.59,1.01,1.7,2.05,3.93,1.15,5.89-.4.99.26,1.63.53,2.46.23,1.88-1.58,4.27-2.95,4.76-.37.49-1.04,1.32-1.5,1.67-.45.29-1.11.06-1.48.62-.42.36-.51,1.06-1.01,1.29-1.23.21-2.4.65-3.52,1.17-2.35-.19-4.71-.61-7.01.28-2.31-.85-5.06-.72-7.37,0-.58.23-.66-.36-1.23-.97-.26-.3-.42-.64-.7-.65-.27-.02-.65.29-1.03.31-1.29.19-2.13-.87-2.96-1.55-.35-.07-.88.25-1.29.21-.44.03-.81-.2-1.2-.28-.88-.04-1.5.23-2.22-.13-.27-.15-.4-.4-.45-.71-.13-.47-.5-.89-.51-1.42-.15-1.59-1.97-.4-2.93-.48-.33,0-.46-.29-.64-.59-.24-.4-.81-.46-1.12-.82-.44-.38-.46-1.2-.67-1.85-1.36-2.5-1.87-5.92-4.06-7.92-.47-.49-.03-.97.28-1.5.34-.48.38-.95.6-1.4.37-.5.89-1.05,1.23-1.72.49-.76.59-1.61.95-2.35.24-.32.77-.42,1.15-.61.55-.19.81-.79,1.2-1.21.28-.25.69-.4.92-.73.2-.27.26-.56.45-.68.52-.21,1.29,0,1.84-.19.96-.24,1.61-1.05,2.62-1,.35,0,.66-.28.94-.46,1.73-1.8,4.58-1.01,6.52-.81.36-.01.62-.12.77-.39.07-.13.12-.26.25-.28.19-.02.75.26,1.04.33.23.08.71.09.86.17l.05.07Z" style="fill: #92dee3;"/>
  <path d="M98.23,118.05c.11.14.32.38.67.51.38.18.49.68.77.99.33.28.79.21.66.54-.07.3-.5.99-.48,1.25-.16.18.84.24,1.1.31.99.32-.59,1.22-.47,1.94,0,.37.49.53.6.97.31,2.96-2.39,5.9-5.06,6.69-.4.12-.8-.12-1.13-.33-1.18-.59-1.48,1.76-2.68,1.15-.25-.12-.36-.34-.45-.58-.28-1.56-1.2-.98-2.21-.69-.43.05-1.38-.97-1.91-.6-.39.22-.23.74-.29,1.09-.02.33-.44.51-.75.58-.26-.07-1.02,0-.57-.44.22-.19.47-.32.41-.51-.41-.67-1.56.11-1.66.65-.09.15-.21.54-.44.38-.14-.1-.34-.38-.33-.58-.1-.07.24-.38.65-.56.81-.52-.15-.66-.61-.79-.22-.1-.17-.47-.33-.78-.38-.62-1.87-.56-2.34-.15-.1.29,1.12.05,1,.5-.05.37-.69.85-1.1.82-.45-.02-.23-.71-.6-.6-.32.05-.94.35-1.37.39-.39.06-.71-.13-1.01-.23-.42-.14-.57.25-1.05-.06-.21-.25,0-.64.32-.84.32-.23.51-.39.27-.64-.27-.28-.82-.75-1.17-.75-.62-.02-.77,1.55-1.7,1.07-.4-.22-.51-.7-.78-.63-.26.02-.64.45-1.12.55-.6.09-1.34-.42-1.92-.31-.74.12-.64-.93-.64-1.46-.04-.51-.48-.6-.93-.5-.93.18-1.68.85-2.22-.19-.44-1.17-1.92-1.17-2.97-.8-.18.06-.32.08-.42.01-.18-.02-.25-.84-.28-.83-.1-.41-.24-.84-.68-.47-.31.23-1.35,1.05-1.71.53-.14-.35-.12-.78.32-.49.34.21.76.06.7-.25-.07-.55-1.4-.2-1.48-.83.03-.51.61-.68.86-1.07.1-.28-.44-.64-.49-1.14-.12-.49-.07-1-.32-1.18-.26-.2-.66.03-.75.46-.11.42-.4.99-.76.64-.14-.53-.51-1.79-.5-2.35.02-.4.57-.57.85-.98.14-.2.21-.47.31-.69.12-.19.06-.22.47-.47.2-.1.38-.17.44-.32.1-.18-.03-.27.18-.62.37-.26.43-.15.56-.48-.03-.98.87-1.24,1.5-1.93.46-.46.65-.88.77-1.38.15-.23,1.04.04,1.39-.19.6-.14.92-.67,1.47-.87.36-.1.86,0,1.13-.07.58-.12.81-.45,1.4-.72.81-.46,1.85.15,2.62-.19.56-.11.95-.77,1.53-.94.28.02.04.72.27.9.24.22.7-.13,1.12-.23.37-.1.77-.06,1.08-.12.32-.02.56-.38.75-.51.41-.06.67.41,1.13.71.5.38.66.5.65.98-.05.77.44,1.58.64,2.18.03.15-.02.26-.12.28-.3.1-.62-.55-.91-.57-1.32.36-2.44,1.69-4.02.85-.89-.45-1.97.27-2.86.45-.49.15-.68.22-.83.61-.17.45-.62.43-.97.85-.21.25-.42.52-.69.64-.8.41-1.93.12-2.79.51-1.16.61-1.06,1.49-.92,2.81.05.58.15,1.46.27,1.91.4.77,1.99-.1,2.48.18,1.06.78.61,2.55,2.19,2.87.09.05.26.15.35.21.33.2.53.97.93.63.22-.24.1-.85.35-1.02.24-.19.7.15,1.12.25,1.56.13,1.7,2.09,2.93,2.81.49.19.74-.6,1.15-.6.59.02,1.86.61,2.46.61.65-.02,1.51-1.14,2.13-.44.18.24.31.62.52.86.17.11.5-.02.84-.07.61-.15,1.31-.1,1.8-.48.25-.2.4-.57.76-.61.42.49.33,1.22.6,1.79.46.96,1.16-1.21,1.62-.29.14.4-.19.54-.27.81,0,.08.11.12.27.09.68-.12,1.65-.97,2.19-1.33.37-.13,1.18-.27,1.4-.22.3.07.87,1.23,1.33,1.58.49.52,1.07.17.36-.34-.33-.25-.36-.84-.25-1.26-.13-.08.54-.27.59-.21,1.17.11,1-.76,1.51-1.53.21-.28.54-.52.79-.77.07-.19-1.08-.23-1.14-.53-.06-.15.09-.37.16-.56.17-.36-.14-.66-.08-1.06.03-.25.05-.26.16-.68.05-.22-.07-.45-.22-.86-.13-.44-.47-1.03-.5-1.42.02-.19.54-.13.99-.24,1.11-.14,2.42-.67,3.38-.98l.08.04Z" style="fill: #93e3e8;"/>
  <path d="M107.85,117.27c1.74,7.03-1.7,14.86-6.14,20.24-.19.18-.4.4-.69.26-.41-.25-.86-.63-1.4-.41-.54.18-.94.11-1.46.2-.83.24-1.68.33-2.09-.52-.4-.77-.31-2,.27-2.86.54-.71,1.35-1.11,1.84-1.75.19-.19.5-.3.68-.51.27-.28.09-.69.34-.97.45-.28.65.36,1.14-.21.75-.85,1.97-2.86,1.88-4.01-.59-.38-.86-1.53-.81-2.07.21-.82.96-2.25.24-3.3-.15-.39-.07-.83-.42-.99-.14-.32-.03-.53-.15-.8-.1-.31-.32-.47-.47-.65-.75-1.61.08-4.06.24-5.65.2-.54-1.45-3.21-.43-2.78,1.47.75,6.78,5.2,7.38,6.67l.04.12Z" style="fill: #79d9e2;"/>
  <path d="M141.03,81.18c.98.16,1.11.96,1.77,1.47.47.24,1.15.26,1.47.74.17.2.11.55.14.82.02.28.23.46.43.69l.16.32c.14.35-.09.71-.04.91.03.2.37.38.43.73.34,1.17-.67,2.78-.52,3.77.18.27.44.51.56.81.14.33.02.82.2,1.14.12.28.46.42.6.67.17.3.06.73.24,1.03.61.73,1.49,1.58,1.22,2.63.01.42.26.65.63.9.56.41.89,1.05.92,1.7.03.04.09.13.12.18.15.08.54-.14.85-.21.31-.08.57-.07.69.1.14.23.04.67.07.95.06.24.32.41.46.71.14.3.26.65.49.89,2.15,1.53,4.72,3.13,6.14,5.39.26.93.9-.02,1.43-.29.83-.5,2.46-.72,2.18.62-.26.95-.18,2.47.11,3.43.24,1.09-.43,2.73-1.2,3.38-.22.2-.37.19-.4-.14.07-.9-.55-.61-1.1-1.01-.35-.3-.44-.53-.89-.51-3.01.08-5.38-3.97-8.47-4.57-.83-.11-.94-.97-1.42-1.6-.94-1.65-2.36-2.49-3.91-3.26-.48-.7-1.08-3.13-1.81-2.99-.22-.02-.37-.06-.53-.28-.4-.51-1.06-1.25-1.53-1.7-.33-.42-.15-.73-.63-1.08-.14-.5.24-1,.16-1.74-.09-.83.14-1.62-.56-2-1.82-.29-1.73-3.08-1.72-4.3.04-.37.14-.77.17-1.13-.02-.31-.12-1.05-.14-1.37-.05-.59.17-1.41.32-1.88.1-.3.09-.48-.17-.67-.26-.21-.47-.47-.32-.72.52-.73,2.49-2,3.27-2.5h.12Z" style="fill: #7dd1d9;"/>
  <path d="M135.53,35.7c.74-.12.9.5,1.31.95.07.16-.18.4-.38.52-1.32.63-2.48,1.59-3.91,2.33-4.74,2.54-8.05,5.49-4.86,10.27,2.37,5.18,6.01,9.75,10.01,13.54.09.05.23,0,.39-.09,4.04-2.28,7.18-6.15,10.35-9.71.83-.67,2.89-4.05,3.87-2.72.48,1.32-4.78,6.41-5.73,7.74-1.86,3.6-.79,10.04-3.51,13.49-10.7-6.3-22.23-23.62-21.48-36.25,1.38-1.22,6.58,1.43,8.55,1.83.3.06.39,0,.79-.19.84-.4,3.31-1.62,3.86-1.86.22,0,.34.08.58.14l.16.02Z" style="fill: #0c1d26;"/>
  <path d="M122.52,31.3c1.66-.6,3.7-.51,5.42-.16.34.04.35-.3.42-.68.23-.75,1.13-.93,1.85-.8.55.06.96.51,1.43.54,1.97-.28,4.01-.57,6.04-.55.39-.03.71-.29,1.02-.4,1.34-.24,1.94,1.66,2.99,2.13.58-.01,1.33-.22,1.95-.13.33-.01.62-.21.88-.09.22.09.4.46.63.56.45.09.47-.03.74-.1.43-.15.99-.26,1.29.07.14.17.26.42.52.66.24.24.56.47.63.7.17.45-.47.57-.77.7-.54.25-1.17.42-1.84.45-.9.07-1.41.05-2-.26-.65-.24-1.26.29-1.82.49-2,.18-3.91,1.1-5.81,1.58-1.6-.23-3.56,1.43-4.85,1.99-.57.26-.76.27-1.13.21-1.66-.32-7.23-3.07-8.67-1.8l-.17.04c-.14-.04-.31-.49-.51-.28-.12.11-.21.43-.25.66-.06.4-.11.6-.44.32-.15-.24-.74-.45-.77-.42-.39-.04-.56-.18-.55.45-.1,1.01-.57,2.66-.91,3.43-.15.38-.37.57-.96.6-.56.02-1.21-.22-1.35-.62-.14-.43-.21-1.04-.27-1.51,0-.39.32-.67.49-1.01.07-.82-1.33.1-1.53-.2-.14-.17.12-.58.45-.94.72-.76,1-1.03,1.99-.81.49.07.53-.23.55-.67.06-.92.11-2.01,1.09-2.52.38-.21.77-.71,1.01-.92.18-.14.46-.1.78-.12-.02.05.77-.21.7-.19.39-.2.52.3.85.27.28-.09.54-.38.76-.57l.14-.09Z" style="fill: #77d4dc;"/>
  <path d="M119.36,36.41c-.5.3-.25,1.07-.33,1.68-.06,1.33.23,2.54,1.26,3.47.12.15.21.32.25.51.14.85-.3,1.94.29,2.41.16.15.29.35.36.56.06.4-.2.93-.05,1.35.52.97.87,2.01,1.01,3.12.08.25.03.23.32.74.21.34.43.5.24.89-.05.19-.14.2-.13.65.12.46,1.1-.2,1.1.52.11.46-.07,2.18.25,2.57.46.33,1.62.82,1.59,1.57,0,.42-.27.81-.28,1.22-.04.38.29.73.58.98.51.52.38.46.75.81.62.29,1.33.11,1.59.97,0,.28-.02.61-.22.83-.41.6-.42,1.28-.36,2.01.06.91.34,1.95.02,2.75-.04.02-.08-.07-.11-.23-.46-2.54-1.91-6.32-3.62-8.01-.3-.59.13-1.3-.01-1.79-.02-.25-.51-.74-.54-.75-.25-.22-.62-.47-.93-.45-.43-.04-1.15.27-1.57-.17-.07-.14.33-.29.44-.41.1-.09-.02-.21-.24-.32-.29-.15-.51-.42-.37-.57.11-.12.33-.18.39-.31-.02-.45-.43-1.25.34-1.23.75-.12.53-.52-.11-.67-.69-.37-.77-1.21-.92-1.98-.1-.61-.2-1.16-.35-1.71-.45-1.88-4.98-5.23-5-6.73,0-.22.11-.45.33-.51-.08-.08.63.1.64.14,1.47.7,1.25-.05,1.77-1.23.28-.5.55-.95.59-1.55.03-1,.04-1.92,1.05-1.18v.05Z" style="fill: #77ccd7;"/>
  <path d="M144.78,66.82c.45.73.52,2.03-.32,2.45-.21.95-.41,2.19-1.12,3.07-.08-.07-.18-.2-.24-.24.62-1.73,1.23-3.49,1.68-5.28Z" style="fill: #76d6de;"/>
  <path d="M58.87,42.17c.62,1.42-.68,2.93-1.42,4.1-11.59,17.61-17.69,38.88-20.77,59.6-.08.47-.58,1.05-1.03,1.07-5.05-19.37,6.8-53.28,23.14-64.82l.08.05Z" style="fill: #db5157;"/>
  <path d="M34.62,81.94c-.04.68.3,1.64-.48,1.44.02-.67-.28-1.65.48-1.44Z" style="fill: #77737d;"/>
  <path d="M35.58,78.1c-.14,1.58-.24.97-.48,1.44.06-.57-.33-1.56.48-1.44Z" style="fill: #886484;"/>
  <path d="M33.18,104.98c.82-.2.39.78.48,1.44-.79.23-.44-.92-.48-1.44Z" style="fill: #5e728c;"/>
  <path d="M34.14,84.34c-.02.67.28,1.65-.48,1.44.02-.67-.27-1.65.48-1.44Z" style="fill: #7e6b8a;"/>
  <path d="M39.9,97.3c-.05.54.06,1.1-.48,1.44.05-.68-.3-1.64.48-1.44Z" style="fill: #7f8f98;"/>
  <path d="M140.91,81.16c-.04-.52-.02-1.55.55-1.47.19.09.36.45.55.61.42-.35,1.02-1.97,1.13-2.48.23-.25.33-.13.69-.3.18-.03-.28-.66-.27-.7-.21-.39-.49-.96-.54-1.32-.25-1.61,2.04-1.71,3.19-2.28.13-.01.4-.04.53-.06.21.08.35.2.58.01.94-.85,1.66-2,2.28-3.05.48-.41,1.7-.31,1.87-1.09.07-.16.18-.3.36-.33.1.05.31.16.41.22.59.71.87.79,1.45-.07.39-.7,1.08,0,1.56.23.95.73-.63,1.04-.77,1.54.07.26.26.2.6.21.58.03,1.37-.06,1.59.07.23.14.22.67.31,1.04,0,.69-.26,1.35.17,2.05.61,1.65-.67,1.38-1.51.58-.49-.36-1.32-.59-1.68-.33-.29.25-.81.33-1.03.65-.29.77-1.55,3.16-2.54,1.73-.11-.1-.17.28-.27.67-.07.47-.2.43.04,1.04.38.64.44,1.88-.65,1.41-.65-.27-.86-.88-1.39-.17-.21.31-.98.3-.96.72.04.23.15.52.03.77-.17.36-.79.45-1.06.61-.15.11-.09.3.07.54.33.49.53.95.34,1.26-.33.4-.49.23-1.09.58-.3.2-.54.6-.85.57-.29,0-.52-.47-.79-.78-.46-.51-1.18-.39-1.66-.76-.27-.18-.26-.69-.41-.98-.37-.2-.61-.12-.81-.78l-.03-.18Z" style="fill: #76d6de;"/>
  <path d="M147.45,33.61c2.13-.58,5.99,1.28,6.42,3.11,1.34,2.28,2.14,4.7,1.56,7.32-.41,2.32-1.53,4.68-2.75,6.64-.23.27-.56.43-.9.4-.6-.33-.71-1.29-.23-1.89,4.16-6.67,3.84-13.16-5.49-13.8-.52,0-.85.29-1.11.36-.4.08-.67-.56-1.27-.5-.83.18-2.27-.47-1.04-1.17.21-.14.05-.2.32-.27,1.27-.27,3.07-.27,4.38-.2h.13Z" style="fill: #14405b;"/>
  <path d="M55.74,127.24c1.19-.62.89.29,1.59.86.42.26.99.8,1.5.76.41-.16.26-.86.46-1.15.11-.18.34-.22.44-.1.16.14-.04.46-.16.68-.24.46.36.52.49.91.12.27-.01.4.04.83.15.2.81.18.77-.11.02-.3,0-1.07,0-1.58-.06-1.04.23.3.58.53.41.46,1.04.48,1.41.89.18.23.15.6.46.72.68-.02,1.75-.85,2.48-.52.37.1.71.77.76,1.31.03.25-.02.38.07.49.18.14.39.33.56.48.04.43-.15.46-.12.67.05.31.43.26.73.27.64-.02,1.32-.22,1.89.05.69.37,1.15.14,1.8-.07.55-.17.91.25,1.11.69.19.28.64.37.95.56.38.23.76.5,1.08.42.38-.05.68-.41,1.03-.6.75-.04,1.39.83,1.58,1.46.09.31.09.48.38.44,1.2-.49,2.5-.55,3.86-.59,1.03-.02,1.92-.12,2.44.03.36.12.82.56,1.22.57.5-.01.43-.38.92-.69.22-.09.59.12.92.19,1,.22,1.88-.14,2.91-.14.65.02,1.33.26,1.79.3.55.12,1.16-.28,1.74-.54.84-.26,1.51-.16,2.23-.53.85-.42.47-1.07,1.38-1.29.5,0-.03.45-.22.85-.13.23-.26.48-.32.69-.09.3-.05.5.02.71.23.5.17,1.76-.35,2.18-.56.51-1.64.34-2.08-.23-.34-.21-.43.05-.7.41-1.15,1.74-3.23,1.86-5.02,1.19-.66-.01-1.33.68-2.02.49-.62-.11-1.02-.5-1.62-.41-1.23-.18-6.63,2.19-6.16-.14-.14-.37-.45-.06-.67.18-.68.71-1.46-.11-2.35-.24-.59-.04-1.09.04-1.56-.09-.64-.11-1.33-.6-2.06-.56-2.31.2-4.1-2.02-6.38-2.63-.37-.19-.47-.65-.86-.79-.33-.12-.77-.16-1.12-.35-3.09-1.96-5.85-4.39-7.84-7.32l.03-.1Z" style="fill: #84d2da;"/>
  <path d="M125.12,20.43c12.6-.13,27.32.61,37.14,9.29.13.19-.19.27-.38.39-.19.14,0,.38-.05.54-.32.35-.62.3-.43.77.23.45.35.98-.22,1.22-.53.19-1.18.43-1.69.64-.63.21-1.07,1.18-1.72,1.47-.29.18-.73.23-1.04.29-.48.15-.24.9-.78,1.22-.38.25-.75.03-1.07.05-.47.03-.46.4-.88.65-.17.06-.37-.24-.6-.45-1.49-1.44-3.72-2.32-5.66-2.73-.13.06.02-.32.05-.33.07-.11.07-.21-.01-.3-.13-.15-.45-.26-.64-.5-.17-.26-.22-.6-.45-.64-.37-.05-1,.39-1.39.43-.51.17-.78-.41-1.01-.84-.07,0-.14.23-.3.31-.45,0-.95-.28-1.38-.1-1.67.78-1.75-.59-2.82-1.42-.17-.11-.37-.17-.49-.26-.23-.17-.17-.42-.45-.45-.65-.05.22,1.23-.02,1.38-.61.27-.59-.69-1.02-.79-2.06.05-4.41.05-6.46.52-.47,0-.78-.54-1.21-.59-.31-.06-.87.05-1.25.13-.18.04-.27.1-.29.22.24,1.27.26,1.45-1.16,1.15-1.07-.24-2.13-.57-3.28-.19-.53.18-1.21.49-1.65,0-.23-.26-.02-.61.2-.96.62-1.23,1.41-1.72,2.1-2.55.03-.17-.04-.42-.04-.66.01-.76.49-1.37,1.06-1.31.37-.01.3-.48.34-.78,0-.64.81-.35,1.22-.54.58-.22.36-.71.39-1.25,0-.32.11-.73.03-.99-.19-.49-.9-.66-1.23-1.09-.47-.66-.86-.61-1.5-.89l.02-.04Z" style="fill: #75dee5;"/>
  <path d="M68.7,35.62c.31,1-1.22,1.2-1.39,1.49-.2.36.16,1.11-.43,1.38l-1.06-.96c.82-.48,1.82-1.3,2.88-1.92Z" style="fill: #72d1da;"/>
  <path d="M84.54,28.42c-.58,1.14-1.79.99-2.88.96.95-.32,1.91-.69,2.88-.96Z" style="fill: #97dbdf;"/>
  <path d="M158.21,54.1c.05.04.27.98.49,1.2-2.46.22-1.13-1.66-.49-1.2Z" style="fill: #6dd2db;"/>
  <path d="M28.41,108.96c.34-.32.39.16.42.52.04.52,0,1.19.01,1.39-.04.19.43.08.87.08.22,0,.37,0,.25.06-.66.31-1.29.58-.31,1.16.16.15.16.27,0,.69,0,.08.34.03.51.05.51.65-.99.66-.45,1.25.11.09.34.26.46.34.12-.04.21-.38.37-.45.28-.2.69-.11.73.26,0,.45-.54.56-.96.66-.25.06-.5.14-.66.31-.1.16-.2.3-.36.21-.7-.48-.32-1.79-.41-2.5,0-.18-.2-.3-.37-.32-.16,0-.15-.02-.14-.13,0-.55,0-3.5,0-3.52l.04-.05Z" style="fill: #3c90ba;"/>
  <path d="M30.06,107.62c.02.96-.62.51-1.2.59-.34.22.5.84-.95.61-.32-1.89.82-1.24,2.16-1.2Z" style="fill: #3c90ba;"/>
  <path d="M171.23,100.85c1.92,4.08-.32,9.05-2.58,12.44-.14.23-.48,0-.69-.09-.22-.09.03.35-.17.43-.19.07-.62-.13-.8-.03-.17.04-.32.37-.51.37-.36-.03-.64-.65-1.23-.62-.64-.14-1.6.57-2.3.18-.09-.12-.05-.31,0-.47.78-1.16,1.42-2.54,1.85-3.86.14-.27.49-.31.61-.59.16-.83.7-1.2,1.41-1.51.45-1.46,2.28-5.33,3.41-6.53.38-.51.55-.2.92.16l.08.11Z" style="fill: #78d8e2;"/>
  <path d="M163.09,105.39c1.03-.58,1.68.67,1.83,1.55.53,3.46-2.37,7.59-5.46,9.06.97-1.74,2.01-3.72,2.07-5.79.05-.64-.08-1.36-.18-1.96.01-.27.47-.7.23-.87-.62-.82.38-3.07,1.41-2.01l.11.02Z" style="fill: #0d1e27;"/>
  <path d="M164.28,104.98c3.4,3.05-.33,8.33-3.33,10.27-1.16.72,0-.27.3-.7,1.75-2.21,5.3-7,1.96-9.02-.18-.11-.35-.31-.36-.48-.05-.33.39-.21.59-.2.1-.18.22-.3.44-.32.14.01.3.26.33.36l.07.11Z" style="fill: #aeedf0;"/>
  <path d="M110.44,81.87c-.11-.49-.06-.56.17-.74.19,0,.49.12.76.03.45-.16.39-.18.55-.2.15-.02.27.15.44.34-.06.02.62.5.59.38.6.08.48-1.02.89-1.15,2.81.33,4.78-2.93,4.39-5.47-.02-.19-.01-.36.07-.47.56-.6,2,.24,2.34-.73.07-.29.23-.61.36-.88.25-.32.65-.49.8-.69.18-.18.06-.59.16-1,.13-.51.63-.63,1.06-.77,1.04-.52,1.15-2.82.91-3.82-.16-.24-.69.07-.9-.22-.04-.69-.46-1.62.04-2.27.26-.37.68-.47.9-.05.76,1.91,1.16,5.07,1.37,7.15.07.44-.31.9-.35,1.26,0,.23.29.24.48.35.46.3.33,1.06.03,1.53-.16.31-.25.73-.39.83-.18.14-.43-.19-.89-.16-.8-.02-1.97.34-2.74.59-1,.24-.99.48-1.24,1.5-.11.7-.32.8-.75,1.07-.59.57.13,2.1-.38,2.3-.17.1-.42.11-.59.03-.57-.54-1.06.18-1.49.6-.4.55-1.14.47-1.54.96-.15.18-.28.42-.43.56-.37.33-.63-.02-1.18-.13-1.19.05-2.31-.08-3.37-.62l-.09-.12Z" style="fill: #77ccd7;"/>
  <path d="M125.34,71.86c.06.32.19.64.24.96-.22.48-.08,1.95-.96,1.92.33-1.24-.26-1.96-.48-3.12l1.2.24Z" style="fill: #6ac1d0;"/>
  <path d="M123.18,67.06c.06.59.02,1.26-.72,1.2-.06-.59-.02-1.26.72-1.2Z" style="fill: #77ccd7;"/>
  <path d="M123.18,62.74c-.33-.28-.51-.73-.96-.72l.48-.48c.11.27.66.62.48,1.2Z" style="fill: #77ccd7;"/>
  <path d="M55,130.21c.71.49,1.12.99,2.07,1,.75-.29,1.47.13,2.1.51.83.45,1.44,1.27,2.02,1.96.33.27.81,0,1.1.35.23.2.31.72.58,1.02.37.39,1.01.4,1.42.69.46.22.8.63,1.18.89.39.24.98-.02,1.3.32.18.15.36.26.6.24.39-.05.82-.3,1.22-.13.56.13.88.95,1.39,1.37.34.19.82.02,1.28.08,1.25.02,2.55.56,3.64,1.03.45.07.81-.42,1.3-.29.27.03.56.15.86.35.36.25.73.6,1.18.72,1.47-.03,3.04-.29,4.51.03,1.36-.62,2.97-.19,4.41-.1.59.01.84-.97,1.41-.95,1.44.37,3.14.63,4.57-.03.43-.16.81-.47,1.19-.68.79-.24,1.69-.2,2.48-.66,1.44-.55,3.38-2.27,4.43-.47.07.17.08.36.01.52-.5.75-1.39,1.53-2.09,2.12-.34.21-.58,0-.79-.26-.41-.46-.86-.3-1.24.17-.18.16-.5.24-.79.4-.37.19-.73.57-1.07.71-.49.18-1.34-.05-1.92-.09-.65-.1-.49.04-.49.68-.11.94-.92,0-1.72-.12-.31-.09-.64-.15-.86-.11-.36.04-.44.44-.62.69-.33.33-.7.2-.93.06-.71-.43-1.82-.64-2.39.13-.19.24-.27.71-.31.79-.1.21-.1-1.21-.4-1.04-1.1.58-1.71,1.8-3.01,1.19-1.03.06-1.7-.72-2.7-.76-.43-.04-.61-.43-.93-.52-.27-.03-.54.31-.81.61-.4.56-1.49.89-1.17-.16.29-1.22-1.98.4-2.44.29-.28.04-.44-.11-.55-.36-.1-.18-.22-.31-.45-.31-.69.08-1.52-.02-2.2-.28-2.09-.93-4.84-1.01-6.7-2.46-.35-.33-.14-1.01-.5-1.13-.27-.14-.84-.11-1.19-.28-.71-.49-1.39-1.1-2.25-1.57-.96-.58-2.04-1.17-2.77-1.62-.4-.27-.7-.34-.8-.78-.2-1.14-1.6-1.61-2.41-2.29-.87-.61-1.63-1.73.12-1.52l.15.06Z" style="fill: #78c8d4;"/>
  <path d="M56.91,128.43c2.29,2.14,4.81,4.95,7.83,5.96.62.18.73.91,1.29,1.2.74.44,1.92.48,2.57.93.57.37,1.36,1.11,2.06,1.41.56.21,1.2-.08,1.84.08.59.07,1.1.39,1.63.51,1.06,0,2.17.09,3.09.68.18.04.3-.2.49-.44.24-.35.71-.3,1.09-.28.4.12.41.48.21.81-.2.34-.17.52.19.49,2.42-.32,5.02-1.55,7.42-.54.56.03.8-.59,1.43-.61.33-.03.58.16.81.29.83.35,1.97.17,2.74.03,1.02-.36,1.44-2.15,2.52-2.49.14-.04.23,0,.26.12-.09,2.02,2.47.33,3.55.71.49.21-.11.51-.49.78-.78.57-1.82.74-2.71.9-1.04.77-2.84,1.25-4.08,1.28-.82.06-1.72-1.06-2.34-.23-.1.16-.36.79-.8.83-1.12.3-2.91-.96-3.93-.22-.17.2-.15.61-.44.75-.19.02-.38-.33-.58-.49-1.62-1.02-3.99,1.13-5.53-.64-.25-.2-.59-.5-.88-.56-.41-.15-.73.53-1.19.43-1.51-.9-3.68-1.14-5.28-1.21-.43-.25-.74-1.35-1.19-1.45-.36-.14-.88.38-1.34.36-.28-.02-.48-.31-.68-.47-.23-.18-.65-.04-.95-.17-.62-.45-1.32-1.03-2.12-1.22-.69-.24-1.22-.55-1.28-1.3-.11-.35-.24-.45-.6-.2-.16.1-.28.07-.41-.09-.83-1.14-2.24-2.67-3.78-3.09-.47-.27-.23-.82-.38-1.65-.04-.65-.14-1.24-.06-1.24l.05.02Z" style="fill: #7ccbd7;"/>
  <path d="M55.02,130.18c-1.96.74.39.51,0,1.68-1.12-.29-2.31-.57-1.68-1.92.7-.02,1.08-.12,1.68.24Z" style="fill: #6acbd6;"/>
  <path d="M60.54,103.3c-.47.91-1.23,1.19-2.16,1.44.09-1.88.56-.89,1.29-1.02.31-.06.44-.56.87-.42Z" style="fill: #6acbd6;"/>
  <path d="M109.47,105.1c-.08-.48.56-.64.44-1.12-.06-.41-.27-.92-.07-1.32.14-.27.46-.33.73-.53.67-.47,1.42-1.54,1.45-2.23.02-.31-.11-.55-.44-.62-.25-.06-.8.07-.95-.12-.34-.56,1.43-.86,1.52-1.44.08-.25-.24-.35-.62-.32-.59.1-.28-.56-.29-.93.12-.34.2-.13.5-.16.5-.23.4-.31.66-.08.06.08.15.08.24-.03.57-.2.71.72,1.06,1.1,3.41,5.55,6.39,11.54,7.79,17.93-3.53-3.53-8.11-6.66-11.97-9.98l-.05-.15Z" style="fill: #5ebcce;"/>
  <path d="M156.97,72.42c1.2,7.08,6.34,12.55,9.32,18.78,1.19,3.26,2.68,6.39,4.67,9.25.08.17.28.43.03.57-.85.34-1.56,1.88-2.17,3.09-.31.66-.77,1.12-.96,1.85-.19.64-.16,1.28-.65,1.71-.44.35-1.5.46-1.54-.38-.13-1.1-.72-2.23-1.95-2.25-.41-.03-.82-.14-.85-.42-.11-.79,1.08-.77,1.39-1.14.44-2.37,1.29-5,1.4-7.42-.02-.14-.09-.19-.21-.16-.67.37-1.06.07-1.24-.67-.2-.58,0-1.46.15-1.94.01-.2-.25-.29-.56-.43-1.08-.46-.94-1.56-1.25-2.42-.18-.22-1.11-.69-1.46-.87-.83-.22-1.88-.23-1.7-1.24.04-.17.13-.36.24-.54.08-.01.23-.64.09-.58-.82-.7-2.12-1.09-3.22-1.38-.53-.18-.84-.71-1.21-1.06-.52-.48-1.1-.76-1.74-1.06-.29-.12-.6-.35-.9-.36-.29-.02-.55.25-.8.54-.57.59-1.22.9-2.01.77-.3-.05-.59-.06-.87.09-1.84,1.31-4.15,3.21-4.71.43-.1-.72.31-1.51.96-1.81.84-.1.97-.33.43-1-.62-.72-.61-1.37.53-1.4.31-.06.55-.27.43-.46-.17-.21-.47-.41-.35-.72.3-.43,1.34-.36,1.58-.84.22-.41.26-.74.77-.49.37.16.8.92,1.22.7.23-.19-.32-.69-.43-1.03-.11-.35.13-.71.22-1.28.27-1.02.23-2.04.67-2.57.47-.25.26.62.22.87-.05.3-.02.51.13.83.34.67.37.88.78.11.19-.23.48-.41.64-.64.19-.14.26-.89.36-1.07.07-.17.31-.2.58-.29.23-.13.51-.32.71-.5.45-.32.94.2,1.41.2.34.02.61-.03.83.26.21.26.55.68.83.57.3-.08.2-.52-.12-.75-.29-.24-.41-.4-.31-.8.09-.29.18-.69.52-.76l.08.06Z" style="fill: #7edfe5;"/>
  <path d="M159.37,78.25c.11-.47.14-.63.42-.92.16-.11.27.09.52.16.19.06.47-.06.67-.05,1.49-.1,1.11.89,1.25,1.85.87,1.66,1.37,3.45,1.84,5.27.44,1.75.94,3.62,1.58,5.27-2.55-2.9-5.19-6.84-6.48-10.39-.07-.22.2-.36.18-.62,0-.17,0-.4,0-.47v-.09Z" style="fill: #52bbd4;"/>
  <path d="M162.54,69.46c-.59,4.05-.12,8.28.71,12.25,0,.15-.17.58-.22.55-.19-.35-.14-1.07-.21-1.47,0-.32-.25-.5-.48-.72-.45-.44-.84-.94-.61-1.62.18-.9-1.22-.21-1.7-.38-.22-.19-.24-.78-.47-.03-.1.22-.16.3-.13.16.66-2.44.7-6.96,3.09-8.77l.03.04Z" style="fill: #43a7ca;"/>
  <path d="M166.38,91.54c-1.41-.16-.54-1.08-.72-1.68.16.48.51,1.09.72,1.68Z" style="fill: #90dee3;"/>
  <path d="M168.54,96.34c-.94.08-.79-1.26-.96-1.68.54.43.7,1.08.96,1.68Z" style="fill: #90dee3;"/>
  <path d="M170.46,99.7c-.7-.43-1.17-.47-.96-1.44.27.44.64.93.96,1.44Z" style="fill: #90dee3;"/>
  <path d="M93.66,75.46c.54.75-1.2.78-1.68.23.05-.73,1.56-.4,1.68-.23Z" style="fill: #72dbe4;"/>
  <path d="M90.06,71.86c.2.88-1.19.86-1.19.36,0-.32.86-.44,1.19-.36Z" style="fill: #72dbe4;"/>
  <path d="M40.86,97.3c-.65-.44-.32-.49-.48-.96,0-1.16.7.2.48.96Z" style="fill: #6acbd6;"/>
  <path d="M139.21,141.29c-.05.72.94-.02,1,.65-1.67-.38-1.88,1.37-2.88,2.16-.61-1.19.72-1.4.92-1.73.05-.08-.25-1.64.95-1.08Z" style="fill: #3b7eb0;"/>
  <path d="M135.06,141.46c.45,0,.45,1.19,0,1.19s-.45-1.19,0-1.19Z" style="fill: #3b7eb0;"/>
  <path d="M111.37,47.82c-.05-.1-.26-.75-.39-1.13-.11-.31.15-.32.46-.18.27.12.55.4.75.29.21-.12.27-.43.58-.4.35,0,1.03,0,1.37,0,.56-.06,1.13.68,1.61.8.27.08.56-.21.73-.19.67.4,1.53,1.18,1.95,1.8.26.44.07.99.16,1.45.1.44.9.79,1.04,1.2-.07.17-.65.06-.84.09-.13.03-.2,1.22.1.96.27-.16.46-.51.78-.39.2.21.13.68,0,.93-.83.66-1.86,1.27-2.75,1.92-.37.36-.58.88-1.1,1.06-1.24.51-2.78-.23-4.08-.15-.47-.11-.35-.78-.44-1.15-.12-.12-.45,0-.67-.19-.19-.13-.37-.34-.53-.59-.42-.81-1.07-1.88-.29-2.48.45-.54.47-.92-.37-1.23-.23-.09-.4-.23-.37-.38.23-.61,1.87-1.15,2.38-1.45.38-.12.19-.33,0-.51l-.06-.08Z" style="fill: #97bab7;"/>
  <path d="M111.42,47.86c.32-.12,2.56-1.01,1.91,0-.22.34-3.06,1.59-3.65,1.94-.4.76-.79,1.05-1.74.95-.84-1.06,2.72-2.44,3.48-2.88Z" style="fill: #b75d4e;"/>
  <path d="M119.58,52.66c1.62-.21.14,1.3-.66,1.37-.47.8-1.4.66-2.22,1.03-.32-1.35,2.37-1.47,2.88-2.4Z" style="fill: #b0666b;"/>
  <path d="M95.46,122.74c.93-.25,1.09,1.06.47,1.2-.51.12-1.23-.99-.47-1.2Z" style="fill: #9fe7eb;"/>
  <path d="M144.84,86.18c.13-.18,1.4-.1,1.67-.34.32-.22,1.43-1.02,2.17-1.55.32-.19.5-.47.82-.45.46.16.56.26.97.29.27,0,.48-.14.67-.34.84-.99,1.22-1.47,2.56-.7,1.23.38,1.94,1.25,2.78,2.15,1.09.51,3.45.56,4,1.98.12.3,0,.48-.23.61-.32.16-.47.56-.3.87.36.24,1.47.12,1.89.59.37.36,1.02.36,1.28.84.29.61-.08,1.78.73,2.14.55.22,1.83.62.95,1.3-.35.29-.27.62-.17,1.07.07.41-.15,1.22.42.84.11-.09.19-.25.26-.4.21-.54.63-.18.76.19.61,1.74-.82,4.12-.93,6.1-.2.9.14,2.95-1.16,2.88-.24,0-.49.05-.57.21-.06.17-.03.15-.04.58-.01.26-.27.41-.51.51-1.66.64-.91,3.39-1.19,4.85-.13.72-.32-.18-.36-.76,0-.42-.29-.89-.25-1.21.13-.2.29-.44.44-.62.11-.47-.66-.42-1.15-.35-.78.09-1.02.64-1.61.94-.72.21-1.06.04-1.1-.53-.17-.81-1.2-1.33-1.7-1.94-1.37-1.46-3-2.33-4.62-3.62-.31-.39-.19-.81-.46-1.05-.22-.21-.75-.28-.74-.5,0-.21.57-.76.29-.81-.21-.06-.7.32-1,.39-.81.28-.65-.66-.67-1.16-.12-.68-1.34-1.28-1.63-1.65-.18-.22.16-.65.09-1.13-.05-.77-.87-1.42-1.23-1.98-.23-.45.09-1.02-.46-1.18,0,.05-.55-.31-.46-.35-.11-.28-.02-.69-.05-1,.02-.4-.33-.76-.56-1.1-.37-1.32.91-3.05.39-4.55l.02-.08Z" style="fill: #90dee3;"/>
  <path d="M138.1,36.72c.45.09,3.72-.74,3.28.52-.1.2-.13.15-.33.62-.08.41-.18.83-.37,1.22-.13.34.08.82.15,1.2.07.44-.06.83-.49,1.03-.21.09-.45.15-.56.32-.21.35.03.99-.15,1.38-.08.38-.51.7-.67,1.06-.16.41-.02.87-.33,1.27-.23.42-.88.77-1.14,1.13-.18.27-.33.81-.43,1.15-.1.51.5.97.55,1.49.2.55-.3,1.04-.28,1.55.39,1.13,1.35,2.15,1.97,3.17.22.45.18.93.48,1.36,1.9,2.42,3.37,3.42-.13,5.29-6.21,2.69-11.36-13.36-9.12-18.15.56-1.19,2.17-2.97,3.4-3.13.6-.04.92-.26,1.05-.84.38-.62,1.12-1.07,1.88-1.04.09-.02.27-.05.35-.06.28-.11.12-.52.29-.64.13-.09.31.02.47.07l.13.04Z" style="fill: #66c5d4;"/>
  <path d="M135.01,38.45c-.12.59-.79.64-1.27.86-8.02,4.29.85,28.41,9.05,18.57,2.5-1.18,1.74.25.52,1.51-1.49,1.55-3.71,2.86-5.4,3.98-.24.08-.47.12-.68-.08-4.75-4.02-12.36-13.02-10.89-19.44-.56-1.53,13.32-9.2,8.74-5.5l-.08.12Z" style="fill: #438cb7;"/>
  <path d="M151.26,50.55c-3.35,4.75-8.52,10.64-13.6,12.85.58-.51,1.5-1.12,2.14-1.66,1.53-1.23,3.04-2.55,4.4-3.96.35-.37.22-.88.57-1.29,6.32-7.03,12.49-17.32,1-21.12,10.8-.28,10.54,7.67,5.59,15.03l-.1.15Z" style="fill: #aae9ea;"/>
  <path d="M142.72,33.93c.1.03,1.53-.12.93.2-.36.14-1.02-.06-1.01.27.06.19.02.31.46.68.19.07.48-.06.68-.08,1.32-.28.47.49,0,.87-2.04.56-4.26.57-6.3,1.13-.25.07-.28.34-.52.41l-.34.03c-.17-.08-.36-.04-.15-.44l.03-.17c-.06-.03-.39.15-.65.06-.34-.1-.11-.58-.1-.84.06-.24-.46-.2-.23-.29,2.23-.91,4.63-1.84,7.08-1.85h.12Z" style="fill: #0f2b3d;"/>
  <path d="M145.5,33.46c-1.29.04-2.59-.15-3.84.24v-.72c.8-.18,1.59.17,2.3.22.54.04,1.24-.58,1.54.26Z" style="fill: #75dee5;"/>
  <path d="M144.36,35.3c15.98.54,5.2,20.25-2.5,23.72-.66.29-.5-1.08-.85-1.48-.45-.91-1.54-1.33-1.84-2.36-.07-.48-.17-.96-.49-1.44-.71-1.35-2.6-2.54-1.73-3.74.35-.43.07-.97-.15-1.4-.17-.21-.47-.32-.38-.65.11-.42.36-1.25.53-1.63.19-.49.92-.89,1.35-1.32.18-.23.05-.61.11-.95.09-.54.81-.95.81-1.52-.03-.65-.33-1.47.61-1.6.05.04.69-.25.53-.31.04-.27-.21-.72-.29-1.07-.2-.51.17-.84.35-1.28.12-.45-.08-.93.43-1.04.39-.41-.94-.41-1.24-.37-4.2.25,3.79-1.68,4.61-1.54h.16Z" style="fill: #6fd6df;"/>
  <path d="M164.22,104.98c1.75.14,1.63,2.66,1.2,3.84.14-1.66.05-2.68-1.2-3.84Z" style="fill: #90dee3;"/>
  <path d="M115.74,49.78c.53,1.08-2.43,2.6-3.1,3.02-2.56.17,2.88-3.39,3.1-3.02Z" style="fill: #b2605b;"/>
  <path d="M137.34,37.06c1.35-.13-.69.95-.96.72,0-.15-.03-.33,0-.48.29-.11.66-.13.96-.24Z" style="fill: #6fd6df;"/>
  <path d="M134.22,39.22c.2-.17.38-.45.72-.72.65.56-.02,1.16-.72.72Z" style="fill: #6fd6df;"/>
  <path d="M14.16,133.08c-1.36-.57-6.03-.61-6.73-1.83C-.26,104.67,3.8,75.8,18.23,52.32,39.5,17.69,81.78-2.36,122.17,5.52c32.19,6.28,60.52,28.34,73.88,58.29.59,1.32,2.28,4.84,2.28,6.06s-.51,3.71-.77,5.06c-1.47,7.78-5.24,16.05-10.03,22.28-18.84-25.53-54.68-6.06-46.78,23.85,3.88,14.7,18.98,24.22,33.86,19.15,14.5-4.94,20.36-21.09,16.48-35.23-.27-.99-1.52-3.23-1.41-3.96s2.98-4.34,3.64-5.43c1.98-3.27,3.89-6.99,5.28-10.55.4-1.03,1.78-6.3,2.02-6.55.53-.56.55.18.67.45,1.16,2.53,2.14,9.07,2.51,12.03,6.73,52.42-28.82,100.22-79.72,111.51-45.21,10.03-92.77-16.02-111.61-57.53-1.08-2.39-2.77-6.08-3.43-8.53-.07-.28-.21-.75.1-.75,1.76.8,4.28.68,5.97,1.3.72-.42,1.32-.25,1.8.51,4.51,12.45,12.16,21.87,20.81,31.56.47.53.73,1.21.98,1.86l2.64,1.57c17.94,16.2,41.71,26,66,24.95,37.51-1.62,72.88-28.07,84.47-63.34l.72-.35c.67-2.91,1.37-5.85,2.1-8.8l-1.59,4.13c-.59.59-1.19,1.28-1.81,2.09l.15,1c-1.4,2.21-3.09,4.24-4.97,6.06l-1.01.06c-2.64,4.28-8.29,6.2-13.03,7.25-.31-.45-.7-.63-1.18-.47-2.22,1.1-5.55,1.59-7.76.32-1.19-.36-2.2-.38-3.02-.06-3.86-.78-7.17-2.19-10.49-4.29-1.8-1.14-4.48-2.86-5.23-4.7-.56-.5-.99-1.04-1.29-1.62-1.12.46-3.21-2.24-2.59-3.23-1.38-.29-1.81-.83-1.29-1.62-.24-.09-.47-.19-.67-.33-2.04-1.36-3.73-10.02-3.95-12.73-.21-2.54-.1-4.29.74-6.65-.86-.12-.81-.37,0-.65-.43-.92-.35-1.53-.2-2.46.46-2.74,4.64-13.01,6.65-14.45.29-.21.64-.24.98-.22-.32-1.28,2.28-3.79,3.55-3.55-.4-.87.29-1.29.97-.65.27-1.11,1.07-2,2.42-2.66,1.92-1.38,5.01-3.36,7.27-2.83.18-1,.57-.92,1.29-.32,1.92-1.69,5.71-1.67,8.32-1.57,6.41.25,11.55,2.79,16.44,6.4.8-.95,1.45-2.01,1.96-3.18l.75-.03c.24-1.84.93-3.65,2.07-5.45.53-1.82,1.34-3.34,2.45-4.57-.72-.56-.6-.96.32-.97-.22-2.48-1.59-5.75-2.82-8.05-8.65-16.31-18.14-28.09-33.96-38.28C98.68-9.07,27.11,21.89,12.91,85.45l-1.01,1.74c.89.54.31,2.39-.65,2.59.24.54.41,1.11.4,1.71,0,1.76-.44,8.61-.92,9.75-.12.29-.28.56-.45.82.29.58.58,1.18.62,1.83.45,8.32.84,14.65,2.63,22.9.42,1.93,1.06,3.9,1.74,5.7.04,1.09-.35,1.49-1.12.59Z" style="fill: #f2fdfd;"/>
  <path d="M165.01,89.55c29.9-2.5,32.02,46.62,2.5,47.74-28.36,1.08-30.96-45.36-2.5-47.74Z" style="fill: #f2fdfd;"/>
  <path d="M166.31,94.07c23.35-1.46,25.8,36.15,3.45,38.03-23.88,2.01-26.46-36.59-3.45-38.03Z" style="fill: #04070a;"/>
  <path d="M165.97,96.97c19.39-2.67,23.35,27.51,5.91,31.76-20.6,5.01-25.29-29.09-5.91-31.76Z" style="fill: #f2fefe;"/>
</svg>