<?xml version="1.0" encoding="UTF-8"?>
<svg id="Layer_1" data-name="Layer 1" xmlns="http://www.w3.org/2000/svg" viewBox="0 0 176.31 220.32">
  <path d="M154.47,0l.27.76c-2.18,4.64-4.98,8.98-8.41,13.03-5.59,8.64-4.14,16.94,6.95,11.97,4.59-1.36,5.74,2.66,6.25,6.41.31,3.64.45,7.29.39,10.94-.07,6.82,4.85,7.07,10.24,6.35l5.7-1.14.45.4v4.56c-.78,1.72-.58,3.53,0,5.28v18.96c-.24.63-.79,1.12-1.65,1.47-7.54,5.49-7.08,10.12,1.42,13.75l.23.62v20.64l-.23.6c-2.59,2.26-1.17,5.33.23,7.8v18.96c-.7,1.8-.57,3.7,0,5.52v2.88l-.71.49c-2.82.15-5.58.69-8.23,1.54l-.42-.35-.03-.68c2.32-1.92,4.12-4.15,5.38-6.68,2.4-10.39-4.04-21.24-13.04-26.13l-.23-.59-.25-.4c.18-6.66-.59-13.49-2.36-19.86-.55-4.67,4.09-1.43,4.94.91l2.33,5.1c1.37,3.04,4.08,5.21,2.34.05-2-5.93-6.32-10.48-11.17-14.4l-.38-.91-.16-.57c1.71-2,11.55-15.15,10.36-16.76-.7-.33-1.03-.77-.99-1.32.87-1.72,1.5-3.47,1.9-5.26-1.66-.22-2.5-.82-2.53-1.81l-.09-4.58c.1-1.51-.34-2.14-1.33-1.91-1.74.31-3.43.33-5.05.06-.67-1.52-1.34-3.04-2-4.56-2.01,1.04-4.01,2.12-6.01,3.22-2.26.09-4.51.32-6.75.71-.45.05-.71-.1-.79-.59-.12-.29-.61-.72-1.47-1.29-2.65-3.81-5.76-7.32-9.31-10.52l-.26-.67-.34-.64c.89-4.08,1.49-8.29,1.13-12.47-.21-2.38-1.06-3.65-3.29-4.41-5.83-1.98-11.37-3.16-17.61-3.16-.37-.05-2.38-2.99-2.66-3.52l.22-.52c.81.11,1.42-.1,2.16-.36,4.8-1.71,6.42-7.6,9.37-11.27,3.89-4.84,9.03-6.75,13.77-1.54,1.33,1.46,1.11,3.08,3.04,4.16,2.49,1.4,5.13.64,6.76-1.61,1.24-1.71,2.38-4.58,2.58-6.66h9.36Z" style="fill: #75c1da;"/>
  <path d="M176.31,175.44v6.24c-3.4-3.5-8.55-6.04-13.34-6.93-.61-.11-1.32.09-1.85-.03-.18-.04-.15-.43-.33-.47-4.6-1.1-14.75,2.12-17.01,6.7-1.77,3.6,1.59,4.47,2.19,7.44s-2.13,4.78-4.49,5.86c-3.49,1.59-9.06,1.93-11.62,4.46-3.47,3.44.93,7.12.26,10.82-.63,3.49-4.43,5.29-7.69,5.29-4.48,0-6.55-4.96-11.02-4.8-.6.02-1.28.42-1.95.46-2.45.16-5-1.93-7.15-2.93-4.23-1.95-8.63-3.57-13.36-3.56l-.26-.55c.74-2.08,2.14-5.1,3.98-6.34,4-2.5,7.65-5.53,10.9-9.07l.98-.35c.57.01.76.5.58,1.47-.59,3.13-.99,6.24,3.38,4.48,9.08-4.45,18.1-10.45,23.9-18.9,1.85-2.14,4.95-2.34,6.11.52,1.99,1.14,3.65.1,2.26-1.97l-1.51-2.42.32-.44.55-.66c7.37-4.36,14.48-9.21,21.41-14.22l.83-.24.27.73c-2.4,8.81,6.09,15.72,13.34,18.79l.32.64Z" style="fill: #75c1da;"/>
  <path d="M110.31,220.32h-5.76c-2.6-3.68-2.67-7.71,3.01-5.05,1.76.82,4.69,3.08,2.75,5.05Z" style="fill: #75c1d8;"/>
  <path d="M107.43,17.28c.39.5,2.34,3.54,2.57,3.6,5.45.13,11.32.78,16.45,2.7,2.67,1,4.11,1.41,4.68,4.44.71,3.79-.22,10.17-1.14,13.98.08.17.16.34.2.52.28,1.21-1.95,6.18-2.78,7.44,4.01.1,8.47,1.62,12.18,3.26.36.16,1.26.94,1.44,1.27,1.36.51,5.41-.99,7.27-.53,1.2-.34,5.46-3.32,6.31-3.31.9.02,1.66,3.94,2.26,4.69,1.08.54,5.58-.7,6.14.1.81,1.16.34,6.98.62,7.42.18.28,2.01.27,2.38.66.45,1.63-1.98,5.36-1.88,5.98.07.45,1.24.25,1.05,1.55-.54,3.77-8.08,13.43-10.71,16.8l-.35.96c-3.8,4.85-7.81,9.47-12.03,13.88,6.82,1.54,11.78,7.52,11.92,14.53.81-.58,1.72-.77,2.7-.77.74,0,2.28.08,2.32.92,4.3,1.38,9.98,8.18,11.93,12.19s3.06,10.26,1.87,14.45c-.87,3.07-3.86,5.16-5.88,7.44-1.11.46-3.42,2.95-4.56,3.84-6.97,5.43-15.01,10.93-22.8,15.12l-.13.62c-1.66,1-3.41,1.8-5.24,2.4-3.46,1.96-8.05,3.91-11.82,1.86-2.71-.37-5.16-.97-7.6-2.25-2.06,5.06-5.34,9.66-8.99,13.77l-1.01.41c-.94.35-1.79-1.4-2.16-2.16-.21-.08-.21-.16,0-.24l.18-1.02c2-2.42,3.57-5.11,5.09-7.83.67-1.19,2.69-5.75,1.29-6.59-1.94-1.17-4.73-2.26-6.86-3.01l-.19-.51c-.04-.95,2.3-1.31,2.64-.48,3.1-.34,6.04.49,8.81,2.47.88.2,1.47.57,1.75,1.13,1.92.92,3.85,1.84,5.78,2.77l.22.59c.57.31.95.28,1.15-.12.18-.01,2.3.59,2.45.84l.51-.14c1.64,1.2,4.41.11,6.15-.62,10.47-4.39,22.69-12.04,31.02-19.86,3.84-3.61,8.72-8.32,8.69-13.89l.43-.54c-.75-.31-1.99-2.02-1.44-2.88l-.36-.21c-.23-3.74-1.83-7.22-4.91-9.45v-.42c-.94.2-1.65-.54-1.68-1.44-.19.13-.37.15-.51,0-1.53-1.72-4.7-4.74-7-3.01l-3.18,3.17-.58-.16c-.92.33-.89-2.27-.72-3.12-.21-.33-.09-.45.24-.24-4.85-20.45-30.41-13.5-42.72-4.08l-.33.78c-4.6,3.17-8.61,7.32-11.65,11.98-.45.45-.92.35-.74-.28-.6-.48,0-1.87.72-1.92.62-1.85,1.52-3.61,2.7-5.26-1.4,1-2.86,1.8-4.38,2.38-.1.2-.21.4-.35.58s-.27.35-.44.44c-5.22,2.99-10.59,5.86-16.39,7.52-4.99-2.45-10.01-4.97-14.52-8.2l-.7-.82-.54.21c-1.35-1.12-2.76-2.12-4.24-3-.77,3.64-1.15,7.35-.97,11.14-.22.77-.64.75-1.19.28-.26-.22-1.15-6.15-.26-6.72-.09-2-.12-4-.08-6.01l.32-.35c-.76-.32-.76-3.21,0-3.6l-.4-.39,1.26-4.89c-.56-.31-.84-.67-.86-1.08-.98-.06-2.13-.43-2.88-.96-8.86-1.76-17.09-.55-22.71,7.04-3.31,4.47-4.29,9.12-4.65,14.56.75.57.85,2.76-.24,2.88l-1.07-.2c-2.8-2-5.73-3.93-8.7-5.55-2.11-.59-4.31,2.1-5.04,3.86-.33.73-.75,1.2-1.27,1.4.57.49-.61,1.83-1.2,1.44-1.84,3.1-2.95,6.81-2.64,10.56.64.08.57.2,0,.48.68.46.36,2.73-.48,2.88,0,.55-.34.62-.08.2,1.74,5.2,6.08,8.42,10.4,11.32.95.02,1.84.4,2.66,1.16l.66.04c5.21,2.75,10.63,4.89,16.25,6.42l.35.54,3.34.82c5.29,1.92,10.7,3.09,16.22,3.51l.6.46c2.27-.5,3.54-1.58,2.88-4.03l.24-.29c-.33-1.02,1.38-1.74,2.16-1.44-.23-.5.05-.84.42-1.17,2.32-2.07,6.23-3.55,9.27-4.07-2.17-1.89-4.07-3.82-5.79-6.09-.69-.91-3.23-5.21-2.57-6.12.33-.45.53-.37.86.24l3.09,4.24.73.1c1.37,1.55,2.77,3.13,4.55,4.25l.24.69c.64.49,1.32.81,2.03.96,4.62,3.35,9.91,5.72,15.47,6.98l.98.7c-.73.73-2.82.73-3.93.66-.98.14-1.67-.08-2.07-.66-1.49.09-3.02-.15-4.57-.7-.09,2.46-.24,4.97-1.43,7.18.09.19.16.37.21.57.41,1.8-2.93,9.66-3.92,11.76s-4.7,9.23-6.28,10.03c-.18.09-.37.15-.57.2-.32.94-1.55,3.48-2.64,2.88.05.98-2.24.54-2.5.35-.64-.45-1.32-.97-.62-1.55,1.05-1.14,1.94-2.37,2.88-3.6.11-1.36,1.41-3.04,2.64-3.6,4.99-7.78,8.51-17.27,8.61-26.61-4-.85-8.98.81-12.28,3.13-.56.39-2.04,1.47-2.34,1.98-.78,1.36-.16,3.28-2.34,4.14-3.81,1.5-15.51-1.7-19.73-2.93-8.9-2.6-23.67-7.94-31.04-13.36-5.97-4.4-6.06-14.03-3.76-20.48,1.28-3.59,4.01-8.9,7.08-11.16,5.11-3.75,6.82.04,11.4,2.16v-5.4c0-.58.63-2.76.84-3.48,2.31-7.9,9.11-13.73,17.16-15.24-6.27-4.69-12.08-9.99-17.53-15.59-2.24-2.31-4.68-4.73-6.71-7.21-.87-1.06-4.03-5.26-3.8-6.44.08-.41.93-.68.88-1.19-.08-.78-2.88-4.04-2.62-5.54l2.43-1.01c-.04-1.5-1.13-6.56-.14-7.54.48-.48,4.9-.41,5.85-.51.47-.8.89-4.69,1.4-5.03.22-.15.49-.11.74-.05,1.7.39,4.69,2.29,6.23,2.43.46.04.9-.2,1.38-.2,3.2.03,6.33-.09,9.49.49-.69-1.93-1.13-4.12-1.41-6.15-1.13-8.16-1.33-16.01.45-24.09-.25-1.31-.06-2.7.57-4.15.26-1.56.87-2.82,1.83-3.77,3.49-8.45,8.37-13.65,17.85-9.33,1.27.58,4.37,2.86,5.3,2.86,1.49-.01,4.08-.97,5.81-1.18,1.63-.2,5.28.01,6.4-.32.47-.14,1.67-1.66,2.22-2.1,12.45-10.02,22.4.1,30.11,9.83Z" style="fill: #252625;"/>
  <path d="M55.35,203.04c-4.81-1.2-9.75-2-14.56-3.32-13.38-3.67-25.25-9.36-34.77-19.47-2-2.12-5.66-7.01-5.6-9.94.04-1.93,1.01-2.7,2.92-2.25,2.98.7,6.67,7.77,8.64,10.1.35.76-.83,1.29-.09,2.23.68.87,1.45-.15,1.7-.04.49.22,1.34,1.57,1.76,1.97,3.05,2.87,6.77,4.75,11.07,4.4,4.71-.39,12.43-6.4,16.66-3.21,1.74,1.31.67,1.39.19,2.79-.88,2.58-.1,5.44,2.65,6.37.93.32,1.91.16,2.69.43.61.22.8.83,1.15,1.07,3.35,2.28,6.94,3.23,10.86,4.08l-.12.81c-1.16,1.48-3.41,3.56-5.16,3.99Z" style="fill: #75c1da;"/>
  <path d="M37.35,25.44c-6.51,2.14-12.3,5.87-17.63,10.09-1.39,1.1-4.8,4.68-6.25,4.81-1,.08-1.94-.46-2.95-.2-2.05,2.59-5.9,9.59-9.77,8.83-1.72-.34,0-3.69.52-4.53,4.15-6.8,13.62-11.23,20.57-14.71,5.76-2.89,7.76-3.08,12.49-7.79,1.63-1.62,3.15-3.79,5.43-4.41-1.03,2.49-1.82,5.29-2.4,7.92Z" style="fill: #76c1d8;"/>
  <path d="M55.11,203.28c.63-.17,1.22-.46,1.77-.86.51-.12,4.34.26,2.79,1.1l.25.19c-.6.9-1.52,1.74-2.77,2.52l2.71.17.28.49,1.11-.45c3.02.04,6.04-.29,8.98-.96l1.18.21c.29.16.45.51.47,1.03.86.19,1.27.64,1.21,1.37.07-.22.15-.21.24,0,.9,1.07,1.59,2.39,2.08,3.98.63.86.98,1.69,1.04,2.5.8.33,2.12-.67,2.85-1.32,2.84-2.52,4.91-5.41,6.59-8.8l.64-.2c-.4-.58-.2-.86.48-.72,1.32-.13,1.88.19,1.68.96-2.35,4.36-4.79,9.4-9.44,11.8-2.89,1.5-3.32.55-4.82-1.74-1.34-2.03-2.11-4.31-3.18-6.48-7.56,1.83-15.64,2.38-22.88-.94-.27-.35,2.52-1.25,2.8-1.39,1.3-.66,2.72-1.6,3.92-2.44Z" style="fill: #262525;"/>
  <path d="M102.63,185.04c1.09.28,1.29,1.6,2.16,2.16.51.39.39.56-.24.48-2.07,2.26-4.58,4.66-6.96,6.6-1.4,1.14-5.03,3.26-5.93,4.27-.54.6-2.13,4.35-2.71,5.45-.09.16-.16.33-.24.48-.36-1.02-1.87.07-1.68-.96-.59-.37-.18-1.17.13-1.69-3.61,2.05-7.56,3.73-11.65,5.05.03,1.01-.72,1.24-2.26.7l-.14.5c-.59.46.08-.25-.39-.49-.81-.42-1.66-.23-1.29-1.91-.33-.32-.19-.46.24-.24l1.03-.78c7.51-2.06,14.31-5.9,20.31-10.84l1.22-.38c1.32-1.7,2.81-3.26,4.45-4.68,1.18-1.49,2.5-2.73,3.95-3.72Z" style="fill: #121d20;"/>
  <path d="M19.05,16.14c2.64-.37,6.08,1.37,3.16,3.4-1.59,1.11-8.84,2.21-9.96.37-.22-.37.25-1.33.63-1.54l6.17-2.23Z" style="fill: #77c1d7;"/>
  <path d="M61.59,197.52l.12.72c1-.59.4.11.6.48.02.03.38-.18.66-.08.87.3.72.7,1.73.08.5.42.43.69-.24.72.08.19.17.41.1.62-.15.45-3.42,3.08-4.18,3.22.2.66-.32.77-.72.24.12-.8-.33-.39-.76-.41-.64-.04-1.33-.23-1.81-.23-.82,0-1.36.95-1.99.4.09-.06.15-.18.24-.24,2.11-1.53,3.55-3.01,5.28-4.8.23-.24.74-.48.96-.72Z" style="fill: #121f1e;"/>
  <path d="M67.11,190.32c-.8,1.24-1.74,2.43-2.64,3.6-1.91.23-6.28-3.57-2.89-4.44,2-.52,3.6.76,5.53.84Z" style="fill: #77c1d7;"/>
  <path d="M136.47,140.16c-.15.66-.32,1.34-.66,1.93-2.31,4-4.65,8.01-7.04,11.97-.17.28-.4.53-.64.77s-.51.47-.78.69c-1.42,2.51-4.11,4.26-6.59,5.7-5.03,2.91-10.41,4.23-15.97,4.14-.94.02-1.77.07-2.64.48-.15.54-4.01,1.24-4.22,1.16-.06-.02-.11-.08-.16-.14-.07-.09-.12-.19-.17-.3-.84.57-1.84.79-2.99.67-1.73.24-3.29.09-4.69-.43-6.71-1.32-13.21-4.34-18.48-8.64l.22-.25c-6.73-7.25-11.3-17.37-10.73-27.39.13-2.3.35-5.49,1.86-7.16,4.9,3.15,10.05,5.97,15.27,8.57,5.85-1.83,11.85-4.95,17.13-8.09,2.25-1.14,2.77,1.18,1.68,2.88-.16.67-.5,1.24-.72,1.92.14.36.19.73.13,1.1l-2.08,5.67c5.13-9.01,13.65-16.59,23.17-20.48,11.44-4.67,22.12-3.66,21.83,11.38-.09,4.63-.76,9.64-2.73,13.84Z" style="fill: #72e3fd;"/>
  <path d="M69.51,28.8c4.58-9.55,13.68-26.23,26.66-16.4,6.48,4.91,12.13,11.56,16.54,18.32,2,2.84,6.45,10.44,7.2,13.68,1.46,3.46,1.43,7.34,1.33,11.05-.09,3.24-.3,7.09-2.05,9.83-1.68,1.37-3.03,3.05-4.56,4.56v-3.84c-.57-.03-.42-.08-.48.36-.93,7.43-1.97,14.82-4.32,21.96l-.26-.53c.53-7.09.73-13.93-.93-20.74,1.43-4.47,2.21-9.34,1.19-14.01-.03-.03.01-.19-.12-.24-.38-.17-.7.97-.84,1.44-1.93,5.45-4.69,10.42-9.06,14.3l-.06.34c-2,1.71-4,3.12-6.48,4.08-4.45,2.26-9.61,3.26-14.63,3.38-.07.26-.32.41-.73.46-2.99,4.98-8.09,9.52-13.26,12.19-2.37,1.22-5.51,2.76-8.1,2.45-.93-.13-2.39,0-3.12.48-.56.9-3.67.82-4.67.53l-.37-.53c-2.03-.13-3.39-.85-4.08-2.16-1.05-1.11-2.09-2.23-3.12-3.36-.14-.18-.28-.46-.16-.59.81-.94.1-.43-.32.11-.07.41-.52.31-.72,0-.46-.53-1.29-.43-1.92-.24.04.28-.2.52-.72.72-.02.22-.11.21-.24,0-1.31-1.2-2.51-2.48-3.6-3.84-.07.21-.15.21-.24,0-1.11-1.42-1.03-4.13-.36-5.87.35-.9,4.22-6.58,4.81-6.5.12.02.24.07.35.13.36-.33.68-.73.96-1.2-.46-.4.18-1.19.72-.96.42-.43.74-.91.96-1.44.16-1.72,4.18-4.07,5.78-4.18l.7.34c1.62-.31,3.14-.79,4.56-1.44.92-.78,2.69-.53,3.84-.24h2.88c.32-.72,1.39-.23,1.44.48.4.12.52.49.37,1.12.22-.5.5-.71.83-.64.78-3.01,2.23-5.73,4.33-8.16.04-2.99-.13-5.99-.51-9,.01-1.21.07-3.05.74-3.96.15-.32.04-.59-.26-.81.25-1.62.74-3.7,1.2-5.27.41-1.38,1.05-3.46,2.18-4.24.23-.66.48-1.28.72-1.92Z" style="fill: #75e6fd;"/>
  <path d="M55.35,11.76c.57.1.65.41.32.86-1.11,1.22-2.17,2.6-3.14,3.97-1.96,2.8-2.79,4.04.24.8.88-1.07,1.82-1.59,2.82-1.56,1.42-1.34,4.18-2.98,6-2.4,1.37-.34,10.75-1.43,11.28-.96-.6,1.73-1.69,3.25-2.35,4.97-1.3,3.4-2.34,8.82-2.21,12.44.02.46-.25.96.48.83-.47,1.37-1.17,2.65-1.61,4.03-.66,2.05-.86,4.24-1.51,6.29-.29-.04-.28-.15-.19-.38-1.55,4.28-1.55,8.62-1.31,13.02-1.24,2.52-2.25,5.14-3.02,7.86l-.28.14c-.23.66-.77.7-.96,0-.38-.08-.88-.39-1.44-.48-.87.18-1.59.1-2.16-.24-1.98-.02-3.95.04-5.92.18l-.8-.42c-.16-.75,1.84-.41.16-.32-4.01.21-8.06-6.35-8.8-9.76-.14-.18-.27-.36-.38-.56s-.19-.38-.21-.57c-.53-5.62.2-10.88,1.79-16.16-.18-.67.15-1.45,1.01-2.32l-.29-.08-.49.37c-.96.34-1.74-6.32-1.19-7.09-.06-.18-.11-.36-.13-.54-.27-2.51,6.19-12.01,9.56-12.78,1.23-.28,4.01-.14,4.73.84Z" style="fill: #4680b2;"/>
  <path d="M45.03,107.76c4.37,1.26,8.72,5.75,10.34,10.46.12,2.36.19,4.71.22,7.06.07,1.92.17,4.14.6,6,.06.27,0,.78.36.72.08-1.54-.1-3.14,0-4.68.07-1.01.73-6.54,1.08-7.08.2-.31.31-.26.6-.12,1.29.59,3.25,2.4,4.56,3.24-4.25,12.46,1.51,26.81,10.56,35.64l-1.92-.84c-2.16-1.15-3.91-3.23-5.52-5.04-3.33-4.01-5.66-8.15-7.3-13.01.56,2.23,1.36,4.42,2.25,6.53,1.86,3.56,2.31,6.11.68,10.02-.7,1.68-2.01,4.47-3.79,4.86l-.93-.55c-7.29-10.39-16.91-18.98-26.46-27.24-.24-.3-.38-.63-.45-1.01-.26-.27-.34-.51-.24-.72.09-1.4.51-2.16,2.06-2.32.07-1.86.94-3.37,2.99-2.62.64-1.24,1.56-1.88,2.76-1.94.25-.82.56-1.44,1.25-1.98,0-1.06.21-1.43,1.25-1.73-.37-1.01.02-1.89,1.17-2.63.43-1.57.59-3.23.6-4.86,0-1.41-.06-1.73-1-2.73.91-1.5.49-1.98-1.27-1.45l-.21-.54c.35-1.07,4.74-2.09,5.4-1.73.13.07.25.18.36.29Z" style="fill: #4680b2;"/>
  <path d="M159.99,58.32l.49.15c.19,2.37-.2,4.73-1.15,7.08.14.43,3.4.48,3.87.35.38.05.44.4.16,1.06-.26.75-2.06,4.56-1.9,4.78.52.73,2.18-.42.89,2.01-2.16,4.07-11.79,16.7-15.31,19.37-3.18,3.13-8.16,5.11-12.51,6-3.58.73-8.33,1.32-11.49-.72-3.87-4.74-7.08-12.62-7.44-18.72.07-.21.15-.21.24,0l.72.21c4.06,5.32,11.7,4.64,17.46,2.93,8.22-2.44,15.36-8.1,14.53-17.45.08-.32.38-.35.89-.08,1.23-.61,2.45,1.52,2.68,2.68l.2.2c.51-.24.65.02.72.51.09-1.1-.08-2.21-.34-3.28l.34-.59.06-.59c1.52-1.41,2.51-3.23,2.97-5.45l.57-.2c.6-.6,2.69-.82,3.36-.24Z" style="fill: #4682b4;"/>
  <path d="M97.59,166.56c2.89,5.36,1.74,12.45.42,18.32l-.66.64c.48.45.41.61-.24.48-1.92,2.76-4.49,5.15-7.41,6.79-1.02,1.29-1.66,1.67-3.29,1.46.8.55.52,1.19-.35,1.47-.25,2.72-3.76,1.56-2.62-.76-.31-.3-7.76-.69-8.62-.51-1.67.36-2.2,2.11-1.32,3.49,1.2,1.14,2.1,2.18.93,3.78-1.2,1.11-2.11,2.35-2.74,3.72-.07.02-.16.22-.24.24-3.79.95-7.37,1.35-11.28,1.2-.14-.12-.24-.28-.23-.47.02-.22,2.53-3.12,3.11-2.89.04-.21.13-.21.24,0,.71-.44,1.49-.82,2.34-1.16-.11-.69-.17-1.34-.18-1.96-.21-.07-.2-.15,0-.24l.06-1.06c.81-1.09,1.43-2.17,1.86-3.26,4.94-6.19,8.95-14.8,10.56-22.56,1.01-2.54,2.87-6.55,6-6.48,2.21.38,3.91.04,6,0,2.65-.05,5.03.05,7.68-.24Z" style="fill: #4680b2;"/>
  <path d="M154.23,58.32l-.02.17c.87-.26,1.68-.23,2.42.07-.7,2.14-1.49,5.13-3.6,6.24l-.58-.29c0-2.63-4.84-2.15-6.25-1.46.87-.02,1.3.25,1.31.8.14.38-2.32.35-2.4.24-.14-.2,4.82-.02,4.32,1.2-.87-.11-.29.32-.3.68-.18,7.04-2.73,11.09-8.75,14.63-6.63,3.91-19.66,6.8-24.55-.91.02-5.15,5.78-10.31,9.67-13.4s15.1-10.19,20.09-9.17c.05.01-1,.05-.96-.24,2.02-.57,4.16-.48,6.24-.48l-1.44-.84c.2-.43,3.16-2.35,3.47-2.28.27.15.27.37.35.61.16.47.95,4.02.97,4.43Z" style="fill: #7ae9fc;"/>
  <path d="M27.99,89.28c-3.69-3.46-7.32-6.97-10.68-10.8-.39-.44-2.14-2.46-2.27-2.77-.24-.57,1.83-.67,1.66-1.41-.04-.17-1.64-2.29-1.95-2.86-.27-.49-1.24-2.25-1.18-2.66.29-.49,2.34-.66,2.43-1.02.31-1.25-1.21-6.12-.39-7.3.44-.63,5.57.36,6.62.02l.48-5.28c1.28.66,2.8.98,3.84,2.04l-1.44.84c1.93-.05,3.82-.24,5.76-.24,1.9.14,3.17,1.06,4.56,2.27,1.22,1.06,3.15,2.87,3.12,4.45-.93,1.64-1.69,2.94-2.89,4.43-3.24,4.03-6.42,5.13-5.73,11.26.35,3.09,2.81,7.58,4.77,9.99-.05.18-.15.45-.28.45-1.98-.1-4.7-.52-6.44-1.41Z" style="fill: #4680b3;"/>
  <path d="M43.83,149.52c2.8,2.45,4.92,6.48,6.56,9.87,2.7,5.6,2,7.97-4.63,8.55-3.52.3-7.2.22-10.57-.89-4.81-.71-15.44-5.68-19.92-8.16-.32-.34-.18-.46.24-.24.5-1.19,2.04.1,2.75.7.88-.55,1.81-.44,2.58.26.08-1.65.48-1.72,1.97-1.64,1.32-2.17,3.58-3.54,5.79-4.75.07-1.57.5-2.34,1.56-3.47-.92-.71-.46-1.19.37-1.65l.08-1.65c1.06-1.91,1.67-3.01,1.21-5.21.38-.42.71-.86.99-1.32h.79c3.82,2.88,7.24,6.08,10.25,9.6Z" style="fill: #4680b2;"/>
  <path d="M85.35,95.04c-1.15,1.08-1.54,2.65-1.68,4.2-.39,4.33.87,9.47,2.6,13.4-4.25,3.35-10.29,4.84-15.66,3.97-2.63-.43-3.96-1.25-5.38-3.5-1.15-1.82-2.72-6.21-2.2-8.24-.22-3.63,4.64-10.32,7.75-11.73.28-.13.6-.09.89-.03.77.52,3.7,2.48,4.43,2.41.99-.1,2.78-2.93,3.25-3.85.5-.49,1.22-.48,2.16.04,1.17.42,4.23,1.97,3.84,3.32Z" style="fill: #e48979;"/>
  <path d="M99.03,72c.62-.66,1.59.19,2.16.71,2.56,2.35,3.1,7.64,2.16,10.81-.14,2.18-1.02,4.65-1.8,6.72-.93-.89-3.94-2.63-5.12-1.88-.08.05-.76,1.54-.76,1.76v3.84s.61.83-.12.6c-.65-.21-1.41-1.27-2.15-1.21-1.61.14-1.86,5.03-1.33,6.25-.41.41-5.08-3.85-5.67-4.29-.37-.27-.9-.18-1.05-.27-.17-.1-.68-.92-1.09-1.19-1.5-1-3.05-2.01-4.91-2.17,2.23-4.31,2.8-9.16,1.68-13.92,6.23,0,12.84-2.29,18-5.76Z" style="fill: #883532;"/>
  <path d="M146.07,112.56c2.7,4.2,1.48,10.4-.72,14.64l-.15.98c-2.77,3.93-5.51,7.85-8.22,11.78l-.51.2c1.4-5.33,2.57-10.88,2.17-16.45-1.24-17.24-20.43-10.09-29.46-3.76-6.87,4.81-13.45,11.79-16.39,19.73-.54-.27.05-1.64.18-2.1.85-3.05,2.21-5.93,3.18-8.94.16.52.55-.34.63-.45,2.84-4.3,7.73-9.32,12.09-12.03,8.07-5.91,21.1-10.32,30.99-7.41,2.12.63,5.33,1.81,6.21,3.81Z" style="fill: #4582b3;"/>
  <path d="M20.31,130.56c3.66,4.85,8.69,18.76,2.6,23.29-2.64,1.96-7.04,3.48-10.28,2.87-.1.22-.17.23-.31.11-1.91-1.52-4.59-3.69-5.49-6.01-.28-.72-.76-2.22-.2-2.74.66-.05,1.31,0,1.95.15l9.64,3.26c-4.29-2.13-8.54-4.3-12.73-6.49l-.06-.52c.02-.15-.03-.33,0-.48-.69-1.76,1.61-9.61,2.96-10.04l.64.2h.58c4.21,3.09,8.13,6.6,11.75,10.53-3.37-4.17-7.19-7.98-11.24-11.5l-.37-.95c.61-2.08,3.57-5.58,6.1-4.98.95.23,3.7,2.07,4.5,2.75l-.04.55Z" style="fill: #78e8fc;"/>
  <path d="M121.11,99.12c.05.19.08.39.08.58.03,1.97-4.66,7.9-6.8,8.78-2.87,2.6-7.51,5.99-10.72,8.36s-6.69,4.67-10.16,6.52c-.1-.68.16-1.42.77-2.23l2.35-6.17c9.91-9,15.77-23.11,17.52-36.24.35-.02.36.87.41,1.15,1.01,6.5,2.58,13.83,6.55,19.25Z" style="fill: #e8a87a;"/>
  <path d="M109.83,88.32c-.3,2.57-3.41,8.97-4.76,11.44-3.56,6.5-9.08,13.31-15.64,16.88l.19-.83c6.06-6.42,10.04-14.78,13.25-22.93,2.28-7.28,3.85-14.76,4.32-22.44.11-1.78-.25-4.08.02-5.74.2-1.28,1.58-3.63,1.99-5.21.54-2.1.74-4.27.64-6.44,1.43,1.49.83,8.08.41,10.13-.2,1-1.08,3.05-1.12,3.68-.09,1.26,1.09,5.1,1.2,6.94.29,4.62.03,10.07-.49,14.53Z" style="fill: #4681b3;"/>
  <path d="M62.31,94.32c-3.51,2.12-7.45,4.07-11.68,3.51-7.43-.98-14.72-7.87-17.44-14.67-.09-.23-.15-.4.08-.61h.24c1.09,1.35,2.29,2.63,3.6,3.84.08,0,.16,0,.24,0,.28.04.42.17.47.42,1.11-.09,1.67.17,1.69.78-.08.15-.13.28-.09.31.39.34,3.24,1.94,3.93,2.3.04.02.13-.08.24-.21-.32-.34-.18-.46.24-.24.15-.25.37-.02.48.24.8,1.16,2.06,1.63,3.47,1.68l.61.24c2.07.28,3,.23,5.04,0,.89-.44,2.12-.63,3.12-.48,9.54-2.21,15.27-7.4,21.36-14.64.02.38-.1.72-.26,1.05-2.72,5.32-10.06,13.73-15.34,16.47Z" style="fill: #4787b6;"/>
  <path d="M129.51,28.8c.38,5.26-3.27,9.99-6.6,13.74l-.84.18c-2.18-5.06-4.77-10.01-7.44-14.76l-2.88-4.68c4.15.35,8.32.88,12.29,2.23,1.6.54,4.71,1.72,5.47,3.29Z" style="fill: #f7474f;"/>
  <path d="M102.15,165.84c1.48.12,4.08,1.56,5.34,2.23,1.08.57,2.84.84,2.82,2.21-.01.76-1.04,3.79-1.39,4.62-1.51,3.54-3.95,6.89-6.29,9.91l-.49.37c-1.46-.32-2.91.19-4.27.68l-.52-.33c1.25-4.59,2.05-10.47,1.12-15.16-.2-1.03-.57-2.92-1.6-3.32l.72-.48c1.27-.14,3.52-.8,4.56-.72Z" style="fill: #26567e;"/>
  <path d="M151.35,120.48c.65.68.31,1.6.48,2.25.06.22.46.14.48.16.09.15-.31.33-.34.48-.03.2.11.23.1.24.4.26.32.56.04.88-4.58,5.19-8.96,10.88-13.24,16.64l.05.79c-4.93,7.64-9.92,15.49-13,24.11-.17,1.17-.57,2.07-1.21,2.7-.03,1.33.14,2.63.52,3.87l-.28.45-1.17.1-2.43-.82c.1-.27.25-.47.49-.34-.17-1.61.07-3.01.71-4.22l-.34-.77c1.13-4.02,2.91-7.97,5.14-11.47,3.05-5.1,5.88-10.37,9.12-15.36,2.62-4.03,5.98-9.22,8.88-12.96.95-1.86,2.27-3.51,3.94-4.95.59-.93,1.27-1.52,2.06-1.77Z" style="fill: #193a58;"/>
  <path d="M44.55,149.76l.49-.24c5.09,4.58,9.39,10.31,13.01,16.1l-.3.46c.99,2.89,1.16,5.07-2.4,5.76-4.34.23-10.92-1.66-15.17-2.95-1.64-.5-3.45-1.11-4.99-1.85,3.62.53,10.87.98,14.22-.3,1.94-.74,2.13-1.62,1.84-3.64-.42-2.96-5.45-11.02-7.42-13.58.14-.14.38-.06.72.24Z" style="fill: #26557f;"/>
  <path d="M25.83,129.6c1.56.2,3.18,1.79,4.08,3.12,8.83,7.45,21.7,19.18,27.84,28.8l.68.17c.87,1.42,1.6,2.88,2.2,4.39-.6.45-1.57.67-2.16,1.44-.46-.1-.7-.58-.72-1.44-1.58-3.29-10.29-14.46-13.2-16.32-6.18-5.78-12.5-11.34-18.95-16.69l-.25-.59c.44-.72.24-1.97.24-2.88.07-.21.15-.21.24,0Z" style="fill: #193a57;"/>
  <path d="M93.51,123.36c-.77.87-3.93,2.51-5.12,3.16-3.16,1.74-6.47,3.24-9.78,4.66-.26.18-.41-.13-.46-.14l-.37-.57c.25-1.72.45-3.45.61-5.19.01-.56-.16-2.03.22-2.3,6.88-.24,13.03-3.49,18.02-8.02.06,1.19-.37,2.78-.77,3.91-.33.91-1.76,3.83-2.35,4.49Z" style="fill: #fce599;"/>
  <path d="M57.75,161.52c2.18-2.12,3.68-5.12,4.26-8.1.67-3.41-.85-4.56-1.98-7.51-1.21-3.14-2.4-6.44-2.52-9.84l3.86,9.65c.79.85,1.23,2.21,1.85,3.24.84,1.4,1.93,2.7,2.69,4.15-1.29-1.45-2.56-2.96-3.72-4.56-.08.55.25,1.44.44,1.96.56,1.53,2.24,3.97,3.3,5.29,1.6,1.99,3.74,3.63,5.51,5.47-3.6.08-7.03,1.87-9.93,3.88-.31.21-.5.64-.87.92-1.12-.21-1.22-1.82-1.64-2.56-.37-.67-.83-1.35-1.24-2Z" style="fill: #25567f;"/>
  <path d="M34.71,90.24c2.65,3.25,5.44,4.48,8.27,6.97,1.8,1.58,4.11,4.77,6.6,5.4,3.22.82,2.31-.41,2.66-2.75.8.24,3.34-.36,3.82-.14.23.1,2.67,2.34,2.89,2.65.29.42.56.76.48,1.32l-4.08-.48c-.29.29.7,1.59-.12,1.44-1.59-.29-3.52-1.32-5.34-1.62-1.47-.25-4.25-.06-5.33-.43-.69-.23-3.38-2.22-4.17-2.79-4.44-3.18-8.52-6.89-12.4-10.52l6.72.96Z" style="fill: #285881;"/>
  <path d="M122.55,167.76c-.84,2.5-5.26,2.49-7.2,1.2-3.78-.93-5.44-3.7-10.56-3.6l6.72-1.08c6.08-1.31,11.48-4.39,15.84-8.76-1.32,3.92-4.13,8.15-4.8,12.24Z" style="fill: #4680b2;"/>
  <path d="M112.71,30.72c-3.79-5.37-15.31-18.67-21.36-20.52-10.1-3.09-17.95,11.5-21.57,18.76l-.27-.16c2.17-5.85,3.68-10.37,8.04-15.12,6.96-7.6,12.95-8.12,20.77-1.32,5.73,4.99,10.6,11.82,14.4,18.36Z" style="fill: #b3f8f9;"/>
  <path d="M65.43,117.6c2.89,3.45,7.83,5.15,12.24,5.28l.24,5.28.48-2.88c-.05,1.89.23,3.95-.24,5.76-1.89-.45-5.74-2.76-7.6-3.8-2.56-1.43-5.07-2.99-7.52-4.6-.62-1.08.86-4.12,1.73-5l.67-.04Z" style="fill: #e8a87a;"/>
  <path d="M89.43,116.64c-1.87,1.67-6.95,3.37-9.48,3.6-3.5.31-8.35-.12-11.16-2.39,9.75,2.09,18.15-1.4,24.6-8.64,4.28-4.81,6.95-10.47,9.48-16.32-2.3,7.33-7.67,18.6-13.44,23.76Z" style="fill: #9af1f9;"/>
  <path d="M144.63,56.88l.96.24c-1,.13-2.43.31-3.36.6-8.98,2.77-22.06,11.27-25.85,19.99-.27.63-.37,1.32-.55,1.98h-.24c-.27-4.64.48-7.07,3.48-10.56,5.94-6.9,16.66-11.24,25.56-12.24Z" style="fill: #9ef4f9;"/>
  <path d="M151.59,120.24l-.71-.42c-.99-2.26-2.38-4.3-4.12-6.04l-.69-1.21c-10.08-8.48-27.25-2.58-37.2,3.6,2.08-1.95,4.96-3.76,7.52-5.08,9.36-4.84,25.32-7.99,32.52,1.88,1.07,1.47,3.05,5.52,2.68,7.28Z" style="fill: #99f2f9;"/>
  <path d="M147.03,93.12c-2.75,3.33-6.14,6.16-9.29,9.11-1.63.11-3.37-.12-4.99,0-1.26.1-3.36.92-4.51.67-1.4-.31-4.25-3.33-5.21-4.52,3.6,1.13,7.13,1.08,10.81.37,4.07-.78,9.88-3.15,13.19-5.65Z" style="fill: #26557f;"/>
  <path d="M79.35,88.32c-.11,1.29-2.07,5.87-3.29,6.2-1.03.28-4.37-2.51-5.11-3.32-.41-.4-.33-.88.24-1.44,1.81-2.04,4.27-4.74,5.76-6.96.52-.68,1.22.14,1.64.65,1.18,1.48,1.08,3.11.76,4.87Z" style="fill: #fcfcfc;"/>
  <path d="M40.95,50.64c1.03,3.58,2.14,7.13,3.33,10.66,1.53-.63,3.77-1.3,5.31-.58,2.34-.2,4.38-.18,6.72.24.24.31,0,.39-.72.24-1.25.1-2.6.11-3.84.24-1.39.61-2.91,1.09-4.56,1.44-2.57.48-4.74,1.94-6.48,3.84-.16.51-.48.99-.96,1.44-.5.48-.53.75-.72.96-.09.63-.34,1.14-.96.72-.23-.14-.23-.38,0-.72,1.1-1.44,4.26-5.93,4.31-7.58.02-.67-1.51-4.47-1.79-5.61-1.07-4.25-1.67-9.08-1.08-13.44-.37-2.63.77-6.15,1.9-8.6l.74-.52c.43.2.11.79.03,1.11-1.42,5.54-1.85,10.5-1.23,16.17Z" style="fill: #9df2f9;"/>
  <path d="M119.91,44.4c1.37,2.54,2.52,5.43,3.47,8.17.42,1.2,2.67,7.93,2.25,8.59-.12.19-3.28,1.83-3.88,2.24-.8.54-1.83,1.27-2.57,1.87.35-1.65.92-3.28,1.17-4.95.66-4.56.59-11.44-.45-15.93Z" style="fill: #4787b5;"/>
  <path d="M171.75,138c.93,7.19-8.91,14.93-13.94,18.82-6.83,5.27-15.58,11.16-23.41,14.75-2.1.96-7.7,3.77-9.45,1.47-.78-1.03-.47-3.11-.24-4.32h.34c.78,3.65,1.85,3.61,5.21,2.62,7.1-2.11,15.43-7.03,21.51-11.25s10.82-8.53,15.66-13.68l-.06-.75c1.74-2.1,2.76-4.64,3.42-7.17-.29-.65.53-1,.96-.48Z" style="fill: #a2eff7;"/>
  <path d="M131.13,52.88c.06.03.05.35.23.39,2.4.62,4.66.85,6.96,2.11.21.12.65.19.31.53-.12.11-2.64.62-3.16.8-2.72.97-5.28,2.12-7.88,3.28l-2.16-8.16c.52-.02.8.39,1.33.47.97.15,3.54.2,4.37.57Z" style="fill: #aa263f;"/>
  <path d="M52.71,108.24c1.02.25,2.06.49,3.12.72.34.15,1.34.55,1.41.86l-1.41,5.5v3.6c0,2.04-.32,4.23-.24,6.36-.58-1.65-.03-3.61-.3-5.34-.75-4.8-5.28-9.61-9.56-11.57-.35-.16-.85.05-.7-.6.15-.23.34-.45.61-.46,2.29-.08,4.97.15,7.07.94Z" style="fill: #25567f;"/>
  <path d="M129.51,28.8c.33.69.33,1.9.35,2.76.13,5.26-1.91,11.13-4.36,15.66-.21.39-.82.35-.55,1.26h-.71c-.58-1.97-1.37-3.89-2.17-5.76,3.64-3.69,6.9-8.66,7.44-13.92Z" style="fill: #a9273e;"/>
  <path d="M60.15,12v.24c-1.6.44-3.37.44-4.8-.48-1.11-.12-2.54-.5-3.71-.49-2.09.03-3.52,1.64-4.82,3.12-2.51,2.87-4.28,6.3-5.64,9.84-.39,2.64-1.03,5.24-1.91,7.77-.18.26-.48.02-.49-.33.66-6.36,3.4-17.8,9.28-21.32,3.48-2.08,8.87-.43,12.08,1.64Z" style="fill: #aff9fb;"/>
  <path d="M63.03,122.64c-.72-.47-4.9-3.09-5.01-3.52-.04-1.03,2.15-7.5,2.73-7.51.48.91,2.22,1.63,2.69,2.22.62.78,1.02,2.61,1.99,3.77-1.26,1.33-1.89,3.31-2.4,5.04Z" style="fill: #af7952;"/>
  <path d="M93.03,102.24c1.84,1.12.37,3.28-1.24,3.93-1.99.8-5.73-.94-6.44-2.97,0-.06-.22-.28-.25-.58-.06-.72-.26-5.14,0-5.42.36-.08.56.09.85.23,1.86.88,5,3.54,7.06,4.82Z" style="fill: #fcfcfc;"/>
  <path d="M99.03,72c.08-.05.45-1.05,1.35-1.06l5.37-4.94c-.06,1.07.08,2.18.01,3.25-.31,4.54-1.13,8.77-1.92,13.2-.07.42.11.91-.49,1.07.24-3.67-.09-10.26-4.32-11.52Z" style="fill: #6f2b28;"/>
  <path d="M25.35,132.48c3.96,2.96,8.32,6.85,12,10.2,2.48,2.26,4.91,4.63,7.2,7.08-.14-.09-.54-.08-.72-.24-2.55-3.31-7.71-6.91-11.04-9.6l-.79-.22c-3.52-2.69-7.08-5.33-10.7-7.91l-1-1.22c-1.12-.72-3.22-2.3-4.33-2.75-2.5-1.03-4.77,2.93-6.23,4.43-.43.48-.47.4-.48-.24,1.22-2.05,1.33-3.48,3.66-5.1s3.14-.44,5.29.82c2.38,1.4,4.92,3.11,7.13,4.75Z" style="fill: #9ff2f9;"/>
  <path d="M93.03,102.24c.37.23,2.14.9,2.14,1.32-.99,1.31-1.89,2.73-2.97,3.96-.65.75-3.64,3.78-4.33,4.07-.4.17-.32-.16-.41-.3-1.45-2.44-1.81-5.36-2.11-8.09,1.65,1.37,3.54,2.98,5.86,2.62,1.54-.23,2.92-2.27,1.82-3.58Z" style="fill: #8f8db8;"/>
  <path d="M151.59,120.24c-.05.25-.2.19-.24.24-1.5,2.23-4.31,4.54-6,6.72.96-3.64,2.13-7.02,1.65-10.89l-.93-3.75c2.64,2.22,4.15,4.52,5.52,7.68Z" style="fill: #25567e;"/>
  <path d="M71.67,93.12c-4.13,2.73-7.4,6.89-8.64,11.76-.5-2.54-.29-5.55.5-8.02.73-2.3,4.14-3.49,5.73-5.32.9-.19,1.7,1.1,2.42,1.58Z" style="fill: #883431;"/>
  <path d="M52.95,108c.31.21.23.29-.24.24-2.3-.5-5.33-.66-7.68-.48-1.96.15-3.94.75-5.76,1.44.2.59.04.67-.48.24-.12.43-.79.64-1.2.48l-.48.79c-4.85,2.55-8.55,6.89-9.91,12.23l-.65.66v5.25c-.06.51-.12.84-.72.75h-.24c.06-15.93,11.36-26.26,27.36-21.6Z" style="fill: #a5f2f7;"/>
  <path d="M114.39,108.48c2.88-2.61,5.11-5.82,6.72-9.36.67.92,2.23,2.46,3.12,3.24.52.46,1.17.72,1.68,1.2l-11.52,4.92Z" style="fill: #af7953;"/>
  <path d="M163.35,123.6l.41.66c.03.31-2.91,4.71-3.77,4.62l-.45-.31c.86-1.56,1.72-3.12,2.58-4.68-.79-.88-3.86-3.22-4.93-3.03-.31.05-.77.45-1,.7-3.24,3.42-6.47,6.9-9.39,10.63-.43.42-.91.76-1.45,1.02-1.69,2.84-3.57,5.55-5.62,8.12-.4.45-.76.41-.86-.2,2.54-3.83,5.24-7.63,8.06-11.26,1.19-1.53,4.55-4.9,5.14-6.26,3.27-2.44,3.36-5.59,7.9-2.98,1.61.93,2.15,1.83,3.38,2.98Z" style="fill: #9af0f9;"/>
  <path d="M9.75,132.24c4.31,3.63,9.44,8.73,12.82,13.22.65.86,1.56,1.83,1.82,2.86-4.21-4.05-8.25-8.34-12.71-12.12-.85-.72-1.73-1.41-2.64-2.04-.72.29-1.13.07-.96-.72.22-.27,1.14-1.34,1.2-1.44.14.09.36.14.48.24Z" style="fill: #153b55;"/>
  <path d="M163.35,123.6c.54.51,1.14.99,1.68,1.44.4.58.21.89-.48.72l-.15.86c-4.21,4.95-7.55,10.75-10.68,16.34-.59,1.09-1.78.81-1.39-.52,1.87-4.4,4.22-8.6,6.64-12.71.1-.18.27-.32.44-.46s.37-.27.58-.38c1.07-1.29,1.98-2.78,2.9-4.18.23-.36.58-.55.46-1.1Z" style="fill: #163a56;"/>
  <path d="M171.75,138l-.96.48c.15.26.04.53-.21.69l-13.69,8.44c-.82.3-1.24-.48-.7-1.11,4.48-3.42,8.82-6.97,13.03-10.66h.61c-.07-.56-.1-1.1.48-.73.19,1.07,1.29,1.75,1.44,2.88Z" style="fill: #173b57;"/>
  <path d="M5.43,144.48l16.32,8.28c.09.63-.25.21-.59.11-4.81-1.41-9.75-3.2-14.53-4.79-.32.7-2.01.04-1.68-.72.09-.12.4-2.41.48-2.88Z" style="fill: #163b58;"/>
  <path d="M38.07,69.84c.64.08.61.3,0,.48-.2.06-2.42,2.71-2.75,3.14-2.54,3.25-3.39,4.93-2.05,9.1,2.39,7.43,12.07,16.01,20.25,15.09,2.22-.25,6.71-2.26,8.79-3.33-4.37,3.25-9.14,4.85-14.53,3.13-7.11-2.27-17.09-11.88-15.36-19.94.75-3.52,3.58-5.69,5.65-8.39v.72Z" style="fill: #aeecf5;"/>
  <path d="M30.87,57.84c2.04,0,4.59.04,6.6.24,2.48.24,3.05,2.55,2.25,4.65-.31.81-.86,1.29-1.17,1.83-1.86-2.92-4.42-5.46-7.68-6.72Z" style="fill: #27577f;"/>
  <path d="M41.19,24.24c.37,1.58.27,3.13.64,4.76.11.5.32,2.06,1.04,1.96.05.17.08.34.02.45-.37.74-3.45,6.18-3.78,6.34-.18.09-.41-.12-.56-.32-.18-1.9.05-3.94.24-5.76l.25.14c.4-2.61,1.21-5.12,2.15-7.58Z" style="fill: #27567c;"/>
  <path d="M102.63,184.8s.04.19,0,.24c-2.53,3.22-5.41,5.93-8.4,8.4-.08-.31-.15-.64-.05-.95.61-2.01,1.92-4.64,2.93-6.49.03-.11.18-.27.24-.48,1.74-.61,3.42-1.3,5.28-.72Z" style="fill: #12446f;"/>
  <path d="M60.84,104.66c.05,2.58,1.26,4.86,2.18,7.18-1.81-1.33-3.68-3.12-5-4.96-2.97-4.14-.58-2.75,2.81-2.21Z" style="fill: #8e8cb8;"/>
  <path d="M97.35,97.44c.74-.17.9.31.48,1.44-.17.31-.25.79-.48,1.2-1.5,1.51-4.03-.97-4.32-2.64-.05-2.87-.09-3.41,2.48-1.64.52.36,1.51,1.13,1.84,1.64Z" style="fill: #fafafa;"/>
  <path d="M79.35,88.32c.15-1.78-.47-4.87-2.4-5.52.92-1.37,1.68-3.07,2.4-4.56.68-.49.92,1.87.95,2.28.21,2.5-.27,5.39-.96,7.8Z" style="fill: #8e8cb8;"/>
  <path d="M160.71,57.6c.2.2.47,2.9.49,3.47.03,1.27-.05,2.48-.24,3.72l2.77.72c.26.34-.27,1.12-.38,1.45,0-.95.33-.58-.42-.54s-3.89.15-4.11-.8c-.05-.21,1.04-3.38,1.15-4.07.13-.83.26-2.39.02-3.22-.1-.42.14-.66.72-.72Z" style="fill: #275984;"/>
  <path d="M4.95,147.36c.45.35,1.13.54,1.68.72.32.94.37,2.01.79,2.93.5,1.11,4.18,5.3,5.21,5.71h.24c.63.32,1.19.72,1.68,1.2.51-.53,1.07.05.96.72l-.24.24c-4.76-2.64-9.33-5.84-10.8-11.41.05-.22.45-.07.48-.11Z" style="fill: #9ef1f7;"/>
  <path d="M83.91,166.8c-3,.93-4.26,4.16-6,6.48.52-2.51.96-5.12.96-7.68.25-.25,4.32,1.08,5.04,1.2Z" style="fill: #27567d;"/>
  <path d="M100.23,94.08c-.68,1.7-1.54,3.2-2.4,4.8.01-.53-.2-1.02-.48-1.44l-.73-4.67c.16-.99-.4-2.8.49-3.49l.56.31c.36,1.8,1.25,3.25,2.56,4.49Z" style="fill: #8e8cb9;"/>
  <path d="M122.55,167.76c-.23,1.4-.15,3.35-.24,4.8-.06.07-.78-.18-.96-.24-1.51-.5-3.5-1.61-4.88-2.44-.4-.24-.77-.61-1.12-.92,2.19.54,5.63.67,7.2-1.2Z" style="fill: #26557f;"/>
  <path d="M42.15,33.36c-1.18,2.76-2.23,6.14-2.64,9.12-.91-.57-.37-2.2-.49-3.23-.06-.55-.39-.99-.47-1.81.54.1.78-.87,1-1.28,1.01-1.88,1.91-3.55,3.32-5.2.27-.32.48-.7.84-.96.18-.04.16.25.12.35-.35.84-1.24,1.99-1.68,3Z" style="fill: #193b57;"/>
  <path d="M100.23,94.08c-.44.37-.55.03-.84-.23-1.32-1.17-1.91-2.89-2.28-4.57.84-.66,3.63,1.17,3.97,1.93.26.6-.57,2.19-.85,2.87Z" style="fill: #f8f9f8;"/>
  <path d="M93.27,72.96c-.3.54-.99.76-1.52,1-4.25,1.94-9.17,2.85-13.84,2.84.2-.23.2-.79.64-.92,2.81.06,5.6-.39,8.33-1.03,1.97-.46,4.52-1.17,6.39-1.89Z" style="fill: #4582a8;"/>
  <path d="M8.07,133.44c.3.26.64.5.96.72-.73.24-1.09,1.15-1.41,1.83-1.33,2.79-1.68,5.07-2.19,8.01-1.21-2.57.41-8.17,2.06-10.31.17-.22.55-.21.58-.25Z" style="fill: #9ff0f5;"/>
  <path d="M97.35,100.08c-.61,1.07-1.3,2.12-2.04,3.12-2.01-1.46-2.24-3.41-2.28-5.76,1.22,1.32,2.22,3.05,4.32,2.64Z" style="fill: #8f8db8;"/>
  <path d="M99.75,68.88c-.57-.2.06-.65.24-.84,3.85-4.15,6.27-7.59,8.29-12.83.14-.36.29-.71.59-.96-1.94,6.43-3.92,10.19-9.12,14.64Z" style="fill: #b0f5f7;"/>
  <path d="M95.19,123.84c.36-.22.71-.67,1.12-.92.48-.3,4.44-2.86,4.64-2.68l-4.08,6.48c.37-1.54.36-3.09-1.68-2.88Z" style="fill: #4a83ad;"/>
  <path d="M60.63,97.68l-.36,4.8c-.46-.46-3.75-3.03-3.24-3.6l3.6-1.2Z" style="fill: #8e8db8;"/>
  <path d="M170.31,135.12c-.3.15-.33.51-.48.72-.25,0-.47-.08-.64-.26.08-3.52-1.46-7.21-4.39-9.24l-.25-.58c.18-.19.31-.51.48-.72,3.95,3.3,4.39,5.11,5.28,10.08Z" style="fill: #a0eaf2;"/>
  <path d="M60.15,12c.26.16.36.55.59.73.39.3,1.02.06.85.71-1.65.4-4.53,1.53-6,2.4-.17-.1-.37-.29-.29-.41,1.04-1.64,2.84-3.09,4.85-3.19v-.24Z" style="fill: #183b59;"/>
  <path d="M58.47,167.52c.87,3.11-.16,4.16-3.12,4.32,1.69-1.05,2.74-1.15,2.65-3.48-.03-.79-.58-1.61-.25-2.28.18.37.64,1.14.72,1.44Z" style="fill: #73a0b6;"/>
  <path d="M160.71,57.6c.14.48-.33.61-.72.72-1.02.28-2.31.22-3.36.24-.88.01-1.76,0-2.64,0-.06-.18.24-.21.24-.24,1.78-.16,3.93-.89,5.66-.97.41-.02.51-.06.82.25Z" style="fill: #b4eef1;"/>
  <path d="M65.43,200.16c-.44.56-1.25-.11-.96-.72.08-.1.08-.55.24-.72.91-.55,1.95-2.01,2.64-2.88.48.14,0,.72-.12.96-.56,1.16-1.15,2.26-1.8,3.36Z" style="fill: #7cddef;"/>
  <path d="M48.87,99.36c2.2.5,3-.32,2.64,2.64-.47.16-.68-.13-.96-.24-.1-.27.02-.29.37-.07-.81-.39-2.91-1.47-2.05-2.33Z" style="fill: #8d8db0;"/>
  <path d="M48.87,99.36c.21.96,1.22,1.49,1.87,2.09.68.64.1.2-.19.31-1.43-.55-2.7-1.76-3.84-2.76-.05-.64.1-.24.41-.17.58.14,1.2.41,1.75.53Z" style="fill: #e9e8ed;"/>
  <path d="M55.83,108.96c-.8.5-2.24-.53-3.12-.72l.24-.24c.87.25,2.08.61,2.88.96Z" style="fill: #94b6c9;"/>
  <path d="M70.95,91.2c-.16-.18-.57-.32-.72-.6,0-.19.8-.66.96-.84l-.24,1.44Z" style="fill: #9294aa;"/>
  <path d="M86.55,204.24c-1.65,3.35-4.87,8.55-8.44,10.35-.59.3-.59,1.06-1.64-.03-.04-1-.35-2.01-.92-3.03l-1.99-3.6-.21.15s-.2-.04-.24,0c-.27-1.25.87-.52,1.76-.72.04-.01.24-.28.64-.48,2.65-.96,5.28-1.94,7.9-2.95.83-.25,2.97-.77,3.14.31Z" style="fill: #a9273e;"/>
  <path d="M63.03,203.52l-2.88,3.36c-.44-.02-4.11-.02-4.08-.6,1.09-.74,2.14-1.55,3.24-2.29.19-.13.29-.44.36-.47.03-.02.67-.23.72-.24.68-.58,2.21-.55,2.64.24Z" style="fill: #73e2f7;"/>
  <path d="M75.51,206.88c2.42-1.17,4.97-2.16,7.4-3.33.92-.44,4.12-2.32,4.71-2.44.9-.17-.12.98-.22,1.22-.16.38-.16.72-.38,1.18-.11.25-.36.48-.48.72-.94-.39-2.65.07-3.65.31-2.54.62-4.77,2.06-7.39,2.33Z" style="fill: #512035;"/>
  <path d="M73.35,208.08c.05-.14-.12-.49.12-.48,1.46,1.48,2.94,4.15,3.43,6.18.11.45.27.91-.43.78-1.48-1.54-2.36-4.5-3.12-6.48Z" style="fill: #eb4a54;"/>
  <path d="M94.23,193.44c-7.1,5.88-13.57,9.62-22.56,12-.72-1.42,1.54-2.84,2.26-3.86,1.7-2.43-.95-2.35-1.29-4.43-.19-1.16.19-2.22,1.2-2.85,1.87-1.17,7.75.42,10.15.15l.4.67c-1.37.17-.66,1.99.55,1.65.91-.25.52-1.45.68-1.63.1-.11.62.04.69-.02.48-.4-.39-.5-.41-.53-.73-1.28,1.8-.69,2.1-.8.26-.09,1.02-1.12,1.44-1.42.84-.6,1.74-.97,2.63-1.69,1.79-1.44,3.16-3.35,5.04-4.68-.77,2.68-1.58,4.97-2.88,7.44Z" style="fill: #22689e;"/>
  <path d="M64.47,199.44l.96.72c-.04.06.04.18,0,.24.3,1.04-1.22,2.62-2.16,3.12-.08,0-.16,0-.24,0-.74.01-2.14-.31-2.64-.24,1.02-1.39,3.05-2.53,4.08-3.84Z" style="fill: #3db6df;"/>
  <path d="M64.23,64.32c.64.57-1.7.87-1.69,1.56,0,.57,2.28,2.2,2.76,2.78.42.5.9,2.11.85,2.73-.03.45-.42.79-.47,1.23-.11,1.03.58,2.38.14,3.71-.23.7-.93.73-1.21,1.19-.2.35-.77,2.52-.87,2.6-.21.18-1.06-.13-1.38.06l-1.82,3.1c-.5.44-2.25.67-2.43.93-.23.33-.03,1.14-.1,1.22-.05.05-1.09-.05-1.51.06-.87.23-2.49,1.55-3.16,1.64-.72.09-6.54.1-6.94-.04-.36-.13-.62-2.11-1.35-1.41-.13.13,1.03,1.68-.36,1.68-.72,0-1.14-.85-1.43-1.34-.06-.1-.37-.12-.38-.24-.07-.62.7-.79.25-1.17-.61-.53-1.57-.21-1.94-.47-.32-.23-.13-1.22-.6-1.31-.63-.12-2.11.95-1.3-1.22l-1.44.24c-.19-.62.61-.61.7-.75.04-.07-.42-1.05-.38-1.5.1-1.39,0-1.11-.06-2.18-.01-.23.84-1.97-.13-1.81-.45.07-1.5,1.37-1.15.06.46-1.71,1.57-.52,2-1.11.56-.78-.08-2.39.45-3.11.19-.26,1.02-.28,1.45-.53,1.51-.88,1.23-2.81,1.75-3.17.08-.05,1.74-.63,1.83-.65.38-.07.93.25,1.2.09.16-.1.58-1.53.52-1.88l5.57-.8c.59-.01,1.01-.9,1.5-.9.45,0,.88.74,1.45.72.41-.01.69-.49,1.07-.6,2.18-.68,1.72.35,2.58.58.48.13.91-.22,1.38-.2.6.03,1.33.7,2.18.72.56.02,2.36-.63,2.51-.49Z" style="fill: #7debfd;"/>
  <path d="M85.59,29.28c4.6-3.92,9.95,3.76,12.1,7.36.41.25.93.2,1.58-.16,3.96-1.5,9.63-2.29,9.36,3.71-.43,9.73-18.11,27.7-27.72,28.68-2.3.24-1.97.13-2.52-1.68-.38-2.2-.19-4.5.54-6.6,1.34-3.14,2-5.42,1.96-8.82-.56-6.84-.89-13.88,2.78-20.09.59-.83,1.25-1.63,1.92-2.4Z" style="fill: #252624;"/>
  <path d="M78.39,67.2c-1.43-4.69.67-9.87.72-14.76.07-6.75.56-15.12,4.56-20.76-1.64,3.65-2.45,7.63-2.65,11.63-.17,3.44.69,8.8.24,11.76-.3,1.97-1.82,4.97-2.32,7.28-.34,1.61-.69,3.19-.55,4.85Z" style="fill: #488eb8;"/>
  <path d="M65.67,41.04c.07,1.5-.27,2.88-.26,4.2.03,2.63.98,6.35.5,8.88-.1.52-1.26,1.61-1.63,2.21-1.15,1.85-2.19,3.88-3.16,5.84-.52.64-1-.09-.24-.48.16-1.17.58-2.83.95-3.97.41-1.25,1.67-3.14,1.87-4.13.23-1.15-.25-3.53-.2-5,.11-2.75.65-5.83,1.93-8.27.4-.06.23.45.24.72Z" style="fill: #193b58;"/>
  <path d="M85.59,29.28s-.08-.27.16-.49c1.59-1.5,3.74-.81,5.42.08,2.21,1.17,4.34,3.81,5.69,5.88.87,1.33.34,2.07,2.41,1.73-.4.15-.97.94-1.66.7-1.3-2.88-6.05-8.93-9.48-8.84-.84.02-1.8.58-2.54.94Z" style="fill: #a5ecf1;"/>
  <path d="M63.03,86.4c.05.24.34.67.01.85-2.06.2-3.49.59-5.17,1.8-.69.5-.73,1.08-1.57,1.19-.4-.41.04-1.26.57-1.13.16-.48.31-.91.87-1.03.73-1.48,4.13-3.36,5.28-1.68Z" style="fill: #1f2a2a;"/>
  <path d="M39.99,85.92c.21.05.56-.06.72,0,.6-.26.75-.1.48.48,1.94,1.03,1.89,1.84,3.12,3.36v.24c-.13-.09-.39-.15-.48-.24-1.76-2.26-3.76-3.24-6.01-2.95l-.47-.41c.05-.24.48-.67.72-.72.6-.19,1.52-.3,1.92.24Z" style="fill: #aee9ed;"/>
  <path d="M63.03,86.4c-1.89-.75-3.99.28-5.28,1.68h-.24c.09-.13.14-.38.24-.48-.44-.44.21-.75.72-.72.92-.81,3.15-2.11,4.34-1.33.31.2.17.6.22.85Z" style="fill: #b6f1f4;"/>
  <path d="M51.75,61.44c0,.47-.29.73-.71.85-1.1.34-2.75.38-3.85.59.15-.47.6-.46,1-.56,1.07-.27,2.54-.77,3.56-.88Z" style="fill: #7debfd;"/>
  <path d="M33.51,82.56c.1-.29.16-.21.36-.02l3.24,3.86c-1.01-.13-3.09-2.85-3.6-3.84Z" style="fill: #7debfd;"/>
  <path d="M57.75,88.08c-.44.48-.94,1.61-1.44,2.16-.16.02-.35.36-.61,0-.32-2.23,1.01-1.11,1.09-1.2.09-.1-.2-.91.72-.96h.24Z" style="fill: #7debfd;"/>
  <path d="M44.31,89.76c.17.21.55.77.71.84.22.1.66-.19.73-.12.07.08-.15.56.16.73.62.35,1.97-.04,2.49.71-1.34-.18-3.93-.25-4.08-1.92v-.24Z" style="fill: #7debfd;"/>
  <path d="M60.87,61.68c-.02.16.01.5.24.48-.34.69-.04,1.14-1.44,1.2l.24-1.68c.27.06.66-.04.96,0Z" style="fill: #7debfd;"/>
  <path d="M40.71,85.92c-.48-1.47,1.47-1.17,1.43-.36-.01.2-.88.47-.95.84-.27-.14-.45-.47-.48-.48Z" style="fill: #7debfd;"/>
  <path d="M56.55,91.44c-1.03.24-2.07.36-3.12.48-.52-.39.42-.46.6-.48.65-.09,2.24-.63,2.52,0Z" style="fill: #7debfd;"/>
  <path d="M58.47,61.2c-.64.4-2.19.41-2.88,0,.49-.04.68-.24.72-.24.74-.07,1.44.12,2.16.24Z" style="fill: #7debfd;"/>
  <path d="M39.03,69.12c.26,1.87-.46,1.04-.96,1.2v-.48c.26-.23.75-.49.96-.72Z" style="fill: #7debfd;"/>
  <path d="M39.75,68.16c-.01-.73.54-.98.96-1.44.53.84-.75,1.23-.96,1.44Z" style="fill: #7debfd;"/>
  <path d="M58.47,86.88c-.17.15-.54.53-.72.72-1.12-.1-.37-1.26.72-.72Z" style="fill: #7debfd;"/>
  <path d="M38.07,85.68c.46-.39,2.2-.52,1.92.24-.59-.13-1.32-.37-1.92-.24Z" style="fill: #7debfd;"/>
  <path d="M40.95,50.64l.24-.6c1.16,4.37,4.51,9.7,9.36,10.2l-.96.48c-1.92.16-3.64.47-5.5.94-1.61-3.52-2.72-7.16-3.14-11.02Z" style="fill: #265a85;"/>
  <path d="M60.15,12.24c-1.23.55-2.38,1.33-3.47,2.17l-1.09,1.43c-2.44,1.44-4.26,3.79-6.24,5.76.99-3.37,3.53-6.23,5.63-9.02.17-.22.57-.19.37-.82,1.6.17,3.21.29,4.8.48Z" style="fill: #25557f;"/>
  <path d="M39.27,109.2c.98.37,2.25-.98,2.41.86.05.55-.55.9-.49,1.17.05.23.75.23.91,1.01.32,1.58,0,5.04-.47,6.63-.16.54-1.1.96-1.28,1.38-.23.54.29,1.02.03,1.43-.21.34-.97.37-1.06.52-.13.21.02.75-.16,1.15-.11.25-.59.53-.8.88-.23.37-.28,1.06-.61,1.31-.49.37-1.16.08-1.59.33-.37.21-.42,1.29-1.27,1.63-.59.24-1.17-.81-2.22.4-.64.74-.11,1.51-.57,2.07-.39.48-1.15.21-1.48.44s-.14,1.4-.95,1.57c-2.36-1.7-3.24-5.52-3.12-8.4,1.33-6.18,5.41-10.93,11.04-13.68.56.08,1.08-.07,1.2-.48.14-.06.28-.17.48-.24Z" style="fill: #4a93bd;"/>
  <path d="M29.67,132c.13.23.21.46.24.72-1.29-1.09-2.85-1.94-4.08-3.12.51-1.02.15-2.36.24-3.48.07-.84.3-1.7.48-2.52.41,1.63.67,3.28,1.26,4.86.47,1.28,1.19,2.37,1.86,3.54Z" style="fill: #275f8b;"/>
  <path d="M153.03,64.8c.54,1.97.78,3.96.04,5.92-.1.25-.2.83-.52.8-.08-.89.11-1.91,0-2.78-.04-.32-.24-.51-.25-.58-.94-2.47-1.79-3.73-4.62-3.98l-.18-.34c-1.23-.55-2.82-.18-4.08,0-.26-.2,2.36-1.18,2.69-1.27,1.39-.37,3.45-.62,4.86-.39s1.74,1.5,2.05,2.63Z" style="fill: #173b56;"/>
  <path d="M147.51,63.84c3.47.26,4.28.94,4.8,4.32l-.27.15c-.32-1.26-1.52-2.43-2.61-3.03-1.17-.63-3-1.22-4.32-1.2l2.4-.24Z" style="fill: #b3f1f8;"/>
  <path d="M63.27,203.52c.52-1.18,1.5-2.04,2.16-3.12,1.78,2.36.08,3.02-2.16,3.12Z" style="fill: #22699e;"/>
  <path d="M32.79,139.92l.48.96c-1.91.18-.62,1.51-.81,2.65-.18,1.07-1.24,2.4-1.43,3.16-.17.7.48,1.9-.87,2.12-.25.59.46.42.5.61.16.88-1.13,1.54-1.35,2.25-.19.61.05,1.31-.33,1.83-.24.33-1.72.94-2.26,1.34-.62.47-2.07,1.56-2.55,2.01-.45.42-.45,1.15-1.13,1.53-.56.31-1.39-.11-1.52.02-.08.08-.22,1.85-.24,2.16-.61.13-.55-.51-.89-.73-1.33-.87-1.65.07-2.33.02-.09,0-.69-.79-1.36-1.07-.58-.24-1.12-.12-1.17-.15-.4-.18-.66-.55-.96-.72-.51-.46-1.07-.86-1.68-1.2-.07-.03-.17.03-.24,0,.76-.47,1.79-.17,2.7-.3,2.04-.3,7.33-2.32,8.45-4.03,3.68-5.61-.22-15.54-3.19-20.79-.1-.17-.67-.96-.28-1.04,4.47,2.85,8.38,6.05,12.48,9.36Z" style="fill: #488ab8;"/>
  <path d="M43.83,89.76l-.24.24c-.68-.1-1.37-.49-2.06-1.18-.89-.29-1.56-.69-2.02-1.22-.62-.58-2.46.3-2.16-1.2.46-.02.94-.28,1.56-.26,2.79.1,3.36,1.91,4.92,3.62Z" style="fill: #1c262a;"/>
  <path d="M39.51,87.6c1.57.17,3.12,1.18,4.08,2.4.16.2.27.44.48.6.04.18-.22.15-.35.11-1.72-.43-3.67-2.33-5.4-2.88-.04-.41.96-.26,1.2-.24Z" style="fill: #82e2f2;"/>
  <path d="M167.43,146.4c-5.79,8.14-17.53,16.05-26.39,20.77-2.96,1.57-11.4,5.79-14.47,5.1-1.62-.37-1.4-2.36-1.85-3.55,1.44-7.64,9.72-20.91,14.16-27.6.33.29.52-.18.68-.4,1.85-2.56,3.81-5.08,5.8-7.52l.37.38c-2.57,5.6-4.5,11.37-5.78,17.3-1.81,10.1,3.78,9.67,10.79,5.82,5.61-3.08,10.82-6.54,16.03-10.21l.68-.09Z" style="fill: #4680b2;"/>
  <path d="M145.35,133.2c3.23-3.97,6.6-8.05,10.18-11.67,1.55-1.57,1.85-1.45,3.87-.34.65.36,3.07,2,3.18,2.59.16.84-1.94,3.44-2.46,4.4-.15.27-.08.61-.13.7-2.57,4.69-5.46,9.25-7.44,14.28.58.43,1.13-1.3,1.49-1.87,2.9-4.74,6.75-11.64,10.51-15.53.49.09.95.41,1.31.73,1.67,1.45,3.31,4.46,3.67,6.65.15.91-.19,1.93.3,2.7-2.15,3.04-9.82,7.65-12.94,10.7-.25.25-.61.35-.5.82l14.4-8.88c.32.43.23.73.13,1.19-.55,2.67-1.97,4.59-3.49,6.73-5.7,4.08-11.66,8.7-18.15,11.49-2.02.87-6.13,2.6-8.09,1.44-3.75-2.23-1.29-11.23-.33-14.65l4.49-11.47Z" style="fill: #70e3fd;"/>
  <path d="M38.79,109.44l.24.12c-.33.43-.7.75-1.27.57l-.17-.21c.43-.21.79-.31,1.2-.48Z" style="fill: #4680b2;"/>
  <path d="M12.87,156.72c.77.31,1.25,0,1.68,1.2-.57-.32-1.37-.46-1.68-1.2Z" style="fill: #4680b2;"/>
  <path d="M92.07,32.88c1.01.93,2.05,1.83,2.64,3.12-8.3-3.36-8.74,8.01-8.16,13.32.5,4.6,2.03,9.07,3.73,13.33-.64.49-4.5,3.25-4.93,2.87-1.11-4.34-1.99-8.7-2.16-13.2-.45-4.38-.04-8.84.71-13.17.59-3.43,4.19-9.38,8.17-6.27Z" style="fill: #fcfcfc;"/>
  <path d="M90.39,56.64c-.97-2.39-.19-6.05.95-8.43.26-.56,1.46-1.95,2.05-1.72.4.15,1.74,4.09,1.56,4.88l.02.77c-1.25,2.04-1.21,4.63-.44,6.84l-.3.55c-.56.5-1.4,1.36-1.91,1.77-.15.12-.33.29-.48.15-.22-.2-1.39-4.23-1.44-4.8Z" style="fill: #c82a4d;"/>
  <path d="M98.79,54.24c-.44-4.07-1.18-8.16-3.09-11.72-.14-.26-.05-.57-.37-1.02-.72-1.02-1.33-.44-1.59-.58s-.55-1.19-.84-1.55c-.33-.42-1.87-1.04-1.55-1.44.2-.25,1.4-.53,1.79-.5.24.01,2.76.93,2.94,1.04,1.55,1.01,3.48,5.75,4.15,7.61-.49.24-1.09.03-1.8-.62l.74,3.88c-.4.07-.48.25-.38.58.81.16.92,3.01.7,3.64-.12.33-.34.73-.7.68Z" style="fill: #682a35;"/>
  <path d="M90.39,56.64c-.69.14-.44-.34-.55-.76-.53-2.05-1.11-4.53-1.39-6.55-.16-1.12.14-2.57.01-3.73.62-.09.67.65,1.17.93.96.53,1.99.66,2.98.05.27-.17.64-.98.93-1.29.91-.99.59.91.69,1.39.33,1.55.92,3.1,1.4,4.41.38,1.03.84,2.06.99,3.16-1.01.01-2.07-1.94-1.68-2.88-.67-1.42-1.27-2.9-1.68-4.42-.28-.51-1.14.83-1.29,1.09-1.24,2.19-1.82,6.12-1.59,8.61Z" style="fill: #682937;"/>
  <path d="M89.74,39.68c3.22-2.9,5.62,5.95,1.9,6.84-2.81.68-3.94-5.01-1.9-6.84Z" style="fill: #fcfcfb;"/>
  <path d="M92.07,32.88c-4.64-1.95-6.8,3.1-7.8,6.72-1.14,4.12-1.25,8.46-1.08,12.72-.4-.25-.24-.91-.24-1.32-.07-5.31-.13-13.79,2.36-18.52,1.91-3.63,4.57-1.62,6.76.4Z" style="fill: #8f8db9;"/>
  <path d="M96.63,54.24c.43.58.92,1.06,1.44,1.56-1.24,1.28-2.51,2.53-3.84,3.72-1.05-2.42-1.08-6.06.72-8.16.51,1.08.95,1.9,1.68,2.88Z" style="fill: #f14e86;"/>
  <path d="M98.79,49.92l-.96-5.04c1.11-.11,1.55.82,2.4,1.2.51,1.42,1.2,3.01,1.2,4.56l-.63.27c-.78-.68-1.45-1.02-2.01-.99Z" style="fill: #c52b4e;"/>
  <path d="M101.43,50.64c0,.34.04.68-.05,1.02-.12.48-2.05,2.86-2.47,3.06-.72.33-.11-.44-.12-.48.59-1.32.11-2.96,0-4.32-.11-.71.27-.52.73-.37.75.25,1.16.92,1.91,1.09Z" style="fill: #ed5084;"/>
</svg>